%TF.GenerationSoftware,KiCad,Pcbnew,10.0.6*%
%TF.CreationDate,2026-10-09T09:46:49+02:00*%
%TF.ProjectId,Interface_IAI,496e7465-7266-4616-9365-5f4941492e6b,rev?*%
%TF.SameCoordinates,Original*%
%TF.FileFunction,Drillmap*%
%TF.FilePolarity,Positive*%
%FSLAX45Y45*%
G04 Gerber Fmt 4.5, Leading zero omitted, Abs format (unit mm)*
G04 Created by KiCad (PCBNEW 10.0.6) date 2026-10-09 09:46:49*
%MOMM*%
%LPD*%
G01*
G04 APERTURE LIST*
%ADD10C,0.050000*%
%ADD11C,0.200000*%
%ADD12C,0.100000*%
%ADD13C,0.110000*%
%ADD14C,0.130000*%
G04 APERTURE END LIST*
D10*
X5000000Y-4999987D02*
X12933000Y-4999987D01*
X12933000Y-19099571D01*
X5000000Y-19099571D01*
X5000000Y-4999987D01*
D11*
D12*
X10608500Y-9738987D02*
X10679500Y-9809987D01*
X10679500Y-9738987D02*
X10608500Y-9809987D01*
X11118500Y-9997987D02*
X11189500Y-10068987D01*
X11189500Y-9997987D02*
X11118500Y-10068987D01*
X7828000Y-5426000D02*
G75*
G02*
X7748000Y-5426000I-40000J0D01*
G01*
X7748000Y-5426000D02*
G75*
G02*
X7828000Y-5426000I40000J0D01*
G01*
X7828000Y-6188000D02*
G75*
G02*
X7748000Y-6188000I-40000J0D01*
G01*
X7748000Y-6188000D02*
G75*
G02*
X7828000Y-6188000I40000J0D01*
G01*
X7828000Y-6466571D02*
G75*
G02*
X7748000Y-6466571I-40000J0D01*
G01*
X7748000Y-6466571D02*
G75*
G02*
X7828000Y-6466571I40000J0D01*
G01*
X7828000Y-7228571D02*
G75*
G02*
X7748000Y-7228571I-40000J0D01*
G01*
X7748000Y-7228571D02*
G75*
G02*
X7828000Y-7228571I40000J0D01*
G01*
X7858000Y-12836571D02*
G75*
G02*
X7778000Y-12836571I-40000J0D01*
G01*
X7778000Y-12836571D02*
G75*
G02*
X7858000Y-12836571I40000J0D01*
G01*
X7858000Y-13090571D02*
G75*
G02*
X7778000Y-13090571I-40000J0D01*
G01*
X7778000Y-13090571D02*
G75*
G02*
X7858000Y-13090571I40000J0D01*
G01*
X7858000Y-13344571D02*
G75*
G02*
X7778000Y-13344571I-40000J0D01*
G01*
X7778000Y-13344571D02*
G75*
G02*
X7858000Y-13344571I40000J0D01*
G01*
X7858000Y-13598571D02*
G75*
G02*
X7778000Y-13598571I-40000J0D01*
G01*
X7778000Y-13598571D02*
G75*
G02*
X7858000Y-13598571I40000J0D01*
G01*
X7858000Y-13852571D02*
G75*
G02*
X7778000Y-13852571I-40000J0D01*
G01*
X7778000Y-13852571D02*
G75*
G02*
X7858000Y-13852571I40000J0D01*
G01*
X7858000Y-14106571D02*
G75*
G02*
X7778000Y-14106571I-40000J0D01*
G01*
X7778000Y-14106571D02*
G75*
G02*
X7858000Y-14106571I40000J0D01*
G01*
X7858000Y-14360571D02*
G75*
G02*
X7778000Y-14360571I-40000J0D01*
G01*
X7778000Y-14360571D02*
G75*
G02*
X7858000Y-14360571I40000J0D01*
G01*
X7858000Y-14614571D02*
G75*
G02*
X7778000Y-14614571I-40000J0D01*
G01*
X7778000Y-14614571D02*
G75*
G02*
X7858000Y-14614571I40000J0D01*
G01*
X7858000Y-14868571D02*
G75*
G02*
X7778000Y-14868571I-40000J0D01*
G01*
X7778000Y-14868571D02*
G75*
G02*
X7858000Y-14868571I40000J0D01*
G01*
X7862750Y-9362571D02*
G75*
G02*
X7782750Y-9362571I-40000J0D01*
G01*
X7782750Y-9362571D02*
G75*
G02*
X7862750Y-9362571I40000J0D01*
G01*
X7862750Y-9616571D02*
G75*
G02*
X7782750Y-9616571I-40000J0D01*
G01*
X7782750Y-9616571D02*
G75*
G02*
X7862750Y-9616571I40000J0D01*
G01*
X7862750Y-9870571D02*
G75*
G02*
X7782750Y-9870571I-40000J0D01*
G01*
X7782750Y-9870571D02*
G75*
G02*
X7862750Y-9870571I40000J0D01*
G01*
X7862750Y-10124571D02*
G75*
G02*
X7782750Y-10124571I-40000J0D01*
G01*
X7782750Y-10124571D02*
G75*
G02*
X7862750Y-10124571I40000J0D01*
G01*
X7862750Y-10378571D02*
G75*
G02*
X7782750Y-10378571I-40000J0D01*
G01*
X7782750Y-10378571D02*
G75*
G02*
X7862750Y-10378571I40000J0D01*
G01*
X7862750Y-10632571D02*
G75*
G02*
X7782750Y-10632571I-40000J0D01*
G01*
X7782750Y-10632571D02*
G75*
G02*
X7862750Y-10632571I40000J0D01*
G01*
X7862750Y-10886571D02*
G75*
G02*
X7782750Y-10886571I-40000J0D01*
G01*
X7782750Y-10886571D02*
G75*
G02*
X7862750Y-10886571I40000J0D01*
G01*
X7862750Y-11140571D02*
G75*
G02*
X7782750Y-11140571I-40000J0D01*
G01*
X7782750Y-11140571D02*
G75*
G02*
X7862750Y-11140571I40000J0D01*
G01*
X7933000Y-15835571D02*
G75*
G02*
X7853000Y-15835571I-40000J0D01*
G01*
X7853000Y-15835571D02*
G75*
G02*
X7933000Y-15835571I40000J0D01*
G01*
X7933000Y-16315571D02*
G75*
G02*
X7853000Y-16315571I-40000J0D01*
G01*
X7853000Y-16315571D02*
G75*
G02*
X7933000Y-16315571I40000J0D01*
G01*
X7934000Y-16825571D02*
G75*
G02*
X7854000Y-16825571I-40000J0D01*
G01*
X7854000Y-16825571D02*
G75*
G02*
X7934000Y-16825571I40000J0D01*
G01*
X7954000Y-17305571D02*
G75*
G02*
X7874000Y-17305571I-40000J0D01*
G01*
X7874000Y-17305571D02*
G75*
G02*
X7954000Y-17305571I40000J0D01*
G01*
X7955000Y-18295571D02*
G75*
G02*
X7875000Y-18295571I-40000J0D01*
G01*
X7875000Y-18295571D02*
G75*
G02*
X7955000Y-18295571I40000J0D01*
G01*
X7964000Y-17805571D02*
G75*
G02*
X7884000Y-17805571I-40000J0D01*
G01*
X7884000Y-17805571D02*
G75*
G02*
X7964000Y-17805571I40000J0D01*
G01*
X7971250Y-8319321D02*
G75*
G02*
X7891250Y-8319321I-40000J0D01*
G01*
X7891250Y-8319321D02*
G75*
G02*
X7971250Y-8319321I40000J0D01*
G01*
X7971250Y-8819321D02*
G75*
G02*
X7891250Y-8819321I-40000J0D01*
G01*
X7891250Y-8819321D02*
G75*
G02*
X7971250Y-8819321I40000J0D01*
G01*
X8193000Y-7630571D02*
G75*
G02*
X8113000Y-7630571I-40000J0D01*
G01*
X8113000Y-7630571D02*
G75*
G02*
X8193000Y-7630571I40000J0D01*
G01*
X8216000Y-5483203D02*
G75*
G02*
X8136000Y-5483203I-40000J0D01*
G01*
X8136000Y-5483203D02*
G75*
G02*
X8216000Y-5483203I40000J0D01*
G01*
X8216000Y-5737203D02*
G75*
G02*
X8136000Y-5737203I-40000J0D01*
G01*
X8136000Y-5737203D02*
G75*
G02*
X8216000Y-5737203I40000J0D01*
G01*
X8216000Y-5991203D02*
G75*
G02*
X8136000Y-5991203I-40000J0D01*
G01*
X8136000Y-5991203D02*
G75*
G02*
X8216000Y-5991203I40000J0D01*
G01*
X8216000Y-6245203D02*
G75*
G02*
X8136000Y-6245203I-40000J0D01*
G01*
X8136000Y-6245203D02*
G75*
G02*
X8216000Y-6245203I40000J0D01*
G01*
X8216000Y-6499203D02*
G75*
G02*
X8136000Y-6499203I-40000J0D01*
G01*
X8136000Y-6499203D02*
G75*
G02*
X8216000Y-6499203I40000J0D01*
G01*
X8216000Y-6753203D02*
G75*
G02*
X8136000Y-6753203I-40000J0D01*
G01*
X8136000Y-6753203D02*
G75*
G02*
X8216000Y-6753203I40000J0D01*
G01*
X8216000Y-7007203D02*
G75*
G02*
X8136000Y-7007203I-40000J0D01*
G01*
X8136000Y-7007203D02*
G75*
G02*
X8216000Y-7007203I40000J0D01*
G01*
X8216000Y-7261203D02*
G75*
G02*
X8136000Y-7261203I-40000J0D01*
G01*
X8136000Y-7261203D02*
G75*
G02*
X8216000Y-7261203I40000J0D01*
G01*
X8620000Y-12836571D02*
G75*
G02*
X8540000Y-12836571I-40000J0D01*
G01*
X8540000Y-12836571D02*
G75*
G02*
X8620000Y-12836571I40000J0D01*
G01*
X8620000Y-13090571D02*
G75*
G02*
X8540000Y-13090571I-40000J0D01*
G01*
X8540000Y-13090571D02*
G75*
G02*
X8620000Y-13090571I40000J0D01*
G01*
X8620000Y-13344571D02*
G75*
G02*
X8540000Y-13344571I-40000J0D01*
G01*
X8540000Y-13344571D02*
G75*
G02*
X8620000Y-13344571I40000J0D01*
G01*
X8620000Y-13598571D02*
G75*
G02*
X8540000Y-13598571I-40000J0D01*
G01*
X8540000Y-13598571D02*
G75*
G02*
X8620000Y-13598571I40000J0D01*
G01*
X8620000Y-13852571D02*
G75*
G02*
X8540000Y-13852571I-40000J0D01*
G01*
X8540000Y-13852571D02*
G75*
G02*
X8620000Y-13852571I40000J0D01*
G01*
X8620000Y-14106571D02*
G75*
G02*
X8540000Y-14106571I-40000J0D01*
G01*
X8540000Y-14106571D02*
G75*
G02*
X8620000Y-14106571I40000J0D01*
G01*
X8620000Y-14360571D02*
G75*
G02*
X8540000Y-14360571I-40000J0D01*
G01*
X8540000Y-14360571D02*
G75*
G02*
X8620000Y-14360571I40000J0D01*
G01*
X8620000Y-14614571D02*
G75*
G02*
X8540000Y-14614571I-40000J0D01*
G01*
X8540000Y-14614571D02*
G75*
G02*
X8620000Y-14614571I40000J0D01*
G01*
X8620000Y-14868571D02*
G75*
G02*
X8540000Y-14868571I-40000J0D01*
G01*
X8540000Y-14868571D02*
G75*
G02*
X8620000Y-14868571I40000J0D01*
G01*
X8624750Y-9362571D02*
G75*
G02*
X8544750Y-9362571I-40000J0D01*
G01*
X8544750Y-9362571D02*
G75*
G02*
X8624750Y-9362571I40000J0D01*
G01*
X8624750Y-9616571D02*
G75*
G02*
X8544750Y-9616571I-40000J0D01*
G01*
X8544750Y-9616571D02*
G75*
G02*
X8624750Y-9616571I40000J0D01*
G01*
X8624750Y-9870571D02*
G75*
G02*
X8544750Y-9870571I-40000J0D01*
G01*
X8544750Y-9870571D02*
G75*
G02*
X8624750Y-9870571I40000J0D01*
G01*
X8624750Y-10124571D02*
G75*
G02*
X8544750Y-10124571I-40000J0D01*
G01*
X8544750Y-10124571D02*
G75*
G02*
X8624750Y-10124571I40000J0D01*
G01*
X8624750Y-10378571D02*
G75*
G02*
X8544750Y-10378571I-40000J0D01*
G01*
X8544750Y-10378571D02*
G75*
G02*
X8624750Y-10378571I40000J0D01*
G01*
X8624750Y-10632571D02*
G75*
G02*
X8544750Y-10632571I-40000J0D01*
G01*
X8544750Y-10632571D02*
G75*
G02*
X8624750Y-10632571I40000J0D01*
G01*
X8624750Y-10886571D02*
G75*
G02*
X8544750Y-10886571I-40000J0D01*
G01*
X8544750Y-10886571D02*
G75*
G02*
X8624750Y-10886571I40000J0D01*
G01*
X8624750Y-11140571D02*
G75*
G02*
X8544750Y-11140571I-40000J0D01*
G01*
X8544750Y-11140571D02*
G75*
G02*
X8624750Y-11140571I40000J0D01*
G01*
X8695000Y-15835571D02*
G75*
G02*
X8615000Y-15835571I-40000J0D01*
G01*
X8615000Y-15835571D02*
G75*
G02*
X8695000Y-15835571I40000J0D01*
G01*
X8695000Y-16315571D02*
G75*
G02*
X8615000Y-16315571I-40000J0D01*
G01*
X8615000Y-16315571D02*
G75*
G02*
X8695000Y-16315571I40000J0D01*
G01*
X8696000Y-16825571D02*
G75*
G02*
X8616000Y-16825571I-40000J0D01*
G01*
X8616000Y-16825571D02*
G75*
G02*
X8696000Y-16825571I40000J0D01*
G01*
X8716000Y-17305571D02*
G75*
G02*
X8636000Y-17305571I-40000J0D01*
G01*
X8636000Y-17305571D02*
G75*
G02*
X8716000Y-17305571I40000J0D01*
G01*
X8717000Y-18295571D02*
G75*
G02*
X8637000Y-18295571I-40000J0D01*
G01*
X8637000Y-18295571D02*
G75*
G02*
X8717000Y-18295571I40000J0D01*
G01*
X8726000Y-17805571D02*
G75*
G02*
X8646000Y-17805571I-40000J0D01*
G01*
X8646000Y-17805571D02*
G75*
G02*
X8726000Y-17805571I40000J0D01*
G01*
X8910750Y-9353571D02*
G75*
G02*
X8830750Y-9353571I-40000J0D01*
G01*
X8830750Y-9353571D02*
G75*
G02*
X8910750Y-9353571I40000J0D01*
G01*
X8919000Y-12835987D02*
G75*
G02*
X8839000Y-12835987I-40000J0D01*
G01*
X8839000Y-12835987D02*
G75*
G02*
X8919000Y-12835987I40000J0D01*
G01*
X8955000Y-7630571D02*
G75*
G02*
X8875000Y-7630571I-40000J0D01*
G01*
X8875000Y-7630571D02*
G75*
G02*
X8955000Y-7630571I40000J0D01*
G01*
X8978000Y-5483203D02*
G75*
G02*
X8898000Y-5483203I-40000J0D01*
G01*
X8898000Y-5483203D02*
G75*
G02*
X8978000Y-5483203I40000J0D01*
G01*
X8978000Y-5737203D02*
G75*
G02*
X8898000Y-5737203I-40000J0D01*
G01*
X8898000Y-5737203D02*
G75*
G02*
X8978000Y-5737203I40000J0D01*
G01*
X8978000Y-5991203D02*
G75*
G02*
X8898000Y-5991203I-40000J0D01*
G01*
X8898000Y-5991203D02*
G75*
G02*
X8978000Y-5991203I40000J0D01*
G01*
X8978000Y-6245203D02*
G75*
G02*
X8898000Y-6245203I-40000J0D01*
G01*
X8898000Y-6245203D02*
G75*
G02*
X8978000Y-6245203I40000J0D01*
G01*
X8978000Y-6499203D02*
G75*
G02*
X8898000Y-6499203I-40000J0D01*
G01*
X8898000Y-6499203D02*
G75*
G02*
X8978000Y-6499203I40000J0D01*
G01*
X8978000Y-6753203D02*
G75*
G02*
X8898000Y-6753203I-40000J0D01*
G01*
X8898000Y-6753203D02*
G75*
G02*
X8978000Y-6753203I40000J0D01*
G01*
X8978000Y-7007203D02*
G75*
G02*
X8898000Y-7007203I-40000J0D01*
G01*
X8898000Y-7007203D02*
G75*
G02*
X8978000Y-7007203I40000J0D01*
G01*
X8978000Y-7261203D02*
G75*
G02*
X8898000Y-7261203I-40000J0D01*
G01*
X8898000Y-7261203D02*
G75*
G02*
X8978000Y-7261203I40000J0D01*
G01*
X9009750Y-9753571D02*
G75*
G02*
X8929750Y-9753571I-40000J0D01*
G01*
X8929750Y-9753571D02*
G75*
G02*
X9009750Y-9753571I40000J0D01*
G01*
X9009750Y-10113571D02*
G75*
G02*
X8929750Y-10113571I-40000J0D01*
G01*
X8929750Y-10113571D02*
G75*
G02*
X9009750Y-10113571I40000J0D01*
G01*
X9014000Y-14074571D02*
G75*
G02*
X8934000Y-14074571I-40000J0D01*
G01*
X8934000Y-14074571D02*
G75*
G02*
X9014000Y-14074571I40000J0D01*
G01*
X9014000Y-14523571D02*
G75*
G02*
X8934000Y-14523571I-40000J0D01*
G01*
X8934000Y-14523571D02*
G75*
G02*
X9014000Y-14523571I40000J0D01*
G01*
X9014000Y-15001571D02*
G75*
G02*
X8934000Y-15001571I-40000J0D01*
G01*
X8934000Y-15001571D02*
G75*
G02*
X9014000Y-15001571I40000J0D01*
G01*
X9014000Y-15420571D02*
G75*
G02*
X8934000Y-15420571I-40000J0D01*
G01*
X8934000Y-15420571D02*
G75*
G02*
X9014000Y-15420571I40000J0D01*
G01*
X9014000Y-15835571D02*
G75*
G02*
X8934000Y-15835571I-40000J0D01*
G01*
X8934000Y-15835571D02*
G75*
G02*
X9014000Y-15835571I40000J0D01*
G01*
X9014000Y-16315571D02*
G75*
G02*
X8934000Y-16315571I-40000J0D01*
G01*
X8934000Y-16315571D02*
G75*
G02*
X9014000Y-16315571I40000J0D01*
G01*
X9014000Y-16825571D02*
G75*
G02*
X8934000Y-16825571I-40000J0D01*
G01*
X8934000Y-16825571D02*
G75*
G02*
X9014000Y-16825571I40000J0D01*
G01*
X9014000Y-17295571D02*
G75*
G02*
X8934000Y-17295571I-40000J0D01*
G01*
X8934000Y-17295571D02*
G75*
G02*
X9014000Y-17295571I40000J0D01*
G01*
X9014000Y-17805571D02*
G75*
G02*
X8934000Y-17805571I-40000J0D01*
G01*
X8934000Y-17805571D02*
G75*
G02*
X9014000Y-17805571I40000J0D01*
G01*
X9014000Y-18305571D02*
G75*
G02*
X8934000Y-18305571I-40000J0D01*
G01*
X8934000Y-18305571D02*
G75*
G02*
X9014000Y-18305571I40000J0D01*
G01*
X9016000Y-13238571D02*
G75*
G02*
X8936000Y-13238571I-40000J0D01*
G01*
X8936000Y-13238571D02*
G75*
G02*
X9016000Y-13238571I40000J0D01*
G01*
X9016000Y-13648571D02*
G75*
G02*
X8936000Y-13648571I-40000J0D01*
G01*
X8936000Y-13648571D02*
G75*
G02*
X9016000Y-13648571I40000J0D01*
G01*
X9059750Y-10441571D02*
G75*
G02*
X8979750Y-10441571I-40000J0D01*
G01*
X8979750Y-10441571D02*
G75*
G02*
X9059750Y-10441571I40000J0D01*
G01*
X9059750Y-11203571D02*
G75*
G02*
X8979750Y-11203571I-40000J0D01*
G01*
X8979750Y-11203571D02*
G75*
G02*
X9059750Y-11203571I40000J0D01*
G01*
X9278000Y-5467571D02*
G75*
G02*
X9198000Y-5467571I-40000J0D01*
G01*
X9198000Y-5467571D02*
G75*
G02*
X9278000Y-5467571I40000J0D01*
G01*
X9347000Y-6917571D02*
G75*
G02*
X9267000Y-6917571I-40000J0D01*
G01*
X9267000Y-6917571D02*
G75*
G02*
X9347000Y-6917571I40000J0D01*
G01*
X9353000Y-6089571D02*
G75*
G02*
X9273000Y-6089571I-40000J0D01*
G01*
X9273000Y-6089571D02*
G75*
G02*
X9353000Y-6089571I40000J0D01*
G01*
X9353000Y-6431571D02*
G75*
G02*
X9273000Y-6431571I-40000J0D01*
G01*
X9273000Y-6431571D02*
G75*
G02*
X9353000Y-6431571I40000J0D01*
G01*
X9390750Y-10442571D02*
G75*
G02*
X9310750Y-10442571I-40000J0D01*
G01*
X9310750Y-10442571D02*
G75*
G02*
X9390750Y-10442571I40000J0D01*
G01*
X9390750Y-11204571D02*
G75*
G02*
X9310750Y-11204571I-40000J0D01*
G01*
X9310750Y-11204571D02*
G75*
G02*
X9390750Y-11204571I40000J0D01*
G01*
X9410750Y-9353571D02*
G75*
G02*
X9330750Y-9353571I-40000J0D01*
G01*
X9330750Y-9353571D02*
G75*
G02*
X9410750Y-9353571I40000J0D01*
G01*
X9419000Y-12835987D02*
G75*
G02*
X9339000Y-12835987I-40000J0D01*
G01*
X9339000Y-12835987D02*
G75*
G02*
X9419000Y-12835987I40000J0D01*
G01*
X9738137Y-8411216D02*
G75*
G02*
X9658137Y-8411216I-40000J0D01*
G01*
X9658137Y-8411216D02*
G75*
G02*
X9738137Y-8411216I40000J0D01*
G01*
X9738137Y-8611216D02*
G75*
G02*
X9658137Y-8611216I-40000J0D01*
G01*
X9658137Y-8611216D02*
G75*
G02*
X9738137Y-8611216I40000J0D01*
G01*
X9771750Y-9753571D02*
G75*
G02*
X9691750Y-9753571I-40000J0D01*
G01*
X9691750Y-9753571D02*
G75*
G02*
X9771750Y-9753571I40000J0D01*
G01*
X9771750Y-10113571D02*
G75*
G02*
X9691750Y-10113571I-40000J0D01*
G01*
X9691750Y-10113571D02*
G75*
G02*
X9771750Y-10113571I40000J0D01*
G01*
X9776000Y-14074571D02*
G75*
G02*
X9696000Y-14074571I-40000J0D01*
G01*
X9696000Y-14074571D02*
G75*
G02*
X9776000Y-14074571I40000J0D01*
G01*
X9776000Y-14523571D02*
G75*
G02*
X9696000Y-14523571I-40000J0D01*
G01*
X9696000Y-14523571D02*
G75*
G02*
X9776000Y-14523571I40000J0D01*
G01*
X9776000Y-15001571D02*
G75*
G02*
X9696000Y-15001571I-40000J0D01*
G01*
X9696000Y-15001571D02*
G75*
G02*
X9776000Y-15001571I40000J0D01*
G01*
X9776000Y-15420571D02*
G75*
G02*
X9696000Y-15420571I-40000J0D01*
G01*
X9696000Y-15420571D02*
G75*
G02*
X9776000Y-15420571I40000J0D01*
G01*
X9776000Y-15835571D02*
G75*
G02*
X9696000Y-15835571I-40000J0D01*
G01*
X9696000Y-15835571D02*
G75*
G02*
X9776000Y-15835571I40000J0D01*
G01*
X9776000Y-16315571D02*
G75*
G02*
X9696000Y-16315571I-40000J0D01*
G01*
X9696000Y-16315571D02*
G75*
G02*
X9776000Y-16315571I40000J0D01*
G01*
X9776000Y-16825571D02*
G75*
G02*
X9696000Y-16825571I-40000J0D01*
G01*
X9696000Y-16825571D02*
G75*
G02*
X9776000Y-16825571I40000J0D01*
G01*
X9776000Y-17295571D02*
G75*
G02*
X9696000Y-17295571I-40000J0D01*
G01*
X9696000Y-17295571D02*
G75*
G02*
X9776000Y-17295571I40000J0D01*
G01*
X9776000Y-17805571D02*
G75*
G02*
X9696000Y-17805571I-40000J0D01*
G01*
X9696000Y-17805571D02*
G75*
G02*
X9776000Y-17805571I40000J0D01*
G01*
X9776000Y-18305571D02*
G75*
G02*
X9696000Y-18305571I-40000J0D01*
G01*
X9696000Y-18305571D02*
G75*
G02*
X9776000Y-18305571I40000J0D01*
G01*
X9778000Y-5467571D02*
G75*
G02*
X9698000Y-5467571I-40000J0D01*
G01*
X9698000Y-5467571D02*
G75*
G02*
X9778000Y-5467571I40000J0D01*
G01*
X9778000Y-13238571D02*
G75*
G02*
X9698000Y-13238571I-40000J0D01*
G01*
X9698000Y-13238571D02*
G75*
G02*
X9778000Y-13238571I40000J0D01*
G01*
X9778000Y-13648571D02*
G75*
G02*
X9698000Y-13648571I-40000J0D01*
G01*
X9698000Y-13648571D02*
G75*
G02*
X9778000Y-13648571I40000J0D01*
G01*
X9946137Y-7694216D02*
G75*
G02*
X9866137Y-7694216I-40000J0D01*
G01*
X9866137Y-7694216D02*
G75*
G02*
X9946137Y-7694216I40000J0D01*
G01*
X10037137Y-9337216D02*
G75*
G02*
X9957137Y-9337216I-40000J0D01*
G01*
X9957137Y-9337216D02*
G75*
G02*
X10037137Y-9337216I40000J0D01*
G01*
X10109000Y-6917571D02*
G75*
G02*
X10029000Y-6917571I-40000J0D01*
G01*
X10029000Y-6917571D02*
G75*
G02*
X10109000Y-6917571I40000J0D01*
G01*
X10115000Y-6089571D02*
G75*
G02*
X10035000Y-6089571I-40000J0D01*
G01*
X10035000Y-6089571D02*
G75*
G02*
X10115000Y-6089571I40000J0D01*
G01*
X10115000Y-6431571D02*
G75*
G02*
X10035000Y-6431571I-40000J0D01*
G01*
X10035000Y-6431571D02*
G75*
G02*
X10115000Y-6431571I40000J0D01*
G01*
X10708137Y-7694216D02*
G75*
G02*
X10628137Y-7694216I-40000J0D01*
G01*
X10628137Y-7694216D02*
G75*
G02*
X10708137Y-7694216I40000J0D01*
G01*
X10799137Y-9337216D02*
G75*
G02*
X10719137Y-9337216I-40000J0D01*
G01*
X10719137Y-9337216D02*
G75*
G02*
X10799137Y-9337216I40000J0D01*
G01*
X11018137Y-7652216D02*
X11018137Y-7742216D01*
X10973137Y-7697216D02*
X11063137Y-7697216D01*
X11028137Y-9292216D02*
X11028137Y-9382216D01*
X10983137Y-9337216D02*
X11073137Y-9337216D01*
X11272137Y-7652216D02*
X11272137Y-7742216D01*
X11227137Y-7697216D02*
X11317137Y-7697216D01*
X11282137Y-9292216D02*
X11282137Y-9382216D01*
X11237137Y-9337216D02*
X11327137Y-9337216D01*
X8518606Y-8404677D02*
X8518606Y-8333965D01*
X8447894Y-8333965D01*
X8447894Y-8404677D01*
X8518606Y-8404677D01*
X8772606Y-8404677D02*
X8772606Y-8333965D01*
X8701894Y-8333965D01*
X8701894Y-8404677D01*
X8772606Y-8404677D01*
X9026606Y-8404677D02*
X9026606Y-8333965D01*
X8955894Y-8333965D01*
X8955894Y-8404677D01*
X9026606Y-8404677D01*
D13*
X10228000Y-10486000D02*
X10283000Y-10431000D01*
X10228000Y-10376000D01*
X10173000Y-10431000D01*
X10228000Y-10486000D01*
X11244000Y-10486000D02*
X11299000Y-10431000D01*
X11244000Y-10376000D01*
X11189000Y-10431000D01*
X11244000Y-10486000D01*
D14*
X6883000Y-5568571D02*
X7013000Y-5698571D01*
X7013000Y-5568571D02*
X6883000Y-5698571D01*
X7013000Y-5633571D02*
G75*
G02*
X6883000Y-5633571I-65000J0D01*
G01*
X6883000Y-5633571D02*
G75*
G02*
X7013000Y-5633571I65000J0D01*
G01*
X6883000Y-6076571D02*
X7013000Y-6206571D01*
X7013000Y-6076571D02*
X6883000Y-6206571D01*
X7013000Y-6141571D02*
G75*
G02*
X6883000Y-6141571I-65000J0D01*
G01*
X6883000Y-6141571D02*
G75*
G02*
X7013000Y-6141571I65000J0D01*
G01*
X6883000Y-6584571D02*
X7013000Y-6714571D01*
X7013000Y-6584571D02*
X6883000Y-6714571D01*
X7013000Y-6649571D02*
G75*
G02*
X6883000Y-6649571I-65000J0D01*
G01*
X6883000Y-6649571D02*
G75*
G02*
X7013000Y-6649571I65000J0D01*
G01*
X6883000Y-7092571D02*
X7013000Y-7222571D01*
X7013000Y-7092571D02*
X6883000Y-7222571D01*
X7013000Y-7157571D02*
G75*
G02*
X6883000Y-7157571I-65000J0D01*
G01*
X6883000Y-7157571D02*
G75*
G02*
X7013000Y-7157571I65000J0D01*
G01*
X6883000Y-7600571D02*
X7013000Y-7730571D01*
X7013000Y-7600571D02*
X6883000Y-7730571D01*
X7013000Y-7665571D02*
G75*
G02*
X6883000Y-7665571I-65000J0D01*
G01*
X6883000Y-7665571D02*
G75*
G02*
X7013000Y-7665571I65000J0D01*
G01*
X6883000Y-8108571D02*
X7013000Y-8238571D01*
X7013000Y-8108571D02*
X6883000Y-8238571D01*
X7013000Y-8173571D02*
G75*
G02*
X6883000Y-8173571I-65000J0D01*
G01*
X6883000Y-8173571D02*
G75*
G02*
X7013000Y-8173571I65000J0D01*
G01*
X6883000Y-8616571D02*
X7013000Y-8746571D01*
X7013000Y-8616571D02*
X6883000Y-8746571D01*
X7013000Y-8681571D02*
G75*
G02*
X6883000Y-8681571I-65000J0D01*
G01*
X6883000Y-8681571D02*
G75*
G02*
X7013000Y-8681571I65000J0D01*
G01*
X6885000Y-11714571D02*
X7015000Y-11844571D01*
X7015000Y-11714571D02*
X6885000Y-11844571D01*
X7015000Y-11779571D02*
G75*
G02*
X6885000Y-11779571I-65000J0D01*
G01*
X6885000Y-11779571D02*
G75*
G02*
X7015000Y-11779571I65000J0D01*
G01*
X6885000Y-12222571D02*
X7015000Y-12352571D01*
X7015000Y-12222571D02*
X6885000Y-12352571D01*
X7015000Y-12287571D02*
G75*
G02*
X6885000Y-12287571I-65000J0D01*
G01*
X6885000Y-12287571D02*
G75*
G02*
X7015000Y-12287571I65000J0D01*
G01*
X6885000Y-12730571D02*
X7015000Y-12860571D01*
X7015000Y-12730571D02*
X6885000Y-12860571D01*
X7015000Y-12795571D02*
G75*
G02*
X6885000Y-12795571I-65000J0D01*
G01*
X6885000Y-12795571D02*
G75*
G02*
X7015000Y-12795571I65000J0D01*
G01*
X6885000Y-13238571D02*
X7015000Y-13368571D01*
X7015000Y-13238571D02*
X6885000Y-13368571D01*
X7015000Y-13303571D02*
G75*
G02*
X6885000Y-13303571I-65000J0D01*
G01*
X6885000Y-13303571D02*
G75*
G02*
X7015000Y-13303571I65000J0D01*
G01*
X6885000Y-13746571D02*
X7015000Y-13876571D01*
X7015000Y-13746571D02*
X6885000Y-13876571D01*
X7015000Y-13811571D02*
G75*
G02*
X6885000Y-13811571I-65000J0D01*
G01*
X6885000Y-13811571D02*
G75*
G02*
X7015000Y-13811571I65000J0D01*
G01*
X6885000Y-14254571D02*
X7015000Y-14384571D01*
X7015000Y-14254571D02*
X6885000Y-14384571D01*
X7015000Y-14319571D02*
G75*
G02*
X6885000Y-14319571I-65000J0D01*
G01*
X6885000Y-14319571D02*
G75*
G02*
X7015000Y-14319571I65000J0D01*
G01*
X6885000Y-14762571D02*
X7015000Y-14892571D01*
X7015000Y-14762571D02*
X6885000Y-14892571D01*
X7015000Y-14827571D02*
G75*
G02*
X6885000Y-14827571I-65000J0D01*
G01*
X6885000Y-14827571D02*
G75*
G02*
X7015000Y-14827571I65000J0D01*
G01*
X6885000Y-15270571D02*
X7015000Y-15400571D01*
X7015000Y-15270571D02*
X6885000Y-15400571D01*
X7015000Y-15335571D02*
G75*
G02*
X6885000Y-15335571I-65000J0D01*
G01*
X6885000Y-15335571D02*
G75*
G02*
X7015000Y-15335571I65000J0D01*
G01*
X6885000Y-15778571D02*
X7015000Y-15908571D01*
X7015000Y-15778571D02*
X6885000Y-15908571D01*
X7015000Y-15843571D02*
G75*
G02*
X6885000Y-15843571I-65000J0D01*
G01*
X6885000Y-15843571D02*
G75*
G02*
X7015000Y-15843571I65000J0D01*
G01*
X6885000Y-16286571D02*
X7015000Y-16416571D01*
X7015000Y-16286571D02*
X6885000Y-16416571D01*
X7015000Y-16351571D02*
G75*
G02*
X6885000Y-16351571I-65000J0D01*
G01*
X6885000Y-16351571D02*
G75*
G02*
X7015000Y-16351571I65000J0D01*
G01*
X6885000Y-16794571D02*
X7015000Y-16924571D01*
X7015000Y-16794571D02*
X6885000Y-16924571D01*
X7015000Y-16859571D02*
G75*
G02*
X6885000Y-16859571I-65000J0D01*
G01*
X6885000Y-16859571D02*
G75*
G02*
X7015000Y-16859571I65000J0D01*
G01*
X6885000Y-17302571D02*
X7015000Y-17432571D01*
X7015000Y-17302571D02*
X6885000Y-17432571D01*
X7015000Y-17367571D02*
G75*
G02*
X6885000Y-17367571I-65000J0D01*
G01*
X6885000Y-17367571D02*
G75*
G02*
X7015000Y-17367571I65000J0D01*
G01*
X6885000Y-17810571D02*
X7015000Y-17940571D01*
X7015000Y-17810571D02*
X6885000Y-17940571D01*
X7015000Y-17875571D02*
G75*
G02*
X6885000Y-17875571I-65000J0D01*
G01*
X6885000Y-17875571D02*
G75*
G02*
X7015000Y-17875571I65000J0D01*
G01*
X6885000Y-18318571D02*
X7015000Y-18448571D01*
X7015000Y-18318571D02*
X6885000Y-18448571D01*
X7015000Y-18383571D02*
G75*
G02*
X6885000Y-18383571I-65000J0D01*
G01*
X6885000Y-18383571D02*
G75*
G02*
X7015000Y-18383571I65000J0D01*
G01*
X6885750Y-9420571D02*
X7015750Y-9550571D01*
X7015750Y-9420571D02*
X6885750Y-9550571D01*
X7015750Y-9485571D02*
G75*
G02*
X6885750Y-9485571I-65000J0D01*
G01*
X6885750Y-9485571D02*
G75*
G02*
X7015750Y-9485571I65000J0D01*
G01*
X6885750Y-9928571D02*
X7015750Y-10058571D01*
X7015750Y-9928571D02*
X6885750Y-10058571D01*
X7015750Y-9993571D02*
G75*
G02*
X6885750Y-9993571I-65000J0D01*
G01*
X6885750Y-9993571D02*
G75*
G02*
X7015750Y-9993571I65000J0D01*
G01*
X6885750Y-10436571D02*
X7015750Y-10566571D01*
X7015750Y-10436571D02*
X6885750Y-10566571D01*
X7015750Y-10501571D02*
G75*
G02*
X6885750Y-10501571I-65000J0D01*
G01*
X6885750Y-10501571D02*
G75*
G02*
X7015750Y-10501571I65000J0D01*
G01*
X6885750Y-10944571D02*
X7015750Y-11074571D01*
X7015750Y-10944571D02*
X6885750Y-11074571D01*
X7015750Y-11009571D02*
G75*
G02*
X6885750Y-11009571I-65000J0D01*
G01*
X6885750Y-11009571D02*
G75*
G02*
X7015750Y-11009571I65000J0D01*
G01*
X10814000Y-5556571D02*
X10944000Y-5686571D01*
X10944000Y-5556571D02*
X10814000Y-5686571D01*
X10944000Y-5621571D02*
G75*
G02*
X10814000Y-5621571I-65000J0D01*
G01*
X10814000Y-5621571D02*
G75*
G02*
X10944000Y-5621571I65000J0D01*
G01*
X10814000Y-6064571D02*
X10944000Y-6194571D01*
X10944000Y-6064571D02*
X10814000Y-6194571D01*
X10944000Y-6129571D02*
G75*
G02*
X10814000Y-6129571I-65000J0D01*
G01*
X10814000Y-6129571D02*
G75*
G02*
X10944000Y-6129571I65000J0D01*
G01*
X10814000Y-6572571D02*
X10944000Y-6702571D01*
X10944000Y-6572571D02*
X10814000Y-6702571D01*
X10944000Y-6637571D02*
G75*
G02*
X10814000Y-6637571I-65000J0D01*
G01*
X10814000Y-6637571D02*
G75*
G02*
X10944000Y-6637571I65000J0D01*
G01*
X10814000Y-7080571D02*
X10944000Y-7210571D01*
X10944000Y-7080571D02*
X10814000Y-7210571D01*
X10944000Y-7145571D02*
G75*
G02*
X10814000Y-7145571I-65000J0D01*
G01*
X10814000Y-7145571D02*
G75*
G02*
X10944000Y-7145571I65000J0D01*
G01*
X10821000Y-8195571D02*
X10951000Y-8325571D01*
X10951000Y-8195571D02*
X10821000Y-8325571D01*
X10951000Y-8260571D02*
G75*
G02*
X10821000Y-8260571I-65000J0D01*
G01*
X10821000Y-8260571D02*
G75*
G02*
X10951000Y-8260571I65000J0D01*
G01*
X10821000Y-8703571D02*
X10951000Y-8833571D01*
X10951000Y-8703571D02*
X10821000Y-8833571D01*
X10951000Y-8768571D02*
G75*
G02*
X10821000Y-8768571I-65000J0D01*
G01*
X10821000Y-8768571D02*
G75*
G02*
X10951000Y-8768571I65000J0D01*
G01*
X10847000Y-11210571D02*
X10977000Y-11340571D01*
X10977000Y-11210571D02*
X10847000Y-11340571D01*
X10977000Y-11275571D02*
G75*
G02*
X10847000Y-11275571I-65000J0D01*
G01*
X10847000Y-11275571D02*
G75*
G02*
X10977000Y-11275571I65000J0D01*
G01*
X10847000Y-11718571D02*
X10977000Y-11848571D01*
X10977000Y-11718571D02*
X10847000Y-11848571D01*
X10977000Y-11783571D02*
G75*
G02*
X10847000Y-11783571I-65000J0D01*
G01*
X10847000Y-11783571D02*
G75*
G02*
X10977000Y-11783571I65000J0D01*
G01*
X10847000Y-12226571D02*
X10977000Y-12356571D01*
X10977000Y-12226571D02*
X10847000Y-12356571D01*
X10977000Y-12291571D02*
G75*
G02*
X10847000Y-12291571I-65000J0D01*
G01*
X10847000Y-12291571D02*
G75*
G02*
X10977000Y-12291571I65000J0D01*
G01*
X10847000Y-12734571D02*
X10977000Y-12864571D01*
X10977000Y-12734571D02*
X10847000Y-12864571D01*
X10977000Y-12799571D02*
G75*
G02*
X10847000Y-12799571I-65000J0D01*
G01*
X10847000Y-12799571D02*
G75*
G02*
X10977000Y-12799571I65000J0D01*
G01*
X10847000Y-13242571D02*
X10977000Y-13372571D01*
X10977000Y-13242571D02*
X10847000Y-13372571D01*
X10977000Y-13307571D02*
G75*
G02*
X10847000Y-13307571I-65000J0D01*
G01*
X10847000Y-13307571D02*
G75*
G02*
X10977000Y-13307571I65000J0D01*
G01*
X10847000Y-13750571D02*
X10977000Y-13880571D01*
X10977000Y-13750571D02*
X10847000Y-13880571D01*
X10977000Y-13815571D02*
G75*
G02*
X10847000Y-13815571I-65000J0D01*
G01*
X10847000Y-13815571D02*
G75*
G02*
X10977000Y-13815571I65000J0D01*
G01*
X10847000Y-14258571D02*
X10977000Y-14388571D01*
X10977000Y-14258571D02*
X10847000Y-14388571D01*
X10977000Y-14323571D02*
G75*
G02*
X10847000Y-14323571I-65000J0D01*
G01*
X10847000Y-14323571D02*
G75*
G02*
X10977000Y-14323571I65000J0D01*
G01*
X10847000Y-14766571D02*
X10977000Y-14896571D01*
X10977000Y-14766571D02*
X10847000Y-14896571D01*
X10977000Y-14831571D02*
G75*
G02*
X10847000Y-14831571I-65000J0D01*
G01*
X10847000Y-14831571D02*
G75*
G02*
X10977000Y-14831571I65000J0D01*
G01*
X10847000Y-15274571D02*
X10977000Y-15404571D01*
X10977000Y-15274571D02*
X10847000Y-15404571D01*
X10977000Y-15339571D02*
G75*
G02*
X10847000Y-15339571I-65000J0D01*
G01*
X10847000Y-15339571D02*
G75*
G02*
X10977000Y-15339571I65000J0D01*
G01*
X10847000Y-15782571D02*
X10977000Y-15912571D01*
X10977000Y-15782571D02*
X10847000Y-15912571D01*
X10977000Y-15847571D02*
G75*
G02*
X10847000Y-15847571I-65000J0D01*
G01*
X10847000Y-15847571D02*
G75*
G02*
X10977000Y-15847571I65000J0D01*
G01*
X10847000Y-16290571D02*
X10977000Y-16420571D01*
X10977000Y-16290571D02*
X10847000Y-16420571D01*
X10977000Y-16355571D02*
G75*
G02*
X10847000Y-16355571I-65000J0D01*
G01*
X10847000Y-16355571D02*
G75*
G02*
X10977000Y-16355571I65000J0D01*
G01*
X10847000Y-16798571D02*
X10977000Y-16928571D01*
X10977000Y-16798571D02*
X10847000Y-16928571D01*
X10977000Y-16863571D02*
G75*
G02*
X10847000Y-16863571I-65000J0D01*
G01*
X10847000Y-16863571D02*
G75*
G02*
X10977000Y-16863571I65000J0D01*
G01*
X10847000Y-17306571D02*
X10977000Y-17436571D01*
X10977000Y-17306571D02*
X10847000Y-17436571D01*
X10977000Y-17371571D02*
G75*
G02*
X10847000Y-17371571I-65000J0D01*
G01*
X10847000Y-17371571D02*
G75*
G02*
X10977000Y-17371571I65000J0D01*
G01*
X10847000Y-17814571D02*
X10977000Y-17944571D01*
X10977000Y-17814571D02*
X10847000Y-17944571D01*
X10977000Y-17879571D02*
G75*
G02*
X10847000Y-17879571I-65000J0D01*
G01*
X10847000Y-17879571D02*
G75*
G02*
X10977000Y-17879571I65000J0D01*
G01*
X10847000Y-18322571D02*
X10977000Y-18452571D01*
X10977000Y-18322571D02*
X10847000Y-18452571D01*
X10977000Y-18387571D02*
G75*
G02*
X10847000Y-18387571I-65000J0D01*
G01*
X10847000Y-18387571D02*
G75*
G02*
X10977000Y-18387571I65000J0D01*
G01*
D11*
X5258277Y-19413555D02*
X5258277Y-19213555D01*
X5258277Y-19213555D02*
X5305896Y-19213555D01*
X5305896Y-19213555D02*
X5334467Y-19223079D01*
X5334467Y-19223079D02*
X5353515Y-19242126D01*
X5353515Y-19242126D02*
X5363039Y-19261174D01*
X5363039Y-19261174D02*
X5372563Y-19299269D01*
X5372563Y-19299269D02*
X5372563Y-19327841D01*
X5372563Y-19327841D02*
X5363039Y-19365936D01*
X5363039Y-19365936D02*
X5353515Y-19384983D01*
X5353515Y-19384983D02*
X5334467Y-19404031D01*
X5334467Y-19404031D02*
X5305896Y-19413555D01*
X5305896Y-19413555D02*
X5258277Y-19413555D01*
X5458277Y-19413555D02*
X5458277Y-19280222D01*
X5458277Y-19318317D02*
X5467801Y-19299269D01*
X5467801Y-19299269D02*
X5477324Y-19289745D01*
X5477324Y-19289745D02*
X5496372Y-19280222D01*
X5496372Y-19280222D02*
X5515420Y-19280222D01*
X5582086Y-19413555D02*
X5582086Y-19280222D01*
X5582086Y-19213555D02*
X5572563Y-19223079D01*
X5572563Y-19223079D02*
X5582086Y-19232603D01*
X5582086Y-19232603D02*
X5591610Y-19223079D01*
X5591610Y-19223079D02*
X5582086Y-19213555D01*
X5582086Y-19213555D02*
X5582086Y-19232603D01*
X5705896Y-19413555D02*
X5686848Y-19404031D01*
X5686848Y-19404031D02*
X5677324Y-19384983D01*
X5677324Y-19384983D02*
X5677324Y-19213555D01*
X5810658Y-19413555D02*
X5791610Y-19404031D01*
X5791610Y-19404031D02*
X5782086Y-19384983D01*
X5782086Y-19384983D02*
X5782086Y-19213555D01*
X6039229Y-19413555D02*
X6039229Y-19213555D01*
X6039229Y-19213555D02*
X6105896Y-19356412D01*
X6105896Y-19356412D02*
X6172562Y-19213555D01*
X6172562Y-19213555D02*
X6172562Y-19413555D01*
X6353515Y-19413555D02*
X6353515Y-19308793D01*
X6353515Y-19308793D02*
X6343991Y-19289745D01*
X6343991Y-19289745D02*
X6324943Y-19280222D01*
X6324943Y-19280222D02*
X6286848Y-19280222D01*
X6286848Y-19280222D02*
X6267801Y-19289745D01*
X6353515Y-19404031D02*
X6334467Y-19413555D01*
X6334467Y-19413555D02*
X6286848Y-19413555D01*
X6286848Y-19413555D02*
X6267801Y-19404031D01*
X6267801Y-19404031D02*
X6258277Y-19384983D01*
X6258277Y-19384983D02*
X6258277Y-19365936D01*
X6258277Y-19365936D02*
X6267801Y-19346888D01*
X6267801Y-19346888D02*
X6286848Y-19337364D01*
X6286848Y-19337364D02*
X6334467Y-19337364D01*
X6334467Y-19337364D02*
X6353515Y-19327841D01*
X6448753Y-19280222D02*
X6448753Y-19480222D01*
X6448753Y-19289745D02*
X6467801Y-19280222D01*
X6467801Y-19280222D02*
X6505896Y-19280222D01*
X6505896Y-19280222D02*
X6524943Y-19289745D01*
X6524943Y-19289745D02*
X6534467Y-19299269D01*
X6534467Y-19299269D02*
X6543991Y-19318317D01*
X6543991Y-19318317D02*
X6543991Y-19375460D01*
X6543991Y-19375460D02*
X6534467Y-19394507D01*
X6534467Y-19394507D02*
X6524943Y-19404031D01*
X6524943Y-19404031D02*
X6505896Y-19413555D01*
X6505896Y-19413555D02*
X6467801Y-19413555D01*
X6467801Y-19413555D02*
X6448753Y-19404031D01*
X6629705Y-19394507D02*
X6639229Y-19404031D01*
X6639229Y-19404031D02*
X6629705Y-19413555D01*
X6629705Y-19413555D02*
X6620182Y-19404031D01*
X6620182Y-19404031D02*
X6629705Y-19394507D01*
X6629705Y-19394507D02*
X6629705Y-19413555D01*
X6629705Y-19289745D02*
X6639229Y-19299269D01*
X6639229Y-19299269D02*
X6629705Y-19308793D01*
X6629705Y-19308793D02*
X6620182Y-19299269D01*
X6620182Y-19299269D02*
X6629705Y-19289745D01*
X6629705Y-19289745D02*
X6629705Y-19308793D01*
D12*
X4926500Y-19706571D02*
X4997500Y-19777571D01*
X4997500Y-19706571D02*
X4926500Y-19777571D01*
D11*
X5296372Y-19633555D02*
X5315420Y-19633555D01*
X5315420Y-19633555D02*
X5334467Y-19643079D01*
X5334467Y-19643079D02*
X5343991Y-19652603D01*
X5343991Y-19652603D02*
X5353515Y-19671650D01*
X5353515Y-19671650D02*
X5363039Y-19709745D01*
X5363039Y-19709745D02*
X5363039Y-19757364D01*
X5363039Y-19757364D02*
X5353515Y-19795460D01*
X5353515Y-19795460D02*
X5343991Y-19814507D01*
X5343991Y-19814507D02*
X5334467Y-19824031D01*
X5334467Y-19824031D02*
X5315420Y-19833555D01*
X5315420Y-19833555D02*
X5296372Y-19833555D01*
X5296372Y-19833555D02*
X5277324Y-19824031D01*
X5277324Y-19824031D02*
X5267801Y-19814507D01*
X5267801Y-19814507D02*
X5258277Y-19795460D01*
X5258277Y-19795460D02*
X5248753Y-19757364D01*
X5248753Y-19757364D02*
X5248753Y-19709745D01*
X5248753Y-19709745D02*
X5258277Y-19671650D01*
X5258277Y-19671650D02*
X5267801Y-19652603D01*
X5267801Y-19652603D02*
X5277324Y-19643079D01*
X5277324Y-19643079D02*
X5296372Y-19633555D01*
X5458277Y-19824031D02*
X5458277Y-19833555D01*
X5458277Y-19833555D02*
X5448753Y-19852603D01*
X5448753Y-19852603D02*
X5439229Y-19862126D01*
X5524944Y-19633555D02*
X5658277Y-19633555D01*
X5658277Y-19633555D02*
X5572563Y-19833555D01*
X5839229Y-19833555D02*
X5724943Y-19833555D01*
X5782086Y-19833555D02*
X5782086Y-19633555D01*
X5782086Y-19633555D02*
X5763039Y-19662126D01*
X5763039Y-19662126D02*
X5743991Y-19681174D01*
X5743991Y-19681174D02*
X5724943Y-19690698D01*
X5963039Y-19633555D02*
X5982086Y-19633555D01*
X5982086Y-19633555D02*
X6001134Y-19643079D01*
X6001134Y-19643079D02*
X6010658Y-19652603D01*
X6010658Y-19652603D02*
X6020182Y-19671650D01*
X6020182Y-19671650D02*
X6029705Y-19709745D01*
X6029705Y-19709745D02*
X6029705Y-19757364D01*
X6029705Y-19757364D02*
X6020182Y-19795460D01*
X6020182Y-19795460D02*
X6010658Y-19814507D01*
X6010658Y-19814507D02*
X6001134Y-19824031D01*
X6001134Y-19824031D02*
X5982086Y-19833555D01*
X5982086Y-19833555D02*
X5963039Y-19833555D01*
X5963039Y-19833555D02*
X5943991Y-19824031D01*
X5943991Y-19824031D02*
X5934467Y-19814507D01*
X5934467Y-19814507D02*
X5924943Y-19795460D01*
X5924943Y-19795460D02*
X5915420Y-19757364D01*
X5915420Y-19757364D02*
X5915420Y-19709745D01*
X5915420Y-19709745D02*
X5924943Y-19671650D01*
X5924943Y-19671650D02*
X5934467Y-19652603D01*
X5934467Y-19652603D02*
X5943991Y-19643079D01*
X5943991Y-19643079D02*
X5963039Y-19633555D01*
X6115420Y-19833555D02*
X6115420Y-19700222D01*
X6115420Y-19719269D02*
X6124943Y-19709745D01*
X6124943Y-19709745D02*
X6143991Y-19700222D01*
X6143991Y-19700222D02*
X6172563Y-19700222D01*
X6172563Y-19700222D02*
X6191610Y-19709745D01*
X6191610Y-19709745D02*
X6201134Y-19728793D01*
X6201134Y-19728793D02*
X6201134Y-19833555D01*
X6201134Y-19728793D02*
X6210658Y-19709745D01*
X6210658Y-19709745D02*
X6229705Y-19700222D01*
X6229705Y-19700222D02*
X6258277Y-19700222D01*
X6258277Y-19700222D02*
X6277324Y-19709745D01*
X6277324Y-19709745D02*
X6286848Y-19728793D01*
X6286848Y-19728793D02*
X6286848Y-19833555D01*
X6382086Y-19833555D02*
X6382086Y-19700222D01*
X6382086Y-19719269D02*
X6391610Y-19709745D01*
X6391610Y-19709745D02*
X6410658Y-19700222D01*
X6410658Y-19700222D02*
X6439229Y-19700222D01*
X6439229Y-19700222D02*
X6458277Y-19709745D01*
X6458277Y-19709745D02*
X6467801Y-19728793D01*
X6467801Y-19728793D02*
X6467801Y-19833555D01*
X6467801Y-19728793D02*
X6477324Y-19709745D01*
X6477324Y-19709745D02*
X6496372Y-19700222D01*
X6496372Y-19700222D02*
X6524943Y-19700222D01*
X6524943Y-19700222D02*
X6543991Y-19709745D01*
X6543991Y-19709745D02*
X6553515Y-19728793D01*
X6553515Y-19728793D02*
X6553515Y-19833555D01*
X6943991Y-19624031D02*
X6772563Y-19881174D01*
X7201134Y-19633555D02*
X7220182Y-19633555D01*
X7220182Y-19633555D02*
X7239229Y-19643079D01*
X7239229Y-19643079D02*
X7248753Y-19652603D01*
X7248753Y-19652603D02*
X7258277Y-19671650D01*
X7258277Y-19671650D02*
X7267801Y-19709745D01*
X7267801Y-19709745D02*
X7267801Y-19757364D01*
X7267801Y-19757364D02*
X7258277Y-19795460D01*
X7258277Y-19795460D02*
X7248753Y-19814507D01*
X7248753Y-19814507D02*
X7239229Y-19824031D01*
X7239229Y-19824031D02*
X7220182Y-19833555D01*
X7220182Y-19833555D02*
X7201134Y-19833555D01*
X7201134Y-19833555D02*
X7182086Y-19824031D01*
X7182086Y-19824031D02*
X7172563Y-19814507D01*
X7172563Y-19814507D02*
X7163039Y-19795460D01*
X7163039Y-19795460D02*
X7153515Y-19757364D01*
X7153515Y-19757364D02*
X7153515Y-19709745D01*
X7153515Y-19709745D02*
X7163039Y-19671650D01*
X7163039Y-19671650D02*
X7172563Y-19652603D01*
X7172563Y-19652603D02*
X7182086Y-19643079D01*
X7182086Y-19643079D02*
X7201134Y-19633555D01*
X7363039Y-19824031D02*
X7363039Y-19833555D01*
X7363039Y-19833555D02*
X7353515Y-19852603D01*
X7353515Y-19852603D02*
X7343991Y-19862126D01*
X7486848Y-19633555D02*
X7505896Y-19633555D01*
X7505896Y-19633555D02*
X7524944Y-19643079D01*
X7524944Y-19643079D02*
X7534467Y-19652603D01*
X7534467Y-19652603D02*
X7543991Y-19671650D01*
X7543991Y-19671650D02*
X7553515Y-19709745D01*
X7553515Y-19709745D02*
X7553515Y-19757364D01*
X7553515Y-19757364D02*
X7543991Y-19795460D01*
X7543991Y-19795460D02*
X7534467Y-19814507D01*
X7534467Y-19814507D02*
X7524944Y-19824031D01*
X7524944Y-19824031D02*
X7505896Y-19833555D01*
X7505896Y-19833555D02*
X7486848Y-19833555D01*
X7486848Y-19833555D02*
X7467801Y-19824031D01*
X7467801Y-19824031D02*
X7458277Y-19814507D01*
X7458277Y-19814507D02*
X7448753Y-19795460D01*
X7448753Y-19795460D02*
X7439229Y-19757364D01*
X7439229Y-19757364D02*
X7439229Y-19709745D01*
X7439229Y-19709745D02*
X7448753Y-19671650D01*
X7448753Y-19671650D02*
X7458277Y-19652603D01*
X7458277Y-19652603D02*
X7467801Y-19643079D01*
X7467801Y-19643079D02*
X7486848Y-19633555D01*
X7629706Y-19652603D02*
X7639229Y-19643079D01*
X7639229Y-19643079D02*
X7658277Y-19633555D01*
X7658277Y-19633555D02*
X7705896Y-19633555D01*
X7705896Y-19633555D02*
X7724944Y-19643079D01*
X7724944Y-19643079D02*
X7734467Y-19652603D01*
X7734467Y-19652603D02*
X7743991Y-19671650D01*
X7743991Y-19671650D02*
X7743991Y-19690698D01*
X7743991Y-19690698D02*
X7734467Y-19719269D01*
X7734467Y-19719269D02*
X7620182Y-19833555D01*
X7620182Y-19833555D02*
X7743991Y-19833555D01*
X7858277Y-19719269D02*
X7839229Y-19709745D01*
X7839229Y-19709745D02*
X7829706Y-19700222D01*
X7829706Y-19700222D02*
X7820182Y-19681174D01*
X7820182Y-19681174D02*
X7820182Y-19671650D01*
X7820182Y-19671650D02*
X7829706Y-19652603D01*
X7829706Y-19652603D02*
X7839229Y-19643079D01*
X7839229Y-19643079D02*
X7858277Y-19633555D01*
X7858277Y-19633555D02*
X7896372Y-19633555D01*
X7896372Y-19633555D02*
X7915420Y-19643079D01*
X7915420Y-19643079D02*
X7924944Y-19652603D01*
X7924944Y-19652603D02*
X7934467Y-19671650D01*
X7934467Y-19671650D02*
X7934467Y-19681174D01*
X7934467Y-19681174D02*
X7924944Y-19700222D01*
X7924944Y-19700222D02*
X7915420Y-19709745D01*
X7915420Y-19709745D02*
X7896372Y-19719269D01*
X7896372Y-19719269D02*
X7858277Y-19719269D01*
X7858277Y-19719269D02*
X7839229Y-19728793D01*
X7839229Y-19728793D02*
X7829706Y-19738317D01*
X7829706Y-19738317D02*
X7820182Y-19757364D01*
X7820182Y-19757364D02*
X7820182Y-19795460D01*
X7820182Y-19795460D02*
X7829706Y-19814507D01*
X7829706Y-19814507D02*
X7839229Y-19824031D01*
X7839229Y-19824031D02*
X7858277Y-19833555D01*
X7858277Y-19833555D02*
X7896372Y-19833555D01*
X7896372Y-19833555D02*
X7915420Y-19824031D01*
X7915420Y-19824031D02*
X7924944Y-19814507D01*
X7924944Y-19814507D02*
X7934467Y-19795460D01*
X7934467Y-19795460D02*
X7934467Y-19757364D01*
X7934467Y-19757364D02*
X7924944Y-19738317D01*
X7924944Y-19738317D02*
X7915420Y-19728793D01*
X7915420Y-19728793D02*
X7896372Y-19719269D01*
X8058277Y-19633555D02*
X8077325Y-19633555D01*
X8077325Y-19633555D02*
X8096372Y-19643079D01*
X8096372Y-19643079D02*
X8105896Y-19652603D01*
X8105896Y-19652603D02*
X8115420Y-19671650D01*
X8115420Y-19671650D02*
X8124944Y-19709745D01*
X8124944Y-19709745D02*
X8124944Y-19757364D01*
X8124944Y-19757364D02*
X8115420Y-19795460D01*
X8115420Y-19795460D02*
X8105896Y-19814507D01*
X8105896Y-19814507D02*
X8096372Y-19824031D01*
X8096372Y-19824031D02*
X8077325Y-19833555D01*
X8077325Y-19833555D02*
X8058277Y-19833555D01*
X8058277Y-19833555D02*
X8039229Y-19824031D01*
X8039229Y-19824031D02*
X8029706Y-19814507D01*
X8029706Y-19814507D02*
X8020182Y-19795460D01*
X8020182Y-19795460D02*
X8010658Y-19757364D01*
X8010658Y-19757364D02*
X8010658Y-19709745D01*
X8010658Y-19709745D02*
X8020182Y-19671650D01*
X8020182Y-19671650D02*
X8029706Y-19652603D01*
X8029706Y-19652603D02*
X8039229Y-19643079D01*
X8039229Y-19643079D02*
X8058277Y-19633555D01*
X8201134Y-19633555D02*
X8201134Y-19671650D01*
X8277325Y-19633555D02*
X8277325Y-19671650D01*
X8572563Y-19909745D02*
X8563039Y-19900222D01*
X8563039Y-19900222D02*
X8543991Y-19871650D01*
X8543991Y-19871650D02*
X8534468Y-19852603D01*
X8534468Y-19852603D02*
X8524944Y-19824031D01*
X8524944Y-19824031D02*
X8515420Y-19776412D01*
X8515420Y-19776412D02*
X8515420Y-19738317D01*
X8515420Y-19738317D02*
X8524944Y-19690698D01*
X8524944Y-19690698D02*
X8534468Y-19662126D01*
X8534468Y-19662126D02*
X8543991Y-19643079D01*
X8543991Y-19643079D02*
X8563039Y-19614507D01*
X8563039Y-19614507D02*
X8572563Y-19604983D01*
X8639230Y-19652603D02*
X8648753Y-19643079D01*
X8648753Y-19643079D02*
X8667801Y-19633555D01*
X8667801Y-19633555D02*
X8715420Y-19633555D01*
X8715420Y-19633555D02*
X8734468Y-19643079D01*
X8734468Y-19643079D02*
X8743991Y-19652603D01*
X8743991Y-19652603D02*
X8753515Y-19671650D01*
X8753515Y-19671650D02*
X8753515Y-19690698D01*
X8753515Y-19690698D02*
X8743991Y-19719269D01*
X8743991Y-19719269D02*
X8629706Y-19833555D01*
X8629706Y-19833555D02*
X8753515Y-19833555D01*
X8991611Y-19833555D02*
X8991611Y-19633555D01*
X9077325Y-19833555D02*
X9077325Y-19728793D01*
X9077325Y-19728793D02*
X9067801Y-19709745D01*
X9067801Y-19709745D02*
X9048753Y-19700222D01*
X9048753Y-19700222D02*
X9020182Y-19700222D01*
X9020182Y-19700222D02*
X9001134Y-19709745D01*
X9001134Y-19709745D02*
X8991611Y-19719269D01*
X9201134Y-19833555D02*
X9182087Y-19824031D01*
X9182087Y-19824031D02*
X9172563Y-19814507D01*
X9172563Y-19814507D02*
X9163039Y-19795460D01*
X9163039Y-19795460D02*
X9163039Y-19738317D01*
X9163039Y-19738317D02*
X9172563Y-19719269D01*
X9172563Y-19719269D02*
X9182087Y-19709745D01*
X9182087Y-19709745D02*
X9201134Y-19700222D01*
X9201134Y-19700222D02*
X9229706Y-19700222D01*
X9229706Y-19700222D02*
X9248753Y-19709745D01*
X9248753Y-19709745D02*
X9258277Y-19719269D01*
X9258277Y-19719269D02*
X9267801Y-19738317D01*
X9267801Y-19738317D02*
X9267801Y-19795460D01*
X9267801Y-19795460D02*
X9258277Y-19814507D01*
X9258277Y-19814507D02*
X9248753Y-19824031D01*
X9248753Y-19824031D02*
X9229706Y-19833555D01*
X9229706Y-19833555D02*
X9201134Y-19833555D01*
X9382087Y-19833555D02*
X9363039Y-19824031D01*
X9363039Y-19824031D02*
X9353515Y-19804983D01*
X9353515Y-19804983D02*
X9353515Y-19633555D01*
X9534468Y-19824031D02*
X9515420Y-19833555D01*
X9515420Y-19833555D02*
X9477325Y-19833555D01*
X9477325Y-19833555D02*
X9458277Y-19824031D01*
X9458277Y-19824031D02*
X9448753Y-19804983D01*
X9448753Y-19804983D02*
X9448753Y-19728793D01*
X9448753Y-19728793D02*
X9458277Y-19709745D01*
X9458277Y-19709745D02*
X9477325Y-19700222D01*
X9477325Y-19700222D02*
X9515420Y-19700222D01*
X9515420Y-19700222D02*
X9534468Y-19709745D01*
X9534468Y-19709745D02*
X9543992Y-19728793D01*
X9543992Y-19728793D02*
X9543992Y-19747841D01*
X9543992Y-19747841D02*
X9448753Y-19766888D01*
X9620182Y-19824031D02*
X9639230Y-19833555D01*
X9639230Y-19833555D02*
X9677325Y-19833555D01*
X9677325Y-19833555D02*
X9696373Y-19824031D01*
X9696373Y-19824031D02*
X9705896Y-19804983D01*
X9705896Y-19804983D02*
X9705896Y-19795460D01*
X9705896Y-19795460D02*
X9696373Y-19776412D01*
X9696373Y-19776412D02*
X9677325Y-19766888D01*
X9677325Y-19766888D02*
X9648753Y-19766888D01*
X9648753Y-19766888D02*
X9629706Y-19757364D01*
X9629706Y-19757364D02*
X9620182Y-19738317D01*
X9620182Y-19738317D02*
X9620182Y-19728793D01*
X9620182Y-19728793D02*
X9629706Y-19709745D01*
X9629706Y-19709745D02*
X9648753Y-19700222D01*
X9648753Y-19700222D02*
X9677325Y-19700222D01*
X9677325Y-19700222D02*
X9696373Y-19709745D01*
X9772563Y-19909745D02*
X9782087Y-19900222D01*
X9782087Y-19900222D02*
X9801134Y-19871650D01*
X9801134Y-19871650D02*
X9810658Y-19852603D01*
X9810658Y-19852603D02*
X9820182Y-19824031D01*
X9820182Y-19824031D02*
X9829706Y-19776412D01*
X9829706Y-19776412D02*
X9829706Y-19738317D01*
X9829706Y-19738317D02*
X9820182Y-19690698D01*
X9820182Y-19690698D02*
X9810658Y-19662126D01*
X9810658Y-19662126D02*
X9801134Y-19643079D01*
X9801134Y-19643079D02*
X9782087Y-19614507D01*
X9782087Y-19614507D02*
X9772563Y-19604983D01*
D12*
X4997500Y-20006071D02*
G75*
G02*
X4917500Y-20006071I-40000J0D01*
G01*
X4917500Y-20006071D02*
G75*
G02*
X4997500Y-20006071I40000J0D01*
G01*
D11*
X5296372Y-19897555D02*
X5315420Y-19897555D01*
X5315420Y-19897555D02*
X5334467Y-19907079D01*
X5334467Y-19907079D02*
X5343991Y-19916603D01*
X5343991Y-19916603D02*
X5353515Y-19935650D01*
X5353515Y-19935650D02*
X5363039Y-19973745D01*
X5363039Y-19973745D02*
X5363039Y-20021364D01*
X5363039Y-20021364D02*
X5353515Y-20059460D01*
X5353515Y-20059460D02*
X5343991Y-20078507D01*
X5343991Y-20078507D02*
X5334467Y-20088031D01*
X5334467Y-20088031D02*
X5315420Y-20097555D01*
X5315420Y-20097555D02*
X5296372Y-20097555D01*
X5296372Y-20097555D02*
X5277324Y-20088031D01*
X5277324Y-20088031D02*
X5267801Y-20078507D01*
X5267801Y-20078507D02*
X5258277Y-20059460D01*
X5258277Y-20059460D02*
X5248753Y-20021364D01*
X5248753Y-20021364D02*
X5248753Y-19973745D01*
X5248753Y-19973745D02*
X5258277Y-19935650D01*
X5258277Y-19935650D02*
X5267801Y-19916603D01*
X5267801Y-19916603D02*
X5277324Y-19907079D01*
X5277324Y-19907079D02*
X5296372Y-19897555D01*
X5458277Y-20088031D02*
X5458277Y-20097555D01*
X5458277Y-20097555D02*
X5448753Y-20116603D01*
X5448753Y-20116603D02*
X5439229Y-20126126D01*
X5572563Y-19983269D02*
X5553515Y-19973745D01*
X5553515Y-19973745D02*
X5543991Y-19964222D01*
X5543991Y-19964222D02*
X5534467Y-19945174D01*
X5534467Y-19945174D02*
X5534467Y-19935650D01*
X5534467Y-19935650D02*
X5543991Y-19916603D01*
X5543991Y-19916603D02*
X5553515Y-19907079D01*
X5553515Y-19907079D02*
X5572563Y-19897555D01*
X5572563Y-19897555D02*
X5610658Y-19897555D01*
X5610658Y-19897555D02*
X5629705Y-19907079D01*
X5629705Y-19907079D02*
X5639229Y-19916603D01*
X5639229Y-19916603D02*
X5648753Y-19935650D01*
X5648753Y-19935650D02*
X5648753Y-19945174D01*
X5648753Y-19945174D02*
X5639229Y-19964222D01*
X5639229Y-19964222D02*
X5629705Y-19973745D01*
X5629705Y-19973745D02*
X5610658Y-19983269D01*
X5610658Y-19983269D02*
X5572563Y-19983269D01*
X5572563Y-19983269D02*
X5553515Y-19992793D01*
X5553515Y-19992793D02*
X5543991Y-20002317D01*
X5543991Y-20002317D02*
X5534467Y-20021364D01*
X5534467Y-20021364D02*
X5534467Y-20059460D01*
X5534467Y-20059460D02*
X5543991Y-20078507D01*
X5543991Y-20078507D02*
X5553515Y-20088031D01*
X5553515Y-20088031D02*
X5572563Y-20097555D01*
X5572563Y-20097555D02*
X5610658Y-20097555D01*
X5610658Y-20097555D02*
X5629705Y-20088031D01*
X5629705Y-20088031D02*
X5639229Y-20078507D01*
X5639229Y-20078507D02*
X5648753Y-20059460D01*
X5648753Y-20059460D02*
X5648753Y-20021364D01*
X5648753Y-20021364D02*
X5639229Y-20002317D01*
X5639229Y-20002317D02*
X5629705Y-19992793D01*
X5629705Y-19992793D02*
X5610658Y-19983269D01*
X5772562Y-19897555D02*
X5791610Y-19897555D01*
X5791610Y-19897555D02*
X5810658Y-19907079D01*
X5810658Y-19907079D02*
X5820182Y-19916603D01*
X5820182Y-19916603D02*
X5829705Y-19935650D01*
X5829705Y-19935650D02*
X5839229Y-19973745D01*
X5839229Y-19973745D02*
X5839229Y-20021364D01*
X5839229Y-20021364D02*
X5829705Y-20059460D01*
X5829705Y-20059460D02*
X5820182Y-20078507D01*
X5820182Y-20078507D02*
X5810658Y-20088031D01*
X5810658Y-20088031D02*
X5791610Y-20097555D01*
X5791610Y-20097555D02*
X5772562Y-20097555D01*
X5772562Y-20097555D02*
X5753515Y-20088031D01*
X5753515Y-20088031D02*
X5743991Y-20078507D01*
X5743991Y-20078507D02*
X5734467Y-20059460D01*
X5734467Y-20059460D02*
X5724943Y-20021364D01*
X5724943Y-20021364D02*
X5724943Y-19973745D01*
X5724943Y-19973745D02*
X5734467Y-19935650D01*
X5734467Y-19935650D02*
X5743991Y-19916603D01*
X5743991Y-19916603D02*
X5753515Y-19907079D01*
X5753515Y-19907079D02*
X5772562Y-19897555D01*
X5963039Y-19897555D02*
X5982086Y-19897555D01*
X5982086Y-19897555D02*
X6001134Y-19907079D01*
X6001134Y-19907079D02*
X6010658Y-19916603D01*
X6010658Y-19916603D02*
X6020182Y-19935650D01*
X6020182Y-19935650D02*
X6029705Y-19973745D01*
X6029705Y-19973745D02*
X6029705Y-20021364D01*
X6029705Y-20021364D02*
X6020182Y-20059460D01*
X6020182Y-20059460D02*
X6010658Y-20078507D01*
X6010658Y-20078507D02*
X6001134Y-20088031D01*
X6001134Y-20088031D02*
X5982086Y-20097555D01*
X5982086Y-20097555D02*
X5963039Y-20097555D01*
X5963039Y-20097555D02*
X5943991Y-20088031D01*
X5943991Y-20088031D02*
X5934467Y-20078507D01*
X5934467Y-20078507D02*
X5924943Y-20059460D01*
X5924943Y-20059460D02*
X5915420Y-20021364D01*
X5915420Y-20021364D02*
X5915420Y-19973745D01*
X5915420Y-19973745D02*
X5924943Y-19935650D01*
X5924943Y-19935650D02*
X5934467Y-19916603D01*
X5934467Y-19916603D02*
X5943991Y-19907079D01*
X5943991Y-19907079D02*
X5963039Y-19897555D01*
X6115420Y-20097555D02*
X6115420Y-19964222D01*
X6115420Y-19983269D02*
X6124943Y-19973745D01*
X6124943Y-19973745D02*
X6143991Y-19964222D01*
X6143991Y-19964222D02*
X6172563Y-19964222D01*
X6172563Y-19964222D02*
X6191610Y-19973745D01*
X6191610Y-19973745D02*
X6201134Y-19992793D01*
X6201134Y-19992793D02*
X6201134Y-20097555D01*
X6201134Y-19992793D02*
X6210658Y-19973745D01*
X6210658Y-19973745D02*
X6229705Y-19964222D01*
X6229705Y-19964222D02*
X6258277Y-19964222D01*
X6258277Y-19964222D02*
X6277324Y-19973745D01*
X6277324Y-19973745D02*
X6286848Y-19992793D01*
X6286848Y-19992793D02*
X6286848Y-20097555D01*
X6382086Y-20097555D02*
X6382086Y-19964222D01*
X6382086Y-19983269D02*
X6391610Y-19973745D01*
X6391610Y-19973745D02*
X6410658Y-19964222D01*
X6410658Y-19964222D02*
X6439229Y-19964222D01*
X6439229Y-19964222D02*
X6458277Y-19973745D01*
X6458277Y-19973745D02*
X6467801Y-19992793D01*
X6467801Y-19992793D02*
X6467801Y-20097555D01*
X6467801Y-19992793D02*
X6477324Y-19973745D01*
X6477324Y-19973745D02*
X6496372Y-19964222D01*
X6496372Y-19964222D02*
X6524943Y-19964222D01*
X6524943Y-19964222D02*
X6543991Y-19973745D01*
X6543991Y-19973745D02*
X6553515Y-19992793D01*
X6553515Y-19992793D02*
X6553515Y-20097555D01*
X6943991Y-19888031D02*
X6772563Y-20145174D01*
X7201134Y-19897555D02*
X7220182Y-19897555D01*
X7220182Y-19897555D02*
X7239229Y-19907079D01*
X7239229Y-19907079D02*
X7248753Y-19916603D01*
X7248753Y-19916603D02*
X7258277Y-19935650D01*
X7258277Y-19935650D02*
X7267801Y-19973745D01*
X7267801Y-19973745D02*
X7267801Y-20021364D01*
X7267801Y-20021364D02*
X7258277Y-20059460D01*
X7258277Y-20059460D02*
X7248753Y-20078507D01*
X7248753Y-20078507D02*
X7239229Y-20088031D01*
X7239229Y-20088031D02*
X7220182Y-20097555D01*
X7220182Y-20097555D02*
X7201134Y-20097555D01*
X7201134Y-20097555D02*
X7182086Y-20088031D01*
X7182086Y-20088031D02*
X7172563Y-20078507D01*
X7172563Y-20078507D02*
X7163039Y-20059460D01*
X7163039Y-20059460D02*
X7153515Y-20021364D01*
X7153515Y-20021364D02*
X7153515Y-19973745D01*
X7153515Y-19973745D02*
X7163039Y-19935650D01*
X7163039Y-19935650D02*
X7172563Y-19916603D01*
X7172563Y-19916603D02*
X7182086Y-19907079D01*
X7182086Y-19907079D02*
X7201134Y-19897555D01*
X7363039Y-20088031D02*
X7363039Y-20097555D01*
X7363039Y-20097555D02*
X7353515Y-20116603D01*
X7353515Y-20116603D02*
X7343991Y-20126126D01*
X7486848Y-19897555D02*
X7505896Y-19897555D01*
X7505896Y-19897555D02*
X7524944Y-19907079D01*
X7524944Y-19907079D02*
X7534467Y-19916603D01*
X7534467Y-19916603D02*
X7543991Y-19935650D01*
X7543991Y-19935650D02*
X7553515Y-19973745D01*
X7553515Y-19973745D02*
X7553515Y-20021364D01*
X7553515Y-20021364D02*
X7543991Y-20059460D01*
X7543991Y-20059460D02*
X7534467Y-20078507D01*
X7534467Y-20078507D02*
X7524944Y-20088031D01*
X7524944Y-20088031D02*
X7505896Y-20097555D01*
X7505896Y-20097555D02*
X7486848Y-20097555D01*
X7486848Y-20097555D02*
X7467801Y-20088031D01*
X7467801Y-20088031D02*
X7458277Y-20078507D01*
X7458277Y-20078507D02*
X7448753Y-20059460D01*
X7448753Y-20059460D02*
X7439229Y-20021364D01*
X7439229Y-20021364D02*
X7439229Y-19973745D01*
X7439229Y-19973745D02*
X7448753Y-19935650D01*
X7448753Y-19935650D02*
X7458277Y-19916603D01*
X7458277Y-19916603D02*
X7467801Y-19907079D01*
X7467801Y-19907079D02*
X7486848Y-19897555D01*
X7620182Y-19897555D02*
X7743991Y-19897555D01*
X7743991Y-19897555D02*
X7677325Y-19973745D01*
X7677325Y-19973745D02*
X7705896Y-19973745D01*
X7705896Y-19973745D02*
X7724944Y-19983269D01*
X7724944Y-19983269D02*
X7734467Y-19992793D01*
X7734467Y-19992793D02*
X7743991Y-20011841D01*
X7743991Y-20011841D02*
X7743991Y-20059460D01*
X7743991Y-20059460D02*
X7734467Y-20078507D01*
X7734467Y-20078507D02*
X7724944Y-20088031D01*
X7724944Y-20088031D02*
X7705896Y-20097555D01*
X7705896Y-20097555D02*
X7648753Y-20097555D01*
X7648753Y-20097555D02*
X7629706Y-20088031D01*
X7629706Y-20088031D02*
X7620182Y-20078507D01*
X7934467Y-20097555D02*
X7820182Y-20097555D01*
X7877325Y-20097555D02*
X7877325Y-19897555D01*
X7877325Y-19897555D02*
X7858277Y-19926126D01*
X7858277Y-19926126D02*
X7839229Y-19945174D01*
X7839229Y-19945174D02*
X7820182Y-19954698D01*
X8115420Y-19897555D02*
X8020182Y-19897555D01*
X8020182Y-19897555D02*
X8010658Y-19992793D01*
X8010658Y-19992793D02*
X8020182Y-19983269D01*
X8020182Y-19983269D02*
X8039229Y-19973745D01*
X8039229Y-19973745D02*
X8086848Y-19973745D01*
X8086848Y-19973745D02*
X8105896Y-19983269D01*
X8105896Y-19983269D02*
X8115420Y-19992793D01*
X8115420Y-19992793D02*
X8124944Y-20011841D01*
X8124944Y-20011841D02*
X8124944Y-20059460D01*
X8124944Y-20059460D02*
X8115420Y-20078507D01*
X8115420Y-20078507D02*
X8105896Y-20088031D01*
X8105896Y-20088031D02*
X8086848Y-20097555D01*
X8086848Y-20097555D02*
X8039229Y-20097555D01*
X8039229Y-20097555D02*
X8020182Y-20088031D01*
X8020182Y-20088031D02*
X8010658Y-20078507D01*
X8201134Y-19897555D02*
X8201134Y-19935650D01*
X8277325Y-19897555D02*
X8277325Y-19935650D01*
X8572563Y-20173745D02*
X8563039Y-20164222D01*
X8563039Y-20164222D02*
X8543991Y-20135650D01*
X8543991Y-20135650D02*
X8534468Y-20116603D01*
X8534468Y-20116603D02*
X8524944Y-20088031D01*
X8524944Y-20088031D02*
X8515420Y-20040412D01*
X8515420Y-20040412D02*
X8515420Y-20002317D01*
X8515420Y-20002317D02*
X8524944Y-19954698D01*
X8524944Y-19954698D02*
X8534468Y-19926126D01*
X8534468Y-19926126D02*
X8543991Y-19907079D01*
X8543991Y-19907079D02*
X8563039Y-19878507D01*
X8563039Y-19878507D02*
X8572563Y-19868983D01*
X8753515Y-20097555D02*
X8639230Y-20097555D01*
X8696372Y-20097555D02*
X8696372Y-19897555D01*
X8696372Y-19897555D02*
X8677325Y-19926126D01*
X8677325Y-19926126D02*
X8658277Y-19945174D01*
X8658277Y-19945174D02*
X8639230Y-19954698D01*
X8829706Y-19916603D02*
X8839230Y-19907079D01*
X8839230Y-19907079D02*
X8858277Y-19897555D01*
X8858277Y-19897555D02*
X8905896Y-19897555D01*
X8905896Y-19897555D02*
X8924944Y-19907079D01*
X8924944Y-19907079D02*
X8934468Y-19916603D01*
X8934468Y-19916603D02*
X8943991Y-19935650D01*
X8943991Y-19935650D02*
X8943991Y-19954698D01*
X8943991Y-19954698D02*
X8934468Y-19983269D01*
X8934468Y-19983269D02*
X8820182Y-20097555D01*
X8820182Y-20097555D02*
X8943991Y-20097555D01*
X9067801Y-19897555D02*
X9086849Y-19897555D01*
X9086849Y-19897555D02*
X9105896Y-19907079D01*
X9105896Y-19907079D02*
X9115420Y-19916603D01*
X9115420Y-19916603D02*
X9124944Y-19935650D01*
X9124944Y-19935650D02*
X9134468Y-19973745D01*
X9134468Y-19973745D02*
X9134468Y-20021364D01*
X9134468Y-20021364D02*
X9124944Y-20059460D01*
X9124944Y-20059460D02*
X9115420Y-20078507D01*
X9115420Y-20078507D02*
X9105896Y-20088031D01*
X9105896Y-20088031D02*
X9086849Y-20097555D01*
X9086849Y-20097555D02*
X9067801Y-20097555D01*
X9067801Y-20097555D02*
X9048753Y-20088031D01*
X9048753Y-20088031D02*
X9039230Y-20078507D01*
X9039230Y-20078507D02*
X9029706Y-20059460D01*
X9029706Y-20059460D02*
X9020182Y-20021364D01*
X9020182Y-20021364D02*
X9020182Y-19973745D01*
X9020182Y-19973745D02*
X9029706Y-19935650D01*
X9029706Y-19935650D02*
X9039230Y-19916603D01*
X9039230Y-19916603D02*
X9048753Y-19907079D01*
X9048753Y-19907079D02*
X9067801Y-19897555D01*
X9372563Y-20097555D02*
X9372563Y-19897555D01*
X9458277Y-20097555D02*
X9458277Y-19992793D01*
X9458277Y-19992793D02*
X9448753Y-19973745D01*
X9448753Y-19973745D02*
X9429706Y-19964222D01*
X9429706Y-19964222D02*
X9401134Y-19964222D01*
X9401134Y-19964222D02*
X9382087Y-19973745D01*
X9382087Y-19973745D02*
X9372563Y-19983269D01*
X9582087Y-20097555D02*
X9563039Y-20088031D01*
X9563039Y-20088031D02*
X9553515Y-20078507D01*
X9553515Y-20078507D02*
X9543992Y-20059460D01*
X9543992Y-20059460D02*
X9543992Y-20002317D01*
X9543992Y-20002317D02*
X9553515Y-19983269D01*
X9553515Y-19983269D02*
X9563039Y-19973745D01*
X9563039Y-19973745D02*
X9582087Y-19964222D01*
X9582087Y-19964222D02*
X9610658Y-19964222D01*
X9610658Y-19964222D02*
X9629706Y-19973745D01*
X9629706Y-19973745D02*
X9639230Y-19983269D01*
X9639230Y-19983269D02*
X9648753Y-20002317D01*
X9648753Y-20002317D02*
X9648753Y-20059460D01*
X9648753Y-20059460D02*
X9639230Y-20078507D01*
X9639230Y-20078507D02*
X9629706Y-20088031D01*
X9629706Y-20088031D02*
X9610658Y-20097555D01*
X9610658Y-20097555D02*
X9582087Y-20097555D01*
X9763039Y-20097555D02*
X9743992Y-20088031D01*
X9743992Y-20088031D02*
X9734468Y-20068983D01*
X9734468Y-20068983D02*
X9734468Y-19897555D01*
X9915420Y-20088031D02*
X9896373Y-20097555D01*
X9896373Y-20097555D02*
X9858277Y-20097555D01*
X9858277Y-20097555D02*
X9839230Y-20088031D01*
X9839230Y-20088031D02*
X9829706Y-20068983D01*
X9829706Y-20068983D02*
X9829706Y-19992793D01*
X9829706Y-19992793D02*
X9839230Y-19973745D01*
X9839230Y-19973745D02*
X9858277Y-19964222D01*
X9858277Y-19964222D02*
X9896373Y-19964222D01*
X9896373Y-19964222D02*
X9915420Y-19973745D01*
X9915420Y-19973745D02*
X9924944Y-19992793D01*
X9924944Y-19992793D02*
X9924944Y-20011841D01*
X9924944Y-20011841D02*
X9829706Y-20030888D01*
X10001134Y-20088031D02*
X10020182Y-20097555D01*
X10020182Y-20097555D02*
X10058277Y-20097555D01*
X10058277Y-20097555D02*
X10077325Y-20088031D01*
X10077325Y-20088031D02*
X10086849Y-20068983D01*
X10086849Y-20068983D02*
X10086849Y-20059460D01*
X10086849Y-20059460D02*
X10077325Y-20040412D01*
X10077325Y-20040412D02*
X10058277Y-20030888D01*
X10058277Y-20030888D02*
X10029706Y-20030888D01*
X10029706Y-20030888D02*
X10010658Y-20021364D01*
X10010658Y-20021364D02*
X10001134Y-20002317D01*
X10001134Y-20002317D02*
X10001134Y-19992793D01*
X10001134Y-19992793D02*
X10010658Y-19973745D01*
X10010658Y-19973745D02*
X10029706Y-19964222D01*
X10029706Y-19964222D02*
X10058277Y-19964222D01*
X10058277Y-19964222D02*
X10077325Y-19973745D01*
X10153515Y-20173745D02*
X10163039Y-20164222D01*
X10163039Y-20164222D02*
X10182087Y-20135650D01*
X10182087Y-20135650D02*
X10191611Y-20116603D01*
X10191611Y-20116603D02*
X10201134Y-20088031D01*
X10201134Y-20088031D02*
X10210658Y-20040412D01*
X10210658Y-20040412D02*
X10210658Y-20002317D01*
X10210658Y-20002317D02*
X10201134Y-19954698D01*
X10201134Y-19954698D02*
X10191611Y-19926126D01*
X10191611Y-19926126D02*
X10182087Y-19907079D01*
X10182087Y-19907079D02*
X10163039Y-19878507D01*
X10163039Y-19878507D02*
X10153515Y-19868983D01*
D12*
X4952500Y-20225071D02*
X4952500Y-20315071D01*
X4907500Y-20270071D02*
X4997500Y-20270071D01*
D11*
X5296372Y-20161555D02*
X5315420Y-20161555D01*
X5315420Y-20161555D02*
X5334467Y-20171079D01*
X5334467Y-20171079D02*
X5343991Y-20180603D01*
X5343991Y-20180603D02*
X5353515Y-20199650D01*
X5353515Y-20199650D02*
X5363039Y-20237745D01*
X5363039Y-20237745D02*
X5363039Y-20285364D01*
X5363039Y-20285364D02*
X5353515Y-20323460D01*
X5353515Y-20323460D02*
X5343991Y-20342507D01*
X5343991Y-20342507D02*
X5334467Y-20352031D01*
X5334467Y-20352031D02*
X5315420Y-20361555D01*
X5315420Y-20361555D02*
X5296372Y-20361555D01*
X5296372Y-20361555D02*
X5277324Y-20352031D01*
X5277324Y-20352031D02*
X5267801Y-20342507D01*
X5267801Y-20342507D02*
X5258277Y-20323460D01*
X5258277Y-20323460D02*
X5248753Y-20285364D01*
X5248753Y-20285364D02*
X5248753Y-20237745D01*
X5248753Y-20237745D02*
X5258277Y-20199650D01*
X5258277Y-20199650D02*
X5267801Y-20180603D01*
X5267801Y-20180603D02*
X5277324Y-20171079D01*
X5277324Y-20171079D02*
X5296372Y-20161555D01*
X5458277Y-20352031D02*
X5458277Y-20361555D01*
X5458277Y-20361555D02*
X5448753Y-20380603D01*
X5448753Y-20380603D02*
X5439229Y-20390126D01*
X5553515Y-20361555D02*
X5591610Y-20361555D01*
X5591610Y-20361555D02*
X5610658Y-20352031D01*
X5610658Y-20352031D02*
X5620182Y-20342507D01*
X5620182Y-20342507D02*
X5639229Y-20313936D01*
X5639229Y-20313936D02*
X5648753Y-20275841D01*
X5648753Y-20275841D02*
X5648753Y-20199650D01*
X5648753Y-20199650D02*
X5639229Y-20180603D01*
X5639229Y-20180603D02*
X5629705Y-20171079D01*
X5629705Y-20171079D02*
X5610658Y-20161555D01*
X5610658Y-20161555D02*
X5572563Y-20161555D01*
X5572563Y-20161555D02*
X5553515Y-20171079D01*
X5553515Y-20171079D02*
X5543991Y-20180603D01*
X5543991Y-20180603D02*
X5534467Y-20199650D01*
X5534467Y-20199650D02*
X5534467Y-20247269D01*
X5534467Y-20247269D02*
X5543991Y-20266317D01*
X5543991Y-20266317D02*
X5553515Y-20275841D01*
X5553515Y-20275841D02*
X5572563Y-20285364D01*
X5572563Y-20285364D02*
X5610658Y-20285364D01*
X5610658Y-20285364D02*
X5629705Y-20275841D01*
X5629705Y-20275841D02*
X5639229Y-20266317D01*
X5639229Y-20266317D02*
X5648753Y-20247269D01*
X5772562Y-20161555D02*
X5791610Y-20161555D01*
X5791610Y-20161555D02*
X5810658Y-20171079D01*
X5810658Y-20171079D02*
X5820182Y-20180603D01*
X5820182Y-20180603D02*
X5829705Y-20199650D01*
X5829705Y-20199650D02*
X5839229Y-20237745D01*
X5839229Y-20237745D02*
X5839229Y-20285364D01*
X5839229Y-20285364D02*
X5829705Y-20323460D01*
X5829705Y-20323460D02*
X5820182Y-20342507D01*
X5820182Y-20342507D02*
X5810658Y-20352031D01*
X5810658Y-20352031D02*
X5791610Y-20361555D01*
X5791610Y-20361555D02*
X5772562Y-20361555D01*
X5772562Y-20361555D02*
X5753515Y-20352031D01*
X5753515Y-20352031D02*
X5743991Y-20342507D01*
X5743991Y-20342507D02*
X5734467Y-20323460D01*
X5734467Y-20323460D02*
X5724943Y-20285364D01*
X5724943Y-20285364D02*
X5724943Y-20237745D01*
X5724943Y-20237745D02*
X5734467Y-20199650D01*
X5734467Y-20199650D02*
X5743991Y-20180603D01*
X5743991Y-20180603D02*
X5753515Y-20171079D01*
X5753515Y-20171079D02*
X5772562Y-20161555D01*
X5963039Y-20161555D02*
X5982086Y-20161555D01*
X5982086Y-20161555D02*
X6001134Y-20171079D01*
X6001134Y-20171079D02*
X6010658Y-20180603D01*
X6010658Y-20180603D02*
X6020182Y-20199650D01*
X6020182Y-20199650D02*
X6029705Y-20237745D01*
X6029705Y-20237745D02*
X6029705Y-20285364D01*
X6029705Y-20285364D02*
X6020182Y-20323460D01*
X6020182Y-20323460D02*
X6010658Y-20342507D01*
X6010658Y-20342507D02*
X6001134Y-20352031D01*
X6001134Y-20352031D02*
X5982086Y-20361555D01*
X5982086Y-20361555D02*
X5963039Y-20361555D01*
X5963039Y-20361555D02*
X5943991Y-20352031D01*
X5943991Y-20352031D02*
X5934467Y-20342507D01*
X5934467Y-20342507D02*
X5924943Y-20323460D01*
X5924943Y-20323460D02*
X5915420Y-20285364D01*
X5915420Y-20285364D02*
X5915420Y-20237745D01*
X5915420Y-20237745D02*
X5924943Y-20199650D01*
X5924943Y-20199650D02*
X5934467Y-20180603D01*
X5934467Y-20180603D02*
X5943991Y-20171079D01*
X5943991Y-20171079D02*
X5963039Y-20161555D01*
X6115420Y-20361555D02*
X6115420Y-20228222D01*
X6115420Y-20247269D02*
X6124943Y-20237745D01*
X6124943Y-20237745D02*
X6143991Y-20228222D01*
X6143991Y-20228222D02*
X6172563Y-20228222D01*
X6172563Y-20228222D02*
X6191610Y-20237745D01*
X6191610Y-20237745D02*
X6201134Y-20256793D01*
X6201134Y-20256793D02*
X6201134Y-20361555D01*
X6201134Y-20256793D02*
X6210658Y-20237745D01*
X6210658Y-20237745D02*
X6229705Y-20228222D01*
X6229705Y-20228222D02*
X6258277Y-20228222D01*
X6258277Y-20228222D02*
X6277324Y-20237745D01*
X6277324Y-20237745D02*
X6286848Y-20256793D01*
X6286848Y-20256793D02*
X6286848Y-20361555D01*
X6382086Y-20361555D02*
X6382086Y-20228222D01*
X6382086Y-20247269D02*
X6391610Y-20237745D01*
X6391610Y-20237745D02*
X6410658Y-20228222D01*
X6410658Y-20228222D02*
X6439229Y-20228222D01*
X6439229Y-20228222D02*
X6458277Y-20237745D01*
X6458277Y-20237745D02*
X6467801Y-20256793D01*
X6467801Y-20256793D02*
X6467801Y-20361555D01*
X6467801Y-20256793D02*
X6477324Y-20237745D01*
X6477324Y-20237745D02*
X6496372Y-20228222D01*
X6496372Y-20228222D02*
X6524943Y-20228222D01*
X6524943Y-20228222D02*
X6543991Y-20237745D01*
X6543991Y-20237745D02*
X6553515Y-20256793D01*
X6553515Y-20256793D02*
X6553515Y-20361555D01*
X6943991Y-20152031D02*
X6772563Y-20409174D01*
X7201134Y-20161555D02*
X7220182Y-20161555D01*
X7220182Y-20161555D02*
X7239229Y-20171079D01*
X7239229Y-20171079D02*
X7248753Y-20180603D01*
X7248753Y-20180603D02*
X7258277Y-20199650D01*
X7258277Y-20199650D02*
X7267801Y-20237745D01*
X7267801Y-20237745D02*
X7267801Y-20285364D01*
X7267801Y-20285364D02*
X7258277Y-20323460D01*
X7258277Y-20323460D02*
X7248753Y-20342507D01*
X7248753Y-20342507D02*
X7239229Y-20352031D01*
X7239229Y-20352031D02*
X7220182Y-20361555D01*
X7220182Y-20361555D02*
X7201134Y-20361555D01*
X7201134Y-20361555D02*
X7182086Y-20352031D01*
X7182086Y-20352031D02*
X7172563Y-20342507D01*
X7172563Y-20342507D02*
X7163039Y-20323460D01*
X7163039Y-20323460D02*
X7153515Y-20285364D01*
X7153515Y-20285364D02*
X7153515Y-20237745D01*
X7153515Y-20237745D02*
X7163039Y-20199650D01*
X7163039Y-20199650D02*
X7172563Y-20180603D01*
X7172563Y-20180603D02*
X7182086Y-20171079D01*
X7182086Y-20171079D02*
X7201134Y-20161555D01*
X7363039Y-20352031D02*
X7363039Y-20361555D01*
X7363039Y-20361555D02*
X7353515Y-20380603D01*
X7353515Y-20380603D02*
X7343991Y-20390126D01*
X7486848Y-20161555D02*
X7505896Y-20161555D01*
X7505896Y-20161555D02*
X7524944Y-20171079D01*
X7524944Y-20171079D02*
X7534467Y-20180603D01*
X7534467Y-20180603D02*
X7543991Y-20199650D01*
X7543991Y-20199650D02*
X7553515Y-20237745D01*
X7553515Y-20237745D02*
X7553515Y-20285364D01*
X7553515Y-20285364D02*
X7543991Y-20323460D01*
X7543991Y-20323460D02*
X7534467Y-20342507D01*
X7534467Y-20342507D02*
X7524944Y-20352031D01*
X7524944Y-20352031D02*
X7505896Y-20361555D01*
X7505896Y-20361555D02*
X7486848Y-20361555D01*
X7486848Y-20361555D02*
X7467801Y-20352031D01*
X7467801Y-20352031D02*
X7458277Y-20342507D01*
X7458277Y-20342507D02*
X7448753Y-20323460D01*
X7448753Y-20323460D02*
X7439229Y-20285364D01*
X7439229Y-20285364D02*
X7439229Y-20237745D01*
X7439229Y-20237745D02*
X7448753Y-20199650D01*
X7448753Y-20199650D02*
X7458277Y-20180603D01*
X7458277Y-20180603D02*
X7467801Y-20171079D01*
X7467801Y-20171079D02*
X7486848Y-20161555D01*
X7620182Y-20161555D02*
X7743991Y-20161555D01*
X7743991Y-20161555D02*
X7677325Y-20237745D01*
X7677325Y-20237745D02*
X7705896Y-20237745D01*
X7705896Y-20237745D02*
X7724944Y-20247269D01*
X7724944Y-20247269D02*
X7734467Y-20256793D01*
X7734467Y-20256793D02*
X7743991Y-20275841D01*
X7743991Y-20275841D02*
X7743991Y-20323460D01*
X7743991Y-20323460D02*
X7734467Y-20342507D01*
X7734467Y-20342507D02*
X7724944Y-20352031D01*
X7724944Y-20352031D02*
X7705896Y-20361555D01*
X7705896Y-20361555D02*
X7648753Y-20361555D01*
X7648753Y-20361555D02*
X7629706Y-20352031D01*
X7629706Y-20352031D02*
X7620182Y-20342507D01*
X7924944Y-20161555D02*
X7829706Y-20161555D01*
X7829706Y-20161555D02*
X7820182Y-20256793D01*
X7820182Y-20256793D02*
X7829706Y-20247269D01*
X7829706Y-20247269D02*
X7848753Y-20237745D01*
X7848753Y-20237745D02*
X7896372Y-20237745D01*
X7896372Y-20237745D02*
X7915420Y-20247269D01*
X7915420Y-20247269D02*
X7924944Y-20256793D01*
X7924944Y-20256793D02*
X7934467Y-20275841D01*
X7934467Y-20275841D02*
X7934467Y-20323460D01*
X7934467Y-20323460D02*
X7924944Y-20342507D01*
X7924944Y-20342507D02*
X7915420Y-20352031D01*
X7915420Y-20352031D02*
X7896372Y-20361555D01*
X7896372Y-20361555D02*
X7848753Y-20361555D01*
X7848753Y-20361555D02*
X7829706Y-20352031D01*
X7829706Y-20352031D02*
X7820182Y-20342507D01*
X8105896Y-20228222D02*
X8105896Y-20361555D01*
X8058277Y-20152031D02*
X8010658Y-20294888D01*
X8010658Y-20294888D02*
X8134467Y-20294888D01*
X8201134Y-20161555D02*
X8201134Y-20199650D01*
X8277325Y-20161555D02*
X8277325Y-20199650D01*
X8572563Y-20437745D02*
X8563039Y-20428222D01*
X8563039Y-20428222D02*
X8543991Y-20399650D01*
X8543991Y-20399650D02*
X8534468Y-20380603D01*
X8534468Y-20380603D02*
X8524944Y-20352031D01*
X8524944Y-20352031D02*
X8515420Y-20304412D01*
X8515420Y-20304412D02*
X8515420Y-20266317D01*
X8515420Y-20266317D02*
X8524944Y-20218698D01*
X8524944Y-20218698D02*
X8534468Y-20190126D01*
X8534468Y-20190126D02*
X8543991Y-20171079D01*
X8543991Y-20171079D02*
X8563039Y-20142507D01*
X8563039Y-20142507D02*
X8572563Y-20132983D01*
X8734468Y-20228222D02*
X8734468Y-20361555D01*
X8686849Y-20152031D02*
X8639230Y-20294888D01*
X8639230Y-20294888D02*
X8763039Y-20294888D01*
X8991611Y-20361555D02*
X8991611Y-20161555D01*
X9077325Y-20361555D02*
X9077325Y-20256793D01*
X9077325Y-20256793D02*
X9067801Y-20237745D01*
X9067801Y-20237745D02*
X9048753Y-20228222D01*
X9048753Y-20228222D02*
X9020182Y-20228222D01*
X9020182Y-20228222D02*
X9001134Y-20237745D01*
X9001134Y-20237745D02*
X8991611Y-20247269D01*
X9201134Y-20361555D02*
X9182087Y-20352031D01*
X9182087Y-20352031D02*
X9172563Y-20342507D01*
X9172563Y-20342507D02*
X9163039Y-20323460D01*
X9163039Y-20323460D02*
X9163039Y-20266317D01*
X9163039Y-20266317D02*
X9172563Y-20247269D01*
X9172563Y-20247269D02*
X9182087Y-20237745D01*
X9182087Y-20237745D02*
X9201134Y-20228222D01*
X9201134Y-20228222D02*
X9229706Y-20228222D01*
X9229706Y-20228222D02*
X9248753Y-20237745D01*
X9248753Y-20237745D02*
X9258277Y-20247269D01*
X9258277Y-20247269D02*
X9267801Y-20266317D01*
X9267801Y-20266317D02*
X9267801Y-20323460D01*
X9267801Y-20323460D02*
X9258277Y-20342507D01*
X9258277Y-20342507D02*
X9248753Y-20352031D01*
X9248753Y-20352031D02*
X9229706Y-20361555D01*
X9229706Y-20361555D02*
X9201134Y-20361555D01*
X9382087Y-20361555D02*
X9363039Y-20352031D01*
X9363039Y-20352031D02*
X9353515Y-20332983D01*
X9353515Y-20332983D02*
X9353515Y-20161555D01*
X9534468Y-20352031D02*
X9515420Y-20361555D01*
X9515420Y-20361555D02*
X9477325Y-20361555D01*
X9477325Y-20361555D02*
X9458277Y-20352031D01*
X9458277Y-20352031D02*
X9448753Y-20332983D01*
X9448753Y-20332983D02*
X9448753Y-20256793D01*
X9448753Y-20256793D02*
X9458277Y-20237745D01*
X9458277Y-20237745D02*
X9477325Y-20228222D01*
X9477325Y-20228222D02*
X9515420Y-20228222D01*
X9515420Y-20228222D02*
X9534468Y-20237745D01*
X9534468Y-20237745D02*
X9543992Y-20256793D01*
X9543992Y-20256793D02*
X9543992Y-20275841D01*
X9543992Y-20275841D02*
X9448753Y-20294888D01*
X9620182Y-20352031D02*
X9639230Y-20361555D01*
X9639230Y-20361555D02*
X9677325Y-20361555D01*
X9677325Y-20361555D02*
X9696373Y-20352031D01*
X9696373Y-20352031D02*
X9705896Y-20332983D01*
X9705896Y-20332983D02*
X9705896Y-20323460D01*
X9705896Y-20323460D02*
X9696373Y-20304412D01*
X9696373Y-20304412D02*
X9677325Y-20294888D01*
X9677325Y-20294888D02*
X9648753Y-20294888D01*
X9648753Y-20294888D02*
X9629706Y-20285364D01*
X9629706Y-20285364D02*
X9620182Y-20266317D01*
X9620182Y-20266317D02*
X9620182Y-20256793D01*
X9620182Y-20256793D02*
X9629706Y-20237745D01*
X9629706Y-20237745D02*
X9648753Y-20228222D01*
X9648753Y-20228222D02*
X9677325Y-20228222D01*
X9677325Y-20228222D02*
X9696373Y-20237745D01*
X9772563Y-20437745D02*
X9782087Y-20428222D01*
X9782087Y-20428222D02*
X9801134Y-20399650D01*
X9801134Y-20399650D02*
X9810658Y-20380603D01*
X9810658Y-20380603D02*
X9820182Y-20352031D01*
X9820182Y-20352031D02*
X9829706Y-20304412D01*
X9829706Y-20304412D02*
X9829706Y-20266317D01*
X9829706Y-20266317D02*
X9820182Y-20218698D01*
X9820182Y-20218698D02*
X9810658Y-20190126D01*
X9810658Y-20190126D02*
X9801134Y-20171079D01*
X9801134Y-20171079D02*
X9782087Y-20142507D01*
X9782087Y-20142507D02*
X9772563Y-20132983D01*
D12*
X4982856Y-20569427D02*
X4982856Y-20498715D01*
X4912144Y-20498715D01*
X4912144Y-20569427D01*
X4982856Y-20569427D01*
D11*
X5363039Y-20625555D02*
X5248753Y-20625555D01*
X5305896Y-20625555D02*
X5305896Y-20425555D01*
X5305896Y-20425555D02*
X5286848Y-20454126D01*
X5286848Y-20454126D02*
X5267801Y-20473174D01*
X5267801Y-20473174D02*
X5248753Y-20482698D01*
X5458277Y-20616031D02*
X5458277Y-20625555D01*
X5458277Y-20625555D02*
X5448753Y-20644603D01*
X5448753Y-20644603D02*
X5439229Y-20654126D01*
X5582086Y-20425555D02*
X5601134Y-20425555D01*
X5601134Y-20425555D02*
X5620182Y-20435079D01*
X5620182Y-20435079D02*
X5629705Y-20444603D01*
X5629705Y-20444603D02*
X5639229Y-20463650D01*
X5639229Y-20463650D02*
X5648753Y-20501745D01*
X5648753Y-20501745D02*
X5648753Y-20549364D01*
X5648753Y-20549364D02*
X5639229Y-20587460D01*
X5639229Y-20587460D02*
X5629705Y-20606507D01*
X5629705Y-20606507D02*
X5620182Y-20616031D01*
X5620182Y-20616031D02*
X5601134Y-20625555D01*
X5601134Y-20625555D02*
X5582086Y-20625555D01*
X5582086Y-20625555D02*
X5563039Y-20616031D01*
X5563039Y-20616031D02*
X5553515Y-20606507D01*
X5553515Y-20606507D02*
X5543991Y-20587460D01*
X5543991Y-20587460D02*
X5534467Y-20549364D01*
X5534467Y-20549364D02*
X5534467Y-20501745D01*
X5534467Y-20501745D02*
X5543991Y-20463650D01*
X5543991Y-20463650D02*
X5553515Y-20444603D01*
X5553515Y-20444603D02*
X5563039Y-20435079D01*
X5563039Y-20435079D02*
X5582086Y-20425555D01*
X5772562Y-20425555D02*
X5791610Y-20425555D01*
X5791610Y-20425555D02*
X5810658Y-20435079D01*
X5810658Y-20435079D02*
X5820182Y-20444603D01*
X5820182Y-20444603D02*
X5829705Y-20463650D01*
X5829705Y-20463650D02*
X5839229Y-20501745D01*
X5839229Y-20501745D02*
X5839229Y-20549364D01*
X5839229Y-20549364D02*
X5829705Y-20587460D01*
X5829705Y-20587460D02*
X5820182Y-20606507D01*
X5820182Y-20606507D02*
X5810658Y-20616031D01*
X5810658Y-20616031D02*
X5791610Y-20625555D01*
X5791610Y-20625555D02*
X5772562Y-20625555D01*
X5772562Y-20625555D02*
X5753515Y-20616031D01*
X5753515Y-20616031D02*
X5743991Y-20606507D01*
X5743991Y-20606507D02*
X5734467Y-20587460D01*
X5734467Y-20587460D02*
X5724943Y-20549364D01*
X5724943Y-20549364D02*
X5724943Y-20501745D01*
X5724943Y-20501745D02*
X5734467Y-20463650D01*
X5734467Y-20463650D02*
X5743991Y-20444603D01*
X5743991Y-20444603D02*
X5753515Y-20435079D01*
X5753515Y-20435079D02*
X5772562Y-20425555D01*
X5963039Y-20425555D02*
X5982086Y-20425555D01*
X5982086Y-20425555D02*
X6001134Y-20435079D01*
X6001134Y-20435079D02*
X6010658Y-20444603D01*
X6010658Y-20444603D02*
X6020182Y-20463650D01*
X6020182Y-20463650D02*
X6029705Y-20501745D01*
X6029705Y-20501745D02*
X6029705Y-20549364D01*
X6029705Y-20549364D02*
X6020182Y-20587460D01*
X6020182Y-20587460D02*
X6010658Y-20606507D01*
X6010658Y-20606507D02*
X6001134Y-20616031D01*
X6001134Y-20616031D02*
X5982086Y-20625555D01*
X5982086Y-20625555D02*
X5963039Y-20625555D01*
X5963039Y-20625555D02*
X5943991Y-20616031D01*
X5943991Y-20616031D02*
X5934467Y-20606507D01*
X5934467Y-20606507D02*
X5924943Y-20587460D01*
X5924943Y-20587460D02*
X5915420Y-20549364D01*
X5915420Y-20549364D02*
X5915420Y-20501745D01*
X5915420Y-20501745D02*
X5924943Y-20463650D01*
X5924943Y-20463650D02*
X5934467Y-20444603D01*
X5934467Y-20444603D02*
X5943991Y-20435079D01*
X5943991Y-20435079D02*
X5963039Y-20425555D01*
X6115420Y-20625555D02*
X6115420Y-20492222D01*
X6115420Y-20511269D02*
X6124943Y-20501745D01*
X6124943Y-20501745D02*
X6143991Y-20492222D01*
X6143991Y-20492222D02*
X6172563Y-20492222D01*
X6172563Y-20492222D02*
X6191610Y-20501745D01*
X6191610Y-20501745D02*
X6201134Y-20520793D01*
X6201134Y-20520793D02*
X6201134Y-20625555D01*
X6201134Y-20520793D02*
X6210658Y-20501745D01*
X6210658Y-20501745D02*
X6229705Y-20492222D01*
X6229705Y-20492222D02*
X6258277Y-20492222D01*
X6258277Y-20492222D02*
X6277324Y-20501745D01*
X6277324Y-20501745D02*
X6286848Y-20520793D01*
X6286848Y-20520793D02*
X6286848Y-20625555D01*
X6382086Y-20625555D02*
X6382086Y-20492222D01*
X6382086Y-20511269D02*
X6391610Y-20501745D01*
X6391610Y-20501745D02*
X6410658Y-20492222D01*
X6410658Y-20492222D02*
X6439229Y-20492222D01*
X6439229Y-20492222D02*
X6458277Y-20501745D01*
X6458277Y-20501745D02*
X6467801Y-20520793D01*
X6467801Y-20520793D02*
X6467801Y-20625555D01*
X6467801Y-20520793D02*
X6477324Y-20501745D01*
X6477324Y-20501745D02*
X6496372Y-20492222D01*
X6496372Y-20492222D02*
X6524943Y-20492222D01*
X6524943Y-20492222D02*
X6543991Y-20501745D01*
X6543991Y-20501745D02*
X6553515Y-20520793D01*
X6553515Y-20520793D02*
X6553515Y-20625555D01*
X6943991Y-20416031D02*
X6772563Y-20673174D01*
X7201134Y-20425555D02*
X7220182Y-20425555D01*
X7220182Y-20425555D02*
X7239229Y-20435079D01*
X7239229Y-20435079D02*
X7248753Y-20444603D01*
X7248753Y-20444603D02*
X7258277Y-20463650D01*
X7258277Y-20463650D02*
X7267801Y-20501745D01*
X7267801Y-20501745D02*
X7267801Y-20549364D01*
X7267801Y-20549364D02*
X7258277Y-20587460D01*
X7258277Y-20587460D02*
X7248753Y-20606507D01*
X7248753Y-20606507D02*
X7239229Y-20616031D01*
X7239229Y-20616031D02*
X7220182Y-20625555D01*
X7220182Y-20625555D02*
X7201134Y-20625555D01*
X7201134Y-20625555D02*
X7182086Y-20616031D01*
X7182086Y-20616031D02*
X7172563Y-20606507D01*
X7172563Y-20606507D02*
X7163039Y-20587460D01*
X7163039Y-20587460D02*
X7153515Y-20549364D01*
X7153515Y-20549364D02*
X7153515Y-20501745D01*
X7153515Y-20501745D02*
X7163039Y-20463650D01*
X7163039Y-20463650D02*
X7172563Y-20444603D01*
X7172563Y-20444603D02*
X7182086Y-20435079D01*
X7182086Y-20435079D02*
X7201134Y-20425555D01*
X7363039Y-20616031D02*
X7363039Y-20625555D01*
X7363039Y-20625555D02*
X7353515Y-20644603D01*
X7353515Y-20644603D02*
X7343991Y-20654126D01*
X7486848Y-20425555D02*
X7505896Y-20425555D01*
X7505896Y-20425555D02*
X7524944Y-20435079D01*
X7524944Y-20435079D02*
X7534467Y-20444603D01*
X7534467Y-20444603D02*
X7543991Y-20463650D01*
X7543991Y-20463650D02*
X7553515Y-20501745D01*
X7553515Y-20501745D02*
X7553515Y-20549364D01*
X7553515Y-20549364D02*
X7543991Y-20587460D01*
X7543991Y-20587460D02*
X7534467Y-20606507D01*
X7534467Y-20606507D02*
X7524944Y-20616031D01*
X7524944Y-20616031D02*
X7505896Y-20625555D01*
X7505896Y-20625555D02*
X7486848Y-20625555D01*
X7486848Y-20625555D02*
X7467801Y-20616031D01*
X7467801Y-20616031D02*
X7458277Y-20606507D01*
X7458277Y-20606507D02*
X7448753Y-20587460D01*
X7448753Y-20587460D02*
X7439229Y-20549364D01*
X7439229Y-20549364D02*
X7439229Y-20501745D01*
X7439229Y-20501745D02*
X7448753Y-20463650D01*
X7448753Y-20463650D02*
X7458277Y-20444603D01*
X7458277Y-20444603D02*
X7467801Y-20435079D01*
X7467801Y-20435079D02*
X7486848Y-20425555D01*
X7620182Y-20425555D02*
X7743991Y-20425555D01*
X7743991Y-20425555D02*
X7677325Y-20501745D01*
X7677325Y-20501745D02*
X7705896Y-20501745D01*
X7705896Y-20501745D02*
X7724944Y-20511269D01*
X7724944Y-20511269D02*
X7734467Y-20520793D01*
X7734467Y-20520793D02*
X7743991Y-20539841D01*
X7743991Y-20539841D02*
X7743991Y-20587460D01*
X7743991Y-20587460D02*
X7734467Y-20606507D01*
X7734467Y-20606507D02*
X7724944Y-20616031D01*
X7724944Y-20616031D02*
X7705896Y-20625555D01*
X7705896Y-20625555D02*
X7648753Y-20625555D01*
X7648753Y-20625555D02*
X7629706Y-20616031D01*
X7629706Y-20616031D02*
X7620182Y-20606507D01*
X7839229Y-20625555D02*
X7877325Y-20625555D01*
X7877325Y-20625555D02*
X7896372Y-20616031D01*
X7896372Y-20616031D02*
X7905896Y-20606507D01*
X7905896Y-20606507D02*
X7924944Y-20577936D01*
X7924944Y-20577936D02*
X7934467Y-20539841D01*
X7934467Y-20539841D02*
X7934467Y-20463650D01*
X7934467Y-20463650D02*
X7924944Y-20444603D01*
X7924944Y-20444603D02*
X7915420Y-20435079D01*
X7915420Y-20435079D02*
X7896372Y-20425555D01*
X7896372Y-20425555D02*
X7858277Y-20425555D01*
X7858277Y-20425555D02*
X7839229Y-20435079D01*
X7839229Y-20435079D02*
X7829706Y-20444603D01*
X7829706Y-20444603D02*
X7820182Y-20463650D01*
X7820182Y-20463650D02*
X7820182Y-20511269D01*
X7820182Y-20511269D02*
X7829706Y-20530317D01*
X7829706Y-20530317D02*
X7839229Y-20539841D01*
X7839229Y-20539841D02*
X7858277Y-20549364D01*
X7858277Y-20549364D02*
X7896372Y-20549364D01*
X7896372Y-20549364D02*
X7915420Y-20539841D01*
X7915420Y-20539841D02*
X7924944Y-20530317D01*
X7924944Y-20530317D02*
X7934467Y-20511269D01*
X8105896Y-20492222D02*
X8105896Y-20625555D01*
X8058277Y-20416031D02*
X8010658Y-20558888D01*
X8010658Y-20558888D02*
X8134467Y-20558888D01*
X8201134Y-20425555D02*
X8201134Y-20463650D01*
X8277325Y-20425555D02*
X8277325Y-20463650D01*
X8572563Y-20701745D02*
X8563039Y-20692222D01*
X8563039Y-20692222D02*
X8543991Y-20663650D01*
X8543991Y-20663650D02*
X8534468Y-20644603D01*
X8534468Y-20644603D02*
X8524944Y-20616031D01*
X8524944Y-20616031D02*
X8515420Y-20568412D01*
X8515420Y-20568412D02*
X8515420Y-20530317D01*
X8515420Y-20530317D02*
X8524944Y-20482698D01*
X8524944Y-20482698D02*
X8534468Y-20454126D01*
X8534468Y-20454126D02*
X8543991Y-20435079D01*
X8543991Y-20435079D02*
X8563039Y-20406507D01*
X8563039Y-20406507D02*
X8572563Y-20396983D01*
X8629706Y-20425555D02*
X8753515Y-20425555D01*
X8753515Y-20425555D02*
X8686849Y-20501745D01*
X8686849Y-20501745D02*
X8715420Y-20501745D01*
X8715420Y-20501745D02*
X8734468Y-20511269D01*
X8734468Y-20511269D02*
X8743991Y-20520793D01*
X8743991Y-20520793D02*
X8753515Y-20539841D01*
X8753515Y-20539841D02*
X8753515Y-20587460D01*
X8753515Y-20587460D02*
X8743991Y-20606507D01*
X8743991Y-20606507D02*
X8734468Y-20616031D01*
X8734468Y-20616031D02*
X8715420Y-20625555D01*
X8715420Y-20625555D02*
X8658277Y-20625555D01*
X8658277Y-20625555D02*
X8639230Y-20616031D01*
X8639230Y-20616031D02*
X8629706Y-20606507D01*
X8991611Y-20625555D02*
X8991611Y-20425555D01*
X9077325Y-20625555D02*
X9077325Y-20520793D01*
X9077325Y-20520793D02*
X9067801Y-20501745D01*
X9067801Y-20501745D02*
X9048753Y-20492222D01*
X9048753Y-20492222D02*
X9020182Y-20492222D01*
X9020182Y-20492222D02*
X9001134Y-20501745D01*
X9001134Y-20501745D02*
X8991611Y-20511269D01*
X9201134Y-20625555D02*
X9182087Y-20616031D01*
X9182087Y-20616031D02*
X9172563Y-20606507D01*
X9172563Y-20606507D02*
X9163039Y-20587460D01*
X9163039Y-20587460D02*
X9163039Y-20530317D01*
X9163039Y-20530317D02*
X9172563Y-20511269D01*
X9172563Y-20511269D02*
X9182087Y-20501745D01*
X9182087Y-20501745D02*
X9201134Y-20492222D01*
X9201134Y-20492222D02*
X9229706Y-20492222D01*
X9229706Y-20492222D02*
X9248753Y-20501745D01*
X9248753Y-20501745D02*
X9258277Y-20511269D01*
X9258277Y-20511269D02*
X9267801Y-20530317D01*
X9267801Y-20530317D02*
X9267801Y-20587460D01*
X9267801Y-20587460D02*
X9258277Y-20606507D01*
X9258277Y-20606507D02*
X9248753Y-20616031D01*
X9248753Y-20616031D02*
X9229706Y-20625555D01*
X9229706Y-20625555D02*
X9201134Y-20625555D01*
X9382087Y-20625555D02*
X9363039Y-20616031D01*
X9363039Y-20616031D02*
X9353515Y-20596983D01*
X9353515Y-20596983D02*
X9353515Y-20425555D01*
X9534468Y-20616031D02*
X9515420Y-20625555D01*
X9515420Y-20625555D02*
X9477325Y-20625555D01*
X9477325Y-20625555D02*
X9458277Y-20616031D01*
X9458277Y-20616031D02*
X9448753Y-20596983D01*
X9448753Y-20596983D02*
X9448753Y-20520793D01*
X9448753Y-20520793D02*
X9458277Y-20501745D01*
X9458277Y-20501745D02*
X9477325Y-20492222D01*
X9477325Y-20492222D02*
X9515420Y-20492222D01*
X9515420Y-20492222D02*
X9534468Y-20501745D01*
X9534468Y-20501745D02*
X9543992Y-20520793D01*
X9543992Y-20520793D02*
X9543992Y-20539841D01*
X9543992Y-20539841D02*
X9448753Y-20558888D01*
X9620182Y-20616031D02*
X9639230Y-20625555D01*
X9639230Y-20625555D02*
X9677325Y-20625555D01*
X9677325Y-20625555D02*
X9696373Y-20616031D01*
X9696373Y-20616031D02*
X9705896Y-20596983D01*
X9705896Y-20596983D02*
X9705896Y-20587460D01*
X9705896Y-20587460D02*
X9696373Y-20568412D01*
X9696373Y-20568412D02*
X9677325Y-20558888D01*
X9677325Y-20558888D02*
X9648753Y-20558888D01*
X9648753Y-20558888D02*
X9629706Y-20549364D01*
X9629706Y-20549364D02*
X9620182Y-20530317D01*
X9620182Y-20530317D02*
X9620182Y-20520793D01*
X9620182Y-20520793D02*
X9629706Y-20501745D01*
X9629706Y-20501745D02*
X9648753Y-20492222D01*
X9648753Y-20492222D02*
X9677325Y-20492222D01*
X9677325Y-20492222D02*
X9696373Y-20501745D01*
X9772563Y-20701745D02*
X9782087Y-20692222D01*
X9782087Y-20692222D02*
X9801134Y-20663650D01*
X9801134Y-20663650D02*
X9810658Y-20644603D01*
X9810658Y-20644603D02*
X9820182Y-20616031D01*
X9820182Y-20616031D02*
X9829706Y-20568412D01*
X9829706Y-20568412D02*
X9829706Y-20530317D01*
X9829706Y-20530317D02*
X9820182Y-20482698D01*
X9820182Y-20482698D02*
X9810658Y-20454126D01*
X9810658Y-20454126D02*
X9801134Y-20435079D01*
X9801134Y-20435079D02*
X9782087Y-20406507D01*
X9782087Y-20406507D02*
X9772563Y-20396983D01*
D13*
X4942500Y-20853071D02*
X4997500Y-20798071D01*
X4942500Y-20743071D01*
X4887500Y-20798071D01*
X4942500Y-20853071D01*
D11*
X5363039Y-20889555D02*
X5248753Y-20889555D01*
X5305896Y-20889555D02*
X5305896Y-20689555D01*
X5305896Y-20689555D02*
X5286848Y-20718126D01*
X5286848Y-20718126D02*
X5267801Y-20737174D01*
X5267801Y-20737174D02*
X5248753Y-20746698D01*
X5458277Y-20880031D02*
X5458277Y-20889555D01*
X5458277Y-20889555D02*
X5448753Y-20908603D01*
X5448753Y-20908603D02*
X5439229Y-20918126D01*
X5648753Y-20889555D02*
X5534467Y-20889555D01*
X5591610Y-20889555D02*
X5591610Y-20689555D01*
X5591610Y-20689555D02*
X5572563Y-20718126D01*
X5572563Y-20718126D02*
X5553515Y-20737174D01*
X5553515Y-20737174D02*
X5534467Y-20746698D01*
X5772562Y-20689555D02*
X5791610Y-20689555D01*
X5791610Y-20689555D02*
X5810658Y-20699079D01*
X5810658Y-20699079D02*
X5820182Y-20708603D01*
X5820182Y-20708603D02*
X5829705Y-20727650D01*
X5829705Y-20727650D02*
X5839229Y-20765745D01*
X5839229Y-20765745D02*
X5839229Y-20813364D01*
X5839229Y-20813364D02*
X5829705Y-20851460D01*
X5829705Y-20851460D02*
X5820182Y-20870507D01*
X5820182Y-20870507D02*
X5810658Y-20880031D01*
X5810658Y-20880031D02*
X5791610Y-20889555D01*
X5791610Y-20889555D02*
X5772562Y-20889555D01*
X5772562Y-20889555D02*
X5753515Y-20880031D01*
X5753515Y-20880031D02*
X5743991Y-20870507D01*
X5743991Y-20870507D02*
X5734467Y-20851460D01*
X5734467Y-20851460D02*
X5724943Y-20813364D01*
X5724943Y-20813364D02*
X5724943Y-20765745D01*
X5724943Y-20765745D02*
X5734467Y-20727650D01*
X5734467Y-20727650D02*
X5743991Y-20708603D01*
X5743991Y-20708603D02*
X5753515Y-20699079D01*
X5753515Y-20699079D02*
X5772562Y-20689555D01*
X5963039Y-20689555D02*
X5982086Y-20689555D01*
X5982086Y-20689555D02*
X6001134Y-20699079D01*
X6001134Y-20699079D02*
X6010658Y-20708603D01*
X6010658Y-20708603D02*
X6020182Y-20727650D01*
X6020182Y-20727650D02*
X6029705Y-20765745D01*
X6029705Y-20765745D02*
X6029705Y-20813364D01*
X6029705Y-20813364D02*
X6020182Y-20851460D01*
X6020182Y-20851460D02*
X6010658Y-20870507D01*
X6010658Y-20870507D02*
X6001134Y-20880031D01*
X6001134Y-20880031D02*
X5982086Y-20889555D01*
X5982086Y-20889555D02*
X5963039Y-20889555D01*
X5963039Y-20889555D02*
X5943991Y-20880031D01*
X5943991Y-20880031D02*
X5934467Y-20870507D01*
X5934467Y-20870507D02*
X5924943Y-20851460D01*
X5924943Y-20851460D02*
X5915420Y-20813364D01*
X5915420Y-20813364D02*
X5915420Y-20765745D01*
X5915420Y-20765745D02*
X5924943Y-20727650D01*
X5924943Y-20727650D02*
X5934467Y-20708603D01*
X5934467Y-20708603D02*
X5943991Y-20699079D01*
X5943991Y-20699079D02*
X5963039Y-20689555D01*
X6115420Y-20889555D02*
X6115420Y-20756222D01*
X6115420Y-20775269D02*
X6124943Y-20765745D01*
X6124943Y-20765745D02*
X6143991Y-20756222D01*
X6143991Y-20756222D02*
X6172563Y-20756222D01*
X6172563Y-20756222D02*
X6191610Y-20765745D01*
X6191610Y-20765745D02*
X6201134Y-20784793D01*
X6201134Y-20784793D02*
X6201134Y-20889555D01*
X6201134Y-20784793D02*
X6210658Y-20765745D01*
X6210658Y-20765745D02*
X6229705Y-20756222D01*
X6229705Y-20756222D02*
X6258277Y-20756222D01*
X6258277Y-20756222D02*
X6277324Y-20765745D01*
X6277324Y-20765745D02*
X6286848Y-20784793D01*
X6286848Y-20784793D02*
X6286848Y-20889555D01*
X6382086Y-20889555D02*
X6382086Y-20756222D01*
X6382086Y-20775269D02*
X6391610Y-20765745D01*
X6391610Y-20765745D02*
X6410658Y-20756222D01*
X6410658Y-20756222D02*
X6439229Y-20756222D01*
X6439229Y-20756222D02*
X6458277Y-20765745D01*
X6458277Y-20765745D02*
X6467801Y-20784793D01*
X6467801Y-20784793D02*
X6467801Y-20889555D01*
X6467801Y-20784793D02*
X6477324Y-20765745D01*
X6477324Y-20765745D02*
X6496372Y-20756222D01*
X6496372Y-20756222D02*
X6524943Y-20756222D01*
X6524943Y-20756222D02*
X6543991Y-20765745D01*
X6543991Y-20765745D02*
X6553515Y-20784793D01*
X6553515Y-20784793D02*
X6553515Y-20889555D01*
X6943991Y-20680031D02*
X6772563Y-20937174D01*
X7201134Y-20689555D02*
X7220182Y-20689555D01*
X7220182Y-20689555D02*
X7239229Y-20699079D01*
X7239229Y-20699079D02*
X7248753Y-20708603D01*
X7248753Y-20708603D02*
X7258277Y-20727650D01*
X7258277Y-20727650D02*
X7267801Y-20765745D01*
X7267801Y-20765745D02*
X7267801Y-20813364D01*
X7267801Y-20813364D02*
X7258277Y-20851460D01*
X7258277Y-20851460D02*
X7248753Y-20870507D01*
X7248753Y-20870507D02*
X7239229Y-20880031D01*
X7239229Y-20880031D02*
X7220182Y-20889555D01*
X7220182Y-20889555D02*
X7201134Y-20889555D01*
X7201134Y-20889555D02*
X7182086Y-20880031D01*
X7182086Y-20880031D02*
X7172563Y-20870507D01*
X7172563Y-20870507D02*
X7163039Y-20851460D01*
X7163039Y-20851460D02*
X7153515Y-20813364D01*
X7153515Y-20813364D02*
X7153515Y-20765745D01*
X7153515Y-20765745D02*
X7163039Y-20727650D01*
X7163039Y-20727650D02*
X7172563Y-20708603D01*
X7172563Y-20708603D02*
X7182086Y-20699079D01*
X7182086Y-20699079D02*
X7201134Y-20689555D01*
X7363039Y-20880031D02*
X7363039Y-20889555D01*
X7363039Y-20889555D02*
X7353515Y-20908603D01*
X7353515Y-20908603D02*
X7343991Y-20918126D01*
X7486848Y-20689555D02*
X7505896Y-20689555D01*
X7505896Y-20689555D02*
X7524944Y-20699079D01*
X7524944Y-20699079D02*
X7534467Y-20708603D01*
X7534467Y-20708603D02*
X7543991Y-20727650D01*
X7543991Y-20727650D02*
X7553515Y-20765745D01*
X7553515Y-20765745D02*
X7553515Y-20813364D01*
X7553515Y-20813364D02*
X7543991Y-20851460D01*
X7543991Y-20851460D02*
X7534467Y-20870507D01*
X7534467Y-20870507D02*
X7524944Y-20880031D01*
X7524944Y-20880031D02*
X7505896Y-20889555D01*
X7505896Y-20889555D02*
X7486848Y-20889555D01*
X7486848Y-20889555D02*
X7467801Y-20880031D01*
X7467801Y-20880031D02*
X7458277Y-20870507D01*
X7458277Y-20870507D02*
X7448753Y-20851460D01*
X7448753Y-20851460D02*
X7439229Y-20813364D01*
X7439229Y-20813364D02*
X7439229Y-20765745D01*
X7439229Y-20765745D02*
X7448753Y-20727650D01*
X7448753Y-20727650D02*
X7458277Y-20708603D01*
X7458277Y-20708603D02*
X7467801Y-20699079D01*
X7467801Y-20699079D02*
X7486848Y-20689555D01*
X7724944Y-20756222D02*
X7724944Y-20889555D01*
X7677325Y-20680031D02*
X7629706Y-20822888D01*
X7629706Y-20822888D02*
X7753515Y-20822888D01*
X7810658Y-20689555D02*
X7934467Y-20689555D01*
X7934467Y-20689555D02*
X7867801Y-20765745D01*
X7867801Y-20765745D02*
X7896372Y-20765745D01*
X7896372Y-20765745D02*
X7915420Y-20775269D01*
X7915420Y-20775269D02*
X7924944Y-20784793D01*
X7924944Y-20784793D02*
X7934467Y-20803841D01*
X7934467Y-20803841D02*
X7934467Y-20851460D01*
X7934467Y-20851460D02*
X7924944Y-20870507D01*
X7924944Y-20870507D02*
X7915420Y-20880031D01*
X7915420Y-20880031D02*
X7896372Y-20889555D01*
X7896372Y-20889555D02*
X7839229Y-20889555D01*
X7839229Y-20889555D02*
X7820182Y-20880031D01*
X7820182Y-20880031D02*
X7810658Y-20870507D01*
X8001134Y-20689555D02*
X8124944Y-20689555D01*
X8124944Y-20689555D02*
X8058277Y-20765745D01*
X8058277Y-20765745D02*
X8086848Y-20765745D01*
X8086848Y-20765745D02*
X8105896Y-20775269D01*
X8105896Y-20775269D02*
X8115420Y-20784793D01*
X8115420Y-20784793D02*
X8124944Y-20803841D01*
X8124944Y-20803841D02*
X8124944Y-20851460D01*
X8124944Y-20851460D02*
X8115420Y-20870507D01*
X8115420Y-20870507D02*
X8105896Y-20880031D01*
X8105896Y-20880031D02*
X8086848Y-20889555D01*
X8086848Y-20889555D02*
X8029706Y-20889555D01*
X8029706Y-20889555D02*
X8010658Y-20880031D01*
X8010658Y-20880031D02*
X8001134Y-20870507D01*
X8201134Y-20689555D02*
X8201134Y-20727650D01*
X8277325Y-20689555D02*
X8277325Y-20727650D01*
X8572563Y-20965745D02*
X8563039Y-20956222D01*
X8563039Y-20956222D02*
X8543991Y-20927650D01*
X8543991Y-20927650D02*
X8534468Y-20908603D01*
X8534468Y-20908603D02*
X8524944Y-20880031D01*
X8524944Y-20880031D02*
X8515420Y-20832412D01*
X8515420Y-20832412D02*
X8515420Y-20794317D01*
X8515420Y-20794317D02*
X8524944Y-20746698D01*
X8524944Y-20746698D02*
X8534468Y-20718126D01*
X8534468Y-20718126D02*
X8543991Y-20699079D01*
X8543991Y-20699079D02*
X8563039Y-20670507D01*
X8563039Y-20670507D02*
X8572563Y-20660983D01*
X8639230Y-20708603D02*
X8648753Y-20699079D01*
X8648753Y-20699079D02*
X8667801Y-20689555D01*
X8667801Y-20689555D02*
X8715420Y-20689555D01*
X8715420Y-20689555D02*
X8734468Y-20699079D01*
X8734468Y-20699079D02*
X8743991Y-20708603D01*
X8743991Y-20708603D02*
X8753515Y-20727650D01*
X8753515Y-20727650D02*
X8753515Y-20746698D01*
X8753515Y-20746698D02*
X8743991Y-20775269D01*
X8743991Y-20775269D02*
X8629706Y-20889555D01*
X8629706Y-20889555D02*
X8753515Y-20889555D01*
X8991611Y-20889555D02*
X8991611Y-20689555D01*
X9077325Y-20889555D02*
X9077325Y-20784793D01*
X9077325Y-20784793D02*
X9067801Y-20765745D01*
X9067801Y-20765745D02*
X9048753Y-20756222D01*
X9048753Y-20756222D02*
X9020182Y-20756222D01*
X9020182Y-20756222D02*
X9001134Y-20765745D01*
X9001134Y-20765745D02*
X8991611Y-20775269D01*
X9201134Y-20889555D02*
X9182087Y-20880031D01*
X9182087Y-20880031D02*
X9172563Y-20870507D01*
X9172563Y-20870507D02*
X9163039Y-20851460D01*
X9163039Y-20851460D02*
X9163039Y-20794317D01*
X9163039Y-20794317D02*
X9172563Y-20775269D01*
X9172563Y-20775269D02*
X9182087Y-20765745D01*
X9182087Y-20765745D02*
X9201134Y-20756222D01*
X9201134Y-20756222D02*
X9229706Y-20756222D01*
X9229706Y-20756222D02*
X9248753Y-20765745D01*
X9248753Y-20765745D02*
X9258277Y-20775269D01*
X9258277Y-20775269D02*
X9267801Y-20794317D01*
X9267801Y-20794317D02*
X9267801Y-20851460D01*
X9267801Y-20851460D02*
X9258277Y-20870507D01*
X9258277Y-20870507D02*
X9248753Y-20880031D01*
X9248753Y-20880031D02*
X9229706Y-20889555D01*
X9229706Y-20889555D02*
X9201134Y-20889555D01*
X9382087Y-20889555D02*
X9363039Y-20880031D01*
X9363039Y-20880031D02*
X9353515Y-20860983D01*
X9353515Y-20860983D02*
X9353515Y-20689555D01*
X9534468Y-20880031D02*
X9515420Y-20889555D01*
X9515420Y-20889555D02*
X9477325Y-20889555D01*
X9477325Y-20889555D02*
X9458277Y-20880031D01*
X9458277Y-20880031D02*
X9448753Y-20860983D01*
X9448753Y-20860983D02*
X9448753Y-20784793D01*
X9448753Y-20784793D02*
X9458277Y-20765745D01*
X9458277Y-20765745D02*
X9477325Y-20756222D01*
X9477325Y-20756222D02*
X9515420Y-20756222D01*
X9515420Y-20756222D02*
X9534468Y-20765745D01*
X9534468Y-20765745D02*
X9543992Y-20784793D01*
X9543992Y-20784793D02*
X9543992Y-20803841D01*
X9543992Y-20803841D02*
X9448753Y-20822888D01*
X9620182Y-20880031D02*
X9639230Y-20889555D01*
X9639230Y-20889555D02*
X9677325Y-20889555D01*
X9677325Y-20889555D02*
X9696373Y-20880031D01*
X9696373Y-20880031D02*
X9705896Y-20860983D01*
X9705896Y-20860983D02*
X9705896Y-20851460D01*
X9705896Y-20851460D02*
X9696373Y-20832412D01*
X9696373Y-20832412D02*
X9677325Y-20822888D01*
X9677325Y-20822888D02*
X9648753Y-20822888D01*
X9648753Y-20822888D02*
X9629706Y-20813364D01*
X9629706Y-20813364D02*
X9620182Y-20794317D01*
X9620182Y-20794317D02*
X9620182Y-20784793D01*
X9620182Y-20784793D02*
X9629706Y-20765745D01*
X9629706Y-20765745D02*
X9648753Y-20756222D01*
X9648753Y-20756222D02*
X9677325Y-20756222D01*
X9677325Y-20756222D02*
X9696373Y-20765745D01*
X9772563Y-20965745D02*
X9782087Y-20956222D01*
X9782087Y-20956222D02*
X9801134Y-20927650D01*
X9801134Y-20927650D02*
X9810658Y-20908603D01*
X9810658Y-20908603D02*
X9820182Y-20880031D01*
X9820182Y-20880031D02*
X9829706Y-20832412D01*
X9829706Y-20832412D02*
X9829706Y-20794317D01*
X9829706Y-20794317D02*
X9820182Y-20746698D01*
X9820182Y-20746698D02*
X9810658Y-20718126D01*
X9810658Y-20718126D02*
X9801134Y-20699079D01*
X9801134Y-20699079D02*
X9782087Y-20670507D01*
X9782087Y-20670507D02*
X9772563Y-20660983D01*
D14*
X4867500Y-20997071D02*
X4997500Y-21127071D01*
X4997500Y-20997071D02*
X4867500Y-21127071D01*
X4997500Y-21062071D02*
G75*
G02*
X4867500Y-21062071I-65000J0D01*
G01*
X4867500Y-21062071D02*
G75*
G02*
X4997500Y-21062071I65000J0D01*
G01*
D11*
X5363039Y-21153555D02*
X5248753Y-21153555D01*
X5305896Y-21153555D02*
X5305896Y-20953555D01*
X5305896Y-20953555D02*
X5286848Y-20982126D01*
X5286848Y-20982126D02*
X5267801Y-21001174D01*
X5267801Y-21001174D02*
X5248753Y-21010698D01*
X5458277Y-21144031D02*
X5458277Y-21153555D01*
X5458277Y-21153555D02*
X5448753Y-21172603D01*
X5448753Y-21172603D02*
X5439229Y-21182126D01*
X5524944Y-20953555D02*
X5648753Y-20953555D01*
X5648753Y-20953555D02*
X5582086Y-21029745D01*
X5582086Y-21029745D02*
X5610658Y-21029745D01*
X5610658Y-21029745D02*
X5629705Y-21039269D01*
X5629705Y-21039269D02*
X5639229Y-21048793D01*
X5639229Y-21048793D02*
X5648753Y-21067841D01*
X5648753Y-21067841D02*
X5648753Y-21115460D01*
X5648753Y-21115460D02*
X5639229Y-21134507D01*
X5639229Y-21134507D02*
X5629705Y-21144031D01*
X5629705Y-21144031D02*
X5610658Y-21153555D01*
X5610658Y-21153555D02*
X5553515Y-21153555D01*
X5553515Y-21153555D02*
X5534467Y-21144031D01*
X5534467Y-21144031D02*
X5524944Y-21134507D01*
X5772562Y-20953555D02*
X5791610Y-20953555D01*
X5791610Y-20953555D02*
X5810658Y-20963079D01*
X5810658Y-20963079D02*
X5820182Y-20972603D01*
X5820182Y-20972603D02*
X5829705Y-20991650D01*
X5829705Y-20991650D02*
X5839229Y-21029745D01*
X5839229Y-21029745D02*
X5839229Y-21077364D01*
X5839229Y-21077364D02*
X5829705Y-21115460D01*
X5829705Y-21115460D02*
X5820182Y-21134507D01*
X5820182Y-21134507D02*
X5810658Y-21144031D01*
X5810658Y-21144031D02*
X5791610Y-21153555D01*
X5791610Y-21153555D02*
X5772562Y-21153555D01*
X5772562Y-21153555D02*
X5753515Y-21144031D01*
X5753515Y-21144031D02*
X5743991Y-21134507D01*
X5743991Y-21134507D02*
X5734467Y-21115460D01*
X5734467Y-21115460D02*
X5724943Y-21077364D01*
X5724943Y-21077364D02*
X5724943Y-21029745D01*
X5724943Y-21029745D02*
X5734467Y-20991650D01*
X5734467Y-20991650D02*
X5743991Y-20972603D01*
X5743991Y-20972603D02*
X5753515Y-20963079D01*
X5753515Y-20963079D02*
X5772562Y-20953555D01*
X5963039Y-20953555D02*
X5982086Y-20953555D01*
X5982086Y-20953555D02*
X6001134Y-20963079D01*
X6001134Y-20963079D02*
X6010658Y-20972603D01*
X6010658Y-20972603D02*
X6020182Y-20991650D01*
X6020182Y-20991650D02*
X6029705Y-21029745D01*
X6029705Y-21029745D02*
X6029705Y-21077364D01*
X6029705Y-21077364D02*
X6020182Y-21115460D01*
X6020182Y-21115460D02*
X6010658Y-21134507D01*
X6010658Y-21134507D02*
X6001134Y-21144031D01*
X6001134Y-21144031D02*
X5982086Y-21153555D01*
X5982086Y-21153555D02*
X5963039Y-21153555D01*
X5963039Y-21153555D02*
X5943991Y-21144031D01*
X5943991Y-21144031D02*
X5934467Y-21134507D01*
X5934467Y-21134507D02*
X5924943Y-21115460D01*
X5924943Y-21115460D02*
X5915420Y-21077364D01*
X5915420Y-21077364D02*
X5915420Y-21029745D01*
X5915420Y-21029745D02*
X5924943Y-20991650D01*
X5924943Y-20991650D02*
X5934467Y-20972603D01*
X5934467Y-20972603D02*
X5943991Y-20963079D01*
X5943991Y-20963079D02*
X5963039Y-20953555D01*
X6115420Y-21153555D02*
X6115420Y-21020222D01*
X6115420Y-21039269D02*
X6124943Y-21029745D01*
X6124943Y-21029745D02*
X6143991Y-21020222D01*
X6143991Y-21020222D02*
X6172563Y-21020222D01*
X6172563Y-21020222D02*
X6191610Y-21029745D01*
X6191610Y-21029745D02*
X6201134Y-21048793D01*
X6201134Y-21048793D02*
X6201134Y-21153555D01*
X6201134Y-21048793D02*
X6210658Y-21029745D01*
X6210658Y-21029745D02*
X6229705Y-21020222D01*
X6229705Y-21020222D02*
X6258277Y-21020222D01*
X6258277Y-21020222D02*
X6277324Y-21029745D01*
X6277324Y-21029745D02*
X6286848Y-21048793D01*
X6286848Y-21048793D02*
X6286848Y-21153555D01*
X6382086Y-21153555D02*
X6382086Y-21020222D01*
X6382086Y-21039269D02*
X6391610Y-21029745D01*
X6391610Y-21029745D02*
X6410658Y-21020222D01*
X6410658Y-21020222D02*
X6439229Y-21020222D01*
X6439229Y-21020222D02*
X6458277Y-21029745D01*
X6458277Y-21029745D02*
X6467801Y-21048793D01*
X6467801Y-21048793D02*
X6467801Y-21153555D01*
X6467801Y-21048793D02*
X6477324Y-21029745D01*
X6477324Y-21029745D02*
X6496372Y-21020222D01*
X6496372Y-21020222D02*
X6524943Y-21020222D01*
X6524943Y-21020222D02*
X6543991Y-21029745D01*
X6543991Y-21029745D02*
X6553515Y-21048793D01*
X6553515Y-21048793D02*
X6553515Y-21153555D01*
X6943991Y-20944031D02*
X6772563Y-21201174D01*
X7201134Y-20953555D02*
X7220182Y-20953555D01*
X7220182Y-20953555D02*
X7239229Y-20963079D01*
X7239229Y-20963079D02*
X7248753Y-20972603D01*
X7248753Y-20972603D02*
X7258277Y-20991650D01*
X7258277Y-20991650D02*
X7267801Y-21029745D01*
X7267801Y-21029745D02*
X7267801Y-21077364D01*
X7267801Y-21077364D02*
X7258277Y-21115460D01*
X7258277Y-21115460D02*
X7248753Y-21134507D01*
X7248753Y-21134507D02*
X7239229Y-21144031D01*
X7239229Y-21144031D02*
X7220182Y-21153555D01*
X7220182Y-21153555D02*
X7201134Y-21153555D01*
X7201134Y-21153555D02*
X7182086Y-21144031D01*
X7182086Y-21144031D02*
X7172563Y-21134507D01*
X7172563Y-21134507D02*
X7163039Y-21115460D01*
X7163039Y-21115460D02*
X7153515Y-21077364D01*
X7153515Y-21077364D02*
X7153515Y-21029745D01*
X7153515Y-21029745D02*
X7163039Y-20991650D01*
X7163039Y-20991650D02*
X7172563Y-20972603D01*
X7172563Y-20972603D02*
X7182086Y-20963079D01*
X7182086Y-20963079D02*
X7201134Y-20953555D01*
X7363039Y-21144031D02*
X7363039Y-21153555D01*
X7363039Y-21153555D02*
X7353515Y-21172603D01*
X7353515Y-21172603D02*
X7343991Y-21182126D01*
X7486848Y-20953555D02*
X7505896Y-20953555D01*
X7505896Y-20953555D02*
X7524944Y-20963079D01*
X7524944Y-20963079D02*
X7534467Y-20972603D01*
X7534467Y-20972603D02*
X7543991Y-20991650D01*
X7543991Y-20991650D02*
X7553515Y-21029745D01*
X7553515Y-21029745D02*
X7553515Y-21077364D01*
X7553515Y-21077364D02*
X7543991Y-21115460D01*
X7543991Y-21115460D02*
X7534467Y-21134507D01*
X7534467Y-21134507D02*
X7524944Y-21144031D01*
X7524944Y-21144031D02*
X7505896Y-21153555D01*
X7505896Y-21153555D02*
X7486848Y-21153555D01*
X7486848Y-21153555D02*
X7467801Y-21144031D01*
X7467801Y-21144031D02*
X7458277Y-21134507D01*
X7458277Y-21134507D02*
X7448753Y-21115460D01*
X7448753Y-21115460D02*
X7439229Y-21077364D01*
X7439229Y-21077364D02*
X7439229Y-21029745D01*
X7439229Y-21029745D02*
X7448753Y-20991650D01*
X7448753Y-20991650D02*
X7458277Y-20972603D01*
X7458277Y-20972603D02*
X7467801Y-20963079D01*
X7467801Y-20963079D02*
X7486848Y-20953555D01*
X7734467Y-20953555D02*
X7639229Y-20953555D01*
X7639229Y-20953555D02*
X7629706Y-21048793D01*
X7629706Y-21048793D02*
X7639229Y-21039269D01*
X7639229Y-21039269D02*
X7658277Y-21029745D01*
X7658277Y-21029745D02*
X7705896Y-21029745D01*
X7705896Y-21029745D02*
X7724944Y-21039269D01*
X7724944Y-21039269D02*
X7734467Y-21048793D01*
X7734467Y-21048793D02*
X7743991Y-21067841D01*
X7743991Y-21067841D02*
X7743991Y-21115460D01*
X7743991Y-21115460D02*
X7734467Y-21134507D01*
X7734467Y-21134507D02*
X7724944Y-21144031D01*
X7724944Y-21144031D02*
X7705896Y-21153555D01*
X7705896Y-21153555D02*
X7658277Y-21153555D01*
X7658277Y-21153555D02*
X7639229Y-21144031D01*
X7639229Y-21144031D02*
X7629706Y-21134507D01*
X7934467Y-21153555D02*
X7820182Y-21153555D01*
X7877325Y-21153555D02*
X7877325Y-20953555D01*
X7877325Y-20953555D02*
X7858277Y-20982126D01*
X7858277Y-20982126D02*
X7839229Y-21001174D01*
X7839229Y-21001174D02*
X7820182Y-21010698D01*
X8010658Y-20972603D02*
X8020182Y-20963079D01*
X8020182Y-20963079D02*
X8039229Y-20953555D01*
X8039229Y-20953555D02*
X8086848Y-20953555D01*
X8086848Y-20953555D02*
X8105896Y-20963079D01*
X8105896Y-20963079D02*
X8115420Y-20972603D01*
X8115420Y-20972603D02*
X8124944Y-20991650D01*
X8124944Y-20991650D02*
X8124944Y-21010698D01*
X8124944Y-21010698D02*
X8115420Y-21039269D01*
X8115420Y-21039269D02*
X8001134Y-21153555D01*
X8001134Y-21153555D02*
X8124944Y-21153555D01*
X8201134Y-20953555D02*
X8201134Y-20991650D01*
X8277325Y-20953555D02*
X8277325Y-20991650D01*
X8572563Y-21229745D02*
X8563039Y-21220222D01*
X8563039Y-21220222D02*
X8543991Y-21191650D01*
X8543991Y-21191650D02*
X8534468Y-21172603D01*
X8534468Y-21172603D02*
X8524944Y-21144031D01*
X8524944Y-21144031D02*
X8515420Y-21096412D01*
X8515420Y-21096412D02*
X8515420Y-21058317D01*
X8515420Y-21058317D02*
X8524944Y-21010698D01*
X8524944Y-21010698D02*
X8534468Y-20982126D01*
X8534468Y-20982126D02*
X8543991Y-20963079D01*
X8543991Y-20963079D02*
X8563039Y-20934507D01*
X8563039Y-20934507D02*
X8572563Y-20924983D01*
X8734468Y-21020222D02*
X8734468Y-21153555D01*
X8686849Y-20944031D02*
X8639230Y-21086888D01*
X8639230Y-21086888D02*
X8763039Y-21086888D01*
X8924944Y-20953555D02*
X8886849Y-20953555D01*
X8886849Y-20953555D02*
X8867801Y-20963079D01*
X8867801Y-20963079D02*
X8858277Y-20972603D01*
X8858277Y-20972603D02*
X8839230Y-21001174D01*
X8839230Y-21001174D02*
X8829706Y-21039269D01*
X8829706Y-21039269D02*
X8829706Y-21115460D01*
X8829706Y-21115460D02*
X8839230Y-21134507D01*
X8839230Y-21134507D02*
X8848753Y-21144031D01*
X8848753Y-21144031D02*
X8867801Y-21153555D01*
X8867801Y-21153555D02*
X8905896Y-21153555D01*
X8905896Y-21153555D02*
X8924944Y-21144031D01*
X8924944Y-21144031D02*
X8934468Y-21134507D01*
X8934468Y-21134507D02*
X8943991Y-21115460D01*
X8943991Y-21115460D02*
X8943991Y-21067841D01*
X8943991Y-21067841D02*
X8934468Y-21048793D01*
X8934468Y-21048793D02*
X8924944Y-21039269D01*
X8924944Y-21039269D02*
X8905896Y-21029745D01*
X8905896Y-21029745D02*
X8867801Y-21029745D01*
X8867801Y-21029745D02*
X8848753Y-21039269D01*
X8848753Y-21039269D02*
X8839230Y-21048793D01*
X8839230Y-21048793D02*
X8829706Y-21067841D01*
X9182087Y-21153555D02*
X9182087Y-20953555D01*
X9267801Y-21153555D02*
X9267801Y-21048793D01*
X9267801Y-21048793D02*
X9258277Y-21029745D01*
X9258277Y-21029745D02*
X9239230Y-21020222D01*
X9239230Y-21020222D02*
X9210658Y-21020222D01*
X9210658Y-21020222D02*
X9191611Y-21029745D01*
X9191611Y-21029745D02*
X9182087Y-21039269D01*
X9391611Y-21153555D02*
X9372563Y-21144031D01*
X9372563Y-21144031D02*
X9363039Y-21134507D01*
X9363039Y-21134507D02*
X9353515Y-21115460D01*
X9353515Y-21115460D02*
X9353515Y-21058317D01*
X9353515Y-21058317D02*
X9363039Y-21039269D01*
X9363039Y-21039269D02*
X9372563Y-21029745D01*
X9372563Y-21029745D02*
X9391611Y-21020222D01*
X9391611Y-21020222D02*
X9420182Y-21020222D01*
X9420182Y-21020222D02*
X9439230Y-21029745D01*
X9439230Y-21029745D02*
X9448753Y-21039269D01*
X9448753Y-21039269D02*
X9458277Y-21058317D01*
X9458277Y-21058317D02*
X9458277Y-21115460D01*
X9458277Y-21115460D02*
X9448753Y-21134507D01*
X9448753Y-21134507D02*
X9439230Y-21144031D01*
X9439230Y-21144031D02*
X9420182Y-21153555D01*
X9420182Y-21153555D02*
X9391611Y-21153555D01*
X9572563Y-21153555D02*
X9553515Y-21144031D01*
X9553515Y-21144031D02*
X9543992Y-21124983D01*
X9543992Y-21124983D02*
X9543992Y-20953555D01*
X9724944Y-21144031D02*
X9705896Y-21153555D01*
X9705896Y-21153555D02*
X9667801Y-21153555D01*
X9667801Y-21153555D02*
X9648753Y-21144031D01*
X9648753Y-21144031D02*
X9639230Y-21124983D01*
X9639230Y-21124983D02*
X9639230Y-21048793D01*
X9639230Y-21048793D02*
X9648753Y-21029745D01*
X9648753Y-21029745D02*
X9667801Y-21020222D01*
X9667801Y-21020222D02*
X9705896Y-21020222D01*
X9705896Y-21020222D02*
X9724944Y-21029745D01*
X9724944Y-21029745D02*
X9734468Y-21048793D01*
X9734468Y-21048793D02*
X9734468Y-21067841D01*
X9734468Y-21067841D02*
X9639230Y-21086888D01*
X9810658Y-21144031D02*
X9829706Y-21153555D01*
X9829706Y-21153555D02*
X9867801Y-21153555D01*
X9867801Y-21153555D02*
X9886849Y-21144031D01*
X9886849Y-21144031D02*
X9896373Y-21124983D01*
X9896373Y-21124983D02*
X9896373Y-21115460D01*
X9896373Y-21115460D02*
X9886849Y-21096412D01*
X9886849Y-21096412D02*
X9867801Y-21086888D01*
X9867801Y-21086888D02*
X9839230Y-21086888D01*
X9839230Y-21086888D02*
X9820182Y-21077364D01*
X9820182Y-21077364D02*
X9810658Y-21058317D01*
X9810658Y-21058317D02*
X9810658Y-21048793D01*
X9810658Y-21048793D02*
X9820182Y-21029745D01*
X9820182Y-21029745D02*
X9839230Y-21020222D01*
X9839230Y-21020222D02*
X9867801Y-21020222D01*
X9867801Y-21020222D02*
X9886849Y-21029745D01*
X9963039Y-21229745D02*
X9972563Y-21220222D01*
X9972563Y-21220222D02*
X9991611Y-21191650D01*
X9991611Y-21191650D02*
X10001134Y-21172603D01*
X10001134Y-21172603D02*
X10010658Y-21144031D01*
X10010658Y-21144031D02*
X10020182Y-21096412D01*
X10020182Y-21096412D02*
X10020182Y-21058317D01*
X10020182Y-21058317D02*
X10010658Y-21010698D01*
X10010658Y-21010698D02*
X10001134Y-20982126D01*
X10001134Y-20982126D02*
X9991611Y-20963079D01*
X9991611Y-20963079D02*
X9972563Y-20934507D01*
X9972563Y-20934507D02*
X9963039Y-20924983D01*
M02*
