M48
; DRILL file KiCad 10.0.6 date 2026-10-04T21:14:44
; FORMAT={-:-/ absolute / metric / decimal}
; #@! TF.CreationDate,2026-10-04T21:14:44+02:00
; #@! TF.GenerationSoftware,Kicad,Pcbnew,10.0.6
; #@! TF.FileFunction,Plated,1,2,PTH
FMAT,2
METRIC
; #@! TA.AperFunction,Plated,PTH,ComponentDrill
T1C0.800
; #@! TA.AperFunction,Plated,PTH,ComponentDrill
T2C0.900
; #@! TA.AperFunction,Plated,PTH,ComponentDrill
T3C1.000
; #@! TA.AperFunction,Plated,PTH,ComponentDrill
T4C1.100
; #@! TA.AperFunction,Plated,PTH,ComponentDrill
T5C1.300
%
G90
G05
T1
X87.98Y-54.29
X87.98Y-61.91
X87.98Y-64.69
X87.98Y-72.31
X88.328Y-93.65
X88.328Y-96.19
X88.328Y-98.73
X88.328Y-101.27
X88.328Y-103.81
X88.328Y-106.35
X88.328Y-108.89
X88.328Y-111.43
X89.412Y-83.218
X89.412Y-88.218
X89.551Y-146.2
X89.751Y-151.0
X89.761Y-160.9
X89.851Y-156.0
X90.151Y-118.1
X90.151Y-120.64
X90.151Y-123.18
X90.151Y-125.72
X90.151Y-128.26
X90.151Y-130.8
X90.151Y-133.34
X90.151Y-135.88
X90.151Y-138.42
X91.63Y-76.33
X91.86Y-54.86
X91.86Y-57.4
X91.86Y-59.94
X91.86Y-62.48
X91.86Y-65.02
X91.86Y-67.56
X91.86Y-70.1
X91.86Y-72.64
X95.947Y-93.65
X95.947Y-96.19
X95.947Y-98.73
X95.947Y-101.27
X95.947Y-103.81
X95.947Y-106.35
X95.947Y-108.89
X95.947Y-111.43
X97.171Y-146.2
X97.371Y-151.0
X97.381Y-160.9
X97.471Y-156.0
X97.771Y-118.1
X97.771Y-120.64
X97.771Y-123.18
X97.771Y-125.72
X97.771Y-128.26
X97.771Y-130.8
X97.771Y-133.34
X97.771Y-135.88
X97.771Y-138.42
X98.807Y-93.56
X99.25Y-76.33
X99.48Y-54.86
X99.48Y-57.4
X99.48Y-59.94
X99.48Y-62.48
X99.48Y-65.02
X99.48Y-67.56
X99.48Y-70.1
X99.48Y-72.64
X99.797Y-97.56
X99.797Y-101.16
X100.151Y-146.2
X100.297Y-104.44
X100.297Y-112.06
X100.351Y-156.0
X100.351Y-161.0
X100.441Y-150.9
X100.851Y-117.98
X100.941Y-138.48
X101.201Y-129.51
X101.211Y-125.02
X101.301Y-134.29
X102.48Y-54.7
X103.17Y-69.2
X103.23Y-60.92
X103.23Y-64.34
X103.608Y-104.45
X103.608Y-112.07
X103.807Y-93.56
X105.851Y-117.98
X107.081Y-84.136
X107.081Y-86.136
X107.417Y-97.56
X107.417Y-101.16
X107.48Y-54.7
X107.771Y-146.2
X107.971Y-156.0
X107.971Y-161.0
X108.061Y-150.9
X108.561Y-138.48
X108.821Y-129.51
X108.831Y-125.02
X108.921Y-134.29
X109.161Y-76.966
X110.071Y-93.396
X110.79Y-69.2
X110.85Y-60.92
X110.85Y-64.34
X116.781Y-76.966
X117.691Y-93.396
T2
X120.281Y-76.996
X120.381Y-93.396
X122.821Y-76.996
X122.921Y-93.396
T3
X94.932Y-83.718
X97.472Y-83.718
X100.012Y-83.718
T4
X112.601Y-97.596
X122.761Y-97.596
T5
X79.58Y-56.36
X79.58Y-61.44
X79.58Y-66.52
X79.58Y-71.6
X79.58Y-76.68
X79.58Y-81.76
X79.58Y-86.84
X79.608Y-94.88
X79.608Y-99.96
X79.608Y-105.04
X79.608Y-110.12
X79.68Y-117.82
X79.68Y-122.9
X79.68Y-127.98
X79.68Y-133.06
X79.68Y-138.14
X79.68Y-143.22
X79.68Y-148.3
X79.68Y-153.38
X79.68Y-158.46
X79.68Y-163.54
X118.89Y-56.24
X118.89Y-61.32
X118.89Y-66.4
X118.89Y-71.48
X118.96Y-82.63
X118.96Y-87.71
X119.07Y-112.74
X119.07Y-117.82
X119.07Y-122.9
X119.07Y-127.98
X119.07Y-133.06
X119.07Y-138.14
X119.07Y-143.22
X119.07Y-148.3
X119.07Y-153.38
X119.07Y-158.46
X119.07Y-163.54
M30
