%TF.GenerationSoftware,KiCad,Pcbnew,10.0.6*%
%TF.CreationDate,2026-10-04T20:59:15+02:00*%
%TF.ProjectId,Interface_IAI,496e7465-7266-4616-9365-5f4941492e6b,rev?*%
%TF.SameCoordinates,Original*%
%TF.FileFunction,Soldermask,Bot*%
%TF.FilePolarity,Negative*%
%FSLAX46Y46*%
G04 Gerber Fmt 4.6, Leading zero omitted, Abs format (unit mm)*
G04 Created by KiCad (PCBNEW 10.0.6) date 2026-10-04 20:59:15*
%MOMM*%
%LPD*%
G01*
G04 APERTURE LIST*
G04 Aperture macros list*
%AMRoundRect*
0 Rectangle with rounded corners*
0 $1 Rounding radius*
0 $2 $3 $4 $5 $6 $7 $8 $9 X,Y pos of 4 corners*
0 Add a 4 corners polygon primitive as box body*
4,1,4,$2,$3,$4,$5,$6,$7,$8,$9,$2,$3,0*
0 Add four circle primitives for the rounded corners*
1,1,$1+$1,$2,$3*
1,1,$1+$1,$4,$5*
1,1,$1+$1,$6,$7*
1,1,$1+$1,$8,$9*
0 Add four rect primitives between the rounded corners*
20,1,$1+$1,$2,$3,$4,$5,0*
20,1,$1+$1,$4,$5,$6,$7,0*
20,1,$1+$1,$6,$7,$8,$9,0*
20,1,$1+$1,$8,$9,$2,$3,0*%
G04 Aperture macros list end*
%ADD10RoundRect,0.250000X1.050000X-1.050000X1.050000X1.050000X-1.050000X1.050000X-1.050000X-1.050000X0*%
%ADD11C,2.600000*%
%ADD12C,1.600000*%
%ADD13R,1.800000X1.800000*%
%ADD14C,1.800000*%
%ADD15RoundRect,0.250000X0.550000X0.550000X-0.550000X0.550000X-0.550000X-0.550000X0.550000X-0.550000X0*%
%ADD16RoundRect,0.250000X-1.050000X1.050000X-1.050000X-1.050000X1.050000X-1.050000X1.050000X1.050000X0*%
%ADD17RoundRect,0.250000X-0.550000X-0.550000X0.550000X-0.550000X0.550000X0.550000X-0.550000X0.550000X0*%
%ADD18R,1.500000X2.500000*%
%ADD19O,1.500000X2.500000*%
%ADD20RoundRect,0.249999X-0.850001X-0.850001X0.850001X-0.850001X0.850001X0.850001X-0.850001X0.850001X0*%
%ADD21C,2.200000*%
G04 APERTURE END LIST*
D10*
%TO.C,J6*%
X119008626Y-70904157D03*
D11*
X119008626Y-65824157D03*
X119008626Y-60744157D03*
X119008626Y-55664157D03*
%TD*%
D12*
%TO.C,R15*%
X89670000Y-145624157D03*
X97290000Y-145624157D03*
%TD*%
%TO.C,C2*%
X100970000Y-117404157D03*
X105970000Y-117404157D03*
%TD*%
D10*
%TO.C,J1*%
X119078626Y-87134157D03*
D11*
X119078626Y-82054157D03*
%TD*%
D12*
%TO.C,R12*%
X101420000Y-133714157D03*
X109040000Y-133714157D03*
%TD*%
%TO.C,C1*%
X98926126Y-92984157D03*
X103926126Y-92984157D03*
%TD*%
%TO.C,R18*%
X89880000Y-160324157D03*
X97500000Y-160324157D03*
%TD*%
%TO.C,R7*%
X99368626Y-75754157D03*
X91748626Y-75754157D03*
%TD*%
%TO.C,R22*%
X100470000Y-160424157D03*
X108090000Y-160424157D03*
%TD*%
D10*
%TO.C,J2*%
X119188626Y-162964157D03*
D11*
X119188626Y-157884157D03*
X119188626Y-152804157D03*
X119188626Y-147724157D03*
X119188626Y-142644157D03*
X119188626Y-137564157D03*
X119188626Y-132484157D03*
X119188626Y-127404157D03*
X119188626Y-122324157D03*
X119188626Y-117244157D03*
X119188626Y-112164157D03*
%TD*%
D12*
%TO.C,R24*%
X109280000Y-76390604D03*
X116900000Y-76390604D03*
%TD*%
D13*
%TO.C,D3*%
X122940000Y-76420604D03*
D14*
X120400000Y-76420604D03*
%TD*%
D15*
%TO.C,U3*%
X97890000Y-137844157D03*
D12*
X97890000Y-135304157D03*
X97890000Y-132764157D03*
X97890000Y-130224157D03*
X97890000Y-127684157D03*
X97890000Y-125144157D03*
X97890000Y-122604157D03*
X97890000Y-120064157D03*
X97890000Y-117524157D03*
X90270000Y-117524157D03*
X90270000Y-120064157D03*
X90270000Y-122604157D03*
X90270000Y-125144157D03*
X90270000Y-127684157D03*
X90270000Y-130224157D03*
X90270000Y-132764157D03*
X90270000Y-135304157D03*
X90270000Y-137844157D03*
%TD*%
D13*
%TO.C,D2*%
X123040000Y-92820604D03*
D14*
X120500000Y-92820604D03*
%TD*%
D12*
%TO.C,R5*%
X88098626Y-61334157D03*
X88098626Y-53714157D03*
%TD*%
%TO.C,R6*%
X88098626Y-64114157D03*
X88098626Y-71734157D03*
%TD*%
%TO.C,R14*%
X101330000Y-124444157D03*
X108950000Y-124444157D03*
%TD*%
%TO.C,R10*%
X103288626Y-68624157D03*
X110908626Y-68624157D03*
%TD*%
%TO.C,R1*%
X107536126Y-96984157D03*
X99916126Y-96984157D03*
%TD*%
D16*
%TO.C,J3*%
X79698626Y-55784157D03*
D11*
X79698626Y-60864157D03*
X79698626Y-65944157D03*
X79698626Y-71024157D03*
X79698626Y-76104157D03*
X79698626Y-81184157D03*
X79698626Y-86264157D03*
%TD*%
D12*
%TO.C,R8*%
X103348626Y-60344157D03*
X110968626Y-60344157D03*
%TD*%
%TO.C,R21*%
X100470000Y-155424157D03*
X108090000Y-155424157D03*
%TD*%
%TO.C,R9*%
X103348626Y-63764157D03*
X110968626Y-63764157D03*
%TD*%
%TO.C,R19*%
X100270000Y-145624157D03*
X107890000Y-145624157D03*
%TD*%
%TO.C,R20*%
X100560000Y-150324157D03*
X108180000Y-150324157D03*
%TD*%
%TO.C,C5*%
X107200000Y-85560604D03*
X107200000Y-83560604D03*
%TD*%
D17*
%TO.C,U2*%
X91978626Y-54284157D03*
D12*
X91978626Y-56824157D03*
X91978626Y-59364157D03*
X91978626Y-61904157D03*
X91978626Y-64444157D03*
X91978626Y-66984157D03*
X91978626Y-69524157D03*
X91978626Y-72064157D03*
X99598626Y-72064157D03*
X99598626Y-69524157D03*
X99598626Y-66984157D03*
X99598626Y-64444157D03*
X99598626Y-61904157D03*
X99598626Y-59364157D03*
X99598626Y-56824157D03*
X99598626Y-54284157D03*
%TD*%
%TO.C,R16*%
X89870000Y-150424157D03*
X97490000Y-150424157D03*
%TD*%
%TO.C,C4*%
X89531126Y-82641657D03*
X89531126Y-87641657D03*
%TD*%
%TO.C,R4*%
X100416126Y-111484157D03*
X100416126Y-103864157D03*
%TD*%
%TO.C,R17*%
X89970000Y-155424157D03*
X97590000Y-155424157D03*
%TD*%
%TO.C,R11*%
X101060000Y-137904157D03*
X108680000Y-137904157D03*
%TD*%
%TO.C,C3*%
X102598626Y-54124157D03*
X107598626Y-54124157D03*
%TD*%
D18*
%TO.C,U4*%
X100131126Y-83141657D03*
D19*
X97591126Y-83141657D03*
X95051126Y-83141657D03*
%TD*%
D12*
%TO.C,R13*%
X101320000Y-128934157D03*
X108940000Y-128934157D03*
%TD*%
%TO.C,R23*%
X110190000Y-92820604D03*
X117810000Y-92820604D03*
%TD*%
%TO.C,R3*%
X99916126Y-100584157D03*
X107536126Y-100584157D03*
%TD*%
D16*
%TO.C,J4*%
X79726126Y-94304157D03*
D11*
X79726126Y-99384157D03*
X79726126Y-104464157D03*
X79726126Y-109544157D03*
%TD*%
D20*
%TO.C,D1*%
X112720000Y-97020604D03*
D21*
X122880000Y-97020604D03*
%TD*%
D17*
%TO.C,U1*%
X88446126Y-93074157D03*
D12*
X88446126Y-95614157D03*
X88446126Y-98154157D03*
X88446126Y-100694157D03*
X88446126Y-103234157D03*
X88446126Y-105774157D03*
X88446126Y-108314157D03*
X88446126Y-110854157D03*
X96066126Y-110854157D03*
X96066126Y-108314157D03*
X96066126Y-105774157D03*
X96066126Y-103234157D03*
X96066126Y-100694157D03*
X96066126Y-98154157D03*
X96066126Y-95614157D03*
X96066126Y-93074157D03*
%TD*%
D16*
%TO.C,J5*%
X79798626Y-117244157D03*
D11*
X79798626Y-122324157D03*
X79798626Y-127404157D03*
X79798626Y-132484157D03*
X79798626Y-137564157D03*
X79798626Y-142644157D03*
X79798626Y-147724157D03*
X79798626Y-152804157D03*
X79798626Y-157884157D03*
X79798626Y-162964157D03*
%TD*%
D12*
%TO.C,R2*%
X103726126Y-103874157D03*
X103726126Y-111494157D03*
%TD*%
M02*
