%TF.GenerationSoftware,KiCad,Pcbnew,10.0.6*%
%TF.CreationDate,2026-10-04T21:14:41+02:00*%
%TF.ProjectId,Interface_IAI,496e7465-7266-4616-9365-5f4941492e6b,rev?*%
%TF.SameCoordinates,Original*%
%TF.FileFunction,Copper,L1,Top*%
%TF.FilePolarity,Positive*%
%FSLAX46Y46*%
G04 Gerber Fmt 4.6, Leading zero omitted, Abs format (unit mm)*
G04 Created by KiCad (PCBNEW 10.0.6) date 2026-10-04 21:14:41*
%MOMM*%
%LPD*%
G01*
G04 APERTURE LIST*
G04 Aperture macros list*
%AMRoundRect*
0 Rectangle with rounded corners*
0 $1 Rounding radius*
0 $2 $3 $4 $5 $6 $7 $8 $9 X,Y pos of 4 corners*
0 Add a 4 corners polygon primitive as box body*
4,1,4,$2,$3,$4,$5,$6,$7,$8,$9,$2,$3,0*
0 Add four circle primitives for the rounded corners*
1,1,$1+$1,$2,$3*
1,1,$1+$1,$4,$5*
1,1,$1+$1,$6,$7*
1,1,$1+$1,$8,$9*
0 Add four rect primitives between the rounded corners*
20,1,$1+$1,$2,$3,$4,$5,0*
20,1,$1+$1,$4,$5,$6,$7,0*
20,1,$1+$1,$6,$7,$8,$9,0*
20,1,$1+$1,$8,$9,$2,$3,0*%
G04 Aperture macros list end*
%TA.AperFunction,ComponentPad*%
%ADD10C,2.600000*%
%TD*%
%TA.AperFunction,ComponentPad*%
%ADD11RoundRect,0.250000X1.050000X-1.050000X1.050000X1.050000X-1.050000X1.050000X-1.050000X-1.050000X0*%
%TD*%
%TA.AperFunction,ComponentPad*%
%ADD12C,1.600000*%
%TD*%
%TA.AperFunction,ComponentPad*%
%ADD13C,1.800000*%
%TD*%
%TA.AperFunction,ComponentPad*%
%ADD14R,1.800000X1.800000*%
%TD*%
%TA.AperFunction,ComponentPad*%
%ADD15RoundRect,0.250000X0.550000X0.550000X-0.550000X0.550000X-0.550000X-0.550000X0.550000X-0.550000X0*%
%TD*%
%TA.AperFunction,ComponentPad*%
%ADD16RoundRect,0.250000X-1.050000X1.050000X-1.050000X-1.050000X1.050000X-1.050000X1.050000X1.050000X0*%
%TD*%
%TA.AperFunction,ComponentPad*%
%ADD17RoundRect,0.250000X-0.550000X-0.550000X0.550000X-0.550000X0.550000X0.550000X-0.550000X0.550000X0*%
%TD*%
%TA.AperFunction,ComponentPad*%
%ADD18O,1.500000X2.500000*%
%TD*%
%TA.AperFunction,ComponentPad*%
%ADD19R,1.500000X2.500000*%
%TD*%
%TA.AperFunction,ComponentPad*%
%ADD20C,2.200000*%
%TD*%
%TA.AperFunction,ComponentPad*%
%ADD21RoundRect,0.249999X-0.850001X-0.850001X0.850001X-0.850001X0.850001X0.850001X-0.850001X0.850001X0*%
%TD*%
%TA.AperFunction,Conductor*%
%ADD22C,0.250000*%
%TD*%
%TA.AperFunction,Conductor*%
%ADD23C,1.000000*%
%TD*%
%TA.AperFunction,Conductor*%
%ADD24C,0.400000*%
%TD*%
%TA.AperFunction,Conductor*%
%ADD25C,0.200000*%
%TD*%
G04 APERTURE END LIST*
D10*
%TO.P,J6,4,Pin_4_4*%
%TO.N,GND*%
X118890000Y-56240000D03*
%TO.P,J6,3,Pin_3_3*%
%TO.N,/CNT_A*%
X118890000Y-61320000D03*
%TO.P,J6,2,Pin_2_2*%
%TO.N,/CNT_B*%
X118890000Y-66400000D03*
D11*
%TO.P,J6,1,Pin_1_1*%
%TO.N,/CNT_Z*%
X118890000Y-71480000D03*
%TD*%
D12*
%TO.P,R15,2*%
%TO.N,/DIO_SV*%
X97171374Y-146200000D03*
%TO.P,R15,1*%
%TO.N,/SCON_SV*%
X89551374Y-146200000D03*
%TD*%
%TO.P,C2,2*%
%TO.N,GND*%
X105851374Y-117980000D03*
%TO.P,C2,1*%
%TO.N,+24V*%
X100851374Y-117980000D03*
%TD*%
D10*
%TO.P,J1,2,Pin_2_2*%
%TO.N,GND*%
X118960000Y-82630000D03*
D11*
%TO.P,J1,1,Pin_1_1*%
%TO.N,+24V*%
X118960000Y-87710000D03*
%TD*%
D12*
%TO.P,R12,2*%
%TO.N,GND*%
X108921374Y-134290000D03*
%TO.P,R12,1*%
%TO.N,/DIO_RES*%
X101301374Y-134290000D03*
%TD*%
%TO.P,C1,2*%
%TO.N,GND*%
X103807500Y-93560000D03*
%TO.P,C1,1*%
%TO.N,+5V*%
X98807500Y-93560000D03*
%TD*%
%TO.P,R18,2*%
%TO.N,/DIO_ALM*%
X97381374Y-160900000D03*
%TO.P,R18,1*%
%TO.N,/SCON_ALM*%
X89761374Y-160900000D03*
%TD*%
%TO.P,R7,2*%
%TO.N,/FB_Z_N*%
X91630000Y-76330000D03*
%TO.P,R7,1*%
%TO.N,/FB_Z_P*%
X99250000Y-76330000D03*
%TD*%
%TO.P,R22,2*%
%TO.N,GND*%
X107971374Y-161000000D03*
%TO.P,R22,1*%
%TO.N,/DIO_ALM*%
X100351374Y-161000000D03*
%TD*%
D10*
%TO.P,J2,11,Pin_11_11*%
%TO.N,/DIO_PULSE*%
X119070000Y-112740000D03*
%TO.P,J2,10,Pin_10_10*%
%TO.N,/DIO_SIGN*%
X119070000Y-117820000D03*
%TO.P,J2,9,Pin_9_9*%
%TO.N,/DIO_CSTP*%
X119070000Y-122900000D03*
%TO.P,J2,8,Pin_8_8*%
%TO.N,/DIO_HOME*%
X119070000Y-127980000D03*
%TO.P,J2,7,Pin_7_7*%
%TO.N,/DIO_RES*%
X119070000Y-133060000D03*
%TO.P,J2,6,Pin_6_6*%
%TO.N,/DIO_SON*%
X119070000Y-138140000D03*
%TO.P,J2,5,Pin_5_5*%
%TO.N,/DIO_SV*%
X119070000Y-143220000D03*
%TO.P,J2,4,Pin_4_4*%
%TO.N,/DIO_INP*%
X119070000Y-148300000D03*
%TO.P,J2,3,Pin_3_3*%
%TO.N,/DIO_HEND*%
X119070000Y-153380000D03*
%TO.P,J2,2,Pin_2_2*%
%TO.N,/DIO_ALM*%
X119070000Y-158460000D03*
D11*
%TO.P,J2,1,Pin_1_1*%
%TO.N,GND*%
X119070000Y-163540000D03*
%TD*%
D12*
%TO.P,R24,2*%
%TO.N,Net-(D3-A)*%
X116781374Y-76966447D03*
%TO.P,R24,1*%
%TO.N,+5V*%
X109161374Y-76966447D03*
%TD*%
D13*
%TO.P,D3,2,A_2*%
%TO.N,Net-(D3-A)*%
X120281374Y-76996447D03*
D14*
%TO.P,D3,1,K_1*%
%TO.N,GND*%
X122821374Y-76996447D03*
%TD*%
D12*
%TO.P,U3,18,O1_18*%
%TO.N,/SCON_SON*%
X90151374Y-138420000D03*
%TO.P,U3,17,O2_17*%
%TO.N,/SCON_RES*%
X90151374Y-135880000D03*
%TO.P,U3,16,O3_16*%
%TO.N,/SCON_HOME*%
X90151374Y-133340000D03*
%TO.P,U3,15,O4_15*%
%TO.N,/SCON_CSTP*%
X90151374Y-130800000D03*
%TO.P,U3,14,O5_14*%
%TO.N,unconnected-(U3-O5-Pad14)*%
X90151374Y-128260000D03*
%TO.P,U3,13,O6_13*%
%TO.N,unconnected-(U3-O6-Pad13)*%
X90151374Y-125720000D03*
%TO.P,U3,12,O7_12*%
%TO.N,unconnected-(U3-O7-Pad12)*%
X90151374Y-123180000D03*
%TO.P,U3,11,O8_11*%
%TO.N,unconnected-(U3-O8-Pad11)*%
X90151374Y-120640000D03*
%TO.P,U3,10,GND_10*%
%TO.N,GND*%
X90151374Y-118100000D03*
%TO.P,U3,9,VCC_9*%
%TO.N,+24V*%
X97771374Y-118100000D03*
%TO.P,U3,8,I8_8*%
%TO.N,GND*%
X97771374Y-120640000D03*
%TO.P,U3,7,I7_7*%
X97771374Y-123180000D03*
%TO.P,U3,6,I6_6*%
X97771374Y-125720000D03*
%TO.P,U3,5,I5_5*%
X97771374Y-128260000D03*
%TO.P,U3,4,I4_4*%
%TO.N,/DIO_CSTP*%
X97771374Y-130800000D03*
%TO.P,U3,3,I3_3*%
%TO.N,/DIO_HOME*%
X97771374Y-133340000D03*
%TO.P,U3,2,I2_2*%
%TO.N,/DIO_RES*%
X97771374Y-135880000D03*
D15*
%TO.P,U3,1,I1_1*%
%TO.N,/DIO_SON*%
X97771374Y-138420000D03*
%TD*%
D13*
%TO.P,D2,2,A_2*%
%TO.N,Net-(D2-A)*%
X120381374Y-93396447D03*
D14*
%TO.P,D2,1,K_1*%
%TO.N,GND*%
X122921374Y-93396447D03*
%TD*%
D12*
%TO.P,R5,2*%
%TO.N,/FB_A_N*%
X87980000Y-54290000D03*
%TO.P,R5,1*%
%TO.N,/FB_A_P*%
X87980000Y-61910000D03*
%TD*%
%TO.P,R6,2*%
%TO.N,/FB_B_N*%
X87980000Y-72310000D03*
%TO.P,R6,1*%
%TO.N,/FB_B_P*%
X87980000Y-64690000D03*
%TD*%
%TO.P,R14,2*%
%TO.N,GND*%
X108831374Y-125020000D03*
%TO.P,R14,1*%
%TO.N,/DIO_CSTP*%
X101211374Y-125020000D03*
%TD*%
%TO.P,R10,2*%
%TO.N,/CNT_Z*%
X110790000Y-69200000D03*
%TO.P,R10,1*%
%TO.N,/Z_RX*%
X103170000Y-69200000D03*
%TD*%
%TO.P,R1,2*%
%TO.N,/PULSE_TTL*%
X99797500Y-97560000D03*
%TO.P,R1,1*%
%TO.N,/DIO_PULSE*%
X107417500Y-97560000D03*
%TD*%
D10*
%TO.P,J3,7,Pin_7_7*%
%TO.N,GND*%
X79580000Y-86840000D03*
%TO.P,J3,6,Pin_6_6*%
%TO.N,/FB_Z_P*%
X79580000Y-81760000D03*
%TO.P,J3,5,Pin_5_5*%
%TO.N,/FB_Z_N*%
X79580000Y-76680000D03*
%TO.P,J3,4,Pin_4_4*%
%TO.N,/FB_B_N*%
X79580000Y-71600000D03*
%TO.P,J3,3,Pin_3_3*%
%TO.N,/FB_B_P*%
X79580000Y-66520000D03*
%TO.P,J3,2,Pin_2_2*%
%TO.N,/FB_A_P*%
X79580000Y-61440000D03*
D16*
%TO.P,J3,1,Pin_1_1*%
%TO.N,/FB_A_N*%
X79580000Y-56360000D03*
%TD*%
D12*
%TO.P,R8,2*%
%TO.N,/CNT_A*%
X110850000Y-60920000D03*
%TO.P,R8,1*%
%TO.N,/A_RX*%
X103230000Y-60920000D03*
%TD*%
%TO.P,R21,2*%
%TO.N,GND*%
X107971374Y-156000000D03*
%TO.P,R21,1*%
%TO.N,/DIO_HEND*%
X100351374Y-156000000D03*
%TD*%
%TO.P,R9,2*%
%TO.N,/CNT_B*%
X110850000Y-64340000D03*
%TO.P,R9,1*%
%TO.N,/B_RX*%
X103230000Y-64340000D03*
%TD*%
%TO.P,R19,2*%
%TO.N,GND*%
X107771374Y-146200000D03*
%TO.P,R19,1*%
%TO.N,/DIO_SV*%
X100151374Y-146200000D03*
%TD*%
%TO.P,R20,2*%
%TO.N,GND*%
X108061374Y-150900000D03*
%TO.P,R20,1*%
%TO.N,/DIO_INP*%
X100441374Y-150900000D03*
%TD*%
%TO.P,C5,2*%
%TO.N,GND*%
X107081374Y-84136447D03*
%TO.P,C5,1*%
%TO.N,/VIN_REG*%
X107081374Y-86136447D03*
%TD*%
%TO.P,U2,16,VDD_16*%
%TO.N,+5V*%
X99480000Y-54860000D03*
%TO.P,U2,15,4B_15*%
%TO.N,GND*%
X99480000Y-57400000D03*
%TO.P,U2,14,4A_14*%
%TO.N,+5V*%
X99480000Y-59940000D03*
%TO.P,U2,13,4Y_13*%
%TO.N,unconnected-(U2-4Y-Pad13)*%
X99480000Y-62480000D03*
%TO.P,U2,12,~{G}_12*%
%TO.N,GND*%
X99480000Y-65020000D03*
%TO.P,U2,11,3Y_11*%
%TO.N,/Z_RX*%
X99480000Y-67560000D03*
%TO.P,U2,10,3A_10*%
%TO.N,/FB_Z_P*%
X99480000Y-70100000D03*
%TO.P,U2,9,3B_9*%
%TO.N,/FB_Z_N*%
X99480000Y-72640000D03*
%TO.P,U2,8,GND_8*%
%TO.N,GND*%
X91860000Y-72640000D03*
%TO.P,U2,7,2B_7*%
%TO.N,/FB_B_N*%
X91860000Y-70100000D03*
%TO.P,U2,6,2A_6*%
%TO.N,/FB_B_P*%
X91860000Y-67560000D03*
%TO.P,U2,5,2Y_5*%
%TO.N,/B_RX*%
X91860000Y-65020000D03*
%TO.P,U2,4,G_4*%
%TO.N,GND*%
X91860000Y-62480000D03*
%TO.P,U2,3,1Y_3*%
%TO.N,/A_RX*%
X91860000Y-59940000D03*
%TO.P,U2,2,1A_2*%
%TO.N,/FB_A_P*%
X91860000Y-57400000D03*
D17*
%TO.P,U2,1,1B_1*%
%TO.N,/FB_A_N*%
X91860000Y-54860000D03*
%TD*%
D12*
%TO.P,R16,2*%
%TO.N,/DIO_INP*%
X97371374Y-151000000D03*
%TO.P,R16,1*%
%TO.N,/SCON_INP*%
X89751374Y-151000000D03*
%TD*%
%TO.P,C4,2*%
%TO.N,GND*%
X89412500Y-88217500D03*
%TO.P,C4,1*%
%TO.N,+5V*%
X89412500Y-83217500D03*
%TD*%
%TO.P,R4,2*%
%TO.N,GND*%
X100297500Y-104440000D03*
%TO.P,R4,1*%
%TO.N,/SIGN_TTL*%
X100297500Y-112060000D03*
%TD*%
%TO.P,R17,2*%
%TO.N,/DIO_HEND*%
X97471374Y-156000000D03*
%TO.P,R17,1*%
%TO.N,/SCON_HEND*%
X89851374Y-156000000D03*
%TD*%
%TO.P,R11,2*%
%TO.N,GND*%
X108561374Y-138480000D03*
%TO.P,R11,1*%
%TO.N,/DIO_SON*%
X100941374Y-138480000D03*
%TD*%
%TO.P,C3,2*%
%TO.N,GND*%
X107480000Y-54700000D03*
%TO.P,C3,1*%
%TO.N,+5V*%
X102480000Y-54700000D03*
%TD*%
D18*
%TO.P,U4,3,Vout_3*%
%TO.N,+5V*%
X94932500Y-83717500D03*
%TO.P,U4,2,GND_2*%
%TO.N,GND*%
X97472500Y-83717500D03*
D19*
%TO.P,U4,1,Vin_1*%
%TO.N,/VIN_REG*%
X100012500Y-83717500D03*
%TD*%
D12*
%TO.P,R13,2*%
%TO.N,GND*%
X108821374Y-129510000D03*
%TO.P,R13,1*%
%TO.N,/DIO_HOME*%
X101201374Y-129510000D03*
%TD*%
%TO.P,R23,2*%
%TO.N,Net-(D2-A)*%
X117691374Y-93396447D03*
%TO.P,R23,1*%
%TO.N,+24V*%
X110071374Y-93396447D03*
%TD*%
%TO.P,R3,2*%
%TO.N,GND*%
X107417500Y-101160000D03*
%TO.P,R3,1*%
%TO.N,/PULSE_TTL*%
X99797500Y-101160000D03*
%TD*%
D10*
%TO.P,J4,4,Pin_4_4*%
%TO.N,/SIGN_P*%
X79607500Y-110120000D03*
%TO.P,J4,3,Pin_3_3*%
%TO.N,/SIGN_N*%
X79607500Y-105040000D03*
%TO.P,J4,2,Pin_2_2*%
%TO.N,/PULSE_N*%
X79607500Y-99960000D03*
D16*
%TO.P,J4,1,Pin_1_1*%
%TO.N,/PULSE_P*%
X79607500Y-94880000D03*
%TD*%
D20*
%TO.P,D1,2,A_2*%
%TO.N,+24V*%
X122761374Y-97596447D03*
D21*
%TO.P,D1,1,K_1*%
%TO.N,/VIN_REG*%
X112601374Y-97596447D03*
%TD*%
D12*
%TO.P,U1,16,VDD_16*%
%TO.N,+5V*%
X95947500Y-93650000D03*
%TO.P,U1,15,4A_15*%
%TO.N,GND*%
X95947500Y-96190000D03*
%TO.P,U1,14,4Y_14*%
%TO.N,unconnected-(U1-4Y-Pad14)*%
X95947500Y-98730000D03*
%TO.P,U1,13,4Z_13*%
%TO.N,unconnected-(U1-4Z-Pad13)*%
X95947500Y-101270000D03*
%TO.P,U1,12,~{G}_12*%
%TO.N,GND*%
X95947500Y-103810000D03*
%TO.P,U1,11,3Z_11*%
%TO.N,unconnected-(U1-3Z-Pad11)*%
X95947500Y-106350000D03*
%TO.P,U1,10,3Y_10*%
%TO.N,unconnected-(U1-3Y-Pad10)*%
X95947500Y-108890000D03*
%TO.P,U1,9,3A_9*%
%TO.N,GND*%
X95947500Y-111430000D03*
%TO.P,U1,8,GND_8*%
X88327500Y-111430000D03*
%TO.P,U1,7,2A_7*%
%TO.N,/SIGN_TTL*%
X88327500Y-108890000D03*
%TO.P,U1,6,2Y_6*%
%TO.N,/SIGN_P*%
X88327500Y-106350000D03*
%TO.P,U1,5,2Z_5*%
%TO.N,/SIGN_N*%
X88327500Y-103810000D03*
%TO.P,U1,4,G_4*%
%TO.N,GND*%
X88327500Y-101270000D03*
%TO.P,U1,3,1Z_3*%
%TO.N,/PULSE_N*%
X88327500Y-98730000D03*
%TO.P,U1,2,1Y_2*%
%TO.N,/PULSE_P*%
X88327500Y-96190000D03*
D17*
%TO.P,U1,1,1A_1*%
%TO.N,/PULSE_TTL*%
X88327500Y-93650000D03*
%TD*%
D10*
%TO.P,J5,10,Pin_10_10*%
%TO.N,/SCON_ALM*%
X79680000Y-163540000D03*
%TO.P,J5,9,Pin_9_9*%
%TO.N,/SCON_HEND*%
X79680000Y-158460000D03*
%TO.P,J5,8,Pin_8_8*%
%TO.N,/SCON_INP*%
X79680000Y-153380000D03*
%TO.P,J5,7,Pin_7_7*%
%TO.N,/SCON_SV*%
X79680000Y-148300000D03*
%TO.P,J5,6,Pin_6_6*%
%TO.N,/SCON_SON*%
X79680000Y-143220000D03*
%TO.P,J5,5,Pin_5_5*%
%TO.N,/SCON_RES*%
X79680000Y-138140000D03*
%TO.P,J5,4,Pin_4_4*%
%TO.N,/SCON_HOME*%
X79680000Y-133060000D03*
%TO.P,J5,3,Pin_3_3*%
%TO.N,/SCON_CSTP*%
X79680000Y-127980000D03*
%TO.P,J5,2,Pin_2_2*%
%TO.N,GND*%
X79680000Y-122900000D03*
D16*
%TO.P,J5,1,Pin_1_1*%
%TO.N,+24V*%
X79680000Y-117820000D03*
%TD*%
D12*
%TO.P,R2,2*%
%TO.N,/SIGN_TTL*%
X103607500Y-112070000D03*
%TO.P,R2,1*%
%TO.N,/DIO_SIGN*%
X103607500Y-104450000D03*
%TD*%
%TO.N,/CNT_Z*%
D22*
X113070000Y-71480000D02*
X110790000Y-69200000D01*
X118890000Y-71480000D02*
X113070000Y-71480000D01*
%TO.N,/CNT_B*%
X118890000Y-66400000D02*
X116830000Y-64340000D01*
X116830000Y-64340000D02*
X110850000Y-64340000D01*
%TO.N,/CNT_A*%
X110850000Y-60920000D02*
X118490000Y-60920000D01*
X118490000Y-60920000D02*
X118890000Y-61320000D01*
%TO.N,/SCON_SV*%
X79680000Y-148300000D02*
X81780000Y-146200000D01*
X81780000Y-146200000D02*
X89551374Y-146200000D01*
%TO.N,/DIO_SV*%
X97171374Y-146200000D02*
X100151374Y-146200000D01*
X119070000Y-143220000D02*
X103131374Y-143220000D01*
X103131374Y-143220000D02*
X100151374Y-146200000D01*
%TO.N,+24V*%
D23*
X82300000Y-117820000D02*
X79680000Y-117820000D01*
X84880000Y-115240000D02*
X82300000Y-117820000D01*
X102591374Y-117980000D02*
X104911374Y-120300000D01*
X97891374Y-117980000D02*
X97771374Y-118100000D01*
X122761374Y-118568626D02*
X122761374Y-97596447D01*
X91830000Y-115240000D02*
X84880000Y-115240000D01*
X121030000Y-120300000D02*
X122761374Y-118568626D01*
X122761374Y-97596447D02*
X117473553Y-97596447D01*
X110071374Y-93396447D02*
X113273553Y-93396447D01*
X100851374Y-117980000D02*
X102591374Y-117980000D01*
X100851374Y-117980000D02*
X97891374Y-117980000D01*
X94690000Y-118100000D02*
X97771374Y-118100000D01*
X117473553Y-97596447D02*
X113273553Y-93396447D01*
X113273553Y-93396447D02*
X118960000Y-87710000D01*
X104911374Y-120300000D02*
X121030000Y-120300000D01*
X94690000Y-118100000D02*
X91830000Y-115240000D01*
%TO.N,/DIO_RES*%
D22*
X99711374Y-135880000D02*
X101301374Y-134290000D01*
X117550000Y-131540000D02*
X104051374Y-131540000D01*
X119070000Y-133060000D02*
X117550000Y-131540000D01*
X97771374Y-135880000D02*
X99711374Y-135880000D01*
X104051374Y-131540000D02*
X101301374Y-134290000D01*
%TO.N,+5V*%
D23*
X102320000Y-54860000D02*
X102480000Y-54700000D01*
X105430000Y-76220000D02*
X106176447Y-76966447D01*
X102480000Y-56330000D02*
X102480000Y-54700000D01*
X94432500Y-83217500D02*
X94932500Y-83717500D01*
X95947500Y-85202500D02*
X95947500Y-93650000D01*
X99480000Y-54860000D02*
X102320000Y-54860000D01*
X105430000Y-76220000D02*
X105430000Y-59280000D01*
X106176447Y-76966447D02*
X109161374Y-76966447D01*
X102480000Y-54700000D02*
X102480000Y-56940000D01*
X102540000Y-79110000D02*
X105430000Y-76220000D01*
X94932500Y-84187500D02*
X95947500Y-85202500D01*
X89412500Y-83217500D02*
X94432500Y-83217500D01*
D24*
X98807500Y-93560000D02*
X96037500Y-93560000D01*
D23*
X94932500Y-82607500D02*
X98430000Y-79110000D01*
X105430000Y-59280000D02*
X102480000Y-56330000D01*
X94932500Y-83717500D02*
X94932500Y-84187500D01*
X102480000Y-56940000D02*
X99480000Y-59940000D01*
D24*
X96037500Y-93560000D02*
X95947500Y-93650000D01*
D23*
X94932500Y-83717500D02*
X94932500Y-82607500D01*
X98430000Y-79110000D02*
X102540000Y-79110000D01*
%TO.N,/SCON_ALM*%
D22*
X82320000Y-160900000D02*
X89761374Y-160900000D01*
X79680000Y-163540000D02*
X82320000Y-160900000D01*
%TO.N,/DIO_ALM*%
X119070000Y-158460000D02*
X102891374Y-158460000D01*
X102891374Y-158460000D02*
X100351374Y-161000000D01*
X97381374Y-160900000D02*
X100251374Y-160900000D01*
X100251374Y-160900000D02*
X100351374Y-161000000D01*
%TO.N,/FB_Z_P*%
D25*
X99250000Y-76330000D02*
X101500000Y-74080000D01*
X101500000Y-74080000D02*
X101500000Y-70750000D01*
X101490000Y-70750000D02*
X100840000Y-70100000D01*
X79580000Y-81760000D02*
X81895000Y-79445000D01*
X100840000Y-70100000D02*
X99480000Y-70100000D01*
X96135000Y-79445000D02*
X99250000Y-76330000D01*
X101500000Y-70750000D02*
X101490000Y-70750000D01*
X81895000Y-79445000D02*
X96135000Y-79445000D01*
%TO.N,/FB_Z_N*%
X95790000Y-76330000D02*
X99480000Y-72640000D01*
X91630000Y-76330000D02*
X95790000Y-76330000D01*
X81895000Y-78995000D02*
X88965000Y-78995000D01*
X88965000Y-78995000D02*
X91630000Y-76330000D01*
X79580000Y-76680000D02*
X81895000Y-78995000D01*
%TO.N,/DIO_HEND*%
D22*
X97471374Y-156000000D02*
X100351374Y-156000000D01*
X102971374Y-153380000D02*
X100351374Y-156000000D01*
X119070000Y-153380000D02*
X102971374Y-153380000D01*
%TO.N,/DIO_INP*%
X103041374Y-148300000D02*
X100441374Y-150900000D01*
X119070000Y-148300000D02*
X103041374Y-148300000D01*
X97371374Y-151000000D02*
X100341374Y-151000000D01*
X100341374Y-151000000D02*
X100441374Y-150900000D01*
%TO.N,/DIO_SON*%
X119070000Y-138140000D02*
X117610000Y-136680000D01*
X100941374Y-138480000D02*
X97831374Y-138480000D01*
X117610000Y-136680000D02*
X102741374Y-136680000D01*
X97831374Y-138480000D02*
X97771374Y-138420000D01*
X102741374Y-136680000D02*
X100941374Y-138480000D01*
%TO.N,/DIO_HOME*%
X102731374Y-127980000D02*
X101201374Y-129510000D01*
X97771374Y-133340000D02*
X101201374Y-129910000D01*
X119070000Y-127980000D02*
X102731374Y-127980000D01*
X101201374Y-129910000D02*
X101201374Y-129510000D01*
%TO.N,/DIO_CSTP*%
X101211374Y-127360000D02*
X97771374Y-130800000D01*
X103331374Y-122900000D02*
X101211374Y-125020000D01*
X101211374Y-125020000D02*
X101211374Y-127360000D01*
X119070000Y-122900000D02*
X103331374Y-122900000D01*
%TO.N,/DIO_SIGN*%
X103607500Y-104450000D02*
X105700000Y-104450000D01*
X105700000Y-104450000D02*
X119070000Y-117820000D01*
%TO.N,/DIO_PULSE*%
X107417500Y-97560000D02*
X119070000Y-109212500D01*
X119070000Y-109212500D02*
X119070000Y-112740000D01*
%TO.N,Net-(D3-A)*%
D23*
X116781374Y-76966447D02*
X120251374Y-76966447D01*
X120251374Y-76966447D02*
X120281374Y-76996447D01*
%TO.N,/SCON_CSTP*%
D22*
X82500000Y-130800000D02*
X90151374Y-130800000D01*
X79680000Y-127980000D02*
X82500000Y-130800000D01*
%TO.N,/SCON_HOME*%
X79960000Y-133340000D02*
X79680000Y-133060000D01*
X89871374Y-133060000D02*
X90151374Y-133340000D01*
X90151374Y-133340000D02*
X79960000Y-133340000D01*
%TO.N,/SCON_RES*%
X81940000Y-135880000D02*
X90151374Y-135880000D01*
X79680000Y-138140000D02*
X81940000Y-135880000D01*
%TO.N,/SCON_SON*%
X84480000Y-138420000D02*
X90151374Y-138420000D01*
X79680000Y-143220000D02*
X84480000Y-138420000D01*
%TO.N,Net-(D2-A)*%
D23*
X117691374Y-93396447D02*
X120381374Y-93396447D01*
%TO.N,/FB_A_P*%
D25*
X91860000Y-57400000D02*
X91860000Y-57533603D01*
X81895000Y-59125000D02*
X86530000Y-59125000D01*
X87510000Y-61440000D02*
X87980000Y-61910000D01*
X79580000Y-61440000D02*
X81895000Y-59125000D01*
X87980000Y-61280000D02*
X87980000Y-61910000D01*
X86530000Y-59125000D02*
X87980000Y-60575000D01*
X87980000Y-60575000D02*
X87980000Y-61910000D01*
X91860000Y-57533603D02*
X91881397Y-57555000D01*
X91860000Y-57400000D02*
X87980000Y-61280000D01*
%TO.N,/FB_A_N*%
X81895000Y-58675000D02*
X86530000Y-58675000D01*
X91860000Y-54860000D02*
X88550000Y-54860000D01*
X87980000Y-57225000D02*
X87980000Y-54290000D01*
X79580000Y-56360000D02*
X81895000Y-58675000D01*
X88550000Y-54860000D02*
X87980000Y-54290000D01*
X86530000Y-58675000D02*
X87980000Y-57225000D01*
%TO.N,/FB_B_P*%
X91860000Y-67560000D02*
X88990000Y-64690000D01*
X88990000Y-64690000D02*
X87980000Y-64690000D01*
X79580000Y-66520000D02*
X81895000Y-68835000D01*
X81895000Y-68835000D02*
X86590000Y-68835000D01*
X87980000Y-67445000D02*
X87980000Y-64690000D01*
X86590000Y-68835000D02*
X87980000Y-67445000D01*
%TO.N,/FB_B_N*%
X86590000Y-69285000D02*
X87980000Y-70675000D01*
X79580000Y-71600000D02*
X81895000Y-69285000D01*
X87980000Y-72310000D02*
X89650000Y-72310000D01*
X87980000Y-70675000D02*
X87980000Y-72310000D01*
X89650000Y-72310000D02*
X91860000Y-70100000D01*
X81895000Y-69285000D02*
X86590000Y-69285000D01*
%TO.N,/Z_RX*%
D22*
X103170000Y-69200000D02*
X101120000Y-69200000D01*
X101120000Y-69200000D02*
X99480000Y-67560000D01*
%TO.N,/PULSE_TTL*%
X90740000Y-93650000D02*
X88327500Y-93650000D01*
X99797500Y-101160000D02*
X99797500Y-97560000D01*
X99797500Y-97560000D02*
X97570000Y-97560000D01*
X97420000Y-97410000D02*
X94500000Y-97410000D01*
X97570000Y-97560000D02*
X97420000Y-97410000D01*
X94500000Y-97410000D02*
X90740000Y-93650000D01*
%TO.N,/A_RX*%
X100900000Y-60920000D02*
X100620000Y-61200000D01*
X98010000Y-61200000D02*
X96750000Y-59940000D01*
X96750000Y-59940000D02*
X91860000Y-59940000D01*
X103230000Y-60920000D02*
X100900000Y-60920000D01*
X100620000Y-61200000D02*
X98010000Y-61200000D01*
%TO.N,/B_RX*%
X91860000Y-65020000D02*
X96640000Y-65020000D01*
X96640000Y-65020000D02*
X97980000Y-63680000D01*
X97980000Y-63680000D02*
X100110000Y-63680000D01*
X100110000Y-63680000D02*
X100770000Y-64340000D01*
X100770000Y-64340000D02*
X103230000Y-64340000D01*
%TO.N,/VIN_REG*%
D23*
X112601374Y-97596447D02*
X110881374Y-97596447D01*
X107081374Y-93796447D02*
X107081374Y-86136447D01*
X102431447Y-86136447D02*
X100012500Y-83717500D01*
X102431447Y-86136447D02*
X107081374Y-86136447D01*
X110881374Y-97596447D02*
X107081374Y-93796447D01*
%TO.N,/SCON_INP*%
D22*
X82060000Y-151000000D02*
X89751374Y-151000000D01*
X79680000Y-153380000D02*
X82060000Y-151000000D01*
%TO.N,/SIGN_TTL*%
X92780000Y-108890000D02*
X88327500Y-108890000D01*
X103597500Y-112060000D02*
X103607500Y-112070000D01*
X100297500Y-112060000D02*
X103597500Y-112060000D01*
X99140000Y-112060000D02*
X97210000Y-110130000D01*
X94020000Y-110130000D02*
X92780000Y-108890000D01*
X97210000Y-110130000D02*
X94020000Y-110130000D01*
X100297500Y-112060000D02*
X99140000Y-112060000D01*
%TO.N,/SCON_HEND*%
X79680000Y-158460000D02*
X82140000Y-156000000D01*
X82140000Y-156000000D02*
X89851374Y-156000000D01*
%TO.N,/PULSE_P*%
D25*
X88327500Y-96190000D02*
X85007501Y-99509999D01*
X85007501Y-99509999D02*
X84237499Y-99509999D01*
X84237499Y-99509999D02*
X79607500Y-94880000D01*
%TO.N,/PULSE_N*%
X88327500Y-98730000D02*
X86423897Y-98730000D01*
X86423897Y-98730000D02*
X85193897Y-99960000D01*
X85193897Y-99960000D02*
X79607500Y-99960000D01*
%TO.N,/SIGN_N*%
X88327500Y-103810000D02*
X87282501Y-104854999D01*
X87282501Y-104854999D02*
X84236104Y-104854999D01*
X84051103Y-105040000D02*
X79607500Y-105040000D01*
X84236104Y-104854999D02*
X84051103Y-105040000D01*
%TO.N,/SIGN_P*%
X84422499Y-105305001D02*
X79607500Y-110120000D01*
X88327500Y-106350000D02*
X87282501Y-105305001D01*
X87282501Y-105305001D02*
X84422499Y-105305001D01*
%TD*%
M02*
