M48
; DRILL file KiCad 10.0.6 date 2026-10-04T20:59:18
; FORMAT={-:-/ absolute / metric / decimal}
; #@! TF.CreationDate,2026-10-04T20:59:18+02:00
; #@! TF.GenerationSoftware,Kicad,Pcbnew,10.0.6
; #@! TF.FileFunction,Plated,1,2,PTH
FMAT,2
METRIC
; #@! TA.AperFunction,Plated,PTH,ComponentDrill
T1C0.800
; #@! TA.AperFunction,Plated,PTH,ComponentDrill
T2C0.900
; #@! TA.AperFunction,Plated,PTH,ComponentDrill
T3C1.000
; #@! TA.AperFunction,Plated,PTH,ComponentDrill
T4C1.100
; #@! TA.AperFunction,Plated,PTH,ComponentDrill
T5C1.300
%
G90
G05
T1
X88.099Y-53.714
X88.099Y-61.334
X88.099Y-64.114
X88.099Y-71.734
X88.446Y-93.074
X88.446Y-95.614
X88.446Y-98.154
X88.446Y-100.694
X88.446Y-103.234
X88.446Y-105.774
X88.446Y-108.314
X88.446Y-110.854
X89.531Y-82.642
X89.531Y-87.642
X89.67Y-145.624
X89.87Y-150.424
X89.88Y-160.324
X89.97Y-155.424
X90.27Y-117.524
X90.27Y-120.064
X90.27Y-122.604
X90.27Y-125.144
X90.27Y-127.684
X90.27Y-130.224
X90.27Y-132.764
X90.27Y-135.304
X90.27Y-137.844
X91.749Y-75.754
X91.979Y-54.284
X91.979Y-56.824
X91.979Y-59.364
X91.979Y-61.904
X91.979Y-64.444
X91.979Y-66.984
X91.979Y-69.524
X91.979Y-72.064
X96.066Y-93.074
X96.066Y-95.614
X96.066Y-98.154
X96.066Y-100.694
X96.066Y-103.234
X96.066Y-105.774
X96.066Y-108.314
X96.066Y-110.854
X97.29Y-145.624
X97.49Y-150.424
X97.5Y-160.324
X97.59Y-155.424
X97.89Y-117.524
X97.89Y-120.064
X97.89Y-122.604
X97.89Y-125.144
X97.89Y-127.684
X97.89Y-130.224
X97.89Y-132.764
X97.89Y-135.304
X97.89Y-137.844
X98.926Y-92.984
X99.369Y-75.754
X99.599Y-54.284
X99.599Y-56.824
X99.599Y-59.364
X99.599Y-61.904
X99.599Y-64.444
X99.599Y-66.984
X99.599Y-69.524
X99.599Y-72.064
X99.916Y-96.984
X99.916Y-100.584
X100.27Y-145.624
X100.416Y-103.864
X100.416Y-111.484
X100.47Y-155.424
X100.47Y-160.424
X100.56Y-150.324
X100.97Y-117.404
X101.06Y-137.904
X101.32Y-128.934
X101.33Y-124.444
X101.42Y-133.714
X102.599Y-54.124
X103.289Y-68.624
X103.349Y-60.344
X103.349Y-63.764
X103.726Y-103.874
X103.726Y-111.494
X103.926Y-92.984
X105.97Y-117.404
X107.2Y-83.561
X107.2Y-85.561
X107.536Y-96.984
X107.536Y-100.584
X107.599Y-54.124
X107.89Y-145.624
X108.09Y-155.424
X108.09Y-160.424
X108.18Y-150.324
X108.68Y-137.904
X108.94Y-128.934
X108.95Y-124.444
X109.04Y-133.714
X109.28Y-76.391
X110.19Y-92.821
X110.909Y-68.624
X110.969Y-60.344
X110.969Y-63.764
X116.9Y-76.391
X117.81Y-92.821
T2
X120.4Y-76.421
X120.5Y-92.821
X122.94Y-76.421
X123.04Y-92.821
T3
X95.051Y-83.142
X97.591Y-83.142
X100.131Y-83.142
T4
X112.72Y-97.021
X122.88Y-97.021
T5
X79.699Y-55.784
X79.699Y-60.864
X79.699Y-65.944
X79.699Y-71.024
X79.699Y-76.104
X79.699Y-81.184
X79.699Y-86.264
X79.726Y-94.304
X79.726Y-99.384
X79.726Y-104.464
X79.726Y-109.544
X79.799Y-117.244
X79.799Y-122.324
X79.799Y-127.404
X79.799Y-132.484
X79.799Y-137.564
X79.799Y-142.644
X79.799Y-147.724
X79.799Y-152.804
X79.799Y-157.884
X79.799Y-162.964
X119.009Y-55.664
X119.009Y-60.744
X119.009Y-65.824
X119.009Y-70.904
X119.079Y-82.054
X119.079Y-87.134
X119.189Y-112.164
X119.189Y-117.244
X119.189Y-122.324
X119.189Y-127.404
X119.189Y-132.484
X119.189Y-137.564
X119.189Y-142.644
X119.189Y-147.724
X119.189Y-152.804
X119.189Y-157.884
X119.189Y-162.964
M30
