%TF.GenerationSoftware,KiCad,Pcbnew,10.0.6*%
%TF.CreationDate,2026-10-04T15:00:48+02:00*%
%TF.ProjectId,Interface_IAI,496e7465-7266-4616-9365-5f4941492e6b,rev?*%
%TF.SameCoordinates,Original*%
%TF.FileFunction,Legend,Top*%
%TF.FilePolarity,Positive*%
%FSLAX46Y46*%
G04 Gerber Fmt 4.6, Leading zero omitted, Abs format (unit mm)*
G04 Created by KiCad (PCBNEW 10.0.6) date 2026-10-04 15:00:48*
%MOMM*%
%LPD*%
G01*
G04 APERTURE LIST*
%ADD10C,0.100000*%
%ADD11C,0.150000*%
%ADD12C,0.120000*%
G04 APERTURE END LIST*
D10*
X55448323Y-56565383D02*
X55448323Y-56184430D01*
X55676895Y-56641573D02*
X54876895Y-56374906D01*
X54876895Y-56374906D02*
X55676895Y-56108240D01*
X55753085Y-56032050D02*
X55753085Y-55422526D01*
X55676895Y-55232049D02*
X54876895Y-55232049D01*
X54876895Y-55232049D02*
X55676895Y-54774906D01*
X55676895Y-54774906D02*
X54876895Y-54774906D01*
X55508323Y-61785383D02*
X55508323Y-61404430D01*
X55736895Y-61861573D02*
X54936895Y-61594906D01*
X54936895Y-61594906D02*
X55736895Y-61328240D01*
X55813085Y-61252050D02*
X55813085Y-60642526D01*
X55736895Y-60452049D02*
X54936895Y-60452049D01*
X54936895Y-60452049D02*
X54936895Y-60147287D01*
X54936895Y-60147287D02*
X54974990Y-60071097D01*
X54974990Y-60071097D02*
X55013085Y-60033002D01*
X55013085Y-60033002D02*
X55089276Y-59994906D01*
X55089276Y-59994906D02*
X55203561Y-59994906D01*
X55203561Y-59994906D02*
X55279752Y-60033002D01*
X55279752Y-60033002D02*
X55317847Y-60071097D01*
X55317847Y-60071097D02*
X55355942Y-60147287D01*
X55355942Y-60147287D02*
X55355942Y-60452049D01*
X55317847Y-66680621D02*
X55355942Y-66566335D01*
X55355942Y-66566335D02*
X55394038Y-66528240D01*
X55394038Y-66528240D02*
X55470228Y-66490144D01*
X55470228Y-66490144D02*
X55584514Y-66490144D01*
X55584514Y-66490144D02*
X55660704Y-66528240D01*
X55660704Y-66528240D02*
X55698800Y-66566335D01*
X55698800Y-66566335D02*
X55736895Y-66642525D01*
X55736895Y-66642525D02*
X55736895Y-66947287D01*
X55736895Y-66947287D02*
X54936895Y-66947287D01*
X54936895Y-66947287D02*
X54936895Y-66680621D01*
X54936895Y-66680621D02*
X54974990Y-66604430D01*
X54974990Y-66604430D02*
X55013085Y-66566335D01*
X55013085Y-66566335D02*
X55089276Y-66528240D01*
X55089276Y-66528240D02*
X55165466Y-66528240D01*
X55165466Y-66528240D02*
X55241657Y-66566335D01*
X55241657Y-66566335D02*
X55279752Y-66604430D01*
X55279752Y-66604430D02*
X55317847Y-66680621D01*
X55317847Y-66680621D02*
X55317847Y-66947287D01*
X55813085Y-66337764D02*
X55813085Y-65728240D01*
X55736895Y-65537763D02*
X54936895Y-65537763D01*
X54936895Y-65537763D02*
X54936895Y-65233001D01*
X54936895Y-65233001D02*
X54974990Y-65156811D01*
X54974990Y-65156811D02*
X55013085Y-65118716D01*
X55013085Y-65118716D02*
X55089276Y-65080620D01*
X55089276Y-65080620D02*
X55203561Y-65080620D01*
X55203561Y-65080620D02*
X55279752Y-65118716D01*
X55279752Y-65118716D02*
X55317847Y-65156811D01*
X55317847Y-65156811D02*
X55355942Y-65233001D01*
X55355942Y-65233001D02*
X55355942Y-65537763D01*
X55317847Y-71380621D02*
X55355942Y-71266335D01*
X55355942Y-71266335D02*
X55394038Y-71228240D01*
X55394038Y-71228240D02*
X55470228Y-71190144D01*
X55470228Y-71190144D02*
X55584514Y-71190144D01*
X55584514Y-71190144D02*
X55660704Y-71228240D01*
X55660704Y-71228240D02*
X55698800Y-71266335D01*
X55698800Y-71266335D02*
X55736895Y-71342525D01*
X55736895Y-71342525D02*
X55736895Y-71647287D01*
X55736895Y-71647287D02*
X54936895Y-71647287D01*
X54936895Y-71647287D02*
X54936895Y-71380621D01*
X54936895Y-71380621D02*
X54974990Y-71304430D01*
X54974990Y-71304430D02*
X55013085Y-71266335D01*
X55013085Y-71266335D02*
X55089276Y-71228240D01*
X55089276Y-71228240D02*
X55165466Y-71228240D01*
X55165466Y-71228240D02*
X55241657Y-71266335D01*
X55241657Y-71266335D02*
X55279752Y-71304430D01*
X55279752Y-71304430D02*
X55317847Y-71380621D01*
X55317847Y-71380621D02*
X55317847Y-71647287D01*
X55813085Y-71037764D02*
X55813085Y-70428240D01*
X55736895Y-70237763D02*
X54936895Y-70237763D01*
X54936895Y-70237763D02*
X55736895Y-69780620D01*
X55736895Y-69780620D02*
X54936895Y-69780620D01*
X54936895Y-77323478D02*
X54936895Y-76790144D01*
X54936895Y-76790144D02*
X55736895Y-77323478D01*
X55736895Y-77323478D02*
X55736895Y-76790144D01*
X55813085Y-76675859D02*
X55813085Y-76066335D01*
X55736895Y-75875858D02*
X54936895Y-75875858D01*
X54936895Y-75875858D02*
X55736895Y-75418715D01*
X55736895Y-75418715D02*
X54936895Y-75418715D01*
X54936895Y-81923478D02*
X54936895Y-81390144D01*
X54936895Y-81390144D02*
X55736895Y-81923478D01*
X55736895Y-81923478D02*
X55736895Y-81390144D01*
X55813085Y-81275859D02*
X55813085Y-80666335D01*
X55736895Y-80475858D02*
X54936895Y-80475858D01*
X54936895Y-80475858D02*
X54936895Y-80171096D01*
X54936895Y-80171096D02*
X54974990Y-80094906D01*
X54974990Y-80094906D02*
X55013085Y-80056811D01*
X55013085Y-80056811D02*
X55089276Y-80018715D01*
X55089276Y-80018715D02*
X55203561Y-80018715D01*
X55203561Y-80018715D02*
X55279752Y-80056811D01*
X55279752Y-80056811D02*
X55317847Y-80094906D01*
X55317847Y-80094906D02*
X55355942Y-80171096D01*
X55355942Y-80171096D02*
X55355942Y-80475858D01*
X54974990Y-86828240D02*
X54936895Y-86904430D01*
X54936895Y-86904430D02*
X54936895Y-87018716D01*
X54936895Y-87018716D02*
X54974990Y-87133002D01*
X54974990Y-87133002D02*
X55051180Y-87209192D01*
X55051180Y-87209192D02*
X55127371Y-87247287D01*
X55127371Y-87247287D02*
X55279752Y-87285383D01*
X55279752Y-87285383D02*
X55394038Y-87285383D01*
X55394038Y-87285383D02*
X55546419Y-87247287D01*
X55546419Y-87247287D02*
X55622609Y-87209192D01*
X55622609Y-87209192D02*
X55698800Y-87133002D01*
X55698800Y-87133002D02*
X55736895Y-87018716D01*
X55736895Y-87018716D02*
X55736895Y-86942525D01*
X55736895Y-86942525D02*
X55698800Y-86828240D01*
X55698800Y-86828240D02*
X55660704Y-86790144D01*
X55660704Y-86790144D02*
X55394038Y-86790144D01*
X55394038Y-86790144D02*
X55394038Y-86942525D01*
X55736895Y-86447287D02*
X54936895Y-86447287D01*
X54936895Y-86447287D02*
X55736895Y-85990144D01*
X55736895Y-85990144D02*
X54936895Y-85990144D01*
X55736895Y-85609192D02*
X54936895Y-85609192D01*
X54936895Y-85609192D02*
X54936895Y-85418716D01*
X54936895Y-85418716D02*
X54974990Y-85304430D01*
X54974990Y-85304430D02*
X55051180Y-85228240D01*
X55051180Y-85228240D02*
X55127371Y-85190145D01*
X55127371Y-85190145D02*
X55279752Y-85152049D01*
X55279752Y-85152049D02*
X55394038Y-85152049D01*
X55394038Y-85152049D02*
X55546419Y-85190145D01*
X55546419Y-85190145D02*
X55622609Y-85228240D01*
X55622609Y-85228240D02*
X55698800Y-85304430D01*
X55698800Y-85304430D02*
X55736895Y-85418716D01*
X55736895Y-85418716D02*
X55736895Y-85609192D01*
X55736895Y-95647287D02*
X54936895Y-95647287D01*
X54936895Y-95647287D02*
X54936895Y-95342525D01*
X54936895Y-95342525D02*
X54974990Y-95266335D01*
X54974990Y-95266335D02*
X55013085Y-95228240D01*
X55013085Y-95228240D02*
X55089276Y-95190144D01*
X55089276Y-95190144D02*
X55203561Y-95190144D01*
X55203561Y-95190144D02*
X55279752Y-95228240D01*
X55279752Y-95228240D02*
X55317847Y-95266335D01*
X55317847Y-95266335D02*
X55355942Y-95342525D01*
X55355942Y-95342525D02*
X55355942Y-95647287D01*
X54936895Y-94847287D02*
X55584514Y-94847287D01*
X55584514Y-94847287D02*
X55660704Y-94809192D01*
X55660704Y-94809192D02*
X55698800Y-94771097D01*
X55698800Y-94771097D02*
X55736895Y-94694906D01*
X55736895Y-94694906D02*
X55736895Y-94542525D01*
X55736895Y-94542525D02*
X55698800Y-94466335D01*
X55698800Y-94466335D02*
X55660704Y-94428240D01*
X55660704Y-94428240D02*
X55584514Y-94390144D01*
X55584514Y-94390144D02*
X54936895Y-94390144D01*
X55736895Y-93628240D02*
X55736895Y-94009192D01*
X55736895Y-94009192D02*
X54936895Y-94009192D01*
X55698800Y-93399669D02*
X55736895Y-93285383D01*
X55736895Y-93285383D02*
X55736895Y-93094907D01*
X55736895Y-93094907D02*
X55698800Y-93018716D01*
X55698800Y-93018716D02*
X55660704Y-92980621D01*
X55660704Y-92980621D02*
X55584514Y-92942526D01*
X55584514Y-92942526D02*
X55508323Y-92942526D01*
X55508323Y-92942526D02*
X55432133Y-92980621D01*
X55432133Y-92980621D02*
X55394038Y-93018716D01*
X55394038Y-93018716D02*
X55355942Y-93094907D01*
X55355942Y-93094907D02*
X55317847Y-93247288D01*
X55317847Y-93247288D02*
X55279752Y-93323478D01*
X55279752Y-93323478D02*
X55241657Y-93361573D01*
X55241657Y-93361573D02*
X55165466Y-93399669D01*
X55165466Y-93399669D02*
X55089276Y-93399669D01*
X55089276Y-93399669D02*
X55013085Y-93361573D01*
X55013085Y-93361573D02*
X54974990Y-93323478D01*
X54974990Y-93323478D02*
X54936895Y-93247288D01*
X54936895Y-93247288D02*
X54936895Y-93056811D01*
X54936895Y-93056811D02*
X54974990Y-92942526D01*
X55317847Y-92599668D02*
X55317847Y-92333002D01*
X55736895Y-92218716D02*
X55736895Y-92599668D01*
X55736895Y-92599668D02*
X54936895Y-92599668D01*
X54936895Y-92599668D02*
X54936895Y-92218716D01*
X55813085Y-92066335D02*
X55813085Y-91456811D01*
X55736895Y-91266334D02*
X54936895Y-91266334D01*
X54936895Y-91266334D02*
X54936895Y-90961572D01*
X54936895Y-90961572D02*
X54974990Y-90885382D01*
X54974990Y-90885382D02*
X55013085Y-90847287D01*
X55013085Y-90847287D02*
X55089276Y-90809191D01*
X55089276Y-90809191D02*
X55203561Y-90809191D01*
X55203561Y-90809191D02*
X55279752Y-90847287D01*
X55279752Y-90847287D02*
X55317847Y-90885382D01*
X55317847Y-90885382D02*
X55355942Y-90961572D01*
X55355942Y-90961572D02*
X55355942Y-91266334D01*
X55736895Y-101547287D02*
X54936895Y-101547287D01*
X54936895Y-101547287D02*
X54936895Y-101242525D01*
X54936895Y-101242525D02*
X54974990Y-101166335D01*
X54974990Y-101166335D02*
X55013085Y-101128240D01*
X55013085Y-101128240D02*
X55089276Y-101090144D01*
X55089276Y-101090144D02*
X55203561Y-101090144D01*
X55203561Y-101090144D02*
X55279752Y-101128240D01*
X55279752Y-101128240D02*
X55317847Y-101166335D01*
X55317847Y-101166335D02*
X55355942Y-101242525D01*
X55355942Y-101242525D02*
X55355942Y-101547287D01*
X54936895Y-100747287D02*
X55584514Y-100747287D01*
X55584514Y-100747287D02*
X55660704Y-100709192D01*
X55660704Y-100709192D02*
X55698800Y-100671097D01*
X55698800Y-100671097D02*
X55736895Y-100594906D01*
X55736895Y-100594906D02*
X55736895Y-100442525D01*
X55736895Y-100442525D02*
X55698800Y-100366335D01*
X55698800Y-100366335D02*
X55660704Y-100328240D01*
X55660704Y-100328240D02*
X55584514Y-100290144D01*
X55584514Y-100290144D02*
X54936895Y-100290144D01*
X55736895Y-99528240D02*
X55736895Y-99909192D01*
X55736895Y-99909192D02*
X54936895Y-99909192D01*
X55698800Y-99299669D02*
X55736895Y-99185383D01*
X55736895Y-99185383D02*
X55736895Y-98994907D01*
X55736895Y-98994907D02*
X55698800Y-98918716D01*
X55698800Y-98918716D02*
X55660704Y-98880621D01*
X55660704Y-98880621D02*
X55584514Y-98842526D01*
X55584514Y-98842526D02*
X55508323Y-98842526D01*
X55508323Y-98842526D02*
X55432133Y-98880621D01*
X55432133Y-98880621D02*
X55394038Y-98918716D01*
X55394038Y-98918716D02*
X55355942Y-98994907D01*
X55355942Y-98994907D02*
X55317847Y-99147288D01*
X55317847Y-99147288D02*
X55279752Y-99223478D01*
X55279752Y-99223478D02*
X55241657Y-99261573D01*
X55241657Y-99261573D02*
X55165466Y-99299669D01*
X55165466Y-99299669D02*
X55089276Y-99299669D01*
X55089276Y-99299669D02*
X55013085Y-99261573D01*
X55013085Y-99261573D02*
X54974990Y-99223478D01*
X54974990Y-99223478D02*
X54936895Y-99147288D01*
X54936895Y-99147288D02*
X54936895Y-98956811D01*
X54936895Y-98956811D02*
X54974990Y-98842526D01*
X55317847Y-98499668D02*
X55317847Y-98233002D01*
X55736895Y-98118716D02*
X55736895Y-98499668D01*
X55736895Y-98499668D02*
X54936895Y-98499668D01*
X54936895Y-98499668D02*
X54936895Y-98118716D01*
X55813085Y-97966335D02*
X55813085Y-97356811D01*
X55736895Y-97166334D02*
X54936895Y-97166334D01*
X54936895Y-97166334D02*
X55736895Y-96709191D01*
X55736895Y-96709191D02*
X54936895Y-96709191D01*
X55698800Y-106585383D02*
X55736895Y-106471097D01*
X55736895Y-106471097D02*
X55736895Y-106280621D01*
X55736895Y-106280621D02*
X55698800Y-106204430D01*
X55698800Y-106204430D02*
X55660704Y-106166335D01*
X55660704Y-106166335D02*
X55584514Y-106128240D01*
X55584514Y-106128240D02*
X55508323Y-106128240D01*
X55508323Y-106128240D02*
X55432133Y-106166335D01*
X55432133Y-106166335D02*
X55394038Y-106204430D01*
X55394038Y-106204430D02*
X55355942Y-106280621D01*
X55355942Y-106280621D02*
X55317847Y-106433002D01*
X55317847Y-106433002D02*
X55279752Y-106509192D01*
X55279752Y-106509192D02*
X55241657Y-106547287D01*
X55241657Y-106547287D02*
X55165466Y-106585383D01*
X55165466Y-106585383D02*
X55089276Y-106585383D01*
X55089276Y-106585383D02*
X55013085Y-106547287D01*
X55013085Y-106547287D02*
X54974990Y-106509192D01*
X54974990Y-106509192D02*
X54936895Y-106433002D01*
X54936895Y-106433002D02*
X54936895Y-106242525D01*
X54936895Y-106242525D02*
X54974990Y-106128240D01*
X55736895Y-105785382D02*
X54936895Y-105785382D01*
X54974990Y-104985383D02*
X54936895Y-105061573D01*
X54936895Y-105061573D02*
X54936895Y-105175859D01*
X54936895Y-105175859D02*
X54974990Y-105290145D01*
X54974990Y-105290145D02*
X55051180Y-105366335D01*
X55051180Y-105366335D02*
X55127371Y-105404430D01*
X55127371Y-105404430D02*
X55279752Y-105442526D01*
X55279752Y-105442526D02*
X55394038Y-105442526D01*
X55394038Y-105442526D02*
X55546419Y-105404430D01*
X55546419Y-105404430D02*
X55622609Y-105366335D01*
X55622609Y-105366335D02*
X55698800Y-105290145D01*
X55698800Y-105290145D02*
X55736895Y-105175859D01*
X55736895Y-105175859D02*
X55736895Y-105099668D01*
X55736895Y-105099668D02*
X55698800Y-104985383D01*
X55698800Y-104985383D02*
X55660704Y-104947287D01*
X55660704Y-104947287D02*
X55394038Y-104947287D01*
X55394038Y-104947287D02*
X55394038Y-105099668D01*
X55736895Y-104604430D02*
X54936895Y-104604430D01*
X54936895Y-104604430D02*
X55736895Y-104147287D01*
X55736895Y-104147287D02*
X54936895Y-104147287D01*
X55813085Y-103956812D02*
X55813085Y-103347288D01*
X55736895Y-103156811D02*
X54936895Y-103156811D01*
X54936895Y-103156811D02*
X55736895Y-102699668D01*
X55736895Y-102699668D02*
X54936895Y-102699668D01*
X55698800Y-111585383D02*
X55736895Y-111471097D01*
X55736895Y-111471097D02*
X55736895Y-111280621D01*
X55736895Y-111280621D02*
X55698800Y-111204430D01*
X55698800Y-111204430D02*
X55660704Y-111166335D01*
X55660704Y-111166335D02*
X55584514Y-111128240D01*
X55584514Y-111128240D02*
X55508323Y-111128240D01*
X55508323Y-111128240D02*
X55432133Y-111166335D01*
X55432133Y-111166335D02*
X55394038Y-111204430D01*
X55394038Y-111204430D02*
X55355942Y-111280621D01*
X55355942Y-111280621D02*
X55317847Y-111433002D01*
X55317847Y-111433002D02*
X55279752Y-111509192D01*
X55279752Y-111509192D02*
X55241657Y-111547287D01*
X55241657Y-111547287D02*
X55165466Y-111585383D01*
X55165466Y-111585383D02*
X55089276Y-111585383D01*
X55089276Y-111585383D02*
X55013085Y-111547287D01*
X55013085Y-111547287D02*
X54974990Y-111509192D01*
X54974990Y-111509192D02*
X54936895Y-111433002D01*
X54936895Y-111433002D02*
X54936895Y-111242525D01*
X54936895Y-111242525D02*
X54974990Y-111128240D01*
X55736895Y-110785382D02*
X54936895Y-110785382D01*
X54974990Y-109985383D02*
X54936895Y-110061573D01*
X54936895Y-110061573D02*
X54936895Y-110175859D01*
X54936895Y-110175859D02*
X54974990Y-110290145D01*
X54974990Y-110290145D02*
X55051180Y-110366335D01*
X55051180Y-110366335D02*
X55127371Y-110404430D01*
X55127371Y-110404430D02*
X55279752Y-110442526D01*
X55279752Y-110442526D02*
X55394038Y-110442526D01*
X55394038Y-110442526D02*
X55546419Y-110404430D01*
X55546419Y-110404430D02*
X55622609Y-110366335D01*
X55622609Y-110366335D02*
X55698800Y-110290145D01*
X55698800Y-110290145D02*
X55736895Y-110175859D01*
X55736895Y-110175859D02*
X55736895Y-110099668D01*
X55736895Y-110099668D02*
X55698800Y-109985383D01*
X55698800Y-109985383D02*
X55660704Y-109947287D01*
X55660704Y-109947287D02*
X55394038Y-109947287D01*
X55394038Y-109947287D02*
X55394038Y-110099668D01*
X55736895Y-109604430D02*
X54936895Y-109604430D01*
X54936895Y-109604430D02*
X55736895Y-109147287D01*
X55736895Y-109147287D02*
X54936895Y-109147287D01*
X55813085Y-108956812D02*
X55813085Y-108347288D01*
X55736895Y-108156811D02*
X54936895Y-108156811D01*
X54936895Y-108156811D02*
X54936895Y-107852049D01*
X54936895Y-107852049D02*
X54974990Y-107775859D01*
X54974990Y-107775859D02*
X55013085Y-107737764D01*
X55013085Y-107737764D02*
X55089276Y-107699668D01*
X55089276Y-107699668D02*
X55203561Y-107699668D01*
X55203561Y-107699668D02*
X55279752Y-107737764D01*
X55279752Y-107737764D02*
X55317847Y-107775859D01*
X55317847Y-107775859D02*
X55355942Y-107852049D01*
X55355942Y-107852049D02*
X55355942Y-108156811D01*
X55432133Y-118547287D02*
X55432133Y-117937764D01*
X55736895Y-118242525D02*
X55127371Y-118242525D01*
X55013085Y-117594907D02*
X54974990Y-117556811D01*
X54974990Y-117556811D02*
X54936895Y-117480621D01*
X54936895Y-117480621D02*
X54936895Y-117290145D01*
X54936895Y-117290145D02*
X54974990Y-117213954D01*
X54974990Y-117213954D02*
X55013085Y-117175859D01*
X55013085Y-117175859D02*
X55089276Y-117137764D01*
X55089276Y-117137764D02*
X55165466Y-117137764D01*
X55165466Y-117137764D02*
X55279752Y-117175859D01*
X55279752Y-117175859D02*
X55736895Y-117633002D01*
X55736895Y-117633002D02*
X55736895Y-117137764D01*
X55203561Y-116452049D02*
X55736895Y-116452049D01*
X54898800Y-116642525D02*
X55470228Y-116833002D01*
X55470228Y-116833002D02*
X55470228Y-116337763D01*
X54936895Y-116147287D02*
X55736895Y-115880620D01*
X55736895Y-115880620D02*
X54936895Y-115613954D01*
X54974990Y-122828240D02*
X54936895Y-122904430D01*
X54936895Y-122904430D02*
X54936895Y-123018716D01*
X54936895Y-123018716D02*
X54974990Y-123133002D01*
X54974990Y-123133002D02*
X55051180Y-123209192D01*
X55051180Y-123209192D02*
X55127371Y-123247287D01*
X55127371Y-123247287D02*
X55279752Y-123285383D01*
X55279752Y-123285383D02*
X55394038Y-123285383D01*
X55394038Y-123285383D02*
X55546419Y-123247287D01*
X55546419Y-123247287D02*
X55622609Y-123209192D01*
X55622609Y-123209192D02*
X55698800Y-123133002D01*
X55698800Y-123133002D02*
X55736895Y-123018716D01*
X55736895Y-123018716D02*
X55736895Y-122942525D01*
X55736895Y-122942525D02*
X55698800Y-122828240D01*
X55698800Y-122828240D02*
X55660704Y-122790144D01*
X55660704Y-122790144D02*
X55394038Y-122790144D01*
X55394038Y-122790144D02*
X55394038Y-122942525D01*
X55736895Y-122447287D02*
X54936895Y-122447287D01*
X54936895Y-122447287D02*
X55736895Y-121990144D01*
X55736895Y-121990144D02*
X54936895Y-121990144D01*
X55736895Y-121609192D02*
X54936895Y-121609192D01*
X54936895Y-121609192D02*
X54936895Y-121418716D01*
X54936895Y-121418716D02*
X54974990Y-121304430D01*
X54974990Y-121304430D02*
X55051180Y-121228240D01*
X55051180Y-121228240D02*
X55127371Y-121190145D01*
X55127371Y-121190145D02*
X55279752Y-121152049D01*
X55279752Y-121152049D02*
X55394038Y-121152049D01*
X55394038Y-121152049D02*
X55546419Y-121190145D01*
X55546419Y-121190145D02*
X55622609Y-121228240D01*
X55622609Y-121228240D02*
X55698800Y-121304430D01*
X55698800Y-121304430D02*
X55736895Y-121418716D01*
X55736895Y-121418716D02*
X55736895Y-121609192D01*
X55660704Y-128290144D02*
X55698800Y-128328240D01*
X55698800Y-128328240D02*
X55736895Y-128442525D01*
X55736895Y-128442525D02*
X55736895Y-128518716D01*
X55736895Y-128518716D02*
X55698800Y-128633002D01*
X55698800Y-128633002D02*
X55622609Y-128709192D01*
X55622609Y-128709192D02*
X55546419Y-128747287D01*
X55546419Y-128747287D02*
X55394038Y-128785383D01*
X55394038Y-128785383D02*
X55279752Y-128785383D01*
X55279752Y-128785383D02*
X55127371Y-128747287D01*
X55127371Y-128747287D02*
X55051180Y-128709192D01*
X55051180Y-128709192D02*
X54974990Y-128633002D01*
X54974990Y-128633002D02*
X54936895Y-128518716D01*
X54936895Y-128518716D02*
X54936895Y-128442525D01*
X54936895Y-128442525D02*
X54974990Y-128328240D01*
X54974990Y-128328240D02*
X55013085Y-128290144D01*
X55698800Y-127985383D02*
X55736895Y-127871097D01*
X55736895Y-127871097D02*
X55736895Y-127680621D01*
X55736895Y-127680621D02*
X55698800Y-127604430D01*
X55698800Y-127604430D02*
X55660704Y-127566335D01*
X55660704Y-127566335D02*
X55584514Y-127528240D01*
X55584514Y-127528240D02*
X55508323Y-127528240D01*
X55508323Y-127528240D02*
X55432133Y-127566335D01*
X55432133Y-127566335D02*
X55394038Y-127604430D01*
X55394038Y-127604430D02*
X55355942Y-127680621D01*
X55355942Y-127680621D02*
X55317847Y-127833002D01*
X55317847Y-127833002D02*
X55279752Y-127909192D01*
X55279752Y-127909192D02*
X55241657Y-127947287D01*
X55241657Y-127947287D02*
X55165466Y-127985383D01*
X55165466Y-127985383D02*
X55089276Y-127985383D01*
X55089276Y-127985383D02*
X55013085Y-127947287D01*
X55013085Y-127947287D02*
X54974990Y-127909192D01*
X54974990Y-127909192D02*
X54936895Y-127833002D01*
X54936895Y-127833002D02*
X54936895Y-127642525D01*
X54936895Y-127642525D02*
X54974990Y-127528240D01*
X54936895Y-127299668D02*
X54936895Y-126842525D01*
X55736895Y-127071097D02*
X54936895Y-127071097D01*
X55736895Y-126575858D02*
X54936895Y-126575858D01*
X54936895Y-126575858D02*
X54936895Y-126271096D01*
X54936895Y-126271096D02*
X54974990Y-126194906D01*
X54974990Y-126194906D02*
X55013085Y-126156811D01*
X55013085Y-126156811D02*
X55089276Y-126118715D01*
X55089276Y-126118715D02*
X55203561Y-126118715D01*
X55203561Y-126118715D02*
X55279752Y-126156811D01*
X55279752Y-126156811D02*
X55317847Y-126194906D01*
X55317847Y-126194906D02*
X55355942Y-126271096D01*
X55355942Y-126271096D02*
X55355942Y-126575858D01*
X55736895Y-133847287D02*
X54936895Y-133847287D01*
X55317847Y-133847287D02*
X55317847Y-133390144D01*
X55736895Y-133390144D02*
X54936895Y-133390144D01*
X54936895Y-132856811D02*
X54936895Y-132704430D01*
X54936895Y-132704430D02*
X54974990Y-132628240D01*
X54974990Y-132628240D02*
X55051180Y-132552049D01*
X55051180Y-132552049D02*
X55203561Y-132513954D01*
X55203561Y-132513954D02*
X55470228Y-132513954D01*
X55470228Y-132513954D02*
X55622609Y-132552049D01*
X55622609Y-132552049D02*
X55698800Y-132628240D01*
X55698800Y-132628240D02*
X55736895Y-132704430D01*
X55736895Y-132704430D02*
X55736895Y-132856811D01*
X55736895Y-132856811D02*
X55698800Y-132933002D01*
X55698800Y-132933002D02*
X55622609Y-133009192D01*
X55622609Y-133009192D02*
X55470228Y-133047288D01*
X55470228Y-133047288D02*
X55203561Y-133047288D01*
X55203561Y-133047288D02*
X55051180Y-133009192D01*
X55051180Y-133009192D02*
X54974990Y-132933002D01*
X54974990Y-132933002D02*
X54936895Y-132856811D01*
X55736895Y-132171097D02*
X54936895Y-132171097D01*
X54936895Y-132171097D02*
X55508323Y-131904431D01*
X55508323Y-131904431D02*
X54936895Y-131637764D01*
X54936895Y-131637764D02*
X55736895Y-131637764D01*
X55317847Y-131256811D02*
X55317847Y-130990145D01*
X55736895Y-130875859D02*
X55736895Y-131256811D01*
X55736895Y-131256811D02*
X54936895Y-131256811D01*
X54936895Y-131256811D02*
X54936895Y-130875859D01*
X55736895Y-138190144D02*
X55355942Y-138456811D01*
X55736895Y-138647287D02*
X54936895Y-138647287D01*
X54936895Y-138647287D02*
X54936895Y-138342525D01*
X54936895Y-138342525D02*
X54974990Y-138266335D01*
X54974990Y-138266335D02*
X55013085Y-138228240D01*
X55013085Y-138228240D02*
X55089276Y-138190144D01*
X55089276Y-138190144D02*
X55203561Y-138190144D01*
X55203561Y-138190144D02*
X55279752Y-138228240D01*
X55279752Y-138228240D02*
X55317847Y-138266335D01*
X55317847Y-138266335D02*
X55355942Y-138342525D01*
X55355942Y-138342525D02*
X55355942Y-138647287D01*
X55317847Y-137847287D02*
X55317847Y-137580621D01*
X55736895Y-137466335D02*
X55736895Y-137847287D01*
X55736895Y-137847287D02*
X54936895Y-137847287D01*
X54936895Y-137847287D02*
X54936895Y-137466335D01*
X55698800Y-137161573D02*
X55736895Y-137047287D01*
X55736895Y-137047287D02*
X55736895Y-136856811D01*
X55736895Y-136856811D02*
X55698800Y-136780620D01*
X55698800Y-136780620D02*
X55660704Y-136742525D01*
X55660704Y-136742525D02*
X55584514Y-136704430D01*
X55584514Y-136704430D02*
X55508323Y-136704430D01*
X55508323Y-136704430D02*
X55432133Y-136742525D01*
X55432133Y-136742525D02*
X55394038Y-136780620D01*
X55394038Y-136780620D02*
X55355942Y-136856811D01*
X55355942Y-136856811D02*
X55317847Y-137009192D01*
X55317847Y-137009192D02*
X55279752Y-137085382D01*
X55279752Y-137085382D02*
X55241657Y-137123477D01*
X55241657Y-137123477D02*
X55165466Y-137161573D01*
X55165466Y-137161573D02*
X55089276Y-137161573D01*
X55089276Y-137161573D02*
X55013085Y-137123477D01*
X55013085Y-137123477D02*
X54974990Y-137085382D01*
X54974990Y-137085382D02*
X54936895Y-137009192D01*
X54936895Y-137009192D02*
X54936895Y-136818715D01*
X54936895Y-136818715D02*
X54974990Y-136704430D01*
X55698800Y-143685383D02*
X55736895Y-143571097D01*
X55736895Y-143571097D02*
X55736895Y-143380621D01*
X55736895Y-143380621D02*
X55698800Y-143304430D01*
X55698800Y-143304430D02*
X55660704Y-143266335D01*
X55660704Y-143266335D02*
X55584514Y-143228240D01*
X55584514Y-143228240D02*
X55508323Y-143228240D01*
X55508323Y-143228240D02*
X55432133Y-143266335D01*
X55432133Y-143266335D02*
X55394038Y-143304430D01*
X55394038Y-143304430D02*
X55355942Y-143380621D01*
X55355942Y-143380621D02*
X55317847Y-143533002D01*
X55317847Y-143533002D02*
X55279752Y-143609192D01*
X55279752Y-143609192D02*
X55241657Y-143647287D01*
X55241657Y-143647287D02*
X55165466Y-143685383D01*
X55165466Y-143685383D02*
X55089276Y-143685383D01*
X55089276Y-143685383D02*
X55013085Y-143647287D01*
X55013085Y-143647287D02*
X54974990Y-143609192D01*
X54974990Y-143609192D02*
X54936895Y-143533002D01*
X54936895Y-143533002D02*
X54936895Y-143342525D01*
X54936895Y-143342525D02*
X54974990Y-143228240D01*
X54936895Y-142733001D02*
X54936895Y-142580620D01*
X54936895Y-142580620D02*
X54974990Y-142504430D01*
X54974990Y-142504430D02*
X55051180Y-142428239D01*
X55051180Y-142428239D02*
X55203561Y-142390144D01*
X55203561Y-142390144D02*
X55470228Y-142390144D01*
X55470228Y-142390144D02*
X55622609Y-142428239D01*
X55622609Y-142428239D02*
X55698800Y-142504430D01*
X55698800Y-142504430D02*
X55736895Y-142580620D01*
X55736895Y-142580620D02*
X55736895Y-142733001D01*
X55736895Y-142733001D02*
X55698800Y-142809192D01*
X55698800Y-142809192D02*
X55622609Y-142885382D01*
X55622609Y-142885382D02*
X55470228Y-142923478D01*
X55470228Y-142923478D02*
X55203561Y-142923478D01*
X55203561Y-142923478D02*
X55051180Y-142885382D01*
X55051180Y-142885382D02*
X54974990Y-142809192D01*
X54974990Y-142809192D02*
X54936895Y-142733001D01*
X55736895Y-142047287D02*
X54936895Y-142047287D01*
X54936895Y-142047287D02*
X55736895Y-141590144D01*
X55736895Y-141590144D02*
X54936895Y-141590144D01*
X55698800Y-148385383D02*
X55736895Y-148271097D01*
X55736895Y-148271097D02*
X55736895Y-148080621D01*
X55736895Y-148080621D02*
X55698800Y-148004430D01*
X55698800Y-148004430D02*
X55660704Y-147966335D01*
X55660704Y-147966335D02*
X55584514Y-147928240D01*
X55584514Y-147928240D02*
X55508323Y-147928240D01*
X55508323Y-147928240D02*
X55432133Y-147966335D01*
X55432133Y-147966335D02*
X55394038Y-148004430D01*
X55394038Y-148004430D02*
X55355942Y-148080621D01*
X55355942Y-148080621D02*
X55317847Y-148233002D01*
X55317847Y-148233002D02*
X55279752Y-148309192D01*
X55279752Y-148309192D02*
X55241657Y-148347287D01*
X55241657Y-148347287D02*
X55165466Y-148385383D01*
X55165466Y-148385383D02*
X55089276Y-148385383D01*
X55089276Y-148385383D02*
X55013085Y-148347287D01*
X55013085Y-148347287D02*
X54974990Y-148309192D01*
X54974990Y-148309192D02*
X54936895Y-148233002D01*
X54936895Y-148233002D02*
X54936895Y-148042525D01*
X54936895Y-148042525D02*
X54974990Y-147928240D01*
X54936895Y-147699668D02*
X55736895Y-147433001D01*
X55736895Y-147433001D02*
X54936895Y-147166335D01*
X55736895Y-153547287D02*
X54936895Y-153547287D01*
X55736895Y-153166335D02*
X54936895Y-153166335D01*
X54936895Y-153166335D02*
X55736895Y-152709192D01*
X55736895Y-152709192D02*
X54936895Y-152709192D01*
X55736895Y-152328240D02*
X54936895Y-152328240D01*
X54936895Y-152328240D02*
X54936895Y-152023478D01*
X54936895Y-152023478D02*
X54974990Y-151947288D01*
X54974990Y-151947288D02*
X55013085Y-151909193D01*
X55013085Y-151909193D02*
X55089276Y-151871097D01*
X55089276Y-151871097D02*
X55203561Y-151871097D01*
X55203561Y-151871097D02*
X55279752Y-151909193D01*
X55279752Y-151909193D02*
X55317847Y-151947288D01*
X55317847Y-151947288D02*
X55355942Y-152023478D01*
X55355942Y-152023478D02*
X55355942Y-152328240D01*
X55736895Y-159147287D02*
X54936895Y-159147287D01*
X55317847Y-159147287D02*
X55317847Y-158690144D01*
X55736895Y-158690144D02*
X54936895Y-158690144D01*
X55317847Y-158309192D02*
X55317847Y-158042526D01*
X55736895Y-157928240D02*
X55736895Y-158309192D01*
X55736895Y-158309192D02*
X54936895Y-158309192D01*
X54936895Y-158309192D02*
X54936895Y-157928240D01*
X55736895Y-157585382D02*
X54936895Y-157585382D01*
X54936895Y-157585382D02*
X55736895Y-157128239D01*
X55736895Y-157128239D02*
X54936895Y-157128239D01*
X55736895Y-156747287D02*
X54936895Y-156747287D01*
X54936895Y-156747287D02*
X54936895Y-156556811D01*
X54936895Y-156556811D02*
X54974990Y-156442525D01*
X54974990Y-156442525D02*
X55051180Y-156366335D01*
X55051180Y-156366335D02*
X55127371Y-156328240D01*
X55127371Y-156328240D02*
X55279752Y-156290144D01*
X55279752Y-156290144D02*
X55394038Y-156290144D01*
X55394038Y-156290144D02*
X55546419Y-156328240D01*
X55546419Y-156328240D02*
X55622609Y-156366335D01*
X55622609Y-156366335D02*
X55698800Y-156442525D01*
X55698800Y-156442525D02*
X55736895Y-156556811D01*
X55736895Y-156556811D02*
X55736895Y-156747287D01*
X55508323Y-163785383D02*
X55508323Y-163404430D01*
X55736895Y-163861573D02*
X54936895Y-163594906D01*
X54936895Y-163594906D02*
X55736895Y-163328240D01*
X55736895Y-162680621D02*
X55736895Y-163061573D01*
X55736895Y-163061573D02*
X54936895Y-163061573D01*
X55736895Y-162413954D02*
X54936895Y-162413954D01*
X54936895Y-162413954D02*
X55508323Y-162147288D01*
X55508323Y-162147288D02*
X54936895Y-161880621D01*
X54936895Y-161880621D02*
X55736895Y-161880621D01*
X107283635Y-55478865D02*
X107321730Y-55402675D01*
X107321730Y-55402675D02*
X107321730Y-55288389D01*
X107321730Y-55288389D02*
X107283635Y-55174103D01*
X107283635Y-55174103D02*
X107207445Y-55097913D01*
X107207445Y-55097913D02*
X107131254Y-55059818D01*
X107131254Y-55059818D02*
X106978873Y-55021722D01*
X106978873Y-55021722D02*
X106864587Y-55021722D01*
X106864587Y-55021722D02*
X106712206Y-55059818D01*
X106712206Y-55059818D02*
X106636016Y-55097913D01*
X106636016Y-55097913D02*
X106559826Y-55174103D01*
X106559826Y-55174103D02*
X106521730Y-55288389D01*
X106521730Y-55288389D02*
X106521730Y-55364580D01*
X106521730Y-55364580D02*
X106559826Y-55478865D01*
X106559826Y-55478865D02*
X106597921Y-55516961D01*
X106597921Y-55516961D02*
X106864587Y-55516961D01*
X106864587Y-55516961D02*
X106864587Y-55364580D01*
X106521730Y-55859818D02*
X107321730Y-55859818D01*
X107321730Y-55859818D02*
X106521730Y-56316961D01*
X106521730Y-56316961D02*
X107321730Y-56316961D01*
X106521730Y-56697913D02*
X107321730Y-56697913D01*
X107321730Y-56697913D02*
X107321730Y-56888389D01*
X107321730Y-56888389D02*
X107283635Y-57002675D01*
X107283635Y-57002675D02*
X107207445Y-57078865D01*
X107207445Y-57078865D02*
X107131254Y-57116960D01*
X107131254Y-57116960D02*
X106978873Y-57155056D01*
X106978873Y-57155056D02*
X106864587Y-57155056D01*
X106864587Y-57155056D02*
X106712206Y-57116960D01*
X106712206Y-57116960D02*
X106636016Y-57078865D01*
X106636016Y-57078865D02*
X106559826Y-57002675D01*
X106559826Y-57002675D02*
X106521730Y-56888389D01*
X106521730Y-56888389D02*
X106521730Y-56697913D01*
X106750302Y-60721722D02*
X106750302Y-61102675D01*
X106521730Y-60645532D02*
X107321730Y-60912199D01*
X107321730Y-60912199D02*
X106521730Y-61178865D01*
X106940778Y-66126484D02*
X106902683Y-66240770D01*
X106902683Y-66240770D02*
X106864587Y-66278865D01*
X106864587Y-66278865D02*
X106788397Y-66316961D01*
X106788397Y-66316961D02*
X106674111Y-66316961D01*
X106674111Y-66316961D02*
X106597921Y-66278865D01*
X106597921Y-66278865D02*
X106559826Y-66240770D01*
X106559826Y-66240770D02*
X106521730Y-66164580D01*
X106521730Y-66164580D02*
X106521730Y-65859818D01*
X106521730Y-65859818D02*
X107321730Y-65859818D01*
X107321730Y-65859818D02*
X107321730Y-66126484D01*
X107321730Y-66126484D02*
X107283635Y-66202675D01*
X107283635Y-66202675D02*
X107245540Y-66240770D01*
X107245540Y-66240770D02*
X107169349Y-66278865D01*
X107169349Y-66278865D02*
X107093159Y-66278865D01*
X107093159Y-66278865D02*
X107016968Y-66240770D01*
X107016968Y-66240770D02*
X106978873Y-66202675D01*
X106978873Y-66202675D02*
X106940778Y-66126484D01*
X106940778Y-66126484D02*
X106940778Y-65859818D01*
X107321730Y-70583627D02*
X107321730Y-71116961D01*
X107321730Y-71116961D02*
X106521730Y-70583627D01*
X106521730Y-70583627D02*
X106521730Y-71116961D01*
X107283635Y-80378865D02*
X107321730Y-80302675D01*
X107321730Y-80302675D02*
X107321730Y-80188389D01*
X107321730Y-80188389D02*
X107283635Y-80074103D01*
X107283635Y-80074103D02*
X107207445Y-79997913D01*
X107207445Y-79997913D02*
X107131254Y-79959818D01*
X107131254Y-79959818D02*
X106978873Y-79921722D01*
X106978873Y-79921722D02*
X106864587Y-79921722D01*
X106864587Y-79921722D02*
X106712206Y-79959818D01*
X106712206Y-79959818D02*
X106636016Y-79997913D01*
X106636016Y-79997913D02*
X106559826Y-80074103D01*
X106559826Y-80074103D02*
X106521730Y-80188389D01*
X106521730Y-80188389D02*
X106521730Y-80264580D01*
X106521730Y-80264580D02*
X106559826Y-80378865D01*
X106559826Y-80378865D02*
X106597921Y-80416961D01*
X106597921Y-80416961D02*
X106864587Y-80416961D01*
X106864587Y-80416961D02*
X106864587Y-80264580D01*
X106521730Y-80759818D02*
X107321730Y-80759818D01*
X107321730Y-80759818D02*
X106521730Y-81216961D01*
X106521730Y-81216961D02*
X107321730Y-81216961D01*
X106521730Y-81597913D02*
X107321730Y-81597913D01*
X107321730Y-81597913D02*
X107321730Y-81788389D01*
X107321730Y-81788389D02*
X107283635Y-81902675D01*
X107283635Y-81902675D02*
X107207445Y-81978865D01*
X107207445Y-81978865D02*
X107131254Y-82016960D01*
X107131254Y-82016960D02*
X106978873Y-82055056D01*
X106978873Y-82055056D02*
X106864587Y-82055056D01*
X106864587Y-82055056D02*
X106712206Y-82016960D01*
X106712206Y-82016960D02*
X106636016Y-81978865D01*
X106636016Y-81978865D02*
X106559826Y-81902675D01*
X106559826Y-81902675D02*
X106521730Y-81788389D01*
X106521730Y-81788389D02*
X106521730Y-81597913D01*
X106826492Y-84559818D02*
X106826492Y-85169342D01*
X106521730Y-84864580D02*
X107131254Y-84864580D01*
X107245540Y-85512198D02*
X107283635Y-85550294D01*
X107283635Y-85550294D02*
X107321730Y-85626484D01*
X107321730Y-85626484D02*
X107321730Y-85816960D01*
X107321730Y-85816960D02*
X107283635Y-85893151D01*
X107283635Y-85893151D02*
X107245540Y-85931246D01*
X107245540Y-85931246D02*
X107169349Y-85969341D01*
X107169349Y-85969341D02*
X107093159Y-85969341D01*
X107093159Y-85969341D02*
X106978873Y-85931246D01*
X106978873Y-85931246D02*
X106521730Y-85474103D01*
X106521730Y-85474103D02*
X106521730Y-85969341D01*
X107055064Y-86655056D02*
X106521730Y-86655056D01*
X107359826Y-86464580D02*
X106788397Y-86274103D01*
X106788397Y-86274103D02*
X106788397Y-86769342D01*
X107321730Y-86959818D02*
X106521730Y-87226485D01*
X106521730Y-87226485D02*
X107321730Y-87493151D01*
X106521730Y-110159818D02*
X107321730Y-110159818D01*
X107321730Y-110159818D02*
X107321730Y-110464580D01*
X107321730Y-110464580D02*
X107283635Y-110540770D01*
X107283635Y-110540770D02*
X107245540Y-110578865D01*
X107245540Y-110578865D02*
X107169349Y-110616961D01*
X107169349Y-110616961D02*
X107055064Y-110616961D01*
X107055064Y-110616961D02*
X106978873Y-110578865D01*
X106978873Y-110578865D02*
X106940778Y-110540770D01*
X106940778Y-110540770D02*
X106902683Y-110464580D01*
X106902683Y-110464580D02*
X106902683Y-110159818D01*
X107321730Y-110959818D02*
X106674111Y-110959818D01*
X106674111Y-110959818D02*
X106597921Y-110997913D01*
X106597921Y-110997913D02*
X106559826Y-111036008D01*
X106559826Y-111036008D02*
X106521730Y-111112199D01*
X106521730Y-111112199D02*
X106521730Y-111264580D01*
X106521730Y-111264580D02*
X106559826Y-111340770D01*
X106559826Y-111340770D02*
X106597921Y-111378865D01*
X106597921Y-111378865D02*
X106674111Y-111416961D01*
X106674111Y-111416961D02*
X107321730Y-111416961D01*
X106521730Y-112178865D02*
X106521730Y-111797913D01*
X106521730Y-111797913D02*
X107321730Y-111797913D01*
X106559826Y-112407436D02*
X106521730Y-112521722D01*
X106521730Y-112521722D02*
X106521730Y-112712198D01*
X106521730Y-112712198D02*
X106559826Y-112788389D01*
X106559826Y-112788389D02*
X106597921Y-112826484D01*
X106597921Y-112826484D02*
X106674111Y-112864579D01*
X106674111Y-112864579D02*
X106750302Y-112864579D01*
X106750302Y-112864579D02*
X106826492Y-112826484D01*
X106826492Y-112826484D02*
X106864587Y-112788389D01*
X106864587Y-112788389D02*
X106902683Y-112712198D01*
X106902683Y-112712198D02*
X106940778Y-112559817D01*
X106940778Y-112559817D02*
X106978873Y-112483627D01*
X106978873Y-112483627D02*
X107016968Y-112445532D01*
X107016968Y-112445532D02*
X107093159Y-112407436D01*
X107093159Y-112407436D02*
X107169349Y-112407436D01*
X107169349Y-112407436D02*
X107245540Y-112445532D01*
X107245540Y-112445532D02*
X107283635Y-112483627D01*
X107283635Y-112483627D02*
X107321730Y-112559817D01*
X107321730Y-112559817D02*
X107321730Y-112750294D01*
X107321730Y-112750294D02*
X107283635Y-112864579D01*
X106940778Y-113207437D02*
X106940778Y-113474103D01*
X106521730Y-113588389D02*
X106521730Y-113207437D01*
X106521730Y-113207437D02*
X107321730Y-113207437D01*
X107321730Y-113207437D02*
X107321730Y-113588389D01*
X106559826Y-115921722D02*
X106521730Y-116036008D01*
X106521730Y-116036008D02*
X106521730Y-116226484D01*
X106521730Y-116226484D02*
X106559826Y-116302675D01*
X106559826Y-116302675D02*
X106597921Y-116340770D01*
X106597921Y-116340770D02*
X106674111Y-116378865D01*
X106674111Y-116378865D02*
X106750302Y-116378865D01*
X106750302Y-116378865D02*
X106826492Y-116340770D01*
X106826492Y-116340770D02*
X106864587Y-116302675D01*
X106864587Y-116302675D02*
X106902683Y-116226484D01*
X106902683Y-116226484D02*
X106940778Y-116074103D01*
X106940778Y-116074103D02*
X106978873Y-115997913D01*
X106978873Y-115997913D02*
X107016968Y-115959818D01*
X107016968Y-115959818D02*
X107093159Y-115921722D01*
X107093159Y-115921722D02*
X107169349Y-115921722D01*
X107169349Y-115921722D02*
X107245540Y-115959818D01*
X107245540Y-115959818D02*
X107283635Y-115997913D01*
X107283635Y-115997913D02*
X107321730Y-116074103D01*
X107321730Y-116074103D02*
X107321730Y-116264580D01*
X107321730Y-116264580D02*
X107283635Y-116378865D01*
X106521730Y-116721723D02*
X107321730Y-116721723D01*
X107283635Y-117521722D02*
X107321730Y-117445532D01*
X107321730Y-117445532D02*
X107321730Y-117331246D01*
X107321730Y-117331246D02*
X107283635Y-117216960D01*
X107283635Y-117216960D02*
X107207445Y-117140770D01*
X107207445Y-117140770D02*
X107131254Y-117102675D01*
X107131254Y-117102675D02*
X106978873Y-117064579D01*
X106978873Y-117064579D02*
X106864587Y-117064579D01*
X106864587Y-117064579D02*
X106712206Y-117102675D01*
X106712206Y-117102675D02*
X106636016Y-117140770D01*
X106636016Y-117140770D02*
X106559826Y-117216960D01*
X106559826Y-117216960D02*
X106521730Y-117331246D01*
X106521730Y-117331246D02*
X106521730Y-117407437D01*
X106521730Y-117407437D02*
X106559826Y-117521722D01*
X106559826Y-117521722D02*
X106597921Y-117559818D01*
X106597921Y-117559818D02*
X106864587Y-117559818D01*
X106864587Y-117559818D02*
X106864587Y-117407437D01*
X106521730Y-117902675D02*
X107321730Y-117902675D01*
X107321730Y-117902675D02*
X106521730Y-118359818D01*
X106521730Y-118359818D02*
X107321730Y-118359818D01*
X106597921Y-121216961D02*
X106559826Y-121178865D01*
X106559826Y-121178865D02*
X106521730Y-121064580D01*
X106521730Y-121064580D02*
X106521730Y-120988389D01*
X106521730Y-120988389D02*
X106559826Y-120874103D01*
X106559826Y-120874103D02*
X106636016Y-120797913D01*
X106636016Y-120797913D02*
X106712206Y-120759818D01*
X106712206Y-120759818D02*
X106864587Y-120721722D01*
X106864587Y-120721722D02*
X106978873Y-120721722D01*
X106978873Y-120721722D02*
X107131254Y-120759818D01*
X107131254Y-120759818D02*
X107207445Y-120797913D01*
X107207445Y-120797913D02*
X107283635Y-120874103D01*
X107283635Y-120874103D02*
X107321730Y-120988389D01*
X107321730Y-120988389D02*
X107321730Y-121064580D01*
X107321730Y-121064580D02*
X107283635Y-121178865D01*
X107283635Y-121178865D02*
X107245540Y-121216961D01*
X106559826Y-121521722D02*
X106521730Y-121636008D01*
X106521730Y-121636008D02*
X106521730Y-121826484D01*
X106521730Y-121826484D02*
X106559826Y-121902675D01*
X106559826Y-121902675D02*
X106597921Y-121940770D01*
X106597921Y-121940770D02*
X106674111Y-121978865D01*
X106674111Y-121978865D02*
X106750302Y-121978865D01*
X106750302Y-121978865D02*
X106826492Y-121940770D01*
X106826492Y-121940770D02*
X106864587Y-121902675D01*
X106864587Y-121902675D02*
X106902683Y-121826484D01*
X106902683Y-121826484D02*
X106940778Y-121674103D01*
X106940778Y-121674103D02*
X106978873Y-121597913D01*
X106978873Y-121597913D02*
X107016968Y-121559818D01*
X107016968Y-121559818D02*
X107093159Y-121521722D01*
X107093159Y-121521722D02*
X107169349Y-121521722D01*
X107169349Y-121521722D02*
X107245540Y-121559818D01*
X107245540Y-121559818D02*
X107283635Y-121597913D01*
X107283635Y-121597913D02*
X107321730Y-121674103D01*
X107321730Y-121674103D02*
X107321730Y-121864580D01*
X107321730Y-121864580D02*
X107283635Y-121978865D01*
X107321730Y-122207437D02*
X107321730Y-122664580D01*
X106521730Y-122436008D02*
X107321730Y-122436008D01*
X106521730Y-122931247D02*
X107321730Y-122931247D01*
X107321730Y-122931247D02*
X107321730Y-123236009D01*
X107321730Y-123236009D02*
X107283635Y-123312199D01*
X107283635Y-123312199D02*
X107245540Y-123350294D01*
X107245540Y-123350294D02*
X107169349Y-123388390D01*
X107169349Y-123388390D02*
X107055064Y-123388390D01*
X107055064Y-123388390D02*
X106978873Y-123350294D01*
X106978873Y-123350294D02*
X106940778Y-123312199D01*
X106940778Y-123312199D02*
X106902683Y-123236009D01*
X106902683Y-123236009D02*
X106902683Y-122931247D01*
X106521730Y-125759818D02*
X107321730Y-125759818D01*
X106940778Y-125759818D02*
X106940778Y-126216961D01*
X106521730Y-126216961D02*
X107321730Y-126216961D01*
X107321730Y-126750294D02*
X107321730Y-126902675D01*
X107321730Y-126902675D02*
X107283635Y-126978865D01*
X107283635Y-126978865D02*
X107207445Y-127055056D01*
X107207445Y-127055056D02*
X107055064Y-127093151D01*
X107055064Y-127093151D02*
X106788397Y-127093151D01*
X106788397Y-127093151D02*
X106636016Y-127055056D01*
X106636016Y-127055056D02*
X106559826Y-126978865D01*
X106559826Y-126978865D02*
X106521730Y-126902675D01*
X106521730Y-126902675D02*
X106521730Y-126750294D01*
X106521730Y-126750294D02*
X106559826Y-126674103D01*
X106559826Y-126674103D02*
X106636016Y-126597913D01*
X106636016Y-126597913D02*
X106788397Y-126559817D01*
X106788397Y-126559817D02*
X107055064Y-126559817D01*
X107055064Y-126559817D02*
X107207445Y-126597913D01*
X107207445Y-126597913D02*
X107283635Y-126674103D01*
X107283635Y-126674103D02*
X107321730Y-126750294D01*
X106521730Y-127436008D02*
X107321730Y-127436008D01*
X107321730Y-127436008D02*
X106750302Y-127702674D01*
X106750302Y-127702674D02*
X107321730Y-127969341D01*
X107321730Y-127969341D02*
X106521730Y-127969341D01*
X106940778Y-128350294D02*
X106940778Y-128616960D01*
X106521730Y-128731246D02*
X106521730Y-128350294D01*
X106521730Y-128350294D02*
X107321730Y-128350294D01*
X107321730Y-128350294D02*
X107321730Y-128731246D01*
X106521730Y-131716961D02*
X106902683Y-131450294D01*
X106521730Y-131259818D02*
X107321730Y-131259818D01*
X107321730Y-131259818D02*
X107321730Y-131564580D01*
X107321730Y-131564580D02*
X107283635Y-131640770D01*
X107283635Y-131640770D02*
X107245540Y-131678865D01*
X107245540Y-131678865D02*
X107169349Y-131716961D01*
X107169349Y-131716961D02*
X107055064Y-131716961D01*
X107055064Y-131716961D02*
X106978873Y-131678865D01*
X106978873Y-131678865D02*
X106940778Y-131640770D01*
X106940778Y-131640770D02*
X106902683Y-131564580D01*
X106902683Y-131564580D02*
X106902683Y-131259818D01*
X106940778Y-132059818D02*
X106940778Y-132326484D01*
X106521730Y-132440770D02*
X106521730Y-132059818D01*
X106521730Y-132059818D02*
X107321730Y-132059818D01*
X107321730Y-132059818D02*
X107321730Y-132440770D01*
X106559826Y-132745532D02*
X106521730Y-132859818D01*
X106521730Y-132859818D02*
X106521730Y-133050294D01*
X106521730Y-133050294D02*
X106559826Y-133126485D01*
X106559826Y-133126485D02*
X106597921Y-133164580D01*
X106597921Y-133164580D02*
X106674111Y-133202675D01*
X106674111Y-133202675D02*
X106750302Y-133202675D01*
X106750302Y-133202675D02*
X106826492Y-133164580D01*
X106826492Y-133164580D02*
X106864587Y-133126485D01*
X106864587Y-133126485D02*
X106902683Y-133050294D01*
X106902683Y-133050294D02*
X106940778Y-132897913D01*
X106940778Y-132897913D02*
X106978873Y-132821723D01*
X106978873Y-132821723D02*
X107016968Y-132783628D01*
X107016968Y-132783628D02*
X107093159Y-132745532D01*
X107093159Y-132745532D02*
X107169349Y-132745532D01*
X107169349Y-132745532D02*
X107245540Y-132783628D01*
X107245540Y-132783628D02*
X107283635Y-132821723D01*
X107283635Y-132821723D02*
X107321730Y-132897913D01*
X107321730Y-132897913D02*
X107321730Y-133088390D01*
X107321730Y-133088390D02*
X107283635Y-133202675D01*
X106559826Y-136321722D02*
X106521730Y-136436008D01*
X106521730Y-136436008D02*
X106521730Y-136626484D01*
X106521730Y-136626484D02*
X106559826Y-136702675D01*
X106559826Y-136702675D02*
X106597921Y-136740770D01*
X106597921Y-136740770D02*
X106674111Y-136778865D01*
X106674111Y-136778865D02*
X106750302Y-136778865D01*
X106750302Y-136778865D02*
X106826492Y-136740770D01*
X106826492Y-136740770D02*
X106864587Y-136702675D01*
X106864587Y-136702675D02*
X106902683Y-136626484D01*
X106902683Y-136626484D02*
X106940778Y-136474103D01*
X106940778Y-136474103D02*
X106978873Y-136397913D01*
X106978873Y-136397913D02*
X107016968Y-136359818D01*
X107016968Y-136359818D02*
X107093159Y-136321722D01*
X107093159Y-136321722D02*
X107169349Y-136321722D01*
X107169349Y-136321722D02*
X107245540Y-136359818D01*
X107245540Y-136359818D02*
X107283635Y-136397913D01*
X107283635Y-136397913D02*
X107321730Y-136474103D01*
X107321730Y-136474103D02*
X107321730Y-136664580D01*
X107321730Y-136664580D02*
X107283635Y-136778865D01*
X107321730Y-137274104D02*
X107321730Y-137426485D01*
X107321730Y-137426485D02*
X107283635Y-137502675D01*
X107283635Y-137502675D02*
X107207445Y-137578866D01*
X107207445Y-137578866D02*
X107055064Y-137616961D01*
X107055064Y-137616961D02*
X106788397Y-137616961D01*
X106788397Y-137616961D02*
X106636016Y-137578866D01*
X106636016Y-137578866D02*
X106559826Y-137502675D01*
X106559826Y-137502675D02*
X106521730Y-137426485D01*
X106521730Y-137426485D02*
X106521730Y-137274104D01*
X106521730Y-137274104D02*
X106559826Y-137197913D01*
X106559826Y-137197913D02*
X106636016Y-137121723D01*
X106636016Y-137121723D02*
X106788397Y-137083627D01*
X106788397Y-137083627D02*
X107055064Y-137083627D01*
X107055064Y-137083627D02*
X107207445Y-137121723D01*
X107207445Y-137121723D02*
X107283635Y-137197913D01*
X107283635Y-137197913D02*
X107321730Y-137274104D01*
X106521730Y-137959818D02*
X107321730Y-137959818D01*
X107321730Y-137959818D02*
X106521730Y-138416961D01*
X106521730Y-138416961D02*
X107321730Y-138416961D01*
X106559826Y-142121722D02*
X106521730Y-142236008D01*
X106521730Y-142236008D02*
X106521730Y-142426484D01*
X106521730Y-142426484D02*
X106559826Y-142502675D01*
X106559826Y-142502675D02*
X106597921Y-142540770D01*
X106597921Y-142540770D02*
X106674111Y-142578865D01*
X106674111Y-142578865D02*
X106750302Y-142578865D01*
X106750302Y-142578865D02*
X106826492Y-142540770D01*
X106826492Y-142540770D02*
X106864587Y-142502675D01*
X106864587Y-142502675D02*
X106902683Y-142426484D01*
X106902683Y-142426484D02*
X106940778Y-142274103D01*
X106940778Y-142274103D02*
X106978873Y-142197913D01*
X106978873Y-142197913D02*
X107016968Y-142159818D01*
X107016968Y-142159818D02*
X107093159Y-142121722D01*
X107093159Y-142121722D02*
X107169349Y-142121722D01*
X107169349Y-142121722D02*
X107245540Y-142159818D01*
X107245540Y-142159818D02*
X107283635Y-142197913D01*
X107283635Y-142197913D02*
X107321730Y-142274103D01*
X107321730Y-142274103D02*
X107321730Y-142464580D01*
X107321730Y-142464580D02*
X107283635Y-142578865D01*
X107321730Y-142807437D02*
X106521730Y-143074104D01*
X106521730Y-143074104D02*
X107321730Y-143340770D01*
X106521730Y-146659818D02*
X107321730Y-146659818D01*
X106521730Y-147040770D02*
X107321730Y-147040770D01*
X107321730Y-147040770D02*
X106521730Y-147497913D01*
X106521730Y-147497913D02*
X107321730Y-147497913D01*
X106521730Y-147878865D02*
X107321730Y-147878865D01*
X107321730Y-147878865D02*
X107321730Y-148183627D01*
X107321730Y-148183627D02*
X107283635Y-148259817D01*
X107283635Y-148259817D02*
X107245540Y-148297912D01*
X107245540Y-148297912D02*
X107169349Y-148336008D01*
X107169349Y-148336008D02*
X107055064Y-148336008D01*
X107055064Y-148336008D02*
X106978873Y-148297912D01*
X106978873Y-148297912D02*
X106940778Y-148259817D01*
X106940778Y-148259817D02*
X106902683Y-148183627D01*
X106902683Y-148183627D02*
X106902683Y-147878865D01*
X106521730Y-151359818D02*
X107321730Y-151359818D01*
X106940778Y-151359818D02*
X106940778Y-151816961D01*
X106521730Y-151816961D02*
X107321730Y-151816961D01*
X106940778Y-152197913D02*
X106940778Y-152464579D01*
X106521730Y-152578865D02*
X106521730Y-152197913D01*
X106521730Y-152197913D02*
X107321730Y-152197913D01*
X107321730Y-152197913D02*
X107321730Y-152578865D01*
X106521730Y-152921723D02*
X107321730Y-152921723D01*
X107321730Y-152921723D02*
X106521730Y-153378866D01*
X106521730Y-153378866D02*
X107321730Y-153378866D01*
X106521730Y-153759818D02*
X107321730Y-153759818D01*
X107321730Y-153759818D02*
X107321730Y-153950294D01*
X107321730Y-153950294D02*
X107283635Y-154064580D01*
X107283635Y-154064580D02*
X107207445Y-154140770D01*
X107207445Y-154140770D02*
X107131254Y-154178865D01*
X107131254Y-154178865D02*
X106978873Y-154216961D01*
X106978873Y-154216961D02*
X106864587Y-154216961D01*
X106864587Y-154216961D02*
X106712206Y-154178865D01*
X106712206Y-154178865D02*
X106636016Y-154140770D01*
X106636016Y-154140770D02*
X106559826Y-154064580D01*
X106559826Y-154064580D02*
X106521730Y-153950294D01*
X106521730Y-153950294D02*
X106521730Y-153759818D01*
X106750302Y-156721722D02*
X106750302Y-157102675D01*
X106521730Y-156645532D02*
X107321730Y-156912199D01*
X107321730Y-156912199D02*
X106521730Y-157178865D01*
X106521730Y-157826484D02*
X106521730Y-157445532D01*
X106521730Y-157445532D02*
X107321730Y-157445532D01*
X106521730Y-158093151D02*
X107321730Y-158093151D01*
X107321730Y-158093151D02*
X106750302Y-158359817D01*
X106750302Y-158359817D02*
X107321730Y-158626484D01*
X107321730Y-158626484D02*
X106521730Y-158626484D01*
X107283635Y-162278865D02*
X107321730Y-162202675D01*
X107321730Y-162202675D02*
X107321730Y-162088389D01*
X107321730Y-162088389D02*
X107283635Y-161974103D01*
X107283635Y-161974103D02*
X107207445Y-161897913D01*
X107207445Y-161897913D02*
X107131254Y-161859818D01*
X107131254Y-161859818D02*
X106978873Y-161821722D01*
X106978873Y-161821722D02*
X106864587Y-161821722D01*
X106864587Y-161821722D02*
X106712206Y-161859818D01*
X106712206Y-161859818D02*
X106636016Y-161897913D01*
X106636016Y-161897913D02*
X106559826Y-161974103D01*
X106559826Y-161974103D02*
X106521730Y-162088389D01*
X106521730Y-162088389D02*
X106521730Y-162164580D01*
X106521730Y-162164580D02*
X106559826Y-162278865D01*
X106559826Y-162278865D02*
X106597921Y-162316961D01*
X106597921Y-162316961D02*
X106864587Y-162316961D01*
X106864587Y-162316961D02*
X106864587Y-162164580D01*
X106521730Y-162659818D02*
X107321730Y-162659818D01*
X107321730Y-162659818D02*
X106521730Y-163116961D01*
X106521730Y-163116961D02*
X107321730Y-163116961D01*
X106521730Y-163497913D02*
X107321730Y-163497913D01*
X107321730Y-163497913D02*
X107321730Y-163688389D01*
X107321730Y-163688389D02*
X107283635Y-163802675D01*
X107283635Y-163802675D02*
X107207445Y-163878865D01*
X107207445Y-163878865D02*
X107131254Y-163916960D01*
X107131254Y-163916960D02*
X106978873Y-163955056D01*
X106978873Y-163955056D02*
X106864587Y-163955056D01*
X106864587Y-163955056D02*
X106712206Y-163916960D01*
X106712206Y-163916960D02*
X106636016Y-163878865D01*
X106636016Y-163878865D02*
X106559826Y-163802675D01*
X106559826Y-163802675D02*
X106521730Y-163688389D01*
X106521730Y-163688389D02*
X106521730Y-163497913D01*
D11*
X106970112Y-75894295D02*
X106589160Y-75894295D01*
X106589160Y-75894295D02*
X106551064Y-76275247D01*
X106551064Y-76275247D02*
X106589160Y-76237152D01*
X106589160Y-76237152D02*
X106665350Y-76199057D01*
X106665350Y-76199057D02*
X106855826Y-76199057D01*
X106855826Y-76199057D02*
X106932017Y-76237152D01*
X106932017Y-76237152D02*
X106970112Y-76275247D01*
X106970112Y-76275247D02*
X107008207Y-76351438D01*
X107008207Y-76351438D02*
X107008207Y-76541914D01*
X107008207Y-76541914D02*
X106970112Y-76618104D01*
X106970112Y-76618104D02*
X106932017Y-76656200D01*
X106932017Y-76656200D02*
X106855826Y-76694295D01*
X106855826Y-76694295D02*
X106665350Y-76694295D01*
X106665350Y-76694295D02*
X106589160Y-76656200D01*
X106589160Y-76656200D02*
X106551064Y-76618104D01*
X107236779Y-75894295D02*
X107503446Y-76694295D01*
X107503446Y-76694295D02*
X107770112Y-75894295D01*
X106651064Y-92870485D02*
X106689160Y-92832390D01*
X106689160Y-92832390D02*
X106765350Y-92794295D01*
X106765350Y-92794295D02*
X106955826Y-92794295D01*
X106955826Y-92794295D02*
X107032017Y-92832390D01*
X107032017Y-92832390D02*
X107070112Y-92870485D01*
X107070112Y-92870485D02*
X107108207Y-92946676D01*
X107108207Y-92946676D02*
X107108207Y-93022866D01*
X107108207Y-93022866D02*
X107070112Y-93137152D01*
X107070112Y-93137152D02*
X106612969Y-93594295D01*
X106612969Y-93594295D02*
X107108207Y-93594295D01*
X107793922Y-93060961D02*
X107793922Y-93594295D01*
X107603446Y-92756200D02*
X107412969Y-93327628D01*
X107412969Y-93327628D02*
X107908208Y-93327628D01*
X108098684Y-92794295D02*
X108365351Y-93594295D01*
X108365351Y-93594295D02*
X108632017Y-92794295D01*
D10*
X74854286Y-164866028D02*
X74854286Y-163866028D01*
X75282857Y-164818409D02*
X75425714Y-164866028D01*
X75425714Y-164866028D02*
X75663809Y-164866028D01*
X75663809Y-164866028D02*
X75759047Y-164818409D01*
X75759047Y-164818409D02*
X75806666Y-164770789D01*
X75806666Y-164770789D02*
X75854285Y-164675551D01*
X75854285Y-164675551D02*
X75854285Y-164580313D01*
X75854285Y-164580313D02*
X75806666Y-164485075D01*
X75806666Y-164485075D02*
X75759047Y-164437456D01*
X75759047Y-164437456D02*
X75663809Y-164389837D01*
X75663809Y-164389837D02*
X75473333Y-164342218D01*
X75473333Y-164342218D02*
X75378095Y-164294599D01*
X75378095Y-164294599D02*
X75330476Y-164246980D01*
X75330476Y-164246980D02*
X75282857Y-164151742D01*
X75282857Y-164151742D02*
X75282857Y-164056504D01*
X75282857Y-164056504D02*
X75330476Y-163961266D01*
X75330476Y-163961266D02*
X75378095Y-163913647D01*
X75378095Y-163913647D02*
X75473333Y-163866028D01*
X75473333Y-163866028D02*
X75711428Y-163866028D01*
X75711428Y-163866028D02*
X75854285Y-163913647D01*
X76282857Y-164866028D02*
X76282857Y-163866028D01*
X76282857Y-163866028D02*
X76616190Y-164580313D01*
X76616190Y-164580313D02*
X76949523Y-163866028D01*
X76949523Y-163866028D02*
X76949523Y-164866028D01*
X78187619Y-164485075D02*
X78949524Y-164485075D01*
X80378095Y-163866028D02*
X80473333Y-163866028D01*
X80473333Y-163866028D02*
X80568571Y-163913647D01*
X80568571Y-163913647D02*
X80616190Y-163961266D01*
X80616190Y-163961266D02*
X80663809Y-164056504D01*
X80663809Y-164056504D02*
X80711428Y-164246980D01*
X80711428Y-164246980D02*
X80711428Y-164485075D01*
X80711428Y-164485075D02*
X80663809Y-164675551D01*
X80663809Y-164675551D02*
X80616190Y-164770789D01*
X80616190Y-164770789D02*
X80568571Y-164818409D01*
X80568571Y-164818409D02*
X80473333Y-164866028D01*
X80473333Y-164866028D02*
X80378095Y-164866028D01*
X80378095Y-164866028D02*
X80282857Y-164818409D01*
X80282857Y-164818409D02*
X80235238Y-164770789D01*
X80235238Y-164770789D02*
X80187619Y-164675551D01*
X80187619Y-164675551D02*
X80140000Y-164485075D01*
X80140000Y-164485075D02*
X80140000Y-164246980D01*
X80140000Y-164246980D02*
X80187619Y-164056504D01*
X80187619Y-164056504D02*
X80235238Y-163961266D01*
X80235238Y-163961266D02*
X80282857Y-163913647D01*
X80282857Y-163913647D02*
X80378095Y-163866028D01*
X81568571Y-164199361D02*
X81568571Y-164866028D01*
X81330476Y-163818409D02*
X81092381Y-164532694D01*
X81092381Y-164532694D02*
X81711428Y-164532694D01*
X82806666Y-163818409D02*
X81949524Y-165104123D01*
X83663809Y-164866028D02*
X83092381Y-164866028D01*
X83378095Y-164866028D02*
X83378095Y-163866028D01*
X83378095Y-163866028D02*
X83282857Y-164008885D01*
X83282857Y-164008885D02*
X83187619Y-164104123D01*
X83187619Y-164104123D02*
X83092381Y-164151742D01*
X84282857Y-163866028D02*
X84378095Y-163866028D01*
X84378095Y-163866028D02*
X84473333Y-163913647D01*
X84473333Y-163913647D02*
X84520952Y-163961266D01*
X84520952Y-163961266D02*
X84568571Y-164056504D01*
X84568571Y-164056504D02*
X84616190Y-164246980D01*
X84616190Y-164246980D02*
X84616190Y-164485075D01*
X84616190Y-164485075D02*
X84568571Y-164675551D01*
X84568571Y-164675551D02*
X84520952Y-164770789D01*
X84520952Y-164770789D02*
X84473333Y-164818409D01*
X84473333Y-164818409D02*
X84378095Y-164866028D01*
X84378095Y-164866028D02*
X84282857Y-164866028D01*
X84282857Y-164866028D02*
X84187619Y-164818409D01*
X84187619Y-164818409D02*
X84140000Y-164770789D01*
X84140000Y-164770789D02*
X84092381Y-164675551D01*
X84092381Y-164675551D02*
X84044762Y-164485075D01*
X84044762Y-164485075D02*
X84044762Y-164246980D01*
X84044762Y-164246980D02*
X84092381Y-164056504D01*
X84092381Y-164056504D02*
X84140000Y-163961266D01*
X84140000Y-163961266D02*
X84187619Y-163913647D01*
X84187619Y-163913647D02*
X84282857Y-163866028D01*
X85759047Y-163818409D02*
X84901905Y-165104123D01*
X86044762Y-163961266D02*
X86092381Y-163913647D01*
X86092381Y-163913647D02*
X86187619Y-163866028D01*
X86187619Y-163866028D02*
X86425714Y-163866028D01*
X86425714Y-163866028D02*
X86520952Y-163913647D01*
X86520952Y-163913647D02*
X86568571Y-163961266D01*
X86568571Y-163961266D02*
X86616190Y-164056504D01*
X86616190Y-164056504D02*
X86616190Y-164151742D01*
X86616190Y-164151742D02*
X86568571Y-164294599D01*
X86568571Y-164294599D02*
X85997143Y-164866028D01*
X85997143Y-164866028D02*
X86616190Y-164866028D01*
X87235238Y-163866028D02*
X87330476Y-163866028D01*
X87330476Y-163866028D02*
X87425714Y-163913647D01*
X87425714Y-163913647D02*
X87473333Y-163961266D01*
X87473333Y-163961266D02*
X87520952Y-164056504D01*
X87520952Y-164056504D02*
X87568571Y-164246980D01*
X87568571Y-164246980D02*
X87568571Y-164485075D01*
X87568571Y-164485075D02*
X87520952Y-164675551D01*
X87520952Y-164675551D02*
X87473333Y-164770789D01*
X87473333Y-164770789D02*
X87425714Y-164818409D01*
X87425714Y-164818409D02*
X87330476Y-164866028D01*
X87330476Y-164866028D02*
X87235238Y-164866028D01*
X87235238Y-164866028D02*
X87140000Y-164818409D01*
X87140000Y-164818409D02*
X87092381Y-164770789D01*
X87092381Y-164770789D02*
X87044762Y-164675551D01*
X87044762Y-164675551D02*
X86997143Y-164485075D01*
X86997143Y-164485075D02*
X86997143Y-164246980D01*
X86997143Y-164246980D02*
X87044762Y-164056504D01*
X87044762Y-164056504D02*
X87092381Y-163961266D01*
X87092381Y-163961266D02*
X87140000Y-163913647D01*
X87140000Y-163913647D02*
X87235238Y-163866028D01*
X87949524Y-163961266D02*
X87997143Y-163913647D01*
X87997143Y-163913647D02*
X88092381Y-163866028D01*
X88092381Y-163866028D02*
X88330476Y-163866028D01*
X88330476Y-163866028D02*
X88425714Y-163913647D01*
X88425714Y-163913647D02*
X88473333Y-163961266D01*
X88473333Y-163961266D02*
X88520952Y-164056504D01*
X88520952Y-164056504D02*
X88520952Y-164151742D01*
X88520952Y-164151742D02*
X88473333Y-164294599D01*
X88473333Y-164294599D02*
X87901905Y-164866028D01*
X87901905Y-164866028D02*
X88520952Y-164866028D01*
X89378095Y-163866028D02*
X89187619Y-163866028D01*
X89187619Y-163866028D02*
X89092381Y-163913647D01*
X89092381Y-163913647D02*
X89044762Y-163961266D01*
X89044762Y-163961266D02*
X88949524Y-164104123D01*
X88949524Y-164104123D02*
X88901905Y-164294599D01*
X88901905Y-164294599D02*
X88901905Y-164675551D01*
X88901905Y-164675551D02*
X88949524Y-164770789D01*
X88949524Y-164770789D02*
X88997143Y-164818409D01*
X88997143Y-164818409D02*
X89092381Y-164866028D01*
X89092381Y-164866028D02*
X89282857Y-164866028D01*
X89282857Y-164866028D02*
X89378095Y-164818409D01*
X89378095Y-164818409D02*
X89425714Y-164770789D01*
X89425714Y-164770789D02*
X89473333Y-164675551D01*
X89473333Y-164675551D02*
X89473333Y-164437456D01*
X89473333Y-164437456D02*
X89425714Y-164342218D01*
X89425714Y-164342218D02*
X89378095Y-164294599D01*
X89378095Y-164294599D02*
X89282857Y-164246980D01*
X89282857Y-164246980D02*
X89092381Y-164246980D01*
X89092381Y-164246980D02*
X88997143Y-164294599D01*
X88997143Y-164294599D02*
X88949524Y-164342218D01*
X88949524Y-164342218D02*
X88901905Y-164437456D01*
X79068571Y-165952162D02*
X78735238Y-165952162D01*
X78735238Y-166475972D02*
X78735238Y-165475972D01*
X78735238Y-165475972D02*
X79211428Y-165475972D01*
X79592381Y-166380733D02*
X79640000Y-166428353D01*
X79640000Y-166428353D02*
X79592381Y-166475972D01*
X79592381Y-166475972D02*
X79544762Y-166428353D01*
X79544762Y-166428353D02*
X79592381Y-166380733D01*
X79592381Y-166380733D02*
X79592381Y-166475972D01*
X80401904Y-165952162D02*
X80544761Y-165999781D01*
X80544761Y-165999781D02*
X80592380Y-166047400D01*
X80592380Y-166047400D02*
X80639999Y-166142638D01*
X80639999Y-166142638D02*
X80639999Y-166285495D01*
X80639999Y-166285495D02*
X80592380Y-166380733D01*
X80592380Y-166380733D02*
X80544761Y-166428353D01*
X80544761Y-166428353D02*
X80449523Y-166475972D01*
X80449523Y-166475972D02*
X80068571Y-166475972D01*
X80068571Y-166475972D02*
X80068571Y-165475972D01*
X80068571Y-165475972D02*
X80401904Y-165475972D01*
X80401904Y-165475972D02*
X80497142Y-165523591D01*
X80497142Y-165523591D02*
X80544761Y-165571210D01*
X80544761Y-165571210D02*
X80592380Y-165666448D01*
X80592380Y-165666448D02*
X80592380Y-165761686D01*
X80592380Y-165761686D02*
X80544761Y-165856924D01*
X80544761Y-165856924D02*
X80497142Y-165904543D01*
X80497142Y-165904543D02*
X80401904Y-165952162D01*
X80401904Y-165952162D02*
X80068571Y-165952162D01*
X81068571Y-165475972D02*
X81068571Y-166285495D01*
X81068571Y-166285495D02*
X81116190Y-166380733D01*
X81116190Y-166380733D02*
X81163809Y-166428353D01*
X81163809Y-166428353D02*
X81259047Y-166475972D01*
X81259047Y-166475972D02*
X81449523Y-166475972D01*
X81449523Y-166475972D02*
X81544761Y-166428353D01*
X81544761Y-166428353D02*
X81592380Y-166380733D01*
X81592380Y-166380733D02*
X81639999Y-166285495D01*
X81639999Y-166285495D02*
X81639999Y-165475972D01*
X82592380Y-166475972D02*
X82116190Y-166475972D01*
X82116190Y-166475972D02*
X82116190Y-165475972D01*
X83116190Y-165475972D02*
X83306666Y-165475972D01*
X83306666Y-165475972D02*
X83401904Y-165523591D01*
X83401904Y-165523591D02*
X83497142Y-165618829D01*
X83497142Y-165618829D02*
X83544761Y-165809305D01*
X83544761Y-165809305D02*
X83544761Y-166142638D01*
X83544761Y-166142638D02*
X83497142Y-166333114D01*
X83497142Y-166333114D02*
X83401904Y-166428353D01*
X83401904Y-166428353D02*
X83306666Y-166475972D01*
X83306666Y-166475972D02*
X83116190Y-166475972D01*
X83116190Y-166475972D02*
X83020952Y-166428353D01*
X83020952Y-166428353D02*
X82925714Y-166333114D01*
X82925714Y-166333114D02*
X82878095Y-166142638D01*
X82878095Y-166142638D02*
X82878095Y-165809305D01*
X82878095Y-165809305D02*
X82925714Y-165618829D01*
X82925714Y-165618829D02*
X83020952Y-165523591D01*
X83020952Y-165523591D02*
X83116190Y-165475972D01*
X83973333Y-165475972D02*
X83973333Y-166285495D01*
X83973333Y-166285495D02*
X84020952Y-166380733D01*
X84020952Y-166380733D02*
X84068571Y-166428353D01*
X84068571Y-166428353D02*
X84163809Y-166475972D01*
X84163809Y-166475972D02*
X84354285Y-166475972D01*
X84354285Y-166475972D02*
X84449523Y-166428353D01*
X84449523Y-166428353D02*
X84497142Y-166380733D01*
X84497142Y-166380733D02*
X84544761Y-166285495D01*
X84544761Y-166285495D02*
X84544761Y-165475972D01*
X85020952Y-166475972D02*
X85020952Y-165475972D01*
X85020952Y-165475972D02*
X85401904Y-165475972D01*
X85401904Y-165475972D02*
X85497142Y-165523591D01*
X85497142Y-165523591D02*
X85544761Y-165571210D01*
X85544761Y-165571210D02*
X85592380Y-165666448D01*
X85592380Y-165666448D02*
X85592380Y-165809305D01*
X85592380Y-165809305D02*
X85544761Y-165904543D01*
X85544761Y-165904543D02*
X85497142Y-165952162D01*
X85497142Y-165952162D02*
X85401904Y-165999781D01*
X85401904Y-165999781D02*
X85020952Y-165999781D01*
X53100560Y-76257287D02*
X53148179Y-76114430D01*
X53148179Y-76114430D02*
X53148179Y-75876335D01*
X53148179Y-75876335D02*
X53100560Y-75781097D01*
X53100560Y-75781097D02*
X53052940Y-75733478D01*
X53052940Y-75733478D02*
X52957702Y-75685859D01*
X52957702Y-75685859D02*
X52862464Y-75685859D01*
X52862464Y-75685859D02*
X52767226Y-75733478D01*
X52767226Y-75733478D02*
X52719607Y-75781097D01*
X52719607Y-75781097D02*
X52671988Y-75876335D01*
X52671988Y-75876335D02*
X52624369Y-76066811D01*
X52624369Y-76066811D02*
X52576750Y-76162049D01*
X52576750Y-76162049D02*
X52529131Y-76209668D01*
X52529131Y-76209668D02*
X52433893Y-76257287D01*
X52433893Y-76257287D02*
X52338655Y-76257287D01*
X52338655Y-76257287D02*
X52243417Y-76209668D01*
X52243417Y-76209668D02*
X52195798Y-76162049D01*
X52195798Y-76162049D02*
X52148179Y-76066811D01*
X52148179Y-76066811D02*
X52148179Y-75828716D01*
X52148179Y-75828716D02*
X52195798Y-75685859D01*
X53052940Y-74685859D02*
X53100560Y-74733478D01*
X53100560Y-74733478D02*
X53148179Y-74876335D01*
X53148179Y-74876335D02*
X53148179Y-74971573D01*
X53148179Y-74971573D02*
X53100560Y-75114430D01*
X53100560Y-75114430D02*
X53005321Y-75209668D01*
X53005321Y-75209668D02*
X52910083Y-75257287D01*
X52910083Y-75257287D02*
X52719607Y-75304906D01*
X52719607Y-75304906D02*
X52576750Y-75304906D01*
X52576750Y-75304906D02*
X52386274Y-75257287D01*
X52386274Y-75257287D02*
X52291036Y-75209668D01*
X52291036Y-75209668D02*
X52195798Y-75114430D01*
X52195798Y-75114430D02*
X52148179Y-74971573D01*
X52148179Y-74971573D02*
X52148179Y-74876335D01*
X52148179Y-74876335D02*
X52195798Y-74733478D01*
X52195798Y-74733478D02*
X52243417Y-74685859D01*
X52148179Y-74066811D02*
X52148179Y-73876335D01*
X52148179Y-73876335D02*
X52195798Y-73781097D01*
X52195798Y-73781097D02*
X52291036Y-73685859D01*
X52291036Y-73685859D02*
X52481512Y-73638240D01*
X52481512Y-73638240D02*
X52814845Y-73638240D01*
X52814845Y-73638240D02*
X53005321Y-73685859D01*
X53005321Y-73685859D02*
X53100560Y-73781097D01*
X53100560Y-73781097D02*
X53148179Y-73876335D01*
X53148179Y-73876335D02*
X53148179Y-74066811D01*
X53148179Y-74066811D02*
X53100560Y-74162049D01*
X53100560Y-74162049D02*
X53005321Y-74257287D01*
X53005321Y-74257287D02*
X52814845Y-74304906D01*
X52814845Y-74304906D02*
X52481512Y-74304906D01*
X52481512Y-74304906D02*
X52291036Y-74257287D01*
X52291036Y-74257287D02*
X52195798Y-74162049D01*
X52195798Y-74162049D02*
X52148179Y-74066811D01*
X53148179Y-73209668D02*
X52148179Y-73209668D01*
X52148179Y-73209668D02*
X53148179Y-72638240D01*
X53148179Y-72638240D02*
X52148179Y-72638240D01*
X52624369Y-71066811D02*
X52624369Y-71400144D01*
X53148179Y-71400144D02*
X52148179Y-71400144D01*
X52148179Y-71400144D02*
X52148179Y-70923954D01*
X52624369Y-70543001D02*
X52624369Y-70209668D01*
X53148179Y-70066811D02*
X53148179Y-70543001D01*
X53148179Y-70543001D02*
X52148179Y-70543001D01*
X52148179Y-70543001D02*
X52148179Y-70066811D01*
X52624369Y-69638239D02*
X52624369Y-69304906D01*
X53148179Y-69162049D02*
X53148179Y-69638239D01*
X53148179Y-69638239D02*
X52148179Y-69638239D01*
X52148179Y-69638239D02*
X52148179Y-69162049D01*
X53148179Y-68733477D02*
X52148179Y-68733477D01*
X52148179Y-68733477D02*
X52148179Y-68495382D01*
X52148179Y-68495382D02*
X52195798Y-68352525D01*
X52195798Y-68352525D02*
X52291036Y-68257287D01*
X52291036Y-68257287D02*
X52386274Y-68209668D01*
X52386274Y-68209668D02*
X52576750Y-68162049D01*
X52576750Y-68162049D02*
X52719607Y-68162049D01*
X52719607Y-68162049D02*
X52910083Y-68209668D01*
X52910083Y-68209668D02*
X53005321Y-68257287D01*
X53005321Y-68257287D02*
X53100560Y-68352525D01*
X53100560Y-68352525D02*
X53148179Y-68495382D01*
X53148179Y-68495382D02*
X53148179Y-68733477D01*
X52624369Y-67400144D02*
X52671988Y-67257287D01*
X52671988Y-67257287D02*
X52719607Y-67209668D01*
X52719607Y-67209668D02*
X52814845Y-67162049D01*
X52814845Y-67162049D02*
X52957702Y-67162049D01*
X52957702Y-67162049D02*
X53052940Y-67209668D01*
X53052940Y-67209668D02*
X53100560Y-67257287D01*
X53100560Y-67257287D02*
X53148179Y-67352525D01*
X53148179Y-67352525D02*
X53148179Y-67733477D01*
X53148179Y-67733477D02*
X52148179Y-67733477D01*
X52148179Y-67733477D02*
X52148179Y-67400144D01*
X52148179Y-67400144D02*
X52195798Y-67304906D01*
X52195798Y-67304906D02*
X52243417Y-67257287D01*
X52243417Y-67257287D02*
X52338655Y-67209668D01*
X52338655Y-67209668D02*
X52433893Y-67209668D01*
X52433893Y-67209668D02*
X52529131Y-67257287D01*
X52529131Y-67257287D02*
X52576750Y-67304906D01*
X52576750Y-67304906D02*
X52624369Y-67400144D01*
X52624369Y-67400144D02*
X52624369Y-67733477D01*
X52862464Y-66781096D02*
X52862464Y-66304906D01*
X53148179Y-66876334D02*
X52148179Y-66543001D01*
X52148179Y-66543001D02*
X53148179Y-66209668D01*
X53052940Y-65304906D02*
X53100560Y-65352525D01*
X53100560Y-65352525D02*
X53148179Y-65495382D01*
X53148179Y-65495382D02*
X53148179Y-65590620D01*
X53148179Y-65590620D02*
X53100560Y-65733477D01*
X53100560Y-65733477D02*
X53005321Y-65828715D01*
X53005321Y-65828715D02*
X52910083Y-65876334D01*
X52910083Y-65876334D02*
X52719607Y-65923953D01*
X52719607Y-65923953D02*
X52576750Y-65923953D01*
X52576750Y-65923953D02*
X52386274Y-65876334D01*
X52386274Y-65876334D02*
X52291036Y-65828715D01*
X52291036Y-65828715D02*
X52195798Y-65733477D01*
X52195798Y-65733477D02*
X52148179Y-65590620D01*
X52148179Y-65590620D02*
X52148179Y-65495382D01*
X52148179Y-65495382D02*
X52195798Y-65352525D01*
X52195798Y-65352525D02*
X52243417Y-65304906D01*
X53148179Y-64876334D02*
X52148179Y-64876334D01*
X53148179Y-64304906D02*
X52576750Y-64733477D01*
X52148179Y-64304906D02*
X52719607Y-64876334D01*
X53100560Y-105757287D02*
X53148179Y-105614430D01*
X53148179Y-105614430D02*
X53148179Y-105376335D01*
X53148179Y-105376335D02*
X53100560Y-105281097D01*
X53100560Y-105281097D02*
X53052940Y-105233478D01*
X53052940Y-105233478D02*
X52957702Y-105185859D01*
X52957702Y-105185859D02*
X52862464Y-105185859D01*
X52862464Y-105185859D02*
X52767226Y-105233478D01*
X52767226Y-105233478D02*
X52719607Y-105281097D01*
X52719607Y-105281097D02*
X52671988Y-105376335D01*
X52671988Y-105376335D02*
X52624369Y-105566811D01*
X52624369Y-105566811D02*
X52576750Y-105662049D01*
X52576750Y-105662049D02*
X52529131Y-105709668D01*
X52529131Y-105709668D02*
X52433893Y-105757287D01*
X52433893Y-105757287D02*
X52338655Y-105757287D01*
X52338655Y-105757287D02*
X52243417Y-105709668D01*
X52243417Y-105709668D02*
X52195798Y-105662049D01*
X52195798Y-105662049D02*
X52148179Y-105566811D01*
X52148179Y-105566811D02*
X52148179Y-105328716D01*
X52148179Y-105328716D02*
X52195798Y-105185859D01*
X53052940Y-104185859D02*
X53100560Y-104233478D01*
X53100560Y-104233478D02*
X53148179Y-104376335D01*
X53148179Y-104376335D02*
X53148179Y-104471573D01*
X53148179Y-104471573D02*
X53100560Y-104614430D01*
X53100560Y-104614430D02*
X53005321Y-104709668D01*
X53005321Y-104709668D02*
X52910083Y-104757287D01*
X52910083Y-104757287D02*
X52719607Y-104804906D01*
X52719607Y-104804906D02*
X52576750Y-104804906D01*
X52576750Y-104804906D02*
X52386274Y-104757287D01*
X52386274Y-104757287D02*
X52291036Y-104709668D01*
X52291036Y-104709668D02*
X52195798Y-104614430D01*
X52195798Y-104614430D02*
X52148179Y-104471573D01*
X52148179Y-104471573D02*
X52148179Y-104376335D01*
X52148179Y-104376335D02*
X52195798Y-104233478D01*
X52195798Y-104233478D02*
X52243417Y-104185859D01*
X52148179Y-103566811D02*
X52148179Y-103376335D01*
X52148179Y-103376335D02*
X52195798Y-103281097D01*
X52195798Y-103281097D02*
X52291036Y-103185859D01*
X52291036Y-103185859D02*
X52481512Y-103138240D01*
X52481512Y-103138240D02*
X52814845Y-103138240D01*
X52814845Y-103138240D02*
X53005321Y-103185859D01*
X53005321Y-103185859D02*
X53100560Y-103281097D01*
X53100560Y-103281097D02*
X53148179Y-103376335D01*
X53148179Y-103376335D02*
X53148179Y-103566811D01*
X53148179Y-103566811D02*
X53100560Y-103662049D01*
X53100560Y-103662049D02*
X53005321Y-103757287D01*
X53005321Y-103757287D02*
X52814845Y-103804906D01*
X52814845Y-103804906D02*
X52481512Y-103804906D01*
X52481512Y-103804906D02*
X52291036Y-103757287D01*
X52291036Y-103757287D02*
X52195798Y-103662049D01*
X52195798Y-103662049D02*
X52148179Y-103566811D01*
X53148179Y-102709668D02*
X52148179Y-102709668D01*
X52148179Y-102709668D02*
X53148179Y-102138240D01*
X53148179Y-102138240D02*
X52148179Y-102138240D01*
X53148179Y-100900144D02*
X52148179Y-100900144D01*
X52148179Y-100900144D02*
X52148179Y-100519192D01*
X52148179Y-100519192D02*
X52195798Y-100423954D01*
X52195798Y-100423954D02*
X52243417Y-100376335D01*
X52243417Y-100376335D02*
X52338655Y-100328716D01*
X52338655Y-100328716D02*
X52481512Y-100328716D01*
X52481512Y-100328716D02*
X52576750Y-100376335D01*
X52576750Y-100376335D02*
X52624369Y-100423954D01*
X52624369Y-100423954D02*
X52671988Y-100519192D01*
X52671988Y-100519192D02*
X52671988Y-100900144D01*
X52148179Y-99900144D02*
X52957702Y-99900144D01*
X52957702Y-99900144D02*
X53052940Y-99852525D01*
X53052940Y-99852525D02*
X53100560Y-99804906D01*
X53100560Y-99804906D02*
X53148179Y-99709668D01*
X53148179Y-99709668D02*
X53148179Y-99519192D01*
X53148179Y-99519192D02*
X53100560Y-99423954D01*
X53100560Y-99423954D02*
X53052940Y-99376335D01*
X53052940Y-99376335D02*
X52957702Y-99328716D01*
X52957702Y-99328716D02*
X52148179Y-99328716D01*
X53148179Y-98376335D02*
X53148179Y-98852525D01*
X53148179Y-98852525D02*
X52148179Y-98852525D01*
X53100560Y-98090620D02*
X53148179Y-97947763D01*
X53148179Y-97947763D02*
X53148179Y-97709668D01*
X53148179Y-97709668D02*
X53100560Y-97614430D01*
X53100560Y-97614430D02*
X53052940Y-97566811D01*
X53052940Y-97566811D02*
X52957702Y-97519192D01*
X52957702Y-97519192D02*
X52862464Y-97519192D01*
X52862464Y-97519192D02*
X52767226Y-97566811D01*
X52767226Y-97566811D02*
X52719607Y-97614430D01*
X52719607Y-97614430D02*
X52671988Y-97709668D01*
X52671988Y-97709668D02*
X52624369Y-97900144D01*
X52624369Y-97900144D02*
X52576750Y-97995382D01*
X52576750Y-97995382D02*
X52529131Y-98043001D01*
X52529131Y-98043001D02*
X52433893Y-98090620D01*
X52433893Y-98090620D02*
X52338655Y-98090620D01*
X52338655Y-98090620D02*
X52243417Y-98043001D01*
X52243417Y-98043001D02*
X52195798Y-97995382D01*
X52195798Y-97995382D02*
X52148179Y-97900144D01*
X52148179Y-97900144D02*
X52148179Y-97662049D01*
X52148179Y-97662049D02*
X52195798Y-97519192D01*
X52624369Y-97090620D02*
X52624369Y-96757287D01*
X53148179Y-96614430D02*
X53148179Y-97090620D01*
X53148179Y-97090620D02*
X52148179Y-97090620D01*
X52148179Y-97090620D02*
X52148179Y-96614430D01*
X53100560Y-142457287D02*
X53148179Y-142314430D01*
X53148179Y-142314430D02*
X53148179Y-142076335D01*
X53148179Y-142076335D02*
X53100560Y-141981097D01*
X53100560Y-141981097D02*
X53052940Y-141933478D01*
X53052940Y-141933478D02*
X52957702Y-141885859D01*
X52957702Y-141885859D02*
X52862464Y-141885859D01*
X52862464Y-141885859D02*
X52767226Y-141933478D01*
X52767226Y-141933478D02*
X52719607Y-141981097D01*
X52719607Y-141981097D02*
X52671988Y-142076335D01*
X52671988Y-142076335D02*
X52624369Y-142266811D01*
X52624369Y-142266811D02*
X52576750Y-142362049D01*
X52576750Y-142362049D02*
X52529131Y-142409668D01*
X52529131Y-142409668D02*
X52433893Y-142457287D01*
X52433893Y-142457287D02*
X52338655Y-142457287D01*
X52338655Y-142457287D02*
X52243417Y-142409668D01*
X52243417Y-142409668D02*
X52195798Y-142362049D01*
X52195798Y-142362049D02*
X52148179Y-142266811D01*
X52148179Y-142266811D02*
X52148179Y-142028716D01*
X52148179Y-142028716D02*
X52195798Y-141885859D01*
X53052940Y-140885859D02*
X53100560Y-140933478D01*
X53100560Y-140933478D02*
X53148179Y-141076335D01*
X53148179Y-141076335D02*
X53148179Y-141171573D01*
X53148179Y-141171573D02*
X53100560Y-141314430D01*
X53100560Y-141314430D02*
X53005321Y-141409668D01*
X53005321Y-141409668D02*
X52910083Y-141457287D01*
X52910083Y-141457287D02*
X52719607Y-141504906D01*
X52719607Y-141504906D02*
X52576750Y-141504906D01*
X52576750Y-141504906D02*
X52386274Y-141457287D01*
X52386274Y-141457287D02*
X52291036Y-141409668D01*
X52291036Y-141409668D02*
X52195798Y-141314430D01*
X52195798Y-141314430D02*
X52148179Y-141171573D01*
X52148179Y-141171573D02*
X52148179Y-141076335D01*
X52148179Y-141076335D02*
X52195798Y-140933478D01*
X52195798Y-140933478D02*
X52243417Y-140885859D01*
X52148179Y-140266811D02*
X52148179Y-140076335D01*
X52148179Y-140076335D02*
X52195798Y-139981097D01*
X52195798Y-139981097D02*
X52291036Y-139885859D01*
X52291036Y-139885859D02*
X52481512Y-139838240D01*
X52481512Y-139838240D02*
X52814845Y-139838240D01*
X52814845Y-139838240D02*
X53005321Y-139885859D01*
X53005321Y-139885859D02*
X53100560Y-139981097D01*
X53100560Y-139981097D02*
X53148179Y-140076335D01*
X53148179Y-140076335D02*
X53148179Y-140266811D01*
X53148179Y-140266811D02*
X53100560Y-140362049D01*
X53100560Y-140362049D02*
X53005321Y-140457287D01*
X53005321Y-140457287D02*
X52814845Y-140504906D01*
X52814845Y-140504906D02*
X52481512Y-140504906D01*
X52481512Y-140504906D02*
X52291036Y-140457287D01*
X52291036Y-140457287D02*
X52195798Y-140362049D01*
X52195798Y-140362049D02*
X52148179Y-140266811D01*
X53148179Y-139409668D02*
X52148179Y-139409668D01*
X52148179Y-139409668D02*
X53148179Y-138838240D01*
X53148179Y-138838240D02*
X52148179Y-138838240D01*
X53148179Y-137600144D02*
X52148179Y-137600144D01*
X52148179Y-137600144D02*
X52148179Y-137219192D01*
X52148179Y-137219192D02*
X52195798Y-137123954D01*
X52195798Y-137123954D02*
X52243417Y-137076335D01*
X52243417Y-137076335D02*
X52338655Y-137028716D01*
X52338655Y-137028716D02*
X52481512Y-137028716D01*
X52481512Y-137028716D02*
X52576750Y-137076335D01*
X52576750Y-137076335D02*
X52624369Y-137123954D01*
X52624369Y-137123954D02*
X52671988Y-137219192D01*
X52671988Y-137219192D02*
X52671988Y-137600144D01*
X53148179Y-136600144D02*
X52148179Y-136600144D01*
X52148179Y-135933478D02*
X52148179Y-135743002D01*
X52148179Y-135743002D02*
X52195798Y-135647764D01*
X52195798Y-135647764D02*
X52291036Y-135552526D01*
X52291036Y-135552526D02*
X52481512Y-135504907D01*
X52481512Y-135504907D02*
X52814845Y-135504907D01*
X52814845Y-135504907D02*
X53005321Y-135552526D01*
X53005321Y-135552526D02*
X53100560Y-135647764D01*
X53100560Y-135647764D02*
X53148179Y-135743002D01*
X53148179Y-135743002D02*
X53148179Y-135933478D01*
X53148179Y-135933478D02*
X53100560Y-136028716D01*
X53100560Y-136028716D02*
X53005321Y-136123954D01*
X53005321Y-136123954D02*
X52814845Y-136171573D01*
X52814845Y-136171573D02*
X52481512Y-136171573D01*
X52481512Y-136171573D02*
X52291036Y-136123954D01*
X52291036Y-136123954D02*
X52195798Y-136028716D01*
X52195798Y-136028716D02*
X52148179Y-135933478D01*
X108929055Y-58299818D02*
X108929055Y-58776008D01*
X108643340Y-58204580D02*
X109643340Y-58537913D01*
X109643340Y-58537913D02*
X108643340Y-58871246D01*
X108643340Y-59204580D02*
X109643340Y-59204580D01*
X109643340Y-59204580D02*
X109643340Y-59442675D01*
X109643340Y-59442675D02*
X109595721Y-59585532D01*
X109595721Y-59585532D02*
X109500483Y-59680770D01*
X109500483Y-59680770D02*
X109405245Y-59728389D01*
X109405245Y-59728389D02*
X109214769Y-59776008D01*
X109214769Y-59776008D02*
X109071912Y-59776008D01*
X109071912Y-59776008D02*
X108881436Y-59728389D01*
X108881436Y-59728389D02*
X108786198Y-59680770D01*
X108786198Y-59680770D02*
X108690960Y-59585532D01*
X108690960Y-59585532D02*
X108643340Y-59442675D01*
X108643340Y-59442675D02*
X108643340Y-59204580D01*
X109643340Y-60109342D02*
X108643340Y-60347437D01*
X108643340Y-60347437D02*
X109357626Y-60537913D01*
X109357626Y-60537913D02*
X108643340Y-60728389D01*
X108643340Y-60728389D02*
X109643340Y-60966485D01*
X108643340Y-61347437D02*
X109310007Y-61347437D01*
X109643340Y-61347437D02*
X109595721Y-61299818D01*
X109595721Y-61299818D02*
X109548102Y-61347437D01*
X109548102Y-61347437D02*
X109595721Y-61395056D01*
X109595721Y-61395056D02*
X109643340Y-61347437D01*
X109643340Y-61347437D02*
X109548102Y-61347437D01*
X109310007Y-61823627D02*
X108643340Y-61823627D01*
X109214769Y-61823627D02*
X109262388Y-61871246D01*
X109262388Y-61871246D02*
X109310007Y-61966484D01*
X109310007Y-61966484D02*
X109310007Y-62109341D01*
X109310007Y-62109341D02*
X109262388Y-62204579D01*
X109262388Y-62204579D02*
X109167150Y-62252198D01*
X109167150Y-62252198D02*
X108643340Y-62252198D01*
X108738579Y-64061722D02*
X108690960Y-64014103D01*
X108690960Y-64014103D02*
X108643340Y-63871246D01*
X108643340Y-63871246D02*
X108643340Y-63776008D01*
X108643340Y-63776008D02*
X108690960Y-63633151D01*
X108690960Y-63633151D02*
X108786198Y-63537913D01*
X108786198Y-63537913D02*
X108881436Y-63490294D01*
X108881436Y-63490294D02*
X109071912Y-63442675D01*
X109071912Y-63442675D02*
X109214769Y-63442675D01*
X109214769Y-63442675D02*
X109405245Y-63490294D01*
X109405245Y-63490294D02*
X109500483Y-63537913D01*
X109500483Y-63537913D02*
X109595721Y-63633151D01*
X109595721Y-63633151D02*
X109643340Y-63776008D01*
X109643340Y-63776008D02*
X109643340Y-63871246D01*
X109643340Y-63871246D02*
X109595721Y-64014103D01*
X109595721Y-64014103D02*
X109548102Y-64061722D01*
X109643340Y-64680770D02*
X109643340Y-64871246D01*
X109643340Y-64871246D02*
X109595721Y-64966484D01*
X109595721Y-64966484D02*
X109500483Y-65061722D01*
X109500483Y-65061722D02*
X109310007Y-65109341D01*
X109310007Y-65109341D02*
X108976674Y-65109341D01*
X108976674Y-65109341D02*
X108786198Y-65061722D01*
X108786198Y-65061722D02*
X108690960Y-64966484D01*
X108690960Y-64966484D02*
X108643340Y-64871246D01*
X108643340Y-64871246D02*
X108643340Y-64680770D01*
X108643340Y-64680770D02*
X108690960Y-64585532D01*
X108690960Y-64585532D02*
X108786198Y-64490294D01*
X108786198Y-64490294D02*
X108976674Y-64442675D01*
X108976674Y-64442675D02*
X109310007Y-64442675D01*
X109310007Y-64442675D02*
X109500483Y-64490294D01*
X109500483Y-64490294D02*
X109595721Y-64585532D01*
X109595721Y-64585532D02*
X109643340Y-64680770D01*
X109310007Y-65966484D02*
X108643340Y-65966484D01*
X109690960Y-65728389D02*
X108976674Y-65490294D01*
X108976674Y-65490294D02*
X108976674Y-66109341D01*
X109024293Y-66490294D02*
X109024293Y-67252199D01*
X109643340Y-67585532D02*
X109643340Y-68156960D01*
X108643340Y-67871246D02*
X109643340Y-67871246D01*
X108929055Y-80199818D02*
X108929055Y-80676008D01*
X108643340Y-80104580D02*
X109643340Y-80437913D01*
X109643340Y-80437913D02*
X108643340Y-80771246D01*
X108643340Y-81580770D02*
X108643340Y-81104580D01*
X108643340Y-81104580D02*
X109643340Y-81104580D01*
X108643340Y-81914104D02*
X109643340Y-81914104D01*
X108643340Y-82390294D02*
X109643340Y-82390294D01*
X109643340Y-82390294D02*
X108929055Y-82723627D01*
X108929055Y-82723627D02*
X109643340Y-83056960D01*
X109643340Y-83056960D02*
X108643340Y-83056960D01*
X109024293Y-83533151D02*
X109024293Y-84295056D01*
X108643340Y-83914103D02*
X109405245Y-83914103D01*
X109548102Y-84723627D02*
X109595721Y-84771246D01*
X109595721Y-84771246D02*
X109643340Y-84866484D01*
X109643340Y-84866484D02*
X109643340Y-85104579D01*
X109643340Y-85104579D02*
X109595721Y-85199817D01*
X109595721Y-85199817D02*
X109548102Y-85247436D01*
X109548102Y-85247436D02*
X109452864Y-85295055D01*
X109452864Y-85295055D02*
X109357626Y-85295055D01*
X109357626Y-85295055D02*
X109214769Y-85247436D01*
X109214769Y-85247436D02*
X108643340Y-84676008D01*
X108643340Y-84676008D02*
X108643340Y-85295055D01*
X109310007Y-86152198D02*
X108643340Y-86152198D01*
X109690960Y-85914103D02*
X108976674Y-85676008D01*
X108976674Y-85676008D02*
X108976674Y-86295055D01*
X109643340Y-86533151D02*
X108643340Y-86866484D01*
X108643340Y-86866484D02*
X109643340Y-87199817D01*
X108929055Y-131799818D02*
X108929055Y-132276008D01*
X108643340Y-131704580D02*
X109643340Y-132037913D01*
X109643340Y-132037913D02*
X108643340Y-132371246D01*
X108643340Y-132704580D02*
X109643340Y-132704580D01*
X109643340Y-132704580D02*
X109643340Y-132942675D01*
X109643340Y-132942675D02*
X109595721Y-133085532D01*
X109595721Y-133085532D02*
X109500483Y-133180770D01*
X109500483Y-133180770D02*
X109405245Y-133228389D01*
X109405245Y-133228389D02*
X109214769Y-133276008D01*
X109214769Y-133276008D02*
X109071912Y-133276008D01*
X109071912Y-133276008D02*
X108881436Y-133228389D01*
X108881436Y-133228389D02*
X108786198Y-133180770D01*
X108786198Y-133180770D02*
X108690960Y-133085532D01*
X108690960Y-133085532D02*
X108643340Y-132942675D01*
X108643340Y-132942675D02*
X108643340Y-132704580D01*
X109643340Y-133609342D02*
X108643340Y-133847437D01*
X108643340Y-133847437D02*
X109357626Y-134037913D01*
X109357626Y-134037913D02*
X108643340Y-134228389D01*
X108643340Y-134228389D02*
X109643340Y-134466485D01*
X108643340Y-134847437D02*
X109310007Y-134847437D01*
X109643340Y-134847437D02*
X109595721Y-134799818D01*
X109595721Y-134799818D02*
X109548102Y-134847437D01*
X109548102Y-134847437D02*
X109595721Y-134895056D01*
X109595721Y-134895056D02*
X109643340Y-134847437D01*
X109643340Y-134847437D02*
X109548102Y-134847437D01*
X109310007Y-135323627D02*
X108643340Y-135323627D01*
X109214769Y-135323627D02*
X109262388Y-135371246D01*
X109262388Y-135371246D02*
X109310007Y-135466484D01*
X109310007Y-135466484D02*
X109310007Y-135609341D01*
X109310007Y-135609341D02*
X109262388Y-135704579D01*
X109262388Y-135704579D02*
X109167150Y-135752198D01*
X109167150Y-135752198D02*
X108643340Y-135752198D01*
X109024293Y-136990294D02*
X109024293Y-137752199D01*
X108643340Y-138990294D02*
X109643340Y-138990294D01*
X109643340Y-138990294D02*
X109643340Y-139228389D01*
X109643340Y-139228389D02*
X109595721Y-139371246D01*
X109595721Y-139371246D02*
X109500483Y-139466484D01*
X109500483Y-139466484D02*
X109405245Y-139514103D01*
X109405245Y-139514103D02*
X109214769Y-139561722D01*
X109214769Y-139561722D02*
X109071912Y-139561722D01*
X109071912Y-139561722D02*
X108881436Y-139514103D01*
X108881436Y-139514103D02*
X108786198Y-139466484D01*
X108786198Y-139466484D02*
X108690960Y-139371246D01*
X108690960Y-139371246D02*
X108643340Y-139228389D01*
X108643340Y-139228389D02*
X108643340Y-138990294D01*
X108643340Y-139990294D02*
X109643340Y-139990294D01*
X109643340Y-140656960D02*
X109643340Y-140847436D01*
X109643340Y-140847436D02*
X109595721Y-140942674D01*
X109595721Y-140942674D02*
X109500483Y-141037912D01*
X109500483Y-141037912D02*
X109310007Y-141085531D01*
X109310007Y-141085531D02*
X108976674Y-141085531D01*
X108976674Y-141085531D02*
X108786198Y-141037912D01*
X108786198Y-141037912D02*
X108690960Y-140942674D01*
X108690960Y-140942674D02*
X108643340Y-140847436D01*
X108643340Y-140847436D02*
X108643340Y-140656960D01*
X108643340Y-140656960D02*
X108690960Y-140561722D01*
X108690960Y-140561722D02*
X108786198Y-140466484D01*
X108786198Y-140466484D02*
X108976674Y-140418865D01*
X108976674Y-140418865D02*
X109310007Y-140418865D01*
X109310007Y-140418865D02*
X109500483Y-140466484D01*
X109500483Y-140466484D02*
X109595721Y-140561722D01*
X109595721Y-140561722D02*
X109643340Y-140656960D01*
X109643340Y-141418865D02*
X109643340Y-142037912D01*
X109643340Y-142037912D02*
X109262388Y-141704579D01*
X109262388Y-141704579D02*
X109262388Y-141847436D01*
X109262388Y-141847436D02*
X109214769Y-141942674D01*
X109214769Y-141942674D02*
X109167150Y-141990293D01*
X109167150Y-141990293D02*
X109071912Y-142037912D01*
X109071912Y-142037912D02*
X108833817Y-142037912D01*
X108833817Y-142037912D02*
X108738579Y-141990293D01*
X108738579Y-141990293D02*
X108690960Y-141942674D01*
X108690960Y-141942674D02*
X108643340Y-141847436D01*
X108643340Y-141847436D02*
X108643340Y-141561722D01*
X108643340Y-141561722D02*
X108690960Y-141466484D01*
X108690960Y-141466484D02*
X108738579Y-141418865D01*
X109548102Y-142418865D02*
X109595721Y-142466484D01*
X109595721Y-142466484D02*
X109643340Y-142561722D01*
X109643340Y-142561722D02*
X109643340Y-142799817D01*
X109643340Y-142799817D02*
X109595721Y-142895055D01*
X109595721Y-142895055D02*
X109548102Y-142942674D01*
X109548102Y-142942674D02*
X109452864Y-142990293D01*
X109452864Y-142990293D02*
X109357626Y-142990293D01*
X109357626Y-142990293D02*
X109214769Y-142942674D01*
X109214769Y-142942674D02*
X108643340Y-142371246D01*
X108643340Y-142371246D02*
X108643340Y-142990293D01*
D11*
X100275292Y-51098372D02*
X100275292Y-51812657D01*
X100275292Y-51812657D02*
X100227673Y-51955514D01*
X100227673Y-51955514D02*
X100132435Y-52050753D01*
X100132435Y-52050753D02*
X99989578Y-52098372D01*
X99989578Y-52098372D02*
X99894340Y-52098372D01*
X101180054Y-51098372D02*
X100989578Y-51098372D01*
X100989578Y-51098372D02*
X100894340Y-51145991D01*
X100894340Y-51145991D02*
X100846721Y-51193610D01*
X100846721Y-51193610D02*
X100751483Y-51336467D01*
X100751483Y-51336467D02*
X100703864Y-51526943D01*
X100703864Y-51526943D02*
X100703864Y-51907895D01*
X100703864Y-51907895D02*
X100751483Y-52003133D01*
X100751483Y-52003133D02*
X100799102Y-52050753D01*
X100799102Y-52050753D02*
X100894340Y-52098372D01*
X100894340Y-52098372D02*
X101084816Y-52098372D01*
X101084816Y-52098372D02*
X101180054Y-52050753D01*
X101180054Y-52050753D02*
X101227673Y-52003133D01*
X101227673Y-52003133D02*
X101275292Y-51907895D01*
X101275292Y-51907895D02*
X101275292Y-51669800D01*
X101275292Y-51669800D02*
X101227673Y-51574562D01*
X101227673Y-51574562D02*
X101180054Y-51526943D01*
X101180054Y-51526943D02*
X101084816Y-51479324D01*
X101084816Y-51479324D02*
X100894340Y-51479324D01*
X100894340Y-51479324D02*
X100799102Y-51526943D01*
X100799102Y-51526943D02*
X100751483Y-51574562D01*
X100751483Y-51574562D02*
X100703864Y-51669800D01*
X74437142Y-143688372D02*
X74103809Y-143212181D01*
X73865714Y-143688372D02*
X73865714Y-142688372D01*
X73865714Y-142688372D02*
X74246666Y-142688372D01*
X74246666Y-142688372D02*
X74341904Y-142735991D01*
X74341904Y-142735991D02*
X74389523Y-142783610D01*
X74389523Y-142783610D02*
X74437142Y-142878848D01*
X74437142Y-142878848D02*
X74437142Y-143021705D01*
X74437142Y-143021705D02*
X74389523Y-143116943D01*
X74389523Y-143116943D02*
X74341904Y-143164562D01*
X74341904Y-143164562D02*
X74246666Y-143212181D01*
X74246666Y-143212181D02*
X73865714Y-143212181D01*
X75389523Y-143688372D02*
X74818095Y-143688372D01*
X75103809Y-143688372D02*
X75103809Y-142688372D01*
X75103809Y-142688372D02*
X75008571Y-142831229D01*
X75008571Y-142831229D02*
X74913333Y-142926467D01*
X74913333Y-142926467D02*
X74818095Y-142974086D01*
X76294285Y-142688372D02*
X75818095Y-142688372D01*
X75818095Y-142688372D02*
X75770476Y-143164562D01*
X75770476Y-143164562D02*
X75818095Y-143116943D01*
X75818095Y-143116943D02*
X75913333Y-143069324D01*
X75913333Y-143069324D02*
X76151428Y-143069324D01*
X76151428Y-143069324D02*
X76246666Y-143116943D01*
X76246666Y-143116943D02*
X76294285Y-143164562D01*
X76294285Y-143164562D02*
X76341904Y-143259800D01*
X76341904Y-143259800D02*
X76341904Y-143497895D01*
X76341904Y-143497895D02*
X76294285Y-143593133D01*
X76294285Y-143593133D02*
X76246666Y-143640753D01*
X76246666Y-143640753D02*
X76151428Y-143688372D01*
X76151428Y-143688372D02*
X75913333Y-143688372D01*
X75913333Y-143688372D02*
X75818095Y-143640753D01*
X75818095Y-143640753D02*
X75770476Y-143593133D01*
X89803333Y-117763133D02*
X89755714Y-117810753D01*
X89755714Y-117810753D02*
X89612857Y-117858372D01*
X89612857Y-117858372D02*
X89517619Y-117858372D01*
X89517619Y-117858372D02*
X89374762Y-117810753D01*
X89374762Y-117810753D02*
X89279524Y-117715514D01*
X89279524Y-117715514D02*
X89231905Y-117620276D01*
X89231905Y-117620276D02*
X89184286Y-117429800D01*
X89184286Y-117429800D02*
X89184286Y-117286943D01*
X89184286Y-117286943D02*
X89231905Y-117096467D01*
X89231905Y-117096467D02*
X89279524Y-117001229D01*
X89279524Y-117001229D02*
X89374762Y-116905991D01*
X89374762Y-116905991D02*
X89517619Y-116858372D01*
X89517619Y-116858372D02*
X89612857Y-116858372D01*
X89612857Y-116858372D02*
X89755714Y-116905991D01*
X89755714Y-116905991D02*
X89803333Y-116953610D01*
X90184286Y-116953610D02*
X90231905Y-116905991D01*
X90231905Y-116905991D02*
X90327143Y-116858372D01*
X90327143Y-116858372D02*
X90565238Y-116858372D01*
X90565238Y-116858372D02*
X90660476Y-116905991D01*
X90660476Y-116905991D02*
X90708095Y-116953610D01*
X90708095Y-116953610D02*
X90755714Y-117048848D01*
X90755714Y-117048848D02*
X90755714Y-117144086D01*
X90755714Y-117144086D02*
X90708095Y-117286943D01*
X90708095Y-117286943D02*
X90136667Y-117858372D01*
X90136667Y-117858372D02*
X90755714Y-117858372D01*
X93266666Y-83554819D02*
X93266666Y-84269104D01*
X93266666Y-84269104D02*
X93219047Y-84411961D01*
X93219047Y-84411961D02*
X93123809Y-84507200D01*
X93123809Y-84507200D02*
X92980952Y-84554819D01*
X92980952Y-84554819D02*
X92885714Y-84554819D01*
X94266666Y-84554819D02*
X93695238Y-84554819D01*
X93980952Y-84554819D02*
X93980952Y-83554819D01*
X93980952Y-83554819D02*
X93885714Y-83697676D01*
X93885714Y-83697676D02*
X93790476Y-83792914D01*
X93790476Y-83792914D02*
X93695238Y-83840533D01*
X93047142Y-134058372D02*
X92713809Y-133582181D01*
X92475714Y-134058372D02*
X92475714Y-133058372D01*
X92475714Y-133058372D02*
X92856666Y-133058372D01*
X92856666Y-133058372D02*
X92951904Y-133105991D01*
X92951904Y-133105991D02*
X92999523Y-133153610D01*
X92999523Y-133153610D02*
X93047142Y-133248848D01*
X93047142Y-133248848D02*
X93047142Y-133391705D01*
X93047142Y-133391705D02*
X92999523Y-133486943D01*
X92999523Y-133486943D02*
X92951904Y-133534562D01*
X92951904Y-133534562D02*
X92856666Y-133582181D01*
X92856666Y-133582181D02*
X92475714Y-133582181D01*
X93999523Y-134058372D02*
X93428095Y-134058372D01*
X93713809Y-134058372D02*
X93713809Y-133058372D01*
X93713809Y-133058372D02*
X93618571Y-133201229D01*
X93618571Y-133201229D02*
X93523333Y-133296467D01*
X93523333Y-133296467D02*
X93428095Y-133344086D01*
X94380476Y-133153610D02*
X94428095Y-133105991D01*
X94428095Y-133105991D02*
X94523333Y-133058372D01*
X94523333Y-133058372D02*
X94761428Y-133058372D01*
X94761428Y-133058372D02*
X94856666Y-133105991D01*
X94856666Y-133105991D02*
X94904285Y-133153610D01*
X94904285Y-133153610D02*
X94951904Y-133248848D01*
X94951904Y-133248848D02*
X94951904Y-133344086D01*
X94951904Y-133344086D02*
X94904285Y-133486943D01*
X94904285Y-133486943D02*
X94332857Y-134058372D01*
X94332857Y-134058372D02*
X94951904Y-134058372D01*
X83033333Y-90959580D02*
X82985714Y-91007200D01*
X82985714Y-91007200D02*
X82842857Y-91054819D01*
X82842857Y-91054819D02*
X82747619Y-91054819D01*
X82747619Y-91054819D02*
X82604762Y-91007200D01*
X82604762Y-91007200D02*
X82509524Y-90911961D01*
X82509524Y-90911961D02*
X82461905Y-90816723D01*
X82461905Y-90816723D02*
X82414286Y-90626247D01*
X82414286Y-90626247D02*
X82414286Y-90483390D01*
X82414286Y-90483390D02*
X82461905Y-90292914D01*
X82461905Y-90292914D02*
X82509524Y-90197676D01*
X82509524Y-90197676D02*
X82604762Y-90102438D01*
X82604762Y-90102438D02*
X82747619Y-90054819D01*
X82747619Y-90054819D02*
X82842857Y-90054819D01*
X82842857Y-90054819D02*
X82985714Y-90102438D01*
X82985714Y-90102438D02*
X83033333Y-90150057D01*
X83985714Y-91054819D02*
X83414286Y-91054819D01*
X83700000Y-91054819D02*
X83700000Y-90054819D01*
X83700000Y-90054819D02*
X83604762Y-90197676D01*
X83604762Y-90197676D02*
X83509524Y-90292914D01*
X83509524Y-90292914D02*
X83414286Y-90340533D01*
X74647142Y-158388372D02*
X74313809Y-157912181D01*
X74075714Y-158388372D02*
X74075714Y-157388372D01*
X74075714Y-157388372D02*
X74456666Y-157388372D01*
X74456666Y-157388372D02*
X74551904Y-157435991D01*
X74551904Y-157435991D02*
X74599523Y-157483610D01*
X74599523Y-157483610D02*
X74647142Y-157578848D01*
X74647142Y-157578848D02*
X74647142Y-157721705D01*
X74647142Y-157721705D02*
X74599523Y-157816943D01*
X74599523Y-157816943D02*
X74551904Y-157864562D01*
X74551904Y-157864562D02*
X74456666Y-157912181D01*
X74456666Y-157912181D02*
X74075714Y-157912181D01*
X75599523Y-158388372D02*
X75028095Y-158388372D01*
X75313809Y-158388372D02*
X75313809Y-157388372D01*
X75313809Y-157388372D02*
X75218571Y-157531229D01*
X75218571Y-157531229D02*
X75123333Y-157626467D01*
X75123333Y-157626467D02*
X75028095Y-157674086D01*
X76170952Y-157816943D02*
X76075714Y-157769324D01*
X76075714Y-157769324D02*
X76028095Y-157721705D01*
X76028095Y-157721705D02*
X75980476Y-157626467D01*
X75980476Y-157626467D02*
X75980476Y-157578848D01*
X75980476Y-157578848D02*
X76028095Y-157483610D01*
X76028095Y-157483610D02*
X76075714Y-157435991D01*
X76075714Y-157435991D02*
X76170952Y-157388372D01*
X76170952Y-157388372D02*
X76361428Y-157388372D01*
X76361428Y-157388372D02*
X76456666Y-157435991D01*
X76456666Y-157435991D02*
X76504285Y-157483610D01*
X76504285Y-157483610D02*
X76551904Y-157578848D01*
X76551904Y-157578848D02*
X76551904Y-157626467D01*
X76551904Y-157626467D02*
X76504285Y-157721705D01*
X76504285Y-157721705D02*
X76456666Y-157769324D01*
X76456666Y-157769324D02*
X76361428Y-157816943D01*
X76361428Y-157816943D02*
X76170952Y-157816943D01*
X76170952Y-157816943D02*
X76075714Y-157864562D01*
X76075714Y-157864562D02*
X76028095Y-157912181D01*
X76028095Y-157912181D02*
X75980476Y-158007419D01*
X75980476Y-158007419D02*
X75980476Y-158197895D01*
X75980476Y-158197895D02*
X76028095Y-158293133D01*
X76028095Y-158293133D02*
X76075714Y-158340753D01*
X76075714Y-158340753D02*
X76170952Y-158388372D01*
X76170952Y-158388372D02*
X76361428Y-158388372D01*
X76361428Y-158388372D02*
X76456666Y-158340753D01*
X76456666Y-158340753D02*
X76504285Y-158293133D01*
X76504285Y-158293133D02*
X76551904Y-158197895D01*
X76551904Y-158197895D02*
X76551904Y-158007419D01*
X76551904Y-158007419D02*
X76504285Y-157912181D01*
X76504285Y-157912181D02*
X76456666Y-157864562D01*
X76456666Y-157864562D02*
X76361428Y-157816943D01*
X73111959Y-78428372D02*
X72778626Y-77952181D01*
X72540531Y-78428372D02*
X72540531Y-77428372D01*
X72540531Y-77428372D02*
X72921483Y-77428372D01*
X72921483Y-77428372D02*
X73016721Y-77475991D01*
X73016721Y-77475991D02*
X73064340Y-77523610D01*
X73064340Y-77523610D02*
X73111959Y-77618848D01*
X73111959Y-77618848D02*
X73111959Y-77761705D01*
X73111959Y-77761705D02*
X73064340Y-77856943D01*
X73064340Y-77856943D02*
X73016721Y-77904562D01*
X73016721Y-77904562D02*
X72921483Y-77952181D01*
X72921483Y-77952181D02*
X72540531Y-77952181D01*
X73445293Y-77428372D02*
X74111959Y-77428372D01*
X74111959Y-77428372D02*
X73683388Y-78428372D01*
X92077142Y-161059263D02*
X91743809Y-160583072D01*
X91505714Y-161059263D02*
X91505714Y-160059263D01*
X91505714Y-160059263D02*
X91886666Y-160059263D01*
X91886666Y-160059263D02*
X91981904Y-160106882D01*
X91981904Y-160106882D02*
X92029523Y-160154501D01*
X92029523Y-160154501D02*
X92077142Y-160249739D01*
X92077142Y-160249739D02*
X92077142Y-160392596D01*
X92077142Y-160392596D02*
X92029523Y-160487834D01*
X92029523Y-160487834D02*
X91981904Y-160535453D01*
X91981904Y-160535453D02*
X91886666Y-160583072D01*
X91886666Y-160583072D02*
X91505714Y-160583072D01*
X92458095Y-160154501D02*
X92505714Y-160106882D01*
X92505714Y-160106882D02*
X92600952Y-160059263D01*
X92600952Y-160059263D02*
X92839047Y-160059263D01*
X92839047Y-160059263D02*
X92934285Y-160106882D01*
X92934285Y-160106882D02*
X92981904Y-160154501D01*
X92981904Y-160154501D02*
X93029523Y-160249739D01*
X93029523Y-160249739D02*
X93029523Y-160344977D01*
X93029523Y-160344977D02*
X92981904Y-160487834D01*
X92981904Y-160487834D02*
X92410476Y-161059263D01*
X92410476Y-161059263D02*
X93029523Y-161059263D01*
X93410476Y-160154501D02*
X93458095Y-160106882D01*
X93458095Y-160106882D02*
X93553333Y-160059263D01*
X93553333Y-160059263D02*
X93791428Y-160059263D01*
X93791428Y-160059263D02*
X93886666Y-160106882D01*
X93886666Y-160106882D02*
X93934285Y-160154501D01*
X93934285Y-160154501D02*
X93981904Y-160249739D01*
X93981904Y-160249739D02*
X93981904Y-160344977D01*
X93981904Y-160344977D02*
X93934285Y-160487834D01*
X93934285Y-160487834D02*
X93362857Y-161059263D01*
X93362857Y-161059263D02*
X93981904Y-161059263D01*
X101856666Y-107554819D02*
X101856666Y-108269104D01*
X101856666Y-108269104D02*
X101809047Y-108411961D01*
X101809047Y-108411961D02*
X101713809Y-108507200D01*
X101713809Y-108507200D02*
X101570952Y-108554819D01*
X101570952Y-108554819D02*
X101475714Y-108554819D01*
X102285238Y-107650057D02*
X102332857Y-107602438D01*
X102332857Y-107602438D02*
X102428095Y-107554819D01*
X102428095Y-107554819D02*
X102666190Y-107554819D01*
X102666190Y-107554819D02*
X102761428Y-107602438D01*
X102761428Y-107602438D02*
X102809047Y-107650057D01*
X102809047Y-107650057D02*
X102856666Y-107745295D01*
X102856666Y-107745295D02*
X102856666Y-107840533D01*
X102856666Y-107840533D02*
X102809047Y-107983390D01*
X102809047Y-107983390D02*
X102237619Y-108554819D01*
X102237619Y-108554819D02*
X102856666Y-108554819D01*
X91557142Y-79354819D02*
X91223809Y-78878628D01*
X90985714Y-79354819D02*
X90985714Y-78354819D01*
X90985714Y-78354819D02*
X91366666Y-78354819D01*
X91366666Y-78354819D02*
X91461904Y-78402438D01*
X91461904Y-78402438D02*
X91509523Y-78450057D01*
X91509523Y-78450057D02*
X91557142Y-78545295D01*
X91557142Y-78545295D02*
X91557142Y-78688152D01*
X91557142Y-78688152D02*
X91509523Y-78783390D01*
X91509523Y-78783390D02*
X91461904Y-78831009D01*
X91461904Y-78831009D02*
X91366666Y-78878628D01*
X91366666Y-78878628D02*
X90985714Y-78878628D01*
X91938095Y-78450057D02*
X91985714Y-78402438D01*
X91985714Y-78402438D02*
X92080952Y-78354819D01*
X92080952Y-78354819D02*
X92319047Y-78354819D01*
X92319047Y-78354819D02*
X92414285Y-78402438D01*
X92414285Y-78402438D02*
X92461904Y-78450057D01*
X92461904Y-78450057D02*
X92509523Y-78545295D01*
X92509523Y-78545295D02*
X92509523Y-78640533D01*
X92509523Y-78640533D02*
X92461904Y-78783390D01*
X92461904Y-78783390D02*
X91890476Y-79354819D01*
X91890476Y-79354819D02*
X92509523Y-79354819D01*
X93366666Y-78688152D02*
X93366666Y-79354819D01*
X93128571Y-78307200D02*
X92890476Y-79021485D01*
X92890476Y-79021485D02*
X93509523Y-79021485D01*
X106361905Y-75154819D02*
X106361905Y-74154819D01*
X106361905Y-74154819D02*
X106600000Y-74154819D01*
X106600000Y-74154819D02*
X106742857Y-74202438D01*
X106742857Y-74202438D02*
X106838095Y-74297676D01*
X106838095Y-74297676D02*
X106885714Y-74392914D01*
X106885714Y-74392914D02*
X106933333Y-74583390D01*
X106933333Y-74583390D02*
X106933333Y-74726247D01*
X106933333Y-74726247D02*
X106885714Y-74916723D01*
X106885714Y-74916723D02*
X106838095Y-75011961D01*
X106838095Y-75011961D02*
X106742857Y-75107200D01*
X106742857Y-75107200D02*
X106600000Y-75154819D01*
X106600000Y-75154819D02*
X106361905Y-75154819D01*
X107266667Y-74154819D02*
X107885714Y-74154819D01*
X107885714Y-74154819D02*
X107552381Y-74535771D01*
X107552381Y-74535771D02*
X107695238Y-74535771D01*
X107695238Y-74535771D02*
X107790476Y-74583390D01*
X107790476Y-74583390D02*
X107838095Y-74631009D01*
X107838095Y-74631009D02*
X107885714Y-74726247D01*
X107885714Y-74726247D02*
X107885714Y-74964342D01*
X107885714Y-74964342D02*
X107838095Y-75059580D01*
X107838095Y-75059580D02*
X107790476Y-75107200D01*
X107790476Y-75107200D02*
X107695238Y-75154819D01*
X107695238Y-75154819D02*
X107409524Y-75154819D01*
X107409524Y-75154819D02*
X107314286Y-75107200D01*
X107314286Y-75107200D02*
X107266667Y-75059580D01*
X78608095Y-139628372D02*
X78608095Y-140437895D01*
X78608095Y-140437895D02*
X78655714Y-140533133D01*
X78655714Y-140533133D02*
X78703333Y-140580753D01*
X78703333Y-140580753D02*
X78798571Y-140628372D01*
X78798571Y-140628372D02*
X78989047Y-140628372D01*
X78989047Y-140628372D02*
X79084285Y-140580753D01*
X79084285Y-140580753D02*
X79131904Y-140533133D01*
X79131904Y-140533133D02*
X79179523Y-140437895D01*
X79179523Y-140437895D02*
X79179523Y-139628372D01*
X79560476Y-139628372D02*
X80179523Y-139628372D01*
X80179523Y-139628372D02*
X79846190Y-140009324D01*
X79846190Y-140009324D02*
X79989047Y-140009324D01*
X79989047Y-140009324D02*
X80084285Y-140056943D01*
X80084285Y-140056943D02*
X80131904Y-140104562D01*
X80131904Y-140104562D02*
X80179523Y-140199800D01*
X80179523Y-140199800D02*
X80179523Y-140437895D01*
X80179523Y-140437895D02*
X80131904Y-140533133D01*
X80131904Y-140533133D02*
X80084285Y-140580753D01*
X80084285Y-140580753D02*
X79989047Y-140628372D01*
X79989047Y-140628372D02*
X79703333Y-140628372D01*
X79703333Y-140628372D02*
X79608095Y-140580753D01*
X79608095Y-140580753D02*
X79560476Y-140533133D01*
X106461905Y-91854819D02*
X106461905Y-90854819D01*
X106461905Y-90854819D02*
X106700000Y-90854819D01*
X106700000Y-90854819D02*
X106842857Y-90902438D01*
X106842857Y-90902438D02*
X106938095Y-90997676D01*
X106938095Y-90997676D02*
X106985714Y-91092914D01*
X106985714Y-91092914D02*
X107033333Y-91283390D01*
X107033333Y-91283390D02*
X107033333Y-91426247D01*
X107033333Y-91426247D02*
X106985714Y-91616723D01*
X106985714Y-91616723D02*
X106938095Y-91711961D01*
X106938095Y-91711961D02*
X106842857Y-91807200D01*
X106842857Y-91807200D02*
X106700000Y-91854819D01*
X106700000Y-91854819D02*
X106461905Y-91854819D01*
X107414286Y-90950057D02*
X107461905Y-90902438D01*
X107461905Y-90902438D02*
X107557143Y-90854819D01*
X107557143Y-90854819D02*
X107795238Y-90854819D01*
X107795238Y-90854819D02*
X107890476Y-90902438D01*
X107890476Y-90902438D02*
X107938095Y-90950057D01*
X107938095Y-90950057D02*
X107985714Y-91045295D01*
X107985714Y-91045295D02*
X107985714Y-91140533D01*
X107985714Y-91140533D02*
X107938095Y-91283390D01*
X107938095Y-91283390D02*
X107366667Y-91854819D01*
X107366667Y-91854819D02*
X107985714Y-91854819D01*
X69531959Y-52258372D02*
X69198626Y-51782181D01*
X68960531Y-52258372D02*
X68960531Y-51258372D01*
X68960531Y-51258372D02*
X69341483Y-51258372D01*
X69341483Y-51258372D02*
X69436721Y-51305991D01*
X69436721Y-51305991D02*
X69484340Y-51353610D01*
X69484340Y-51353610D02*
X69531959Y-51448848D01*
X69531959Y-51448848D02*
X69531959Y-51591705D01*
X69531959Y-51591705D02*
X69484340Y-51686943D01*
X69484340Y-51686943D02*
X69436721Y-51734562D01*
X69436721Y-51734562D02*
X69341483Y-51782181D01*
X69341483Y-51782181D02*
X68960531Y-51782181D01*
X70436721Y-51258372D02*
X69960531Y-51258372D01*
X69960531Y-51258372D02*
X69912912Y-51734562D01*
X69912912Y-51734562D02*
X69960531Y-51686943D01*
X69960531Y-51686943D02*
X70055769Y-51639324D01*
X70055769Y-51639324D02*
X70293864Y-51639324D01*
X70293864Y-51639324D02*
X70389102Y-51686943D01*
X70389102Y-51686943D02*
X70436721Y-51734562D01*
X70436721Y-51734562D02*
X70484340Y-51829800D01*
X70484340Y-51829800D02*
X70484340Y-52067895D01*
X70484340Y-52067895D02*
X70436721Y-52163133D01*
X70436721Y-52163133D02*
X70389102Y-52210753D01*
X70389102Y-52210753D02*
X70293864Y-52258372D01*
X70293864Y-52258372D02*
X70055769Y-52258372D01*
X70055769Y-52258372D02*
X69960531Y-52210753D01*
X69960531Y-52210753D02*
X69912912Y-52163133D01*
X69431959Y-74358372D02*
X69098626Y-73882181D01*
X68860531Y-74358372D02*
X68860531Y-73358372D01*
X68860531Y-73358372D02*
X69241483Y-73358372D01*
X69241483Y-73358372D02*
X69336721Y-73405991D01*
X69336721Y-73405991D02*
X69384340Y-73453610D01*
X69384340Y-73453610D02*
X69431959Y-73548848D01*
X69431959Y-73548848D02*
X69431959Y-73691705D01*
X69431959Y-73691705D02*
X69384340Y-73786943D01*
X69384340Y-73786943D02*
X69336721Y-73834562D01*
X69336721Y-73834562D02*
X69241483Y-73882181D01*
X69241483Y-73882181D02*
X68860531Y-73882181D01*
X70289102Y-73358372D02*
X70098626Y-73358372D01*
X70098626Y-73358372D02*
X70003388Y-73405991D01*
X70003388Y-73405991D02*
X69955769Y-73453610D01*
X69955769Y-73453610D02*
X69860531Y-73596467D01*
X69860531Y-73596467D02*
X69812912Y-73786943D01*
X69812912Y-73786943D02*
X69812912Y-74167895D01*
X69812912Y-74167895D02*
X69860531Y-74263133D01*
X69860531Y-74263133D02*
X69908150Y-74310753D01*
X69908150Y-74310753D02*
X70003388Y-74358372D01*
X70003388Y-74358372D02*
X70193864Y-74358372D01*
X70193864Y-74358372D02*
X70289102Y-74310753D01*
X70289102Y-74310753D02*
X70336721Y-74263133D01*
X70336721Y-74263133D02*
X70384340Y-74167895D01*
X70384340Y-74167895D02*
X70384340Y-73929800D01*
X70384340Y-73929800D02*
X70336721Y-73834562D01*
X70336721Y-73834562D02*
X70289102Y-73786943D01*
X70289102Y-73786943D02*
X70193864Y-73739324D01*
X70193864Y-73739324D02*
X70003388Y-73739324D01*
X70003388Y-73739324D02*
X69908150Y-73786943D01*
X69908150Y-73786943D02*
X69860531Y-73834562D01*
X69860531Y-73834562D02*
X69812912Y-73929800D01*
X93047142Y-125058372D02*
X92713809Y-124582181D01*
X92475714Y-125058372D02*
X92475714Y-124058372D01*
X92475714Y-124058372D02*
X92856666Y-124058372D01*
X92856666Y-124058372D02*
X92951904Y-124105991D01*
X92951904Y-124105991D02*
X92999523Y-124153610D01*
X92999523Y-124153610D02*
X93047142Y-124248848D01*
X93047142Y-124248848D02*
X93047142Y-124391705D01*
X93047142Y-124391705D02*
X92999523Y-124486943D01*
X92999523Y-124486943D02*
X92951904Y-124534562D01*
X92951904Y-124534562D02*
X92856666Y-124582181D01*
X92856666Y-124582181D02*
X92475714Y-124582181D01*
X93999523Y-125058372D02*
X93428095Y-125058372D01*
X93713809Y-125058372D02*
X93713809Y-124058372D01*
X93713809Y-124058372D02*
X93618571Y-124201229D01*
X93618571Y-124201229D02*
X93523333Y-124296467D01*
X93523333Y-124296467D02*
X93428095Y-124344086D01*
X94856666Y-124391705D02*
X94856666Y-125058372D01*
X94618571Y-124010753D02*
X94380476Y-124725038D01*
X94380476Y-124725038D02*
X94999523Y-124725038D01*
X89775768Y-71558372D02*
X89442435Y-71082181D01*
X89204340Y-71558372D02*
X89204340Y-70558372D01*
X89204340Y-70558372D02*
X89585292Y-70558372D01*
X89585292Y-70558372D02*
X89680530Y-70605991D01*
X89680530Y-70605991D02*
X89728149Y-70653610D01*
X89728149Y-70653610D02*
X89775768Y-70748848D01*
X89775768Y-70748848D02*
X89775768Y-70891705D01*
X89775768Y-70891705D02*
X89728149Y-70986943D01*
X89728149Y-70986943D02*
X89680530Y-71034562D01*
X89680530Y-71034562D02*
X89585292Y-71082181D01*
X89585292Y-71082181D02*
X89204340Y-71082181D01*
X90728149Y-71558372D02*
X90156721Y-71558372D01*
X90442435Y-71558372D02*
X90442435Y-70558372D01*
X90442435Y-70558372D02*
X90347197Y-70701229D01*
X90347197Y-70701229D02*
X90251959Y-70796467D01*
X90251959Y-70796467D02*
X90156721Y-70844086D01*
X91347197Y-70558372D02*
X91442435Y-70558372D01*
X91442435Y-70558372D02*
X91537673Y-70605991D01*
X91537673Y-70605991D02*
X91585292Y-70653610D01*
X91585292Y-70653610D02*
X91632911Y-70748848D01*
X91632911Y-70748848D02*
X91680530Y-70939324D01*
X91680530Y-70939324D02*
X91680530Y-71177419D01*
X91680530Y-71177419D02*
X91632911Y-71367895D01*
X91632911Y-71367895D02*
X91585292Y-71463133D01*
X91585292Y-71463133D02*
X91537673Y-71510753D01*
X91537673Y-71510753D02*
X91442435Y-71558372D01*
X91442435Y-71558372D02*
X91347197Y-71558372D01*
X91347197Y-71558372D02*
X91251959Y-71510753D01*
X91251959Y-71510753D02*
X91204340Y-71463133D01*
X91204340Y-71463133D02*
X91156721Y-71367895D01*
X91156721Y-71367895D02*
X91109102Y-71177419D01*
X91109102Y-71177419D02*
X91109102Y-70939324D01*
X91109102Y-70939324D02*
X91156721Y-70748848D01*
X91156721Y-70748848D02*
X91204340Y-70653610D01*
X91204340Y-70653610D02*
X91251959Y-70605991D01*
X91251959Y-70605991D02*
X91347197Y-70558372D01*
X87633333Y-95054819D02*
X87300000Y-94578628D01*
X87061905Y-95054819D02*
X87061905Y-94054819D01*
X87061905Y-94054819D02*
X87442857Y-94054819D01*
X87442857Y-94054819D02*
X87538095Y-94102438D01*
X87538095Y-94102438D02*
X87585714Y-94150057D01*
X87585714Y-94150057D02*
X87633333Y-94245295D01*
X87633333Y-94245295D02*
X87633333Y-94388152D01*
X87633333Y-94388152D02*
X87585714Y-94483390D01*
X87585714Y-94483390D02*
X87538095Y-94531009D01*
X87538095Y-94531009D02*
X87442857Y-94578628D01*
X87442857Y-94578628D02*
X87061905Y-94578628D01*
X88585714Y-95054819D02*
X88014286Y-95054819D01*
X88300000Y-95054819D02*
X88300000Y-94054819D01*
X88300000Y-94054819D02*
X88204762Y-94197676D01*
X88204762Y-94197676D02*
X88109524Y-94292914D01*
X88109524Y-94292914D02*
X88014286Y-94340533D01*
X61365292Y-51358372D02*
X61365292Y-52072657D01*
X61365292Y-52072657D02*
X61317673Y-52215514D01*
X61317673Y-52215514D02*
X61222435Y-52310753D01*
X61222435Y-52310753D02*
X61079578Y-52358372D01*
X61079578Y-52358372D02*
X60984340Y-52358372D01*
X61746245Y-51358372D02*
X62365292Y-51358372D01*
X62365292Y-51358372D02*
X62031959Y-51739324D01*
X62031959Y-51739324D02*
X62174816Y-51739324D01*
X62174816Y-51739324D02*
X62270054Y-51786943D01*
X62270054Y-51786943D02*
X62317673Y-51834562D01*
X62317673Y-51834562D02*
X62365292Y-51929800D01*
X62365292Y-51929800D02*
X62365292Y-52167895D01*
X62365292Y-52167895D02*
X62317673Y-52263133D01*
X62317673Y-52263133D02*
X62270054Y-52310753D01*
X62270054Y-52310753D02*
X62174816Y-52358372D01*
X62174816Y-52358372D02*
X61889102Y-52358372D01*
X61889102Y-52358372D02*
X61793864Y-52310753D01*
X61793864Y-52310753D02*
X61746245Y-52263133D01*
X89991959Y-58378372D02*
X89658626Y-57902181D01*
X89420531Y-58378372D02*
X89420531Y-57378372D01*
X89420531Y-57378372D02*
X89801483Y-57378372D01*
X89801483Y-57378372D02*
X89896721Y-57425991D01*
X89896721Y-57425991D02*
X89944340Y-57473610D01*
X89944340Y-57473610D02*
X89991959Y-57568848D01*
X89991959Y-57568848D02*
X89991959Y-57711705D01*
X89991959Y-57711705D02*
X89944340Y-57806943D01*
X89944340Y-57806943D02*
X89896721Y-57854562D01*
X89896721Y-57854562D02*
X89801483Y-57902181D01*
X89801483Y-57902181D02*
X89420531Y-57902181D01*
X90563388Y-57806943D02*
X90468150Y-57759324D01*
X90468150Y-57759324D02*
X90420531Y-57711705D01*
X90420531Y-57711705D02*
X90372912Y-57616467D01*
X90372912Y-57616467D02*
X90372912Y-57568848D01*
X90372912Y-57568848D02*
X90420531Y-57473610D01*
X90420531Y-57473610D02*
X90468150Y-57425991D01*
X90468150Y-57425991D02*
X90563388Y-57378372D01*
X90563388Y-57378372D02*
X90753864Y-57378372D01*
X90753864Y-57378372D02*
X90849102Y-57425991D01*
X90849102Y-57425991D02*
X90896721Y-57473610D01*
X90896721Y-57473610D02*
X90944340Y-57568848D01*
X90944340Y-57568848D02*
X90944340Y-57616467D01*
X90944340Y-57616467D02*
X90896721Y-57711705D01*
X90896721Y-57711705D02*
X90849102Y-57759324D01*
X90849102Y-57759324D02*
X90753864Y-57806943D01*
X90753864Y-57806943D02*
X90563388Y-57806943D01*
X90563388Y-57806943D02*
X90468150Y-57854562D01*
X90468150Y-57854562D02*
X90420531Y-57902181D01*
X90420531Y-57902181D02*
X90372912Y-57997419D01*
X90372912Y-57997419D02*
X90372912Y-58187895D01*
X90372912Y-58187895D02*
X90420531Y-58283133D01*
X90420531Y-58283133D02*
X90468150Y-58330753D01*
X90468150Y-58330753D02*
X90563388Y-58378372D01*
X90563388Y-58378372D02*
X90753864Y-58378372D01*
X90753864Y-58378372D02*
X90849102Y-58330753D01*
X90849102Y-58330753D02*
X90896721Y-58283133D01*
X90896721Y-58283133D02*
X90944340Y-58187895D01*
X90944340Y-58187895D02*
X90944340Y-57997419D01*
X90944340Y-57997419D02*
X90896721Y-57902181D01*
X90896721Y-57902181D02*
X90849102Y-57854562D01*
X90849102Y-57854562D02*
X90753864Y-57806943D01*
X92177142Y-155759263D02*
X91843809Y-155283072D01*
X91605714Y-155759263D02*
X91605714Y-154759263D01*
X91605714Y-154759263D02*
X91986666Y-154759263D01*
X91986666Y-154759263D02*
X92081904Y-154806882D01*
X92081904Y-154806882D02*
X92129523Y-154854501D01*
X92129523Y-154854501D02*
X92177142Y-154949739D01*
X92177142Y-154949739D02*
X92177142Y-155092596D01*
X92177142Y-155092596D02*
X92129523Y-155187834D01*
X92129523Y-155187834D02*
X92081904Y-155235453D01*
X92081904Y-155235453D02*
X91986666Y-155283072D01*
X91986666Y-155283072D02*
X91605714Y-155283072D01*
X92558095Y-154854501D02*
X92605714Y-154806882D01*
X92605714Y-154806882D02*
X92700952Y-154759263D01*
X92700952Y-154759263D02*
X92939047Y-154759263D01*
X92939047Y-154759263D02*
X93034285Y-154806882D01*
X93034285Y-154806882D02*
X93081904Y-154854501D01*
X93081904Y-154854501D02*
X93129523Y-154949739D01*
X93129523Y-154949739D02*
X93129523Y-155044977D01*
X93129523Y-155044977D02*
X93081904Y-155187834D01*
X93081904Y-155187834D02*
X92510476Y-155759263D01*
X92510476Y-155759263D02*
X93129523Y-155759263D01*
X94081904Y-155759263D02*
X93510476Y-155759263D01*
X93796190Y-155759263D02*
X93796190Y-154759263D01*
X93796190Y-154759263D02*
X93700952Y-154902120D01*
X93700952Y-154902120D02*
X93605714Y-154997358D01*
X93605714Y-154997358D02*
X93510476Y-155044977D01*
X92051959Y-66658372D02*
X91718626Y-66182181D01*
X91480531Y-66658372D02*
X91480531Y-65658372D01*
X91480531Y-65658372D02*
X91861483Y-65658372D01*
X91861483Y-65658372D02*
X91956721Y-65705991D01*
X91956721Y-65705991D02*
X92004340Y-65753610D01*
X92004340Y-65753610D02*
X92051959Y-65848848D01*
X92051959Y-65848848D02*
X92051959Y-65991705D01*
X92051959Y-65991705D02*
X92004340Y-66086943D01*
X92004340Y-66086943D02*
X91956721Y-66134562D01*
X91956721Y-66134562D02*
X91861483Y-66182181D01*
X91861483Y-66182181D02*
X91480531Y-66182181D01*
X92528150Y-66658372D02*
X92718626Y-66658372D01*
X92718626Y-66658372D02*
X92813864Y-66610753D01*
X92813864Y-66610753D02*
X92861483Y-66563133D01*
X92861483Y-66563133D02*
X92956721Y-66420276D01*
X92956721Y-66420276D02*
X93004340Y-66229800D01*
X93004340Y-66229800D02*
X93004340Y-65848848D01*
X93004340Y-65848848D02*
X92956721Y-65753610D01*
X92956721Y-65753610D02*
X92909102Y-65705991D01*
X92909102Y-65705991D02*
X92813864Y-65658372D01*
X92813864Y-65658372D02*
X92623388Y-65658372D01*
X92623388Y-65658372D02*
X92528150Y-65705991D01*
X92528150Y-65705991D02*
X92480531Y-65753610D01*
X92480531Y-65753610D02*
X92432912Y-65848848D01*
X92432912Y-65848848D02*
X92432912Y-66086943D01*
X92432912Y-66086943D02*
X92480531Y-66182181D01*
X92480531Y-66182181D02*
X92528150Y-66229800D01*
X92528150Y-66229800D02*
X92623388Y-66277419D01*
X92623388Y-66277419D02*
X92813864Y-66277419D01*
X92813864Y-66277419D02*
X92909102Y-66229800D01*
X92909102Y-66229800D02*
X92956721Y-66182181D01*
X92956721Y-66182181D02*
X93004340Y-66086943D01*
X91977142Y-146059263D02*
X91643809Y-145583072D01*
X91405714Y-146059263D02*
X91405714Y-145059263D01*
X91405714Y-145059263D02*
X91786666Y-145059263D01*
X91786666Y-145059263D02*
X91881904Y-145106882D01*
X91881904Y-145106882D02*
X91929523Y-145154501D01*
X91929523Y-145154501D02*
X91977142Y-145249739D01*
X91977142Y-145249739D02*
X91977142Y-145392596D01*
X91977142Y-145392596D02*
X91929523Y-145487834D01*
X91929523Y-145487834D02*
X91881904Y-145535453D01*
X91881904Y-145535453D02*
X91786666Y-145583072D01*
X91786666Y-145583072D02*
X91405714Y-145583072D01*
X92929523Y-146059263D02*
X92358095Y-146059263D01*
X92643809Y-146059263D02*
X92643809Y-145059263D01*
X92643809Y-145059263D02*
X92548571Y-145202120D01*
X92548571Y-145202120D02*
X92453333Y-145297358D01*
X92453333Y-145297358D02*
X92358095Y-145344977D01*
X93405714Y-146059263D02*
X93596190Y-146059263D01*
X93596190Y-146059263D02*
X93691428Y-146011644D01*
X93691428Y-146011644D02*
X93739047Y-145964024D01*
X93739047Y-145964024D02*
X93834285Y-145821167D01*
X93834285Y-145821167D02*
X93881904Y-145630691D01*
X93881904Y-145630691D02*
X93881904Y-145249739D01*
X93881904Y-145249739D02*
X93834285Y-145154501D01*
X93834285Y-145154501D02*
X93786666Y-145106882D01*
X93786666Y-145106882D02*
X93691428Y-145059263D01*
X93691428Y-145059263D02*
X93500952Y-145059263D01*
X93500952Y-145059263D02*
X93405714Y-145106882D01*
X93405714Y-145106882D02*
X93358095Y-145154501D01*
X93358095Y-145154501D02*
X93310476Y-145249739D01*
X93310476Y-145249739D02*
X93310476Y-145487834D01*
X93310476Y-145487834D02*
X93358095Y-145583072D01*
X93358095Y-145583072D02*
X93405714Y-145630691D01*
X93405714Y-145630691D02*
X93500952Y-145678310D01*
X93500952Y-145678310D02*
X93691428Y-145678310D01*
X93691428Y-145678310D02*
X93786666Y-145630691D01*
X93786666Y-145630691D02*
X93834285Y-145583072D01*
X93834285Y-145583072D02*
X93881904Y-145487834D01*
X92177142Y-150859263D02*
X91843809Y-150383072D01*
X91605714Y-150859263D02*
X91605714Y-149859263D01*
X91605714Y-149859263D02*
X91986666Y-149859263D01*
X91986666Y-149859263D02*
X92081904Y-149906882D01*
X92081904Y-149906882D02*
X92129523Y-149954501D01*
X92129523Y-149954501D02*
X92177142Y-150049739D01*
X92177142Y-150049739D02*
X92177142Y-150192596D01*
X92177142Y-150192596D02*
X92129523Y-150287834D01*
X92129523Y-150287834D02*
X92081904Y-150335453D01*
X92081904Y-150335453D02*
X91986666Y-150383072D01*
X91986666Y-150383072D02*
X91605714Y-150383072D01*
X92558095Y-149954501D02*
X92605714Y-149906882D01*
X92605714Y-149906882D02*
X92700952Y-149859263D01*
X92700952Y-149859263D02*
X92939047Y-149859263D01*
X92939047Y-149859263D02*
X93034285Y-149906882D01*
X93034285Y-149906882D02*
X93081904Y-149954501D01*
X93081904Y-149954501D02*
X93129523Y-150049739D01*
X93129523Y-150049739D02*
X93129523Y-150144977D01*
X93129523Y-150144977D02*
X93081904Y-150287834D01*
X93081904Y-150287834D02*
X92510476Y-150859263D01*
X92510476Y-150859263D02*
X93129523Y-150859263D01*
X93748571Y-149859263D02*
X93843809Y-149859263D01*
X93843809Y-149859263D02*
X93939047Y-149906882D01*
X93939047Y-149906882D02*
X93986666Y-149954501D01*
X93986666Y-149954501D02*
X94034285Y-150049739D01*
X94034285Y-150049739D02*
X94081904Y-150240215D01*
X94081904Y-150240215D02*
X94081904Y-150478310D01*
X94081904Y-150478310D02*
X94034285Y-150668786D01*
X94034285Y-150668786D02*
X93986666Y-150764024D01*
X93986666Y-150764024D02*
X93939047Y-150811644D01*
X93939047Y-150811644D02*
X93843809Y-150859263D01*
X93843809Y-150859263D02*
X93748571Y-150859263D01*
X93748571Y-150859263D02*
X93653333Y-150811644D01*
X93653333Y-150811644D02*
X93605714Y-150764024D01*
X93605714Y-150764024D02*
X93558095Y-150668786D01*
X93558095Y-150668786D02*
X93510476Y-150478310D01*
X93510476Y-150478310D02*
X93510476Y-150240215D01*
X93510476Y-150240215D02*
X93558095Y-150049739D01*
X93558095Y-150049739D02*
X93605714Y-149954501D01*
X93605714Y-149954501D02*
X93653333Y-149906882D01*
X93653333Y-149906882D02*
X93748571Y-149859263D01*
X88633333Y-81159580D02*
X88585714Y-81207200D01*
X88585714Y-81207200D02*
X88442857Y-81254819D01*
X88442857Y-81254819D02*
X88347619Y-81254819D01*
X88347619Y-81254819D02*
X88204762Y-81207200D01*
X88204762Y-81207200D02*
X88109524Y-81111961D01*
X88109524Y-81111961D02*
X88061905Y-81016723D01*
X88061905Y-81016723D02*
X88014286Y-80826247D01*
X88014286Y-80826247D02*
X88014286Y-80683390D01*
X88014286Y-80683390D02*
X88061905Y-80492914D01*
X88061905Y-80492914D02*
X88109524Y-80397676D01*
X88109524Y-80397676D02*
X88204762Y-80302438D01*
X88204762Y-80302438D02*
X88347619Y-80254819D01*
X88347619Y-80254819D02*
X88442857Y-80254819D01*
X88442857Y-80254819D02*
X88585714Y-80302438D01*
X88585714Y-80302438D02*
X88633333Y-80350057D01*
X89538095Y-80254819D02*
X89061905Y-80254819D01*
X89061905Y-80254819D02*
X89014286Y-80731009D01*
X89014286Y-80731009D02*
X89061905Y-80683390D01*
X89061905Y-80683390D02*
X89157143Y-80635771D01*
X89157143Y-80635771D02*
X89395238Y-80635771D01*
X89395238Y-80635771D02*
X89490476Y-80683390D01*
X89490476Y-80683390D02*
X89538095Y-80731009D01*
X89538095Y-80731009D02*
X89585714Y-80826247D01*
X89585714Y-80826247D02*
X89585714Y-81064342D01*
X89585714Y-81064342D02*
X89538095Y-81159580D01*
X89538095Y-81159580D02*
X89490476Y-81207200D01*
X89490476Y-81207200D02*
X89395238Y-81254819D01*
X89395238Y-81254819D02*
X89157143Y-81254819D01*
X89157143Y-81254819D02*
X89061905Y-81207200D01*
X89061905Y-81207200D02*
X89014286Y-81159580D01*
X76626721Y-51388372D02*
X76626721Y-52197895D01*
X76626721Y-52197895D02*
X76674340Y-52293133D01*
X76674340Y-52293133D02*
X76721959Y-52340753D01*
X76721959Y-52340753D02*
X76817197Y-52388372D01*
X76817197Y-52388372D02*
X77007673Y-52388372D01*
X77007673Y-52388372D02*
X77102911Y-52340753D01*
X77102911Y-52340753D02*
X77150530Y-52293133D01*
X77150530Y-52293133D02*
X77198149Y-52197895D01*
X77198149Y-52197895D02*
X77198149Y-51388372D01*
X77626721Y-51483610D02*
X77674340Y-51435991D01*
X77674340Y-51435991D02*
X77769578Y-51388372D01*
X77769578Y-51388372D02*
X78007673Y-51388372D01*
X78007673Y-51388372D02*
X78102911Y-51435991D01*
X78102911Y-51435991D02*
X78150530Y-51483610D01*
X78150530Y-51483610D02*
X78198149Y-51578848D01*
X78198149Y-51578848D02*
X78198149Y-51674086D01*
X78198149Y-51674086D02*
X78150530Y-51816943D01*
X78150530Y-51816943D02*
X77579102Y-52388372D01*
X77579102Y-52388372D02*
X78198149Y-52388372D01*
X74637142Y-148488372D02*
X74303809Y-148012181D01*
X74065714Y-148488372D02*
X74065714Y-147488372D01*
X74065714Y-147488372D02*
X74446666Y-147488372D01*
X74446666Y-147488372D02*
X74541904Y-147535991D01*
X74541904Y-147535991D02*
X74589523Y-147583610D01*
X74589523Y-147583610D02*
X74637142Y-147678848D01*
X74637142Y-147678848D02*
X74637142Y-147821705D01*
X74637142Y-147821705D02*
X74589523Y-147916943D01*
X74589523Y-147916943D02*
X74541904Y-147964562D01*
X74541904Y-147964562D02*
X74446666Y-148012181D01*
X74446666Y-148012181D02*
X74065714Y-148012181D01*
X75589523Y-148488372D02*
X75018095Y-148488372D01*
X75303809Y-148488372D02*
X75303809Y-147488372D01*
X75303809Y-147488372D02*
X75208571Y-147631229D01*
X75208571Y-147631229D02*
X75113333Y-147726467D01*
X75113333Y-147726467D02*
X75018095Y-147774086D01*
X76446666Y-147488372D02*
X76256190Y-147488372D01*
X76256190Y-147488372D02*
X76160952Y-147535991D01*
X76160952Y-147535991D02*
X76113333Y-147583610D01*
X76113333Y-147583610D02*
X76018095Y-147726467D01*
X76018095Y-147726467D02*
X75970476Y-147916943D01*
X75970476Y-147916943D02*
X75970476Y-148297895D01*
X75970476Y-148297895D02*
X76018095Y-148393133D01*
X76018095Y-148393133D02*
X76065714Y-148440753D01*
X76065714Y-148440753D02*
X76160952Y-148488372D01*
X76160952Y-148488372D02*
X76351428Y-148488372D01*
X76351428Y-148488372D02*
X76446666Y-148440753D01*
X76446666Y-148440753D02*
X76494285Y-148393133D01*
X76494285Y-148393133D02*
X76541904Y-148297895D01*
X76541904Y-148297895D02*
X76541904Y-148059800D01*
X76541904Y-148059800D02*
X76494285Y-147964562D01*
X76494285Y-147964562D02*
X76446666Y-147916943D01*
X76446666Y-147916943D02*
X76351428Y-147869324D01*
X76351428Y-147869324D02*
X76160952Y-147869324D01*
X76160952Y-147869324D02*
X76065714Y-147916943D01*
X76065714Y-147916943D02*
X76018095Y-147964562D01*
X76018095Y-147964562D02*
X75970476Y-148059800D01*
X70831959Y-80963133D02*
X70784340Y-81010753D01*
X70784340Y-81010753D02*
X70641483Y-81058372D01*
X70641483Y-81058372D02*
X70546245Y-81058372D01*
X70546245Y-81058372D02*
X70403388Y-81010753D01*
X70403388Y-81010753D02*
X70308150Y-80915514D01*
X70308150Y-80915514D02*
X70260531Y-80820276D01*
X70260531Y-80820276D02*
X70212912Y-80629800D01*
X70212912Y-80629800D02*
X70212912Y-80486943D01*
X70212912Y-80486943D02*
X70260531Y-80296467D01*
X70260531Y-80296467D02*
X70308150Y-80201229D01*
X70308150Y-80201229D02*
X70403388Y-80105991D01*
X70403388Y-80105991D02*
X70546245Y-80058372D01*
X70546245Y-80058372D02*
X70641483Y-80058372D01*
X70641483Y-80058372D02*
X70784340Y-80105991D01*
X70784340Y-80105991D02*
X70831959Y-80153610D01*
X71689102Y-80391705D02*
X71689102Y-81058372D01*
X71451007Y-80010753D02*
X71212912Y-80725038D01*
X71212912Y-80725038D02*
X71831959Y-80725038D01*
X82031959Y-114158372D02*
X81698626Y-113682181D01*
X81460531Y-114158372D02*
X81460531Y-113158372D01*
X81460531Y-113158372D02*
X81841483Y-113158372D01*
X81841483Y-113158372D02*
X81936721Y-113205991D01*
X81936721Y-113205991D02*
X81984340Y-113253610D01*
X81984340Y-113253610D02*
X82031959Y-113348848D01*
X82031959Y-113348848D02*
X82031959Y-113491705D01*
X82031959Y-113491705D02*
X81984340Y-113586943D01*
X81984340Y-113586943D02*
X81936721Y-113634562D01*
X81936721Y-113634562D02*
X81841483Y-113682181D01*
X81841483Y-113682181D02*
X81460531Y-113682181D01*
X82889102Y-113491705D02*
X82889102Y-114158372D01*
X82651007Y-113110753D02*
X82412912Y-113825038D01*
X82412912Y-113825038D02*
X83031959Y-113825038D01*
X74737142Y-153488372D02*
X74403809Y-153012181D01*
X74165714Y-153488372D02*
X74165714Y-152488372D01*
X74165714Y-152488372D02*
X74546666Y-152488372D01*
X74546666Y-152488372D02*
X74641904Y-152535991D01*
X74641904Y-152535991D02*
X74689523Y-152583610D01*
X74689523Y-152583610D02*
X74737142Y-152678848D01*
X74737142Y-152678848D02*
X74737142Y-152821705D01*
X74737142Y-152821705D02*
X74689523Y-152916943D01*
X74689523Y-152916943D02*
X74641904Y-152964562D01*
X74641904Y-152964562D02*
X74546666Y-153012181D01*
X74546666Y-153012181D02*
X74165714Y-153012181D01*
X75689523Y-153488372D02*
X75118095Y-153488372D01*
X75403809Y-153488372D02*
X75403809Y-152488372D01*
X75403809Y-152488372D02*
X75308571Y-152631229D01*
X75308571Y-152631229D02*
X75213333Y-152726467D01*
X75213333Y-152726467D02*
X75118095Y-152774086D01*
X76022857Y-152488372D02*
X76689523Y-152488372D01*
X76689523Y-152488372D02*
X76260952Y-153488372D01*
X93047142Y-138058372D02*
X92713809Y-137582181D01*
X92475714Y-138058372D02*
X92475714Y-137058372D01*
X92475714Y-137058372D02*
X92856666Y-137058372D01*
X92856666Y-137058372D02*
X92951904Y-137105991D01*
X92951904Y-137105991D02*
X92999523Y-137153610D01*
X92999523Y-137153610D02*
X93047142Y-137248848D01*
X93047142Y-137248848D02*
X93047142Y-137391705D01*
X93047142Y-137391705D02*
X92999523Y-137486943D01*
X92999523Y-137486943D02*
X92951904Y-137534562D01*
X92951904Y-137534562D02*
X92856666Y-137582181D01*
X92856666Y-137582181D02*
X92475714Y-137582181D01*
X93999523Y-138058372D02*
X93428095Y-138058372D01*
X93713809Y-138058372D02*
X93713809Y-137058372D01*
X93713809Y-137058372D02*
X93618571Y-137201229D01*
X93618571Y-137201229D02*
X93523333Y-137296467D01*
X93523333Y-137296467D02*
X93428095Y-137344086D01*
X94951904Y-138058372D02*
X94380476Y-138058372D01*
X94666190Y-138058372D02*
X94666190Y-137058372D01*
X94666190Y-137058372D02*
X94570952Y-137201229D01*
X94570952Y-137201229D02*
X94475714Y-137296467D01*
X94475714Y-137296467D02*
X94380476Y-137344086D01*
X86531959Y-51963133D02*
X86484340Y-52010753D01*
X86484340Y-52010753D02*
X86341483Y-52058372D01*
X86341483Y-52058372D02*
X86246245Y-52058372D01*
X86246245Y-52058372D02*
X86103388Y-52010753D01*
X86103388Y-52010753D02*
X86008150Y-51915514D01*
X86008150Y-51915514D02*
X85960531Y-51820276D01*
X85960531Y-51820276D02*
X85912912Y-51629800D01*
X85912912Y-51629800D02*
X85912912Y-51486943D01*
X85912912Y-51486943D02*
X85960531Y-51296467D01*
X85960531Y-51296467D02*
X86008150Y-51201229D01*
X86008150Y-51201229D02*
X86103388Y-51105991D01*
X86103388Y-51105991D02*
X86246245Y-51058372D01*
X86246245Y-51058372D02*
X86341483Y-51058372D01*
X86341483Y-51058372D02*
X86484340Y-51105991D01*
X86484340Y-51105991D02*
X86531959Y-51153610D01*
X86865293Y-51058372D02*
X87484340Y-51058372D01*
X87484340Y-51058372D02*
X87151007Y-51439324D01*
X87151007Y-51439324D02*
X87293864Y-51439324D01*
X87293864Y-51439324D02*
X87389102Y-51486943D01*
X87389102Y-51486943D02*
X87436721Y-51534562D01*
X87436721Y-51534562D02*
X87484340Y-51629800D01*
X87484340Y-51629800D02*
X87484340Y-51867895D01*
X87484340Y-51867895D02*
X87436721Y-51963133D01*
X87436721Y-51963133D02*
X87389102Y-52010753D01*
X87389102Y-52010753D02*
X87293864Y-52058372D01*
X87293864Y-52058372D02*
X87008150Y-52058372D01*
X87008150Y-52058372D02*
X86912912Y-52010753D01*
X86912912Y-52010753D02*
X86865293Y-51963133D01*
X74136721Y-79358372D02*
X74136721Y-80167895D01*
X74136721Y-80167895D02*
X74184340Y-80263133D01*
X74184340Y-80263133D02*
X74231959Y-80310753D01*
X74231959Y-80310753D02*
X74327197Y-80358372D01*
X74327197Y-80358372D02*
X74517673Y-80358372D01*
X74517673Y-80358372D02*
X74612911Y-80310753D01*
X74612911Y-80310753D02*
X74660530Y-80263133D01*
X74660530Y-80263133D02*
X74708149Y-80167895D01*
X74708149Y-80167895D02*
X74708149Y-79358372D01*
X75612911Y-79691705D02*
X75612911Y-80358372D01*
X75374816Y-79310753D02*
X75136721Y-80025038D01*
X75136721Y-80025038D02*
X75755768Y-80025038D01*
X93047142Y-129358372D02*
X92713809Y-128882181D01*
X92475714Y-129358372D02*
X92475714Y-128358372D01*
X92475714Y-128358372D02*
X92856666Y-128358372D01*
X92856666Y-128358372D02*
X92951904Y-128405991D01*
X92951904Y-128405991D02*
X92999523Y-128453610D01*
X92999523Y-128453610D02*
X93047142Y-128548848D01*
X93047142Y-128548848D02*
X93047142Y-128691705D01*
X93047142Y-128691705D02*
X92999523Y-128786943D01*
X92999523Y-128786943D02*
X92951904Y-128834562D01*
X92951904Y-128834562D02*
X92856666Y-128882181D01*
X92856666Y-128882181D02*
X92475714Y-128882181D01*
X93999523Y-129358372D02*
X93428095Y-129358372D01*
X93713809Y-129358372D02*
X93713809Y-128358372D01*
X93713809Y-128358372D02*
X93618571Y-128501229D01*
X93618571Y-128501229D02*
X93523333Y-128596467D01*
X93523333Y-128596467D02*
X93428095Y-128644086D01*
X94332857Y-128358372D02*
X94951904Y-128358372D01*
X94951904Y-128358372D02*
X94618571Y-128739324D01*
X94618571Y-128739324D02*
X94761428Y-128739324D01*
X94761428Y-128739324D02*
X94856666Y-128786943D01*
X94856666Y-128786943D02*
X94904285Y-128834562D01*
X94904285Y-128834562D02*
X94951904Y-128929800D01*
X94951904Y-128929800D02*
X94951904Y-129167895D01*
X94951904Y-129167895D02*
X94904285Y-129263133D01*
X94904285Y-129263133D02*
X94856666Y-129310753D01*
X94856666Y-129310753D02*
X94761428Y-129358372D01*
X94761428Y-129358372D02*
X94475714Y-129358372D01*
X94475714Y-129358372D02*
X94380476Y-129310753D01*
X94380476Y-129310753D02*
X94332857Y-129263133D01*
X91457142Y-91054819D02*
X91123809Y-90578628D01*
X90885714Y-91054819D02*
X90885714Y-90054819D01*
X90885714Y-90054819D02*
X91266666Y-90054819D01*
X91266666Y-90054819D02*
X91361904Y-90102438D01*
X91361904Y-90102438D02*
X91409523Y-90150057D01*
X91409523Y-90150057D02*
X91457142Y-90245295D01*
X91457142Y-90245295D02*
X91457142Y-90388152D01*
X91457142Y-90388152D02*
X91409523Y-90483390D01*
X91409523Y-90483390D02*
X91361904Y-90531009D01*
X91361904Y-90531009D02*
X91266666Y-90578628D01*
X91266666Y-90578628D02*
X90885714Y-90578628D01*
X91838095Y-90150057D02*
X91885714Y-90102438D01*
X91885714Y-90102438D02*
X91980952Y-90054819D01*
X91980952Y-90054819D02*
X92219047Y-90054819D01*
X92219047Y-90054819D02*
X92314285Y-90102438D01*
X92314285Y-90102438D02*
X92361904Y-90150057D01*
X92361904Y-90150057D02*
X92409523Y-90245295D01*
X92409523Y-90245295D02*
X92409523Y-90340533D01*
X92409523Y-90340533D02*
X92361904Y-90483390D01*
X92361904Y-90483390D02*
X91790476Y-91054819D01*
X91790476Y-91054819D02*
X92409523Y-91054819D01*
X92742857Y-90054819D02*
X93361904Y-90054819D01*
X93361904Y-90054819D02*
X93028571Y-90435771D01*
X93028571Y-90435771D02*
X93171428Y-90435771D01*
X93171428Y-90435771D02*
X93266666Y-90483390D01*
X93266666Y-90483390D02*
X93314285Y-90531009D01*
X93314285Y-90531009D02*
X93361904Y-90626247D01*
X93361904Y-90626247D02*
X93361904Y-90864342D01*
X93361904Y-90864342D02*
X93314285Y-90959580D01*
X93314285Y-90959580D02*
X93266666Y-91007200D01*
X93266666Y-91007200D02*
X93171428Y-91054819D01*
X93171428Y-91054819D02*
X92885714Y-91054819D01*
X92885714Y-91054819D02*
X92790476Y-91007200D01*
X92790476Y-91007200D02*
X92742857Y-90959580D01*
X87933333Y-103354819D02*
X87600000Y-102878628D01*
X87361905Y-103354819D02*
X87361905Y-102354819D01*
X87361905Y-102354819D02*
X87742857Y-102354819D01*
X87742857Y-102354819D02*
X87838095Y-102402438D01*
X87838095Y-102402438D02*
X87885714Y-102450057D01*
X87885714Y-102450057D02*
X87933333Y-102545295D01*
X87933333Y-102545295D02*
X87933333Y-102688152D01*
X87933333Y-102688152D02*
X87885714Y-102783390D01*
X87885714Y-102783390D02*
X87838095Y-102831009D01*
X87838095Y-102831009D02*
X87742857Y-102878628D01*
X87742857Y-102878628D02*
X87361905Y-102878628D01*
X88266667Y-102354819D02*
X88885714Y-102354819D01*
X88885714Y-102354819D02*
X88552381Y-102735771D01*
X88552381Y-102735771D02*
X88695238Y-102735771D01*
X88695238Y-102735771D02*
X88790476Y-102783390D01*
X88790476Y-102783390D02*
X88838095Y-102831009D01*
X88838095Y-102831009D02*
X88885714Y-102926247D01*
X88885714Y-102926247D02*
X88885714Y-103164342D01*
X88885714Y-103164342D02*
X88838095Y-103259580D01*
X88838095Y-103259580D02*
X88790476Y-103307200D01*
X88790476Y-103307200D02*
X88695238Y-103354819D01*
X88695238Y-103354819D02*
X88409524Y-103354819D01*
X88409524Y-103354819D02*
X88314286Y-103307200D01*
X88314286Y-103307200D02*
X88266667Y-103259580D01*
X61365292Y-89858372D02*
X61365292Y-90572657D01*
X61365292Y-90572657D02*
X61317673Y-90715514D01*
X61317673Y-90715514D02*
X61222435Y-90810753D01*
X61222435Y-90810753D02*
X61079578Y-90858372D01*
X61079578Y-90858372D02*
X60984340Y-90858372D01*
X62270054Y-90191705D02*
X62270054Y-90858372D01*
X62031959Y-89810753D02*
X61793864Y-90525038D01*
X61793864Y-90525038D02*
X62412911Y-90525038D01*
X99061905Y-100154819D02*
X99061905Y-99154819D01*
X99061905Y-99154819D02*
X99300000Y-99154819D01*
X99300000Y-99154819D02*
X99442857Y-99202438D01*
X99442857Y-99202438D02*
X99538095Y-99297676D01*
X99538095Y-99297676D02*
X99585714Y-99392914D01*
X99585714Y-99392914D02*
X99633333Y-99583390D01*
X99633333Y-99583390D02*
X99633333Y-99726247D01*
X99633333Y-99726247D02*
X99585714Y-99916723D01*
X99585714Y-99916723D02*
X99538095Y-100011961D01*
X99538095Y-100011961D02*
X99442857Y-100107200D01*
X99442857Y-100107200D02*
X99300000Y-100154819D01*
X99300000Y-100154819D02*
X99061905Y-100154819D01*
X100585714Y-100154819D02*
X100014286Y-100154819D01*
X100300000Y-100154819D02*
X100300000Y-99154819D01*
X100300000Y-99154819D02*
X100204762Y-99297676D01*
X100204762Y-99297676D02*
X100109524Y-99392914D01*
X100109524Y-99392914D02*
X100014286Y-99440533D01*
X94138095Y-99954819D02*
X94138095Y-98954819D01*
X94709523Y-99954819D02*
X94280952Y-99383390D01*
X94709523Y-98954819D02*
X94138095Y-99526247D01*
X73094221Y-90178372D02*
X73094221Y-90987895D01*
X73094221Y-90987895D02*
X73141840Y-91083133D01*
X73141840Y-91083133D02*
X73189459Y-91130753D01*
X73189459Y-91130753D02*
X73284697Y-91178372D01*
X73284697Y-91178372D02*
X73475173Y-91178372D01*
X73475173Y-91178372D02*
X73570411Y-91130753D01*
X73570411Y-91130753D02*
X73618030Y-91083133D01*
X73618030Y-91083133D02*
X73665649Y-90987895D01*
X73665649Y-90987895D02*
X73665649Y-90178372D01*
X74665649Y-91178372D02*
X74094221Y-91178372D01*
X74379935Y-91178372D02*
X74379935Y-90178372D01*
X74379935Y-90178372D02*
X74284697Y-90321229D01*
X74284697Y-90321229D02*
X74189459Y-90416467D01*
X74189459Y-90416467D02*
X74094221Y-90464086D01*
X61365292Y-112859263D02*
X61365292Y-113573548D01*
X61365292Y-113573548D02*
X61317673Y-113716405D01*
X61317673Y-113716405D02*
X61222435Y-113811644D01*
X61222435Y-113811644D02*
X61079578Y-113859263D01*
X61079578Y-113859263D02*
X60984340Y-113859263D01*
X62317673Y-112859263D02*
X61841483Y-112859263D01*
X61841483Y-112859263D02*
X61793864Y-113335453D01*
X61793864Y-113335453D02*
X61841483Y-113287834D01*
X61841483Y-113287834D02*
X61936721Y-113240215D01*
X61936721Y-113240215D02*
X62174816Y-113240215D01*
X62174816Y-113240215D02*
X62270054Y-113287834D01*
X62270054Y-113287834D02*
X62317673Y-113335453D01*
X62317673Y-113335453D02*
X62365292Y-113430691D01*
X62365292Y-113430691D02*
X62365292Y-113668786D01*
X62365292Y-113668786D02*
X62317673Y-113764024D01*
X62317673Y-113764024D02*
X62270054Y-113811644D01*
X62270054Y-113811644D02*
X62174816Y-113859263D01*
X62174816Y-113859263D02*
X61936721Y-113859263D01*
X61936721Y-113859263D02*
X61841483Y-113811644D01*
X61841483Y-113811644D02*
X61793864Y-113764024D01*
X88231959Y-108058372D02*
X87898626Y-107582181D01*
X87660531Y-108058372D02*
X87660531Y-107058372D01*
X87660531Y-107058372D02*
X88041483Y-107058372D01*
X88041483Y-107058372D02*
X88136721Y-107105991D01*
X88136721Y-107105991D02*
X88184340Y-107153610D01*
X88184340Y-107153610D02*
X88231959Y-107248848D01*
X88231959Y-107248848D02*
X88231959Y-107391705D01*
X88231959Y-107391705D02*
X88184340Y-107486943D01*
X88184340Y-107486943D02*
X88136721Y-107534562D01*
X88136721Y-107534562D02*
X88041483Y-107582181D01*
X88041483Y-107582181D02*
X87660531Y-107582181D01*
X88612912Y-107153610D02*
X88660531Y-107105991D01*
X88660531Y-107105991D02*
X88755769Y-107058372D01*
X88755769Y-107058372D02*
X88993864Y-107058372D01*
X88993864Y-107058372D02*
X89089102Y-107105991D01*
X89089102Y-107105991D02*
X89136721Y-107153610D01*
X89136721Y-107153610D02*
X89184340Y-107248848D01*
X89184340Y-107248848D02*
X89184340Y-107344086D01*
X89184340Y-107344086D02*
X89136721Y-107486943D01*
X89136721Y-107486943D02*
X88565293Y-108058372D01*
X88565293Y-108058372D02*
X89184340Y-108058372D01*
%TO.C,J6*%
D12*
X95288626Y-52983553D02*
X105328626Y-52983553D01*
X95288626Y-73543553D02*
X95288626Y-52983553D01*
X98308626Y-73543553D02*
X98308626Y-52983553D01*
X103208626Y-73543553D02*
X103208626Y-52983553D01*
X104708626Y-73543553D02*
X104708626Y-52983553D01*
X105328626Y-52983553D02*
X105328626Y-70583553D01*
X105328626Y-71183553D02*
X105328626Y-73543553D01*
X105328626Y-73543553D02*
X95288626Y-73543553D01*
X105328626Y-70883553D02*
X105938626Y-70443553D01*
X105938626Y-71323553D01*
X105328626Y-70883553D01*
G36*
X105938626Y-71323553D02*
G01*
X105328626Y-70883553D01*
X105938626Y-70443553D01*
X105938626Y-71323553D01*
G37*
%TO.C,R15*%
X71810000Y-144233553D02*
X78350000Y-144233553D01*
X71810000Y-144563553D02*
X71810000Y-144233553D01*
X71810000Y-146643553D02*
X71810000Y-146973553D01*
X71810000Y-146973553D02*
X78350000Y-146973553D01*
X78350000Y-144233553D02*
X78350000Y-144563553D01*
X78350000Y-146973553D02*
X78350000Y-146643553D01*
%TO.C,C2*%
X82450000Y-116013553D02*
X87690000Y-116013553D01*
X82450000Y-116350553D02*
X82450000Y-116013553D01*
X82450000Y-118753553D02*
X82450000Y-118416553D01*
X87690000Y-116013553D02*
X87690000Y-116350553D01*
X87690000Y-118416553D02*
X87690000Y-118753553D01*
X87690000Y-118753553D02*
X82450000Y-118753553D01*
%TO.C,J1*%
X95358626Y-79373553D02*
X105398626Y-79373553D01*
X95358626Y-89773553D02*
X95358626Y-79373553D01*
X98378626Y-89773553D02*
X98378626Y-79373553D01*
X103278626Y-89773553D02*
X103278626Y-79373553D01*
X104778626Y-89773553D02*
X104778626Y-79373553D01*
X105398626Y-79373553D02*
X105398626Y-86813553D01*
X105398626Y-87413553D02*
X105398626Y-89773553D01*
X105398626Y-89773553D02*
X95358626Y-89773553D01*
X105398626Y-87113553D02*
X106008626Y-86673553D01*
X106008626Y-87553553D01*
X105398626Y-87113553D01*
G36*
X106008626Y-87553553D02*
G01*
X105398626Y-87113553D01*
X106008626Y-86673553D01*
X106008626Y-87553553D01*
G37*
%TO.C,R12*%
X83560000Y-132323553D02*
X90100000Y-132323553D01*
X83560000Y-132653553D02*
X83560000Y-132323553D01*
X83560000Y-134733553D02*
X83560000Y-135063553D01*
X83560000Y-135063553D02*
X90100000Y-135063553D01*
X90100000Y-132323553D02*
X90100000Y-132653553D01*
X90100000Y-135063553D02*
X90100000Y-134733553D01*
%TO.C,C1*%
X80406126Y-91593553D02*
X85646126Y-91593553D01*
X80406126Y-91930553D02*
X80406126Y-91593553D01*
X80406126Y-94333553D02*
X80406126Y-93996553D01*
X85646126Y-91593553D02*
X85646126Y-91930553D01*
X85646126Y-93996553D02*
X85646126Y-94333553D01*
X85646126Y-94333553D02*
X80406126Y-94333553D01*
%TO.C,R18*%
X72020000Y-158933553D02*
X78560000Y-158933553D01*
X72020000Y-159263553D02*
X72020000Y-158933553D01*
X72020000Y-161343553D02*
X72020000Y-161673553D01*
X72020000Y-161673553D02*
X78560000Y-161673553D01*
X78560000Y-158933553D02*
X78560000Y-159263553D01*
X78560000Y-161673553D02*
X78560000Y-161343553D01*
%TO.C,R7*%
X73888626Y-74363553D02*
X73888626Y-74693553D01*
X73888626Y-77103553D02*
X73888626Y-76773553D01*
X80428626Y-74363553D02*
X73888626Y-74363553D01*
X80428626Y-74693553D02*
X80428626Y-74363553D01*
X80428626Y-76773553D02*
X80428626Y-77103553D01*
X80428626Y-77103553D02*
X73888626Y-77103553D01*
%TO.C,R22*%
X82610000Y-159033553D02*
X89150000Y-159033553D01*
X82610000Y-159363553D02*
X82610000Y-159033553D01*
X82610000Y-161443553D02*
X82610000Y-161773553D01*
X82610000Y-161773553D02*
X89150000Y-161773553D01*
X89150000Y-159033553D02*
X89150000Y-159363553D01*
X89150000Y-161773553D02*
X89150000Y-161443553D01*
%TO.C,J2*%
X95468626Y-109483553D02*
X105508626Y-109483553D01*
X95468626Y-165603553D02*
X95468626Y-109483553D01*
X98488626Y-165603553D02*
X98488626Y-109483553D01*
X103388626Y-165603553D02*
X103388626Y-109483553D01*
X104888626Y-165603553D02*
X104888626Y-109483553D01*
X105508626Y-109483553D02*
X105508626Y-162643553D01*
X105508626Y-163243553D02*
X105508626Y-165603553D01*
X105508626Y-165603553D02*
X95468626Y-165603553D01*
X105508626Y-162943553D02*
X106118626Y-162503553D01*
X106118626Y-163383553D01*
X105508626Y-162943553D01*
G36*
X106118626Y-163383553D02*
G01*
X105508626Y-162943553D01*
X106118626Y-162503553D01*
X106118626Y-163383553D01*
G37*
%TO.C,R24*%
X91420000Y-75000000D02*
X97960000Y-75000000D01*
X91420000Y-75330000D02*
X91420000Y-75000000D01*
X91420000Y-77410000D02*
X91420000Y-77740000D01*
X91420000Y-77740000D02*
X97960000Y-77740000D01*
X97960000Y-75000000D02*
X97960000Y-75330000D01*
X97960000Y-77740000D02*
X97960000Y-77410000D01*
%TO.C,D3*%
X104830000Y-75320000D02*
X104830000Y-75164000D01*
X104830000Y-77636000D02*
X104830000Y-77480000D01*
X101598563Y-75320000D02*
G75*
G02*
X104830000Y-75164484I1671437J-1080000D01*
G01*
X102229039Y-75320000D02*
G75*
G02*
X104310961Y-75320000I1040961J-1080000D01*
G01*
X104310961Y-77480000D02*
G75*
G02*
X102229039Y-77480000I-1040961J1080000D01*
G01*
X104830000Y-77635516D02*
G75*
G02*
X101598563Y-77480000I-1560000J1235516D01*
G01*
%TO.C,U3*%
X73030000Y-116173553D02*
X73030000Y-139153553D01*
X73030000Y-139153553D02*
X74680000Y-139153553D01*
X76680000Y-139153553D02*
X78330000Y-139153553D01*
X78330000Y-116173553D02*
X73030000Y-116173553D01*
X78330000Y-139153553D02*
X78330000Y-116173553D01*
X70540000Y-116113553D02*
X80820000Y-116113553D01*
X80820000Y-139213553D01*
X70540000Y-139213553D01*
X70540000Y-116113553D01*
X74680000Y-139153553D02*
G75*
G02*
X76680000Y-139153553I1000000J0D01*
G01*
%TO.C,D2*%
X104930000Y-91720000D02*
X104930000Y-91564000D01*
X104930000Y-94036000D02*
X104930000Y-93880000D01*
X101698563Y-91720000D02*
G75*
G02*
X104930000Y-91564484I1671437J-1080000D01*
G01*
X102329039Y-91720000D02*
G75*
G02*
X104410961Y-91720000I1040961J-1080000D01*
G01*
X104410961Y-93880000D02*
G75*
G02*
X102329039Y-93880000I-1040961J1080000D01*
G01*
X104930000Y-94035516D02*
G75*
G02*
X101698563Y-93880000I-1560000J1235516D01*
G01*
%TO.C,R5*%
X68328626Y-54233553D02*
X68658626Y-54233553D01*
X68328626Y-60773553D02*
X68328626Y-54233553D01*
X68658626Y-60773553D02*
X68328626Y-60773553D01*
X70738626Y-60773553D02*
X71068626Y-60773553D01*
X71068626Y-54233553D02*
X70738626Y-54233553D01*
X71068626Y-60773553D02*
X71068626Y-54233553D01*
%TO.C,R6*%
X68328626Y-64633553D02*
X68328626Y-71173553D01*
X68328626Y-71173553D02*
X68658626Y-71173553D01*
X68658626Y-64633553D02*
X68328626Y-64633553D01*
X70738626Y-64633553D02*
X71068626Y-64633553D01*
X71068626Y-64633553D02*
X71068626Y-71173553D01*
X71068626Y-71173553D02*
X70738626Y-71173553D01*
%TO.C,R14*%
X83470000Y-123053553D02*
X90010000Y-123053553D01*
X83470000Y-123383553D02*
X83470000Y-123053553D01*
X83470000Y-125463553D02*
X83470000Y-125793553D01*
X83470000Y-125793553D02*
X90010000Y-125793553D01*
X90010000Y-123053553D02*
X90010000Y-123383553D01*
X90010000Y-125793553D02*
X90010000Y-125463553D01*
%TO.C,R10*%
X85428626Y-67233553D02*
X91968626Y-67233553D01*
X85428626Y-67563553D02*
X85428626Y-67233553D01*
X85428626Y-69643553D02*
X85428626Y-69973553D01*
X85428626Y-69973553D02*
X91968626Y-69973553D01*
X91968626Y-67233553D02*
X91968626Y-67563553D01*
X91968626Y-69973553D02*
X91968626Y-69643553D01*
%TO.C,R1*%
X82056126Y-95593553D02*
X82056126Y-95923553D01*
X82056126Y-98333553D02*
X82056126Y-98003553D01*
X88596126Y-95593553D02*
X82056126Y-95593553D01*
X88596126Y-95923553D02*
X88596126Y-95593553D01*
X88596126Y-98003553D02*
X88596126Y-98333553D01*
X88596126Y-98333553D02*
X82056126Y-98333553D01*
%TO.C,J3*%
X56578626Y-53103553D02*
X66618626Y-53103553D01*
X56578626Y-55463553D02*
X56578626Y-53103553D01*
X56578626Y-88903553D02*
X56578626Y-56063553D01*
X57198626Y-53103553D02*
X57198626Y-88903553D01*
X58698626Y-53103553D02*
X58698626Y-88903553D01*
X63598626Y-53103553D02*
X63598626Y-88903553D01*
X66618626Y-53103553D02*
X66618626Y-88903553D01*
X66618626Y-88903553D02*
X56578626Y-88903553D01*
X56578626Y-55763553D02*
X55968626Y-56203553D01*
X55968626Y-55323553D01*
X56578626Y-55763553D01*
G36*
X56578626Y-55763553D02*
G01*
X55968626Y-56203553D01*
X55968626Y-55323553D01*
X56578626Y-55763553D01*
G37*
%TO.C,R8*%
X85488626Y-58953553D02*
X92028626Y-58953553D01*
X85488626Y-59283553D02*
X85488626Y-58953553D01*
X85488626Y-61363553D02*
X85488626Y-61693553D01*
X85488626Y-61693553D02*
X92028626Y-61693553D01*
X92028626Y-58953553D02*
X92028626Y-59283553D01*
X92028626Y-61693553D02*
X92028626Y-61363553D01*
%TO.C,R21*%
X82610000Y-154033553D02*
X89150000Y-154033553D01*
X82610000Y-154363553D02*
X82610000Y-154033553D01*
X82610000Y-156443553D02*
X82610000Y-156773553D01*
X82610000Y-156773553D02*
X89150000Y-156773553D01*
X89150000Y-154033553D02*
X89150000Y-154363553D01*
X89150000Y-156773553D02*
X89150000Y-156443553D01*
%TO.C,R9*%
X85488626Y-62373553D02*
X92028626Y-62373553D01*
X85488626Y-62703553D02*
X85488626Y-62373553D01*
X85488626Y-64783553D02*
X85488626Y-65113553D01*
X85488626Y-65113553D02*
X92028626Y-65113553D01*
X92028626Y-62373553D02*
X92028626Y-62703553D01*
X92028626Y-65113553D02*
X92028626Y-64783553D01*
%TO.C,R19*%
X82410000Y-144233553D02*
X88950000Y-144233553D01*
X82410000Y-144563553D02*
X82410000Y-144233553D01*
X82410000Y-146643553D02*
X82410000Y-146973553D01*
X82410000Y-146973553D02*
X88950000Y-146973553D01*
X88950000Y-144233553D02*
X88950000Y-144563553D01*
X88950000Y-146973553D02*
X88950000Y-146643553D01*
%TO.C,R20*%
X82700000Y-148933553D02*
X89240000Y-148933553D01*
X82700000Y-149263553D02*
X82700000Y-148933553D01*
X82700000Y-151343553D02*
X82700000Y-151673553D01*
X82700000Y-151673553D02*
X89240000Y-151673553D01*
X89240000Y-148933553D02*
X89240000Y-149263553D01*
X89240000Y-151673553D02*
X89240000Y-151343553D01*
%TO.C,C5*%
X91420000Y-84540000D02*
G75*
G02*
X86180000Y-84540000I-2620000J0D01*
G01*
X86180000Y-84540000D02*
G75*
G02*
X91420000Y-84540000I2620000J0D01*
G01*
%TO.C,U2*%
X74738626Y-52933553D02*
X74738626Y-73373553D01*
X74738626Y-73373553D02*
X80038626Y-73373553D01*
X76388626Y-52933553D02*
X74738626Y-52933553D01*
X80038626Y-52933553D02*
X78388626Y-52933553D01*
X80038626Y-73373553D02*
X80038626Y-52933553D01*
X72248626Y-52873553D02*
X82528626Y-52873553D01*
X82528626Y-73433553D01*
X72248626Y-73433553D01*
X72248626Y-52873553D01*
X78388626Y-52933553D02*
G75*
G02*
X76388626Y-52933553I-1000000J0D01*
G01*
%TO.C,R16*%
X72010000Y-149033553D02*
X78550000Y-149033553D01*
X72010000Y-149363553D02*
X72010000Y-149033553D01*
X72010000Y-151443553D02*
X72010000Y-151773553D01*
X72010000Y-151773553D02*
X78550000Y-151773553D01*
X78550000Y-149033553D02*
X78550000Y-149363553D01*
X78550000Y-151773553D02*
X78550000Y-151443553D01*
%TO.C,C4*%
X69761126Y-82501053D02*
X70098126Y-82501053D01*
X69761126Y-87741053D02*
X69761126Y-82501053D01*
X70098126Y-87741053D02*
X69761126Y-87741053D01*
X72164126Y-82501053D02*
X72501126Y-82501053D01*
X72501126Y-82501053D02*
X72501126Y-87741053D01*
X72501126Y-87741053D02*
X72164126Y-87741053D01*
%TO.C,R4*%
X80646126Y-104383553D02*
X80976126Y-104383553D01*
X80646126Y-110923553D02*
X80646126Y-104383553D01*
X80976126Y-110923553D02*
X80646126Y-110923553D01*
X83056126Y-110923553D02*
X83386126Y-110923553D01*
X83386126Y-104383553D02*
X83056126Y-104383553D01*
X83386126Y-110923553D02*
X83386126Y-104383553D01*
%TO.C,R17*%
X72110000Y-154033553D02*
X78650000Y-154033553D01*
X72110000Y-154363553D02*
X72110000Y-154033553D01*
X72110000Y-156443553D02*
X72110000Y-156773553D01*
X72110000Y-156773553D02*
X78650000Y-156773553D01*
X78650000Y-154033553D02*
X78650000Y-154363553D01*
X78650000Y-156773553D02*
X78650000Y-156443553D01*
%TO.C,R11*%
X83200000Y-136513553D02*
X89740000Y-136513553D01*
X83200000Y-136843553D02*
X83200000Y-136513553D01*
X83200000Y-138923553D02*
X83200000Y-139253553D01*
X83200000Y-139253553D02*
X89740000Y-139253553D01*
X89740000Y-136513553D02*
X89740000Y-136843553D01*
X89740000Y-139253553D02*
X89740000Y-138923553D01*
%TO.C,C3*%
X84078626Y-52733553D02*
X89318626Y-52733553D01*
X84078626Y-53070553D02*
X84078626Y-52733553D01*
X84078626Y-55473553D02*
X84078626Y-55136553D01*
X89318626Y-52733553D02*
X89318626Y-53070553D01*
X89318626Y-55136553D02*
X89318626Y-55473553D01*
X89318626Y-55473553D02*
X84078626Y-55473553D01*
%TO.C,U4*%
X73211126Y-81001053D02*
X85151126Y-81001053D01*
X73211126Y-88851053D02*
X73211126Y-81001053D01*
X85151126Y-81001053D02*
X85151126Y-88851053D01*
X85151126Y-88851053D02*
X73211126Y-88851053D01*
X85481126Y-80671053D02*
X83151126Y-80671053D01*
X85481126Y-83121053D02*
X85481126Y-80671053D01*
%TO.C,R13*%
X83460000Y-127543553D02*
X90000000Y-127543553D01*
X83460000Y-127873553D02*
X83460000Y-127543553D01*
X83460000Y-129953553D02*
X83460000Y-130283553D01*
X83460000Y-130283553D02*
X90000000Y-130283553D01*
X90000000Y-127543553D02*
X90000000Y-127873553D01*
X90000000Y-130283553D02*
X90000000Y-129953553D01*
%TO.C,R23*%
X92330000Y-91430000D02*
X98870000Y-91430000D01*
X92330000Y-91760000D02*
X92330000Y-91430000D01*
X92330000Y-93840000D02*
X92330000Y-94170000D01*
X92330000Y-94170000D02*
X98870000Y-94170000D01*
X98870000Y-91430000D02*
X98870000Y-91760000D01*
X98870000Y-94170000D02*
X98870000Y-93840000D01*
%TO.C,R3*%
X82056126Y-99193553D02*
X88596126Y-99193553D01*
X82056126Y-99523553D02*
X82056126Y-99193553D01*
X82056126Y-101603553D02*
X82056126Y-101933553D01*
X82056126Y-101933553D02*
X88596126Y-101933553D01*
X88596126Y-99193553D02*
X88596126Y-99523553D01*
X88596126Y-101933553D02*
X88596126Y-101603553D01*
%TO.C,J4*%
X56606126Y-91623553D02*
X66646126Y-91623553D01*
X56606126Y-93983553D02*
X56606126Y-91623553D01*
X56606126Y-112183553D02*
X56606126Y-94583553D01*
X57226126Y-91623553D02*
X57226126Y-112183553D01*
X58726126Y-91623553D02*
X58726126Y-112183553D01*
X63626126Y-91623553D02*
X63626126Y-112183553D01*
X66646126Y-91623553D02*
X66646126Y-112183553D01*
X66646126Y-112183553D02*
X56606126Y-112183553D01*
X56606126Y-94283553D02*
X55996126Y-94723553D01*
X55996126Y-93843553D01*
X56606126Y-94283553D01*
G36*
X56606126Y-94283553D02*
G01*
X55996126Y-94723553D01*
X55996126Y-93843553D01*
X56606126Y-94283553D01*
G37*
%TO.C,D1*%
X95660000Y-97000000D02*
X96680000Y-97000000D01*
X97460000Y-95530000D02*
X97460000Y-98470000D01*
X97580000Y-95530000D02*
X97580000Y-98470000D01*
X97700000Y-95530000D02*
X97700000Y-98470000D01*
X103140000Y-97000000D02*
X102120000Y-97000000D01*
X96680000Y-95530000D02*
X102120000Y-95530000D01*
X102120000Y-98470000D01*
X96680000Y-98470000D01*
X96680000Y-95530000D01*
%TO.C,U1*%
X71206126Y-91723553D02*
X71206126Y-112163553D01*
X71206126Y-112163553D02*
X76506126Y-112163553D01*
X72856126Y-91723553D02*
X71206126Y-91723553D01*
X76506126Y-91723553D02*
X74856126Y-91723553D01*
X76506126Y-112163553D02*
X76506126Y-91723553D01*
X68716126Y-91663553D02*
X78996126Y-91663553D01*
X78996126Y-112223553D01*
X68716126Y-112223553D01*
X68716126Y-91663553D01*
X74856126Y-91723553D02*
G75*
G02*
X72856126Y-91723553I-1000000J0D01*
G01*
%TO.C,J5*%
X56678626Y-114563553D02*
X66718626Y-114563553D01*
X56678626Y-116923553D02*
X56678626Y-114563553D01*
X56678626Y-165603553D02*
X56678626Y-117523553D01*
X57298626Y-114563553D02*
X57298626Y-165603553D01*
X58798626Y-114563553D02*
X58798626Y-165603553D01*
X63698626Y-114563553D02*
X63698626Y-165603553D01*
X66718626Y-114563553D02*
X66718626Y-165603553D01*
X66718626Y-165603553D02*
X56678626Y-165603553D01*
X56678626Y-117223553D02*
X56068626Y-117663553D01*
X56068626Y-116783553D01*
X56678626Y-117223553D01*
G36*
X56678626Y-117223553D02*
G01*
X56068626Y-117663553D01*
X56068626Y-116783553D01*
X56678626Y-117223553D01*
G37*
%TO.C,R2*%
X83956126Y-104393553D02*
X83956126Y-110933553D01*
X83956126Y-110933553D02*
X84286126Y-110933553D01*
X84286126Y-104393553D02*
X83956126Y-104393553D01*
X86366126Y-104393553D02*
X86696126Y-104393553D01*
X86696126Y-104393553D02*
X86696126Y-110933553D01*
X86696126Y-110933553D02*
X86366126Y-110933553D01*
%TD*%
M02*
