%TF.GenerationSoftware,KiCad,Pcbnew,10.0.6*%
%TF.CreationDate,2026-10-04T21:14:41+02:00*%
%TF.ProjectId,Interface_IAI,496e7465-7266-4616-9365-5f4941492e6b,rev?*%
%TF.SameCoordinates,Original*%
%TF.FileFunction,Legend,Top*%
%TF.FilePolarity,Positive*%
%FSLAX46Y46*%
G04 Gerber Fmt 4.6, Leading zero omitted, Abs format (unit mm)*
G04 Created by KiCad (PCBNEW 10.0.6) date 2026-10-04 21:14:41*
%MOMM*%
%LPD*%
G01*
G04 APERTURE LIST*
%ADD10C,0.100000*%
%ADD11C,0.150000*%
%ADD12C,0.120000*%
G04 APERTURE END LIST*
D10*
X73729697Y-57161830D02*
X73729697Y-56780877D01*
X73958269Y-57238020D02*
X73158269Y-56971353D01*
X73158269Y-56971353D02*
X73958269Y-56704687D01*
X74034459Y-56628497D02*
X74034459Y-56018973D01*
X73958269Y-55828496D02*
X73158269Y-55828496D01*
X73158269Y-55828496D02*
X73958269Y-55371353D01*
X73958269Y-55371353D02*
X73158269Y-55371353D01*
X73789697Y-62381830D02*
X73789697Y-62000877D01*
X74018269Y-62458020D02*
X73218269Y-62191353D01*
X73218269Y-62191353D02*
X74018269Y-61924687D01*
X74094459Y-61848497D02*
X74094459Y-61238973D01*
X74018269Y-61048496D02*
X73218269Y-61048496D01*
X73218269Y-61048496D02*
X73218269Y-60743734D01*
X73218269Y-60743734D02*
X73256364Y-60667544D01*
X73256364Y-60667544D02*
X73294459Y-60629449D01*
X73294459Y-60629449D02*
X73370650Y-60591353D01*
X73370650Y-60591353D02*
X73484935Y-60591353D01*
X73484935Y-60591353D02*
X73561126Y-60629449D01*
X73561126Y-60629449D02*
X73599221Y-60667544D01*
X73599221Y-60667544D02*
X73637316Y-60743734D01*
X73637316Y-60743734D02*
X73637316Y-61048496D01*
X73599221Y-67277068D02*
X73637316Y-67162782D01*
X73637316Y-67162782D02*
X73675412Y-67124687D01*
X73675412Y-67124687D02*
X73751602Y-67086591D01*
X73751602Y-67086591D02*
X73865888Y-67086591D01*
X73865888Y-67086591D02*
X73942078Y-67124687D01*
X73942078Y-67124687D02*
X73980174Y-67162782D01*
X73980174Y-67162782D02*
X74018269Y-67238972D01*
X74018269Y-67238972D02*
X74018269Y-67543734D01*
X74018269Y-67543734D02*
X73218269Y-67543734D01*
X73218269Y-67543734D02*
X73218269Y-67277068D01*
X73218269Y-67277068D02*
X73256364Y-67200877D01*
X73256364Y-67200877D02*
X73294459Y-67162782D01*
X73294459Y-67162782D02*
X73370650Y-67124687D01*
X73370650Y-67124687D02*
X73446840Y-67124687D01*
X73446840Y-67124687D02*
X73523031Y-67162782D01*
X73523031Y-67162782D02*
X73561126Y-67200877D01*
X73561126Y-67200877D02*
X73599221Y-67277068D01*
X73599221Y-67277068D02*
X73599221Y-67543734D01*
X74094459Y-66934211D02*
X74094459Y-66324687D01*
X74018269Y-66134210D02*
X73218269Y-66134210D01*
X73218269Y-66134210D02*
X73218269Y-65829448D01*
X73218269Y-65829448D02*
X73256364Y-65753258D01*
X73256364Y-65753258D02*
X73294459Y-65715163D01*
X73294459Y-65715163D02*
X73370650Y-65677067D01*
X73370650Y-65677067D02*
X73484935Y-65677067D01*
X73484935Y-65677067D02*
X73561126Y-65715163D01*
X73561126Y-65715163D02*
X73599221Y-65753258D01*
X73599221Y-65753258D02*
X73637316Y-65829448D01*
X73637316Y-65829448D02*
X73637316Y-66134210D01*
X73599221Y-71977068D02*
X73637316Y-71862782D01*
X73637316Y-71862782D02*
X73675412Y-71824687D01*
X73675412Y-71824687D02*
X73751602Y-71786591D01*
X73751602Y-71786591D02*
X73865888Y-71786591D01*
X73865888Y-71786591D02*
X73942078Y-71824687D01*
X73942078Y-71824687D02*
X73980174Y-71862782D01*
X73980174Y-71862782D02*
X74018269Y-71938972D01*
X74018269Y-71938972D02*
X74018269Y-72243734D01*
X74018269Y-72243734D02*
X73218269Y-72243734D01*
X73218269Y-72243734D02*
X73218269Y-71977068D01*
X73218269Y-71977068D02*
X73256364Y-71900877D01*
X73256364Y-71900877D02*
X73294459Y-71862782D01*
X73294459Y-71862782D02*
X73370650Y-71824687D01*
X73370650Y-71824687D02*
X73446840Y-71824687D01*
X73446840Y-71824687D02*
X73523031Y-71862782D01*
X73523031Y-71862782D02*
X73561126Y-71900877D01*
X73561126Y-71900877D02*
X73599221Y-71977068D01*
X73599221Y-71977068D02*
X73599221Y-72243734D01*
X74094459Y-71634211D02*
X74094459Y-71024687D01*
X74018269Y-70834210D02*
X73218269Y-70834210D01*
X73218269Y-70834210D02*
X74018269Y-70377067D01*
X74018269Y-70377067D02*
X73218269Y-70377067D01*
X73218269Y-77919925D02*
X73218269Y-77386591D01*
X73218269Y-77386591D02*
X74018269Y-77919925D01*
X74018269Y-77919925D02*
X74018269Y-77386591D01*
X74094459Y-77272306D02*
X74094459Y-76662782D01*
X74018269Y-76472305D02*
X73218269Y-76472305D01*
X73218269Y-76472305D02*
X74018269Y-76015162D01*
X74018269Y-76015162D02*
X73218269Y-76015162D01*
X73218269Y-82519925D02*
X73218269Y-81986591D01*
X73218269Y-81986591D02*
X74018269Y-82519925D01*
X74018269Y-82519925D02*
X74018269Y-81986591D01*
X74094459Y-81872306D02*
X74094459Y-81262782D01*
X74018269Y-81072305D02*
X73218269Y-81072305D01*
X73218269Y-81072305D02*
X73218269Y-80767543D01*
X73218269Y-80767543D02*
X73256364Y-80691353D01*
X73256364Y-80691353D02*
X73294459Y-80653258D01*
X73294459Y-80653258D02*
X73370650Y-80615162D01*
X73370650Y-80615162D02*
X73484935Y-80615162D01*
X73484935Y-80615162D02*
X73561126Y-80653258D01*
X73561126Y-80653258D02*
X73599221Y-80691353D01*
X73599221Y-80691353D02*
X73637316Y-80767543D01*
X73637316Y-80767543D02*
X73637316Y-81072305D01*
X73256364Y-87424687D02*
X73218269Y-87500877D01*
X73218269Y-87500877D02*
X73218269Y-87615163D01*
X73218269Y-87615163D02*
X73256364Y-87729449D01*
X73256364Y-87729449D02*
X73332554Y-87805639D01*
X73332554Y-87805639D02*
X73408745Y-87843734D01*
X73408745Y-87843734D02*
X73561126Y-87881830D01*
X73561126Y-87881830D02*
X73675412Y-87881830D01*
X73675412Y-87881830D02*
X73827793Y-87843734D01*
X73827793Y-87843734D02*
X73903983Y-87805639D01*
X73903983Y-87805639D02*
X73980174Y-87729449D01*
X73980174Y-87729449D02*
X74018269Y-87615163D01*
X74018269Y-87615163D02*
X74018269Y-87538972D01*
X74018269Y-87538972D02*
X73980174Y-87424687D01*
X73980174Y-87424687D02*
X73942078Y-87386591D01*
X73942078Y-87386591D02*
X73675412Y-87386591D01*
X73675412Y-87386591D02*
X73675412Y-87538972D01*
X74018269Y-87043734D02*
X73218269Y-87043734D01*
X73218269Y-87043734D02*
X74018269Y-86586591D01*
X74018269Y-86586591D02*
X73218269Y-86586591D01*
X74018269Y-86205639D02*
X73218269Y-86205639D01*
X73218269Y-86205639D02*
X73218269Y-86015163D01*
X73218269Y-86015163D02*
X73256364Y-85900877D01*
X73256364Y-85900877D02*
X73332554Y-85824687D01*
X73332554Y-85824687D02*
X73408745Y-85786592D01*
X73408745Y-85786592D02*
X73561126Y-85748496D01*
X73561126Y-85748496D02*
X73675412Y-85748496D01*
X73675412Y-85748496D02*
X73827793Y-85786592D01*
X73827793Y-85786592D02*
X73903983Y-85824687D01*
X73903983Y-85824687D02*
X73980174Y-85900877D01*
X73980174Y-85900877D02*
X74018269Y-86015163D01*
X74018269Y-86015163D02*
X74018269Y-86205639D01*
X74018269Y-96243734D02*
X73218269Y-96243734D01*
X73218269Y-96243734D02*
X73218269Y-95938972D01*
X73218269Y-95938972D02*
X73256364Y-95862782D01*
X73256364Y-95862782D02*
X73294459Y-95824687D01*
X73294459Y-95824687D02*
X73370650Y-95786591D01*
X73370650Y-95786591D02*
X73484935Y-95786591D01*
X73484935Y-95786591D02*
X73561126Y-95824687D01*
X73561126Y-95824687D02*
X73599221Y-95862782D01*
X73599221Y-95862782D02*
X73637316Y-95938972D01*
X73637316Y-95938972D02*
X73637316Y-96243734D01*
X73218269Y-95443734D02*
X73865888Y-95443734D01*
X73865888Y-95443734D02*
X73942078Y-95405639D01*
X73942078Y-95405639D02*
X73980174Y-95367544D01*
X73980174Y-95367544D02*
X74018269Y-95291353D01*
X74018269Y-95291353D02*
X74018269Y-95138972D01*
X74018269Y-95138972D02*
X73980174Y-95062782D01*
X73980174Y-95062782D02*
X73942078Y-95024687D01*
X73942078Y-95024687D02*
X73865888Y-94986591D01*
X73865888Y-94986591D02*
X73218269Y-94986591D01*
X74018269Y-94224687D02*
X74018269Y-94605639D01*
X74018269Y-94605639D02*
X73218269Y-94605639D01*
X73980174Y-93996116D02*
X74018269Y-93881830D01*
X74018269Y-93881830D02*
X74018269Y-93691354D01*
X74018269Y-93691354D02*
X73980174Y-93615163D01*
X73980174Y-93615163D02*
X73942078Y-93577068D01*
X73942078Y-93577068D02*
X73865888Y-93538973D01*
X73865888Y-93538973D02*
X73789697Y-93538973D01*
X73789697Y-93538973D02*
X73713507Y-93577068D01*
X73713507Y-93577068D02*
X73675412Y-93615163D01*
X73675412Y-93615163D02*
X73637316Y-93691354D01*
X73637316Y-93691354D02*
X73599221Y-93843735D01*
X73599221Y-93843735D02*
X73561126Y-93919925D01*
X73561126Y-93919925D02*
X73523031Y-93958020D01*
X73523031Y-93958020D02*
X73446840Y-93996116D01*
X73446840Y-93996116D02*
X73370650Y-93996116D01*
X73370650Y-93996116D02*
X73294459Y-93958020D01*
X73294459Y-93958020D02*
X73256364Y-93919925D01*
X73256364Y-93919925D02*
X73218269Y-93843735D01*
X73218269Y-93843735D02*
X73218269Y-93653258D01*
X73218269Y-93653258D02*
X73256364Y-93538973D01*
X73599221Y-93196115D02*
X73599221Y-92929449D01*
X74018269Y-92815163D02*
X74018269Y-93196115D01*
X74018269Y-93196115D02*
X73218269Y-93196115D01*
X73218269Y-93196115D02*
X73218269Y-92815163D01*
X74094459Y-92662782D02*
X74094459Y-92053258D01*
X74018269Y-91862781D02*
X73218269Y-91862781D01*
X73218269Y-91862781D02*
X73218269Y-91558019D01*
X73218269Y-91558019D02*
X73256364Y-91481829D01*
X73256364Y-91481829D02*
X73294459Y-91443734D01*
X73294459Y-91443734D02*
X73370650Y-91405638D01*
X73370650Y-91405638D02*
X73484935Y-91405638D01*
X73484935Y-91405638D02*
X73561126Y-91443734D01*
X73561126Y-91443734D02*
X73599221Y-91481829D01*
X73599221Y-91481829D02*
X73637316Y-91558019D01*
X73637316Y-91558019D02*
X73637316Y-91862781D01*
X74018269Y-102143734D02*
X73218269Y-102143734D01*
X73218269Y-102143734D02*
X73218269Y-101838972D01*
X73218269Y-101838972D02*
X73256364Y-101762782D01*
X73256364Y-101762782D02*
X73294459Y-101724687D01*
X73294459Y-101724687D02*
X73370650Y-101686591D01*
X73370650Y-101686591D02*
X73484935Y-101686591D01*
X73484935Y-101686591D02*
X73561126Y-101724687D01*
X73561126Y-101724687D02*
X73599221Y-101762782D01*
X73599221Y-101762782D02*
X73637316Y-101838972D01*
X73637316Y-101838972D02*
X73637316Y-102143734D01*
X73218269Y-101343734D02*
X73865888Y-101343734D01*
X73865888Y-101343734D02*
X73942078Y-101305639D01*
X73942078Y-101305639D02*
X73980174Y-101267544D01*
X73980174Y-101267544D02*
X74018269Y-101191353D01*
X74018269Y-101191353D02*
X74018269Y-101038972D01*
X74018269Y-101038972D02*
X73980174Y-100962782D01*
X73980174Y-100962782D02*
X73942078Y-100924687D01*
X73942078Y-100924687D02*
X73865888Y-100886591D01*
X73865888Y-100886591D02*
X73218269Y-100886591D01*
X74018269Y-100124687D02*
X74018269Y-100505639D01*
X74018269Y-100505639D02*
X73218269Y-100505639D01*
X73980174Y-99896116D02*
X74018269Y-99781830D01*
X74018269Y-99781830D02*
X74018269Y-99591354D01*
X74018269Y-99591354D02*
X73980174Y-99515163D01*
X73980174Y-99515163D02*
X73942078Y-99477068D01*
X73942078Y-99477068D02*
X73865888Y-99438973D01*
X73865888Y-99438973D02*
X73789697Y-99438973D01*
X73789697Y-99438973D02*
X73713507Y-99477068D01*
X73713507Y-99477068D02*
X73675412Y-99515163D01*
X73675412Y-99515163D02*
X73637316Y-99591354D01*
X73637316Y-99591354D02*
X73599221Y-99743735D01*
X73599221Y-99743735D02*
X73561126Y-99819925D01*
X73561126Y-99819925D02*
X73523031Y-99858020D01*
X73523031Y-99858020D02*
X73446840Y-99896116D01*
X73446840Y-99896116D02*
X73370650Y-99896116D01*
X73370650Y-99896116D02*
X73294459Y-99858020D01*
X73294459Y-99858020D02*
X73256364Y-99819925D01*
X73256364Y-99819925D02*
X73218269Y-99743735D01*
X73218269Y-99743735D02*
X73218269Y-99553258D01*
X73218269Y-99553258D02*
X73256364Y-99438973D01*
X73599221Y-99096115D02*
X73599221Y-98829449D01*
X74018269Y-98715163D02*
X74018269Y-99096115D01*
X74018269Y-99096115D02*
X73218269Y-99096115D01*
X73218269Y-99096115D02*
X73218269Y-98715163D01*
X74094459Y-98562782D02*
X74094459Y-97953258D01*
X74018269Y-97762781D02*
X73218269Y-97762781D01*
X73218269Y-97762781D02*
X74018269Y-97305638D01*
X74018269Y-97305638D02*
X73218269Y-97305638D01*
X73980174Y-107181830D02*
X74018269Y-107067544D01*
X74018269Y-107067544D02*
X74018269Y-106877068D01*
X74018269Y-106877068D02*
X73980174Y-106800877D01*
X73980174Y-106800877D02*
X73942078Y-106762782D01*
X73942078Y-106762782D02*
X73865888Y-106724687D01*
X73865888Y-106724687D02*
X73789697Y-106724687D01*
X73789697Y-106724687D02*
X73713507Y-106762782D01*
X73713507Y-106762782D02*
X73675412Y-106800877D01*
X73675412Y-106800877D02*
X73637316Y-106877068D01*
X73637316Y-106877068D02*
X73599221Y-107029449D01*
X73599221Y-107029449D02*
X73561126Y-107105639D01*
X73561126Y-107105639D02*
X73523031Y-107143734D01*
X73523031Y-107143734D02*
X73446840Y-107181830D01*
X73446840Y-107181830D02*
X73370650Y-107181830D01*
X73370650Y-107181830D02*
X73294459Y-107143734D01*
X73294459Y-107143734D02*
X73256364Y-107105639D01*
X73256364Y-107105639D02*
X73218269Y-107029449D01*
X73218269Y-107029449D02*
X73218269Y-106838972D01*
X73218269Y-106838972D02*
X73256364Y-106724687D01*
X74018269Y-106381829D02*
X73218269Y-106381829D01*
X73256364Y-105581830D02*
X73218269Y-105658020D01*
X73218269Y-105658020D02*
X73218269Y-105772306D01*
X73218269Y-105772306D02*
X73256364Y-105886592D01*
X73256364Y-105886592D02*
X73332554Y-105962782D01*
X73332554Y-105962782D02*
X73408745Y-106000877D01*
X73408745Y-106000877D02*
X73561126Y-106038973D01*
X73561126Y-106038973D02*
X73675412Y-106038973D01*
X73675412Y-106038973D02*
X73827793Y-106000877D01*
X73827793Y-106000877D02*
X73903983Y-105962782D01*
X73903983Y-105962782D02*
X73980174Y-105886592D01*
X73980174Y-105886592D02*
X74018269Y-105772306D01*
X74018269Y-105772306D02*
X74018269Y-105696115D01*
X74018269Y-105696115D02*
X73980174Y-105581830D01*
X73980174Y-105581830D02*
X73942078Y-105543734D01*
X73942078Y-105543734D02*
X73675412Y-105543734D01*
X73675412Y-105543734D02*
X73675412Y-105696115D01*
X74018269Y-105200877D02*
X73218269Y-105200877D01*
X73218269Y-105200877D02*
X74018269Y-104743734D01*
X74018269Y-104743734D02*
X73218269Y-104743734D01*
X74094459Y-104553259D02*
X74094459Y-103943735D01*
X74018269Y-103753258D02*
X73218269Y-103753258D01*
X73218269Y-103753258D02*
X74018269Y-103296115D01*
X74018269Y-103296115D02*
X73218269Y-103296115D01*
X73980174Y-112181830D02*
X74018269Y-112067544D01*
X74018269Y-112067544D02*
X74018269Y-111877068D01*
X74018269Y-111877068D02*
X73980174Y-111800877D01*
X73980174Y-111800877D02*
X73942078Y-111762782D01*
X73942078Y-111762782D02*
X73865888Y-111724687D01*
X73865888Y-111724687D02*
X73789697Y-111724687D01*
X73789697Y-111724687D02*
X73713507Y-111762782D01*
X73713507Y-111762782D02*
X73675412Y-111800877D01*
X73675412Y-111800877D02*
X73637316Y-111877068D01*
X73637316Y-111877068D02*
X73599221Y-112029449D01*
X73599221Y-112029449D02*
X73561126Y-112105639D01*
X73561126Y-112105639D02*
X73523031Y-112143734D01*
X73523031Y-112143734D02*
X73446840Y-112181830D01*
X73446840Y-112181830D02*
X73370650Y-112181830D01*
X73370650Y-112181830D02*
X73294459Y-112143734D01*
X73294459Y-112143734D02*
X73256364Y-112105639D01*
X73256364Y-112105639D02*
X73218269Y-112029449D01*
X73218269Y-112029449D02*
X73218269Y-111838972D01*
X73218269Y-111838972D02*
X73256364Y-111724687D01*
X74018269Y-111381829D02*
X73218269Y-111381829D01*
X73256364Y-110581830D02*
X73218269Y-110658020D01*
X73218269Y-110658020D02*
X73218269Y-110772306D01*
X73218269Y-110772306D02*
X73256364Y-110886592D01*
X73256364Y-110886592D02*
X73332554Y-110962782D01*
X73332554Y-110962782D02*
X73408745Y-111000877D01*
X73408745Y-111000877D02*
X73561126Y-111038973D01*
X73561126Y-111038973D02*
X73675412Y-111038973D01*
X73675412Y-111038973D02*
X73827793Y-111000877D01*
X73827793Y-111000877D02*
X73903983Y-110962782D01*
X73903983Y-110962782D02*
X73980174Y-110886592D01*
X73980174Y-110886592D02*
X74018269Y-110772306D01*
X74018269Y-110772306D02*
X74018269Y-110696115D01*
X74018269Y-110696115D02*
X73980174Y-110581830D01*
X73980174Y-110581830D02*
X73942078Y-110543734D01*
X73942078Y-110543734D02*
X73675412Y-110543734D01*
X73675412Y-110543734D02*
X73675412Y-110696115D01*
X74018269Y-110200877D02*
X73218269Y-110200877D01*
X73218269Y-110200877D02*
X74018269Y-109743734D01*
X74018269Y-109743734D02*
X73218269Y-109743734D01*
X74094459Y-109553259D02*
X74094459Y-108943735D01*
X74018269Y-108753258D02*
X73218269Y-108753258D01*
X73218269Y-108753258D02*
X73218269Y-108448496D01*
X73218269Y-108448496D02*
X73256364Y-108372306D01*
X73256364Y-108372306D02*
X73294459Y-108334211D01*
X73294459Y-108334211D02*
X73370650Y-108296115D01*
X73370650Y-108296115D02*
X73484935Y-108296115D01*
X73484935Y-108296115D02*
X73561126Y-108334211D01*
X73561126Y-108334211D02*
X73599221Y-108372306D01*
X73599221Y-108372306D02*
X73637316Y-108448496D01*
X73637316Y-108448496D02*
X73637316Y-108753258D01*
X73713507Y-119143734D02*
X73713507Y-118534211D01*
X74018269Y-118838972D02*
X73408745Y-118838972D01*
X73294459Y-118191354D02*
X73256364Y-118153258D01*
X73256364Y-118153258D02*
X73218269Y-118077068D01*
X73218269Y-118077068D02*
X73218269Y-117886592D01*
X73218269Y-117886592D02*
X73256364Y-117810401D01*
X73256364Y-117810401D02*
X73294459Y-117772306D01*
X73294459Y-117772306D02*
X73370650Y-117734211D01*
X73370650Y-117734211D02*
X73446840Y-117734211D01*
X73446840Y-117734211D02*
X73561126Y-117772306D01*
X73561126Y-117772306D02*
X74018269Y-118229449D01*
X74018269Y-118229449D02*
X74018269Y-117734211D01*
X73484935Y-117048496D02*
X74018269Y-117048496D01*
X73180174Y-117238972D02*
X73751602Y-117429449D01*
X73751602Y-117429449D02*
X73751602Y-116934210D01*
X73218269Y-116743734D02*
X74018269Y-116477067D01*
X74018269Y-116477067D02*
X73218269Y-116210401D01*
X73256364Y-123424687D02*
X73218269Y-123500877D01*
X73218269Y-123500877D02*
X73218269Y-123615163D01*
X73218269Y-123615163D02*
X73256364Y-123729449D01*
X73256364Y-123729449D02*
X73332554Y-123805639D01*
X73332554Y-123805639D02*
X73408745Y-123843734D01*
X73408745Y-123843734D02*
X73561126Y-123881830D01*
X73561126Y-123881830D02*
X73675412Y-123881830D01*
X73675412Y-123881830D02*
X73827793Y-123843734D01*
X73827793Y-123843734D02*
X73903983Y-123805639D01*
X73903983Y-123805639D02*
X73980174Y-123729449D01*
X73980174Y-123729449D02*
X74018269Y-123615163D01*
X74018269Y-123615163D02*
X74018269Y-123538972D01*
X74018269Y-123538972D02*
X73980174Y-123424687D01*
X73980174Y-123424687D02*
X73942078Y-123386591D01*
X73942078Y-123386591D02*
X73675412Y-123386591D01*
X73675412Y-123386591D02*
X73675412Y-123538972D01*
X74018269Y-123043734D02*
X73218269Y-123043734D01*
X73218269Y-123043734D02*
X74018269Y-122586591D01*
X74018269Y-122586591D02*
X73218269Y-122586591D01*
X74018269Y-122205639D02*
X73218269Y-122205639D01*
X73218269Y-122205639D02*
X73218269Y-122015163D01*
X73218269Y-122015163D02*
X73256364Y-121900877D01*
X73256364Y-121900877D02*
X73332554Y-121824687D01*
X73332554Y-121824687D02*
X73408745Y-121786592D01*
X73408745Y-121786592D02*
X73561126Y-121748496D01*
X73561126Y-121748496D02*
X73675412Y-121748496D01*
X73675412Y-121748496D02*
X73827793Y-121786592D01*
X73827793Y-121786592D02*
X73903983Y-121824687D01*
X73903983Y-121824687D02*
X73980174Y-121900877D01*
X73980174Y-121900877D02*
X74018269Y-122015163D01*
X74018269Y-122015163D02*
X74018269Y-122205639D01*
X73942078Y-128886591D02*
X73980174Y-128924687D01*
X73980174Y-128924687D02*
X74018269Y-129038972D01*
X74018269Y-129038972D02*
X74018269Y-129115163D01*
X74018269Y-129115163D02*
X73980174Y-129229449D01*
X73980174Y-129229449D02*
X73903983Y-129305639D01*
X73903983Y-129305639D02*
X73827793Y-129343734D01*
X73827793Y-129343734D02*
X73675412Y-129381830D01*
X73675412Y-129381830D02*
X73561126Y-129381830D01*
X73561126Y-129381830D02*
X73408745Y-129343734D01*
X73408745Y-129343734D02*
X73332554Y-129305639D01*
X73332554Y-129305639D02*
X73256364Y-129229449D01*
X73256364Y-129229449D02*
X73218269Y-129115163D01*
X73218269Y-129115163D02*
X73218269Y-129038972D01*
X73218269Y-129038972D02*
X73256364Y-128924687D01*
X73256364Y-128924687D02*
X73294459Y-128886591D01*
X73980174Y-128581830D02*
X74018269Y-128467544D01*
X74018269Y-128467544D02*
X74018269Y-128277068D01*
X74018269Y-128277068D02*
X73980174Y-128200877D01*
X73980174Y-128200877D02*
X73942078Y-128162782D01*
X73942078Y-128162782D02*
X73865888Y-128124687D01*
X73865888Y-128124687D02*
X73789697Y-128124687D01*
X73789697Y-128124687D02*
X73713507Y-128162782D01*
X73713507Y-128162782D02*
X73675412Y-128200877D01*
X73675412Y-128200877D02*
X73637316Y-128277068D01*
X73637316Y-128277068D02*
X73599221Y-128429449D01*
X73599221Y-128429449D02*
X73561126Y-128505639D01*
X73561126Y-128505639D02*
X73523031Y-128543734D01*
X73523031Y-128543734D02*
X73446840Y-128581830D01*
X73446840Y-128581830D02*
X73370650Y-128581830D01*
X73370650Y-128581830D02*
X73294459Y-128543734D01*
X73294459Y-128543734D02*
X73256364Y-128505639D01*
X73256364Y-128505639D02*
X73218269Y-128429449D01*
X73218269Y-128429449D02*
X73218269Y-128238972D01*
X73218269Y-128238972D02*
X73256364Y-128124687D01*
X73218269Y-127896115D02*
X73218269Y-127438972D01*
X74018269Y-127667544D02*
X73218269Y-127667544D01*
X74018269Y-127172305D02*
X73218269Y-127172305D01*
X73218269Y-127172305D02*
X73218269Y-126867543D01*
X73218269Y-126867543D02*
X73256364Y-126791353D01*
X73256364Y-126791353D02*
X73294459Y-126753258D01*
X73294459Y-126753258D02*
X73370650Y-126715162D01*
X73370650Y-126715162D02*
X73484935Y-126715162D01*
X73484935Y-126715162D02*
X73561126Y-126753258D01*
X73561126Y-126753258D02*
X73599221Y-126791353D01*
X73599221Y-126791353D02*
X73637316Y-126867543D01*
X73637316Y-126867543D02*
X73637316Y-127172305D01*
X74018269Y-134443734D02*
X73218269Y-134443734D01*
X73599221Y-134443734D02*
X73599221Y-133986591D01*
X74018269Y-133986591D02*
X73218269Y-133986591D01*
X73218269Y-133453258D02*
X73218269Y-133300877D01*
X73218269Y-133300877D02*
X73256364Y-133224687D01*
X73256364Y-133224687D02*
X73332554Y-133148496D01*
X73332554Y-133148496D02*
X73484935Y-133110401D01*
X73484935Y-133110401D02*
X73751602Y-133110401D01*
X73751602Y-133110401D02*
X73903983Y-133148496D01*
X73903983Y-133148496D02*
X73980174Y-133224687D01*
X73980174Y-133224687D02*
X74018269Y-133300877D01*
X74018269Y-133300877D02*
X74018269Y-133453258D01*
X74018269Y-133453258D02*
X73980174Y-133529449D01*
X73980174Y-133529449D02*
X73903983Y-133605639D01*
X73903983Y-133605639D02*
X73751602Y-133643735D01*
X73751602Y-133643735D02*
X73484935Y-133643735D01*
X73484935Y-133643735D02*
X73332554Y-133605639D01*
X73332554Y-133605639D02*
X73256364Y-133529449D01*
X73256364Y-133529449D02*
X73218269Y-133453258D01*
X74018269Y-132767544D02*
X73218269Y-132767544D01*
X73218269Y-132767544D02*
X73789697Y-132500878D01*
X73789697Y-132500878D02*
X73218269Y-132234211D01*
X73218269Y-132234211D02*
X74018269Y-132234211D01*
X73599221Y-131853258D02*
X73599221Y-131586592D01*
X74018269Y-131472306D02*
X74018269Y-131853258D01*
X74018269Y-131853258D02*
X73218269Y-131853258D01*
X73218269Y-131853258D02*
X73218269Y-131472306D01*
X74018269Y-138786591D02*
X73637316Y-139053258D01*
X74018269Y-139243734D02*
X73218269Y-139243734D01*
X73218269Y-139243734D02*
X73218269Y-138938972D01*
X73218269Y-138938972D02*
X73256364Y-138862782D01*
X73256364Y-138862782D02*
X73294459Y-138824687D01*
X73294459Y-138824687D02*
X73370650Y-138786591D01*
X73370650Y-138786591D02*
X73484935Y-138786591D01*
X73484935Y-138786591D02*
X73561126Y-138824687D01*
X73561126Y-138824687D02*
X73599221Y-138862782D01*
X73599221Y-138862782D02*
X73637316Y-138938972D01*
X73637316Y-138938972D02*
X73637316Y-139243734D01*
X73599221Y-138443734D02*
X73599221Y-138177068D01*
X74018269Y-138062782D02*
X74018269Y-138443734D01*
X74018269Y-138443734D02*
X73218269Y-138443734D01*
X73218269Y-138443734D02*
X73218269Y-138062782D01*
X73980174Y-137758020D02*
X74018269Y-137643734D01*
X74018269Y-137643734D02*
X74018269Y-137453258D01*
X74018269Y-137453258D02*
X73980174Y-137377067D01*
X73980174Y-137377067D02*
X73942078Y-137338972D01*
X73942078Y-137338972D02*
X73865888Y-137300877D01*
X73865888Y-137300877D02*
X73789697Y-137300877D01*
X73789697Y-137300877D02*
X73713507Y-137338972D01*
X73713507Y-137338972D02*
X73675412Y-137377067D01*
X73675412Y-137377067D02*
X73637316Y-137453258D01*
X73637316Y-137453258D02*
X73599221Y-137605639D01*
X73599221Y-137605639D02*
X73561126Y-137681829D01*
X73561126Y-137681829D02*
X73523031Y-137719924D01*
X73523031Y-137719924D02*
X73446840Y-137758020D01*
X73446840Y-137758020D02*
X73370650Y-137758020D01*
X73370650Y-137758020D02*
X73294459Y-137719924D01*
X73294459Y-137719924D02*
X73256364Y-137681829D01*
X73256364Y-137681829D02*
X73218269Y-137605639D01*
X73218269Y-137605639D02*
X73218269Y-137415162D01*
X73218269Y-137415162D02*
X73256364Y-137300877D01*
X73980174Y-144281830D02*
X74018269Y-144167544D01*
X74018269Y-144167544D02*
X74018269Y-143977068D01*
X74018269Y-143977068D02*
X73980174Y-143900877D01*
X73980174Y-143900877D02*
X73942078Y-143862782D01*
X73942078Y-143862782D02*
X73865888Y-143824687D01*
X73865888Y-143824687D02*
X73789697Y-143824687D01*
X73789697Y-143824687D02*
X73713507Y-143862782D01*
X73713507Y-143862782D02*
X73675412Y-143900877D01*
X73675412Y-143900877D02*
X73637316Y-143977068D01*
X73637316Y-143977068D02*
X73599221Y-144129449D01*
X73599221Y-144129449D02*
X73561126Y-144205639D01*
X73561126Y-144205639D02*
X73523031Y-144243734D01*
X73523031Y-144243734D02*
X73446840Y-144281830D01*
X73446840Y-144281830D02*
X73370650Y-144281830D01*
X73370650Y-144281830D02*
X73294459Y-144243734D01*
X73294459Y-144243734D02*
X73256364Y-144205639D01*
X73256364Y-144205639D02*
X73218269Y-144129449D01*
X73218269Y-144129449D02*
X73218269Y-143938972D01*
X73218269Y-143938972D02*
X73256364Y-143824687D01*
X73218269Y-143329448D02*
X73218269Y-143177067D01*
X73218269Y-143177067D02*
X73256364Y-143100877D01*
X73256364Y-143100877D02*
X73332554Y-143024686D01*
X73332554Y-143024686D02*
X73484935Y-142986591D01*
X73484935Y-142986591D02*
X73751602Y-142986591D01*
X73751602Y-142986591D02*
X73903983Y-143024686D01*
X73903983Y-143024686D02*
X73980174Y-143100877D01*
X73980174Y-143100877D02*
X74018269Y-143177067D01*
X74018269Y-143177067D02*
X74018269Y-143329448D01*
X74018269Y-143329448D02*
X73980174Y-143405639D01*
X73980174Y-143405639D02*
X73903983Y-143481829D01*
X73903983Y-143481829D02*
X73751602Y-143519925D01*
X73751602Y-143519925D02*
X73484935Y-143519925D01*
X73484935Y-143519925D02*
X73332554Y-143481829D01*
X73332554Y-143481829D02*
X73256364Y-143405639D01*
X73256364Y-143405639D02*
X73218269Y-143329448D01*
X74018269Y-142643734D02*
X73218269Y-142643734D01*
X73218269Y-142643734D02*
X74018269Y-142186591D01*
X74018269Y-142186591D02*
X73218269Y-142186591D01*
X73980174Y-148981830D02*
X74018269Y-148867544D01*
X74018269Y-148867544D02*
X74018269Y-148677068D01*
X74018269Y-148677068D02*
X73980174Y-148600877D01*
X73980174Y-148600877D02*
X73942078Y-148562782D01*
X73942078Y-148562782D02*
X73865888Y-148524687D01*
X73865888Y-148524687D02*
X73789697Y-148524687D01*
X73789697Y-148524687D02*
X73713507Y-148562782D01*
X73713507Y-148562782D02*
X73675412Y-148600877D01*
X73675412Y-148600877D02*
X73637316Y-148677068D01*
X73637316Y-148677068D02*
X73599221Y-148829449D01*
X73599221Y-148829449D02*
X73561126Y-148905639D01*
X73561126Y-148905639D02*
X73523031Y-148943734D01*
X73523031Y-148943734D02*
X73446840Y-148981830D01*
X73446840Y-148981830D02*
X73370650Y-148981830D01*
X73370650Y-148981830D02*
X73294459Y-148943734D01*
X73294459Y-148943734D02*
X73256364Y-148905639D01*
X73256364Y-148905639D02*
X73218269Y-148829449D01*
X73218269Y-148829449D02*
X73218269Y-148638972D01*
X73218269Y-148638972D02*
X73256364Y-148524687D01*
X73218269Y-148296115D02*
X74018269Y-148029448D01*
X74018269Y-148029448D02*
X73218269Y-147762782D01*
X74018269Y-154143734D02*
X73218269Y-154143734D01*
X74018269Y-153762782D02*
X73218269Y-153762782D01*
X73218269Y-153762782D02*
X74018269Y-153305639D01*
X74018269Y-153305639D02*
X73218269Y-153305639D01*
X74018269Y-152924687D02*
X73218269Y-152924687D01*
X73218269Y-152924687D02*
X73218269Y-152619925D01*
X73218269Y-152619925D02*
X73256364Y-152543735D01*
X73256364Y-152543735D02*
X73294459Y-152505640D01*
X73294459Y-152505640D02*
X73370650Y-152467544D01*
X73370650Y-152467544D02*
X73484935Y-152467544D01*
X73484935Y-152467544D02*
X73561126Y-152505640D01*
X73561126Y-152505640D02*
X73599221Y-152543735D01*
X73599221Y-152543735D02*
X73637316Y-152619925D01*
X73637316Y-152619925D02*
X73637316Y-152924687D01*
X74018269Y-159743734D02*
X73218269Y-159743734D01*
X73599221Y-159743734D02*
X73599221Y-159286591D01*
X74018269Y-159286591D02*
X73218269Y-159286591D01*
X73599221Y-158905639D02*
X73599221Y-158638973D01*
X74018269Y-158524687D02*
X74018269Y-158905639D01*
X74018269Y-158905639D02*
X73218269Y-158905639D01*
X73218269Y-158905639D02*
X73218269Y-158524687D01*
X74018269Y-158181829D02*
X73218269Y-158181829D01*
X73218269Y-158181829D02*
X74018269Y-157724686D01*
X74018269Y-157724686D02*
X73218269Y-157724686D01*
X74018269Y-157343734D02*
X73218269Y-157343734D01*
X73218269Y-157343734D02*
X73218269Y-157153258D01*
X73218269Y-157153258D02*
X73256364Y-157038972D01*
X73256364Y-157038972D02*
X73332554Y-156962782D01*
X73332554Y-156962782D02*
X73408745Y-156924687D01*
X73408745Y-156924687D02*
X73561126Y-156886591D01*
X73561126Y-156886591D02*
X73675412Y-156886591D01*
X73675412Y-156886591D02*
X73827793Y-156924687D01*
X73827793Y-156924687D02*
X73903983Y-156962782D01*
X73903983Y-156962782D02*
X73980174Y-157038972D01*
X73980174Y-157038972D02*
X74018269Y-157153258D01*
X74018269Y-157153258D02*
X74018269Y-157343734D01*
X73789697Y-164381830D02*
X73789697Y-164000877D01*
X74018269Y-164458020D02*
X73218269Y-164191353D01*
X73218269Y-164191353D02*
X74018269Y-163924687D01*
X74018269Y-163277068D02*
X74018269Y-163658020D01*
X74018269Y-163658020D02*
X73218269Y-163658020D01*
X74018269Y-163010401D02*
X73218269Y-163010401D01*
X73218269Y-163010401D02*
X73789697Y-162743735D01*
X73789697Y-162743735D02*
X73218269Y-162477068D01*
X73218269Y-162477068D02*
X74018269Y-162477068D01*
X125565009Y-56075312D02*
X125603104Y-55999122D01*
X125603104Y-55999122D02*
X125603104Y-55884836D01*
X125603104Y-55884836D02*
X125565009Y-55770550D01*
X125565009Y-55770550D02*
X125488819Y-55694360D01*
X125488819Y-55694360D02*
X125412628Y-55656265D01*
X125412628Y-55656265D02*
X125260247Y-55618169D01*
X125260247Y-55618169D02*
X125145961Y-55618169D01*
X125145961Y-55618169D02*
X124993580Y-55656265D01*
X124993580Y-55656265D02*
X124917390Y-55694360D01*
X124917390Y-55694360D02*
X124841200Y-55770550D01*
X124841200Y-55770550D02*
X124803104Y-55884836D01*
X124803104Y-55884836D02*
X124803104Y-55961027D01*
X124803104Y-55961027D02*
X124841200Y-56075312D01*
X124841200Y-56075312D02*
X124879295Y-56113408D01*
X124879295Y-56113408D02*
X125145961Y-56113408D01*
X125145961Y-56113408D02*
X125145961Y-55961027D01*
X124803104Y-56456265D02*
X125603104Y-56456265D01*
X125603104Y-56456265D02*
X124803104Y-56913408D01*
X124803104Y-56913408D02*
X125603104Y-56913408D01*
X124803104Y-57294360D02*
X125603104Y-57294360D01*
X125603104Y-57294360D02*
X125603104Y-57484836D01*
X125603104Y-57484836D02*
X125565009Y-57599122D01*
X125565009Y-57599122D02*
X125488819Y-57675312D01*
X125488819Y-57675312D02*
X125412628Y-57713407D01*
X125412628Y-57713407D02*
X125260247Y-57751503D01*
X125260247Y-57751503D02*
X125145961Y-57751503D01*
X125145961Y-57751503D02*
X124993580Y-57713407D01*
X124993580Y-57713407D02*
X124917390Y-57675312D01*
X124917390Y-57675312D02*
X124841200Y-57599122D01*
X124841200Y-57599122D02*
X124803104Y-57484836D01*
X124803104Y-57484836D02*
X124803104Y-57294360D01*
X125031676Y-61318169D02*
X125031676Y-61699122D01*
X124803104Y-61241979D02*
X125603104Y-61508646D01*
X125603104Y-61508646D02*
X124803104Y-61775312D01*
X125222152Y-66722931D02*
X125184057Y-66837217D01*
X125184057Y-66837217D02*
X125145961Y-66875312D01*
X125145961Y-66875312D02*
X125069771Y-66913408D01*
X125069771Y-66913408D02*
X124955485Y-66913408D01*
X124955485Y-66913408D02*
X124879295Y-66875312D01*
X124879295Y-66875312D02*
X124841200Y-66837217D01*
X124841200Y-66837217D02*
X124803104Y-66761027D01*
X124803104Y-66761027D02*
X124803104Y-66456265D01*
X124803104Y-66456265D02*
X125603104Y-66456265D01*
X125603104Y-66456265D02*
X125603104Y-66722931D01*
X125603104Y-66722931D02*
X125565009Y-66799122D01*
X125565009Y-66799122D02*
X125526914Y-66837217D01*
X125526914Y-66837217D02*
X125450723Y-66875312D01*
X125450723Y-66875312D02*
X125374533Y-66875312D01*
X125374533Y-66875312D02*
X125298342Y-66837217D01*
X125298342Y-66837217D02*
X125260247Y-66799122D01*
X125260247Y-66799122D02*
X125222152Y-66722931D01*
X125222152Y-66722931D02*
X125222152Y-66456265D01*
X125603104Y-71180074D02*
X125603104Y-71713408D01*
X125603104Y-71713408D02*
X124803104Y-71180074D01*
X124803104Y-71180074D02*
X124803104Y-71713408D01*
X125565009Y-80975312D02*
X125603104Y-80899122D01*
X125603104Y-80899122D02*
X125603104Y-80784836D01*
X125603104Y-80784836D02*
X125565009Y-80670550D01*
X125565009Y-80670550D02*
X125488819Y-80594360D01*
X125488819Y-80594360D02*
X125412628Y-80556265D01*
X125412628Y-80556265D02*
X125260247Y-80518169D01*
X125260247Y-80518169D02*
X125145961Y-80518169D01*
X125145961Y-80518169D02*
X124993580Y-80556265D01*
X124993580Y-80556265D02*
X124917390Y-80594360D01*
X124917390Y-80594360D02*
X124841200Y-80670550D01*
X124841200Y-80670550D02*
X124803104Y-80784836D01*
X124803104Y-80784836D02*
X124803104Y-80861027D01*
X124803104Y-80861027D02*
X124841200Y-80975312D01*
X124841200Y-80975312D02*
X124879295Y-81013408D01*
X124879295Y-81013408D02*
X125145961Y-81013408D01*
X125145961Y-81013408D02*
X125145961Y-80861027D01*
X124803104Y-81356265D02*
X125603104Y-81356265D01*
X125603104Y-81356265D02*
X124803104Y-81813408D01*
X124803104Y-81813408D02*
X125603104Y-81813408D01*
X124803104Y-82194360D02*
X125603104Y-82194360D01*
X125603104Y-82194360D02*
X125603104Y-82384836D01*
X125603104Y-82384836D02*
X125565009Y-82499122D01*
X125565009Y-82499122D02*
X125488819Y-82575312D01*
X125488819Y-82575312D02*
X125412628Y-82613407D01*
X125412628Y-82613407D02*
X125260247Y-82651503D01*
X125260247Y-82651503D02*
X125145961Y-82651503D01*
X125145961Y-82651503D02*
X124993580Y-82613407D01*
X124993580Y-82613407D02*
X124917390Y-82575312D01*
X124917390Y-82575312D02*
X124841200Y-82499122D01*
X124841200Y-82499122D02*
X124803104Y-82384836D01*
X124803104Y-82384836D02*
X124803104Y-82194360D01*
X125107866Y-85156265D02*
X125107866Y-85765789D01*
X124803104Y-85461027D02*
X125412628Y-85461027D01*
X125526914Y-86108645D02*
X125565009Y-86146741D01*
X125565009Y-86146741D02*
X125603104Y-86222931D01*
X125603104Y-86222931D02*
X125603104Y-86413407D01*
X125603104Y-86413407D02*
X125565009Y-86489598D01*
X125565009Y-86489598D02*
X125526914Y-86527693D01*
X125526914Y-86527693D02*
X125450723Y-86565788D01*
X125450723Y-86565788D02*
X125374533Y-86565788D01*
X125374533Y-86565788D02*
X125260247Y-86527693D01*
X125260247Y-86527693D02*
X124803104Y-86070550D01*
X124803104Y-86070550D02*
X124803104Y-86565788D01*
X125336438Y-87251503D02*
X124803104Y-87251503D01*
X125641200Y-87061027D02*
X125069771Y-86870550D01*
X125069771Y-86870550D02*
X125069771Y-87365789D01*
X125603104Y-87556265D02*
X124803104Y-87822932D01*
X124803104Y-87822932D02*
X125603104Y-88089598D01*
X124803104Y-110756265D02*
X125603104Y-110756265D01*
X125603104Y-110756265D02*
X125603104Y-111061027D01*
X125603104Y-111061027D02*
X125565009Y-111137217D01*
X125565009Y-111137217D02*
X125526914Y-111175312D01*
X125526914Y-111175312D02*
X125450723Y-111213408D01*
X125450723Y-111213408D02*
X125336438Y-111213408D01*
X125336438Y-111213408D02*
X125260247Y-111175312D01*
X125260247Y-111175312D02*
X125222152Y-111137217D01*
X125222152Y-111137217D02*
X125184057Y-111061027D01*
X125184057Y-111061027D02*
X125184057Y-110756265D01*
X125603104Y-111556265D02*
X124955485Y-111556265D01*
X124955485Y-111556265D02*
X124879295Y-111594360D01*
X124879295Y-111594360D02*
X124841200Y-111632455D01*
X124841200Y-111632455D02*
X124803104Y-111708646D01*
X124803104Y-111708646D02*
X124803104Y-111861027D01*
X124803104Y-111861027D02*
X124841200Y-111937217D01*
X124841200Y-111937217D02*
X124879295Y-111975312D01*
X124879295Y-111975312D02*
X124955485Y-112013408D01*
X124955485Y-112013408D02*
X125603104Y-112013408D01*
X124803104Y-112775312D02*
X124803104Y-112394360D01*
X124803104Y-112394360D02*
X125603104Y-112394360D01*
X124841200Y-113003883D02*
X124803104Y-113118169D01*
X124803104Y-113118169D02*
X124803104Y-113308645D01*
X124803104Y-113308645D02*
X124841200Y-113384836D01*
X124841200Y-113384836D02*
X124879295Y-113422931D01*
X124879295Y-113422931D02*
X124955485Y-113461026D01*
X124955485Y-113461026D02*
X125031676Y-113461026D01*
X125031676Y-113461026D02*
X125107866Y-113422931D01*
X125107866Y-113422931D02*
X125145961Y-113384836D01*
X125145961Y-113384836D02*
X125184057Y-113308645D01*
X125184057Y-113308645D02*
X125222152Y-113156264D01*
X125222152Y-113156264D02*
X125260247Y-113080074D01*
X125260247Y-113080074D02*
X125298342Y-113041979D01*
X125298342Y-113041979D02*
X125374533Y-113003883D01*
X125374533Y-113003883D02*
X125450723Y-113003883D01*
X125450723Y-113003883D02*
X125526914Y-113041979D01*
X125526914Y-113041979D02*
X125565009Y-113080074D01*
X125565009Y-113080074D02*
X125603104Y-113156264D01*
X125603104Y-113156264D02*
X125603104Y-113346741D01*
X125603104Y-113346741D02*
X125565009Y-113461026D01*
X125222152Y-113803884D02*
X125222152Y-114070550D01*
X124803104Y-114184836D02*
X124803104Y-113803884D01*
X124803104Y-113803884D02*
X125603104Y-113803884D01*
X125603104Y-113803884D02*
X125603104Y-114184836D01*
X124841200Y-116518169D02*
X124803104Y-116632455D01*
X124803104Y-116632455D02*
X124803104Y-116822931D01*
X124803104Y-116822931D02*
X124841200Y-116899122D01*
X124841200Y-116899122D02*
X124879295Y-116937217D01*
X124879295Y-116937217D02*
X124955485Y-116975312D01*
X124955485Y-116975312D02*
X125031676Y-116975312D01*
X125031676Y-116975312D02*
X125107866Y-116937217D01*
X125107866Y-116937217D02*
X125145961Y-116899122D01*
X125145961Y-116899122D02*
X125184057Y-116822931D01*
X125184057Y-116822931D02*
X125222152Y-116670550D01*
X125222152Y-116670550D02*
X125260247Y-116594360D01*
X125260247Y-116594360D02*
X125298342Y-116556265D01*
X125298342Y-116556265D02*
X125374533Y-116518169D01*
X125374533Y-116518169D02*
X125450723Y-116518169D01*
X125450723Y-116518169D02*
X125526914Y-116556265D01*
X125526914Y-116556265D02*
X125565009Y-116594360D01*
X125565009Y-116594360D02*
X125603104Y-116670550D01*
X125603104Y-116670550D02*
X125603104Y-116861027D01*
X125603104Y-116861027D02*
X125565009Y-116975312D01*
X124803104Y-117318170D02*
X125603104Y-117318170D01*
X125565009Y-118118169D02*
X125603104Y-118041979D01*
X125603104Y-118041979D02*
X125603104Y-117927693D01*
X125603104Y-117927693D02*
X125565009Y-117813407D01*
X125565009Y-117813407D02*
X125488819Y-117737217D01*
X125488819Y-117737217D02*
X125412628Y-117699122D01*
X125412628Y-117699122D02*
X125260247Y-117661026D01*
X125260247Y-117661026D02*
X125145961Y-117661026D01*
X125145961Y-117661026D02*
X124993580Y-117699122D01*
X124993580Y-117699122D02*
X124917390Y-117737217D01*
X124917390Y-117737217D02*
X124841200Y-117813407D01*
X124841200Y-117813407D02*
X124803104Y-117927693D01*
X124803104Y-117927693D02*
X124803104Y-118003884D01*
X124803104Y-118003884D02*
X124841200Y-118118169D01*
X124841200Y-118118169D02*
X124879295Y-118156265D01*
X124879295Y-118156265D02*
X125145961Y-118156265D01*
X125145961Y-118156265D02*
X125145961Y-118003884D01*
X124803104Y-118499122D02*
X125603104Y-118499122D01*
X125603104Y-118499122D02*
X124803104Y-118956265D01*
X124803104Y-118956265D02*
X125603104Y-118956265D01*
X124879295Y-121813408D02*
X124841200Y-121775312D01*
X124841200Y-121775312D02*
X124803104Y-121661027D01*
X124803104Y-121661027D02*
X124803104Y-121584836D01*
X124803104Y-121584836D02*
X124841200Y-121470550D01*
X124841200Y-121470550D02*
X124917390Y-121394360D01*
X124917390Y-121394360D02*
X124993580Y-121356265D01*
X124993580Y-121356265D02*
X125145961Y-121318169D01*
X125145961Y-121318169D02*
X125260247Y-121318169D01*
X125260247Y-121318169D02*
X125412628Y-121356265D01*
X125412628Y-121356265D02*
X125488819Y-121394360D01*
X125488819Y-121394360D02*
X125565009Y-121470550D01*
X125565009Y-121470550D02*
X125603104Y-121584836D01*
X125603104Y-121584836D02*
X125603104Y-121661027D01*
X125603104Y-121661027D02*
X125565009Y-121775312D01*
X125565009Y-121775312D02*
X125526914Y-121813408D01*
X124841200Y-122118169D02*
X124803104Y-122232455D01*
X124803104Y-122232455D02*
X124803104Y-122422931D01*
X124803104Y-122422931D02*
X124841200Y-122499122D01*
X124841200Y-122499122D02*
X124879295Y-122537217D01*
X124879295Y-122537217D02*
X124955485Y-122575312D01*
X124955485Y-122575312D02*
X125031676Y-122575312D01*
X125031676Y-122575312D02*
X125107866Y-122537217D01*
X125107866Y-122537217D02*
X125145961Y-122499122D01*
X125145961Y-122499122D02*
X125184057Y-122422931D01*
X125184057Y-122422931D02*
X125222152Y-122270550D01*
X125222152Y-122270550D02*
X125260247Y-122194360D01*
X125260247Y-122194360D02*
X125298342Y-122156265D01*
X125298342Y-122156265D02*
X125374533Y-122118169D01*
X125374533Y-122118169D02*
X125450723Y-122118169D01*
X125450723Y-122118169D02*
X125526914Y-122156265D01*
X125526914Y-122156265D02*
X125565009Y-122194360D01*
X125565009Y-122194360D02*
X125603104Y-122270550D01*
X125603104Y-122270550D02*
X125603104Y-122461027D01*
X125603104Y-122461027D02*
X125565009Y-122575312D01*
X125603104Y-122803884D02*
X125603104Y-123261027D01*
X124803104Y-123032455D02*
X125603104Y-123032455D01*
X124803104Y-123527694D02*
X125603104Y-123527694D01*
X125603104Y-123527694D02*
X125603104Y-123832456D01*
X125603104Y-123832456D02*
X125565009Y-123908646D01*
X125565009Y-123908646D02*
X125526914Y-123946741D01*
X125526914Y-123946741D02*
X125450723Y-123984837D01*
X125450723Y-123984837D02*
X125336438Y-123984837D01*
X125336438Y-123984837D02*
X125260247Y-123946741D01*
X125260247Y-123946741D02*
X125222152Y-123908646D01*
X125222152Y-123908646D02*
X125184057Y-123832456D01*
X125184057Y-123832456D02*
X125184057Y-123527694D01*
X124803104Y-126356265D02*
X125603104Y-126356265D01*
X125222152Y-126356265D02*
X125222152Y-126813408D01*
X124803104Y-126813408D02*
X125603104Y-126813408D01*
X125603104Y-127346741D02*
X125603104Y-127499122D01*
X125603104Y-127499122D02*
X125565009Y-127575312D01*
X125565009Y-127575312D02*
X125488819Y-127651503D01*
X125488819Y-127651503D02*
X125336438Y-127689598D01*
X125336438Y-127689598D02*
X125069771Y-127689598D01*
X125069771Y-127689598D02*
X124917390Y-127651503D01*
X124917390Y-127651503D02*
X124841200Y-127575312D01*
X124841200Y-127575312D02*
X124803104Y-127499122D01*
X124803104Y-127499122D02*
X124803104Y-127346741D01*
X124803104Y-127346741D02*
X124841200Y-127270550D01*
X124841200Y-127270550D02*
X124917390Y-127194360D01*
X124917390Y-127194360D02*
X125069771Y-127156264D01*
X125069771Y-127156264D02*
X125336438Y-127156264D01*
X125336438Y-127156264D02*
X125488819Y-127194360D01*
X125488819Y-127194360D02*
X125565009Y-127270550D01*
X125565009Y-127270550D02*
X125603104Y-127346741D01*
X124803104Y-128032455D02*
X125603104Y-128032455D01*
X125603104Y-128032455D02*
X125031676Y-128299121D01*
X125031676Y-128299121D02*
X125603104Y-128565788D01*
X125603104Y-128565788D02*
X124803104Y-128565788D01*
X125222152Y-128946741D02*
X125222152Y-129213407D01*
X124803104Y-129327693D02*
X124803104Y-128946741D01*
X124803104Y-128946741D02*
X125603104Y-128946741D01*
X125603104Y-128946741D02*
X125603104Y-129327693D01*
X124803104Y-132313408D02*
X125184057Y-132046741D01*
X124803104Y-131856265D02*
X125603104Y-131856265D01*
X125603104Y-131856265D02*
X125603104Y-132161027D01*
X125603104Y-132161027D02*
X125565009Y-132237217D01*
X125565009Y-132237217D02*
X125526914Y-132275312D01*
X125526914Y-132275312D02*
X125450723Y-132313408D01*
X125450723Y-132313408D02*
X125336438Y-132313408D01*
X125336438Y-132313408D02*
X125260247Y-132275312D01*
X125260247Y-132275312D02*
X125222152Y-132237217D01*
X125222152Y-132237217D02*
X125184057Y-132161027D01*
X125184057Y-132161027D02*
X125184057Y-131856265D01*
X125222152Y-132656265D02*
X125222152Y-132922931D01*
X124803104Y-133037217D02*
X124803104Y-132656265D01*
X124803104Y-132656265D02*
X125603104Y-132656265D01*
X125603104Y-132656265D02*
X125603104Y-133037217D01*
X124841200Y-133341979D02*
X124803104Y-133456265D01*
X124803104Y-133456265D02*
X124803104Y-133646741D01*
X124803104Y-133646741D02*
X124841200Y-133722932D01*
X124841200Y-133722932D02*
X124879295Y-133761027D01*
X124879295Y-133761027D02*
X124955485Y-133799122D01*
X124955485Y-133799122D02*
X125031676Y-133799122D01*
X125031676Y-133799122D02*
X125107866Y-133761027D01*
X125107866Y-133761027D02*
X125145961Y-133722932D01*
X125145961Y-133722932D02*
X125184057Y-133646741D01*
X125184057Y-133646741D02*
X125222152Y-133494360D01*
X125222152Y-133494360D02*
X125260247Y-133418170D01*
X125260247Y-133418170D02*
X125298342Y-133380075D01*
X125298342Y-133380075D02*
X125374533Y-133341979D01*
X125374533Y-133341979D02*
X125450723Y-133341979D01*
X125450723Y-133341979D02*
X125526914Y-133380075D01*
X125526914Y-133380075D02*
X125565009Y-133418170D01*
X125565009Y-133418170D02*
X125603104Y-133494360D01*
X125603104Y-133494360D02*
X125603104Y-133684837D01*
X125603104Y-133684837D02*
X125565009Y-133799122D01*
X124841200Y-136918169D02*
X124803104Y-137032455D01*
X124803104Y-137032455D02*
X124803104Y-137222931D01*
X124803104Y-137222931D02*
X124841200Y-137299122D01*
X124841200Y-137299122D02*
X124879295Y-137337217D01*
X124879295Y-137337217D02*
X124955485Y-137375312D01*
X124955485Y-137375312D02*
X125031676Y-137375312D01*
X125031676Y-137375312D02*
X125107866Y-137337217D01*
X125107866Y-137337217D02*
X125145961Y-137299122D01*
X125145961Y-137299122D02*
X125184057Y-137222931D01*
X125184057Y-137222931D02*
X125222152Y-137070550D01*
X125222152Y-137070550D02*
X125260247Y-136994360D01*
X125260247Y-136994360D02*
X125298342Y-136956265D01*
X125298342Y-136956265D02*
X125374533Y-136918169D01*
X125374533Y-136918169D02*
X125450723Y-136918169D01*
X125450723Y-136918169D02*
X125526914Y-136956265D01*
X125526914Y-136956265D02*
X125565009Y-136994360D01*
X125565009Y-136994360D02*
X125603104Y-137070550D01*
X125603104Y-137070550D02*
X125603104Y-137261027D01*
X125603104Y-137261027D02*
X125565009Y-137375312D01*
X125603104Y-137870551D02*
X125603104Y-138022932D01*
X125603104Y-138022932D02*
X125565009Y-138099122D01*
X125565009Y-138099122D02*
X125488819Y-138175313D01*
X125488819Y-138175313D02*
X125336438Y-138213408D01*
X125336438Y-138213408D02*
X125069771Y-138213408D01*
X125069771Y-138213408D02*
X124917390Y-138175313D01*
X124917390Y-138175313D02*
X124841200Y-138099122D01*
X124841200Y-138099122D02*
X124803104Y-138022932D01*
X124803104Y-138022932D02*
X124803104Y-137870551D01*
X124803104Y-137870551D02*
X124841200Y-137794360D01*
X124841200Y-137794360D02*
X124917390Y-137718170D01*
X124917390Y-137718170D02*
X125069771Y-137680074D01*
X125069771Y-137680074D02*
X125336438Y-137680074D01*
X125336438Y-137680074D02*
X125488819Y-137718170D01*
X125488819Y-137718170D02*
X125565009Y-137794360D01*
X125565009Y-137794360D02*
X125603104Y-137870551D01*
X124803104Y-138556265D02*
X125603104Y-138556265D01*
X125603104Y-138556265D02*
X124803104Y-139013408D01*
X124803104Y-139013408D02*
X125603104Y-139013408D01*
X124841200Y-142718169D02*
X124803104Y-142832455D01*
X124803104Y-142832455D02*
X124803104Y-143022931D01*
X124803104Y-143022931D02*
X124841200Y-143099122D01*
X124841200Y-143099122D02*
X124879295Y-143137217D01*
X124879295Y-143137217D02*
X124955485Y-143175312D01*
X124955485Y-143175312D02*
X125031676Y-143175312D01*
X125031676Y-143175312D02*
X125107866Y-143137217D01*
X125107866Y-143137217D02*
X125145961Y-143099122D01*
X125145961Y-143099122D02*
X125184057Y-143022931D01*
X125184057Y-143022931D02*
X125222152Y-142870550D01*
X125222152Y-142870550D02*
X125260247Y-142794360D01*
X125260247Y-142794360D02*
X125298342Y-142756265D01*
X125298342Y-142756265D02*
X125374533Y-142718169D01*
X125374533Y-142718169D02*
X125450723Y-142718169D01*
X125450723Y-142718169D02*
X125526914Y-142756265D01*
X125526914Y-142756265D02*
X125565009Y-142794360D01*
X125565009Y-142794360D02*
X125603104Y-142870550D01*
X125603104Y-142870550D02*
X125603104Y-143061027D01*
X125603104Y-143061027D02*
X125565009Y-143175312D01*
X125603104Y-143403884D02*
X124803104Y-143670551D01*
X124803104Y-143670551D02*
X125603104Y-143937217D01*
X124803104Y-147256265D02*
X125603104Y-147256265D01*
X124803104Y-147637217D02*
X125603104Y-147637217D01*
X125603104Y-147637217D02*
X124803104Y-148094360D01*
X124803104Y-148094360D02*
X125603104Y-148094360D01*
X124803104Y-148475312D02*
X125603104Y-148475312D01*
X125603104Y-148475312D02*
X125603104Y-148780074D01*
X125603104Y-148780074D02*
X125565009Y-148856264D01*
X125565009Y-148856264D02*
X125526914Y-148894359D01*
X125526914Y-148894359D02*
X125450723Y-148932455D01*
X125450723Y-148932455D02*
X125336438Y-148932455D01*
X125336438Y-148932455D02*
X125260247Y-148894359D01*
X125260247Y-148894359D02*
X125222152Y-148856264D01*
X125222152Y-148856264D02*
X125184057Y-148780074D01*
X125184057Y-148780074D02*
X125184057Y-148475312D01*
X124803104Y-151956265D02*
X125603104Y-151956265D01*
X125222152Y-151956265D02*
X125222152Y-152413408D01*
X124803104Y-152413408D02*
X125603104Y-152413408D01*
X125222152Y-152794360D02*
X125222152Y-153061026D01*
X124803104Y-153175312D02*
X124803104Y-152794360D01*
X124803104Y-152794360D02*
X125603104Y-152794360D01*
X125603104Y-152794360D02*
X125603104Y-153175312D01*
X124803104Y-153518170D02*
X125603104Y-153518170D01*
X125603104Y-153518170D02*
X124803104Y-153975313D01*
X124803104Y-153975313D02*
X125603104Y-153975313D01*
X124803104Y-154356265D02*
X125603104Y-154356265D01*
X125603104Y-154356265D02*
X125603104Y-154546741D01*
X125603104Y-154546741D02*
X125565009Y-154661027D01*
X125565009Y-154661027D02*
X125488819Y-154737217D01*
X125488819Y-154737217D02*
X125412628Y-154775312D01*
X125412628Y-154775312D02*
X125260247Y-154813408D01*
X125260247Y-154813408D02*
X125145961Y-154813408D01*
X125145961Y-154813408D02*
X124993580Y-154775312D01*
X124993580Y-154775312D02*
X124917390Y-154737217D01*
X124917390Y-154737217D02*
X124841200Y-154661027D01*
X124841200Y-154661027D02*
X124803104Y-154546741D01*
X124803104Y-154546741D02*
X124803104Y-154356265D01*
X125031676Y-157318169D02*
X125031676Y-157699122D01*
X124803104Y-157241979D02*
X125603104Y-157508646D01*
X125603104Y-157508646D02*
X124803104Y-157775312D01*
X124803104Y-158422931D02*
X124803104Y-158041979D01*
X124803104Y-158041979D02*
X125603104Y-158041979D01*
X124803104Y-158689598D02*
X125603104Y-158689598D01*
X125603104Y-158689598D02*
X125031676Y-158956264D01*
X125031676Y-158956264D02*
X125603104Y-159222931D01*
X125603104Y-159222931D02*
X124803104Y-159222931D01*
X125565009Y-162875312D02*
X125603104Y-162799122D01*
X125603104Y-162799122D02*
X125603104Y-162684836D01*
X125603104Y-162684836D02*
X125565009Y-162570550D01*
X125565009Y-162570550D02*
X125488819Y-162494360D01*
X125488819Y-162494360D02*
X125412628Y-162456265D01*
X125412628Y-162456265D02*
X125260247Y-162418169D01*
X125260247Y-162418169D02*
X125145961Y-162418169D01*
X125145961Y-162418169D02*
X124993580Y-162456265D01*
X124993580Y-162456265D02*
X124917390Y-162494360D01*
X124917390Y-162494360D02*
X124841200Y-162570550D01*
X124841200Y-162570550D02*
X124803104Y-162684836D01*
X124803104Y-162684836D02*
X124803104Y-162761027D01*
X124803104Y-162761027D02*
X124841200Y-162875312D01*
X124841200Y-162875312D02*
X124879295Y-162913408D01*
X124879295Y-162913408D02*
X125145961Y-162913408D01*
X125145961Y-162913408D02*
X125145961Y-162761027D01*
X124803104Y-163256265D02*
X125603104Y-163256265D01*
X125603104Y-163256265D02*
X124803104Y-163713408D01*
X124803104Y-163713408D02*
X125603104Y-163713408D01*
X124803104Y-164094360D02*
X125603104Y-164094360D01*
X125603104Y-164094360D02*
X125603104Y-164284836D01*
X125603104Y-164284836D02*
X125565009Y-164399122D01*
X125565009Y-164399122D02*
X125488819Y-164475312D01*
X125488819Y-164475312D02*
X125412628Y-164513407D01*
X125412628Y-164513407D02*
X125260247Y-164551503D01*
X125260247Y-164551503D02*
X125145961Y-164551503D01*
X125145961Y-164551503D02*
X124993580Y-164513407D01*
X124993580Y-164513407D02*
X124917390Y-164475312D01*
X124917390Y-164475312D02*
X124841200Y-164399122D01*
X124841200Y-164399122D02*
X124803104Y-164284836D01*
X124803104Y-164284836D02*
X124803104Y-164094360D01*
D11*
X125251486Y-76490742D02*
X124870534Y-76490742D01*
X124870534Y-76490742D02*
X124832438Y-76871694D01*
X124832438Y-76871694D02*
X124870534Y-76833599D01*
X124870534Y-76833599D02*
X124946724Y-76795504D01*
X124946724Y-76795504D02*
X125137200Y-76795504D01*
X125137200Y-76795504D02*
X125213391Y-76833599D01*
X125213391Y-76833599D02*
X125251486Y-76871694D01*
X125251486Y-76871694D02*
X125289581Y-76947885D01*
X125289581Y-76947885D02*
X125289581Y-77138361D01*
X125289581Y-77138361D02*
X125251486Y-77214551D01*
X125251486Y-77214551D02*
X125213391Y-77252647D01*
X125213391Y-77252647D02*
X125137200Y-77290742D01*
X125137200Y-77290742D02*
X124946724Y-77290742D01*
X124946724Y-77290742D02*
X124870534Y-77252647D01*
X124870534Y-77252647D02*
X124832438Y-77214551D01*
X125518153Y-76490742D02*
X125784820Y-77290742D01*
X125784820Y-77290742D02*
X126051486Y-76490742D01*
X124932438Y-93466932D02*
X124970534Y-93428837D01*
X124970534Y-93428837D02*
X125046724Y-93390742D01*
X125046724Y-93390742D02*
X125237200Y-93390742D01*
X125237200Y-93390742D02*
X125313391Y-93428837D01*
X125313391Y-93428837D02*
X125351486Y-93466932D01*
X125351486Y-93466932D02*
X125389581Y-93543123D01*
X125389581Y-93543123D02*
X125389581Y-93619313D01*
X125389581Y-93619313D02*
X125351486Y-93733599D01*
X125351486Y-93733599D02*
X124894343Y-94190742D01*
X124894343Y-94190742D02*
X125389581Y-94190742D01*
X126075296Y-93657408D02*
X126075296Y-94190742D01*
X125884820Y-93352647D02*
X125694343Y-93924075D01*
X125694343Y-93924075D02*
X126189582Y-93924075D01*
X126380058Y-93390742D02*
X126646725Y-94190742D01*
X126646725Y-94190742D02*
X126913391Y-93390742D01*
D10*
X93135660Y-165462475D02*
X93135660Y-164462475D01*
X93564231Y-165414856D02*
X93707088Y-165462475D01*
X93707088Y-165462475D02*
X93945183Y-165462475D01*
X93945183Y-165462475D02*
X94040421Y-165414856D01*
X94040421Y-165414856D02*
X94088040Y-165367236D01*
X94088040Y-165367236D02*
X94135659Y-165271998D01*
X94135659Y-165271998D02*
X94135659Y-165176760D01*
X94135659Y-165176760D02*
X94088040Y-165081522D01*
X94088040Y-165081522D02*
X94040421Y-165033903D01*
X94040421Y-165033903D02*
X93945183Y-164986284D01*
X93945183Y-164986284D02*
X93754707Y-164938665D01*
X93754707Y-164938665D02*
X93659469Y-164891046D01*
X93659469Y-164891046D02*
X93611850Y-164843427D01*
X93611850Y-164843427D02*
X93564231Y-164748189D01*
X93564231Y-164748189D02*
X93564231Y-164652951D01*
X93564231Y-164652951D02*
X93611850Y-164557713D01*
X93611850Y-164557713D02*
X93659469Y-164510094D01*
X93659469Y-164510094D02*
X93754707Y-164462475D01*
X93754707Y-164462475D02*
X93992802Y-164462475D01*
X93992802Y-164462475D02*
X94135659Y-164510094D01*
X94564231Y-165462475D02*
X94564231Y-164462475D01*
X94564231Y-164462475D02*
X94897564Y-165176760D01*
X94897564Y-165176760D02*
X95230897Y-164462475D01*
X95230897Y-164462475D02*
X95230897Y-165462475D01*
X96468993Y-165081522D02*
X97230898Y-165081522D01*
X98659469Y-164462475D02*
X98754707Y-164462475D01*
X98754707Y-164462475D02*
X98849945Y-164510094D01*
X98849945Y-164510094D02*
X98897564Y-164557713D01*
X98897564Y-164557713D02*
X98945183Y-164652951D01*
X98945183Y-164652951D02*
X98992802Y-164843427D01*
X98992802Y-164843427D02*
X98992802Y-165081522D01*
X98992802Y-165081522D02*
X98945183Y-165271998D01*
X98945183Y-165271998D02*
X98897564Y-165367236D01*
X98897564Y-165367236D02*
X98849945Y-165414856D01*
X98849945Y-165414856D02*
X98754707Y-165462475D01*
X98754707Y-165462475D02*
X98659469Y-165462475D01*
X98659469Y-165462475D02*
X98564231Y-165414856D01*
X98564231Y-165414856D02*
X98516612Y-165367236D01*
X98516612Y-165367236D02*
X98468993Y-165271998D01*
X98468993Y-165271998D02*
X98421374Y-165081522D01*
X98421374Y-165081522D02*
X98421374Y-164843427D01*
X98421374Y-164843427D02*
X98468993Y-164652951D01*
X98468993Y-164652951D02*
X98516612Y-164557713D01*
X98516612Y-164557713D02*
X98564231Y-164510094D01*
X98564231Y-164510094D02*
X98659469Y-164462475D01*
X99849945Y-164795808D02*
X99849945Y-165462475D01*
X99611850Y-164414856D02*
X99373755Y-165129141D01*
X99373755Y-165129141D02*
X99992802Y-165129141D01*
X101088040Y-164414856D02*
X100230898Y-165700570D01*
X101945183Y-165462475D02*
X101373755Y-165462475D01*
X101659469Y-165462475D02*
X101659469Y-164462475D01*
X101659469Y-164462475D02*
X101564231Y-164605332D01*
X101564231Y-164605332D02*
X101468993Y-164700570D01*
X101468993Y-164700570D02*
X101373755Y-164748189D01*
X102564231Y-164462475D02*
X102659469Y-164462475D01*
X102659469Y-164462475D02*
X102754707Y-164510094D01*
X102754707Y-164510094D02*
X102802326Y-164557713D01*
X102802326Y-164557713D02*
X102849945Y-164652951D01*
X102849945Y-164652951D02*
X102897564Y-164843427D01*
X102897564Y-164843427D02*
X102897564Y-165081522D01*
X102897564Y-165081522D02*
X102849945Y-165271998D01*
X102849945Y-165271998D02*
X102802326Y-165367236D01*
X102802326Y-165367236D02*
X102754707Y-165414856D01*
X102754707Y-165414856D02*
X102659469Y-165462475D01*
X102659469Y-165462475D02*
X102564231Y-165462475D01*
X102564231Y-165462475D02*
X102468993Y-165414856D01*
X102468993Y-165414856D02*
X102421374Y-165367236D01*
X102421374Y-165367236D02*
X102373755Y-165271998D01*
X102373755Y-165271998D02*
X102326136Y-165081522D01*
X102326136Y-165081522D02*
X102326136Y-164843427D01*
X102326136Y-164843427D02*
X102373755Y-164652951D01*
X102373755Y-164652951D02*
X102421374Y-164557713D01*
X102421374Y-164557713D02*
X102468993Y-164510094D01*
X102468993Y-164510094D02*
X102564231Y-164462475D01*
X104040421Y-164414856D02*
X103183279Y-165700570D01*
X104326136Y-164557713D02*
X104373755Y-164510094D01*
X104373755Y-164510094D02*
X104468993Y-164462475D01*
X104468993Y-164462475D02*
X104707088Y-164462475D01*
X104707088Y-164462475D02*
X104802326Y-164510094D01*
X104802326Y-164510094D02*
X104849945Y-164557713D01*
X104849945Y-164557713D02*
X104897564Y-164652951D01*
X104897564Y-164652951D02*
X104897564Y-164748189D01*
X104897564Y-164748189D02*
X104849945Y-164891046D01*
X104849945Y-164891046D02*
X104278517Y-165462475D01*
X104278517Y-165462475D02*
X104897564Y-165462475D01*
X105516612Y-164462475D02*
X105611850Y-164462475D01*
X105611850Y-164462475D02*
X105707088Y-164510094D01*
X105707088Y-164510094D02*
X105754707Y-164557713D01*
X105754707Y-164557713D02*
X105802326Y-164652951D01*
X105802326Y-164652951D02*
X105849945Y-164843427D01*
X105849945Y-164843427D02*
X105849945Y-165081522D01*
X105849945Y-165081522D02*
X105802326Y-165271998D01*
X105802326Y-165271998D02*
X105754707Y-165367236D01*
X105754707Y-165367236D02*
X105707088Y-165414856D01*
X105707088Y-165414856D02*
X105611850Y-165462475D01*
X105611850Y-165462475D02*
X105516612Y-165462475D01*
X105516612Y-165462475D02*
X105421374Y-165414856D01*
X105421374Y-165414856D02*
X105373755Y-165367236D01*
X105373755Y-165367236D02*
X105326136Y-165271998D01*
X105326136Y-165271998D02*
X105278517Y-165081522D01*
X105278517Y-165081522D02*
X105278517Y-164843427D01*
X105278517Y-164843427D02*
X105326136Y-164652951D01*
X105326136Y-164652951D02*
X105373755Y-164557713D01*
X105373755Y-164557713D02*
X105421374Y-164510094D01*
X105421374Y-164510094D02*
X105516612Y-164462475D01*
X106230898Y-164557713D02*
X106278517Y-164510094D01*
X106278517Y-164510094D02*
X106373755Y-164462475D01*
X106373755Y-164462475D02*
X106611850Y-164462475D01*
X106611850Y-164462475D02*
X106707088Y-164510094D01*
X106707088Y-164510094D02*
X106754707Y-164557713D01*
X106754707Y-164557713D02*
X106802326Y-164652951D01*
X106802326Y-164652951D02*
X106802326Y-164748189D01*
X106802326Y-164748189D02*
X106754707Y-164891046D01*
X106754707Y-164891046D02*
X106183279Y-165462475D01*
X106183279Y-165462475D02*
X106802326Y-165462475D01*
X107659469Y-164462475D02*
X107468993Y-164462475D01*
X107468993Y-164462475D02*
X107373755Y-164510094D01*
X107373755Y-164510094D02*
X107326136Y-164557713D01*
X107326136Y-164557713D02*
X107230898Y-164700570D01*
X107230898Y-164700570D02*
X107183279Y-164891046D01*
X107183279Y-164891046D02*
X107183279Y-165271998D01*
X107183279Y-165271998D02*
X107230898Y-165367236D01*
X107230898Y-165367236D02*
X107278517Y-165414856D01*
X107278517Y-165414856D02*
X107373755Y-165462475D01*
X107373755Y-165462475D02*
X107564231Y-165462475D01*
X107564231Y-165462475D02*
X107659469Y-165414856D01*
X107659469Y-165414856D02*
X107707088Y-165367236D01*
X107707088Y-165367236D02*
X107754707Y-165271998D01*
X107754707Y-165271998D02*
X107754707Y-165033903D01*
X107754707Y-165033903D02*
X107707088Y-164938665D01*
X107707088Y-164938665D02*
X107659469Y-164891046D01*
X107659469Y-164891046D02*
X107564231Y-164843427D01*
X107564231Y-164843427D02*
X107373755Y-164843427D01*
X107373755Y-164843427D02*
X107278517Y-164891046D01*
X107278517Y-164891046D02*
X107230898Y-164938665D01*
X107230898Y-164938665D02*
X107183279Y-165033903D01*
X97349945Y-166548609D02*
X97016612Y-166548609D01*
X97016612Y-167072419D02*
X97016612Y-166072419D01*
X97016612Y-166072419D02*
X97492802Y-166072419D01*
X97873755Y-166977180D02*
X97921374Y-167024800D01*
X97921374Y-167024800D02*
X97873755Y-167072419D01*
X97873755Y-167072419D02*
X97826136Y-167024800D01*
X97826136Y-167024800D02*
X97873755Y-166977180D01*
X97873755Y-166977180D02*
X97873755Y-167072419D01*
X98683278Y-166548609D02*
X98826135Y-166596228D01*
X98826135Y-166596228D02*
X98873754Y-166643847D01*
X98873754Y-166643847D02*
X98921373Y-166739085D01*
X98921373Y-166739085D02*
X98921373Y-166881942D01*
X98921373Y-166881942D02*
X98873754Y-166977180D01*
X98873754Y-166977180D02*
X98826135Y-167024800D01*
X98826135Y-167024800D02*
X98730897Y-167072419D01*
X98730897Y-167072419D02*
X98349945Y-167072419D01*
X98349945Y-167072419D02*
X98349945Y-166072419D01*
X98349945Y-166072419D02*
X98683278Y-166072419D01*
X98683278Y-166072419D02*
X98778516Y-166120038D01*
X98778516Y-166120038D02*
X98826135Y-166167657D01*
X98826135Y-166167657D02*
X98873754Y-166262895D01*
X98873754Y-166262895D02*
X98873754Y-166358133D01*
X98873754Y-166358133D02*
X98826135Y-166453371D01*
X98826135Y-166453371D02*
X98778516Y-166500990D01*
X98778516Y-166500990D02*
X98683278Y-166548609D01*
X98683278Y-166548609D02*
X98349945Y-166548609D01*
X99349945Y-166072419D02*
X99349945Y-166881942D01*
X99349945Y-166881942D02*
X99397564Y-166977180D01*
X99397564Y-166977180D02*
X99445183Y-167024800D01*
X99445183Y-167024800D02*
X99540421Y-167072419D01*
X99540421Y-167072419D02*
X99730897Y-167072419D01*
X99730897Y-167072419D02*
X99826135Y-167024800D01*
X99826135Y-167024800D02*
X99873754Y-166977180D01*
X99873754Y-166977180D02*
X99921373Y-166881942D01*
X99921373Y-166881942D02*
X99921373Y-166072419D01*
X100873754Y-167072419D02*
X100397564Y-167072419D01*
X100397564Y-167072419D02*
X100397564Y-166072419D01*
X101397564Y-166072419D02*
X101588040Y-166072419D01*
X101588040Y-166072419D02*
X101683278Y-166120038D01*
X101683278Y-166120038D02*
X101778516Y-166215276D01*
X101778516Y-166215276D02*
X101826135Y-166405752D01*
X101826135Y-166405752D02*
X101826135Y-166739085D01*
X101826135Y-166739085D02*
X101778516Y-166929561D01*
X101778516Y-166929561D02*
X101683278Y-167024800D01*
X101683278Y-167024800D02*
X101588040Y-167072419D01*
X101588040Y-167072419D02*
X101397564Y-167072419D01*
X101397564Y-167072419D02*
X101302326Y-167024800D01*
X101302326Y-167024800D02*
X101207088Y-166929561D01*
X101207088Y-166929561D02*
X101159469Y-166739085D01*
X101159469Y-166739085D02*
X101159469Y-166405752D01*
X101159469Y-166405752D02*
X101207088Y-166215276D01*
X101207088Y-166215276D02*
X101302326Y-166120038D01*
X101302326Y-166120038D02*
X101397564Y-166072419D01*
X102254707Y-166072419D02*
X102254707Y-166881942D01*
X102254707Y-166881942D02*
X102302326Y-166977180D01*
X102302326Y-166977180D02*
X102349945Y-167024800D01*
X102349945Y-167024800D02*
X102445183Y-167072419D01*
X102445183Y-167072419D02*
X102635659Y-167072419D01*
X102635659Y-167072419D02*
X102730897Y-167024800D01*
X102730897Y-167024800D02*
X102778516Y-166977180D01*
X102778516Y-166977180D02*
X102826135Y-166881942D01*
X102826135Y-166881942D02*
X102826135Y-166072419D01*
X103302326Y-167072419D02*
X103302326Y-166072419D01*
X103302326Y-166072419D02*
X103683278Y-166072419D01*
X103683278Y-166072419D02*
X103778516Y-166120038D01*
X103778516Y-166120038D02*
X103826135Y-166167657D01*
X103826135Y-166167657D02*
X103873754Y-166262895D01*
X103873754Y-166262895D02*
X103873754Y-166405752D01*
X103873754Y-166405752D02*
X103826135Y-166500990D01*
X103826135Y-166500990D02*
X103778516Y-166548609D01*
X103778516Y-166548609D02*
X103683278Y-166596228D01*
X103683278Y-166596228D02*
X103302326Y-166596228D01*
X71381934Y-76853734D02*
X71429553Y-76710877D01*
X71429553Y-76710877D02*
X71429553Y-76472782D01*
X71429553Y-76472782D02*
X71381934Y-76377544D01*
X71381934Y-76377544D02*
X71334314Y-76329925D01*
X71334314Y-76329925D02*
X71239076Y-76282306D01*
X71239076Y-76282306D02*
X71143838Y-76282306D01*
X71143838Y-76282306D02*
X71048600Y-76329925D01*
X71048600Y-76329925D02*
X71000981Y-76377544D01*
X71000981Y-76377544D02*
X70953362Y-76472782D01*
X70953362Y-76472782D02*
X70905743Y-76663258D01*
X70905743Y-76663258D02*
X70858124Y-76758496D01*
X70858124Y-76758496D02*
X70810505Y-76806115D01*
X70810505Y-76806115D02*
X70715267Y-76853734D01*
X70715267Y-76853734D02*
X70620029Y-76853734D01*
X70620029Y-76853734D02*
X70524791Y-76806115D01*
X70524791Y-76806115D02*
X70477172Y-76758496D01*
X70477172Y-76758496D02*
X70429553Y-76663258D01*
X70429553Y-76663258D02*
X70429553Y-76425163D01*
X70429553Y-76425163D02*
X70477172Y-76282306D01*
X71334314Y-75282306D02*
X71381934Y-75329925D01*
X71381934Y-75329925D02*
X71429553Y-75472782D01*
X71429553Y-75472782D02*
X71429553Y-75568020D01*
X71429553Y-75568020D02*
X71381934Y-75710877D01*
X71381934Y-75710877D02*
X71286695Y-75806115D01*
X71286695Y-75806115D02*
X71191457Y-75853734D01*
X71191457Y-75853734D02*
X71000981Y-75901353D01*
X71000981Y-75901353D02*
X70858124Y-75901353D01*
X70858124Y-75901353D02*
X70667648Y-75853734D01*
X70667648Y-75853734D02*
X70572410Y-75806115D01*
X70572410Y-75806115D02*
X70477172Y-75710877D01*
X70477172Y-75710877D02*
X70429553Y-75568020D01*
X70429553Y-75568020D02*
X70429553Y-75472782D01*
X70429553Y-75472782D02*
X70477172Y-75329925D01*
X70477172Y-75329925D02*
X70524791Y-75282306D01*
X70429553Y-74663258D02*
X70429553Y-74472782D01*
X70429553Y-74472782D02*
X70477172Y-74377544D01*
X70477172Y-74377544D02*
X70572410Y-74282306D01*
X70572410Y-74282306D02*
X70762886Y-74234687D01*
X70762886Y-74234687D02*
X71096219Y-74234687D01*
X71096219Y-74234687D02*
X71286695Y-74282306D01*
X71286695Y-74282306D02*
X71381934Y-74377544D01*
X71381934Y-74377544D02*
X71429553Y-74472782D01*
X71429553Y-74472782D02*
X71429553Y-74663258D01*
X71429553Y-74663258D02*
X71381934Y-74758496D01*
X71381934Y-74758496D02*
X71286695Y-74853734D01*
X71286695Y-74853734D02*
X71096219Y-74901353D01*
X71096219Y-74901353D02*
X70762886Y-74901353D01*
X70762886Y-74901353D02*
X70572410Y-74853734D01*
X70572410Y-74853734D02*
X70477172Y-74758496D01*
X70477172Y-74758496D02*
X70429553Y-74663258D01*
X71429553Y-73806115D02*
X70429553Y-73806115D01*
X70429553Y-73806115D02*
X71429553Y-73234687D01*
X71429553Y-73234687D02*
X70429553Y-73234687D01*
X70905743Y-71663258D02*
X70905743Y-71996591D01*
X71429553Y-71996591D02*
X70429553Y-71996591D01*
X70429553Y-71996591D02*
X70429553Y-71520401D01*
X70905743Y-71139448D02*
X70905743Y-70806115D01*
X71429553Y-70663258D02*
X71429553Y-71139448D01*
X71429553Y-71139448D02*
X70429553Y-71139448D01*
X70429553Y-71139448D02*
X70429553Y-70663258D01*
X70905743Y-70234686D02*
X70905743Y-69901353D01*
X71429553Y-69758496D02*
X71429553Y-70234686D01*
X71429553Y-70234686D02*
X70429553Y-70234686D01*
X70429553Y-70234686D02*
X70429553Y-69758496D01*
X71429553Y-69329924D02*
X70429553Y-69329924D01*
X70429553Y-69329924D02*
X70429553Y-69091829D01*
X70429553Y-69091829D02*
X70477172Y-68948972D01*
X70477172Y-68948972D02*
X70572410Y-68853734D01*
X70572410Y-68853734D02*
X70667648Y-68806115D01*
X70667648Y-68806115D02*
X70858124Y-68758496D01*
X70858124Y-68758496D02*
X71000981Y-68758496D01*
X71000981Y-68758496D02*
X71191457Y-68806115D01*
X71191457Y-68806115D02*
X71286695Y-68853734D01*
X71286695Y-68853734D02*
X71381934Y-68948972D01*
X71381934Y-68948972D02*
X71429553Y-69091829D01*
X71429553Y-69091829D02*
X71429553Y-69329924D01*
X70905743Y-67996591D02*
X70953362Y-67853734D01*
X70953362Y-67853734D02*
X71000981Y-67806115D01*
X71000981Y-67806115D02*
X71096219Y-67758496D01*
X71096219Y-67758496D02*
X71239076Y-67758496D01*
X71239076Y-67758496D02*
X71334314Y-67806115D01*
X71334314Y-67806115D02*
X71381934Y-67853734D01*
X71381934Y-67853734D02*
X71429553Y-67948972D01*
X71429553Y-67948972D02*
X71429553Y-68329924D01*
X71429553Y-68329924D02*
X70429553Y-68329924D01*
X70429553Y-68329924D02*
X70429553Y-67996591D01*
X70429553Y-67996591D02*
X70477172Y-67901353D01*
X70477172Y-67901353D02*
X70524791Y-67853734D01*
X70524791Y-67853734D02*
X70620029Y-67806115D01*
X70620029Y-67806115D02*
X70715267Y-67806115D01*
X70715267Y-67806115D02*
X70810505Y-67853734D01*
X70810505Y-67853734D02*
X70858124Y-67901353D01*
X70858124Y-67901353D02*
X70905743Y-67996591D01*
X70905743Y-67996591D02*
X70905743Y-68329924D01*
X71143838Y-67377543D02*
X71143838Y-66901353D01*
X71429553Y-67472781D02*
X70429553Y-67139448D01*
X70429553Y-67139448D02*
X71429553Y-66806115D01*
X71334314Y-65901353D02*
X71381934Y-65948972D01*
X71381934Y-65948972D02*
X71429553Y-66091829D01*
X71429553Y-66091829D02*
X71429553Y-66187067D01*
X71429553Y-66187067D02*
X71381934Y-66329924D01*
X71381934Y-66329924D02*
X71286695Y-66425162D01*
X71286695Y-66425162D02*
X71191457Y-66472781D01*
X71191457Y-66472781D02*
X71000981Y-66520400D01*
X71000981Y-66520400D02*
X70858124Y-66520400D01*
X70858124Y-66520400D02*
X70667648Y-66472781D01*
X70667648Y-66472781D02*
X70572410Y-66425162D01*
X70572410Y-66425162D02*
X70477172Y-66329924D01*
X70477172Y-66329924D02*
X70429553Y-66187067D01*
X70429553Y-66187067D02*
X70429553Y-66091829D01*
X70429553Y-66091829D02*
X70477172Y-65948972D01*
X70477172Y-65948972D02*
X70524791Y-65901353D01*
X71429553Y-65472781D02*
X70429553Y-65472781D01*
X71429553Y-64901353D02*
X70858124Y-65329924D01*
X70429553Y-64901353D02*
X71000981Y-65472781D01*
X71381934Y-106353734D02*
X71429553Y-106210877D01*
X71429553Y-106210877D02*
X71429553Y-105972782D01*
X71429553Y-105972782D02*
X71381934Y-105877544D01*
X71381934Y-105877544D02*
X71334314Y-105829925D01*
X71334314Y-105829925D02*
X71239076Y-105782306D01*
X71239076Y-105782306D02*
X71143838Y-105782306D01*
X71143838Y-105782306D02*
X71048600Y-105829925D01*
X71048600Y-105829925D02*
X71000981Y-105877544D01*
X71000981Y-105877544D02*
X70953362Y-105972782D01*
X70953362Y-105972782D02*
X70905743Y-106163258D01*
X70905743Y-106163258D02*
X70858124Y-106258496D01*
X70858124Y-106258496D02*
X70810505Y-106306115D01*
X70810505Y-106306115D02*
X70715267Y-106353734D01*
X70715267Y-106353734D02*
X70620029Y-106353734D01*
X70620029Y-106353734D02*
X70524791Y-106306115D01*
X70524791Y-106306115D02*
X70477172Y-106258496D01*
X70477172Y-106258496D02*
X70429553Y-106163258D01*
X70429553Y-106163258D02*
X70429553Y-105925163D01*
X70429553Y-105925163D02*
X70477172Y-105782306D01*
X71334314Y-104782306D02*
X71381934Y-104829925D01*
X71381934Y-104829925D02*
X71429553Y-104972782D01*
X71429553Y-104972782D02*
X71429553Y-105068020D01*
X71429553Y-105068020D02*
X71381934Y-105210877D01*
X71381934Y-105210877D02*
X71286695Y-105306115D01*
X71286695Y-105306115D02*
X71191457Y-105353734D01*
X71191457Y-105353734D02*
X71000981Y-105401353D01*
X71000981Y-105401353D02*
X70858124Y-105401353D01*
X70858124Y-105401353D02*
X70667648Y-105353734D01*
X70667648Y-105353734D02*
X70572410Y-105306115D01*
X70572410Y-105306115D02*
X70477172Y-105210877D01*
X70477172Y-105210877D02*
X70429553Y-105068020D01*
X70429553Y-105068020D02*
X70429553Y-104972782D01*
X70429553Y-104972782D02*
X70477172Y-104829925D01*
X70477172Y-104829925D02*
X70524791Y-104782306D01*
X70429553Y-104163258D02*
X70429553Y-103972782D01*
X70429553Y-103972782D02*
X70477172Y-103877544D01*
X70477172Y-103877544D02*
X70572410Y-103782306D01*
X70572410Y-103782306D02*
X70762886Y-103734687D01*
X70762886Y-103734687D02*
X71096219Y-103734687D01*
X71096219Y-103734687D02*
X71286695Y-103782306D01*
X71286695Y-103782306D02*
X71381934Y-103877544D01*
X71381934Y-103877544D02*
X71429553Y-103972782D01*
X71429553Y-103972782D02*
X71429553Y-104163258D01*
X71429553Y-104163258D02*
X71381934Y-104258496D01*
X71381934Y-104258496D02*
X71286695Y-104353734D01*
X71286695Y-104353734D02*
X71096219Y-104401353D01*
X71096219Y-104401353D02*
X70762886Y-104401353D01*
X70762886Y-104401353D02*
X70572410Y-104353734D01*
X70572410Y-104353734D02*
X70477172Y-104258496D01*
X70477172Y-104258496D02*
X70429553Y-104163258D01*
X71429553Y-103306115D02*
X70429553Y-103306115D01*
X70429553Y-103306115D02*
X71429553Y-102734687D01*
X71429553Y-102734687D02*
X70429553Y-102734687D01*
X71429553Y-101496591D02*
X70429553Y-101496591D01*
X70429553Y-101496591D02*
X70429553Y-101115639D01*
X70429553Y-101115639D02*
X70477172Y-101020401D01*
X70477172Y-101020401D02*
X70524791Y-100972782D01*
X70524791Y-100972782D02*
X70620029Y-100925163D01*
X70620029Y-100925163D02*
X70762886Y-100925163D01*
X70762886Y-100925163D02*
X70858124Y-100972782D01*
X70858124Y-100972782D02*
X70905743Y-101020401D01*
X70905743Y-101020401D02*
X70953362Y-101115639D01*
X70953362Y-101115639D02*
X70953362Y-101496591D01*
X70429553Y-100496591D02*
X71239076Y-100496591D01*
X71239076Y-100496591D02*
X71334314Y-100448972D01*
X71334314Y-100448972D02*
X71381934Y-100401353D01*
X71381934Y-100401353D02*
X71429553Y-100306115D01*
X71429553Y-100306115D02*
X71429553Y-100115639D01*
X71429553Y-100115639D02*
X71381934Y-100020401D01*
X71381934Y-100020401D02*
X71334314Y-99972782D01*
X71334314Y-99972782D02*
X71239076Y-99925163D01*
X71239076Y-99925163D02*
X70429553Y-99925163D01*
X71429553Y-98972782D02*
X71429553Y-99448972D01*
X71429553Y-99448972D02*
X70429553Y-99448972D01*
X71381934Y-98687067D02*
X71429553Y-98544210D01*
X71429553Y-98544210D02*
X71429553Y-98306115D01*
X71429553Y-98306115D02*
X71381934Y-98210877D01*
X71381934Y-98210877D02*
X71334314Y-98163258D01*
X71334314Y-98163258D02*
X71239076Y-98115639D01*
X71239076Y-98115639D02*
X71143838Y-98115639D01*
X71143838Y-98115639D02*
X71048600Y-98163258D01*
X71048600Y-98163258D02*
X71000981Y-98210877D01*
X71000981Y-98210877D02*
X70953362Y-98306115D01*
X70953362Y-98306115D02*
X70905743Y-98496591D01*
X70905743Y-98496591D02*
X70858124Y-98591829D01*
X70858124Y-98591829D02*
X70810505Y-98639448D01*
X70810505Y-98639448D02*
X70715267Y-98687067D01*
X70715267Y-98687067D02*
X70620029Y-98687067D01*
X70620029Y-98687067D02*
X70524791Y-98639448D01*
X70524791Y-98639448D02*
X70477172Y-98591829D01*
X70477172Y-98591829D02*
X70429553Y-98496591D01*
X70429553Y-98496591D02*
X70429553Y-98258496D01*
X70429553Y-98258496D02*
X70477172Y-98115639D01*
X70905743Y-97687067D02*
X70905743Y-97353734D01*
X71429553Y-97210877D02*
X71429553Y-97687067D01*
X71429553Y-97687067D02*
X70429553Y-97687067D01*
X70429553Y-97687067D02*
X70429553Y-97210877D01*
X71381934Y-143053734D02*
X71429553Y-142910877D01*
X71429553Y-142910877D02*
X71429553Y-142672782D01*
X71429553Y-142672782D02*
X71381934Y-142577544D01*
X71381934Y-142577544D02*
X71334314Y-142529925D01*
X71334314Y-142529925D02*
X71239076Y-142482306D01*
X71239076Y-142482306D02*
X71143838Y-142482306D01*
X71143838Y-142482306D02*
X71048600Y-142529925D01*
X71048600Y-142529925D02*
X71000981Y-142577544D01*
X71000981Y-142577544D02*
X70953362Y-142672782D01*
X70953362Y-142672782D02*
X70905743Y-142863258D01*
X70905743Y-142863258D02*
X70858124Y-142958496D01*
X70858124Y-142958496D02*
X70810505Y-143006115D01*
X70810505Y-143006115D02*
X70715267Y-143053734D01*
X70715267Y-143053734D02*
X70620029Y-143053734D01*
X70620029Y-143053734D02*
X70524791Y-143006115D01*
X70524791Y-143006115D02*
X70477172Y-142958496D01*
X70477172Y-142958496D02*
X70429553Y-142863258D01*
X70429553Y-142863258D02*
X70429553Y-142625163D01*
X70429553Y-142625163D02*
X70477172Y-142482306D01*
X71334314Y-141482306D02*
X71381934Y-141529925D01*
X71381934Y-141529925D02*
X71429553Y-141672782D01*
X71429553Y-141672782D02*
X71429553Y-141768020D01*
X71429553Y-141768020D02*
X71381934Y-141910877D01*
X71381934Y-141910877D02*
X71286695Y-142006115D01*
X71286695Y-142006115D02*
X71191457Y-142053734D01*
X71191457Y-142053734D02*
X71000981Y-142101353D01*
X71000981Y-142101353D02*
X70858124Y-142101353D01*
X70858124Y-142101353D02*
X70667648Y-142053734D01*
X70667648Y-142053734D02*
X70572410Y-142006115D01*
X70572410Y-142006115D02*
X70477172Y-141910877D01*
X70477172Y-141910877D02*
X70429553Y-141768020D01*
X70429553Y-141768020D02*
X70429553Y-141672782D01*
X70429553Y-141672782D02*
X70477172Y-141529925D01*
X70477172Y-141529925D02*
X70524791Y-141482306D01*
X70429553Y-140863258D02*
X70429553Y-140672782D01*
X70429553Y-140672782D02*
X70477172Y-140577544D01*
X70477172Y-140577544D02*
X70572410Y-140482306D01*
X70572410Y-140482306D02*
X70762886Y-140434687D01*
X70762886Y-140434687D02*
X71096219Y-140434687D01*
X71096219Y-140434687D02*
X71286695Y-140482306D01*
X71286695Y-140482306D02*
X71381934Y-140577544D01*
X71381934Y-140577544D02*
X71429553Y-140672782D01*
X71429553Y-140672782D02*
X71429553Y-140863258D01*
X71429553Y-140863258D02*
X71381934Y-140958496D01*
X71381934Y-140958496D02*
X71286695Y-141053734D01*
X71286695Y-141053734D02*
X71096219Y-141101353D01*
X71096219Y-141101353D02*
X70762886Y-141101353D01*
X70762886Y-141101353D02*
X70572410Y-141053734D01*
X70572410Y-141053734D02*
X70477172Y-140958496D01*
X70477172Y-140958496D02*
X70429553Y-140863258D01*
X71429553Y-140006115D02*
X70429553Y-140006115D01*
X70429553Y-140006115D02*
X71429553Y-139434687D01*
X71429553Y-139434687D02*
X70429553Y-139434687D01*
X71429553Y-138196591D02*
X70429553Y-138196591D01*
X70429553Y-138196591D02*
X70429553Y-137815639D01*
X70429553Y-137815639D02*
X70477172Y-137720401D01*
X70477172Y-137720401D02*
X70524791Y-137672782D01*
X70524791Y-137672782D02*
X70620029Y-137625163D01*
X70620029Y-137625163D02*
X70762886Y-137625163D01*
X70762886Y-137625163D02*
X70858124Y-137672782D01*
X70858124Y-137672782D02*
X70905743Y-137720401D01*
X70905743Y-137720401D02*
X70953362Y-137815639D01*
X70953362Y-137815639D02*
X70953362Y-138196591D01*
X71429553Y-137196591D02*
X70429553Y-137196591D01*
X70429553Y-136529925D02*
X70429553Y-136339449D01*
X70429553Y-136339449D02*
X70477172Y-136244211D01*
X70477172Y-136244211D02*
X70572410Y-136148973D01*
X70572410Y-136148973D02*
X70762886Y-136101354D01*
X70762886Y-136101354D02*
X71096219Y-136101354D01*
X71096219Y-136101354D02*
X71286695Y-136148973D01*
X71286695Y-136148973D02*
X71381934Y-136244211D01*
X71381934Y-136244211D02*
X71429553Y-136339449D01*
X71429553Y-136339449D02*
X71429553Y-136529925D01*
X71429553Y-136529925D02*
X71381934Y-136625163D01*
X71381934Y-136625163D02*
X71286695Y-136720401D01*
X71286695Y-136720401D02*
X71096219Y-136768020D01*
X71096219Y-136768020D02*
X70762886Y-136768020D01*
X70762886Y-136768020D02*
X70572410Y-136720401D01*
X70572410Y-136720401D02*
X70477172Y-136625163D01*
X70477172Y-136625163D02*
X70429553Y-136529925D01*
X127210429Y-58896265D02*
X127210429Y-59372455D01*
X126924714Y-58801027D02*
X127924714Y-59134360D01*
X127924714Y-59134360D02*
X126924714Y-59467693D01*
X126924714Y-59801027D02*
X127924714Y-59801027D01*
X127924714Y-59801027D02*
X127924714Y-60039122D01*
X127924714Y-60039122D02*
X127877095Y-60181979D01*
X127877095Y-60181979D02*
X127781857Y-60277217D01*
X127781857Y-60277217D02*
X127686619Y-60324836D01*
X127686619Y-60324836D02*
X127496143Y-60372455D01*
X127496143Y-60372455D02*
X127353286Y-60372455D01*
X127353286Y-60372455D02*
X127162810Y-60324836D01*
X127162810Y-60324836D02*
X127067572Y-60277217D01*
X127067572Y-60277217D02*
X126972334Y-60181979D01*
X126972334Y-60181979D02*
X126924714Y-60039122D01*
X126924714Y-60039122D02*
X126924714Y-59801027D01*
X127924714Y-60705789D02*
X126924714Y-60943884D01*
X126924714Y-60943884D02*
X127639000Y-61134360D01*
X127639000Y-61134360D02*
X126924714Y-61324836D01*
X126924714Y-61324836D02*
X127924714Y-61562932D01*
X126924714Y-61943884D02*
X127591381Y-61943884D01*
X127924714Y-61943884D02*
X127877095Y-61896265D01*
X127877095Y-61896265D02*
X127829476Y-61943884D01*
X127829476Y-61943884D02*
X127877095Y-61991503D01*
X127877095Y-61991503D02*
X127924714Y-61943884D01*
X127924714Y-61943884D02*
X127829476Y-61943884D01*
X127591381Y-62420074D02*
X126924714Y-62420074D01*
X127496143Y-62420074D02*
X127543762Y-62467693D01*
X127543762Y-62467693D02*
X127591381Y-62562931D01*
X127591381Y-62562931D02*
X127591381Y-62705788D01*
X127591381Y-62705788D02*
X127543762Y-62801026D01*
X127543762Y-62801026D02*
X127448524Y-62848645D01*
X127448524Y-62848645D02*
X126924714Y-62848645D01*
X127019953Y-64658169D02*
X126972334Y-64610550D01*
X126972334Y-64610550D02*
X126924714Y-64467693D01*
X126924714Y-64467693D02*
X126924714Y-64372455D01*
X126924714Y-64372455D02*
X126972334Y-64229598D01*
X126972334Y-64229598D02*
X127067572Y-64134360D01*
X127067572Y-64134360D02*
X127162810Y-64086741D01*
X127162810Y-64086741D02*
X127353286Y-64039122D01*
X127353286Y-64039122D02*
X127496143Y-64039122D01*
X127496143Y-64039122D02*
X127686619Y-64086741D01*
X127686619Y-64086741D02*
X127781857Y-64134360D01*
X127781857Y-64134360D02*
X127877095Y-64229598D01*
X127877095Y-64229598D02*
X127924714Y-64372455D01*
X127924714Y-64372455D02*
X127924714Y-64467693D01*
X127924714Y-64467693D02*
X127877095Y-64610550D01*
X127877095Y-64610550D02*
X127829476Y-64658169D01*
X127924714Y-65277217D02*
X127924714Y-65467693D01*
X127924714Y-65467693D02*
X127877095Y-65562931D01*
X127877095Y-65562931D02*
X127781857Y-65658169D01*
X127781857Y-65658169D02*
X127591381Y-65705788D01*
X127591381Y-65705788D02*
X127258048Y-65705788D01*
X127258048Y-65705788D02*
X127067572Y-65658169D01*
X127067572Y-65658169D02*
X126972334Y-65562931D01*
X126972334Y-65562931D02*
X126924714Y-65467693D01*
X126924714Y-65467693D02*
X126924714Y-65277217D01*
X126924714Y-65277217D02*
X126972334Y-65181979D01*
X126972334Y-65181979D02*
X127067572Y-65086741D01*
X127067572Y-65086741D02*
X127258048Y-65039122D01*
X127258048Y-65039122D02*
X127591381Y-65039122D01*
X127591381Y-65039122D02*
X127781857Y-65086741D01*
X127781857Y-65086741D02*
X127877095Y-65181979D01*
X127877095Y-65181979D02*
X127924714Y-65277217D01*
X127591381Y-66562931D02*
X126924714Y-66562931D01*
X127972334Y-66324836D02*
X127258048Y-66086741D01*
X127258048Y-66086741D02*
X127258048Y-66705788D01*
X127305667Y-67086741D02*
X127305667Y-67848646D01*
X127924714Y-68181979D02*
X127924714Y-68753407D01*
X126924714Y-68467693D02*
X127924714Y-68467693D01*
X127210429Y-80796265D02*
X127210429Y-81272455D01*
X126924714Y-80701027D02*
X127924714Y-81034360D01*
X127924714Y-81034360D02*
X126924714Y-81367693D01*
X126924714Y-82177217D02*
X126924714Y-81701027D01*
X126924714Y-81701027D02*
X127924714Y-81701027D01*
X126924714Y-82510551D02*
X127924714Y-82510551D01*
X126924714Y-82986741D02*
X127924714Y-82986741D01*
X127924714Y-82986741D02*
X127210429Y-83320074D01*
X127210429Y-83320074D02*
X127924714Y-83653407D01*
X127924714Y-83653407D02*
X126924714Y-83653407D01*
X127305667Y-84129598D02*
X127305667Y-84891503D01*
X126924714Y-84510550D02*
X127686619Y-84510550D01*
X127829476Y-85320074D02*
X127877095Y-85367693D01*
X127877095Y-85367693D02*
X127924714Y-85462931D01*
X127924714Y-85462931D02*
X127924714Y-85701026D01*
X127924714Y-85701026D02*
X127877095Y-85796264D01*
X127877095Y-85796264D02*
X127829476Y-85843883D01*
X127829476Y-85843883D02*
X127734238Y-85891502D01*
X127734238Y-85891502D02*
X127639000Y-85891502D01*
X127639000Y-85891502D02*
X127496143Y-85843883D01*
X127496143Y-85843883D02*
X126924714Y-85272455D01*
X126924714Y-85272455D02*
X126924714Y-85891502D01*
X127591381Y-86748645D02*
X126924714Y-86748645D01*
X127972334Y-86510550D02*
X127258048Y-86272455D01*
X127258048Y-86272455D02*
X127258048Y-86891502D01*
X127924714Y-87129598D02*
X126924714Y-87462931D01*
X126924714Y-87462931D02*
X127924714Y-87796264D01*
X127210429Y-132396265D02*
X127210429Y-132872455D01*
X126924714Y-132301027D02*
X127924714Y-132634360D01*
X127924714Y-132634360D02*
X126924714Y-132967693D01*
X126924714Y-133301027D02*
X127924714Y-133301027D01*
X127924714Y-133301027D02*
X127924714Y-133539122D01*
X127924714Y-133539122D02*
X127877095Y-133681979D01*
X127877095Y-133681979D02*
X127781857Y-133777217D01*
X127781857Y-133777217D02*
X127686619Y-133824836D01*
X127686619Y-133824836D02*
X127496143Y-133872455D01*
X127496143Y-133872455D02*
X127353286Y-133872455D01*
X127353286Y-133872455D02*
X127162810Y-133824836D01*
X127162810Y-133824836D02*
X127067572Y-133777217D01*
X127067572Y-133777217D02*
X126972334Y-133681979D01*
X126972334Y-133681979D02*
X126924714Y-133539122D01*
X126924714Y-133539122D02*
X126924714Y-133301027D01*
X127924714Y-134205789D02*
X126924714Y-134443884D01*
X126924714Y-134443884D02*
X127639000Y-134634360D01*
X127639000Y-134634360D02*
X126924714Y-134824836D01*
X126924714Y-134824836D02*
X127924714Y-135062932D01*
X126924714Y-135443884D02*
X127591381Y-135443884D01*
X127924714Y-135443884D02*
X127877095Y-135396265D01*
X127877095Y-135396265D02*
X127829476Y-135443884D01*
X127829476Y-135443884D02*
X127877095Y-135491503D01*
X127877095Y-135491503D02*
X127924714Y-135443884D01*
X127924714Y-135443884D02*
X127829476Y-135443884D01*
X127591381Y-135920074D02*
X126924714Y-135920074D01*
X127496143Y-135920074D02*
X127543762Y-135967693D01*
X127543762Y-135967693D02*
X127591381Y-136062931D01*
X127591381Y-136062931D02*
X127591381Y-136205788D01*
X127591381Y-136205788D02*
X127543762Y-136301026D01*
X127543762Y-136301026D02*
X127448524Y-136348645D01*
X127448524Y-136348645D02*
X126924714Y-136348645D01*
X127305667Y-137586741D02*
X127305667Y-138348646D01*
X126924714Y-139586741D02*
X127924714Y-139586741D01*
X127924714Y-139586741D02*
X127924714Y-139824836D01*
X127924714Y-139824836D02*
X127877095Y-139967693D01*
X127877095Y-139967693D02*
X127781857Y-140062931D01*
X127781857Y-140062931D02*
X127686619Y-140110550D01*
X127686619Y-140110550D02*
X127496143Y-140158169D01*
X127496143Y-140158169D02*
X127353286Y-140158169D01*
X127353286Y-140158169D02*
X127162810Y-140110550D01*
X127162810Y-140110550D02*
X127067572Y-140062931D01*
X127067572Y-140062931D02*
X126972334Y-139967693D01*
X126972334Y-139967693D02*
X126924714Y-139824836D01*
X126924714Y-139824836D02*
X126924714Y-139586741D01*
X126924714Y-140586741D02*
X127924714Y-140586741D01*
X127924714Y-141253407D02*
X127924714Y-141443883D01*
X127924714Y-141443883D02*
X127877095Y-141539121D01*
X127877095Y-141539121D02*
X127781857Y-141634359D01*
X127781857Y-141634359D02*
X127591381Y-141681978D01*
X127591381Y-141681978D02*
X127258048Y-141681978D01*
X127258048Y-141681978D02*
X127067572Y-141634359D01*
X127067572Y-141634359D02*
X126972334Y-141539121D01*
X126972334Y-141539121D02*
X126924714Y-141443883D01*
X126924714Y-141443883D02*
X126924714Y-141253407D01*
X126924714Y-141253407D02*
X126972334Y-141158169D01*
X126972334Y-141158169D02*
X127067572Y-141062931D01*
X127067572Y-141062931D02*
X127258048Y-141015312D01*
X127258048Y-141015312D02*
X127591381Y-141015312D01*
X127591381Y-141015312D02*
X127781857Y-141062931D01*
X127781857Y-141062931D02*
X127877095Y-141158169D01*
X127877095Y-141158169D02*
X127924714Y-141253407D01*
X127924714Y-142015312D02*
X127924714Y-142634359D01*
X127924714Y-142634359D02*
X127543762Y-142301026D01*
X127543762Y-142301026D02*
X127543762Y-142443883D01*
X127543762Y-142443883D02*
X127496143Y-142539121D01*
X127496143Y-142539121D02*
X127448524Y-142586740D01*
X127448524Y-142586740D02*
X127353286Y-142634359D01*
X127353286Y-142634359D02*
X127115191Y-142634359D01*
X127115191Y-142634359D02*
X127019953Y-142586740D01*
X127019953Y-142586740D02*
X126972334Y-142539121D01*
X126972334Y-142539121D02*
X126924714Y-142443883D01*
X126924714Y-142443883D02*
X126924714Y-142158169D01*
X126924714Y-142158169D02*
X126972334Y-142062931D01*
X126972334Y-142062931D02*
X127019953Y-142015312D01*
X127829476Y-143015312D02*
X127877095Y-143062931D01*
X127877095Y-143062931D02*
X127924714Y-143158169D01*
X127924714Y-143158169D02*
X127924714Y-143396264D01*
X127924714Y-143396264D02*
X127877095Y-143491502D01*
X127877095Y-143491502D02*
X127829476Y-143539121D01*
X127829476Y-143539121D02*
X127734238Y-143586740D01*
X127734238Y-143586740D02*
X127639000Y-143586740D01*
X127639000Y-143586740D02*
X127496143Y-143539121D01*
X127496143Y-143539121D02*
X126924714Y-142967693D01*
X126924714Y-142967693D02*
X126924714Y-143586740D01*
D11*
X118556666Y-51694819D02*
X118556666Y-52409104D01*
X118556666Y-52409104D02*
X118509047Y-52551961D01*
X118509047Y-52551961D02*
X118413809Y-52647200D01*
X118413809Y-52647200D02*
X118270952Y-52694819D01*
X118270952Y-52694819D02*
X118175714Y-52694819D01*
X119461428Y-51694819D02*
X119270952Y-51694819D01*
X119270952Y-51694819D02*
X119175714Y-51742438D01*
X119175714Y-51742438D02*
X119128095Y-51790057D01*
X119128095Y-51790057D02*
X119032857Y-51932914D01*
X119032857Y-51932914D02*
X118985238Y-52123390D01*
X118985238Y-52123390D02*
X118985238Y-52504342D01*
X118985238Y-52504342D02*
X119032857Y-52599580D01*
X119032857Y-52599580D02*
X119080476Y-52647200D01*
X119080476Y-52647200D02*
X119175714Y-52694819D01*
X119175714Y-52694819D02*
X119366190Y-52694819D01*
X119366190Y-52694819D02*
X119461428Y-52647200D01*
X119461428Y-52647200D02*
X119509047Y-52599580D01*
X119509047Y-52599580D02*
X119556666Y-52504342D01*
X119556666Y-52504342D02*
X119556666Y-52266247D01*
X119556666Y-52266247D02*
X119509047Y-52171009D01*
X119509047Y-52171009D02*
X119461428Y-52123390D01*
X119461428Y-52123390D02*
X119366190Y-52075771D01*
X119366190Y-52075771D02*
X119175714Y-52075771D01*
X119175714Y-52075771D02*
X119080476Y-52123390D01*
X119080476Y-52123390D02*
X119032857Y-52171009D01*
X119032857Y-52171009D02*
X118985238Y-52266247D01*
X92718516Y-144284819D02*
X92385183Y-143808628D01*
X92147088Y-144284819D02*
X92147088Y-143284819D01*
X92147088Y-143284819D02*
X92528040Y-143284819D01*
X92528040Y-143284819D02*
X92623278Y-143332438D01*
X92623278Y-143332438D02*
X92670897Y-143380057D01*
X92670897Y-143380057D02*
X92718516Y-143475295D01*
X92718516Y-143475295D02*
X92718516Y-143618152D01*
X92718516Y-143618152D02*
X92670897Y-143713390D01*
X92670897Y-143713390D02*
X92623278Y-143761009D01*
X92623278Y-143761009D02*
X92528040Y-143808628D01*
X92528040Y-143808628D02*
X92147088Y-143808628D01*
X93670897Y-144284819D02*
X93099469Y-144284819D01*
X93385183Y-144284819D02*
X93385183Y-143284819D01*
X93385183Y-143284819D02*
X93289945Y-143427676D01*
X93289945Y-143427676D02*
X93194707Y-143522914D01*
X93194707Y-143522914D02*
X93099469Y-143570533D01*
X94575659Y-143284819D02*
X94099469Y-143284819D01*
X94099469Y-143284819D02*
X94051850Y-143761009D01*
X94051850Y-143761009D02*
X94099469Y-143713390D01*
X94099469Y-143713390D02*
X94194707Y-143665771D01*
X94194707Y-143665771D02*
X94432802Y-143665771D01*
X94432802Y-143665771D02*
X94528040Y-143713390D01*
X94528040Y-143713390D02*
X94575659Y-143761009D01*
X94575659Y-143761009D02*
X94623278Y-143856247D01*
X94623278Y-143856247D02*
X94623278Y-144094342D01*
X94623278Y-144094342D02*
X94575659Y-144189580D01*
X94575659Y-144189580D02*
X94528040Y-144237200D01*
X94528040Y-144237200D02*
X94432802Y-144284819D01*
X94432802Y-144284819D02*
X94194707Y-144284819D01*
X94194707Y-144284819D02*
X94099469Y-144237200D01*
X94099469Y-144237200D02*
X94051850Y-144189580D01*
X108084707Y-118359580D02*
X108037088Y-118407200D01*
X108037088Y-118407200D02*
X107894231Y-118454819D01*
X107894231Y-118454819D02*
X107798993Y-118454819D01*
X107798993Y-118454819D02*
X107656136Y-118407200D01*
X107656136Y-118407200D02*
X107560898Y-118311961D01*
X107560898Y-118311961D02*
X107513279Y-118216723D01*
X107513279Y-118216723D02*
X107465660Y-118026247D01*
X107465660Y-118026247D02*
X107465660Y-117883390D01*
X107465660Y-117883390D02*
X107513279Y-117692914D01*
X107513279Y-117692914D02*
X107560898Y-117597676D01*
X107560898Y-117597676D02*
X107656136Y-117502438D01*
X107656136Y-117502438D02*
X107798993Y-117454819D01*
X107798993Y-117454819D02*
X107894231Y-117454819D01*
X107894231Y-117454819D02*
X108037088Y-117502438D01*
X108037088Y-117502438D02*
X108084707Y-117550057D01*
X108465660Y-117550057D02*
X108513279Y-117502438D01*
X108513279Y-117502438D02*
X108608517Y-117454819D01*
X108608517Y-117454819D02*
X108846612Y-117454819D01*
X108846612Y-117454819D02*
X108941850Y-117502438D01*
X108941850Y-117502438D02*
X108989469Y-117550057D01*
X108989469Y-117550057D02*
X109037088Y-117645295D01*
X109037088Y-117645295D02*
X109037088Y-117740533D01*
X109037088Y-117740533D02*
X108989469Y-117883390D01*
X108989469Y-117883390D02*
X108418041Y-118454819D01*
X108418041Y-118454819D02*
X109037088Y-118454819D01*
X111548040Y-84151266D02*
X111548040Y-84865551D01*
X111548040Y-84865551D02*
X111500421Y-85008408D01*
X111500421Y-85008408D02*
X111405183Y-85103647D01*
X111405183Y-85103647D02*
X111262326Y-85151266D01*
X111262326Y-85151266D02*
X111167088Y-85151266D01*
X112548040Y-85151266D02*
X111976612Y-85151266D01*
X112262326Y-85151266D02*
X112262326Y-84151266D01*
X112262326Y-84151266D02*
X112167088Y-84294123D01*
X112167088Y-84294123D02*
X112071850Y-84389361D01*
X112071850Y-84389361D02*
X111976612Y-84436980D01*
X111328516Y-134654819D02*
X110995183Y-134178628D01*
X110757088Y-134654819D02*
X110757088Y-133654819D01*
X110757088Y-133654819D02*
X111138040Y-133654819D01*
X111138040Y-133654819D02*
X111233278Y-133702438D01*
X111233278Y-133702438D02*
X111280897Y-133750057D01*
X111280897Y-133750057D02*
X111328516Y-133845295D01*
X111328516Y-133845295D02*
X111328516Y-133988152D01*
X111328516Y-133988152D02*
X111280897Y-134083390D01*
X111280897Y-134083390D02*
X111233278Y-134131009D01*
X111233278Y-134131009D02*
X111138040Y-134178628D01*
X111138040Y-134178628D02*
X110757088Y-134178628D01*
X112280897Y-134654819D02*
X111709469Y-134654819D01*
X111995183Y-134654819D02*
X111995183Y-133654819D01*
X111995183Y-133654819D02*
X111899945Y-133797676D01*
X111899945Y-133797676D02*
X111804707Y-133892914D01*
X111804707Y-133892914D02*
X111709469Y-133940533D01*
X112661850Y-133750057D02*
X112709469Y-133702438D01*
X112709469Y-133702438D02*
X112804707Y-133654819D01*
X112804707Y-133654819D02*
X113042802Y-133654819D01*
X113042802Y-133654819D02*
X113138040Y-133702438D01*
X113138040Y-133702438D02*
X113185659Y-133750057D01*
X113185659Y-133750057D02*
X113233278Y-133845295D01*
X113233278Y-133845295D02*
X113233278Y-133940533D01*
X113233278Y-133940533D02*
X113185659Y-134083390D01*
X113185659Y-134083390D02*
X112614231Y-134654819D01*
X112614231Y-134654819D02*
X113233278Y-134654819D01*
X101314707Y-91556027D02*
X101267088Y-91603647D01*
X101267088Y-91603647D02*
X101124231Y-91651266D01*
X101124231Y-91651266D02*
X101028993Y-91651266D01*
X101028993Y-91651266D02*
X100886136Y-91603647D01*
X100886136Y-91603647D02*
X100790898Y-91508408D01*
X100790898Y-91508408D02*
X100743279Y-91413170D01*
X100743279Y-91413170D02*
X100695660Y-91222694D01*
X100695660Y-91222694D02*
X100695660Y-91079837D01*
X100695660Y-91079837D02*
X100743279Y-90889361D01*
X100743279Y-90889361D02*
X100790898Y-90794123D01*
X100790898Y-90794123D02*
X100886136Y-90698885D01*
X100886136Y-90698885D02*
X101028993Y-90651266D01*
X101028993Y-90651266D02*
X101124231Y-90651266D01*
X101124231Y-90651266D02*
X101267088Y-90698885D01*
X101267088Y-90698885D02*
X101314707Y-90746504D01*
X102267088Y-91651266D02*
X101695660Y-91651266D01*
X101981374Y-91651266D02*
X101981374Y-90651266D01*
X101981374Y-90651266D02*
X101886136Y-90794123D01*
X101886136Y-90794123D02*
X101790898Y-90889361D01*
X101790898Y-90889361D02*
X101695660Y-90936980D01*
X92928516Y-158984819D02*
X92595183Y-158508628D01*
X92357088Y-158984819D02*
X92357088Y-157984819D01*
X92357088Y-157984819D02*
X92738040Y-157984819D01*
X92738040Y-157984819D02*
X92833278Y-158032438D01*
X92833278Y-158032438D02*
X92880897Y-158080057D01*
X92880897Y-158080057D02*
X92928516Y-158175295D01*
X92928516Y-158175295D02*
X92928516Y-158318152D01*
X92928516Y-158318152D02*
X92880897Y-158413390D01*
X92880897Y-158413390D02*
X92833278Y-158461009D01*
X92833278Y-158461009D02*
X92738040Y-158508628D01*
X92738040Y-158508628D02*
X92357088Y-158508628D01*
X93880897Y-158984819D02*
X93309469Y-158984819D01*
X93595183Y-158984819D02*
X93595183Y-157984819D01*
X93595183Y-157984819D02*
X93499945Y-158127676D01*
X93499945Y-158127676D02*
X93404707Y-158222914D01*
X93404707Y-158222914D02*
X93309469Y-158270533D01*
X94452326Y-158413390D02*
X94357088Y-158365771D01*
X94357088Y-158365771D02*
X94309469Y-158318152D01*
X94309469Y-158318152D02*
X94261850Y-158222914D01*
X94261850Y-158222914D02*
X94261850Y-158175295D01*
X94261850Y-158175295D02*
X94309469Y-158080057D01*
X94309469Y-158080057D02*
X94357088Y-158032438D01*
X94357088Y-158032438D02*
X94452326Y-157984819D01*
X94452326Y-157984819D02*
X94642802Y-157984819D01*
X94642802Y-157984819D02*
X94738040Y-158032438D01*
X94738040Y-158032438D02*
X94785659Y-158080057D01*
X94785659Y-158080057D02*
X94833278Y-158175295D01*
X94833278Y-158175295D02*
X94833278Y-158222914D01*
X94833278Y-158222914D02*
X94785659Y-158318152D01*
X94785659Y-158318152D02*
X94738040Y-158365771D01*
X94738040Y-158365771D02*
X94642802Y-158413390D01*
X94642802Y-158413390D02*
X94452326Y-158413390D01*
X94452326Y-158413390D02*
X94357088Y-158461009D01*
X94357088Y-158461009D02*
X94309469Y-158508628D01*
X94309469Y-158508628D02*
X94261850Y-158603866D01*
X94261850Y-158603866D02*
X94261850Y-158794342D01*
X94261850Y-158794342D02*
X94309469Y-158889580D01*
X94309469Y-158889580D02*
X94357088Y-158937200D01*
X94357088Y-158937200D02*
X94452326Y-158984819D01*
X94452326Y-158984819D02*
X94642802Y-158984819D01*
X94642802Y-158984819D02*
X94738040Y-158937200D01*
X94738040Y-158937200D02*
X94785659Y-158889580D01*
X94785659Y-158889580D02*
X94833278Y-158794342D01*
X94833278Y-158794342D02*
X94833278Y-158603866D01*
X94833278Y-158603866D02*
X94785659Y-158508628D01*
X94785659Y-158508628D02*
X94738040Y-158461009D01*
X94738040Y-158461009D02*
X94642802Y-158413390D01*
X91393333Y-79024819D02*
X91060000Y-78548628D01*
X90821905Y-79024819D02*
X90821905Y-78024819D01*
X90821905Y-78024819D02*
X91202857Y-78024819D01*
X91202857Y-78024819D02*
X91298095Y-78072438D01*
X91298095Y-78072438D02*
X91345714Y-78120057D01*
X91345714Y-78120057D02*
X91393333Y-78215295D01*
X91393333Y-78215295D02*
X91393333Y-78358152D01*
X91393333Y-78358152D02*
X91345714Y-78453390D01*
X91345714Y-78453390D02*
X91298095Y-78501009D01*
X91298095Y-78501009D02*
X91202857Y-78548628D01*
X91202857Y-78548628D02*
X90821905Y-78548628D01*
X91726667Y-78024819D02*
X92393333Y-78024819D01*
X92393333Y-78024819D02*
X91964762Y-79024819D01*
X110358516Y-161655710D02*
X110025183Y-161179519D01*
X109787088Y-161655710D02*
X109787088Y-160655710D01*
X109787088Y-160655710D02*
X110168040Y-160655710D01*
X110168040Y-160655710D02*
X110263278Y-160703329D01*
X110263278Y-160703329D02*
X110310897Y-160750948D01*
X110310897Y-160750948D02*
X110358516Y-160846186D01*
X110358516Y-160846186D02*
X110358516Y-160989043D01*
X110358516Y-160989043D02*
X110310897Y-161084281D01*
X110310897Y-161084281D02*
X110263278Y-161131900D01*
X110263278Y-161131900D02*
X110168040Y-161179519D01*
X110168040Y-161179519D02*
X109787088Y-161179519D01*
X110739469Y-160750948D02*
X110787088Y-160703329D01*
X110787088Y-160703329D02*
X110882326Y-160655710D01*
X110882326Y-160655710D02*
X111120421Y-160655710D01*
X111120421Y-160655710D02*
X111215659Y-160703329D01*
X111215659Y-160703329D02*
X111263278Y-160750948D01*
X111263278Y-160750948D02*
X111310897Y-160846186D01*
X111310897Y-160846186D02*
X111310897Y-160941424D01*
X111310897Y-160941424D02*
X111263278Y-161084281D01*
X111263278Y-161084281D02*
X110691850Y-161655710D01*
X110691850Y-161655710D02*
X111310897Y-161655710D01*
X111691850Y-160750948D02*
X111739469Y-160703329D01*
X111739469Y-160703329D02*
X111834707Y-160655710D01*
X111834707Y-160655710D02*
X112072802Y-160655710D01*
X112072802Y-160655710D02*
X112168040Y-160703329D01*
X112168040Y-160703329D02*
X112215659Y-160750948D01*
X112215659Y-160750948D02*
X112263278Y-160846186D01*
X112263278Y-160846186D02*
X112263278Y-160941424D01*
X112263278Y-160941424D02*
X112215659Y-161084281D01*
X112215659Y-161084281D02*
X111644231Y-161655710D01*
X111644231Y-161655710D02*
X112263278Y-161655710D01*
X120138040Y-108151266D02*
X120138040Y-108865551D01*
X120138040Y-108865551D02*
X120090421Y-109008408D01*
X120090421Y-109008408D02*
X119995183Y-109103647D01*
X119995183Y-109103647D02*
X119852326Y-109151266D01*
X119852326Y-109151266D02*
X119757088Y-109151266D01*
X120566612Y-108246504D02*
X120614231Y-108198885D01*
X120614231Y-108198885D02*
X120709469Y-108151266D01*
X120709469Y-108151266D02*
X120947564Y-108151266D01*
X120947564Y-108151266D02*
X121042802Y-108198885D01*
X121042802Y-108198885D02*
X121090421Y-108246504D01*
X121090421Y-108246504D02*
X121138040Y-108341742D01*
X121138040Y-108341742D02*
X121138040Y-108436980D01*
X121138040Y-108436980D02*
X121090421Y-108579837D01*
X121090421Y-108579837D02*
X120518993Y-109151266D01*
X120518993Y-109151266D02*
X121138040Y-109151266D01*
X109838516Y-79951266D02*
X109505183Y-79475075D01*
X109267088Y-79951266D02*
X109267088Y-78951266D01*
X109267088Y-78951266D02*
X109648040Y-78951266D01*
X109648040Y-78951266D02*
X109743278Y-78998885D01*
X109743278Y-78998885D02*
X109790897Y-79046504D01*
X109790897Y-79046504D02*
X109838516Y-79141742D01*
X109838516Y-79141742D02*
X109838516Y-79284599D01*
X109838516Y-79284599D02*
X109790897Y-79379837D01*
X109790897Y-79379837D02*
X109743278Y-79427456D01*
X109743278Y-79427456D02*
X109648040Y-79475075D01*
X109648040Y-79475075D02*
X109267088Y-79475075D01*
X110219469Y-79046504D02*
X110267088Y-78998885D01*
X110267088Y-78998885D02*
X110362326Y-78951266D01*
X110362326Y-78951266D02*
X110600421Y-78951266D01*
X110600421Y-78951266D02*
X110695659Y-78998885D01*
X110695659Y-78998885D02*
X110743278Y-79046504D01*
X110743278Y-79046504D02*
X110790897Y-79141742D01*
X110790897Y-79141742D02*
X110790897Y-79236980D01*
X110790897Y-79236980D02*
X110743278Y-79379837D01*
X110743278Y-79379837D02*
X110171850Y-79951266D01*
X110171850Y-79951266D02*
X110790897Y-79951266D01*
X111648040Y-79284599D02*
X111648040Y-79951266D01*
X111409945Y-78903647D02*
X111171850Y-79617932D01*
X111171850Y-79617932D02*
X111790897Y-79617932D01*
X124643279Y-75751266D02*
X124643279Y-74751266D01*
X124643279Y-74751266D02*
X124881374Y-74751266D01*
X124881374Y-74751266D02*
X125024231Y-74798885D01*
X125024231Y-74798885D02*
X125119469Y-74894123D01*
X125119469Y-74894123D02*
X125167088Y-74989361D01*
X125167088Y-74989361D02*
X125214707Y-75179837D01*
X125214707Y-75179837D02*
X125214707Y-75322694D01*
X125214707Y-75322694D02*
X125167088Y-75513170D01*
X125167088Y-75513170D02*
X125119469Y-75608408D01*
X125119469Y-75608408D02*
X125024231Y-75703647D01*
X125024231Y-75703647D02*
X124881374Y-75751266D01*
X124881374Y-75751266D02*
X124643279Y-75751266D01*
X125548041Y-74751266D02*
X126167088Y-74751266D01*
X126167088Y-74751266D02*
X125833755Y-75132218D01*
X125833755Y-75132218D02*
X125976612Y-75132218D01*
X125976612Y-75132218D02*
X126071850Y-75179837D01*
X126071850Y-75179837D02*
X126119469Y-75227456D01*
X126119469Y-75227456D02*
X126167088Y-75322694D01*
X126167088Y-75322694D02*
X126167088Y-75560789D01*
X126167088Y-75560789D02*
X126119469Y-75656027D01*
X126119469Y-75656027D02*
X126071850Y-75703647D01*
X126071850Y-75703647D02*
X125976612Y-75751266D01*
X125976612Y-75751266D02*
X125690898Y-75751266D01*
X125690898Y-75751266D02*
X125595660Y-75703647D01*
X125595660Y-75703647D02*
X125548041Y-75656027D01*
X96889469Y-140224819D02*
X96889469Y-141034342D01*
X96889469Y-141034342D02*
X96937088Y-141129580D01*
X96937088Y-141129580D02*
X96984707Y-141177200D01*
X96984707Y-141177200D02*
X97079945Y-141224819D01*
X97079945Y-141224819D02*
X97270421Y-141224819D01*
X97270421Y-141224819D02*
X97365659Y-141177200D01*
X97365659Y-141177200D02*
X97413278Y-141129580D01*
X97413278Y-141129580D02*
X97460897Y-141034342D01*
X97460897Y-141034342D02*
X97460897Y-140224819D01*
X97841850Y-140224819D02*
X98460897Y-140224819D01*
X98460897Y-140224819D02*
X98127564Y-140605771D01*
X98127564Y-140605771D02*
X98270421Y-140605771D01*
X98270421Y-140605771D02*
X98365659Y-140653390D01*
X98365659Y-140653390D02*
X98413278Y-140701009D01*
X98413278Y-140701009D02*
X98460897Y-140796247D01*
X98460897Y-140796247D02*
X98460897Y-141034342D01*
X98460897Y-141034342D02*
X98413278Y-141129580D01*
X98413278Y-141129580D02*
X98365659Y-141177200D01*
X98365659Y-141177200D02*
X98270421Y-141224819D01*
X98270421Y-141224819D02*
X97984707Y-141224819D01*
X97984707Y-141224819D02*
X97889469Y-141177200D01*
X97889469Y-141177200D02*
X97841850Y-141129580D01*
X124743279Y-92451266D02*
X124743279Y-91451266D01*
X124743279Y-91451266D02*
X124981374Y-91451266D01*
X124981374Y-91451266D02*
X125124231Y-91498885D01*
X125124231Y-91498885D02*
X125219469Y-91594123D01*
X125219469Y-91594123D02*
X125267088Y-91689361D01*
X125267088Y-91689361D02*
X125314707Y-91879837D01*
X125314707Y-91879837D02*
X125314707Y-92022694D01*
X125314707Y-92022694D02*
X125267088Y-92213170D01*
X125267088Y-92213170D02*
X125219469Y-92308408D01*
X125219469Y-92308408D02*
X125124231Y-92403647D01*
X125124231Y-92403647D02*
X124981374Y-92451266D01*
X124981374Y-92451266D02*
X124743279Y-92451266D01*
X125695660Y-91546504D02*
X125743279Y-91498885D01*
X125743279Y-91498885D02*
X125838517Y-91451266D01*
X125838517Y-91451266D02*
X126076612Y-91451266D01*
X126076612Y-91451266D02*
X126171850Y-91498885D01*
X126171850Y-91498885D02*
X126219469Y-91546504D01*
X126219469Y-91546504D02*
X126267088Y-91641742D01*
X126267088Y-91641742D02*
X126267088Y-91736980D01*
X126267088Y-91736980D02*
X126219469Y-91879837D01*
X126219469Y-91879837D02*
X125648041Y-92451266D01*
X125648041Y-92451266D02*
X126267088Y-92451266D01*
X87813333Y-52854819D02*
X87480000Y-52378628D01*
X87241905Y-52854819D02*
X87241905Y-51854819D01*
X87241905Y-51854819D02*
X87622857Y-51854819D01*
X87622857Y-51854819D02*
X87718095Y-51902438D01*
X87718095Y-51902438D02*
X87765714Y-51950057D01*
X87765714Y-51950057D02*
X87813333Y-52045295D01*
X87813333Y-52045295D02*
X87813333Y-52188152D01*
X87813333Y-52188152D02*
X87765714Y-52283390D01*
X87765714Y-52283390D02*
X87718095Y-52331009D01*
X87718095Y-52331009D02*
X87622857Y-52378628D01*
X87622857Y-52378628D02*
X87241905Y-52378628D01*
X88718095Y-51854819D02*
X88241905Y-51854819D01*
X88241905Y-51854819D02*
X88194286Y-52331009D01*
X88194286Y-52331009D02*
X88241905Y-52283390D01*
X88241905Y-52283390D02*
X88337143Y-52235771D01*
X88337143Y-52235771D02*
X88575238Y-52235771D01*
X88575238Y-52235771D02*
X88670476Y-52283390D01*
X88670476Y-52283390D02*
X88718095Y-52331009D01*
X88718095Y-52331009D02*
X88765714Y-52426247D01*
X88765714Y-52426247D02*
X88765714Y-52664342D01*
X88765714Y-52664342D02*
X88718095Y-52759580D01*
X88718095Y-52759580D02*
X88670476Y-52807200D01*
X88670476Y-52807200D02*
X88575238Y-52854819D01*
X88575238Y-52854819D02*
X88337143Y-52854819D01*
X88337143Y-52854819D02*
X88241905Y-52807200D01*
X88241905Y-52807200D02*
X88194286Y-52759580D01*
X87713333Y-74954819D02*
X87380000Y-74478628D01*
X87141905Y-74954819D02*
X87141905Y-73954819D01*
X87141905Y-73954819D02*
X87522857Y-73954819D01*
X87522857Y-73954819D02*
X87618095Y-74002438D01*
X87618095Y-74002438D02*
X87665714Y-74050057D01*
X87665714Y-74050057D02*
X87713333Y-74145295D01*
X87713333Y-74145295D02*
X87713333Y-74288152D01*
X87713333Y-74288152D02*
X87665714Y-74383390D01*
X87665714Y-74383390D02*
X87618095Y-74431009D01*
X87618095Y-74431009D02*
X87522857Y-74478628D01*
X87522857Y-74478628D02*
X87141905Y-74478628D01*
X88570476Y-73954819D02*
X88380000Y-73954819D01*
X88380000Y-73954819D02*
X88284762Y-74002438D01*
X88284762Y-74002438D02*
X88237143Y-74050057D01*
X88237143Y-74050057D02*
X88141905Y-74192914D01*
X88141905Y-74192914D02*
X88094286Y-74383390D01*
X88094286Y-74383390D02*
X88094286Y-74764342D01*
X88094286Y-74764342D02*
X88141905Y-74859580D01*
X88141905Y-74859580D02*
X88189524Y-74907200D01*
X88189524Y-74907200D02*
X88284762Y-74954819D01*
X88284762Y-74954819D02*
X88475238Y-74954819D01*
X88475238Y-74954819D02*
X88570476Y-74907200D01*
X88570476Y-74907200D02*
X88618095Y-74859580D01*
X88618095Y-74859580D02*
X88665714Y-74764342D01*
X88665714Y-74764342D02*
X88665714Y-74526247D01*
X88665714Y-74526247D02*
X88618095Y-74431009D01*
X88618095Y-74431009D02*
X88570476Y-74383390D01*
X88570476Y-74383390D02*
X88475238Y-74335771D01*
X88475238Y-74335771D02*
X88284762Y-74335771D01*
X88284762Y-74335771D02*
X88189524Y-74383390D01*
X88189524Y-74383390D02*
X88141905Y-74431009D01*
X88141905Y-74431009D02*
X88094286Y-74526247D01*
X111328516Y-125654819D02*
X110995183Y-125178628D01*
X110757088Y-125654819D02*
X110757088Y-124654819D01*
X110757088Y-124654819D02*
X111138040Y-124654819D01*
X111138040Y-124654819D02*
X111233278Y-124702438D01*
X111233278Y-124702438D02*
X111280897Y-124750057D01*
X111280897Y-124750057D02*
X111328516Y-124845295D01*
X111328516Y-124845295D02*
X111328516Y-124988152D01*
X111328516Y-124988152D02*
X111280897Y-125083390D01*
X111280897Y-125083390D02*
X111233278Y-125131009D01*
X111233278Y-125131009D02*
X111138040Y-125178628D01*
X111138040Y-125178628D02*
X110757088Y-125178628D01*
X112280897Y-125654819D02*
X111709469Y-125654819D01*
X111995183Y-125654819D02*
X111995183Y-124654819D01*
X111995183Y-124654819D02*
X111899945Y-124797676D01*
X111899945Y-124797676D02*
X111804707Y-124892914D01*
X111804707Y-124892914D02*
X111709469Y-124940533D01*
X113138040Y-124988152D02*
X113138040Y-125654819D01*
X112899945Y-124607200D02*
X112661850Y-125321485D01*
X112661850Y-125321485D02*
X113280897Y-125321485D01*
X108057142Y-72154819D02*
X107723809Y-71678628D01*
X107485714Y-72154819D02*
X107485714Y-71154819D01*
X107485714Y-71154819D02*
X107866666Y-71154819D01*
X107866666Y-71154819D02*
X107961904Y-71202438D01*
X107961904Y-71202438D02*
X108009523Y-71250057D01*
X108009523Y-71250057D02*
X108057142Y-71345295D01*
X108057142Y-71345295D02*
X108057142Y-71488152D01*
X108057142Y-71488152D02*
X108009523Y-71583390D01*
X108009523Y-71583390D02*
X107961904Y-71631009D01*
X107961904Y-71631009D02*
X107866666Y-71678628D01*
X107866666Y-71678628D02*
X107485714Y-71678628D01*
X109009523Y-72154819D02*
X108438095Y-72154819D01*
X108723809Y-72154819D02*
X108723809Y-71154819D01*
X108723809Y-71154819D02*
X108628571Y-71297676D01*
X108628571Y-71297676D02*
X108533333Y-71392914D01*
X108533333Y-71392914D02*
X108438095Y-71440533D01*
X109628571Y-71154819D02*
X109723809Y-71154819D01*
X109723809Y-71154819D02*
X109819047Y-71202438D01*
X109819047Y-71202438D02*
X109866666Y-71250057D01*
X109866666Y-71250057D02*
X109914285Y-71345295D01*
X109914285Y-71345295D02*
X109961904Y-71535771D01*
X109961904Y-71535771D02*
X109961904Y-71773866D01*
X109961904Y-71773866D02*
X109914285Y-71964342D01*
X109914285Y-71964342D02*
X109866666Y-72059580D01*
X109866666Y-72059580D02*
X109819047Y-72107200D01*
X109819047Y-72107200D02*
X109723809Y-72154819D01*
X109723809Y-72154819D02*
X109628571Y-72154819D01*
X109628571Y-72154819D02*
X109533333Y-72107200D01*
X109533333Y-72107200D02*
X109485714Y-72059580D01*
X109485714Y-72059580D02*
X109438095Y-71964342D01*
X109438095Y-71964342D02*
X109390476Y-71773866D01*
X109390476Y-71773866D02*
X109390476Y-71535771D01*
X109390476Y-71535771D02*
X109438095Y-71345295D01*
X109438095Y-71345295D02*
X109485714Y-71250057D01*
X109485714Y-71250057D02*
X109533333Y-71202438D01*
X109533333Y-71202438D02*
X109628571Y-71154819D01*
X105914707Y-95651266D02*
X105581374Y-95175075D01*
X105343279Y-95651266D02*
X105343279Y-94651266D01*
X105343279Y-94651266D02*
X105724231Y-94651266D01*
X105724231Y-94651266D02*
X105819469Y-94698885D01*
X105819469Y-94698885D02*
X105867088Y-94746504D01*
X105867088Y-94746504D02*
X105914707Y-94841742D01*
X105914707Y-94841742D02*
X105914707Y-94984599D01*
X105914707Y-94984599D02*
X105867088Y-95079837D01*
X105867088Y-95079837D02*
X105819469Y-95127456D01*
X105819469Y-95127456D02*
X105724231Y-95175075D01*
X105724231Y-95175075D02*
X105343279Y-95175075D01*
X106867088Y-95651266D02*
X106295660Y-95651266D01*
X106581374Y-95651266D02*
X106581374Y-94651266D01*
X106581374Y-94651266D02*
X106486136Y-94794123D01*
X106486136Y-94794123D02*
X106390898Y-94889361D01*
X106390898Y-94889361D02*
X106295660Y-94936980D01*
X79646666Y-51954819D02*
X79646666Y-52669104D01*
X79646666Y-52669104D02*
X79599047Y-52811961D01*
X79599047Y-52811961D02*
X79503809Y-52907200D01*
X79503809Y-52907200D02*
X79360952Y-52954819D01*
X79360952Y-52954819D02*
X79265714Y-52954819D01*
X80027619Y-51954819D02*
X80646666Y-51954819D01*
X80646666Y-51954819D02*
X80313333Y-52335771D01*
X80313333Y-52335771D02*
X80456190Y-52335771D01*
X80456190Y-52335771D02*
X80551428Y-52383390D01*
X80551428Y-52383390D02*
X80599047Y-52431009D01*
X80599047Y-52431009D02*
X80646666Y-52526247D01*
X80646666Y-52526247D02*
X80646666Y-52764342D01*
X80646666Y-52764342D02*
X80599047Y-52859580D01*
X80599047Y-52859580D02*
X80551428Y-52907200D01*
X80551428Y-52907200D02*
X80456190Y-52954819D01*
X80456190Y-52954819D02*
X80170476Y-52954819D01*
X80170476Y-52954819D02*
X80075238Y-52907200D01*
X80075238Y-52907200D02*
X80027619Y-52859580D01*
X108273333Y-58974819D02*
X107940000Y-58498628D01*
X107701905Y-58974819D02*
X107701905Y-57974819D01*
X107701905Y-57974819D02*
X108082857Y-57974819D01*
X108082857Y-57974819D02*
X108178095Y-58022438D01*
X108178095Y-58022438D02*
X108225714Y-58070057D01*
X108225714Y-58070057D02*
X108273333Y-58165295D01*
X108273333Y-58165295D02*
X108273333Y-58308152D01*
X108273333Y-58308152D02*
X108225714Y-58403390D01*
X108225714Y-58403390D02*
X108178095Y-58451009D01*
X108178095Y-58451009D02*
X108082857Y-58498628D01*
X108082857Y-58498628D02*
X107701905Y-58498628D01*
X108844762Y-58403390D02*
X108749524Y-58355771D01*
X108749524Y-58355771D02*
X108701905Y-58308152D01*
X108701905Y-58308152D02*
X108654286Y-58212914D01*
X108654286Y-58212914D02*
X108654286Y-58165295D01*
X108654286Y-58165295D02*
X108701905Y-58070057D01*
X108701905Y-58070057D02*
X108749524Y-58022438D01*
X108749524Y-58022438D02*
X108844762Y-57974819D01*
X108844762Y-57974819D02*
X109035238Y-57974819D01*
X109035238Y-57974819D02*
X109130476Y-58022438D01*
X109130476Y-58022438D02*
X109178095Y-58070057D01*
X109178095Y-58070057D02*
X109225714Y-58165295D01*
X109225714Y-58165295D02*
X109225714Y-58212914D01*
X109225714Y-58212914D02*
X109178095Y-58308152D01*
X109178095Y-58308152D02*
X109130476Y-58355771D01*
X109130476Y-58355771D02*
X109035238Y-58403390D01*
X109035238Y-58403390D02*
X108844762Y-58403390D01*
X108844762Y-58403390D02*
X108749524Y-58451009D01*
X108749524Y-58451009D02*
X108701905Y-58498628D01*
X108701905Y-58498628D02*
X108654286Y-58593866D01*
X108654286Y-58593866D02*
X108654286Y-58784342D01*
X108654286Y-58784342D02*
X108701905Y-58879580D01*
X108701905Y-58879580D02*
X108749524Y-58927200D01*
X108749524Y-58927200D02*
X108844762Y-58974819D01*
X108844762Y-58974819D02*
X109035238Y-58974819D01*
X109035238Y-58974819D02*
X109130476Y-58927200D01*
X109130476Y-58927200D02*
X109178095Y-58879580D01*
X109178095Y-58879580D02*
X109225714Y-58784342D01*
X109225714Y-58784342D02*
X109225714Y-58593866D01*
X109225714Y-58593866D02*
X109178095Y-58498628D01*
X109178095Y-58498628D02*
X109130476Y-58451009D01*
X109130476Y-58451009D02*
X109035238Y-58403390D01*
X110458516Y-156355710D02*
X110125183Y-155879519D01*
X109887088Y-156355710D02*
X109887088Y-155355710D01*
X109887088Y-155355710D02*
X110268040Y-155355710D01*
X110268040Y-155355710D02*
X110363278Y-155403329D01*
X110363278Y-155403329D02*
X110410897Y-155450948D01*
X110410897Y-155450948D02*
X110458516Y-155546186D01*
X110458516Y-155546186D02*
X110458516Y-155689043D01*
X110458516Y-155689043D02*
X110410897Y-155784281D01*
X110410897Y-155784281D02*
X110363278Y-155831900D01*
X110363278Y-155831900D02*
X110268040Y-155879519D01*
X110268040Y-155879519D02*
X109887088Y-155879519D01*
X110839469Y-155450948D02*
X110887088Y-155403329D01*
X110887088Y-155403329D02*
X110982326Y-155355710D01*
X110982326Y-155355710D02*
X111220421Y-155355710D01*
X111220421Y-155355710D02*
X111315659Y-155403329D01*
X111315659Y-155403329D02*
X111363278Y-155450948D01*
X111363278Y-155450948D02*
X111410897Y-155546186D01*
X111410897Y-155546186D02*
X111410897Y-155641424D01*
X111410897Y-155641424D02*
X111363278Y-155784281D01*
X111363278Y-155784281D02*
X110791850Y-156355710D01*
X110791850Y-156355710D02*
X111410897Y-156355710D01*
X112363278Y-156355710D02*
X111791850Y-156355710D01*
X112077564Y-156355710D02*
X112077564Y-155355710D01*
X112077564Y-155355710D02*
X111982326Y-155498567D01*
X111982326Y-155498567D02*
X111887088Y-155593805D01*
X111887088Y-155593805D02*
X111791850Y-155641424D01*
X110333333Y-67254819D02*
X110000000Y-66778628D01*
X109761905Y-67254819D02*
X109761905Y-66254819D01*
X109761905Y-66254819D02*
X110142857Y-66254819D01*
X110142857Y-66254819D02*
X110238095Y-66302438D01*
X110238095Y-66302438D02*
X110285714Y-66350057D01*
X110285714Y-66350057D02*
X110333333Y-66445295D01*
X110333333Y-66445295D02*
X110333333Y-66588152D01*
X110333333Y-66588152D02*
X110285714Y-66683390D01*
X110285714Y-66683390D02*
X110238095Y-66731009D01*
X110238095Y-66731009D02*
X110142857Y-66778628D01*
X110142857Y-66778628D02*
X109761905Y-66778628D01*
X110809524Y-67254819D02*
X111000000Y-67254819D01*
X111000000Y-67254819D02*
X111095238Y-67207200D01*
X111095238Y-67207200D02*
X111142857Y-67159580D01*
X111142857Y-67159580D02*
X111238095Y-67016723D01*
X111238095Y-67016723D02*
X111285714Y-66826247D01*
X111285714Y-66826247D02*
X111285714Y-66445295D01*
X111285714Y-66445295D02*
X111238095Y-66350057D01*
X111238095Y-66350057D02*
X111190476Y-66302438D01*
X111190476Y-66302438D02*
X111095238Y-66254819D01*
X111095238Y-66254819D02*
X110904762Y-66254819D01*
X110904762Y-66254819D02*
X110809524Y-66302438D01*
X110809524Y-66302438D02*
X110761905Y-66350057D01*
X110761905Y-66350057D02*
X110714286Y-66445295D01*
X110714286Y-66445295D02*
X110714286Y-66683390D01*
X110714286Y-66683390D02*
X110761905Y-66778628D01*
X110761905Y-66778628D02*
X110809524Y-66826247D01*
X110809524Y-66826247D02*
X110904762Y-66873866D01*
X110904762Y-66873866D02*
X111095238Y-66873866D01*
X111095238Y-66873866D02*
X111190476Y-66826247D01*
X111190476Y-66826247D02*
X111238095Y-66778628D01*
X111238095Y-66778628D02*
X111285714Y-66683390D01*
X110258516Y-146655710D02*
X109925183Y-146179519D01*
X109687088Y-146655710D02*
X109687088Y-145655710D01*
X109687088Y-145655710D02*
X110068040Y-145655710D01*
X110068040Y-145655710D02*
X110163278Y-145703329D01*
X110163278Y-145703329D02*
X110210897Y-145750948D01*
X110210897Y-145750948D02*
X110258516Y-145846186D01*
X110258516Y-145846186D02*
X110258516Y-145989043D01*
X110258516Y-145989043D02*
X110210897Y-146084281D01*
X110210897Y-146084281D02*
X110163278Y-146131900D01*
X110163278Y-146131900D02*
X110068040Y-146179519D01*
X110068040Y-146179519D02*
X109687088Y-146179519D01*
X111210897Y-146655710D02*
X110639469Y-146655710D01*
X110925183Y-146655710D02*
X110925183Y-145655710D01*
X110925183Y-145655710D02*
X110829945Y-145798567D01*
X110829945Y-145798567D02*
X110734707Y-145893805D01*
X110734707Y-145893805D02*
X110639469Y-145941424D01*
X111687088Y-146655710D02*
X111877564Y-146655710D01*
X111877564Y-146655710D02*
X111972802Y-146608091D01*
X111972802Y-146608091D02*
X112020421Y-146560471D01*
X112020421Y-146560471D02*
X112115659Y-146417614D01*
X112115659Y-146417614D02*
X112163278Y-146227138D01*
X112163278Y-146227138D02*
X112163278Y-145846186D01*
X112163278Y-145846186D02*
X112115659Y-145750948D01*
X112115659Y-145750948D02*
X112068040Y-145703329D01*
X112068040Y-145703329D02*
X111972802Y-145655710D01*
X111972802Y-145655710D02*
X111782326Y-145655710D01*
X111782326Y-145655710D02*
X111687088Y-145703329D01*
X111687088Y-145703329D02*
X111639469Y-145750948D01*
X111639469Y-145750948D02*
X111591850Y-145846186D01*
X111591850Y-145846186D02*
X111591850Y-146084281D01*
X111591850Y-146084281D02*
X111639469Y-146179519D01*
X111639469Y-146179519D02*
X111687088Y-146227138D01*
X111687088Y-146227138D02*
X111782326Y-146274757D01*
X111782326Y-146274757D02*
X111972802Y-146274757D01*
X111972802Y-146274757D02*
X112068040Y-146227138D01*
X112068040Y-146227138D02*
X112115659Y-146179519D01*
X112115659Y-146179519D02*
X112163278Y-146084281D01*
X110458516Y-151455710D02*
X110125183Y-150979519D01*
X109887088Y-151455710D02*
X109887088Y-150455710D01*
X109887088Y-150455710D02*
X110268040Y-150455710D01*
X110268040Y-150455710D02*
X110363278Y-150503329D01*
X110363278Y-150503329D02*
X110410897Y-150550948D01*
X110410897Y-150550948D02*
X110458516Y-150646186D01*
X110458516Y-150646186D02*
X110458516Y-150789043D01*
X110458516Y-150789043D02*
X110410897Y-150884281D01*
X110410897Y-150884281D02*
X110363278Y-150931900D01*
X110363278Y-150931900D02*
X110268040Y-150979519D01*
X110268040Y-150979519D02*
X109887088Y-150979519D01*
X110839469Y-150550948D02*
X110887088Y-150503329D01*
X110887088Y-150503329D02*
X110982326Y-150455710D01*
X110982326Y-150455710D02*
X111220421Y-150455710D01*
X111220421Y-150455710D02*
X111315659Y-150503329D01*
X111315659Y-150503329D02*
X111363278Y-150550948D01*
X111363278Y-150550948D02*
X111410897Y-150646186D01*
X111410897Y-150646186D02*
X111410897Y-150741424D01*
X111410897Y-150741424D02*
X111363278Y-150884281D01*
X111363278Y-150884281D02*
X110791850Y-151455710D01*
X110791850Y-151455710D02*
X111410897Y-151455710D01*
X112029945Y-150455710D02*
X112125183Y-150455710D01*
X112125183Y-150455710D02*
X112220421Y-150503329D01*
X112220421Y-150503329D02*
X112268040Y-150550948D01*
X112268040Y-150550948D02*
X112315659Y-150646186D01*
X112315659Y-150646186D02*
X112363278Y-150836662D01*
X112363278Y-150836662D02*
X112363278Y-151074757D01*
X112363278Y-151074757D02*
X112315659Y-151265233D01*
X112315659Y-151265233D02*
X112268040Y-151360471D01*
X112268040Y-151360471D02*
X112220421Y-151408091D01*
X112220421Y-151408091D02*
X112125183Y-151455710D01*
X112125183Y-151455710D02*
X112029945Y-151455710D01*
X112029945Y-151455710D02*
X111934707Y-151408091D01*
X111934707Y-151408091D02*
X111887088Y-151360471D01*
X111887088Y-151360471D02*
X111839469Y-151265233D01*
X111839469Y-151265233D02*
X111791850Y-151074757D01*
X111791850Y-151074757D02*
X111791850Y-150836662D01*
X111791850Y-150836662D02*
X111839469Y-150646186D01*
X111839469Y-150646186D02*
X111887088Y-150550948D01*
X111887088Y-150550948D02*
X111934707Y-150503329D01*
X111934707Y-150503329D02*
X112029945Y-150455710D01*
X106914707Y-81756027D02*
X106867088Y-81803647D01*
X106867088Y-81803647D02*
X106724231Y-81851266D01*
X106724231Y-81851266D02*
X106628993Y-81851266D01*
X106628993Y-81851266D02*
X106486136Y-81803647D01*
X106486136Y-81803647D02*
X106390898Y-81708408D01*
X106390898Y-81708408D02*
X106343279Y-81613170D01*
X106343279Y-81613170D02*
X106295660Y-81422694D01*
X106295660Y-81422694D02*
X106295660Y-81279837D01*
X106295660Y-81279837D02*
X106343279Y-81089361D01*
X106343279Y-81089361D02*
X106390898Y-80994123D01*
X106390898Y-80994123D02*
X106486136Y-80898885D01*
X106486136Y-80898885D02*
X106628993Y-80851266D01*
X106628993Y-80851266D02*
X106724231Y-80851266D01*
X106724231Y-80851266D02*
X106867088Y-80898885D01*
X106867088Y-80898885D02*
X106914707Y-80946504D01*
X107819469Y-80851266D02*
X107343279Y-80851266D01*
X107343279Y-80851266D02*
X107295660Y-81327456D01*
X107295660Y-81327456D02*
X107343279Y-81279837D01*
X107343279Y-81279837D02*
X107438517Y-81232218D01*
X107438517Y-81232218D02*
X107676612Y-81232218D01*
X107676612Y-81232218D02*
X107771850Y-81279837D01*
X107771850Y-81279837D02*
X107819469Y-81327456D01*
X107819469Y-81327456D02*
X107867088Y-81422694D01*
X107867088Y-81422694D02*
X107867088Y-81660789D01*
X107867088Y-81660789D02*
X107819469Y-81756027D01*
X107819469Y-81756027D02*
X107771850Y-81803647D01*
X107771850Y-81803647D02*
X107676612Y-81851266D01*
X107676612Y-81851266D02*
X107438517Y-81851266D01*
X107438517Y-81851266D02*
X107343279Y-81803647D01*
X107343279Y-81803647D02*
X107295660Y-81756027D01*
X94908095Y-51984819D02*
X94908095Y-52794342D01*
X94908095Y-52794342D02*
X94955714Y-52889580D01*
X94955714Y-52889580D02*
X95003333Y-52937200D01*
X95003333Y-52937200D02*
X95098571Y-52984819D01*
X95098571Y-52984819D02*
X95289047Y-52984819D01*
X95289047Y-52984819D02*
X95384285Y-52937200D01*
X95384285Y-52937200D02*
X95431904Y-52889580D01*
X95431904Y-52889580D02*
X95479523Y-52794342D01*
X95479523Y-52794342D02*
X95479523Y-51984819D01*
X95908095Y-52080057D02*
X95955714Y-52032438D01*
X95955714Y-52032438D02*
X96050952Y-51984819D01*
X96050952Y-51984819D02*
X96289047Y-51984819D01*
X96289047Y-51984819D02*
X96384285Y-52032438D01*
X96384285Y-52032438D02*
X96431904Y-52080057D01*
X96431904Y-52080057D02*
X96479523Y-52175295D01*
X96479523Y-52175295D02*
X96479523Y-52270533D01*
X96479523Y-52270533D02*
X96431904Y-52413390D01*
X96431904Y-52413390D02*
X95860476Y-52984819D01*
X95860476Y-52984819D02*
X96479523Y-52984819D01*
X92918516Y-149084819D02*
X92585183Y-148608628D01*
X92347088Y-149084819D02*
X92347088Y-148084819D01*
X92347088Y-148084819D02*
X92728040Y-148084819D01*
X92728040Y-148084819D02*
X92823278Y-148132438D01*
X92823278Y-148132438D02*
X92870897Y-148180057D01*
X92870897Y-148180057D02*
X92918516Y-148275295D01*
X92918516Y-148275295D02*
X92918516Y-148418152D01*
X92918516Y-148418152D02*
X92870897Y-148513390D01*
X92870897Y-148513390D02*
X92823278Y-148561009D01*
X92823278Y-148561009D02*
X92728040Y-148608628D01*
X92728040Y-148608628D02*
X92347088Y-148608628D01*
X93870897Y-149084819D02*
X93299469Y-149084819D01*
X93585183Y-149084819D02*
X93585183Y-148084819D01*
X93585183Y-148084819D02*
X93489945Y-148227676D01*
X93489945Y-148227676D02*
X93394707Y-148322914D01*
X93394707Y-148322914D02*
X93299469Y-148370533D01*
X94728040Y-148084819D02*
X94537564Y-148084819D01*
X94537564Y-148084819D02*
X94442326Y-148132438D01*
X94442326Y-148132438D02*
X94394707Y-148180057D01*
X94394707Y-148180057D02*
X94299469Y-148322914D01*
X94299469Y-148322914D02*
X94251850Y-148513390D01*
X94251850Y-148513390D02*
X94251850Y-148894342D01*
X94251850Y-148894342D02*
X94299469Y-148989580D01*
X94299469Y-148989580D02*
X94347088Y-149037200D01*
X94347088Y-149037200D02*
X94442326Y-149084819D01*
X94442326Y-149084819D02*
X94632802Y-149084819D01*
X94632802Y-149084819D02*
X94728040Y-149037200D01*
X94728040Y-149037200D02*
X94775659Y-148989580D01*
X94775659Y-148989580D02*
X94823278Y-148894342D01*
X94823278Y-148894342D02*
X94823278Y-148656247D01*
X94823278Y-148656247D02*
X94775659Y-148561009D01*
X94775659Y-148561009D02*
X94728040Y-148513390D01*
X94728040Y-148513390D02*
X94632802Y-148465771D01*
X94632802Y-148465771D02*
X94442326Y-148465771D01*
X94442326Y-148465771D02*
X94347088Y-148513390D01*
X94347088Y-148513390D02*
X94299469Y-148561009D01*
X94299469Y-148561009D02*
X94251850Y-148656247D01*
X89113333Y-81559580D02*
X89065714Y-81607200D01*
X89065714Y-81607200D02*
X88922857Y-81654819D01*
X88922857Y-81654819D02*
X88827619Y-81654819D01*
X88827619Y-81654819D02*
X88684762Y-81607200D01*
X88684762Y-81607200D02*
X88589524Y-81511961D01*
X88589524Y-81511961D02*
X88541905Y-81416723D01*
X88541905Y-81416723D02*
X88494286Y-81226247D01*
X88494286Y-81226247D02*
X88494286Y-81083390D01*
X88494286Y-81083390D02*
X88541905Y-80892914D01*
X88541905Y-80892914D02*
X88589524Y-80797676D01*
X88589524Y-80797676D02*
X88684762Y-80702438D01*
X88684762Y-80702438D02*
X88827619Y-80654819D01*
X88827619Y-80654819D02*
X88922857Y-80654819D01*
X88922857Y-80654819D02*
X89065714Y-80702438D01*
X89065714Y-80702438D02*
X89113333Y-80750057D01*
X89970476Y-80988152D02*
X89970476Y-81654819D01*
X89732381Y-80607200D02*
X89494286Y-81321485D01*
X89494286Y-81321485D02*
X90113333Y-81321485D01*
X100313333Y-114754819D02*
X99980000Y-114278628D01*
X99741905Y-114754819D02*
X99741905Y-113754819D01*
X99741905Y-113754819D02*
X100122857Y-113754819D01*
X100122857Y-113754819D02*
X100218095Y-113802438D01*
X100218095Y-113802438D02*
X100265714Y-113850057D01*
X100265714Y-113850057D02*
X100313333Y-113945295D01*
X100313333Y-113945295D02*
X100313333Y-114088152D01*
X100313333Y-114088152D02*
X100265714Y-114183390D01*
X100265714Y-114183390D02*
X100218095Y-114231009D01*
X100218095Y-114231009D02*
X100122857Y-114278628D01*
X100122857Y-114278628D02*
X99741905Y-114278628D01*
X101170476Y-114088152D02*
X101170476Y-114754819D01*
X100932381Y-113707200D02*
X100694286Y-114421485D01*
X100694286Y-114421485D02*
X101313333Y-114421485D01*
X93018516Y-154084819D02*
X92685183Y-153608628D01*
X92447088Y-154084819D02*
X92447088Y-153084819D01*
X92447088Y-153084819D02*
X92828040Y-153084819D01*
X92828040Y-153084819D02*
X92923278Y-153132438D01*
X92923278Y-153132438D02*
X92970897Y-153180057D01*
X92970897Y-153180057D02*
X93018516Y-153275295D01*
X93018516Y-153275295D02*
X93018516Y-153418152D01*
X93018516Y-153418152D02*
X92970897Y-153513390D01*
X92970897Y-153513390D02*
X92923278Y-153561009D01*
X92923278Y-153561009D02*
X92828040Y-153608628D01*
X92828040Y-153608628D02*
X92447088Y-153608628D01*
X93970897Y-154084819D02*
X93399469Y-154084819D01*
X93685183Y-154084819D02*
X93685183Y-153084819D01*
X93685183Y-153084819D02*
X93589945Y-153227676D01*
X93589945Y-153227676D02*
X93494707Y-153322914D01*
X93494707Y-153322914D02*
X93399469Y-153370533D01*
X94304231Y-153084819D02*
X94970897Y-153084819D01*
X94970897Y-153084819D02*
X94542326Y-154084819D01*
X111328516Y-138654819D02*
X110995183Y-138178628D01*
X110757088Y-138654819D02*
X110757088Y-137654819D01*
X110757088Y-137654819D02*
X111138040Y-137654819D01*
X111138040Y-137654819D02*
X111233278Y-137702438D01*
X111233278Y-137702438D02*
X111280897Y-137750057D01*
X111280897Y-137750057D02*
X111328516Y-137845295D01*
X111328516Y-137845295D02*
X111328516Y-137988152D01*
X111328516Y-137988152D02*
X111280897Y-138083390D01*
X111280897Y-138083390D02*
X111233278Y-138131009D01*
X111233278Y-138131009D02*
X111138040Y-138178628D01*
X111138040Y-138178628D02*
X110757088Y-138178628D01*
X112280897Y-138654819D02*
X111709469Y-138654819D01*
X111995183Y-138654819D02*
X111995183Y-137654819D01*
X111995183Y-137654819D02*
X111899945Y-137797676D01*
X111899945Y-137797676D02*
X111804707Y-137892914D01*
X111804707Y-137892914D02*
X111709469Y-137940533D01*
X113233278Y-138654819D02*
X112661850Y-138654819D01*
X112947564Y-138654819D02*
X112947564Y-137654819D01*
X112947564Y-137654819D02*
X112852326Y-137797676D01*
X112852326Y-137797676D02*
X112757088Y-137892914D01*
X112757088Y-137892914D02*
X112661850Y-137940533D01*
X104813333Y-52559580D02*
X104765714Y-52607200D01*
X104765714Y-52607200D02*
X104622857Y-52654819D01*
X104622857Y-52654819D02*
X104527619Y-52654819D01*
X104527619Y-52654819D02*
X104384762Y-52607200D01*
X104384762Y-52607200D02*
X104289524Y-52511961D01*
X104289524Y-52511961D02*
X104241905Y-52416723D01*
X104241905Y-52416723D02*
X104194286Y-52226247D01*
X104194286Y-52226247D02*
X104194286Y-52083390D01*
X104194286Y-52083390D02*
X104241905Y-51892914D01*
X104241905Y-51892914D02*
X104289524Y-51797676D01*
X104289524Y-51797676D02*
X104384762Y-51702438D01*
X104384762Y-51702438D02*
X104527619Y-51654819D01*
X104527619Y-51654819D02*
X104622857Y-51654819D01*
X104622857Y-51654819D02*
X104765714Y-51702438D01*
X104765714Y-51702438D02*
X104813333Y-51750057D01*
X105146667Y-51654819D02*
X105765714Y-51654819D01*
X105765714Y-51654819D02*
X105432381Y-52035771D01*
X105432381Y-52035771D02*
X105575238Y-52035771D01*
X105575238Y-52035771D02*
X105670476Y-52083390D01*
X105670476Y-52083390D02*
X105718095Y-52131009D01*
X105718095Y-52131009D02*
X105765714Y-52226247D01*
X105765714Y-52226247D02*
X105765714Y-52464342D01*
X105765714Y-52464342D02*
X105718095Y-52559580D01*
X105718095Y-52559580D02*
X105670476Y-52607200D01*
X105670476Y-52607200D02*
X105575238Y-52654819D01*
X105575238Y-52654819D02*
X105289524Y-52654819D01*
X105289524Y-52654819D02*
X105194286Y-52607200D01*
X105194286Y-52607200D02*
X105146667Y-52559580D01*
X92418095Y-79954819D02*
X92418095Y-80764342D01*
X92418095Y-80764342D02*
X92465714Y-80859580D01*
X92465714Y-80859580D02*
X92513333Y-80907200D01*
X92513333Y-80907200D02*
X92608571Y-80954819D01*
X92608571Y-80954819D02*
X92799047Y-80954819D01*
X92799047Y-80954819D02*
X92894285Y-80907200D01*
X92894285Y-80907200D02*
X92941904Y-80859580D01*
X92941904Y-80859580D02*
X92989523Y-80764342D01*
X92989523Y-80764342D02*
X92989523Y-79954819D01*
X93894285Y-80288152D02*
X93894285Y-80954819D01*
X93656190Y-79907200D02*
X93418095Y-80621485D01*
X93418095Y-80621485D02*
X94037142Y-80621485D01*
X111328516Y-129954819D02*
X110995183Y-129478628D01*
X110757088Y-129954819D02*
X110757088Y-128954819D01*
X110757088Y-128954819D02*
X111138040Y-128954819D01*
X111138040Y-128954819D02*
X111233278Y-129002438D01*
X111233278Y-129002438D02*
X111280897Y-129050057D01*
X111280897Y-129050057D02*
X111328516Y-129145295D01*
X111328516Y-129145295D02*
X111328516Y-129288152D01*
X111328516Y-129288152D02*
X111280897Y-129383390D01*
X111280897Y-129383390D02*
X111233278Y-129431009D01*
X111233278Y-129431009D02*
X111138040Y-129478628D01*
X111138040Y-129478628D02*
X110757088Y-129478628D01*
X112280897Y-129954819D02*
X111709469Y-129954819D01*
X111995183Y-129954819D02*
X111995183Y-128954819D01*
X111995183Y-128954819D02*
X111899945Y-129097676D01*
X111899945Y-129097676D02*
X111804707Y-129192914D01*
X111804707Y-129192914D02*
X111709469Y-129240533D01*
X112614231Y-128954819D02*
X113233278Y-128954819D01*
X113233278Y-128954819D02*
X112899945Y-129335771D01*
X112899945Y-129335771D02*
X113042802Y-129335771D01*
X113042802Y-129335771D02*
X113138040Y-129383390D01*
X113138040Y-129383390D02*
X113185659Y-129431009D01*
X113185659Y-129431009D02*
X113233278Y-129526247D01*
X113233278Y-129526247D02*
X113233278Y-129764342D01*
X113233278Y-129764342D02*
X113185659Y-129859580D01*
X113185659Y-129859580D02*
X113138040Y-129907200D01*
X113138040Y-129907200D02*
X113042802Y-129954819D01*
X113042802Y-129954819D02*
X112757088Y-129954819D01*
X112757088Y-129954819D02*
X112661850Y-129907200D01*
X112661850Y-129907200D02*
X112614231Y-129859580D01*
X109738516Y-91651266D02*
X109405183Y-91175075D01*
X109167088Y-91651266D02*
X109167088Y-90651266D01*
X109167088Y-90651266D02*
X109548040Y-90651266D01*
X109548040Y-90651266D02*
X109643278Y-90698885D01*
X109643278Y-90698885D02*
X109690897Y-90746504D01*
X109690897Y-90746504D02*
X109738516Y-90841742D01*
X109738516Y-90841742D02*
X109738516Y-90984599D01*
X109738516Y-90984599D02*
X109690897Y-91079837D01*
X109690897Y-91079837D02*
X109643278Y-91127456D01*
X109643278Y-91127456D02*
X109548040Y-91175075D01*
X109548040Y-91175075D02*
X109167088Y-91175075D01*
X110119469Y-90746504D02*
X110167088Y-90698885D01*
X110167088Y-90698885D02*
X110262326Y-90651266D01*
X110262326Y-90651266D02*
X110500421Y-90651266D01*
X110500421Y-90651266D02*
X110595659Y-90698885D01*
X110595659Y-90698885D02*
X110643278Y-90746504D01*
X110643278Y-90746504D02*
X110690897Y-90841742D01*
X110690897Y-90841742D02*
X110690897Y-90936980D01*
X110690897Y-90936980D02*
X110643278Y-91079837D01*
X110643278Y-91079837D02*
X110071850Y-91651266D01*
X110071850Y-91651266D02*
X110690897Y-91651266D01*
X111024231Y-90651266D02*
X111643278Y-90651266D01*
X111643278Y-90651266D02*
X111309945Y-91032218D01*
X111309945Y-91032218D02*
X111452802Y-91032218D01*
X111452802Y-91032218D02*
X111548040Y-91079837D01*
X111548040Y-91079837D02*
X111595659Y-91127456D01*
X111595659Y-91127456D02*
X111643278Y-91222694D01*
X111643278Y-91222694D02*
X111643278Y-91460789D01*
X111643278Y-91460789D02*
X111595659Y-91556027D01*
X111595659Y-91556027D02*
X111548040Y-91603647D01*
X111548040Y-91603647D02*
X111452802Y-91651266D01*
X111452802Y-91651266D02*
X111167088Y-91651266D01*
X111167088Y-91651266D02*
X111071850Y-91603647D01*
X111071850Y-91603647D02*
X111024231Y-91556027D01*
X106214707Y-103951266D02*
X105881374Y-103475075D01*
X105643279Y-103951266D02*
X105643279Y-102951266D01*
X105643279Y-102951266D02*
X106024231Y-102951266D01*
X106024231Y-102951266D02*
X106119469Y-102998885D01*
X106119469Y-102998885D02*
X106167088Y-103046504D01*
X106167088Y-103046504D02*
X106214707Y-103141742D01*
X106214707Y-103141742D02*
X106214707Y-103284599D01*
X106214707Y-103284599D02*
X106167088Y-103379837D01*
X106167088Y-103379837D02*
X106119469Y-103427456D01*
X106119469Y-103427456D02*
X106024231Y-103475075D01*
X106024231Y-103475075D02*
X105643279Y-103475075D01*
X106548041Y-102951266D02*
X107167088Y-102951266D01*
X107167088Y-102951266D02*
X106833755Y-103332218D01*
X106833755Y-103332218D02*
X106976612Y-103332218D01*
X106976612Y-103332218D02*
X107071850Y-103379837D01*
X107071850Y-103379837D02*
X107119469Y-103427456D01*
X107119469Y-103427456D02*
X107167088Y-103522694D01*
X107167088Y-103522694D02*
X107167088Y-103760789D01*
X107167088Y-103760789D02*
X107119469Y-103856027D01*
X107119469Y-103856027D02*
X107071850Y-103903647D01*
X107071850Y-103903647D02*
X106976612Y-103951266D01*
X106976612Y-103951266D02*
X106690898Y-103951266D01*
X106690898Y-103951266D02*
X106595660Y-103903647D01*
X106595660Y-103903647D02*
X106548041Y-103856027D01*
X79646666Y-90454819D02*
X79646666Y-91169104D01*
X79646666Y-91169104D02*
X79599047Y-91311961D01*
X79599047Y-91311961D02*
X79503809Y-91407200D01*
X79503809Y-91407200D02*
X79360952Y-91454819D01*
X79360952Y-91454819D02*
X79265714Y-91454819D01*
X80551428Y-90788152D02*
X80551428Y-91454819D01*
X80313333Y-90407200D02*
X80075238Y-91121485D01*
X80075238Y-91121485D02*
X80694285Y-91121485D01*
X117343279Y-100751266D02*
X117343279Y-99751266D01*
X117343279Y-99751266D02*
X117581374Y-99751266D01*
X117581374Y-99751266D02*
X117724231Y-99798885D01*
X117724231Y-99798885D02*
X117819469Y-99894123D01*
X117819469Y-99894123D02*
X117867088Y-99989361D01*
X117867088Y-99989361D02*
X117914707Y-100179837D01*
X117914707Y-100179837D02*
X117914707Y-100322694D01*
X117914707Y-100322694D02*
X117867088Y-100513170D01*
X117867088Y-100513170D02*
X117819469Y-100608408D01*
X117819469Y-100608408D02*
X117724231Y-100703647D01*
X117724231Y-100703647D02*
X117581374Y-100751266D01*
X117581374Y-100751266D02*
X117343279Y-100751266D01*
X118867088Y-100751266D02*
X118295660Y-100751266D01*
X118581374Y-100751266D02*
X118581374Y-99751266D01*
X118581374Y-99751266D02*
X118486136Y-99894123D01*
X118486136Y-99894123D02*
X118390898Y-99989361D01*
X118390898Y-99989361D02*
X118295660Y-100036980D01*
X112419469Y-100551266D02*
X112419469Y-99551266D01*
X112990897Y-100551266D02*
X112562326Y-99979837D01*
X112990897Y-99551266D02*
X112419469Y-100122694D01*
X91375595Y-90774819D02*
X91375595Y-91584342D01*
X91375595Y-91584342D02*
X91423214Y-91679580D01*
X91423214Y-91679580D02*
X91470833Y-91727200D01*
X91470833Y-91727200D02*
X91566071Y-91774819D01*
X91566071Y-91774819D02*
X91756547Y-91774819D01*
X91756547Y-91774819D02*
X91851785Y-91727200D01*
X91851785Y-91727200D02*
X91899404Y-91679580D01*
X91899404Y-91679580D02*
X91947023Y-91584342D01*
X91947023Y-91584342D02*
X91947023Y-90774819D01*
X92947023Y-91774819D02*
X92375595Y-91774819D01*
X92661309Y-91774819D02*
X92661309Y-90774819D01*
X92661309Y-90774819D02*
X92566071Y-90917676D01*
X92566071Y-90917676D02*
X92470833Y-91012914D01*
X92470833Y-91012914D02*
X92375595Y-91060533D01*
X79646666Y-113455710D02*
X79646666Y-114169995D01*
X79646666Y-114169995D02*
X79599047Y-114312852D01*
X79599047Y-114312852D02*
X79503809Y-114408091D01*
X79503809Y-114408091D02*
X79360952Y-114455710D01*
X79360952Y-114455710D02*
X79265714Y-114455710D01*
X80599047Y-113455710D02*
X80122857Y-113455710D01*
X80122857Y-113455710D02*
X80075238Y-113931900D01*
X80075238Y-113931900D02*
X80122857Y-113884281D01*
X80122857Y-113884281D02*
X80218095Y-113836662D01*
X80218095Y-113836662D02*
X80456190Y-113836662D01*
X80456190Y-113836662D02*
X80551428Y-113884281D01*
X80551428Y-113884281D02*
X80599047Y-113931900D01*
X80599047Y-113931900D02*
X80646666Y-114027138D01*
X80646666Y-114027138D02*
X80646666Y-114265233D01*
X80646666Y-114265233D02*
X80599047Y-114360471D01*
X80599047Y-114360471D02*
X80551428Y-114408091D01*
X80551428Y-114408091D02*
X80456190Y-114455710D01*
X80456190Y-114455710D02*
X80218095Y-114455710D01*
X80218095Y-114455710D02*
X80122857Y-114408091D01*
X80122857Y-114408091D02*
X80075238Y-114360471D01*
X106513333Y-108654819D02*
X106180000Y-108178628D01*
X105941905Y-108654819D02*
X105941905Y-107654819D01*
X105941905Y-107654819D02*
X106322857Y-107654819D01*
X106322857Y-107654819D02*
X106418095Y-107702438D01*
X106418095Y-107702438D02*
X106465714Y-107750057D01*
X106465714Y-107750057D02*
X106513333Y-107845295D01*
X106513333Y-107845295D02*
X106513333Y-107988152D01*
X106513333Y-107988152D02*
X106465714Y-108083390D01*
X106465714Y-108083390D02*
X106418095Y-108131009D01*
X106418095Y-108131009D02*
X106322857Y-108178628D01*
X106322857Y-108178628D02*
X105941905Y-108178628D01*
X106894286Y-107750057D02*
X106941905Y-107702438D01*
X106941905Y-107702438D02*
X107037143Y-107654819D01*
X107037143Y-107654819D02*
X107275238Y-107654819D01*
X107275238Y-107654819D02*
X107370476Y-107702438D01*
X107370476Y-107702438D02*
X107418095Y-107750057D01*
X107418095Y-107750057D02*
X107465714Y-107845295D01*
X107465714Y-107845295D02*
X107465714Y-107940533D01*
X107465714Y-107940533D02*
X107418095Y-108083390D01*
X107418095Y-108083390D02*
X106846667Y-108654819D01*
X106846667Y-108654819D02*
X107465714Y-108654819D01*
D12*
%TO.C,J6*%
X123610000Y-71480000D02*
X124220000Y-71040000D01*
X124220000Y-71920000D01*
X123610000Y-71480000D01*
G36*
X124220000Y-71920000D02*
G01*
X123610000Y-71480000D01*
X124220000Y-71040000D01*
X124220000Y-71920000D01*
G37*
X123610000Y-74140000D02*
X113570000Y-74140000D01*
X123610000Y-71780000D02*
X123610000Y-74140000D01*
X123610000Y-53580000D02*
X123610000Y-71180000D01*
X122990000Y-74140000D02*
X122990000Y-53580000D01*
X121490000Y-74140000D02*
X121490000Y-53580000D01*
X116590000Y-74140000D02*
X116590000Y-53580000D01*
X113570000Y-74140000D02*
X113570000Y-53580000D01*
X113570000Y-53580000D02*
X123610000Y-53580000D01*
%TO.C,R15*%
X96631374Y-147570000D02*
X96631374Y-147240000D01*
X96631374Y-144830000D02*
X96631374Y-145160000D01*
X90091374Y-147570000D02*
X96631374Y-147570000D01*
X90091374Y-147240000D02*
X90091374Y-147570000D01*
X90091374Y-145160000D02*
X90091374Y-144830000D01*
X90091374Y-144830000D02*
X96631374Y-144830000D01*
%TO.C,C2*%
X105971374Y-119350000D02*
X100731374Y-119350000D01*
X105971374Y-119013000D02*
X105971374Y-119350000D01*
X105971374Y-116610000D02*
X105971374Y-116947000D01*
X100731374Y-119350000D02*
X100731374Y-119013000D01*
X100731374Y-116947000D02*
X100731374Y-116610000D01*
X100731374Y-116610000D02*
X105971374Y-116610000D01*
%TO.C,J1*%
X123680000Y-87710000D02*
X124290000Y-87270000D01*
X124290000Y-88150000D01*
X123680000Y-87710000D01*
G36*
X124290000Y-88150000D02*
G01*
X123680000Y-87710000D01*
X124290000Y-87270000D01*
X124290000Y-88150000D01*
G37*
X123680000Y-90370000D02*
X113640000Y-90370000D01*
X123680000Y-88010000D02*
X123680000Y-90370000D01*
X123680000Y-79970000D02*
X123680000Y-87410000D01*
X123060000Y-90370000D02*
X123060000Y-79970000D01*
X121560000Y-90370000D02*
X121560000Y-79970000D01*
X116660000Y-90370000D02*
X116660000Y-79970000D01*
X113640000Y-90370000D02*
X113640000Y-79970000D01*
X113640000Y-79970000D02*
X123680000Y-79970000D01*
%TO.C,R12*%
X108381374Y-135660000D02*
X108381374Y-135330000D01*
X108381374Y-132920000D02*
X108381374Y-133250000D01*
X101841374Y-135660000D02*
X108381374Y-135660000D01*
X101841374Y-135330000D02*
X101841374Y-135660000D01*
X101841374Y-133250000D02*
X101841374Y-132920000D01*
X101841374Y-132920000D02*
X108381374Y-132920000D01*
%TO.C,C1*%
X103927500Y-94930000D02*
X98687500Y-94930000D01*
X103927500Y-94593000D02*
X103927500Y-94930000D01*
X103927500Y-92190000D02*
X103927500Y-92527000D01*
X98687500Y-94930000D02*
X98687500Y-94593000D01*
X98687500Y-92527000D02*
X98687500Y-92190000D01*
X98687500Y-92190000D02*
X103927500Y-92190000D01*
%TO.C,R18*%
X96841374Y-162270000D02*
X96841374Y-161940000D01*
X96841374Y-159530000D02*
X96841374Y-159860000D01*
X90301374Y-162270000D02*
X96841374Y-162270000D01*
X90301374Y-161940000D02*
X90301374Y-162270000D01*
X90301374Y-159860000D02*
X90301374Y-159530000D01*
X90301374Y-159530000D02*
X96841374Y-159530000D01*
%TO.C,R7*%
X98710000Y-77700000D02*
X92170000Y-77700000D01*
X98710000Y-77370000D02*
X98710000Y-77700000D01*
X98710000Y-75290000D02*
X98710000Y-74960000D01*
X98710000Y-74960000D02*
X92170000Y-74960000D01*
X92170000Y-77700000D02*
X92170000Y-77370000D01*
X92170000Y-74960000D02*
X92170000Y-75290000D01*
%TO.C,R22*%
X107431374Y-162370000D02*
X107431374Y-162040000D01*
X107431374Y-159630000D02*
X107431374Y-159960000D01*
X100891374Y-162370000D02*
X107431374Y-162370000D01*
X100891374Y-162040000D02*
X100891374Y-162370000D01*
X100891374Y-159960000D02*
X100891374Y-159630000D01*
X100891374Y-159630000D02*
X107431374Y-159630000D01*
%TO.C,J2*%
X123790000Y-163540000D02*
X124400000Y-163100000D01*
X124400000Y-163980000D01*
X123790000Y-163540000D01*
G36*
X124400000Y-163980000D02*
G01*
X123790000Y-163540000D01*
X124400000Y-163100000D01*
X124400000Y-163980000D01*
G37*
X123790000Y-166200000D02*
X113750000Y-166200000D01*
X123790000Y-163840000D02*
X123790000Y-166200000D01*
X123790000Y-110080000D02*
X123790000Y-163240000D01*
X123170000Y-166200000D02*
X123170000Y-110080000D01*
X121670000Y-166200000D02*
X121670000Y-110080000D01*
X116770000Y-166200000D02*
X116770000Y-110080000D01*
X113750000Y-166200000D02*
X113750000Y-110080000D01*
X113750000Y-110080000D02*
X123790000Y-110080000D01*
%TO.C,R24*%
X116241374Y-78336447D02*
X116241374Y-78006447D01*
X116241374Y-75596447D02*
X116241374Y-75926447D01*
X109701374Y-78336447D02*
X116241374Y-78336447D01*
X109701374Y-78006447D02*
X109701374Y-78336447D01*
X109701374Y-75926447D02*
X109701374Y-75596447D01*
X109701374Y-75596447D02*
X116241374Y-75596447D01*
%TO.C,D3*%
X123111374Y-78231963D02*
G75*
G02*
X119879937Y-78076447I-1560000J1235516D01*
G01*
X122592335Y-78076447D02*
G75*
G02*
X120510413Y-78076447I-1040961J1080000D01*
G01*
X120510413Y-75916447D02*
G75*
G02*
X122592335Y-75916447I1040961J-1080000D01*
G01*
X119879937Y-75916447D02*
G75*
G02*
X123111374Y-75760931I1671437J-1080000D01*
G01*
X123111374Y-78232447D02*
X123111374Y-78076447D01*
X123111374Y-75916447D02*
X123111374Y-75760447D01*
%TO.C,U3*%
X92961374Y-139750000D02*
G75*
G02*
X94961374Y-139750000I1000000J0D01*
G01*
X88821374Y-116710000D02*
X99101374Y-116710000D01*
X99101374Y-139810000D01*
X88821374Y-139810000D01*
X88821374Y-116710000D01*
X96611374Y-139750000D02*
X96611374Y-116770000D01*
X96611374Y-116770000D02*
X91311374Y-116770000D01*
X94961374Y-139750000D02*
X96611374Y-139750000D01*
X91311374Y-139750000D02*
X92961374Y-139750000D01*
X91311374Y-116770000D02*
X91311374Y-139750000D01*
%TO.C,D2*%
X123211374Y-94631963D02*
G75*
G02*
X119979937Y-94476447I-1560000J1235516D01*
G01*
X122692335Y-94476447D02*
G75*
G02*
X120610413Y-94476447I-1040961J1080000D01*
G01*
X120610413Y-92316447D02*
G75*
G02*
X122692335Y-92316447I1040961J-1080000D01*
G01*
X119979937Y-92316447D02*
G75*
G02*
X123211374Y-92160931I1671437J-1080000D01*
G01*
X123211374Y-94632447D02*
X123211374Y-94476447D01*
X123211374Y-92316447D02*
X123211374Y-92160447D01*
%TO.C,R5*%
X89350000Y-61370000D02*
X89350000Y-54830000D01*
X89350000Y-54830000D02*
X89020000Y-54830000D01*
X89020000Y-61370000D02*
X89350000Y-61370000D01*
X86940000Y-61370000D02*
X86610000Y-61370000D01*
X86610000Y-61370000D02*
X86610000Y-54830000D01*
X86610000Y-54830000D02*
X86940000Y-54830000D01*
%TO.C,R6*%
X89350000Y-71770000D02*
X89020000Y-71770000D01*
X89350000Y-65230000D02*
X89350000Y-71770000D01*
X89020000Y-65230000D02*
X89350000Y-65230000D01*
X86940000Y-65230000D02*
X86610000Y-65230000D01*
X86610000Y-71770000D02*
X86940000Y-71770000D01*
X86610000Y-65230000D02*
X86610000Y-71770000D01*
%TO.C,R14*%
X108291374Y-126390000D02*
X108291374Y-126060000D01*
X108291374Y-123650000D02*
X108291374Y-123980000D01*
X101751374Y-126390000D02*
X108291374Y-126390000D01*
X101751374Y-126060000D02*
X101751374Y-126390000D01*
X101751374Y-123980000D02*
X101751374Y-123650000D01*
X101751374Y-123650000D02*
X108291374Y-123650000D01*
%TO.C,R10*%
X110250000Y-70570000D02*
X110250000Y-70240000D01*
X110250000Y-67830000D02*
X110250000Y-68160000D01*
X103710000Y-70570000D02*
X110250000Y-70570000D01*
X103710000Y-70240000D02*
X103710000Y-70570000D01*
X103710000Y-68160000D02*
X103710000Y-67830000D01*
X103710000Y-67830000D02*
X110250000Y-67830000D01*
%TO.C,R1*%
X106877500Y-98930000D02*
X100337500Y-98930000D01*
X106877500Y-98600000D02*
X106877500Y-98930000D01*
X106877500Y-96520000D02*
X106877500Y-96190000D01*
X106877500Y-96190000D02*
X100337500Y-96190000D01*
X100337500Y-98930000D02*
X100337500Y-98600000D01*
X100337500Y-96190000D02*
X100337500Y-96520000D01*
%TO.C,J3*%
X74860000Y-56360000D02*
X74250000Y-56800000D01*
X74250000Y-55920000D01*
X74860000Y-56360000D01*
G36*
X74860000Y-56360000D02*
G01*
X74250000Y-56800000D01*
X74250000Y-55920000D01*
X74860000Y-56360000D01*
G37*
X84900000Y-89500000D02*
X74860000Y-89500000D01*
X84900000Y-53700000D02*
X84900000Y-89500000D01*
X81880000Y-53700000D02*
X81880000Y-89500000D01*
X76980000Y-53700000D02*
X76980000Y-89500000D01*
X75480000Y-53700000D02*
X75480000Y-89500000D01*
X74860000Y-89500000D02*
X74860000Y-56660000D01*
X74860000Y-56060000D02*
X74860000Y-53700000D01*
X74860000Y-53700000D02*
X84900000Y-53700000D01*
%TO.C,R8*%
X110310000Y-62290000D02*
X110310000Y-61960000D01*
X110310000Y-59550000D02*
X110310000Y-59880000D01*
X103770000Y-62290000D02*
X110310000Y-62290000D01*
X103770000Y-61960000D02*
X103770000Y-62290000D01*
X103770000Y-59880000D02*
X103770000Y-59550000D01*
X103770000Y-59550000D02*
X110310000Y-59550000D01*
%TO.C,R21*%
X107431374Y-157370000D02*
X107431374Y-157040000D01*
X107431374Y-154630000D02*
X107431374Y-154960000D01*
X100891374Y-157370000D02*
X107431374Y-157370000D01*
X100891374Y-157040000D02*
X100891374Y-157370000D01*
X100891374Y-154960000D02*
X100891374Y-154630000D01*
X100891374Y-154630000D02*
X107431374Y-154630000D01*
%TO.C,R9*%
X110310000Y-65710000D02*
X110310000Y-65380000D01*
X110310000Y-62970000D02*
X110310000Y-63300000D01*
X103770000Y-65710000D02*
X110310000Y-65710000D01*
X103770000Y-65380000D02*
X103770000Y-65710000D01*
X103770000Y-63300000D02*
X103770000Y-62970000D01*
X103770000Y-62970000D02*
X110310000Y-62970000D01*
%TO.C,R19*%
X107231374Y-147570000D02*
X107231374Y-147240000D01*
X107231374Y-144830000D02*
X107231374Y-145160000D01*
X100691374Y-147570000D02*
X107231374Y-147570000D01*
X100691374Y-147240000D02*
X100691374Y-147570000D01*
X100691374Y-145160000D02*
X100691374Y-144830000D01*
X100691374Y-144830000D02*
X107231374Y-144830000D01*
%TO.C,R20*%
X107521374Y-152270000D02*
X107521374Y-151940000D01*
X107521374Y-149530000D02*
X107521374Y-149860000D01*
X100981374Y-152270000D02*
X107521374Y-152270000D01*
X100981374Y-151940000D02*
X100981374Y-152270000D01*
X100981374Y-149860000D02*
X100981374Y-149530000D01*
X100981374Y-149530000D02*
X107521374Y-149530000D01*
%TO.C,C5*%
X109701374Y-85136447D02*
G75*
G02*
X104461374Y-85136447I-2620000J0D01*
G01*
X104461374Y-85136447D02*
G75*
G02*
X109701374Y-85136447I2620000J0D01*
G01*
%TO.C,U2*%
X96670000Y-53530000D02*
G75*
G02*
X94670000Y-53530000I-1000000J0D01*
G01*
X90530000Y-53470000D02*
X100810000Y-53470000D01*
X100810000Y-74030000D01*
X90530000Y-74030000D01*
X90530000Y-53470000D01*
X98320000Y-73970000D02*
X98320000Y-53530000D01*
X98320000Y-53530000D02*
X96670000Y-53530000D01*
X94670000Y-53530000D02*
X93020000Y-53530000D01*
X93020000Y-73970000D02*
X98320000Y-73970000D01*
X93020000Y-53530000D02*
X93020000Y-73970000D01*
%TO.C,R16*%
X96831374Y-152370000D02*
X96831374Y-152040000D01*
X96831374Y-149630000D02*
X96831374Y-149960000D01*
X90291374Y-152370000D02*
X96831374Y-152370000D01*
X90291374Y-152040000D02*
X90291374Y-152370000D01*
X90291374Y-149960000D02*
X90291374Y-149630000D01*
X90291374Y-149630000D02*
X96831374Y-149630000D01*
%TO.C,C4*%
X90782500Y-88337500D02*
X90445500Y-88337500D01*
X90782500Y-83097500D02*
X90782500Y-88337500D01*
X90445500Y-83097500D02*
X90782500Y-83097500D01*
X88379500Y-88337500D02*
X88042500Y-88337500D01*
X88042500Y-88337500D02*
X88042500Y-83097500D01*
X88042500Y-83097500D02*
X88379500Y-83097500D01*
%TO.C,R4*%
X101667500Y-111520000D02*
X101667500Y-104980000D01*
X101667500Y-104980000D02*
X101337500Y-104980000D01*
X101337500Y-111520000D02*
X101667500Y-111520000D01*
X99257500Y-111520000D02*
X98927500Y-111520000D01*
X98927500Y-111520000D02*
X98927500Y-104980000D01*
X98927500Y-104980000D02*
X99257500Y-104980000D01*
%TO.C,R17*%
X96931374Y-157370000D02*
X96931374Y-157040000D01*
X96931374Y-154630000D02*
X96931374Y-154960000D01*
X90391374Y-157370000D02*
X96931374Y-157370000D01*
X90391374Y-157040000D02*
X90391374Y-157370000D01*
X90391374Y-154960000D02*
X90391374Y-154630000D01*
X90391374Y-154630000D02*
X96931374Y-154630000D01*
%TO.C,R11*%
X108021374Y-139850000D02*
X108021374Y-139520000D01*
X108021374Y-137110000D02*
X108021374Y-137440000D01*
X101481374Y-139850000D02*
X108021374Y-139850000D01*
X101481374Y-139520000D02*
X101481374Y-139850000D01*
X101481374Y-137440000D02*
X101481374Y-137110000D01*
X101481374Y-137110000D02*
X108021374Y-137110000D01*
%TO.C,C3*%
X107600000Y-56070000D02*
X102360000Y-56070000D01*
X107600000Y-55733000D02*
X107600000Y-56070000D01*
X107600000Y-53330000D02*
X107600000Y-53667000D01*
X102360000Y-56070000D02*
X102360000Y-55733000D01*
X102360000Y-53667000D02*
X102360000Y-53330000D01*
X102360000Y-53330000D02*
X107600000Y-53330000D01*
%TO.C,U4*%
X103762500Y-83717500D02*
X103762500Y-81267500D01*
X103762500Y-81267500D02*
X101432500Y-81267500D01*
X103432500Y-89447500D02*
X91492500Y-89447500D01*
X103432500Y-81597500D02*
X103432500Y-89447500D01*
X91492500Y-89447500D02*
X91492500Y-81597500D01*
X91492500Y-81597500D02*
X103432500Y-81597500D01*
%TO.C,R13*%
X108281374Y-130880000D02*
X108281374Y-130550000D01*
X108281374Y-128140000D02*
X108281374Y-128470000D01*
X101741374Y-130880000D02*
X108281374Y-130880000D01*
X101741374Y-130550000D02*
X101741374Y-130880000D01*
X101741374Y-128470000D02*
X101741374Y-128140000D01*
X101741374Y-128140000D02*
X108281374Y-128140000D01*
%TO.C,R23*%
X117151374Y-94766447D02*
X117151374Y-94436447D01*
X117151374Y-92026447D02*
X117151374Y-92356447D01*
X110611374Y-94766447D02*
X117151374Y-94766447D01*
X110611374Y-94436447D02*
X110611374Y-94766447D01*
X110611374Y-92356447D02*
X110611374Y-92026447D01*
X110611374Y-92026447D02*
X117151374Y-92026447D01*
%TO.C,R3*%
X106877500Y-102530000D02*
X106877500Y-102200000D01*
X106877500Y-99790000D02*
X106877500Y-100120000D01*
X100337500Y-102530000D02*
X106877500Y-102530000D01*
X100337500Y-102200000D02*
X100337500Y-102530000D01*
X100337500Y-100120000D02*
X100337500Y-99790000D01*
X100337500Y-99790000D02*
X106877500Y-99790000D01*
%TO.C,J4*%
X74887500Y-94880000D02*
X74277500Y-95320000D01*
X74277500Y-94440000D01*
X74887500Y-94880000D01*
G36*
X74887500Y-94880000D02*
G01*
X74277500Y-95320000D01*
X74277500Y-94440000D01*
X74887500Y-94880000D01*
G37*
X84927500Y-112780000D02*
X74887500Y-112780000D01*
X84927500Y-92220000D02*
X84927500Y-112780000D01*
X81907500Y-92220000D02*
X81907500Y-112780000D01*
X77007500Y-92220000D02*
X77007500Y-112780000D01*
X75507500Y-92220000D02*
X75507500Y-112780000D01*
X74887500Y-112780000D02*
X74887500Y-95180000D01*
X74887500Y-94580000D02*
X74887500Y-92220000D01*
X74887500Y-92220000D02*
X84927500Y-92220000D01*
%TO.C,D1*%
X114961374Y-96126447D02*
X120401374Y-96126447D01*
X120401374Y-99066447D01*
X114961374Y-99066447D01*
X114961374Y-96126447D01*
X121421374Y-97596447D02*
X120401374Y-97596447D01*
X115981374Y-96126447D02*
X115981374Y-99066447D01*
X115861374Y-96126447D02*
X115861374Y-99066447D01*
X115741374Y-96126447D02*
X115741374Y-99066447D01*
X113941374Y-97596447D02*
X114961374Y-97596447D01*
%TO.C,U1*%
X93137500Y-92320000D02*
G75*
G02*
X91137500Y-92320000I-1000000J0D01*
G01*
X86997500Y-92260000D02*
X97277500Y-92260000D01*
X97277500Y-112820000D01*
X86997500Y-112820000D01*
X86997500Y-92260000D01*
X94787500Y-112760000D02*
X94787500Y-92320000D01*
X94787500Y-92320000D02*
X93137500Y-92320000D01*
X91137500Y-92320000D02*
X89487500Y-92320000D01*
X89487500Y-112760000D02*
X94787500Y-112760000D01*
X89487500Y-92320000D02*
X89487500Y-112760000D01*
%TO.C,J5*%
X74960000Y-117820000D02*
X74350000Y-118260000D01*
X74350000Y-117380000D01*
X74960000Y-117820000D01*
G36*
X74960000Y-117820000D02*
G01*
X74350000Y-118260000D01*
X74350000Y-117380000D01*
X74960000Y-117820000D01*
G37*
X85000000Y-166200000D02*
X74960000Y-166200000D01*
X85000000Y-115160000D02*
X85000000Y-166200000D01*
X81980000Y-115160000D02*
X81980000Y-166200000D01*
X77080000Y-115160000D02*
X77080000Y-166200000D01*
X75580000Y-115160000D02*
X75580000Y-166200000D01*
X74960000Y-166200000D02*
X74960000Y-118120000D01*
X74960000Y-117520000D02*
X74960000Y-115160000D01*
X74960000Y-115160000D02*
X85000000Y-115160000D01*
%TO.C,R2*%
X104977500Y-111530000D02*
X104647500Y-111530000D01*
X104977500Y-104990000D02*
X104977500Y-111530000D01*
X104647500Y-104990000D02*
X104977500Y-104990000D01*
X102567500Y-104990000D02*
X102237500Y-104990000D01*
X102237500Y-111530000D02*
X102567500Y-111530000D01*
X102237500Y-104990000D02*
X102237500Y-111530000D01*
%TD*%
M02*
