%TF.GenerationSoftware,KiCad,Pcbnew,10.0.6*%
%TF.CreationDate,2026-10-04T21:14:44+02:00*%
%TF.ProjectId,Interface_IAI,496e7465-7266-4616-9365-5f4941492e6b,rev?*%
%TF.SameCoordinates,Original*%
%TF.FileFunction,Drillmap*%
%TF.FilePolarity,Positive*%
%FSLAX45Y45*%
G04 Gerber Fmt 4.5, Leading zero omitted, Abs format (unit mm)*
G04 Created by KiCad (PCBNEW 10.0.6) date 2026-10-04 21:14:44*
%MOMM*%
%LPD*%
G01*
G04 APERTURE LIST*
%ADD10C,0.050000*%
%ADD11C,0.200000*%
%ADD12C,0.100000*%
%ADD13C,0.110000*%
%ADD14C,0.130000*%
G04 APERTURE END LIST*
D10*
X5000000Y-5002416D02*
X14880000Y-5002416D01*
X14880000Y-17001416D01*
X5000000Y-17001416D01*
X5000000Y-5002416D01*
D11*
D12*
X8758000Y-5389000D02*
X8838000Y-5469000D01*
X8838000Y-5389000D02*
X8758000Y-5469000D01*
X8758000Y-6151000D02*
X8838000Y-6231000D01*
X8838000Y-6151000D02*
X8758000Y-6231000D01*
X8758000Y-6429000D02*
X8838000Y-6509000D01*
X8838000Y-6429000D02*
X8758000Y-6509000D01*
X8758000Y-7191000D02*
X8838000Y-7271000D01*
X8838000Y-7191000D02*
X8758000Y-7271000D01*
X8792750Y-9325000D02*
X8872750Y-9405000D01*
X8872750Y-9325000D02*
X8792750Y-9405000D01*
X8792750Y-9579000D02*
X8872750Y-9659000D01*
X8872750Y-9579000D02*
X8792750Y-9659000D01*
X8792750Y-9833000D02*
X8872750Y-9913000D01*
X8872750Y-9833000D02*
X8792750Y-9913000D01*
X8792750Y-10087000D02*
X8872750Y-10167000D01*
X8872750Y-10087000D02*
X8792750Y-10167000D01*
X8792750Y-10341000D02*
X8872750Y-10421000D01*
X8872750Y-10341000D02*
X8792750Y-10421000D01*
X8792750Y-10595000D02*
X8872750Y-10675000D01*
X8872750Y-10595000D02*
X8792750Y-10675000D01*
X8792750Y-10849000D02*
X8872750Y-10929000D01*
X8872750Y-10849000D02*
X8792750Y-10929000D01*
X8792750Y-11103000D02*
X8872750Y-11183000D01*
X8872750Y-11103000D02*
X8792750Y-11183000D01*
X8901250Y-8281750D02*
X8981250Y-8361750D01*
X8981250Y-8281750D02*
X8901250Y-8361750D01*
X8901250Y-8781750D02*
X8981250Y-8861750D01*
X8981250Y-8781750D02*
X8901250Y-8861750D01*
X8915137Y-14580000D02*
X8995137Y-14660000D01*
X8995137Y-14580000D02*
X8915137Y-14660000D01*
X8935137Y-15060000D02*
X9015137Y-15140000D01*
X9015137Y-15060000D02*
X8935137Y-15140000D01*
X8936137Y-16050000D02*
X9016137Y-16130000D01*
X9016137Y-16050000D02*
X8936137Y-16130000D01*
X8945137Y-15560000D02*
X9025137Y-15640000D01*
X9025137Y-15560000D02*
X8945137Y-15640000D01*
X8975137Y-11770000D02*
X9055137Y-11850000D01*
X9055137Y-11770000D02*
X8975137Y-11850000D01*
X8975137Y-12024000D02*
X9055137Y-12104000D01*
X9055137Y-12024000D02*
X8975137Y-12104000D01*
X8975137Y-12278000D02*
X9055137Y-12358000D01*
X9055137Y-12278000D02*
X8975137Y-12358000D01*
X8975137Y-12532000D02*
X9055137Y-12612000D01*
X9055137Y-12532000D02*
X8975137Y-12612000D01*
X8975137Y-12786000D02*
X9055137Y-12866000D01*
X9055137Y-12786000D02*
X8975137Y-12866000D01*
X8975137Y-13040000D02*
X9055137Y-13120000D01*
X9055137Y-13040000D02*
X8975137Y-13120000D01*
X8975137Y-13294000D02*
X9055137Y-13374000D01*
X9055137Y-13294000D02*
X8975137Y-13374000D01*
X8975137Y-13548000D02*
X9055137Y-13628000D01*
X9055137Y-13548000D02*
X8975137Y-13628000D01*
X8975137Y-13802000D02*
X9055137Y-13882000D01*
X9055137Y-13802000D02*
X8975137Y-13882000D01*
X9123000Y-7593000D02*
X9203000Y-7673000D01*
X9203000Y-7593000D02*
X9123000Y-7673000D01*
X9146000Y-5446000D02*
X9226000Y-5526000D01*
X9226000Y-5446000D02*
X9146000Y-5526000D01*
X9146000Y-5700000D02*
X9226000Y-5780000D01*
X9226000Y-5700000D02*
X9146000Y-5780000D01*
X9146000Y-5954000D02*
X9226000Y-6034000D01*
X9226000Y-5954000D02*
X9146000Y-6034000D01*
X9146000Y-6208000D02*
X9226000Y-6288000D01*
X9226000Y-6208000D02*
X9146000Y-6288000D01*
X9146000Y-6462000D02*
X9226000Y-6542000D01*
X9226000Y-6462000D02*
X9146000Y-6542000D01*
X9146000Y-6716000D02*
X9226000Y-6796000D01*
X9226000Y-6716000D02*
X9146000Y-6796000D01*
X9146000Y-6970000D02*
X9226000Y-7050000D01*
X9226000Y-6970000D02*
X9146000Y-7050000D01*
X9146000Y-7224000D02*
X9226000Y-7304000D01*
X9226000Y-7224000D02*
X9146000Y-7304000D01*
X9554750Y-9325000D02*
X9634750Y-9405000D01*
X9634750Y-9325000D02*
X9554750Y-9405000D01*
X9554750Y-9579000D02*
X9634750Y-9659000D01*
X9634750Y-9579000D02*
X9554750Y-9659000D01*
X9554750Y-9833000D02*
X9634750Y-9913000D01*
X9634750Y-9833000D02*
X9554750Y-9913000D01*
X9554750Y-10087000D02*
X9634750Y-10167000D01*
X9634750Y-10087000D02*
X9554750Y-10167000D01*
X9554750Y-10341000D02*
X9634750Y-10421000D01*
X9634750Y-10341000D02*
X9554750Y-10421000D01*
X9554750Y-10595000D02*
X9634750Y-10675000D01*
X9634750Y-10595000D02*
X9554750Y-10675000D01*
X9554750Y-10849000D02*
X9634750Y-10929000D01*
X9634750Y-10849000D02*
X9554750Y-10929000D01*
X9554750Y-11103000D02*
X9634750Y-11183000D01*
X9634750Y-11103000D02*
X9554750Y-11183000D01*
X9677137Y-14580000D02*
X9757137Y-14660000D01*
X9757137Y-14580000D02*
X9677137Y-14660000D01*
X9697137Y-15060000D02*
X9777137Y-15140000D01*
X9777137Y-15060000D02*
X9697137Y-15140000D01*
X9698137Y-16050000D02*
X9778137Y-16130000D01*
X9778137Y-16050000D02*
X9698137Y-16130000D01*
X9707137Y-15560000D02*
X9787137Y-15640000D01*
X9787137Y-15560000D02*
X9707137Y-15640000D01*
X9737137Y-11770000D02*
X9817137Y-11850000D01*
X9817137Y-11770000D02*
X9737137Y-11850000D01*
X9737137Y-12024000D02*
X9817137Y-12104000D01*
X9817137Y-12024000D02*
X9737137Y-12104000D01*
X9737137Y-12278000D02*
X9817137Y-12358000D01*
X9817137Y-12278000D02*
X9737137Y-12358000D01*
X9737137Y-12532000D02*
X9817137Y-12612000D01*
X9817137Y-12532000D02*
X9737137Y-12612000D01*
X9737137Y-12786000D02*
X9817137Y-12866000D01*
X9817137Y-12786000D02*
X9737137Y-12866000D01*
X9737137Y-13040000D02*
X9817137Y-13120000D01*
X9817137Y-13040000D02*
X9737137Y-13120000D01*
X9737137Y-13294000D02*
X9817137Y-13374000D01*
X9817137Y-13294000D02*
X9737137Y-13374000D01*
X9737137Y-13548000D02*
X9817137Y-13628000D01*
X9817137Y-13548000D02*
X9737137Y-13628000D01*
X9737137Y-13802000D02*
X9817137Y-13882000D01*
X9817137Y-13802000D02*
X9737137Y-13882000D01*
X9840750Y-9316000D02*
X9920750Y-9396000D01*
X9920750Y-9316000D02*
X9840750Y-9396000D01*
X9885000Y-7593000D02*
X9965000Y-7673000D01*
X9965000Y-7593000D02*
X9885000Y-7673000D01*
X9908000Y-5446000D02*
X9988000Y-5526000D01*
X9988000Y-5446000D02*
X9908000Y-5526000D01*
X9908000Y-5700000D02*
X9988000Y-5780000D01*
X9988000Y-5700000D02*
X9908000Y-5780000D01*
X9908000Y-5954000D02*
X9988000Y-6034000D01*
X9988000Y-5954000D02*
X9908000Y-6034000D01*
X9908000Y-6208000D02*
X9988000Y-6288000D01*
X9988000Y-6208000D02*
X9908000Y-6288000D01*
X9908000Y-6462000D02*
X9988000Y-6542000D01*
X9988000Y-6462000D02*
X9908000Y-6542000D01*
X9908000Y-6716000D02*
X9988000Y-6796000D01*
X9988000Y-6716000D02*
X9908000Y-6796000D01*
X9908000Y-6970000D02*
X9988000Y-7050000D01*
X9988000Y-6970000D02*
X9908000Y-7050000D01*
X9908000Y-7224000D02*
X9988000Y-7304000D01*
X9988000Y-7224000D02*
X9908000Y-7304000D01*
X9939750Y-9716000D02*
X10019750Y-9796000D01*
X10019750Y-9716000D02*
X9939750Y-9796000D01*
X9939750Y-10076000D02*
X10019750Y-10156000D01*
X10019750Y-10076000D02*
X9939750Y-10156000D01*
X9975137Y-14580000D02*
X10055137Y-14660000D01*
X10055137Y-14580000D02*
X9975137Y-14660000D01*
X9989750Y-10404000D02*
X10069750Y-10484000D01*
X10069750Y-10404000D02*
X9989750Y-10484000D01*
X9989750Y-11166000D02*
X10069750Y-11246000D01*
X10069750Y-11166000D02*
X9989750Y-11246000D01*
X9995137Y-15560000D02*
X10075137Y-15640000D01*
X10075137Y-15560000D02*
X9995137Y-15640000D01*
X9995137Y-16060000D02*
X10075137Y-16140000D01*
X10075137Y-16060000D02*
X9995137Y-16140000D01*
X10004137Y-15050000D02*
X10084137Y-15130000D01*
X10084137Y-15050000D02*
X10004137Y-15130000D01*
X10045137Y-11758000D02*
X10125137Y-11838000D01*
X10125137Y-11758000D02*
X10045137Y-11838000D01*
X10054137Y-13808000D02*
X10134137Y-13888000D01*
X10134137Y-13808000D02*
X10054137Y-13888000D01*
X10080137Y-12911000D02*
X10160137Y-12991000D01*
X10160137Y-12911000D02*
X10080137Y-12991000D01*
X10081137Y-12462000D02*
X10161137Y-12542000D01*
X10161137Y-12462000D02*
X10081137Y-12542000D01*
X10090137Y-13389000D02*
X10170137Y-13469000D01*
X10170137Y-13389000D02*
X10090137Y-13469000D01*
X10208000Y-5430000D02*
X10288000Y-5510000D01*
X10288000Y-5430000D02*
X10208000Y-5510000D01*
X10277000Y-6880000D02*
X10357000Y-6960000D01*
X10357000Y-6880000D02*
X10277000Y-6960000D01*
X10283000Y-6052000D02*
X10363000Y-6132000D01*
X10363000Y-6052000D02*
X10283000Y-6132000D01*
X10283000Y-6394000D02*
X10363000Y-6474000D01*
X10363000Y-6394000D02*
X10283000Y-6474000D01*
X10320750Y-10405000D02*
X10400750Y-10485000D01*
X10400750Y-10405000D02*
X10320750Y-10485000D01*
X10320750Y-11167000D02*
X10400750Y-11247000D01*
X10400750Y-11167000D02*
X10320750Y-11247000D01*
X10340750Y-9316000D02*
X10420750Y-9396000D01*
X10420750Y-9316000D02*
X10340750Y-9396000D01*
X10545137Y-11758000D02*
X10625137Y-11838000D01*
X10625137Y-11758000D02*
X10545137Y-11838000D01*
X10668137Y-8373645D02*
X10748137Y-8453645D01*
X10748137Y-8373645D02*
X10668137Y-8453645D01*
X10668137Y-8573645D02*
X10748137Y-8653645D01*
X10748137Y-8573645D02*
X10668137Y-8653645D01*
X10701750Y-9716000D02*
X10781750Y-9796000D01*
X10781750Y-9716000D02*
X10701750Y-9796000D01*
X10701750Y-10076000D02*
X10781750Y-10156000D01*
X10781750Y-10076000D02*
X10701750Y-10156000D01*
X10708000Y-5430000D02*
X10788000Y-5510000D01*
X10788000Y-5430000D02*
X10708000Y-5510000D01*
X10737137Y-14580000D02*
X10817137Y-14660000D01*
X10817137Y-14580000D02*
X10737137Y-14660000D01*
X10757137Y-15560000D02*
X10837137Y-15640000D01*
X10837137Y-15560000D02*
X10757137Y-15640000D01*
X10757137Y-16060000D02*
X10837137Y-16140000D01*
X10837137Y-16060000D02*
X10757137Y-16140000D01*
X10766137Y-15050000D02*
X10846137Y-15130000D01*
X10846137Y-15050000D02*
X10766137Y-15130000D01*
X10816137Y-13808000D02*
X10896137Y-13888000D01*
X10896137Y-13808000D02*
X10816137Y-13888000D01*
X10842137Y-12911000D02*
X10922137Y-12991000D01*
X10922137Y-12911000D02*
X10842137Y-12991000D01*
X10843137Y-12462000D02*
X10923137Y-12542000D01*
X10923137Y-12462000D02*
X10843137Y-12542000D01*
X10852137Y-13389000D02*
X10932137Y-13469000D01*
X10932137Y-13389000D02*
X10852137Y-13469000D01*
X10876137Y-7656645D02*
X10956137Y-7736645D01*
X10956137Y-7656645D02*
X10876137Y-7736645D01*
X10967137Y-9299645D02*
X11047137Y-9379645D01*
X11047137Y-9299645D02*
X10967137Y-9379645D01*
X11039000Y-6880000D02*
X11119000Y-6960000D01*
X11119000Y-6880000D02*
X11039000Y-6960000D01*
X11045000Y-6052000D02*
X11125000Y-6132000D01*
X11125000Y-6052000D02*
X11045000Y-6132000D01*
X11045000Y-6394000D02*
X11125000Y-6474000D01*
X11125000Y-6394000D02*
X11045000Y-6474000D01*
X11638137Y-7656645D02*
X11718137Y-7736645D01*
X11718137Y-7656645D02*
X11638137Y-7736645D01*
X11729137Y-9299645D02*
X11809137Y-9379645D01*
X11809137Y-9299645D02*
X11729137Y-9379645D01*
X12073137Y-7699645D02*
G75*
G02*
X11983137Y-7699645I-45000J0D01*
G01*
X11983137Y-7699645D02*
G75*
G02*
X12073137Y-7699645I45000J0D01*
G01*
X12083137Y-9339645D02*
G75*
G02*
X11993137Y-9339645I-45000J0D01*
G01*
X11993137Y-9339645D02*
G75*
G02*
X12083137Y-9339645I45000J0D01*
G01*
X12327137Y-7699645D02*
G75*
G02*
X12237137Y-7699645I-45000J0D01*
G01*
X12237137Y-7699645D02*
G75*
G02*
X12327137Y-7699645I45000J0D01*
G01*
X12337137Y-9339645D02*
G75*
G02*
X12247137Y-9339645I-45000J0D01*
G01*
X12247137Y-9339645D02*
G75*
G02*
X12337137Y-9339645I45000J0D01*
G01*
X9493250Y-8321750D02*
X9493250Y-8421750D01*
X9443250Y-8371750D02*
X9543250Y-8371750D01*
X9747250Y-8321750D02*
X9747250Y-8421750D01*
X9697250Y-8371750D02*
X9797250Y-8371750D01*
X10001250Y-8321750D02*
X10001250Y-8421750D01*
X9951250Y-8371750D02*
X10051250Y-8371750D01*
D13*
X11299029Y-9798536D02*
X11299029Y-9720754D01*
X11221246Y-9720754D01*
X11221246Y-9798536D01*
X11299029Y-9798536D01*
X12315029Y-9798536D02*
X12315029Y-9720754D01*
X12237246Y-9720754D01*
X12237246Y-9798536D01*
X12315029Y-9798536D01*
D14*
X7958000Y-5701000D02*
X8023000Y-5636000D01*
X7958000Y-5571000D01*
X7893000Y-5636000D01*
X7958000Y-5701000D01*
X7958000Y-6209000D02*
X8023000Y-6144000D01*
X7958000Y-6079000D01*
X7893000Y-6144000D01*
X7958000Y-6209000D01*
X7958000Y-6717000D02*
X8023000Y-6652000D01*
X7958000Y-6587000D01*
X7893000Y-6652000D01*
X7958000Y-6717000D01*
X7958000Y-7225000D02*
X8023000Y-7160000D01*
X7958000Y-7095000D01*
X7893000Y-7160000D01*
X7958000Y-7225000D01*
X7958000Y-7733000D02*
X8023000Y-7668000D01*
X7958000Y-7603000D01*
X7893000Y-7668000D01*
X7958000Y-7733000D01*
X7958000Y-8241000D02*
X8023000Y-8176000D01*
X7958000Y-8111000D01*
X7893000Y-8176000D01*
X7958000Y-8241000D01*
X7958000Y-8749000D02*
X8023000Y-8684000D01*
X7958000Y-8619000D01*
X7893000Y-8684000D01*
X7958000Y-8749000D01*
X7960750Y-9553000D02*
X8025750Y-9488000D01*
X7960750Y-9423000D01*
X7895750Y-9488000D01*
X7960750Y-9553000D01*
X7960750Y-10061000D02*
X8025750Y-9996000D01*
X7960750Y-9931000D01*
X7895750Y-9996000D01*
X7960750Y-10061000D01*
X7960750Y-10569000D02*
X8025750Y-10504000D01*
X7960750Y-10439000D01*
X7895750Y-10504000D01*
X7960750Y-10569000D01*
X7960750Y-11077000D02*
X8025750Y-11012000D01*
X7960750Y-10947000D01*
X7895750Y-11012000D01*
X7960750Y-11077000D01*
X7968000Y-11847000D02*
X8033000Y-11782000D01*
X7968000Y-11717000D01*
X7903000Y-11782000D01*
X7968000Y-11847000D01*
X7968000Y-12355000D02*
X8033000Y-12290000D01*
X7968000Y-12225000D01*
X7903000Y-12290000D01*
X7968000Y-12355000D01*
X7968000Y-12863000D02*
X8033000Y-12798000D01*
X7968000Y-12733000D01*
X7903000Y-12798000D01*
X7968000Y-12863000D01*
X7968000Y-13371000D02*
X8033000Y-13306000D01*
X7968000Y-13241000D01*
X7903000Y-13306000D01*
X7968000Y-13371000D01*
X7968000Y-13879000D02*
X8033000Y-13814000D01*
X7968000Y-13749000D01*
X7903000Y-13814000D01*
X7968000Y-13879000D01*
X7968000Y-14387000D02*
X8033000Y-14322000D01*
X7968000Y-14257000D01*
X7903000Y-14322000D01*
X7968000Y-14387000D01*
X7968000Y-14895000D02*
X8033000Y-14830000D01*
X7968000Y-14765000D01*
X7903000Y-14830000D01*
X7968000Y-14895000D01*
X7968000Y-15403000D02*
X8033000Y-15338000D01*
X7968000Y-15273000D01*
X7903000Y-15338000D01*
X7968000Y-15403000D01*
X7968000Y-15911000D02*
X8033000Y-15846000D01*
X7968000Y-15781000D01*
X7903000Y-15846000D01*
X7968000Y-15911000D01*
X7968000Y-16419000D02*
X8033000Y-16354000D01*
X7968000Y-16289000D01*
X7903000Y-16354000D01*
X7968000Y-16419000D01*
X11889000Y-5689000D02*
X11954000Y-5624000D01*
X11889000Y-5559000D01*
X11824000Y-5624000D01*
X11889000Y-5689000D01*
X11889000Y-6197000D02*
X11954000Y-6132000D01*
X11889000Y-6067000D01*
X11824000Y-6132000D01*
X11889000Y-6197000D01*
X11889000Y-6705000D02*
X11954000Y-6640000D01*
X11889000Y-6575000D01*
X11824000Y-6640000D01*
X11889000Y-6705000D01*
X11889000Y-7213000D02*
X11954000Y-7148000D01*
X11889000Y-7083000D01*
X11824000Y-7148000D01*
X11889000Y-7213000D01*
X11896000Y-8328000D02*
X11961000Y-8263000D01*
X11896000Y-8198000D01*
X11831000Y-8263000D01*
X11896000Y-8328000D01*
X11896000Y-8836000D02*
X11961000Y-8771000D01*
X11896000Y-8706000D01*
X11831000Y-8771000D01*
X11896000Y-8836000D01*
X11907000Y-11339000D02*
X11972000Y-11274000D01*
X11907000Y-11209000D01*
X11842000Y-11274000D01*
X11907000Y-11339000D01*
X11907000Y-11847000D02*
X11972000Y-11782000D01*
X11907000Y-11717000D01*
X11842000Y-11782000D01*
X11907000Y-11847000D01*
X11907000Y-12355000D02*
X11972000Y-12290000D01*
X11907000Y-12225000D01*
X11842000Y-12290000D01*
X11907000Y-12355000D01*
X11907000Y-12863000D02*
X11972000Y-12798000D01*
X11907000Y-12733000D01*
X11842000Y-12798000D01*
X11907000Y-12863000D01*
X11907000Y-13371000D02*
X11972000Y-13306000D01*
X11907000Y-13241000D01*
X11842000Y-13306000D01*
X11907000Y-13371000D01*
X11907000Y-13879000D02*
X11972000Y-13814000D01*
X11907000Y-13749000D01*
X11842000Y-13814000D01*
X11907000Y-13879000D01*
X11907000Y-14387000D02*
X11972000Y-14322000D01*
X11907000Y-14257000D01*
X11842000Y-14322000D01*
X11907000Y-14387000D01*
X11907000Y-14895000D02*
X11972000Y-14830000D01*
X11907000Y-14765000D01*
X11842000Y-14830000D01*
X11907000Y-14895000D01*
X11907000Y-15403000D02*
X11972000Y-15338000D01*
X11907000Y-15273000D01*
X11842000Y-15338000D01*
X11907000Y-15403000D01*
X11907000Y-15911000D02*
X11972000Y-15846000D01*
X11907000Y-15781000D01*
X11842000Y-15846000D01*
X11907000Y-15911000D01*
X11907000Y-16419000D02*
X11972000Y-16354000D01*
X11907000Y-16289000D01*
X11842000Y-16354000D01*
X11907000Y-16419000D01*
D11*
X5258277Y-17315400D02*
X5258277Y-17115400D01*
X5258277Y-17115400D02*
X5305896Y-17115400D01*
X5305896Y-17115400D02*
X5334467Y-17124923D01*
X5334467Y-17124923D02*
X5353515Y-17143971D01*
X5353515Y-17143971D02*
X5363039Y-17163019D01*
X5363039Y-17163019D02*
X5372563Y-17201114D01*
X5372563Y-17201114D02*
X5372563Y-17229685D01*
X5372563Y-17229685D02*
X5363039Y-17267780D01*
X5363039Y-17267780D02*
X5353515Y-17286828D01*
X5353515Y-17286828D02*
X5334467Y-17305876D01*
X5334467Y-17305876D02*
X5305896Y-17315400D01*
X5305896Y-17315400D02*
X5258277Y-17315400D01*
X5458277Y-17315400D02*
X5458277Y-17182066D01*
X5458277Y-17220161D02*
X5467801Y-17201114D01*
X5467801Y-17201114D02*
X5477324Y-17191590D01*
X5477324Y-17191590D02*
X5496372Y-17182066D01*
X5496372Y-17182066D02*
X5515420Y-17182066D01*
X5582086Y-17315400D02*
X5582086Y-17182066D01*
X5582086Y-17115400D02*
X5572563Y-17124923D01*
X5572563Y-17124923D02*
X5582086Y-17134447D01*
X5582086Y-17134447D02*
X5591610Y-17124923D01*
X5591610Y-17124923D02*
X5582086Y-17115400D01*
X5582086Y-17115400D02*
X5582086Y-17134447D01*
X5705896Y-17315400D02*
X5686848Y-17305876D01*
X5686848Y-17305876D02*
X5677324Y-17286828D01*
X5677324Y-17286828D02*
X5677324Y-17115400D01*
X5810658Y-17315400D02*
X5791610Y-17305876D01*
X5791610Y-17305876D02*
X5782086Y-17286828D01*
X5782086Y-17286828D02*
X5782086Y-17115400D01*
X6039229Y-17315400D02*
X6039229Y-17115400D01*
X6039229Y-17115400D02*
X6105896Y-17258257D01*
X6105896Y-17258257D02*
X6172562Y-17115400D01*
X6172562Y-17115400D02*
X6172562Y-17315400D01*
X6353515Y-17315400D02*
X6353515Y-17210638D01*
X6353515Y-17210638D02*
X6343991Y-17191590D01*
X6343991Y-17191590D02*
X6324943Y-17182066D01*
X6324943Y-17182066D02*
X6286848Y-17182066D01*
X6286848Y-17182066D02*
X6267801Y-17191590D01*
X6353515Y-17305876D02*
X6334467Y-17315400D01*
X6334467Y-17315400D02*
X6286848Y-17315400D01*
X6286848Y-17315400D02*
X6267801Y-17305876D01*
X6267801Y-17305876D02*
X6258277Y-17286828D01*
X6258277Y-17286828D02*
X6258277Y-17267780D01*
X6258277Y-17267780D02*
X6267801Y-17248733D01*
X6267801Y-17248733D02*
X6286848Y-17239209D01*
X6286848Y-17239209D02*
X6334467Y-17239209D01*
X6334467Y-17239209D02*
X6353515Y-17229685D01*
X6448753Y-17182066D02*
X6448753Y-17382066D01*
X6448753Y-17191590D02*
X6467801Y-17182066D01*
X6467801Y-17182066D02*
X6505896Y-17182066D01*
X6505896Y-17182066D02*
X6524943Y-17191590D01*
X6524943Y-17191590D02*
X6534467Y-17201114D01*
X6534467Y-17201114D02*
X6543991Y-17220161D01*
X6543991Y-17220161D02*
X6543991Y-17277304D01*
X6543991Y-17277304D02*
X6534467Y-17296352D01*
X6534467Y-17296352D02*
X6524943Y-17305876D01*
X6524943Y-17305876D02*
X6505896Y-17315400D01*
X6505896Y-17315400D02*
X6467801Y-17315400D01*
X6467801Y-17315400D02*
X6448753Y-17305876D01*
X6629705Y-17296352D02*
X6639229Y-17305876D01*
X6639229Y-17305876D02*
X6629705Y-17315400D01*
X6629705Y-17315400D02*
X6620182Y-17305876D01*
X6620182Y-17305876D02*
X6629705Y-17296352D01*
X6629705Y-17296352D02*
X6629705Y-17315400D01*
X6629705Y-17191590D02*
X6639229Y-17201114D01*
X6639229Y-17201114D02*
X6629705Y-17210638D01*
X6629705Y-17210638D02*
X6620182Y-17201114D01*
X6620182Y-17201114D02*
X6629705Y-17191590D01*
X6629705Y-17191590D02*
X6629705Y-17210638D01*
D12*
X4917500Y-17603916D02*
X4997500Y-17683916D01*
X4997500Y-17603916D02*
X4917500Y-17683916D01*
D11*
X5296372Y-17535400D02*
X5315420Y-17535400D01*
X5315420Y-17535400D02*
X5334467Y-17544923D01*
X5334467Y-17544923D02*
X5343991Y-17554447D01*
X5343991Y-17554447D02*
X5353515Y-17573495D01*
X5353515Y-17573495D02*
X5363039Y-17611590D01*
X5363039Y-17611590D02*
X5363039Y-17659209D01*
X5363039Y-17659209D02*
X5353515Y-17697304D01*
X5353515Y-17697304D02*
X5343991Y-17716352D01*
X5343991Y-17716352D02*
X5334467Y-17725876D01*
X5334467Y-17725876D02*
X5315420Y-17735400D01*
X5315420Y-17735400D02*
X5296372Y-17735400D01*
X5296372Y-17735400D02*
X5277324Y-17725876D01*
X5277324Y-17725876D02*
X5267801Y-17716352D01*
X5267801Y-17716352D02*
X5258277Y-17697304D01*
X5258277Y-17697304D02*
X5248753Y-17659209D01*
X5248753Y-17659209D02*
X5248753Y-17611590D01*
X5248753Y-17611590D02*
X5258277Y-17573495D01*
X5258277Y-17573495D02*
X5267801Y-17554447D01*
X5267801Y-17554447D02*
X5277324Y-17544923D01*
X5277324Y-17544923D02*
X5296372Y-17535400D01*
X5458277Y-17725876D02*
X5458277Y-17735400D01*
X5458277Y-17735400D02*
X5448753Y-17754447D01*
X5448753Y-17754447D02*
X5439229Y-17763971D01*
X5572563Y-17621114D02*
X5553515Y-17611590D01*
X5553515Y-17611590D02*
X5543991Y-17602066D01*
X5543991Y-17602066D02*
X5534467Y-17583019D01*
X5534467Y-17583019D02*
X5534467Y-17573495D01*
X5534467Y-17573495D02*
X5543991Y-17554447D01*
X5543991Y-17554447D02*
X5553515Y-17544923D01*
X5553515Y-17544923D02*
X5572563Y-17535400D01*
X5572563Y-17535400D02*
X5610658Y-17535400D01*
X5610658Y-17535400D02*
X5629705Y-17544923D01*
X5629705Y-17544923D02*
X5639229Y-17554447D01*
X5639229Y-17554447D02*
X5648753Y-17573495D01*
X5648753Y-17573495D02*
X5648753Y-17583019D01*
X5648753Y-17583019D02*
X5639229Y-17602066D01*
X5639229Y-17602066D02*
X5629705Y-17611590D01*
X5629705Y-17611590D02*
X5610658Y-17621114D01*
X5610658Y-17621114D02*
X5572563Y-17621114D01*
X5572563Y-17621114D02*
X5553515Y-17630638D01*
X5553515Y-17630638D02*
X5543991Y-17640161D01*
X5543991Y-17640161D02*
X5534467Y-17659209D01*
X5534467Y-17659209D02*
X5534467Y-17697304D01*
X5534467Y-17697304D02*
X5543991Y-17716352D01*
X5543991Y-17716352D02*
X5553515Y-17725876D01*
X5553515Y-17725876D02*
X5572563Y-17735400D01*
X5572563Y-17735400D02*
X5610658Y-17735400D01*
X5610658Y-17735400D02*
X5629705Y-17725876D01*
X5629705Y-17725876D02*
X5639229Y-17716352D01*
X5639229Y-17716352D02*
X5648753Y-17697304D01*
X5648753Y-17697304D02*
X5648753Y-17659209D01*
X5648753Y-17659209D02*
X5639229Y-17640161D01*
X5639229Y-17640161D02*
X5629705Y-17630638D01*
X5629705Y-17630638D02*
X5610658Y-17621114D01*
X5772562Y-17535400D02*
X5791610Y-17535400D01*
X5791610Y-17535400D02*
X5810658Y-17544923D01*
X5810658Y-17544923D02*
X5820182Y-17554447D01*
X5820182Y-17554447D02*
X5829705Y-17573495D01*
X5829705Y-17573495D02*
X5839229Y-17611590D01*
X5839229Y-17611590D02*
X5839229Y-17659209D01*
X5839229Y-17659209D02*
X5829705Y-17697304D01*
X5829705Y-17697304D02*
X5820182Y-17716352D01*
X5820182Y-17716352D02*
X5810658Y-17725876D01*
X5810658Y-17725876D02*
X5791610Y-17735400D01*
X5791610Y-17735400D02*
X5772562Y-17735400D01*
X5772562Y-17735400D02*
X5753515Y-17725876D01*
X5753515Y-17725876D02*
X5743991Y-17716352D01*
X5743991Y-17716352D02*
X5734467Y-17697304D01*
X5734467Y-17697304D02*
X5724943Y-17659209D01*
X5724943Y-17659209D02*
X5724943Y-17611590D01*
X5724943Y-17611590D02*
X5734467Y-17573495D01*
X5734467Y-17573495D02*
X5743991Y-17554447D01*
X5743991Y-17554447D02*
X5753515Y-17544923D01*
X5753515Y-17544923D02*
X5772562Y-17535400D01*
X5963039Y-17535400D02*
X5982086Y-17535400D01*
X5982086Y-17535400D02*
X6001134Y-17544923D01*
X6001134Y-17544923D02*
X6010658Y-17554447D01*
X6010658Y-17554447D02*
X6020182Y-17573495D01*
X6020182Y-17573495D02*
X6029705Y-17611590D01*
X6029705Y-17611590D02*
X6029705Y-17659209D01*
X6029705Y-17659209D02*
X6020182Y-17697304D01*
X6020182Y-17697304D02*
X6010658Y-17716352D01*
X6010658Y-17716352D02*
X6001134Y-17725876D01*
X6001134Y-17725876D02*
X5982086Y-17735400D01*
X5982086Y-17735400D02*
X5963039Y-17735400D01*
X5963039Y-17735400D02*
X5943991Y-17725876D01*
X5943991Y-17725876D02*
X5934467Y-17716352D01*
X5934467Y-17716352D02*
X5924943Y-17697304D01*
X5924943Y-17697304D02*
X5915420Y-17659209D01*
X5915420Y-17659209D02*
X5915420Y-17611590D01*
X5915420Y-17611590D02*
X5924943Y-17573495D01*
X5924943Y-17573495D02*
X5934467Y-17554447D01*
X5934467Y-17554447D02*
X5943991Y-17544923D01*
X5943991Y-17544923D02*
X5963039Y-17535400D01*
X6115420Y-17735400D02*
X6115420Y-17602066D01*
X6115420Y-17621114D02*
X6124943Y-17611590D01*
X6124943Y-17611590D02*
X6143991Y-17602066D01*
X6143991Y-17602066D02*
X6172563Y-17602066D01*
X6172563Y-17602066D02*
X6191610Y-17611590D01*
X6191610Y-17611590D02*
X6201134Y-17630638D01*
X6201134Y-17630638D02*
X6201134Y-17735400D01*
X6201134Y-17630638D02*
X6210658Y-17611590D01*
X6210658Y-17611590D02*
X6229705Y-17602066D01*
X6229705Y-17602066D02*
X6258277Y-17602066D01*
X6258277Y-17602066D02*
X6277324Y-17611590D01*
X6277324Y-17611590D02*
X6286848Y-17630638D01*
X6286848Y-17630638D02*
X6286848Y-17735400D01*
X6382086Y-17735400D02*
X6382086Y-17602066D01*
X6382086Y-17621114D02*
X6391610Y-17611590D01*
X6391610Y-17611590D02*
X6410658Y-17602066D01*
X6410658Y-17602066D02*
X6439229Y-17602066D01*
X6439229Y-17602066D02*
X6458277Y-17611590D01*
X6458277Y-17611590D02*
X6467801Y-17630638D01*
X6467801Y-17630638D02*
X6467801Y-17735400D01*
X6467801Y-17630638D02*
X6477324Y-17611590D01*
X6477324Y-17611590D02*
X6496372Y-17602066D01*
X6496372Y-17602066D02*
X6524943Y-17602066D01*
X6524943Y-17602066D02*
X6543991Y-17611590D01*
X6543991Y-17611590D02*
X6553515Y-17630638D01*
X6553515Y-17630638D02*
X6553515Y-17735400D01*
X6943991Y-17525876D02*
X6772563Y-17783019D01*
X7201134Y-17535400D02*
X7220182Y-17535400D01*
X7220182Y-17535400D02*
X7239229Y-17544923D01*
X7239229Y-17544923D02*
X7248753Y-17554447D01*
X7248753Y-17554447D02*
X7258277Y-17573495D01*
X7258277Y-17573495D02*
X7267801Y-17611590D01*
X7267801Y-17611590D02*
X7267801Y-17659209D01*
X7267801Y-17659209D02*
X7258277Y-17697304D01*
X7258277Y-17697304D02*
X7248753Y-17716352D01*
X7248753Y-17716352D02*
X7239229Y-17725876D01*
X7239229Y-17725876D02*
X7220182Y-17735400D01*
X7220182Y-17735400D02*
X7201134Y-17735400D01*
X7201134Y-17735400D02*
X7182086Y-17725876D01*
X7182086Y-17725876D02*
X7172563Y-17716352D01*
X7172563Y-17716352D02*
X7163039Y-17697304D01*
X7163039Y-17697304D02*
X7153515Y-17659209D01*
X7153515Y-17659209D02*
X7153515Y-17611590D01*
X7153515Y-17611590D02*
X7163039Y-17573495D01*
X7163039Y-17573495D02*
X7172563Y-17554447D01*
X7172563Y-17554447D02*
X7182086Y-17544923D01*
X7182086Y-17544923D02*
X7201134Y-17535400D01*
X7363039Y-17725876D02*
X7363039Y-17735400D01*
X7363039Y-17735400D02*
X7353515Y-17754447D01*
X7353515Y-17754447D02*
X7343991Y-17763971D01*
X7486848Y-17535400D02*
X7505896Y-17535400D01*
X7505896Y-17535400D02*
X7524944Y-17544923D01*
X7524944Y-17544923D02*
X7534467Y-17554447D01*
X7534467Y-17554447D02*
X7543991Y-17573495D01*
X7543991Y-17573495D02*
X7553515Y-17611590D01*
X7553515Y-17611590D02*
X7553515Y-17659209D01*
X7553515Y-17659209D02*
X7543991Y-17697304D01*
X7543991Y-17697304D02*
X7534467Y-17716352D01*
X7534467Y-17716352D02*
X7524944Y-17725876D01*
X7524944Y-17725876D02*
X7505896Y-17735400D01*
X7505896Y-17735400D02*
X7486848Y-17735400D01*
X7486848Y-17735400D02*
X7467801Y-17725876D01*
X7467801Y-17725876D02*
X7458277Y-17716352D01*
X7458277Y-17716352D02*
X7448753Y-17697304D01*
X7448753Y-17697304D02*
X7439229Y-17659209D01*
X7439229Y-17659209D02*
X7439229Y-17611590D01*
X7439229Y-17611590D02*
X7448753Y-17573495D01*
X7448753Y-17573495D02*
X7458277Y-17554447D01*
X7458277Y-17554447D02*
X7467801Y-17544923D01*
X7467801Y-17544923D02*
X7486848Y-17535400D01*
X7620182Y-17535400D02*
X7743991Y-17535400D01*
X7743991Y-17535400D02*
X7677325Y-17611590D01*
X7677325Y-17611590D02*
X7705896Y-17611590D01*
X7705896Y-17611590D02*
X7724944Y-17621114D01*
X7724944Y-17621114D02*
X7734467Y-17630638D01*
X7734467Y-17630638D02*
X7743991Y-17649685D01*
X7743991Y-17649685D02*
X7743991Y-17697304D01*
X7743991Y-17697304D02*
X7734467Y-17716352D01*
X7734467Y-17716352D02*
X7724944Y-17725876D01*
X7724944Y-17725876D02*
X7705896Y-17735400D01*
X7705896Y-17735400D02*
X7648753Y-17735400D01*
X7648753Y-17735400D02*
X7629706Y-17725876D01*
X7629706Y-17725876D02*
X7620182Y-17716352D01*
X7934467Y-17735400D02*
X7820182Y-17735400D01*
X7877325Y-17735400D02*
X7877325Y-17535400D01*
X7877325Y-17535400D02*
X7858277Y-17563971D01*
X7858277Y-17563971D02*
X7839229Y-17583019D01*
X7839229Y-17583019D02*
X7820182Y-17592542D01*
X8115420Y-17535400D02*
X8020182Y-17535400D01*
X8020182Y-17535400D02*
X8010658Y-17630638D01*
X8010658Y-17630638D02*
X8020182Y-17621114D01*
X8020182Y-17621114D02*
X8039229Y-17611590D01*
X8039229Y-17611590D02*
X8086848Y-17611590D01*
X8086848Y-17611590D02*
X8105896Y-17621114D01*
X8105896Y-17621114D02*
X8115420Y-17630638D01*
X8115420Y-17630638D02*
X8124944Y-17649685D01*
X8124944Y-17649685D02*
X8124944Y-17697304D01*
X8124944Y-17697304D02*
X8115420Y-17716352D01*
X8115420Y-17716352D02*
X8105896Y-17725876D01*
X8105896Y-17725876D02*
X8086848Y-17735400D01*
X8086848Y-17735400D02*
X8039229Y-17735400D01*
X8039229Y-17735400D02*
X8020182Y-17725876D01*
X8020182Y-17725876D02*
X8010658Y-17716352D01*
X8201134Y-17535400D02*
X8201134Y-17573495D01*
X8277325Y-17535400D02*
X8277325Y-17573495D01*
X8572563Y-17811590D02*
X8563039Y-17802066D01*
X8563039Y-17802066D02*
X8543991Y-17773495D01*
X8543991Y-17773495D02*
X8534468Y-17754447D01*
X8534468Y-17754447D02*
X8524944Y-17725876D01*
X8524944Y-17725876D02*
X8515420Y-17678257D01*
X8515420Y-17678257D02*
X8515420Y-17640161D01*
X8515420Y-17640161D02*
X8524944Y-17592542D01*
X8524944Y-17592542D02*
X8534468Y-17563971D01*
X8534468Y-17563971D02*
X8543991Y-17544923D01*
X8543991Y-17544923D02*
X8563039Y-17516352D01*
X8563039Y-17516352D02*
X8572563Y-17506828D01*
X8753515Y-17735400D02*
X8639230Y-17735400D01*
X8696372Y-17735400D02*
X8696372Y-17535400D01*
X8696372Y-17535400D02*
X8677325Y-17563971D01*
X8677325Y-17563971D02*
X8658277Y-17583019D01*
X8658277Y-17583019D02*
X8639230Y-17592542D01*
X8877325Y-17535400D02*
X8896372Y-17535400D01*
X8896372Y-17535400D02*
X8915420Y-17544923D01*
X8915420Y-17544923D02*
X8924944Y-17554447D01*
X8924944Y-17554447D02*
X8934468Y-17573495D01*
X8934468Y-17573495D02*
X8943991Y-17611590D01*
X8943991Y-17611590D02*
X8943991Y-17659209D01*
X8943991Y-17659209D02*
X8934468Y-17697304D01*
X8934468Y-17697304D02*
X8924944Y-17716352D01*
X8924944Y-17716352D02*
X8915420Y-17725876D01*
X8915420Y-17725876D02*
X8896372Y-17735400D01*
X8896372Y-17735400D02*
X8877325Y-17735400D01*
X8877325Y-17735400D02*
X8858277Y-17725876D01*
X8858277Y-17725876D02*
X8848753Y-17716352D01*
X8848753Y-17716352D02*
X8839230Y-17697304D01*
X8839230Y-17697304D02*
X8829706Y-17659209D01*
X8829706Y-17659209D02*
X8829706Y-17611590D01*
X8829706Y-17611590D02*
X8839230Y-17573495D01*
X8839230Y-17573495D02*
X8848753Y-17554447D01*
X8848753Y-17554447D02*
X8858277Y-17544923D01*
X8858277Y-17544923D02*
X8877325Y-17535400D01*
X9058277Y-17621114D02*
X9039230Y-17611590D01*
X9039230Y-17611590D02*
X9029706Y-17602066D01*
X9029706Y-17602066D02*
X9020182Y-17583019D01*
X9020182Y-17583019D02*
X9020182Y-17573495D01*
X9020182Y-17573495D02*
X9029706Y-17554447D01*
X9029706Y-17554447D02*
X9039230Y-17544923D01*
X9039230Y-17544923D02*
X9058277Y-17535400D01*
X9058277Y-17535400D02*
X9096372Y-17535400D01*
X9096372Y-17535400D02*
X9115420Y-17544923D01*
X9115420Y-17544923D02*
X9124944Y-17554447D01*
X9124944Y-17554447D02*
X9134468Y-17573495D01*
X9134468Y-17573495D02*
X9134468Y-17583019D01*
X9134468Y-17583019D02*
X9124944Y-17602066D01*
X9124944Y-17602066D02*
X9115420Y-17611590D01*
X9115420Y-17611590D02*
X9096372Y-17621114D01*
X9096372Y-17621114D02*
X9058277Y-17621114D01*
X9058277Y-17621114D02*
X9039230Y-17630638D01*
X9039230Y-17630638D02*
X9029706Y-17640161D01*
X9029706Y-17640161D02*
X9020182Y-17659209D01*
X9020182Y-17659209D02*
X9020182Y-17697304D01*
X9020182Y-17697304D02*
X9029706Y-17716352D01*
X9029706Y-17716352D02*
X9039230Y-17725876D01*
X9039230Y-17725876D02*
X9058277Y-17735400D01*
X9058277Y-17735400D02*
X9096372Y-17735400D01*
X9096372Y-17735400D02*
X9115420Y-17725876D01*
X9115420Y-17725876D02*
X9124944Y-17716352D01*
X9124944Y-17716352D02*
X9134468Y-17697304D01*
X9134468Y-17697304D02*
X9134468Y-17659209D01*
X9134468Y-17659209D02*
X9124944Y-17640161D01*
X9124944Y-17640161D02*
X9115420Y-17630638D01*
X9115420Y-17630638D02*
X9096372Y-17621114D01*
X9372563Y-17735400D02*
X9372563Y-17535400D01*
X9458277Y-17735400D02*
X9458277Y-17630638D01*
X9458277Y-17630638D02*
X9448753Y-17611590D01*
X9448753Y-17611590D02*
X9429706Y-17602066D01*
X9429706Y-17602066D02*
X9401134Y-17602066D01*
X9401134Y-17602066D02*
X9382087Y-17611590D01*
X9382087Y-17611590D02*
X9372563Y-17621114D01*
X9582087Y-17735400D02*
X9563039Y-17725876D01*
X9563039Y-17725876D02*
X9553515Y-17716352D01*
X9553515Y-17716352D02*
X9543992Y-17697304D01*
X9543992Y-17697304D02*
X9543992Y-17640161D01*
X9543992Y-17640161D02*
X9553515Y-17621114D01*
X9553515Y-17621114D02*
X9563039Y-17611590D01*
X9563039Y-17611590D02*
X9582087Y-17602066D01*
X9582087Y-17602066D02*
X9610658Y-17602066D01*
X9610658Y-17602066D02*
X9629706Y-17611590D01*
X9629706Y-17611590D02*
X9639230Y-17621114D01*
X9639230Y-17621114D02*
X9648753Y-17640161D01*
X9648753Y-17640161D02*
X9648753Y-17697304D01*
X9648753Y-17697304D02*
X9639230Y-17716352D01*
X9639230Y-17716352D02*
X9629706Y-17725876D01*
X9629706Y-17725876D02*
X9610658Y-17735400D01*
X9610658Y-17735400D02*
X9582087Y-17735400D01*
X9763039Y-17735400D02*
X9743992Y-17725876D01*
X9743992Y-17725876D02*
X9734468Y-17706828D01*
X9734468Y-17706828D02*
X9734468Y-17535400D01*
X9915420Y-17725876D02*
X9896373Y-17735400D01*
X9896373Y-17735400D02*
X9858277Y-17735400D01*
X9858277Y-17735400D02*
X9839230Y-17725876D01*
X9839230Y-17725876D02*
X9829706Y-17706828D01*
X9829706Y-17706828D02*
X9829706Y-17630638D01*
X9829706Y-17630638D02*
X9839230Y-17611590D01*
X9839230Y-17611590D02*
X9858277Y-17602066D01*
X9858277Y-17602066D02*
X9896373Y-17602066D01*
X9896373Y-17602066D02*
X9915420Y-17611590D01*
X9915420Y-17611590D02*
X9924944Y-17630638D01*
X9924944Y-17630638D02*
X9924944Y-17649685D01*
X9924944Y-17649685D02*
X9829706Y-17668733D01*
X10001134Y-17725876D02*
X10020182Y-17735400D01*
X10020182Y-17735400D02*
X10058277Y-17735400D01*
X10058277Y-17735400D02*
X10077325Y-17725876D01*
X10077325Y-17725876D02*
X10086849Y-17706828D01*
X10086849Y-17706828D02*
X10086849Y-17697304D01*
X10086849Y-17697304D02*
X10077325Y-17678257D01*
X10077325Y-17678257D02*
X10058277Y-17668733D01*
X10058277Y-17668733D02*
X10029706Y-17668733D01*
X10029706Y-17668733D02*
X10010658Y-17659209D01*
X10010658Y-17659209D02*
X10001134Y-17640161D01*
X10001134Y-17640161D02*
X10001134Y-17630638D01*
X10001134Y-17630638D02*
X10010658Y-17611590D01*
X10010658Y-17611590D02*
X10029706Y-17602066D01*
X10029706Y-17602066D02*
X10058277Y-17602066D01*
X10058277Y-17602066D02*
X10077325Y-17611590D01*
X10153515Y-17811590D02*
X10163039Y-17802066D01*
X10163039Y-17802066D02*
X10182087Y-17773495D01*
X10182087Y-17773495D02*
X10191611Y-17754447D01*
X10191611Y-17754447D02*
X10201134Y-17725876D01*
X10201134Y-17725876D02*
X10210658Y-17678257D01*
X10210658Y-17678257D02*
X10210658Y-17640161D01*
X10210658Y-17640161D02*
X10201134Y-17592542D01*
X10201134Y-17592542D02*
X10191611Y-17563971D01*
X10191611Y-17563971D02*
X10182087Y-17544923D01*
X10182087Y-17544923D02*
X10163039Y-17516352D01*
X10163039Y-17516352D02*
X10153515Y-17506828D01*
D12*
X4997500Y-17907916D02*
G75*
G02*
X4907500Y-17907916I-45000J0D01*
G01*
X4907500Y-17907916D02*
G75*
G02*
X4997500Y-17907916I45000J0D01*
G01*
D11*
X5296372Y-17799400D02*
X5315420Y-17799400D01*
X5315420Y-17799400D02*
X5334467Y-17808923D01*
X5334467Y-17808923D02*
X5343991Y-17818447D01*
X5343991Y-17818447D02*
X5353515Y-17837495D01*
X5353515Y-17837495D02*
X5363039Y-17875590D01*
X5363039Y-17875590D02*
X5363039Y-17923209D01*
X5363039Y-17923209D02*
X5353515Y-17961304D01*
X5353515Y-17961304D02*
X5343991Y-17980352D01*
X5343991Y-17980352D02*
X5334467Y-17989876D01*
X5334467Y-17989876D02*
X5315420Y-17999400D01*
X5315420Y-17999400D02*
X5296372Y-17999400D01*
X5296372Y-17999400D02*
X5277324Y-17989876D01*
X5277324Y-17989876D02*
X5267801Y-17980352D01*
X5267801Y-17980352D02*
X5258277Y-17961304D01*
X5258277Y-17961304D02*
X5248753Y-17923209D01*
X5248753Y-17923209D02*
X5248753Y-17875590D01*
X5248753Y-17875590D02*
X5258277Y-17837495D01*
X5258277Y-17837495D02*
X5267801Y-17818447D01*
X5267801Y-17818447D02*
X5277324Y-17808923D01*
X5277324Y-17808923D02*
X5296372Y-17799400D01*
X5458277Y-17989876D02*
X5458277Y-17999400D01*
X5458277Y-17999400D02*
X5448753Y-18018447D01*
X5448753Y-18018447D02*
X5439229Y-18027971D01*
X5553515Y-17999400D02*
X5591610Y-17999400D01*
X5591610Y-17999400D02*
X5610658Y-17989876D01*
X5610658Y-17989876D02*
X5620182Y-17980352D01*
X5620182Y-17980352D02*
X5639229Y-17951780D01*
X5639229Y-17951780D02*
X5648753Y-17913685D01*
X5648753Y-17913685D02*
X5648753Y-17837495D01*
X5648753Y-17837495D02*
X5639229Y-17818447D01*
X5639229Y-17818447D02*
X5629705Y-17808923D01*
X5629705Y-17808923D02*
X5610658Y-17799400D01*
X5610658Y-17799400D02*
X5572563Y-17799400D01*
X5572563Y-17799400D02*
X5553515Y-17808923D01*
X5553515Y-17808923D02*
X5543991Y-17818447D01*
X5543991Y-17818447D02*
X5534467Y-17837495D01*
X5534467Y-17837495D02*
X5534467Y-17885114D01*
X5534467Y-17885114D02*
X5543991Y-17904161D01*
X5543991Y-17904161D02*
X5553515Y-17913685D01*
X5553515Y-17913685D02*
X5572563Y-17923209D01*
X5572563Y-17923209D02*
X5610658Y-17923209D01*
X5610658Y-17923209D02*
X5629705Y-17913685D01*
X5629705Y-17913685D02*
X5639229Y-17904161D01*
X5639229Y-17904161D02*
X5648753Y-17885114D01*
X5772562Y-17799400D02*
X5791610Y-17799400D01*
X5791610Y-17799400D02*
X5810658Y-17808923D01*
X5810658Y-17808923D02*
X5820182Y-17818447D01*
X5820182Y-17818447D02*
X5829705Y-17837495D01*
X5829705Y-17837495D02*
X5839229Y-17875590D01*
X5839229Y-17875590D02*
X5839229Y-17923209D01*
X5839229Y-17923209D02*
X5829705Y-17961304D01*
X5829705Y-17961304D02*
X5820182Y-17980352D01*
X5820182Y-17980352D02*
X5810658Y-17989876D01*
X5810658Y-17989876D02*
X5791610Y-17999400D01*
X5791610Y-17999400D02*
X5772562Y-17999400D01*
X5772562Y-17999400D02*
X5753515Y-17989876D01*
X5753515Y-17989876D02*
X5743991Y-17980352D01*
X5743991Y-17980352D02*
X5734467Y-17961304D01*
X5734467Y-17961304D02*
X5724943Y-17923209D01*
X5724943Y-17923209D02*
X5724943Y-17875590D01*
X5724943Y-17875590D02*
X5734467Y-17837495D01*
X5734467Y-17837495D02*
X5743991Y-17818447D01*
X5743991Y-17818447D02*
X5753515Y-17808923D01*
X5753515Y-17808923D02*
X5772562Y-17799400D01*
X5963039Y-17799400D02*
X5982086Y-17799400D01*
X5982086Y-17799400D02*
X6001134Y-17808923D01*
X6001134Y-17808923D02*
X6010658Y-17818447D01*
X6010658Y-17818447D02*
X6020182Y-17837495D01*
X6020182Y-17837495D02*
X6029705Y-17875590D01*
X6029705Y-17875590D02*
X6029705Y-17923209D01*
X6029705Y-17923209D02*
X6020182Y-17961304D01*
X6020182Y-17961304D02*
X6010658Y-17980352D01*
X6010658Y-17980352D02*
X6001134Y-17989876D01*
X6001134Y-17989876D02*
X5982086Y-17999400D01*
X5982086Y-17999400D02*
X5963039Y-17999400D01*
X5963039Y-17999400D02*
X5943991Y-17989876D01*
X5943991Y-17989876D02*
X5934467Y-17980352D01*
X5934467Y-17980352D02*
X5924943Y-17961304D01*
X5924943Y-17961304D02*
X5915420Y-17923209D01*
X5915420Y-17923209D02*
X5915420Y-17875590D01*
X5915420Y-17875590D02*
X5924943Y-17837495D01*
X5924943Y-17837495D02*
X5934467Y-17818447D01*
X5934467Y-17818447D02*
X5943991Y-17808923D01*
X5943991Y-17808923D02*
X5963039Y-17799400D01*
X6115420Y-17999400D02*
X6115420Y-17866066D01*
X6115420Y-17885114D02*
X6124943Y-17875590D01*
X6124943Y-17875590D02*
X6143991Y-17866066D01*
X6143991Y-17866066D02*
X6172563Y-17866066D01*
X6172563Y-17866066D02*
X6191610Y-17875590D01*
X6191610Y-17875590D02*
X6201134Y-17894638D01*
X6201134Y-17894638D02*
X6201134Y-17999400D01*
X6201134Y-17894638D02*
X6210658Y-17875590D01*
X6210658Y-17875590D02*
X6229705Y-17866066D01*
X6229705Y-17866066D02*
X6258277Y-17866066D01*
X6258277Y-17866066D02*
X6277324Y-17875590D01*
X6277324Y-17875590D02*
X6286848Y-17894638D01*
X6286848Y-17894638D02*
X6286848Y-17999400D01*
X6382086Y-17999400D02*
X6382086Y-17866066D01*
X6382086Y-17885114D02*
X6391610Y-17875590D01*
X6391610Y-17875590D02*
X6410658Y-17866066D01*
X6410658Y-17866066D02*
X6439229Y-17866066D01*
X6439229Y-17866066D02*
X6458277Y-17875590D01*
X6458277Y-17875590D02*
X6467801Y-17894638D01*
X6467801Y-17894638D02*
X6467801Y-17999400D01*
X6467801Y-17894638D02*
X6477324Y-17875590D01*
X6477324Y-17875590D02*
X6496372Y-17866066D01*
X6496372Y-17866066D02*
X6524943Y-17866066D01*
X6524943Y-17866066D02*
X6543991Y-17875590D01*
X6543991Y-17875590D02*
X6553515Y-17894638D01*
X6553515Y-17894638D02*
X6553515Y-17999400D01*
X6943991Y-17789876D02*
X6772563Y-18047019D01*
X7201134Y-17799400D02*
X7220182Y-17799400D01*
X7220182Y-17799400D02*
X7239229Y-17808923D01*
X7239229Y-17808923D02*
X7248753Y-17818447D01*
X7248753Y-17818447D02*
X7258277Y-17837495D01*
X7258277Y-17837495D02*
X7267801Y-17875590D01*
X7267801Y-17875590D02*
X7267801Y-17923209D01*
X7267801Y-17923209D02*
X7258277Y-17961304D01*
X7258277Y-17961304D02*
X7248753Y-17980352D01*
X7248753Y-17980352D02*
X7239229Y-17989876D01*
X7239229Y-17989876D02*
X7220182Y-17999400D01*
X7220182Y-17999400D02*
X7201134Y-17999400D01*
X7201134Y-17999400D02*
X7182086Y-17989876D01*
X7182086Y-17989876D02*
X7172563Y-17980352D01*
X7172563Y-17980352D02*
X7163039Y-17961304D01*
X7163039Y-17961304D02*
X7153515Y-17923209D01*
X7153515Y-17923209D02*
X7153515Y-17875590D01*
X7153515Y-17875590D02*
X7163039Y-17837495D01*
X7163039Y-17837495D02*
X7172563Y-17818447D01*
X7172563Y-17818447D02*
X7182086Y-17808923D01*
X7182086Y-17808923D02*
X7201134Y-17799400D01*
X7363039Y-17989876D02*
X7363039Y-17999400D01*
X7363039Y-17999400D02*
X7353515Y-18018447D01*
X7353515Y-18018447D02*
X7343991Y-18027971D01*
X7486848Y-17799400D02*
X7505896Y-17799400D01*
X7505896Y-17799400D02*
X7524944Y-17808923D01*
X7524944Y-17808923D02*
X7534467Y-17818447D01*
X7534467Y-17818447D02*
X7543991Y-17837495D01*
X7543991Y-17837495D02*
X7553515Y-17875590D01*
X7553515Y-17875590D02*
X7553515Y-17923209D01*
X7553515Y-17923209D02*
X7543991Y-17961304D01*
X7543991Y-17961304D02*
X7534467Y-17980352D01*
X7534467Y-17980352D02*
X7524944Y-17989876D01*
X7524944Y-17989876D02*
X7505896Y-17999400D01*
X7505896Y-17999400D02*
X7486848Y-17999400D01*
X7486848Y-17999400D02*
X7467801Y-17989876D01*
X7467801Y-17989876D02*
X7458277Y-17980352D01*
X7458277Y-17980352D02*
X7448753Y-17961304D01*
X7448753Y-17961304D02*
X7439229Y-17923209D01*
X7439229Y-17923209D02*
X7439229Y-17875590D01*
X7439229Y-17875590D02*
X7448753Y-17837495D01*
X7448753Y-17837495D02*
X7458277Y-17818447D01*
X7458277Y-17818447D02*
X7467801Y-17808923D01*
X7467801Y-17808923D02*
X7486848Y-17799400D01*
X7620182Y-17799400D02*
X7743991Y-17799400D01*
X7743991Y-17799400D02*
X7677325Y-17875590D01*
X7677325Y-17875590D02*
X7705896Y-17875590D01*
X7705896Y-17875590D02*
X7724944Y-17885114D01*
X7724944Y-17885114D02*
X7734467Y-17894638D01*
X7734467Y-17894638D02*
X7743991Y-17913685D01*
X7743991Y-17913685D02*
X7743991Y-17961304D01*
X7743991Y-17961304D02*
X7734467Y-17980352D01*
X7734467Y-17980352D02*
X7724944Y-17989876D01*
X7724944Y-17989876D02*
X7705896Y-17999400D01*
X7705896Y-17999400D02*
X7648753Y-17999400D01*
X7648753Y-17999400D02*
X7629706Y-17989876D01*
X7629706Y-17989876D02*
X7620182Y-17980352D01*
X7924944Y-17799400D02*
X7829706Y-17799400D01*
X7829706Y-17799400D02*
X7820182Y-17894638D01*
X7820182Y-17894638D02*
X7829706Y-17885114D01*
X7829706Y-17885114D02*
X7848753Y-17875590D01*
X7848753Y-17875590D02*
X7896372Y-17875590D01*
X7896372Y-17875590D02*
X7915420Y-17885114D01*
X7915420Y-17885114D02*
X7924944Y-17894638D01*
X7924944Y-17894638D02*
X7934467Y-17913685D01*
X7934467Y-17913685D02*
X7934467Y-17961304D01*
X7934467Y-17961304D02*
X7924944Y-17980352D01*
X7924944Y-17980352D02*
X7915420Y-17989876D01*
X7915420Y-17989876D02*
X7896372Y-17999400D01*
X7896372Y-17999400D02*
X7848753Y-17999400D01*
X7848753Y-17999400D02*
X7829706Y-17989876D01*
X7829706Y-17989876D02*
X7820182Y-17980352D01*
X8105896Y-17866066D02*
X8105896Y-17999400D01*
X8058277Y-17789876D02*
X8010658Y-17932733D01*
X8010658Y-17932733D02*
X8134467Y-17932733D01*
X8201134Y-17799400D02*
X8201134Y-17837495D01*
X8277325Y-17799400D02*
X8277325Y-17837495D01*
X8572563Y-18075590D02*
X8563039Y-18066066D01*
X8563039Y-18066066D02*
X8543991Y-18037495D01*
X8543991Y-18037495D02*
X8534468Y-18018447D01*
X8534468Y-18018447D02*
X8524944Y-17989876D01*
X8524944Y-17989876D02*
X8515420Y-17942257D01*
X8515420Y-17942257D02*
X8515420Y-17904161D01*
X8515420Y-17904161D02*
X8524944Y-17856542D01*
X8524944Y-17856542D02*
X8534468Y-17827971D01*
X8534468Y-17827971D02*
X8543991Y-17808923D01*
X8543991Y-17808923D02*
X8563039Y-17780352D01*
X8563039Y-17780352D02*
X8572563Y-17770828D01*
X8734468Y-17866066D02*
X8734468Y-17999400D01*
X8686849Y-17789876D02*
X8639230Y-17932733D01*
X8639230Y-17932733D02*
X8763039Y-17932733D01*
X8991611Y-17999400D02*
X8991611Y-17799400D01*
X9077325Y-17999400D02*
X9077325Y-17894638D01*
X9077325Y-17894638D02*
X9067801Y-17875590D01*
X9067801Y-17875590D02*
X9048753Y-17866066D01*
X9048753Y-17866066D02*
X9020182Y-17866066D01*
X9020182Y-17866066D02*
X9001134Y-17875590D01*
X9001134Y-17875590D02*
X8991611Y-17885114D01*
X9201134Y-17999400D02*
X9182087Y-17989876D01*
X9182087Y-17989876D02*
X9172563Y-17980352D01*
X9172563Y-17980352D02*
X9163039Y-17961304D01*
X9163039Y-17961304D02*
X9163039Y-17904161D01*
X9163039Y-17904161D02*
X9172563Y-17885114D01*
X9172563Y-17885114D02*
X9182087Y-17875590D01*
X9182087Y-17875590D02*
X9201134Y-17866066D01*
X9201134Y-17866066D02*
X9229706Y-17866066D01*
X9229706Y-17866066D02*
X9248753Y-17875590D01*
X9248753Y-17875590D02*
X9258277Y-17885114D01*
X9258277Y-17885114D02*
X9267801Y-17904161D01*
X9267801Y-17904161D02*
X9267801Y-17961304D01*
X9267801Y-17961304D02*
X9258277Y-17980352D01*
X9258277Y-17980352D02*
X9248753Y-17989876D01*
X9248753Y-17989876D02*
X9229706Y-17999400D01*
X9229706Y-17999400D02*
X9201134Y-17999400D01*
X9382087Y-17999400D02*
X9363039Y-17989876D01*
X9363039Y-17989876D02*
X9353515Y-17970828D01*
X9353515Y-17970828D02*
X9353515Y-17799400D01*
X9534468Y-17989876D02*
X9515420Y-17999400D01*
X9515420Y-17999400D02*
X9477325Y-17999400D01*
X9477325Y-17999400D02*
X9458277Y-17989876D01*
X9458277Y-17989876D02*
X9448753Y-17970828D01*
X9448753Y-17970828D02*
X9448753Y-17894638D01*
X9448753Y-17894638D02*
X9458277Y-17875590D01*
X9458277Y-17875590D02*
X9477325Y-17866066D01*
X9477325Y-17866066D02*
X9515420Y-17866066D01*
X9515420Y-17866066D02*
X9534468Y-17875590D01*
X9534468Y-17875590D02*
X9543992Y-17894638D01*
X9543992Y-17894638D02*
X9543992Y-17913685D01*
X9543992Y-17913685D02*
X9448753Y-17932733D01*
X9620182Y-17989876D02*
X9639230Y-17999400D01*
X9639230Y-17999400D02*
X9677325Y-17999400D01*
X9677325Y-17999400D02*
X9696373Y-17989876D01*
X9696373Y-17989876D02*
X9705896Y-17970828D01*
X9705896Y-17970828D02*
X9705896Y-17961304D01*
X9705896Y-17961304D02*
X9696373Y-17942257D01*
X9696373Y-17942257D02*
X9677325Y-17932733D01*
X9677325Y-17932733D02*
X9648753Y-17932733D01*
X9648753Y-17932733D02*
X9629706Y-17923209D01*
X9629706Y-17923209D02*
X9620182Y-17904161D01*
X9620182Y-17904161D02*
X9620182Y-17894638D01*
X9620182Y-17894638D02*
X9629706Y-17875590D01*
X9629706Y-17875590D02*
X9648753Y-17866066D01*
X9648753Y-17866066D02*
X9677325Y-17866066D01*
X9677325Y-17866066D02*
X9696373Y-17875590D01*
X9772563Y-18075590D02*
X9782087Y-18066066D01*
X9782087Y-18066066D02*
X9801134Y-18037495D01*
X9801134Y-18037495D02*
X9810658Y-18018447D01*
X9810658Y-18018447D02*
X9820182Y-17989876D01*
X9820182Y-17989876D02*
X9829706Y-17942257D01*
X9829706Y-17942257D02*
X9829706Y-17904161D01*
X9829706Y-17904161D02*
X9820182Y-17856542D01*
X9820182Y-17856542D02*
X9810658Y-17827971D01*
X9810658Y-17827971D02*
X9801134Y-17808923D01*
X9801134Y-17808923D02*
X9782087Y-17780352D01*
X9782087Y-17780352D02*
X9772563Y-17770828D01*
D12*
X4947500Y-18121916D02*
X4947500Y-18221916D01*
X4897500Y-18171916D02*
X4997500Y-18171916D01*
D11*
X5363039Y-18263400D02*
X5248753Y-18263400D01*
X5305896Y-18263400D02*
X5305896Y-18063400D01*
X5305896Y-18063400D02*
X5286848Y-18091971D01*
X5286848Y-18091971D02*
X5267801Y-18111019D01*
X5267801Y-18111019D02*
X5248753Y-18120542D01*
X5458277Y-18253876D02*
X5458277Y-18263400D01*
X5458277Y-18263400D02*
X5448753Y-18282447D01*
X5448753Y-18282447D02*
X5439229Y-18291971D01*
X5582086Y-18063400D02*
X5601134Y-18063400D01*
X5601134Y-18063400D02*
X5620182Y-18072923D01*
X5620182Y-18072923D02*
X5629705Y-18082447D01*
X5629705Y-18082447D02*
X5639229Y-18101495D01*
X5639229Y-18101495D02*
X5648753Y-18139590D01*
X5648753Y-18139590D02*
X5648753Y-18187209D01*
X5648753Y-18187209D02*
X5639229Y-18225304D01*
X5639229Y-18225304D02*
X5629705Y-18244352D01*
X5629705Y-18244352D02*
X5620182Y-18253876D01*
X5620182Y-18253876D02*
X5601134Y-18263400D01*
X5601134Y-18263400D02*
X5582086Y-18263400D01*
X5582086Y-18263400D02*
X5563039Y-18253876D01*
X5563039Y-18253876D02*
X5553515Y-18244352D01*
X5553515Y-18244352D02*
X5543991Y-18225304D01*
X5543991Y-18225304D02*
X5534467Y-18187209D01*
X5534467Y-18187209D02*
X5534467Y-18139590D01*
X5534467Y-18139590D02*
X5543991Y-18101495D01*
X5543991Y-18101495D02*
X5553515Y-18082447D01*
X5553515Y-18082447D02*
X5563039Y-18072923D01*
X5563039Y-18072923D02*
X5582086Y-18063400D01*
X5772562Y-18063400D02*
X5791610Y-18063400D01*
X5791610Y-18063400D02*
X5810658Y-18072923D01*
X5810658Y-18072923D02*
X5820182Y-18082447D01*
X5820182Y-18082447D02*
X5829705Y-18101495D01*
X5829705Y-18101495D02*
X5839229Y-18139590D01*
X5839229Y-18139590D02*
X5839229Y-18187209D01*
X5839229Y-18187209D02*
X5829705Y-18225304D01*
X5829705Y-18225304D02*
X5820182Y-18244352D01*
X5820182Y-18244352D02*
X5810658Y-18253876D01*
X5810658Y-18253876D02*
X5791610Y-18263400D01*
X5791610Y-18263400D02*
X5772562Y-18263400D01*
X5772562Y-18263400D02*
X5753515Y-18253876D01*
X5753515Y-18253876D02*
X5743991Y-18244352D01*
X5743991Y-18244352D02*
X5734467Y-18225304D01*
X5734467Y-18225304D02*
X5724943Y-18187209D01*
X5724943Y-18187209D02*
X5724943Y-18139590D01*
X5724943Y-18139590D02*
X5734467Y-18101495D01*
X5734467Y-18101495D02*
X5743991Y-18082447D01*
X5743991Y-18082447D02*
X5753515Y-18072923D01*
X5753515Y-18072923D02*
X5772562Y-18063400D01*
X5963039Y-18063400D02*
X5982086Y-18063400D01*
X5982086Y-18063400D02*
X6001134Y-18072923D01*
X6001134Y-18072923D02*
X6010658Y-18082447D01*
X6010658Y-18082447D02*
X6020182Y-18101495D01*
X6020182Y-18101495D02*
X6029705Y-18139590D01*
X6029705Y-18139590D02*
X6029705Y-18187209D01*
X6029705Y-18187209D02*
X6020182Y-18225304D01*
X6020182Y-18225304D02*
X6010658Y-18244352D01*
X6010658Y-18244352D02*
X6001134Y-18253876D01*
X6001134Y-18253876D02*
X5982086Y-18263400D01*
X5982086Y-18263400D02*
X5963039Y-18263400D01*
X5963039Y-18263400D02*
X5943991Y-18253876D01*
X5943991Y-18253876D02*
X5934467Y-18244352D01*
X5934467Y-18244352D02*
X5924943Y-18225304D01*
X5924943Y-18225304D02*
X5915420Y-18187209D01*
X5915420Y-18187209D02*
X5915420Y-18139590D01*
X5915420Y-18139590D02*
X5924943Y-18101495D01*
X5924943Y-18101495D02*
X5934467Y-18082447D01*
X5934467Y-18082447D02*
X5943991Y-18072923D01*
X5943991Y-18072923D02*
X5963039Y-18063400D01*
X6115420Y-18263400D02*
X6115420Y-18130066D01*
X6115420Y-18149114D02*
X6124943Y-18139590D01*
X6124943Y-18139590D02*
X6143991Y-18130066D01*
X6143991Y-18130066D02*
X6172563Y-18130066D01*
X6172563Y-18130066D02*
X6191610Y-18139590D01*
X6191610Y-18139590D02*
X6201134Y-18158638D01*
X6201134Y-18158638D02*
X6201134Y-18263400D01*
X6201134Y-18158638D02*
X6210658Y-18139590D01*
X6210658Y-18139590D02*
X6229705Y-18130066D01*
X6229705Y-18130066D02*
X6258277Y-18130066D01*
X6258277Y-18130066D02*
X6277324Y-18139590D01*
X6277324Y-18139590D02*
X6286848Y-18158638D01*
X6286848Y-18158638D02*
X6286848Y-18263400D01*
X6382086Y-18263400D02*
X6382086Y-18130066D01*
X6382086Y-18149114D02*
X6391610Y-18139590D01*
X6391610Y-18139590D02*
X6410658Y-18130066D01*
X6410658Y-18130066D02*
X6439229Y-18130066D01*
X6439229Y-18130066D02*
X6458277Y-18139590D01*
X6458277Y-18139590D02*
X6467801Y-18158638D01*
X6467801Y-18158638D02*
X6467801Y-18263400D01*
X6467801Y-18158638D02*
X6477324Y-18139590D01*
X6477324Y-18139590D02*
X6496372Y-18130066D01*
X6496372Y-18130066D02*
X6524943Y-18130066D01*
X6524943Y-18130066D02*
X6543991Y-18139590D01*
X6543991Y-18139590D02*
X6553515Y-18158638D01*
X6553515Y-18158638D02*
X6553515Y-18263400D01*
X6943991Y-18053876D02*
X6772563Y-18311019D01*
X7201134Y-18063400D02*
X7220182Y-18063400D01*
X7220182Y-18063400D02*
X7239229Y-18072923D01*
X7239229Y-18072923D02*
X7248753Y-18082447D01*
X7248753Y-18082447D02*
X7258277Y-18101495D01*
X7258277Y-18101495D02*
X7267801Y-18139590D01*
X7267801Y-18139590D02*
X7267801Y-18187209D01*
X7267801Y-18187209D02*
X7258277Y-18225304D01*
X7258277Y-18225304D02*
X7248753Y-18244352D01*
X7248753Y-18244352D02*
X7239229Y-18253876D01*
X7239229Y-18253876D02*
X7220182Y-18263400D01*
X7220182Y-18263400D02*
X7201134Y-18263400D01*
X7201134Y-18263400D02*
X7182086Y-18253876D01*
X7182086Y-18253876D02*
X7172563Y-18244352D01*
X7172563Y-18244352D02*
X7163039Y-18225304D01*
X7163039Y-18225304D02*
X7153515Y-18187209D01*
X7153515Y-18187209D02*
X7153515Y-18139590D01*
X7153515Y-18139590D02*
X7163039Y-18101495D01*
X7163039Y-18101495D02*
X7172563Y-18082447D01*
X7172563Y-18082447D02*
X7182086Y-18072923D01*
X7182086Y-18072923D02*
X7201134Y-18063400D01*
X7363039Y-18253876D02*
X7363039Y-18263400D01*
X7363039Y-18263400D02*
X7353515Y-18282447D01*
X7353515Y-18282447D02*
X7343991Y-18291971D01*
X7486848Y-18063400D02*
X7505896Y-18063400D01*
X7505896Y-18063400D02*
X7524944Y-18072923D01*
X7524944Y-18072923D02*
X7534467Y-18082447D01*
X7534467Y-18082447D02*
X7543991Y-18101495D01*
X7543991Y-18101495D02*
X7553515Y-18139590D01*
X7553515Y-18139590D02*
X7553515Y-18187209D01*
X7553515Y-18187209D02*
X7543991Y-18225304D01*
X7543991Y-18225304D02*
X7534467Y-18244352D01*
X7534467Y-18244352D02*
X7524944Y-18253876D01*
X7524944Y-18253876D02*
X7505896Y-18263400D01*
X7505896Y-18263400D02*
X7486848Y-18263400D01*
X7486848Y-18263400D02*
X7467801Y-18253876D01*
X7467801Y-18253876D02*
X7458277Y-18244352D01*
X7458277Y-18244352D02*
X7448753Y-18225304D01*
X7448753Y-18225304D02*
X7439229Y-18187209D01*
X7439229Y-18187209D02*
X7439229Y-18139590D01*
X7439229Y-18139590D02*
X7448753Y-18101495D01*
X7448753Y-18101495D02*
X7458277Y-18082447D01*
X7458277Y-18082447D02*
X7467801Y-18072923D01*
X7467801Y-18072923D02*
X7486848Y-18063400D01*
X7620182Y-18063400D02*
X7743991Y-18063400D01*
X7743991Y-18063400D02*
X7677325Y-18139590D01*
X7677325Y-18139590D02*
X7705896Y-18139590D01*
X7705896Y-18139590D02*
X7724944Y-18149114D01*
X7724944Y-18149114D02*
X7734467Y-18158638D01*
X7734467Y-18158638D02*
X7743991Y-18177685D01*
X7743991Y-18177685D02*
X7743991Y-18225304D01*
X7743991Y-18225304D02*
X7734467Y-18244352D01*
X7734467Y-18244352D02*
X7724944Y-18253876D01*
X7724944Y-18253876D02*
X7705896Y-18263400D01*
X7705896Y-18263400D02*
X7648753Y-18263400D01*
X7648753Y-18263400D02*
X7629706Y-18253876D01*
X7629706Y-18253876D02*
X7620182Y-18244352D01*
X7839229Y-18263400D02*
X7877325Y-18263400D01*
X7877325Y-18263400D02*
X7896372Y-18253876D01*
X7896372Y-18253876D02*
X7905896Y-18244352D01*
X7905896Y-18244352D02*
X7924944Y-18215780D01*
X7924944Y-18215780D02*
X7934467Y-18177685D01*
X7934467Y-18177685D02*
X7934467Y-18101495D01*
X7934467Y-18101495D02*
X7924944Y-18082447D01*
X7924944Y-18082447D02*
X7915420Y-18072923D01*
X7915420Y-18072923D02*
X7896372Y-18063400D01*
X7896372Y-18063400D02*
X7858277Y-18063400D01*
X7858277Y-18063400D02*
X7839229Y-18072923D01*
X7839229Y-18072923D02*
X7829706Y-18082447D01*
X7829706Y-18082447D02*
X7820182Y-18101495D01*
X7820182Y-18101495D02*
X7820182Y-18149114D01*
X7820182Y-18149114D02*
X7829706Y-18168161D01*
X7829706Y-18168161D02*
X7839229Y-18177685D01*
X7839229Y-18177685D02*
X7858277Y-18187209D01*
X7858277Y-18187209D02*
X7896372Y-18187209D01*
X7896372Y-18187209D02*
X7915420Y-18177685D01*
X7915420Y-18177685D02*
X7924944Y-18168161D01*
X7924944Y-18168161D02*
X7934467Y-18149114D01*
X8105896Y-18130066D02*
X8105896Y-18263400D01*
X8058277Y-18053876D02*
X8010658Y-18196733D01*
X8010658Y-18196733D02*
X8134467Y-18196733D01*
X8201134Y-18063400D02*
X8201134Y-18101495D01*
X8277325Y-18063400D02*
X8277325Y-18101495D01*
X8572563Y-18339590D02*
X8563039Y-18330066D01*
X8563039Y-18330066D02*
X8543991Y-18301495D01*
X8543991Y-18301495D02*
X8534468Y-18282447D01*
X8534468Y-18282447D02*
X8524944Y-18253876D01*
X8524944Y-18253876D02*
X8515420Y-18206257D01*
X8515420Y-18206257D02*
X8515420Y-18168161D01*
X8515420Y-18168161D02*
X8524944Y-18120542D01*
X8524944Y-18120542D02*
X8534468Y-18091971D01*
X8534468Y-18091971D02*
X8543991Y-18072923D01*
X8543991Y-18072923D02*
X8563039Y-18044352D01*
X8563039Y-18044352D02*
X8572563Y-18034828D01*
X8629706Y-18063400D02*
X8753515Y-18063400D01*
X8753515Y-18063400D02*
X8686849Y-18139590D01*
X8686849Y-18139590D02*
X8715420Y-18139590D01*
X8715420Y-18139590D02*
X8734468Y-18149114D01*
X8734468Y-18149114D02*
X8743991Y-18158638D01*
X8743991Y-18158638D02*
X8753515Y-18177685D01*
X8753515Y-18177685D02*
X8753515Y-18225304D01*
X8753515Y-18225304D02*
X8743991Y-18244352D01*
X8743991Y-18244352D02*
X8734468Y-18253876D01*
X8734468Y-18253876D02*
X8715420Y-18263400D01*
X8715420Y-18263400D02*
X8658277Y-18263400D01*
X8658277Y-18263400D02*
X8639230Y-18253876D01*
X8639230Y-18253876D02*
X8629706Y-18244352D01*
X8991611Y-18263400D02*
X8991611Y-18063400D01*
X9077325Y-18263400D02*
X9077325Y-18158638D01*
X9077325Y-18158638D02*
X9067801Y-18139590D01*
X9067801Y-18139590D02*
X9048753Y-18130066D01*
X9048753Y-18130066D02*
X9020182Y-18130066D01*
X9020182Y-18130066D02*
X9001134Y-18139590D01*
X9001134Y-18139590D02*
X8991611Y-18149114D01*
X9201134Y-18263400D02*
X9182087Y-18253876D01*
X9182087Y-18253876D02*
X9172563Y-18244352D01*
X9172563Y-18244352D02*
X9163039Y-18225304D01*
X9163039Y-18225304D02*
X9163039Y-18168161D01*
X9163039Y-18168161D02*
X9172563Y-18149114D01*
X9172563Y-18149114D02*
X9182087Y-18139590D01*
X9182087Y-18139590D02*
X9201134Y-18130066D01*
X9201134Y-18130066D02*
X9229706Y-18130066D01*
X9229706Y-18130066D02*
X9248753Y-18139590D01*
X9248753Y-18139590D02*
X9258277Y-18149114D01*
X9258277Y-18149114D02*
X9267801Y-18168161D01*
X9267801Y-18168161D02*
X9267801Y-18225304D01*
X9267801Y-18225304D02*
X9258277Y-18244352D01*
X9258277Y-18244352D02*
X9248753Y-18253876D01*
X9248753Y-18253876D02*
X9229706Y-18263400D01*
X9229706Y-18263400D02*
X9201134Y-18263400D01*
X9382087Y-18263400D02*
X9363039Y-18253876D01*
X9363039Y-18253876D02*
X9353515Y-18234828D01*
X9353515Y-18234828D02*
X9353515Y-18063400D01*
X9534468Y-18253876D02*
X9515420Y-18263400D01*
X9515420Y-18263400D02*
X9477325Y-18263400D01*
X9477325Y-18263400D02*
X9458277Y-18253876D01*
X9458277Y-18253876D02*
X9448753Y-18234828D01*
X9448753Y-18234828D02*
X9448753Y-18158638D01*
X9448753Y-18158638D02*
X9458277Y-18139590D01*
X9458277Y-18139590D02*
X9477325Y-18130066D01*
X9477325Y-18130066D02*
X9515420Y-18130066D01*
X9515420Y-18130066D02*
X9534468Y-18139590D01*
X9534468Y-18139590D02*
X9543992Y-18158638D01*
X9543992Y-18158638D02*
X9543992Y-18177685D01*
X9543992Y-18177685D02*
X9448753Y-18196733D01*
X9620182Y-18253876D02*
X9639230Y-18263400D01*
X9639230Y-18263400D02*
X9677325Y-18263400D01*
X9677325Y-18263400D02*
X9696373Y-18253876D01*
X9696373Y-18253876D02*
X9705896Y-18234828D01*
X9705896Y-18234828D02*
X9705896Y-18225304D01*
X9705896Y-18225304D02*
X9696373Y-18206257D01*
X9696373Y-18206257D02*
X9677325Y-18196733D01*
X9677325Y-18196733D02*
X9648753Y-18196733D01*
X9648753Y-18196733D02*
X9629706Y-18187209D01*
X9629706Y-18187209D02*
X9620182Y-18168161D01*
X9620182Y-18168161D02*
X9620182Y-18158638D01*
X9620182Y-18158638D02*
X9629706Y-18139590D01*
X9629706Y-18139590D02*
X9648753Y-18130066D01*
X9648753Y-18130066D02*
X9677325Y-18130066D01*
X9677325Y-18130066D02*
X9696373Y-18139590D01*
X9772563Y-18339590D02*
X9782087Y-18330066D01*
X9782087Y-18330066D02*
X9801134Y-18301495D01*
X9801134Y-18301495D02*
X9810658Y-18282447D01*
X9810658Y-18282447D02*
X9820182Y-18253876D01*
X9820182Y-18253876D02*
X9829706Y-18206257D01*
X9829706Y-18206257D02*
X9829706Y-18168161D01*
X9829706Y-18168161D02*
X9820182Y-18120542D01*
X9820182Y-18120542D02*
X9810658Y-18091971D01*
X9810658Y-18091971D02*
X9801134Y-18072923D01*
X9801134Y-18072923D02*
X9782087Y-18044352D01*
X9782087Y-18044352D02*
X9772563Y-18034828D01*
D13*
X4981391Y-18474807D02*
X4981391Y-18397025D01*
X4903609Y-18397025D01*
X4903609Y-18474807D01*
X4981391Y-18474807D01*
D11*
X5363039Y-18527400D02*
X5248753Y-18527400D01*
X5305896Y-18527400D02*
X5305896Y-18327400D01*
X5305896Y-18327400D02*
X5286848Y-18355971D01*
X5286848Y-18355971D02*
X5267801Y-18375019D01*
X5267801Y-18375019D02*
X5248753Y-18384542D01*
X5458277Y-18517876D02*
X5458277Y-18527400D01*
X5458277Y-18527400D02*
X5448753Y-18546447D01*
X5448753Y-18546447D02*
X5439229Y-18555971D01*
X5648753Y-18527400D02*
X5534467Y-18527400D01*
X5591610Y-18527400D02*
X5591610Y-18327400D01*
X5591610Y-18327400D02*
X5572563Y-18355971D01*
X5572563Y-18355971D02*
X5553515Y-18375019D01*
X5553515Y-18375019D02*
X5534467Y-18384542D01*
X5772562Y-18327400D02*
X5791610Y-18327400D01*
X5791610Y-18327400D02*
X5810658Y-18336923D01*
X5810658Y-18336923D02*
X5820182Y-18346447D01*
X5820182Y-18346447D02*
X5829705Y-18365495D01*
X5829705Y-18365495D02*
X5839229Y-18403590D01*
X5839229Y-18403590D02*
X5839229Y-18451209D01*
X5839229Y-18451209D02*
X5829705Y-18489304D01*
X5829705Y-18489304D02*
X5820182Y-18508352D01*
X5820182Y-18508352D02*
X5810658Y-18517876D01*
X5810658Y-18517876D02*
X5791610Y-18527400D01*
X5791610Y-18527400D02*
X5772562Y-18527400D01*
X5772562Y-18527400D02*
X5753515Y-18517876D01*
X5753515Y-18517876D02*
X5743991Y-18508352D01*
X5743991Y-18508352D02*
X5734467Y-18489304D01*
X5734467Y-18489304D02*
X5724943Y-18451209D01*
X5724943Y-18451209D02*
X5724943Y-18403590D01*
X5724943Y-18403590D02*
X5734467Y-18365495D01*
X5734467Y-18365495D02*
X5743991Y-18346447D01*
X5743991Y-18346447D02*
X5753515Y-18336923D01*
X5753515Y-18336923D02*
X5772562Y-18327400D01*
X5963039Y-18327400D02*
X5982086Y-18327400D01*
X5982086Y-18327400D02*
X6001134Y-18336923D01*
X6001134Y-18336923D02*
X6010658Y-18346447D01*
X6010658Y-18346447D02*
X6020182Y-18365495D01*
X6020182Y-18365495D02*
X6029705Y-18403590D01*
X6029705Y-18403590D02*
X6029705Y-18451209D01*
X6029705Y-18451209D02*
X6020182Y-18489304D01*
X6020182Y-18489304D02*
X6010658Y-18508352D01*
X6010658Y-18508352D02*
X6001134Y-18517876D01*
X6001134Y-18517876D02*
X5982086Y-18527400D01*
X5982086Y-18527400D02*
X5963039Y-18527400D01*
X5963039Y-18527400D02*
X5943991Y-18517876D01*
X5943991Y-18517876D02*
X5934467Y-18508352D01*
X5934467Y-18508352D02*
X5924943Y-18489304D01*
X5924943Y-18489304D02*
X5915420Y-18451209D01*
X5915420Y-18451209D02*
X5915420Y-18403590D01*
X5915420Y-18403590D02*
X5924943Y-18365495D01*
X5924943Y-18365495D02*
X5934467Y-18346447D01*
X5934467Y-18346447D02*
X5943991Y-18336923D01*
X5943991Y-18336923D02*
X5963039Y-18327400D01*
X6115420Y-18527400D02*
X6115420Y-18394066D01*
X6115420Y-18413114D02*
X6124943Y-18403590D01*
X6124943Y-18403590D02*
X6143991Y-18394066D01*
X6143991Y-18394066D02*
X6172563Y-18394066D01*
X6172563Y-18394066D02*
X6191610Y-18403590D01*
X6191610Y-18403590D02*
X6201134Y-18422638D01*
X6201134Y-18422638D02*
X6201134Y-18527400D01*
X6201134Y-18422638D02*
X6210658Y-18403590D01*
X6210658Y-18403590D02*
X6229705Y-18394066D01*
X6229705Y-18394066D02*
X6258277Y-18394066D01*
X6258277Y-18394066D02*
X6277324Y-18403590D01*
X6277324Y-18403590D02*
X6286848Y-18422638D01*
X6286848Y-18422638D02*
X6286848Y-18527400D01*
X6382086Y-18527400D02*
X6382086Y-18394066D01*
X6382086Y-18413114D02*
X6391610Y-18403590D01*
X6391610Y-18403590D02*
X6410658Y-18394066D01*
X6410658Y-18394066D02*
X6439229Y-18394066D01*
X6439229Y-18394066D02*
X6458277Y-18403590D01*
X6458277Y-18403590D02*
X6467801Y-18422638D01*
X6467801Y-18422638D02*
X6467801Y-18527400D01*
X6467801Y-18422638D02*
X6477324Y-18403590D01*
X6477324Y-18403590D02*
X6496372Y-18394066D01*
X6496372Y-18394066D02*
X6524943Y-18394066D01*
X6524943Y-18394066D02*
X6543991Y-18403590D01*
X6543991Y-18403590D02*
X6553515Y-18422638D01*
X6553515Y-18422638D02*
X6553515Y-18527400D01*
X6943991Y-18317876D02*
X6772563Y-18575019D01*
X7201134Y-18327400D02*
X7220182Y-18327400D01*
X7220182Y-18327400D02*
X7239229Y-18336923D01*
X7239229Y-18336923D02*
X7248753Y-18346447D01*
X7248753Y-18346447D02*
X7258277Y-18365495D01*
X7258277Y-18365495D02*
X7267801Y-18403590D01*
X7267801Y-18403590D02*
X7267801Y-18451209D01*
X7267801Y-18451209D02*
X7258277Y-18489304D01*
X7258277Y-18489304D02*
X7248753Y-18508352D01*
X7248753Y-18508352D02*
X7239229Y-18517876D01*
X7239229Y-18517876D02*
X7220182Y-18527400D01*
X7220182Y-18527400D02*
X7201134Y-18527400D01*
X7201134Y-18527400D02*
X7182086Y-18517876D01*
X7182086Y-18517876D02*
X7172563Y-18508352D01*
X7172563Y-18508352D02*
X7163039Y-18489304D01*
X7163039Y-18489304D02*
X7153515Y-18451209D01*
X7153515Y-18451209D02*
X7153515Y-18403590D01*
X7153515Y-18403590D02*
X7163039Y-18365495D01*
X7163039Y-18365495D02*
X7172563Y-18346447D01*
X7172563Y-18346447D02*
X7182086Y-18336923D01*
X7182086Y-18336923D02*
X7201134Y-18327400D01*
X7363039Y-18517876D02*
X7363039Y-18527400D01*
X7363039Y-18527400D02*
X7353515Y-18546447D01*
X7353515Y-18546447D02*
X7343991Y-18555971D01*
X7486848Y-18327400D02*
X7505896Y-18327400D01*
X7505896Y-18327400D02*
X7524944Y-18336923D01*
X7524944Y-18336923D02*
X7534467Y-18346447D01*
X7534467Y-18346447D02*
X7543991Y-18365495D01*
X7543991Y-18365495D02*
X7553515Y-18403590D01*
X7553515Y-18403590D02*
X7553515Y-18451209D01*
X7553515Y-18451209D02*
X7543991Y-18489304D01*
X7543991Y-18489304D02*
X7534467Y-18508352D01*
X7534467Y-18508352D02*
X7524944Y-18517876D01*
X7524944Y-18517876D02*
X7505896Y-18527400D01*
X7505896Y-18527400D02*
X7486848Y-18527400D01*
X7486848Y-18527400D02*
X7467801Y-18517876D01*
X7467801Y-18517876D02*
X7458277Y-18508352D01*
X7458277Y-18508352D02*
X7448753Y-18489304D01*
X7448753Y-18489304D02*
X7439229Y-18451209D01*
X7439229Y-18451209D02*
X7439229Y-18403590D01*
X7439229Y-18403590D02*
X7448753Y-18365495D01*
X7448753Y-18365495D02*
X7458277Y-18346447D01*
X7458277Y-18346447D02*
X7467801Y-18336923D01*
X7467801Y-18336923D02*
X7486848Y-18327400D01*
X7724944Y-18394066D02*
X7724944Y-18527400D01*
X7677325Y-18317876D02*
X7629706Y-18460733D01*
X7629706Y-18460733D02*
X7753515Y-18460733D01*
X7810658Y-18327400D02*
X7934467Y-18327400D01*
X7934467Y-18327400D02*
X7867801Y-18403590D01*
X7867801Y-18403590D02*
X7896372Y-18403590D01*
X7896372Y-18403590D02*
X7915420Y-18413114D01*
X7915420Y-18413114D02*
X7924944Y-18422638D01*
X7924944Y-18422638D02*
X7934467Y-18441685D01*
X7934467Y-18441685D02*
X7934467Y-18489304D01*
X7934467Y-18489304D02*
X7924944Y-18508352D01*
X7924944Y-18508352D02*
X7915420Y-18517876D01*
X7915420Y-18517876D02*
X7896372Y-18527400D01*
X7896372Y-18527400D02*
X7839229Y-18527400D01*
X7839229Y-18527400D02*
X7820182Y-18517876D01*
X7820182Y-18517876D02*
X7810658Y-18508352D01*
X8001134Y-18327400D02*
X8124944Y-18327400D01*
X8124944Y-18327400D02*
X8058277Y-18403590D01*
X8058277Y-18403590D02*
X8086848Y-18403590D01*
X8086848Y-18403590D02*
X8105896Y-18413114D01*
X8105896Y-18413114D02*
X8115420Y-18422638D01*
X8115420Y-18422638D02*
X8124944Y-18441685D01*
X8124944Y-18441685D02*
X8124944Y-18489304D01*
X8124944Y-18489304D02*
X8115420Y-18508352D01*
X8115420Y-18508352D02*
X8105896Y-18517876D01*
X8105896Y-18517876D02*
X8086848Y-18527400D01*
X8086848Y-18527400D02*
X8029706Y-18527400D01*
X8029706Y-18527400D02*
X8010658Y-18517876D01*
X8010658Y-18517876D02*
X8001134Y-18508352D01*
X8201134Y-18327400D02*
X8201134Y-18365495D01*
X8277325Y-18327400D02*
X8277325Y-18365495D01*
X8572563Y-18603590D02*
X8563039Y-18594066D01*
X8563039Y-18594066D02*
X8543991Y-18565495D01*
X8543991Y-18565495D02*
X8534468Y-18546447D01*
X8534468Y-18546447D02*
X8524944Y-18517876D01*
X8524944Y-18517876D02*
X8515420Y-18470257D01*
X8515420Y-18470257D02*
X8515420Y-18432161D01*
X8515420Y-18432161D02*
X8524944Y-18384542D01*
X8524944Y-18384542D02*
X8534468Y-18355971D01*
X8534468Y-18355971D02*
X8543991Y-18336923D01*
X8543991Y-18336923D02*
X8563039Y-18308352D01*
X8563039Y-18308352D02*
X8572563Y-18298828D01*
X8639230Y-18346447D02*
X8648753Y-18336923D01*
X8648753Y-18336923D02*
X8667801Y-18327400D01*
X8667801Y-18327400D02*
X8715420Y-18327400D01*
X8715420Y-18327400D02*
X8734468Y-18336923D01*
X8734468Y-18336923D02*
X8743991Y-18346447D01*
X8743991Y-18346447D02*
X8753515Y-18365495D01*
X8753515Y-18365495D02*
X8753515Y-18384542D01*
X8753515Y-18384542D02*
X8743991Y-18413114D01*
X8743991Y-18413114D02*
X8629706Y-18527400D01*
X8629706Y-18527400D02*
X8753515Y-18527400D01*
X8991611Y-18527400D02*
X8991611Y-18327400D01*
X9077325Y-18527400D02*
X9077325Y-18422638D01*
X9077325Y-18422638D02*
X9067801Y-18403590D01*
X9067801Y-18403590D02*
X9048753Y-18394066D01*
X9048753Y-18394066D02*
X9020182Y-18394066D01*
X9020182Y-18394066D02*
X9001134Y-18403590D01*
X9001134Y-18403590D02*
X8991611Y-18413114D01*
X9201134Y-18527400D02*
X9182087Y-18517876D01*
X9182087Y-18517876D02*
X9172563Y-18508352D01*
X9172563Y-18508352D02*
X9163039Y-18489304D01*
X9163039Y-18489304D02*
X9163039Y-18432161D01*
X9163039Y-18432161D02*
X9172563Y-18413114D01*
X9172563Y-18413114D02*
X9182087Y-18403590D01*
X9182087Y-18403590D02*
X9201134Y-18394066D01*
X9201134Y-18394066D02*
X9229706Y-18394066D01*
X9229706Y-18394066D02*
X9248753Y-18403590D01*
X9248753Y-18403590D02*
X9258277Y-18413114D01*
X9258277Y-18413114D02*
X9267801Y-18432161D01*
X9267801Y-18432161D02*
X9267801Y-18489304D01*
X9267801Y-18489304D02*
X9258277Y-18508352D01*
X9258277Y-18508352D02*
X9248753Y-18517876D01*
X9248753Y-18517876D02*
X9229706Y-18527400D01*
X9229706Y-18527400D02*
X9201134Y-18527400D01*
X9382087Y-18527400D02*
X9363039Y-18517876D01*
X9363039Y-18517876D02*
X9353515Y-18498828D01*
X9353515Y-18498828D02*
X9353515Y-18327400D01*
X9534468Y-18517876D02*
X9515420Y-18527400D01*
X9515420Y-18527400D02*
X9477325Y-18527400D01*
X9477325Y-18527400D02*
X9458277Y-18517876D01*
X9458277Y-18517876D02*
X9448753Y-18498828D01*
X9448753Y-18498828D02*
X9448753Y-18422638D01*
X9448753Y-18422638D02*
X9458277Y-18403590D01*
X9458277Y-18403590D02*
X9477325Y-18394066D01*
X9477325Y-18394066D02*
X9515420Y-18394066D01*
X9515420Y-18394066D02*
X9534468Y-18403590D01*
X9534468Y-18403590D02*
X9543992Y-18422638D01*
X9543992Y-18422638D02*
X9543992Y-18441685D01*
X9543992Y-18441685D02*
X9448753Y-18460733D01*
X9620182Y-18517876D02*
X9639230Y-18527400D01*
X9639230Y-18527400D02*
X9677325Y-18527400D01*
X9677325Y-18527400D02*
X9696373Y-18517876D01*
X9696373Y-18517876D02*
X9705896Y-18498828D01*
X9705896Y-18498828D02*
X9705896Y-18489304D01*
X9705896Y-18489304D02*
X9696373Y-18470257D01*
X9696373Y-18470257D02*
X9677325Y-18460733D01*
X9677325Y-18460733D02*
X9648753Y-18460733D01*
X9648753Y-18460733D02*
X9629706Y-18451209D01*
X9629706Y-18451209D02*
X9620182Y-18432161D01*
X9620182Y-18432161D02*
X9620182Y-18422638D01*
X9620182Y-18422638D02*
X9629706Y-18403590D01*
X9629706Y-18403590D02*
X9648753Y-18394066D01*
X9648753Y-18394066D02*
X9677325Y-18394066D01*
X9677325Y-18394066D02*
X9696373Y-18403590D01*
X9772563Y-18603590D02*
X9782087Y-18594066D01*
X9782087Y-18594066D02*
X9801134Y-18565495D01*
X9801134Y-18565495D02*
X9810658Y-18546447D01*
X9810658Y-18546447D02*
X9820182Y-18517876D01*
X9820182Y-18517876D02*
X9829706Y-18470257D01*
X9829706Y-18470257D02*
X9829706Y-18432161D01*
X9829706Y-18432161D02*
X9820182Y-18384542D01*
X9820182Y-18384542D02*
X9810658Y-18355971D01*
X9810658Y-18355971D02*
X9801134Y-18336923D01*
X9801134Y-18336923D02*
X9782087Y-18308352D01*
X9782087Y-18308352D02*
X9772563Y-18298828D01*
D14*
X4932500Y-18764916D02*
X4997500Y-18699916D01*
X4932500Y-18634916D01*
X4867500Y-18699916D01*
X4932500Y-18764916D01*
D11*
X5363039Y-18791400D02*
X5248753Y-18791400D01*
X5305896Y-18791400D02*
X5305896Y-18591400D01*
X5305896Y-18591400D02*
X5286848Y-18619971D01*
X5286848Y-18619971D02*
X5267801Y-18639019D01*
X5267801Y-18639019D02*
X5248753Y-18648542D01*
X5458277Y-18781876D02*
X5458277Y-18791400D01*
X5458277Y-18791400D02*
X5448753Y-18810447D01*
X5448753Y-18810447D02*
X5439229Y-18819971D01*
X5524944Y-18591400D02*
X5648753Y-18591400D01*
X5648753Y-18591400D02*
X5582086Y-18667590D01*
X5582086Y-18667590D02*
X5610658Y-18667590D01*
X5610658Y-18667590D02*
X5629705Y-18677114D01*
X5629705Y-18677114D02*
X5639229Y-18686638D01*
X5639229Y-18686638D02*
X5648753Y-18705685D01*
X5648753Y-18705685D02*
X5648753Y-18753304D01*
X5648753Y-18753304D02*
X5639229Y-18772352D01*
X5639229Y-18772352D02*
X5629705Y-18781876D01*
X5629705Y-18781876D02*
X5610658Y-18791400D01*
X5610658Y-18791400D02*
X5553515Y-18791400D01*
X5553515Y-18791400D02*
X5534467Y-18781876D01*
X5534467Y-18781876D02*
X5524944Y-18772352D01*
X5772562Y-18591400D02*
X5791610Y-18591400D01*
X5791610Y-18591400D02*
X5810658Y-18600923D01*
X5810658Y-18600923D02*
X5820182Y-18610447D01*
X5820182Y-18610447D02*
X5829705Y-18629495D01*
X5829705Y-18629495D02*
X5839229Y-18667590D01*
X5839229Y-18667590D02*
X5839229Y-18715209D01*
X5839229Y-18715209D02*
X5829705Y-18753304D01*
X5829705Y-18753304D02*
X5820182Y-18772352D01*
X5820182Y-18772352D02*
X5810658Y-18781876D01*
X5810658Y-18781876D02*
X5791610Y-18791400D01*
X5791610Y-18791400D02*
X5772562Y-18791400D01*
X5772562Y-18791400D02*
X5753515Y-18781876D01*
X5753515Y-18781876D02*
X5743991Y-18772352D01*
X5743991Y-18772352D02*
X5734467Y-18753304D01*
X5734467Y-18753304D02*
X5724943Y-18715209D01*
X5724943Y-18715209D02*
X5724943Y-18667590D01*
X5724943Y-18667590D02*
X5734467Y-18629495D01*
X5734467Y-18629495D02*
X5743991Y-18610447D01*
X5743991Y-18610447D02*
X5753515Y-18600923D01*
X5753515Y-18600923D02*
X5772562Y-18591400D01*
X5963039Y-18591400D02*
X5982086Y-18591400D01*
X5982086Y-18591400D02*
X6001134Y-18600923D01*
X6001134Y-18600923D02*
X6010658Y-18610447D01*
X6010658Y-18610447D02*
X6020182Y-18629495D01*
X6020182Y-18629495D02*
X6029705Y-18667590D01*
X6029705Y-18667590D02*
X6029705Y-18715209D01*
X6029705Y-18715209D02*
X6020182Y-18753304D01*
X6020182Y-18753304D02*
X6010658Y-18772352D01*
X6010658Y-18772352D02*
X6001134Y-18781876D01*
X6001134Y-18781876D02*
X5982086Y-18791400D01*
X5982086Y-18791400D02*
X5963039Y-18791400D01*
X5963039Y-18791400D02*
X5943991Y-18781876D01*
X5943991Y-18781876D02*
X5934467Y-18772352D01*
X5934467Y-18772352D02*
X5924943Y-18753304D01*
X5924943Y-18753304D02*
X5915420Y-18715209D01*
X5915420Y-18715209D02*
X5915420Y-18667590D01*
X5915420Y-18667590D02*
X5924943Y-18629495D01*
X5924943Y-18629495D02*
X5934467Y-18610447D01*
X5934467Y-18610447D02*
X5943991Y-18600923D01*
X5943991Y-18600923D02*
X5963039Y-18591400D01*
X6115420Y-18791400D02*
X6115420Y-18658066D01*
X6115420Y-18677114D02*
X6124943Y-18667590D01*
X6124943Y-18667590D02*
X6143991Y-18658066D01*
X6143991Y-18658066D02*
X6172563Y-18658066D01*
X6172563Y-18658066D02*
X6191610Y-18667590D01*
X6191610Y-18667590D02*
X6201134Y-18686638D01*
X6201134Y-18686638D02*
X6201134Y-18791400D01*
X6201134Y-18686638D02*
X6210658Y-18667590D01*
X6210658Y-18667590D02*
X6229705Y-18658066D01*
X6229705Y-18658066D02*
X6258277Y-18658066D01*
X6258277Y-18658066D02*
X6277324Y-18667590D01*
X6277324Y-18667590D02*
X6286848Y-18686638D01*
X6286848Y-18686638D02*
X6286848Y-18791400D01*
X6382086Y-18791400D02*
X6382086Y-18658066D01*
X6382086Y-18677114D02*
X6391610Y-18667590D01*
X6391610Y-18667590D02*
X6410658Y-18658066D01*
X6410658Y-18658066D02*
X6439229Y-18658066D01*
X6439229Y-18658066D02*
X6458277Y-18667590D01*
X6458277Y-18667590D02*
X6467801Y-18686638D01*
X6467801Y-18686638D02*
X6467801Y-18791400D01*
X6467801Y-18686638D02*
X6477324Y-18667590D01*
X6477324Y-18667590D02*
X6496372Y-18658066D01*
X6496372Y-18658066D02*
X6524943Y-18658066D01*
X6524943Y-18658066D02*
X6543991Y-18667590D01*
X6543991Y-18667590D02*
X6553515Y-18686638D01*
X6553515Y-18686638D02*
X6553515Y-18791400D01*
X6943991Y-18581876D02*
X6772563Y-18839019D01*
X7201134Y-18591400D02*
X7220182Y-18591400D01*
X7220182Y-18591400D02*
X7239229Y-18600923D01*
X7239229Y-18600923D02*
X7248753Y-18610447D01*
X7248753Y-18610447D02*
X7258277Y-18629495D01*
X7258277Y-18629495D02*
X7267801Y-18667590D01*
X7267801Y-18667590D02*
X7267801Y-18715209D01*
X7267801Y-18715209D02*
X7258277Y-18753304D01*
X7258277Y-18753304D02*
X7248753Y-18772352D01*
X7248753Y-18772352D02*
X7239229Y-18781876D01*
X7239229Y-18781876D02*
X7220182Y-18791400D01*
X7220182Y-18791400D02*
X7201134Y-18791400D01*
X7201134Y-18791400D02*
X7182086Y-18781876D01*
X7182086Y-18781876D02*
X7172563Y-18772352D01*
X7172563Y-18772352D02*
X7163039Y-18753304D01*
X7163039Y-18753304D02*
X7153515Y-18715209D01*
X7153515Y-18715209D02*
X7153515Y-18667590D01*
X7153515Y-18667590D02*
X7163039Y-18629495D01*
X7163039Y-18629495D02*
X7172563Y-18610447D01*
X7172563Y-18610447D02*
X7182086Y-18600923D01*
X7182086Y-18600923D02*
X7201134Y-18591400D01*
X7363039Y-18781876D02*
X7363039Y-18791400D01*
X7363039Y-18791400D02*
X7353515Y-18810447D01*
X7353515Y-18810447D02*
X7343991Y-18819971D01*
X7486848Y-18591400D02*
X7505896Y-18591400D01*
X7505896Y-18591400D02*
X7524944Y-18600923D01*
X7524944Y-18600923D02*
X7534467Y-18610447D01*
X7534467Y-18610447D02*
X7543991Y-18629495D01*
X7543991Y-18629495D02*
X7553515Y-18667590D01*
X7553515Y-18667590D02*
X7553515Y-18715209D01*
X7553515Y-18715209D02*
X7543991Y-18753304D01*
X7543991Y-18753304D02*
X7534467Y-18772352D01*
X7534467Y-18772352D02*
X7524944Y-18781876D01*
X7524944Y-18781876D02*
X7505896Y-18791400D01*
X7505896Y-18791400D02*
X7486848Y-18791400D01*
X7486848Y-18791400D02*
X7467801Y-18781876D01*
X7467801Y-18781876D02*
X7458277Y-18772352D01*
X7458277Y-18772352D02*
X7448753Y-18753304D01*
X7448753Y-18753304D02*
X7439229Y-18715209D01*
X7439229Y-18715209D02*
X7439229Y-18667590D01*
X7439229Y-18667590D02*
X7448753Y-18629495D01*
X7448753Y-18629495D02*
X7458277Y-18610447D01*
X7458277Y-18610447D02*
X7467801Y-18600923D01*
X7467801Y-18600923D02*
X7486848Y-18591400D01*
X7734467Y-18591400D02*
X7639229Y-18591400D01*
X7639229Y-18591400D02*
X7629706Y-18686638D01*
X7629706Y-18686638D02*
X7639229Y-18677114D01*
X7639229Y-18677114D02*
X7658277Y-18667590D01*
X7658277Y-18667590D02*
X7705896Y-18667590D01*
X7705896Y-18667590D02*
X7724944Y-18677114D01*
X7724944Y-18677114D02*
X7734467Y-18686638D01*
X7734467Y-18686638D02*
X7743991Y-18705685D01*
X7743991Y-18705685D02*
X7743991Y-18753304D01*
X7743991Y-18753304D02*
X7734467Y-18772352D01*
X7734467Y-18772352D02*
X7724944Y-18781876D01*
X7724944Y-18781876D02*
X7705896Y-18791400D01*
X7705896Y-18791400D02*
X7658277Y-18791400D01*
X7658277Y-18791400D02*
X7639229Y-18781876D01*
X7639229Y-18781876D02*
X7629706Y-18772352D01*
X7934467Y-18791400D02*
X7820182Y-18791400D01*
X7877325Y-18791400D02*
X7877325Y-18591400D01*
X7877325Y-18591400D02*
X7858277Y-18619971D01*
X7858277Y-18619971D02*
X7839229Y-18639019D01*
X7839229Y-18639019D02*
X7820182Y-18648542D01*
X8010658Y-18610447D02*
X8020182Y-18600923D01*
X8020182Y-18600923D02*
X8039229Y-18591400D01*
X8039229Y-18591400D02*
X8086848Y-18591400D01*
X8086848Y-18591400D02*
X8105896Y-18600923D01*
X8105896Y-18600923D02*
X8115420Y-18610447D01*
X8115420Y-18610447D02*
X8124944Y-18629495D01*
X8124944Y-18629495D02*
X8124944Y-18648542D01*
X8124944Y-18648542D02*
X8115420Y-18677114D01*
X8115420Y-18677114D02*
X8001134Y-18791400D01*
X8001134Y-18791400D02*
X8124944Y-18791400D01*
X8201134Y-18591400D02*
X8201134Y-18629495D01*
X8277325Y-18591400D02*
X8277325Y-18629495D01*
X8572563Y-18867590D02*
X8563039Y-18858066D01*
X8563039Y-18858066D02*
X8543991Y-18829495D01*
X8543991Y-18829495D02*
X8534468Y-18810447D01*
X8534468Y-18810447D02*
X8524944Y-18781876D01*
X8524944Y-18781876D02*
X8515420Y-18734257D01*
X8515420Y-18734257D02*
X8515420Y-18696161D01*
X8515420Y-18696161D02*
X8524944Y-18648542D01*
X8524944Y-18648542D02*
X8534468Y-18619971D01*
X8534468Y-18619971D02*
X8543991Y-18600923D01*
X8543991Y-18600923D02*
X8563039Y-18572352D01*
X8563039Y-18572352D02*
X8572563Y-18562828D01*
X8629706Y-18591400D02*
X8753515Y-18591400D01*
X8753515Y-18591400D02*
X8686849Y-18667590D01*
X8686849Y-18667590D02*
X8715420Y-18667590D01*
X8715420Y-18667590D02*
X8734468Y-18677114D01*
X8734468Y-18677114D02*
X8743991Y-18686638D01*
X8743991Y-18686638D02*
X8753515Y-18705685D01*
X8753515Y-18705685D02*
X8753515Y-18753304D01*
X8753515Y-18753304D02*
X8743991Y-18772352D01*
X8743991Y-18772352D02*
X8734468Y-18781876D01*
X8734468Y-18781876D02*
X8715420Y-18791400D01*
X8715420Y-18791400D02*
X8658277Y-18791400D01*
X8658277Y-18791400D02*
X8639230Y-18781876D01*
X8639230Y-18781876D02*
X8629706Y-18772352D01*
X8867801Y-18677114D02*
X8848753Y-18667590D01*
X8848753Y-18667590D02*
X8839230Y-18658066D01*
X8839230Y-18658066D02*
X8829706Y-18639019D01*
X8829706Y-18639019D02*
X8829706Y-18629495D01*
X8829706Y-18629495D02*
X8839230Y-18610447D01*
X8839230Y-18610447D02*
X8848753Y-18600923D01*
X8848753Y-18600923D02*
X8867801Y-18591400D01*
X8867801Y-18591400D02*
X8905896Y-18591400D01*
X8905896Y-18591400D02*
X8924944Y-18600923D01*
X8924944Y-18600923D02*
X8934468Y-18610447D01*
X8934468Y-18610447D02*
X8943991Y-18629495D01*
X8943991Y-18629495D02*
X8943991Y-18639019D01*
X8943991Y-18639019D02*
X8934468Y-18658066D01*
X8934468Y-18658066D02*
X8924944Y-18667590D01*
X8924944Y-18667590D02*
X8905896Y-18677114D01*
X8905896Y-18677114D02*
X8867801Y-18677114D01*
X8867801Y-18677114D02*
X8848753Y-18686638D01*
X8848753Y-18686638D02*
X8839230Y-18696161D01*
X8839230Y-18696161D02*
X8829706Y-18715209D01*
X8829706Y-18715209D02*
X8829706Y-18753304D01*
X8829706Y-18753304D02*
X8839230Y-18772352D01*
X8839230Y-18772352D02*
X8848753Y-18781876D01*
X8848753Y-18781876D02*
X8867801Y-18791400D01*
X8867801Y-18791400D02*
X8905896Y-18791400D01*
X8905896Y-18791400D02*
X8924944Y-18781876D01*
X8924944Y-18781876D02*
X8934468Y-18772352D01*
X8934468Y-18772352D02*
X8943991Y-18753304D01*
X8943991Y-18753304D02*
X8943991Y-18715209D01*
X8943991Y-18715209D02*
X8934468Y-18696161D01*
X8934468Y-18696161D02*
X8924944Y-18686638D01*
X8924944Y-18686638D02*
X8905896Y-18677114D01*
X9182087Y-18791400D02*
X9182087Y-18591400D01*
X9267801Y-18791400D02*
X9267801Y-18686638D01*
X9267801Y-18686638D02*
X9258277Y-18667590D01*
X9258277Y-18667590D02*
X9239230Y-18658066D01*
X9239230Y-18658066D02*
X9210658Y-18658066D01*
X9210658Y-18658066D02*
X9191611Y-18667590D01*
X9191611Y-18667590D02*
X9182087Y-18677114D01*
X9391611Y-18791400D02*
X9372563Y-18781876D01*
X9372563Y-18781876D02*
X9363039Y-18772352D01*
X9363039Y-18772352D02*
X9353515Y-18753304D01*
X9353515Y-18753304D02*
X9353515Y-18696161D01*
X9353515Y-18696161D02*
X9363039Y-18677114D01*
X9363039Y-18677114D02*
X9372563Y-18667590D01*
X9372563Y-18667590D02*
X9391611Y-18658066D01*
X9391611Y-18658066D02*
X9420182Y-18658066D01*
X9420182Y-18658066D02*
X9439230Y-18667590D01*
X9439230Y-18667590D02*
X9448753Y-18677114D01*
X9448753Y-18677114D02*
X9458277Y-18696161D01*
X9458277Y-18696161D02*
X9458277Y-18753304D01*
X9458277Y-18753304D02*
X9448753Y-18772352D01*
X9448753Y-18772352D02*
X9439230Y-18781876D01*
X9439230Y-18781876D02*
X9420182Y-18791400D01*
X9420182Y-18791400D02*
X9391611Y-18791400D01*
X9572563Y-18791400D02*
X9553515Y-18781876D01*
X9553515Y-18781876D02*
X9543992Y-18762828D01*
X9543992Y-18762828D02*
X9543992Y-18591400D01*
X9724944Y-18781876D02*
X9705896Y-18791400D01*
X9705896Y-18791400D02*
X9667801Y-18791400D01*
X9667801Y-18791400D02*
X9648753Y-18781876D01*
X9648753Y-18781876D02*
X9639230Y-18762828D01*
X9639230Y-18762828D02*
X9639230Y-18686638D01*
X9639230Y-18686638D02*
X9648753Y-18667590D01*
X9648753Y-18667590D02*
X9667801Y-18658066D01*
X9667801Y-18658066D02*
X9705896Y-18658066D01*
X9705896Y-18658066D02*
X9724944Y-18667590D01*
X9724944Y-18667590D02*
X9734468Y-18686638D01*
X9734468Y-18686638D02*
X9734468Y-18705685D01*
X9734468Y-18705685D02*
X9639230Y-18724733D01*
X9810658Y-18781876D02*
X9829706Y-18791400D01*
X9829706Y-18791400D02*
X9867801Y-18791400D01*
X9867801Y-18791400D02*
X9886849Y-18781876D01*
X9886849Y-18781876D02*
X9896373Y-18762828D01*
X9896373Y-18762828D02*
X9896373Y-18753304D01*
X9896373Y-18753304D02*
X9886849Y-18734257D01*
X9886849Y-18734257D02*
X9867801Y-18724733D01*
X9867801Y-18724733D02*
X9839230Y-18724733D01*
X9839230Y-18724733D02*
X9820182Y-18715209D01*
X9820182Y-18715209D02*
X9810658Y-18696161D01*
X9810658Y-18696161D02*
X9810658Y-18686638D01*
X9810658Y-18686638D02*
X9820182Y-18667590D01*
X9820182Y-18667590D02*
X9839230Y-18658066D01*
X9839230Y-18658066D02*
X9867801Y-18658066D01*
X9867801Y-18658066D02*
X9886849Y-18667590D01*
X9963039Y-18867590D02*
X9972563Y-18858066D01*
X9972563Y-18858066D02*
X9991611Y-18829495D01*
X9991611Y-18829495D02*
X10001134Y-18810447D01*
X10001134Y-18810447D02*
X10010658Y-18781876D01*
X10010658Y-18781876D02*
X10020182Y-18734257D01*
X10020182Y-18734257D02*
X10020182Y-18696161D01*
X10020182Y-18696161D02*
X10010658Y-18648542D01*
X10010658Y-18648542D02*
X10001134Y-18619971D01*
X10001134Y-18619971D02*
X9991611Y-18600923D01*
X9991611Y-18600923D02*
X9972563Y-18572352D01*
X9972563Y-18572352D02*
X9963039Y-18562828D01*
M02*
