%TF.GenerationSoftware,KiCad,Pcbnew,10.0.6*%
%TF.CreationDate,2026-10-01T20:14:35+02:00*%
%TF.ProjectId,Interface_IAI,496e7465-7266-4616-9365-5f4941492e6b,rev?*%
%TF.SameCoordinates,Original*%
%TF.FileFunction,Copper,L2,Bot*%
%TF.FilePolarity,Positive*%
%FSLAX46Y46*%
G04 Gerber Fmt 4.6, Leading zero omitted, Abs format (unit mm)*
G04 Created by KiCad (PCBNEW 10.0.6) date 2026-10-01 20:14:35*
%MOMM*%
%LPD*%
G01*
G04 APERTURE LIST*
G04 Aperture macros list*
%AMRoundRect*
0 Rectangle with rounded corners*
0 $1 Rounding radius*
0 $2 $3 $4 $5 $6 $7 $8 $9 X,Y pos of 4 corners*
0 Add a 4 corners polygon primitive as box body*
4,1,4,$2,$3,$4,$5,$6,$7,$8,$9,$2,$3,0*
0 Add four circle primitives for the rounded corners*
1,1,$1+$1,$2,$3*
1,1,$1+$1,$4,$5*
1,1,$1+$1,$6,$7*
1,1,$1+$1,$8,$9*
0 Add four rect primitives between the rounded corners*
20,1,$1+$1,$2,$3,$4,$5,0*
20,1,$1+$1,$4,$5,$6,$7,0*
20,1,$1+$1,$6,$7,$8,$9,0*
20,1,$1+$1,$8,$9,$2,$3,0*%
G04 Aperture macros list end*
%TA.AperFunction,ComponentPad*%
%ADD10C,1.600000*%
%TD*%
%TA.AperFunction,ComponentPad*%
%ADD11RoundRect,0.250000X-1.050000X1.050000X-1.050000X-1.050000X1.050000X-1.050000X1.050000X1.050000X0*%
%TD*%
%TA.AperFunction,ComponentPad*%
%ADD12C,2.600000*%
%TD*%
%TA.AperFunction,ComponentPad*%
%ADD13RoundRect,0.250000X1.050000X-1.050000X1.050000X1.050000X-1.050000X1.050000X-1.050000X-1.050000X0*%
%TD*%
%TA.AperFunction,ComponentPad*%
%ADD14RoundRect,0.250000X-0.550000X-0.550000X0.550000X-0.550000X0.550000X0.550000X-0.550000X0.550000X0*%
%TD*%
%TA.AperFunction,ComponentPad*%
%ADD15RoundRect,0.250000X0.550000X0.550000X-0.550000X0.550000X-0.550000X-0.550000X0.550000X-0.550000X0*%
%TD*%
G04 APERTURE END LIST*
D10*
%TO.P,R8,1*%
%TO.N,/A_RX*%
X85910000Y-88310000D03*
%TO.P,R8,2*%
%TO.N,/CNT_A*%
X85910000Y-80690000D03*
%TD*%
D11*
%TO.P,J4,1,P1_1*%
%TO.N,/FB_A_N*%
X59710000Y-77630000D03*
D12*
%TO.P,J4,2,P2_2*%
%TO.N,/FB_A_P*%
X59710000Y-82710000D03*
%TO.P,J4,3,P3_3*%
%TO.N,/FB_B_P*%
X59710000Y-87790000D03*
%TO.P,J4,4,P4_4*%
%TO.N,/FB_B_N*%
X59710000Y-92870000D03*
%TO.P,J4,5,P5_5*%
%TO.N,/FB_Z_P*%
X59710000Y-97950000D03*
%TO.P,J4,6,P6_6*%
%TO.N,/FB_Z_N*%
X59710000Y-103030000D03*
%TO.P,J4,7,P7_7*%
%TO.N,GND*%
X59710000Y-108110000D03*
%TD*%
D10*
%TO.P,C1,1*%
%TO.N,+5V*%
X68300000Y-75340000D03*
%TO.P,C1,2*%
%TO.N,GND*%
X73300000Y-75340000D03*
%TD*%
%TO.P,R6,1*%
%TO.N,/FB_B_P*%
X68510000Y-91190000D03*
%TO.P,R6,2*%
%TO.N,/FB_B_N*%
X68510000Y-98810000D03*
%TD*%
%TO.P,C3,1*%
%TO.N,+5V*%
X80900000Y-84090000D03*
%TO.P,C3,2*%
%TO.N,GND*%
X75900000Y-84090000D03*
%TD*%
%TO.P,R5,1*%
%TO.N,/FB_A_P*%
X68510000Y-88190000D03*
%TO.P,R5,2*%
%TO.N,/FB_A_N*%
X68510000Y-80570000D03*
%TD*%
D13*
%TO.P,J2,1,P1_1*%
%TO.N,+5V*%
X94882500Y-78335000D03*
D12*
%TO.P,J2,2,P2_2*%
%TO.N,GND*%
X94882500Y-73255000D03*
%TD*%
D14*
%TO.P,U2,1,1B_1*%
%TO.N,/FB_A_N*%
X73290000Y-87390000D03*
D10*
%TO.P,U2,2,1A_2*%
%TO.N,/FB_A_P*%
X73290000Y-89930000D03*
%TO.P,U2,3,1Y_3*%
%TO.N,/A_RX*%
X73290000Y-92470000D03*
%TO.P,U2,4,G_4*%
%TO.N,+5V*%
X73290000Y-95010000D03*
%TO.P,U2,5,2Y_5*%
%TO.N,/B_RX*%
X73290000Y-97550000D03*
%TO.P,U2,6,2A_6*%
%TO.N,/FB_B_P*%
X73290000Y-100090000D03*
%TO.P,U2,7,2B_7*%
%TO.N,/FB_B_N*%
X73290000Y-102630000D03*
%TO.P,U2,8,GND_8*%
%TO.N,GND*%
X73290000Y-105170000D03*
%TO.P,U2,9,3B_9*%
%TO.N,/FB_Z_N*%
X80910000Y-105170000D03*
%TO.P,U2,10,3A_10*%
%TO.N,/FB_Z_P*%
X80910000Y-102630000D03*
%TO.P,U2,11,3Y_11*%
%TO.N,/Z_RX*%
X80910000Y-100090000D03*
%TO.P,U2,12,~{G}_12*%
%TO.N,GND*%
X80910000Y-97550000D03*
%TO.P,U2,13,4Y_13*%
%TO.N,unconnected-(U2-4Y-Pad13)*%
X80910000Y-95010000D03*
%TO.P,U2,14,4A_14*%
%TO.N,+5V*%
X80910000Y-92470000D03*
%TO.P,U2,15,4B_15*%
%TO.N,GND*%
X80910000Y-89930000D03*
%TO.P,U2,16,VCC_16*%
%TO.N,+5V*%
X80910000Y-87390000D03*
%TD*%
%TO.P,C2,1*%
%TO.N,+5V*%
X97210000Y-83790000D03*
%TO.P,C2,2*%
%TO.N,GND*%
X92210000Y-83790000D03*
%TD*%
D13*
%TO.P,J1,1,P1_1*%
%TO.N,/DIO_PULSE*%
X94882500Y-65875000D03*
D12*
%TO.P,J1,2,P2_2*%
%TO.N,GND*%
X94882500Y-60795000D03*
%TO.P,J1,3,P3_3*%
%TO.N,/DIO_SIGN*%
X94882500Y-55715000D03*
%TD*%
D11*
%TO.P,J3,1,P1_1*%
%TO.N,/SIGN_P*%
X59710000Y-55550000D03*
D12*
%TO.P,J3,2,P2_2*%
%TO.N,/SIGN_N*%
X59710000Y-60630000D03*
%TO.P,J3,3,P3_3*%
%TO.N,/PULSE_N*%
X59710000Y-65710000D03*
%TO.P,J3,4,P4_4*%
%TO.N,/PULSE_P*%
X59710000Y-70790000D03*
%TD*%
D10*
%TO.P,R3,1*%
%TO.N,/PULSE_TTL*%
X79490000Y-71900000D03*
%TO.P,R3,2*%
%TO.N,GND*%
X87110000Y-71900000D03*
%TD*%
%TO.P,R10,1*%
%TO.N,/Z_RX*%
X85910000Y-109710000D03*
%TO.P,R10,2*%
%TO.N,/CNT_Z*%
X85910000Y-102090000D03*
%TD*%
%TO.P,R1,1*%
%TO.N,/DIO_PULSE*%
X87120000Y-67750000D03*
%TO.P,R1,2*%
%TO.N,/PULSE_TTL*%
X79500000Y-67750000D03*
%TD*%
%TO.P,R2,1*%
%TO.N,/DIO_SIGN*%
X87110000Y-53990000D03*
%TO.P,R2,2*%
%TO.N,/SIGN_TTL*%
X79490000Y-53990000D03*
%TD*%
%TO.P,R7,1*%
%TO.N,/FB_Z_P*%
X68400000Y-102000000D03*
%TO.P,R7,2*%
%TO.N,/FB_Z_N*%
X68400000Y-109620000D03*
%TD*%
D15*
%TO.P,U1,1,1A_1*%
%TO.N,/PULSE_TTL*%
X76010000Y-71880000D03*
D10*
%TO.P,U1,2,1Y_2*%
%TO.N,/PULSE_P*%
X76010000Y-69340000D03*
%TO.P,U1,3,1Z_3*%
%TO.N,/PULSE_N*%
X76010000Y-66800000D03*
%TO.P,U1,4,G_4*%
%TO.N,+5V*%
X76010000Y-64260000D03*
%TO.P,U1,5,2Z_5*%
%TO.N,/SIGN_N*%
X76010000Y-61720000D03*
%TO.P,U1,6,2Y_6*%
%TO.N,/SIGN_P*%
X76010000Y-59180000D03*
%TO.P,U1,7,2A_7*%
%TO.N,/SIGN_TTL*%
X76010000Y-56640000D03*
%TO.P,U1,8,GND_8*%
%TO.N,GND*%
X76010000Y-54100000D03*
%TO.P,U1,9,3A_9*%
X68390000Y-54100000D03*
%TO.P,U1,10,3Y_10*%
%TO.N,unconnected-(U1-3Y-Pad10)*%
X68390000Y-56640000D03*
%TO.P,U1,11,3Z_11*%
%TO.N,unconnected-(U1-3Z-Pad11)*%
X68390000Y-59180000D03*
%TO.P,U1,12,~{G}_12*%
%TO.N,GND*%
X68390000Y-61720000D03*
%TO.P,U1,13,4Z_13*%
%TO.N,unconnected-(U1-4Z-Pad13)*%
X68390000Y-64260000D03*
%TO.P,U1,14,4Y_14*%
%TO.N,unconnected-(U1-4Y-Pad14)*%
X68390000Y-66800000D03*
%TO.P,U1,15,4A_15*%
%TO.N,GND*%
X68390000Y-69340000D03*
%TO.P,U1,16,VCC_16*%
%TO.N,+5V*%
X68390000Y-71880000D03*
%TD*%
%TO.P,R4,1*%
%TO.N,/SIGN_TTL*%
X79490000Y-58600000D03*
%TO.P,R4,2*%
%TO.N,GND*%
X87110000Y-58600000D03*
%TD*%
%TO.P,R9,1*%
%TO.N,/B_RX*%
X85910000Y-99090000D03*
%TO.P,R9,2*%
%TO.N,/CNT_B*%
X85910000Y-91470000D03*
%TD*%
D13*
%TO.P,J5,1,P1_1*%
%TO.N,/CNT_Z*%
X94710000Y-107790000D03*
D12*
%TO.P,J5,2,P2_2*%
%TO.N,/CNT_B*%
X94710000Y-102710000D03*
%TO.P,J5,3,P3_3*%
%TO.N,/CNT_A*%
X94710000Y-97630000D03*
%TO.P,J5,4,P4_4*%
%TO.N,GND*%
X94710000Y-92550000D03*
%TD*%
%TA.AperFunction,Conductor*%
%TO.N,GND*%
G36*
X103442539Y-50520185D02*
G01*
X103488294Y-50572989D01*
X103499500Y-50624500D01*
X103499500Y-112375500D01*
X103479815Y-112442539D01*
X103427011Y-112488294D01*
X103375500Y-112499500D01*
X50624500Y-112499500D01*
X50557461Y-112479815D01*
X50511706Y-112427011D01*
X50500500Y-112375500D01*
X50500500Y-107992014D01*
X57910000Y-107992014D01*
X57910000Y-108227985D01*
X57940799Y-108461914D01*
X58001870Y-108689837D01*
X58092160Y-108907819D01*
X58092165Y-108907828D01*
X58210144Y-109112171D01*
X58210145Y-109112172D01*
X58272721Y-109193723D01*
X59108958Y-108357487D01*
X59133978Y-108417890D01*
X59205112Y-108524351D01*
X59295649Y-108614888D01*
X59402110Y-108686022D01*
X59462511Y-108711041D01*
X58626275Y-109547277D01*
X58707827Y-109609854D01*
X58707828Y-109609855D01*
X58912171Y-109727834D01*
X58912180Y-109727839D01*
X59130163Y-109818129D01*
X59130161Y-109818129D01*
X59358085Y-109879200D01*
X59592014Y-109909999D01*
X59592029Y-109910000D01*
X59827971Y-109910000D01*
X59827985Y-109909999D01*
X60061914Y-109879200D01*
X60289837Y-109818129D01*
X60507819Y-109727839D01*
X60507828Y-109727834D01*
X60712181Y-109609850D01*
X60793723Y-109547279D01*
X60793723Y-109547276D01*
X60764095Y-109517648D01*
X67099500Y-109517648D01*
X67099500Y-109722351D01*
X67131522Y-109924534D01*
X67194781Y-110119223D01*
X67287715Y-110301613D01*
X67408028Y-110467213D01*
X67552786Y-110611971D01*
X67676656Y-110701966D01*
X67718390Y-110732287D01*
X67834607Y-110791503D01*
X67900776Y-110825218D01*
X67900778Y-110825218D01*
X67900781Y-110825220D01*
X68005137Y-110859127D01*
X68095465Y-110888477D01*
X68196557Y-110904488D01*
X68297648Y-110920500D01*
X68297649Y-110920500D01*
X68502351Y-110920500D01*
X68502352Y-110920500D01*
X68704534Y-110888477D01*
X68899219Y-110825220D01*
X69081610Y-110732287D01*
X69174590Y-110664732D01*
X69247213Y-110611971D01*
X69247215Y-110611968D01*
X69247219Y-110611966D01*
X69391966Y-110467219D01*
X69391968Y-110467215D01*
X69391971Y-110467213D01*
X69446899Y-110391610D01*
X69512287Y-110301610D01*
X69605220Y-110119219D01*
X69668477Y-109924534D01*
X69700500Y-109722352D01*
X69700500Y-109607648D01*
X84609500Y-109607648D01*
X84609500Y-109812351D01*
X84641522Y-110014534D01*
X84704781Y-110209223D01*
X84797715Y-110391613D01*
X84918028Y-110557213D01*
X85062786Y-110701971D01*
X85217749Y-110814556D01*
X85228390Y-110822287D01*
X85344607Y-110881503D01*
X85410776Y-110915218D01*
X85410778Y-110915218D01*
X85410781Y-110915220D01*
X85515137Y-110949127D01*
X85605465Y-110978477D01*
X85706557Y-110994488D01*
X85807648Y-111010500D01*
X85807649Y-111010500D01*
X86012351Y-111010500D01*
X86012352Y-111010500D01*
X86214534Y-110978477D01*
X86409219Y-110915220D01*
X86591610Y-110822287D01*
X86684590Y-110754732D01*
X86757213Y-110701971D01*
X86757215Y-110701968D01*
X86757219Y-110701966D01*
X86901966Y-110557219D01*
X86901968Y-110557215D01*
X86901971Y-110557213D01*
X86967359Y-110467213D01*
X87022287Y-110391610D01*
X87115220Y-110209219D01*
X87178477Y-110014534D01*
X87210500Y-109812352D01*
X87210500Y-109607648D01*
X87196245Y-109517648D01*
X87178477Y-109405465D01*
X87147022Y-109308657D01*
X87115220Y-109210781D01*
X87115218Y-109210778D01*
X87115218Y-109210776D01*
X87081503Y-109144607D01*
X87022287Y-109028390D01*
X86996429Y-108992799D01*
X86901971Y-108862786D01*
X86757213Y-108718028D01*
X86591613Y-108597715D01*
X86591612Y-108597714D01*
X86591610Y-108597713D01*
X86534653Y-108568691D01*
X86409223Y-108504781D01*
X86214534Y-108441522D01*
X86039995Y-108413878D01*
X86012352Y-108409500D01*
X85807648Y-108409500D01*
X85783329Y-108413351D01*
X85605465Y-108441522D01*
X85410776Y-108504781D01*
X85228386Y-108597715D01*
X85062786Y-108718028D01*
X84918028Y-108862786D01*
X84797715Y-109028386D01*
X84704781Y-109210776D01*
X84641522Y-109405465D01*
X84609500Y-109607648D01*
X69700500Y-109607648D01*
X69700500Y-109517648D01*
X69668477Y-109315466D01*
X69666264Y-109308656D01*
X69617747Y-109159336D01*
X69605220Y-109120781D01*
X69605218Y-109120778D01*
X69605218Y-109120776D01*
X69558142Y-109028386D01*
X69512287Y-108938390D01*
X69477142Y-108890016D01*
X69391971Y-108772786D01*
X69247213Y-108628028D01*
X69081613Y-108507715D01*
X69081612Y-108507714D01*
X69081610Y-108507713D01*
X69024653Y-108478691D01*
X68899223Y-108414781D01*
X68704534Y-108351522D01*
X68529995Y-108323878D01*
X68502352Y-108319500D01*
X68297648Y-108319500D01*
X68273329Y-108323351D01*
X68095465Y-108351522D01*
X67900776Y-108414781D01*
X67718386Y-108507715D01*
X67552786Y-108628028D01*
X67408028Y-108772786D01*
X67287715Y-108938386D01*
X67194781Y-109120776D01*
X67131522Y-109315465D01*
X67099500Y-109517648D01*
X60764095Y-109517648D01*
X59957487Y-108711041D01*
X60017890Y-108686022D01*
X60124351Y-108614888D01*
X60214888Y-108524351D01*
X60286022Y-108417890D01*
X60311041Y-108357487D01*
X61147276Y-109193723D01*
X61147279Y-109193723D01*
X61209850Y-109112181D01*
X61327834Y-108907828D01*
X61327839Y-108907819D01*
X61418129Y-108689837D01*
X61479200Y-108461914D01*
X61509999Y-108227985D01*
X61510000Y-108227971D01*
X61510000Y-107992028D01*
X61509999Y-107992014D01*
X61479200Y-107758085D01*
X61418129Y-107530162D01*
X61327839Y-107312180D01*
X61327834Y-107312171D01*
X61209855Y-107107828D01*
X61209854Y-107107827D01*
X61147277Y-107026275D01*
X60311041Y-107862511D01*
X60286022Y-107802110D01*
X60214888Y-107695649D01*
X60124351Y-107605112D01*
X60017890Y-107533978D01*
X59957488Y-107508958D01*
X60776461Y-106689983D01*
X92909500Y-106689983D01*
X92909500Y-108890001D01*
X92909501Y-108890018D01*
X92920000Y-108992796D01*
X92920001Y-108992799D01*
X92931794Y-109028386D01*
X92975186Y-109159334D01*
X93067288Y-109308656D01*
X93191344Y-109432712D01*
X93340666Y-109524814D01*
X93507203Y-109579999D01*
X93609991Y-109590500D01*
X95810008Y-109590499D01*
X95912797Y-109579999D01*
X96079334Y-109524814D01*
X96228656Y-109432712D01*
X96352712Y-109308656D01*
X96444814Y-109159334D01*
X96499999Y-108992797D01*
X96510500Y-108890009D01*
X96510499Y-106689992D01*
X96499999Y-106587203D01*
X96444814Y-106420666D01*
X96352712Y-106271344D01*
X96228656Y-106147288D01*
X96079334Y-106055186D01*
X95912797Y-106000001D01*
X95912795Y-106000000D01*
X95810010Y-105989500D01*
X93609998Y-105989500D01*
X93609981Y-105989501D01*
X93507203Y-106000000D01*
X93507200Y-106000001D01*
X93340668Y-106055185D01*
X93340663Y-106055187D01*
X93191342Y-106147289D01*
X93067289Y-106271342D01*
X92975187Y-106420663D01*
X92975185Y-106420668D01*
X92947349Y-106504670D01*
X92920001Y-106587203D01*
X92920001Y-106587204D01*
X92920000Y-106587204D01*
X92909500Y-106689983D01*
X60776461Y-106689983D01*
X60793723Y-106672721D01*
X60712172Y-106610145D01*
X60712171Y-106610144D01*
X60507828Y-106492165D01*
X60507819Y-106492160D01*
X60289836Y-106401870D01*
X60289838Y-106401870D01*
X60061914Y-106340799D01*
X59943082Y-106325154D01*
X59827985Y-106310000D01*
X59592014Y-106310000D01*
X59358085Y-106340799D01*
X59130162Y-106401870D01*
X58912180Y-106492160D01*
X58912171Y-106492165D01*
X58707828Y-106610144D01*
X58707818Y-106610150D01*
X58626275Y-106672720D01*
X58626275Y-106672721D01*
X59462512Y-107508958D01*
X59402110Y-107533978D01*
X59295649Y-107605112D01*
X59205112Y-107695649D01*
X59133978Y-107802110D01*
X59108958Y-107862512D01*
X58272721Y-107026275D01*
X58272720Y-107026275D01*
X58210150Y-107107818D01*
X58210144Y-107107828D01*
X58092165Y-107312171D01*
X58092160Y-107312180D01*
X58001870Y-107530162D01*
X57940799Y-107758085D01*
X57910000Y-107992014D01*
X50500500Y-107992014D01*
X50500500Y-102911995D01*
X57909500Y-102911995D01*
X57909500Y-103148004D01*
X57909501Y-103148020D01*
X57940306Y-103382010D01*
X58001394Y-103609993D01*
X58091714Y-103828045D01*
X58091719Y-103828056D01*
X58133082Y-103899697D01*
X58209727Y-104032450D01*
X58209729Y-104032453D01*
X58209730Y-104032454D01*
X58353406Y-104219697D01*
X58353412Y-104219704D01*
X58520295Y-104386587D01*
X58520302Y-104386593D01*
X58595216Y-104444076D01*
X58707550Y-104530273D01*
X58838918Y-104606118D01*
X58911943Y-104648280D01*
X58911948Y-104648282D01*
X58911951Y-104648284D01*
X59130007Y-104738606D01*
X59357986Y-104799693D01*
X59591989Y-104830500D01*
X59591996Y-104830500D01*
X59828004Y-104830500D01*
X59828011Y-104830500D01*
X60062014Y-104799693D01*
X60289993Y-104738606D01*
X60508049Y-104648284D01*
X60712450Y-104530273D01*
X60899699Y-104386592D01*
X61066592Y-104219699D01*
X61210273Y-104032450D01*
X61328284Y-103828049D01*
X61418606Y-103609993D01*
X61479693Y-103382014D01*
X61510500Y-103148011D01*
X61510500Y-102911989D01*
X61479693Y-102677986D01*
X61418606Y-102450007D01*
X61328284Y-102231951D01*
X61328282Y-102231948D01*
X61328280Y-102231943D01*
X61269873Y-102130781D01*
X61210273Y-102027550D01*
X61164780Y-101968262D01*
X61110596Y-101897648D01*
X67099500Y-101897648D01*
X67099500Y-102102351D01*
X67131522Y-102304534D01*
X67194781Y-102499223D01*
X67242052Y-102591995D01*
X67285866Y-102677986D01*
X67287715Y-102681613D01*
X67408028Y-102847213D01*
X67552786Y-102991971D01*
X67676656Y-103081966D01*
X67718390Y-103112287D01*
X67834607Y-103171503D01*
X67900776Y-103205218D01*
X67900778Y-103205218D01*
X67900781Y-103205220D01*
X68005137Y-103239127D01*
X68095465Y-103268477D01*
X68196557Y-103284488D01*
X68297648Y-103300500D01*
X68297649Y-103300500D01*
X68502351Y-103300500D01*
X68502352Y-103300500D01*
X68704534Y-103268477D01*
X68899219Y-103205220D01*
X69081610Y-103112287D01*
X69174590Y-103044732D01*
X69247213Y-102991971D01*
X69247215Y-102991968D01*
X69247219Y-102991966D01*
X69391966Y-102847219D01*
X69391968Y-102847215D01*
X69391971Y-102847213D01*
X69475421Y-102732352D01*
X69512287Y-102681610D01*
X69605220Y-102499219D01*
X69668477Y-102304534D01*
X69700500Y-102102352D01*
X69700500Y-101897648D01*
X69668477Y-101695466D01*
X69661309Y-101673406D01*
X69614625Y-101529727D01*
X69605220Y-101500781D01*
X69605218Y-101500778D01*
X69605218Y-101500776D01*
X69565339Y-101422511D01*
X69512287Y-101318390D01*
X69457358Y-101242786D01*
X69391971Y-101152786D01*
X69247213Y-101008028D01*
X69081613Y-100887715D01*
X69081612Y-100887714D01*
X69081610Y-100887713D01*
X69024653Y-100858691D01*
X68899223Y-100794781D01*
X68704534Y-100731522D01*
X68529995Y-100703878D01*
X68502352Y-100699500D01*
X68297648Y-100699500D01*
X68273329Y-100703351D01*
X68095465Y-100731522D01*
X67900776Y-100794781D01*
X67718386Y-100887715D01*
X67552786Y-101008028D01*
X67408028Y-101152786D01*
X67287715Y-101318386D01*
X67194781Y-101500776D01*
X67131522Y-101695465D01*
X67099500Y-101897648D01*
X61110596Y-101897648D01*
X61066593Y-101840302D01*
X61066587Y-101840295D01*
X60899704Y-101673412D01*
X60899697Y-101673406D01*
X60712454Y-101529730D01*
X60712453Y-101529729D01*
X60712450Y-101529727D01*
X60609840Y-101470485D01*
X60508056Y-101411719D01*
X60508045Y-101411714D01*
X60289993Y-101321394D01*
X60192311Y-101295220D01*
X60062014Y-101260307D01*
X60062013Y-101260306D01*
X60062010Y-101260306D01*
X59828020Y-101229501D01*
X59828017Y-101229500D01*
X59828011Y-101229500D01*
X59591989Y-101229500D01*
X59591983Y-101229500D01*
X59591979Y-101229501D01*
X59357989Y-101260306D01*
X59130006Y-101321394D01*
X58911954Y-101411714D01*
X58911943Y-101411719D01*
X58707545Y-101529730D01*
X58520302Y-101673406D01*
X58520295Y-101673412D01*
X58353412Y-101840295D01*
X58353406Y-101840302D01*
X58209730Y-102027545D01*
X58091719Y-102231943D01*
X58091714Y-102231954D01*
X58001394Y-102450006D01*
X57940306Y-102677989D01*
X57909501Y-102911979D01*
X57909500Y-102911995D01*
X50500500Y-102911995D01*
X50500500Y-97831995D01*
X57909500Y-97831995D01*
X57909500Y-98068004D01*
X57909501Y-98068020D01*
X57936871Y-98275922D01*
X57940307Y-98302014D01*
X57974077Y-98428045D01*
X58001394Y-98529993D01*
X58091714Y-98748045D01*
X58091719Y-98748056D01*
X58133082Y-98819697D01*
X58209727Y-98952450D01*
X58209729Y-98952453D01*
X58209730Y-98952454D01*
X58353406Y-99139697D01*
X58353412Y-99139704D01*
X58520295Y-99306587D01*
X58520302Y-99306593D01*
X58630306Y-99391001D01*
X58707550Y-99450273D01*
X58838918Y-99526118D01*
X58911943Y-99568280D01*
X58911948Y-99568282D01*
X58911951Y-99568284D01*
X59130007Y-99658606D01*
X59357986Y-99719693D01*
X59591989Y-99750500D01*
X59591996Y-99750500D01*
X59828004Y-99750500D01*
X59828011Y-99750500D01*
X60062014Y-99719693D01*
X60289993Y-99658606D01*
X60508049Y-99568284D01*
X60712450Y-99450273D01*
X60899699Y-99306592D01*
X61066592Y-99139699D01*
X61210273Y-98952450D01*
X61328284Y-98748049D01*
X61345019Y-98707648D01*
X67209500Y-98707648D01*
X67209500Y-98912351D01*
X67241522Y-99114534D01*
X67304781Y-99309223D01*
X67397715Y-99491613D01*
X67518028Y-99657213D01*
X67662786Y-99801971D01*
X67817749Y-99914556D01*
X67828390Y-99922287D01*
X67944607Y-99981503D01*
X68010776Y-100015218D01*
X68010778Y-100015218D01*
X68010781Y-100015220D01*
X68115137Y-100049127D01*
X68205465Y-100078477D01*
X68306557Y-100094488D01*
X68407648Y-100110500D01*
X68407649Y-100110500D01*
X68612351Y-100110500D01*
X68612352Y-100110500D01*
X68814534Y-100078477D01*
X69009219Y-100015220D01*
X69191610Y-99922287D01*
X69284590Y-99854732D01*
X69357213Y-99801971D01*
X69357215Y-99801968D01*
X69357219Y-99801966D01*
X69501966Y-99657219D01*
X69501968Y-99657215D01*
X69501971Y-99657213D01*
X69566580Y-99568285D01*
X69622287Y-99491610D01*
X69715220Y-99309219D01*
X69778477Y-99114534D01*
X69810500Y-98912352D01*
X69810500Y-98707648D01*
X69778477Y-98505466D01*
X69715220Y-98310781D01*
X69715218Y-98310778D01*
X69715218Y-98310776D01*
X69663866Y-98209993D01*
X69622287Y-98128390D01*
X69578426Y-98068020D01*
X69501971Y-97962786D01*
X69357213Y-97818028D01*
X69191613Y-97697715D01*
X69191612Y-97697714D01*
X69191610Y-97697713D01*
X69134653Y-97668691D01*
X69009223Y-97604781D01*
X68814534Y-97541522D01*
X68639995Y-97513878D01*
X68612352Y-97509500D01*
X68407648Y-97509500D01*
X68383329Y-97513351D01*
X68205465Y-97541522D01*
X68010776Y-97604781D01*
X67828386Y-97697715D01*
X67662786Y-97818028D01*
X67518028Y-97962786D01*
X67397715Y-98128386D01*
X67304781Y-98310776D01*
X67241522Y-98505465D01*
X67209500Y-98707648D01*
X61345019Y-98707648D01*
X61363808Y-98662287D01*
X61366693Y-98655323D01*
X61366693Y-98655321D01*
X61376165Y-98632454D01*
X61418606Y-98529993D01*
X61479693Y-98302014D01*
X61510500Y-98068011D01*
X61510500Y-97831989D01*
X61479693Y-97597986D01*
X61418606Y-97370007D01*
X61328284Y-97151951D01*
X61328282Y-97151948D01*
X61328280Y-97151943D01*
X61269873Y-97050781D01*
X61210273Y-96947550D01*
X61066592Y-96760301D01*
X61066587Y-96760295D01*
X60899704Y-96593412D01*
X60899697Y-96593406D01*
X60712454Y-96449730D01*
X60712453Y-96449729D01*
X60712450Y-96449727D01*
X60609840Y-96390485D01*
X60508056Y-96331719D01*
X60508045Y-96331714D01*
X60289993Y-96241394D01*
X60192311Y-96215220D01*
X60062014Y-96180307D01*
X60062013Y-96180306D01*
X60062010Y-96180306D01*
X59828020Y-96149501D01*
X59828017Y-96149500D01*
X59828011Y-96149500D01*
X59591989Y-96149500D01*
X59591983Y-96149500D01*
X59591979Y-96149501D01*
X59357989Y-96180306D01*
X59130006Y-96241394D01*
X58911954Y-96331714D01*
X58911943Y-96331719D01*
X58707545Y-96449730D01*
X58520302Y-96593406D01*
X58520295Y-96593412D01*
X58353412Y-96760295D01*
X58353406Y-96760302D01*
X58209730Y-96947545D01*
X58091719Y-97151943D01*
X58091714Y-97151954D01*
X58001394Y-97370006D01*
X57940306Y-97597989D01*
X57909501Y-97831979D01*
X57909500Y-97831995D01*
X50500500Y-97831995D01*
X50500500Y-92751995D01*
X57909500Y-92751995D01*
X57909500Y-92988004D01*
X57909501Y-92988020D01*
X57940306Y-93222010D01*
X58001394Y-93449993D01*
X58091714Y-93668045D01*
X58091719Y-93668056D01*
X58133257Y-93740000D01*
X58209727Y-93872450D01*
X58209729Y-93872453D01*
X58209730Y-93872454D01*
X58353406Y-94059697D01*
X58353412Y-94059704D01*
X58520295Y-94226587D01*
X58520301Y-94226592D01*
X58707550Y-94370273D01*
X58838918Y-94446118D01*
X58911943Y-94488280D01*
X58911948Y-94488282D01*
X58911951Y-94488284D01*
X59130007Y-94578606D01*
X59357986Y-94639693D01*
X59591989Y-94670500D01*
X59591996Y-94670500D01*
X59828004Y-94670500D01*
X59828011Y-94670500D01*
X60062014Y-94639693D01*
X60289993Y-94578606D01*
X60508049Y-94488284D01*
X60712450Y-94370273D01*
X60899699Y-94226592D01*
X61066592Y-94059699D01*
X61210273Y-93872450D01*
X61328284Y-93668049D01*
X61418606Y-93449993D01*
X61479693Y-93222014D01*
X61510500Y-92988011D01*
X61510500Y-92751989D01*
X61479693Y-92517986D01*
X61418606Y-92290007D01*
X61328284Y-92071951D01*
X61328282Y-92071948D01*
X61328280Y-92071943D01*
X61269873Y-91970781D01*
X61210273Y-91867550D01*
X61066592Y-91680301D01*
X61066587Y-91680295D01*
X60899704Y-91513412D01*
X60899697Y-91513406D01*
X60712454Y-91369730D01*
X60712453Y-91369729D01*
X60712450Y-91369727D01*
X60609840Y-91310485D01*
X60508056Y-91251719D01*
X60508045Y-91251714D01*
X60376767Y-91197337D01*
X60376765Y-91197336D01*
X60289996Y-91161395D01*
X60289994Y-91161394D01*
X60289993Y-91161394D01*
X60062014Y-91100307D01*
X60062013Y-91100306D01*
X60062010Y-91100306D01*
X59965862Y-91087648D01*
X67209500Y-91087648D01*
X67209500Y-91292351D01*
X67241522Y-91494534D01*
X67304781Y-91689223D01*
X67336860Y-91752180D01*
X67395644Y-91867550D01*
X67397715Y-91871613D01*
X67518028Y-92037213D01*
X67662786Y-92181971D01*
X67811488Y-92290007D01*
X67828390Y-92302287D01*
X67942447Y-92360402D01*
X68010776Y-92395218D01*
X68010778Y-92395218D01*
X68010781Y-92395220D01*
X68115137Y-92429127D01*
X68205465Y-92458477D01*
X68306557Y-92474488D01*
X68407648Y-92490500D01*
X68407649Y-92490500D01*
X68612351Y-92490500D01*
X68612352Y-92490500D01*
X68814534Y-92458477D01*
X69009219Y-92395220D01*
X69191610Y-92302287D01*
X69284590Y-92234732D01*
X69357213Y-92181971D01*
X69357215Y-92181968D01*
X69357219Y-92181966D01*
X69501966Y-92037219D01*
X69501968Y-92037215D01*
X69501971Y-92037213D01*
X69583512Y-91924979D01*
X69622287Y-91871610D01*
X69715220Y-91689219D01*
X69778477Y-91494534D01*
X69810500Y-91292352D01*
X69810500Y-91087648D01*
X69778477Y-90885466D01*
X69715220Y-90690781D01*
X69715218Y-90690778D01*
X69715218Y-90690776D01*
X69674747Y-90611349D01*
X69622287Y-90508390D01*
X69600228Y-90478028D01*
X69501971Y-90342786D01*
X69357213Y-90198028D01*
X69191613Y-90077715D01*
X69191612Y-90077714D01*
X69191610Y-90077713D01*
X69134653Y-90048691D01*
X69009223Y-89984781D01*
X68814534Y-89921522D01*
X68639995Y-89893878D01*
X68612352Y-89889500D01*
X68407648Y-89889500D01*
X68383329Y-89893351D01*
X68205465Y-89921522D01*
X68010776Y-89984781D01*
X67828386Y-90077715D01*
X67662786Y-90198028D01*
X67518028Y-90342786D01*
X67397715Y-90508386D01*
X67304781Y-90690776D01*
X67241522Y-90885465D01*
X67209500Y-91087648D01*
X59965862Y-91087648D01*
X59828020Y-91069501D01*
X59828017Y-91069500D01*
X59828011Y-91069500D01*
X59591989Y-91069500D01*
X59591983Y-91069500D01*
X59591979Y-91069501D01*
X59357989Y-91100306D01*
X59130006Y-91161394D01*
X58911954Y-91251714D01*
X58911943Y-91251719D01*
X58707545Y-91369730D01*
X58520302Y-91513406D01*
X58520295Y-91513412D01*
X58353412Y-91680295D01*
X58353406Y-91680302D01*
X58209730Y-91867545D01*
X58091719Y-92071943D01*
X58091714Y-92071954D01*
X58001394Y-92290006D01*
X57940306Y-92517989D01*
X57909501Y-92751979D01*
X57909500Y-92751995D01*
X50500500Y-92751995D01*
X50500500Y-87671995D01*
X57909500Y-87671995D01*
X57909500Y-87908004D01*
X57909501Y-87908020D01*
X57940306Y-88142010D01*
X58001394Y-88369993D01*
X58091714Y-88588045D01*
X58091719Y-88588056D01*
X58162677Y-88710957D01*
X58209727Y-88792450D01*
X58209729Y-88792453D01*
X58209730Y-88792454D01*
X58353406Y-88979697D01*
X58353412Y-88979704D01*
X58520295Y-89146587D01*
X58520302Y-89146593D01*
X58534150Y-89157219D01*
X58707550Y-89290273D01*
X58838918Y-89366118D01*
X58911943Y-89408280D01*
X58911948Y-89408282D01*
X58911951Y-89408284D01*
X59130007Y-89498606D01*
X59357986Y-89559693D01*
X59591989Y-89590500D01*
X59591996Y-89590500D01*
X59828004Y-89590500D01*
X59828011Y-89590500D01*
X60062014Y-89559693D01*
X60289993Y-89498606D01*
X60508049Y-89408284D01*
X60712450Y-89290273D01*
X60899699Y-89146592D01*
X61066592Y-88979699D01*
X61210273Y-88792450D01*
X61328284Y-88588049D01*
X61418606Y-88369993D01*
X61479693Y-88142014D01*
X61486850Y-88087648D01*
X67209500Y-88087648D01*
X67209500Y-88292351D01*
X67241522Y-88494534D01*
X67304781Y-88689223D01*
X67357379Y-88792450D01*
X67396881Y-88869978D01*
X67397715Y-88871613D01*
X67518028Y-89037213D01*
X67662786Y-89181971D01*
X67811854Y-89290273D01*
X67828390Y-89302287D01*
X67944607Y-89361503D01*
X68010776Y-89395218D01*
X68010778Y-89395218D01*
X68010781Y-89395220D01*
X68094085Y-89422287D01*
X68205465Y-89458477D01*
X68306557Y-89474488D01*
X68407648Y-89490500D01*
X68407649Y-89490500D01*
X68612351Y-89490500D01*
X68612352Y-89490500D01*
X68814534Y-89458477D01*
X69009219Y-89395220D01*
X69191610Y-89302287D01*
X69326787Y-89204076D01*
X69357213Y-89181971D01*
X69357215Y-89181968D01*
X69357219Y-89181966D01*
X69501966Y-89037219D01*
X69501968Y-89037215D01*
X69501971Y-89037213D01*
X69554732Y-88964590D01*
X69622287Y-88871610D01*
X69715220Y-88689219D01*
X69778477Y-88494534D01*
X69810500Y-88292352D01*
X69810500Y-88087648D01*
X69807165Y-88066589D01*
X69778477Y-87885465D01*
X69715218Y-87690776D01*
X69681503Y-87624607D01*
X69622287Y-87508390D01*
X69589154Y-87462786D01*
X69501971Y-87342786D01*
X69357213Y-87198028D01*
X69191613Y-87077715D01*
X69191612Y-87077714D01*
X69191610Y-87077713D01*
X69120583Y-87041523D01*
X69009223Y-86984781D01*
X68814534Y-86921522D01*
X68737407Y-86909307D01*
X68693394Y-86902336D01*
X68612352Y-86889500D01*
X68407648Y-86889500D01*
X68383329Y-86893351D01*
X68205465Y-86921522D01*
X68010776Y-86984781D01*
X67828386Y-87077715D01*
X67662786Y-87198028D01*
X67518028Y-87342786D01*
X67397715Y-87508386D01*
X67304781Y-87690776D01*
X67241522Y-87885465D01*
X67209500Y-88087648D01*
X61486850Y-88087648D01*
X61489623Y-88066590D01*
X61489623Y-88066589D01*
X61497670Y-88005465D01*
X61510500Y-87908011D01*
X61510500Y-87671989D01*
X61479693Y-87437986D01*
X61418606Y-87210007D01*
X61328284Y-86991951D01*
X61328282Y-86991948D01*
X61328280Y-86991943D01*
X61269873Y-86890781D01*
X61211678Y-86789983D01*
X71989500Y-86789983D01*
X71989500Y-87990001D01*
X71989501Y-87990018D01*
X72000000Y-88092796D01*
X72000001Y-88092799D01*
X72055185Y-88259331D01*
X72055187Y-88259336D01*
X72090069Y-88315888D01*
X72147288Y-88408656D01*
X72271344Y-88532712D01*
X72420666Y-88624814D01*
X72502570Y-88651954D01*
X72560015Y-88691727D01*
X72586838Y-88756243D01*
X72574523Y-88825018D01*
X72536451Y-88869978D01*
X72442787Y-88938028D01*
X72442782Y-88938032D01*
X72298028Y-89082786D01*
X72177715Y-89248386D01*
X72084781Y-89430776D01*
X72021522Y-89625465D01*
X71989500Y-89827648D01*
X71989500Y-90032351D01*
X72021522Y-90234534D01*
X72084781Y-90429223D01*
X72148691Y-90554653D01*
X72177585Y-90611359D01*
X72177715Y-90611613D01*
X72298028Y-90777213D01*
X72442786Y-90921971D01*
X72563226Y-91009474D01*
X72608390Y-91042287D01*
X72697416Y-91087648D01*
X72701080Y-91089515D01*
X72751876Y-91137490D01*
X72768671Y-91205311D01*
X72746134Y-91271446D01*
X72701080Y-91310485D01*
X72608386Y-91357715D01*
X72442786Y-91478028D01*
X72298028Y-91622786D01*
X72177715Y-91788386D01*
X72084781Y-91970776D01*
X72021522Y-92165465D01*
X71989500Y-92367648D01*
X71989500Y-92572351D01*
X72021522Y-92774534D01*
X72084781Y-92969223D01*
X72148691Y-93094653D01*
X72164675Y-93126022D01*
X72177715Y-93151613D01*
X72298028Y-93317213D01*
X72442786Y-93461971D01*
X72566940Y-93552172D01*
X72608390Y-93582287D01*
X72699840Y-93628883D01*
X72701080Y-93629515D01*
X72751876Y-93677490D01*
X72768671Y-93745311D01*
X72746134Y-93811446D01*
X72701080Y-93850485D01*
X72608386Y-93897715D01*
X72442786Y-94018028D01*
X72298028Y-94162786D01*
X72177715Y-94328386D01*
X72084781Y-94510776D01*
X72021522Y-94705465D01*
X71989500Y-94907648D01*
X71989500Y-95112351D01*
X72021522Y-95314534D01*
X72084781Y-95509223D01*
X72177715Y-95691613D01*
X72298028Y-95857213D01*
X72442786Y-96001971D01*
X72597749Y-96114556D01*
X72608390Y-96122287D01*
X72699840Y-96168883D01*
X72701080Y-96169515D01*
X72751876Y-96217490D01*
X72768671Y-96285311D01*
X72746134Y-96351446D01*
X72701080Y-96390485D01*
X72608386Y-96437715D01*
X72442786Y-96558028D01*
X72298028Y-96702786D01*
X72177715Y-96868386D01*
X72084781Y-97050776D01*
X72021522Y-97245465D01*
X71989500Y-97447648D01*
X71989500Y-97652351D01*
X72021522Y-97854534D01*
X72084781Y-98049223D01*
X72148691Y-98174653D01*
X72177585Y-98231359D01*
X72177715Y-98231613D01*
X72298028Y-98397213D01*
X72442786Y-98541971D01*
X72567328Y-98632454D01*
X72608390Y-98662287D01*
X72697416Y-98707648D01*
X72701080Y-98709515D01*
X72751876Y-98757490D01*
X72768671Y-98825311D01*
X72746134Y-98891446D01*
X72701080Y-98930485D01*
X72608386Y-98977715D01*
X72442786Y-99098028D01*
X72298028Y-99242786D01*
X72177715Y-99408386D01*
X72084781Y-99590776D01*
X72021522Y-99785465D01*
X71989500Y-99987648D01*
X71989500Y-100192351D01*
X72021522Y-100394534D01*
X72084781Y-100589223D01*
X72177715Y-100771613D01*
X72298028Y-100937213D01*
X72442786Y-101081971D01*
X72597749Y-101194556D01*
X72608390Y-101202287D01*
X72687864Y-101242781D01*
X72701080Y-101249515D01*
X72751876Y-101297490D01*
X72768671Y-101365311D01*
X72746134Y-101431446D01*
X72701080Y-101470485D01*
X72608386Y-101517715D01*
X72442786Y-101638028D01*
X72298028Y-101782786D01*
X72177715Y-101948386D01*
X72084781Y-102130776D01*
X72021522Y-102325465D01*
X71989500Y-102527648D01*
X71989500Y-102732351D01*
X72021522Y-102934534D01*
X72084781Y-103129223D01*
X72148691Y-103254653D01*
X72172052Y-103300500D01*
X72177715Y-103311613D01*
X72298028Y-103477213D01*
X72442786Y-103621971D01*
X72608385Y-103742284D01*
X72608387Y-103742285D01*
X72608390Y-103742287D01*
X72701080Y-103789515D01*
X72701630Y-103789795D01*
X72752426Y-103837770D01*
X72769221Y-103905591D01*
X72746684Y-103971725D01*
X72701630Y-104010765D01*
X72608644Y-104058143D01*
X72564077Y-104090523D01*
X72564077Y-104090524D01*
X73243554Y-104770000D01*
X73237339Y-104770000D01*
X73135606Y-104797259D01*
X73044394Y-104849920D01*
X72969920Y-104924394D01*
X72917259Y-105015606D01*
X72890000Y-105117339D01*
X72890000Y-105123553D01*
X72210524Y-104444077D01*
X72210523Y-104444077D01*
X72178143Y-104488644D01*
X72085244Y-104670968D01*
X72022009Y-104865582D01*
X71990000Y-105067682D01*
X71990000Y-105272317D01*
X72022009Y-105474417D01*
X72085244Y-105669031D01*
X72178141Y-105851350D01*
X72178147Y-105851359D01*
X72210523Y-105895921D01*
X72210524Y-105895922D01*
X72890000Y-105216446D01*
X72890000Y-105222661D01*
X72917259Y-105324394D01*
X72969920Y-105415606D01*
X73044394Y-105490080D01*
X73135606Y-105542741D01*
X73237339Y-105570000D01*
X73243553Y-105570000D01*
X72564076Y-106249474D01*
X72608650Y-106281859D01*
X72790968Y-106374755D01*
X72985582Y-106437990D01*
X73187683Y-106470000D01*
X73392317Y-106470000D01*
X73594417Y-106437990D01*
X73789031Y-106374755D01*
X73971349Y-106281859D01*
X74015921Y-106249474D01*
X73336447Y-105570000D01*
X73342661Y-105570000D01*
X73444394Y-105542741D01*
X73535606Y-105490080D01*
X73610080Y-105415606D01*
X73662741Y-105324394D01*
X73690000Y-105222661D01*
X73690000Y-105216447D01*
X74369474Y-105895921D01*
X74401859Y-105851349D01*
X74494755Y-105669031D01*
X74557990Y-105474417D01*
X74590000Y-105272317D01*
X74590000Y-105067682D01*
X74557990Y-104865582D01*
X74494755Y-104670968D01*
X74401859Y-104488650D01*
X74369474Y-104444077D01*
X74369474Y-104444076D01*
X73690000Y-105123551D01*
X73690000Y-105117339D01*
X73662741Y-105015606D01*
X73610080Y-104924394D01*
X73535606Y-104849920D01*
X73444394Y-104797259D01*
X73342661Y-104770000D01*
X73336446Y-104770000D01*
X74015922Y-104090524D01*
X74015921Y-104090523D01*
X73971359Y-104058147D01*
X73971350Y-104058141D01*
X73878369Y-104010765D01*
X73827573Y-103962790D01*
X73810778Y-103894969D01*
X73833315Y-103828835D01*
X73878370Y-103789795D01*
X73878920Y-103789515D01*
X73971610Y-103742287D01*
X74021144Y-103706298D01*
X74137213Y-103621971D01*
X74137215Y-103621968D01*
X74137219Y-103621966D01*
X74281966Y-103477219D01*
X74281968Y-103477215D01*
X74281971Y-103477213D01*
X74334732Y-103404590D01*
X74402287Y-103311610D01*
X74495220Y-103129219D01*
X74558477Y-102934534D01*
X74590500Y-102732352D01*
X74590500Y-102527648D01*
X74578203Y-102450006D01*
X74558477Y-102325465D01*
X74528090Y-102231943D01*
X74495220Y-102130781D01*
X74495218Y-102130778D01*
X74495218Y-102130776D01*
X74442621Y-102027550D01*
X74402287Y-101948390D01*
X74365421Y-101897648D01*
X74281971Y-101782786D01*
X74137213Y-101638028D01*
X73971614Y-101517715D01*
X73938369Y-101500776D01*
X73878917Y-101470483D01*
X73828123Y-101422511D01*
X73811328Y-101354690D01*
X73833865Y-101288555D01*
X73878917Y-101249516D01*
X73971610Y-101202287D01*
X74039750Y-101152781D01*
X74137213Y-101081971D01*
X74137215Y-101081968D01*
X74137219Y-101081966D01*
X74281966Y-100937219D01*
X74281968Y-100937215D01*
X74281971Y-100937213D01*
X74389289Y-100789500D01*
X74402287Y-100771610D01*
X74495220Y-100589219D01*
X74558477Y-100394534D01*
X74590500Y-100192352D01*
X74590500Y-99987648D01*
X74561091Y-99801971D01*
X74558477Y-99785465D01*
X74495218Y-99590776D01*
X74423625Y-99450269D01*
X74402287Y-99408390D01*
X74392220Y-99394534D01*
X74281971Y-99242786D01*
X74137213Y-99098028D01*
X73971614Y-98977715D01*
X73922036Y-98952454D01*
X73878917Y-98930483D01*
X73828123Y-98882511D01*
X73811328Y-98814690D01*
X73833865Y-98748555D01*
X73878917Y-98709516D01*
X73971610Y-98662287D01*
X74012672Y-98632454D01*
X74137213Y-98541971D01*
X74137215Y-98541968D01*
X74137219Y-98541966D01*
X74281966Y-98397219D01*
X74281968Y-98397215D01*
X74281971Y-98397213D01*
X74351139Y-98302010D01*
X74402287Y-98231610D01*
X74495220Y-98049219D01*
X74558477Y-97854534D01*
X74590500Y-97652352D01*
X74590500Y-97447648D01*
X74578203Y-97370006D01*
X74558477Y-97245465D01*
X74527458Y-97150000D01*
X74495220Y-97050781D01*
X74495218Y-97050778D01*
X74495218Y-97050776D01*
X74442621Y-96947550D01*
X74402287Y-96868390D01*
X74370092Y-96824077D01*
X74281971Y-96702786D01*
X74137213Y-96558028D01*
X73971614Y-96437715D01*
X73965006Y-96434348D01*
X73878917Y-96390483D01*
X73828123Y-96342511D01*
X73811328Y-96274690D01*
X73833865Y-96208555D01*
X73878917Y-96169516D01*
X73971610Y-96122287D01*
X73992770Y-96106913D01*
X74137213Y-96001971D01*
X74137215Y-96001968D01*
X74137219Y-96001966D01*
X74281966Y-95857219D01*
X74281968Y-95857215D01*
X74281971Y-95857213D01*
X74334732Y-95784590D01*
X74402287Y-95691610D01*
X74495220Y-95509219D01*
X74558477Y-95314534D01*
X74590500Y-95112352D01*
X74590500Y-94907648D01*
X74558477Y-94705466D01*
X74495220Y-94510781D01*
X74495218Y-94510778D01*
X74495218Y-94510776D01*
X74423625Y-94370269D01*
X74402287Y-94328390D01*
X74351240Y-94258129D01*
X74281971Y-94162786D01*
X74137213Y-94018028D01*
X73971614Y-93897715D01*
X73922036Y-93872454D01*
X73878917Y-93850483D01*
X73828123Y-93802511D01*
X73811328Y-93734690D01*
X73833865Y-93668555D01*
X73878917Y-93629516D01*
X73971610Y-93582287D01*
X74013060Y-93552172D01*
X74137213Y-93461971D01*
X74137215Y-93461968D01*
X74137219Y-93461966D01*
X74281966Y-93317219D01*
X74281968Y-93317215D01*
X74281971Y-93317213D01*
X74367130Y-93200000D01*
X74402287Y-93151610D01*
X74495220Y-92969219D01*
X74558477Y-92774534D01*
X74590500Y-92572352D01*
X74590500Y-92367648D01*
X74578203Y-92290006D01*
X74558477Y-92165465D01*
X74516805Y-92037213D01*
X74495220Y-91970781D01*
X74495218Y-91970778D01*
X74495218Y-91970776D01*
X74442621Y-91867550D01*
X74402287Y-91788390D01*
X74330236Y-91689219D01*
X74281971Y-91622786D01*
X74137213Y-91478028D01*
X73971614Y-91357715D01*
X73965006Y-91354348D01*
X73878917Y-91310483D01*
X73828123Y-91262511D01*
X73811328Y-91194690D01*
X73833865Y-91128555D01*
X73878917Y-91089516D01*
X73971610Y-91042287D01*
X74016774Y-91009474D01*
X74137213Y-90921971D01*
X74137215Y-90921968D01*
X74137219Y-90921966D01*
X74281966Y-90777219D01*
X74281968Y-90777215D01*
X74281971Y-90777213D01*
X74344770Y-90690776D01*
X74402287Y-90611610D01*
X74495220Y-90429219D01*
X74558477Y-90234534D01*
X74590500Y-90032352D01*
X74590500Y-89827648D01*
X74582257Y-89775606D01*
X74558477Y-89625465D01*
X74504219Y-89458477D01*
X74495220Y-89430781D01*
X74495218Y-89430778D01*
X74495218Y-89430776D01*
X74461503Y-89364607D01*
X74402287Y-89248390D01*
X74370092Y-89204077D01*
X74281971Y-89082786D01*
X74137219Y-88938034D01*
X74137211Y-88938028D01*
X74043547Y-88869978D01*
X74000882Y-88814649D01*
X73994903Y-88745036D01*
X74027508Y-88683240D01*
X74077426Y-88651955D01*
X74159334Y-88624814D01*
X74308656Y-88532712D01*
X74432712Y-88408656D01*
X74524814Y-88259334D01*
X74579999Y-88092797D01*
X74590500Y-87990009D01*
X74590499Y-87287648D01*
X79609500Y-87287648D01*
X79609500Y-87492351D01*
X79641522Y-87694534D01*
X79704781Y-87889223D01*
X79756135Y-87990009D01*
X79795155Y-88066590D01*
X79797715Y-88071613D01*
X79918028Y-88237213D01*
X80062786Y-88381971D01*
X80228385Y-88502284D01*
X80228387Y-88502285D01*
X80228390Y-88502287D01*
X80321630Y-88549795D01*
X80372426Y-88597770D01*
X80389221Y-88665591D01*
X80366684Y-88731725D01*
X80321630Y-88770765D01*
X80228644Y-88818143D01*
X80184077Y-88850523D01*
X80184077Y-88850524D01*
X80863554Y-89530000D01*
X80857339Y-89530000D01*
X80755606Y-89557259D01*
X80664394Y-89609920D01*
X80589920Y-89684394D01*
X80537259Y-89775606D01*
X80510000Y-89877339D01*
X80510000Y-89883553D01*
X79830524Y-89204077D01*
X79830523Y-89204077D01*
X79798143Y-89248644D01*
X79705244Y-89430968D01*
X79642009Y-89625582D01*
X79610000Y-89827682D01*
X79610000Y-90032317D01*
X79642009Y-90234417D01*
X79705244Y-90429031D01*
X79798141Y-90611350D01*
X79798147Y-90611359D01*
X79830523Y-90655921D01*
X79830524Y-90655922D01*
X80510000Y-89976446D01*
X80510000Y-89982661D01*
X80537259Y-90084394D01*
X80589920Y-90175606D01*
X80664394Y-90250080D01*
X80755606Y-90302741D01*
X80857339Y-90330000D01*
X80863553Y-90330000D01*
X80184076Y-91009474D01*
X80228652Y-91041861D01*
X80321628Y-91089234D01*
X80372425Y-91137208D01*
X80389220Y-91205029D01*
X80366683Y-91271164D01*
X80321630Y-91310203D01*
X80228388Y-91357713D01*
X80062786Y-91478028D01*
X79918028Y-91622786D01*
X79797715Y-91788386D01*
X79704781Y-91970776D01*
X79641522Y-92165465D01*
X79609500Y-92367648D01*
X79609500Y-92572351D01*
X79641522Y-92774534D01*
X79704781Y-92969223D01*
X79768691Y-93094653D01*
X79784675Y-93126022D01*
X79797715Y-93151613D01*
X79918028Y-93317213D01*
X80062786Y-93461971D01*
X80186940Y-93552172D01*
X80228390Y-93582287D01*
X80319840Y-93628883D01*
X80321080Y-93629515D01*
X80371876Y-93677490D01*
X80388671Y-93745311D01*
X80366134Y-93811446D01*
X80321080Y-93850485D01*
X80228386Y-93897715D01*
X80062786Y-94018028D01*
X79918028Y-94162786D01*
X79797715Y-94328386D01*
X79704781Y-94510776D01*
X79641522Y-94705465D01*
X79609500Y-94907648D01*
X79609500Y-95112351D01*
X79641522Y-95314534D01*
X79704781Y-95509223D01*
X79797715Y-95691613D01*
X79918028Y-95857213D01*
X80062786Y-96001971D01*
X80228385Y-96122284D01*
X80228387Y-96122285D01*
X80228390Y-96122287D01*
X80321080Y-96169515D01*
X80321630Y-96169795D01*
X80372426Y-96217770D01*
X80389221Y-96285591D01*
X80366684Y-96351725D01*
X80321630Y-96390765D01*
X80228644Y-96438143D01*
X80184077Y-96470523D01*
X80184077Y-96470524D01*
X80863554Y-97150000D01*
X80857339Y-97150000D01*
X80755606Y-97177259D01*
X80664394Y-97229920D01*
X80589920Y-97304394D01*
X80537259Y-97395606D01*
X80510000Y-97497339D01*
X80510000Y-97503553D01*
X79830524Y-96824077D01*
X79830523Y-96824077D01*
X79798143Y-96868644D01*
X79705244Y-97050968D01*
X79642009Y-97245582D01*
X79610000Y-97447682D01*
X79610000Y-97652317D01*
X79642009Y-97854417D01*
X79705244Y-98049031D01*
X79798141Y-98231350D01*
X79798147Y-98231359D01*
X79830523Y-98275921D01*
X79830524Y-98275922D01*
X80510000Y-97596446D01*
X80510000Y-97602661D01*
X80537259Y-97704394D01*
X80589920Y-97795606D01*
X80664394Y-97870080D01*
X80755606Y-97922741D01*
X80857339Y-97950000D01*
X80863553Y-97950000D01*
X80184076Y-98629474D01*
X80228652Y-98661861D01*
X80321628Y-98709234D01*
X80372425Y-98757208D01*
X80389220Y-98825029D01*
X80366683Y-98891164D01*
X80321630Y-98930203D01*
X80228388Y-98977713D01*
X80062786Y-99098028D01*
X79918028Y-99242786D01*
X79797715Y-99408386D01*
X79704781Y-99590776D01*
X79641522Y-99785465D01*
X79609500Y-99987648D01*
X79609500Y-100192351D01*
X79641522Y-100394534D01*
X79704781Y-100589223D01*
X79797715Y-100771613D01*
X79918028Y-100937213D01*
X80062786Y-101081971D01*
X80217749Y-101194556D01*
X80228390Y-101202287D01*
X80307864Y-101242781D01*
X80321080Y-101249515D01*
X80371876Y-101297490D01*
X80388671Y-101365311D01*
X80366134Y-101431446D01*
X80321080Y-101470485D01*
X80228386Y-101517715D01*
X80062786Y-101638028D01*
X79918028Y-101782786D01*
X79797715Y-101948386D01*
X79704781Y-102130776D01*
X79641522Y-102325465D01*
X79609500Y-102527648D01*
X79609500Y-102732351D01*
X79641522Y-102934534D01*
X79704781Y-103129223D01*
X79768691Y-103254653D01*
X79792052Y-103300500D01*
X79797715Y-103311613D01*
X79918028Y-103477213D01*
X80062786Y-103621971D01*
X80187328Y-103712454D01*
X80228390Y-103742287D01*
X80319840Y-103788883D01*
X80321080Y-103789515D01*
X80371876Y-103837490D01*
X80388671Y-103905311D01*
X80366134Y-103971446D01*
X80321080Y-104010485D01*
X80228386Y-104057715D01*
X80062786Y-104178028D01*
X79918028Y-104322786D01*
X79797715Y-104488386D01*
X79704781Y-104670776D01*
X79641522Y-104865465D01*
X79609500Y-105067648D01*
X79609500Y-105272351D01*
X79641522Y-105474534D01*
X79704781Y-105669223D01*
X79768691Y-105794653D01*
X79797585Y-105851359D01*
X79797715Y-105851613D01*
X79918028Y-106017213D01*
X80062786Y-106161971D01*
X80183226Y-106249474D01*
X80228390Y-106282287D01*
X80343226Y-106340799D01*
X80410776Y-106375218D01*
X80410778Y-106375218D01*
X80410781Y-106375220D01*
X80515137Y-106409127D01*
X80605465Y-106438477D01*
X80706557Y-106454488D01*
X80807648Y-106470500D01*
X80807649Y-106470500D01*
X81012351Y-106470500D01*
X81012352Y-106470500D01*
X81214534Y-106438477D01*
X81409219Y-106375220D01*
X81591610Y-106282287D01*
X81684590Y-106214732D01*
X81757213Y-106161971D01*
X81757215Y-106161968D01*
X81757219Y-106161966D01*
X81901966Y-106017219D01*
X81901968Y-106017215D01*
X81901971Y-106017213D01*
X81954732Y-105944590D01*
X82022287Y-105851610D01*
X82115220Y-105669219D01*
X82178477Y-105474534D01*
X82210500Y-105272352D01*
X82210500Y-105067648D01*
X82202257Y-105015606D01*
X82178477Y-104865465D01*
X82137257Y-104738605D01*
X82115220Y-104670781D01*
X82115218Y-104670778D01*
X82115218Y-104670776D01*
X82043625Y-104530269D01*
X82022287Y-104488390D01*
X81990092Y-104444077D01*
X81901971Y-104322786D01*
X81757213Y-104178028D01*
X81591614Y-104057715D01*
X81542036Y-104032454D01*
X81498917Y-104010483D01*
X81448123Y-103962511D01*
X81431328Y-103894690D01*
X81453865Y-103828555D01*
X81498917Y-103789516D01*
X81591610Y-103742287D01*
X81632672Y-103712454D01*
X81757213Y-103621971D01*
X81757215Y-103621968D01*
X81757219Y-103621966D01*
X81901966Y-103477219D01*
X81901968Y-103477215D01*
X81901971Y-103477213D01*
X81954732Y-103404590D01*
X82022287Y-103311610D01*
X82115220Y-103129219D01*
X82178477Y-102934534D01*
X82210500Y-102732352D01*
X82210500Y-102527648D01*
X82198203Y-102450006D01*
X82178477Y-102325465D01*
X82148090Y-102231943D01*
X82115220Y-102130781D01*
X82115218Y-102130778D01*
X82115218Y-102130776D01*
X82068491Y-102039071D01*
X82062621Y-102027550D01*
X82042290Y-101987648D01*
X84609500Y-101987648D01*
X84609500Y-102192351D01*
X84641522Y-102394534D01*
X84704781Y-102589223D01*
X84797715Y-102771613D01*
X84918028Y-102937213D01*
X85062786Y-103081971D01*
X85217749Y-103194556D01*
X85228390Y-103202287D01*
X85344607Y-103261503D01*
X85410776Y-103295218D01*
X85410778Y-103295218D01*
X85410781Y-103295220D01*
X85515137Y-103329127D01*
X85605465Y-103358477D01*
X85706557Y-103374488D01*
X85807648Y-103390500D01*
X85807649Y-103390500D01*
X86012351Y-103390500D01*
X86012352Y-103390500D01*
X86214534Y-103358477D01*
X86409219Y-103295220D01*
X86591610Y-103202287D01*
X86692180Y-103129219D01*
X86757213Y-103081971D01*
X86757215Y-103081968D01*
X86757219Y-103081966D01*
X86901966Y-102937219D01*
X86901968Y-102937215D01*
X86901971Y-102937213D01*
X86981303Y-102828020D01*
X87022287Y-102771610D01*
X87113806Y-102591995D01*
X92909500Y-102591995D01*
X92909500Y-102828004D01*
X92909501Y-102828020D01*
X92931085Y-102991971D01*
X92940307Y-103062014D01*
X92953777Y-103112284D01*
X93001394Y-103289993D01*
X93091714Y-103508045D01*
X93091719Y-103508056D01*
X93150573Y-103609993D01*
X93209727Y-103712450D01*
X93209729Y-103712453D01*
X93209730Y-103712454D01*
X93353406Y-103899697D01*
X93353412Y-103899704D01*
X93520295Y-104066587D01*
X93520302Y-104066593D01*
X93551490Y-104090524D01*
X93707550Y-104210273D01*
X93838918Y-104286118D01*
X93911943Y-104328280D01*
X93911948Y-104328282D01*
X93911951Y-104328284D01*
X94130007Y-104418606D01*
X94357986Y-104479693D01*
X94591989Y-104510500D01*
X94591996Y-104510500D01*
X94828004Y-104510500D01*
X94828011Y-104510500D01*
X95062014Y-104479693D01*
X95289993Y-104418606D01*
X95508049Y-104328284D01*
X95712450Y-104210273D01*
X95899699Y-104066592D01*
X96066592Y-103899699D01*
X96210273Y-103712450D01*
X96328284Y-103508049D01*
X96418606Y-103289993D01*
X96479693Y-103062014D01*
X96510500Y-102828011D01*
X96510500Y-102591989D01*
X96479693Y-102357986D01*
X96418606Y-102130007D01*
X96328284Y-101911951D01*
X96328282Y-101911948D01*
X96328280Y-101911943D01*
X96286118Y-101838918D01*
X96210273Y-101707550D01*
X96066592Y-101520301D01*
X96066587Y-101520295D01*
X95899704Y-101353412D01*
X95899697Y-101353406D01*
X95712454Y-101209730D01*
X95712453Y-101209729D01*
X95712450Y-101209727D01*
X95630957Y-101162677D01*
X95508056Y-101091719D01*
X95508045Y-101091714D01*
X95289993Y-101001394D01*
X95062010Y-100940306D01*
X94828020Y-100909501D01*
X94828017Y-100909500D01*
X94828011Y-100909500D01*
X94591989Y-100909500D01*
X94591983Y-100909500D01*
X94591979Y-100909501D01*
X94357989Y-100940306D01*
X94130006Y-101001394D01*
X93911954Y-101091714D01*
X93911943Y-101091719D01*
X93707545Y-101209730D01*
X93520302Y-101353406D01*
X93520295Y-101353412D01*
X93353412Y-101520295D01*
X93353406Y-101520302D01*
X93209730Y-101707545D01*
X93091719Y-101911943D01*
X93091714Y-101911954D01*
X93001394Y-102130006D01*
X92940306Y-102357989D01*
X92909501Y-102591979D01*
X92909500Y-102591995D01*
X87113806Y-102591995D01*
X87115220Y-102589219D01*
X87178477Y-102394534D01*
X87210500Y-102192352D01*
X87210500Y-101987648D01*
X87178477Y-101785466D01*
X87177606Y-101782786D01*
X87115218Y-101590776D01*
X87079309Y-101520301D01*
X87022287Y-101408390D01*
X86990989Y-101365311D01*
X86901971Y-101242786D01*
X86757213Y-101098028D01*
X86591613Y-100977715D01*
X86591612Y-100977714D01*
X86591610Y-100977713D01*
X86518195Y-100940306D01*
X86409223Y-100884781D01*
X86214534Y-100821522D01*
X86039995Y-100793878D01*
X86012352Y-100789500D01*
X85807648Y-100789500D01*
X85783329Y-100793351D01*
X85605465Y-100821522D01*
X85410776Y-100884781D01*
X85228386Y-100977715D01*
X85062786Y-101098028D01*
X84918028Y-101242786D01*
X84797715Y-101408386D01*
X84704781Y-101590776D01*
X84641522Y-101785465D01*
X84609500Y-101987648D01*
X82042290Y-101987648D01*
X82022287Y-101948390D01*
X82022285Y-101948387D01*
X82022284Y-101948385D01*
X81901971Y-101782786D01*
X81757213Y-101638028D01*
X81591614Y-101517715D01*
X81558369Y-101500776D01*
X81498917Y-101470483D01*
X81448123Y-101422511D01*
X81431328Y-101354690D01*
X81453865Y-101288555D01*
X81498917Y-101249516D01*
X81591610Y-101202287D01*
X81659750Y-101152781D01*
X81757213Y-101081971D01*
X81757215Y-101081968D01*
X81757219Y-101081966D01*
X81901966Y-100937219D01*
X81901968Y-100937215D01*
X81901971Y-100937213D01*
X82009289Y-100789500D01*
X82022287Y-100771610D01*
X82115220Y-100589219D01*
X82178477Y-100394534D01*
X82210500Y-100192352D01*
X82210500Y-99987648D01*
X82181091Y-99801971D01*
X82178477Y-99785465D01*
X82115218Y-99590776D01*
X82043625Y-99450269D01*
X82022287Y-99408390D01*
X82012220Y-99394534D01*
X81901971Y-99242786D01*
X81757213Y-99098028D01*
X81736657Y-99083094D01*
X81605285Y-98987648D01*
X84609500Y-98987648D01*
X84609500Y-99192351D01*
X84641522Y-99394534D01*
X84704781Y-99589223D01*
X84797715Y-99771613D01*
X84918028Y-99937213D01*
X85062786Y-100081971D01*
X85217749Y-100194556D01*
X85228390Y-100202287D01*
X85344607Y-100261503D01*
X85410776Y-100295218D01*
X85410778Y-100295218D01*
X85410781Y-100295220D01*
X85515137Y-100329127D01*
X85605465Y-100358477D01*
X85706557Y-100374488D01*
X85807648Y-100390500D01*
X85807649Y-100390500D01*
X86012351Y-100390500D01*
X86012352Y-100390500D01*
X86214534Y-100358477D01*
X86409219Y-100295220D01*
X86591610Y-100202287D01*
X86717945Y-100110500D01*
X86757213Y-100081971D01*
X86757215Y-100081968D01*
X86757219Y-100081966D01*
X86901966Y-99937219D01*
X86901968Y-99937215D01*
X86901971Y-99937213D01*
X86954732Y-99864590D01*
X87022287Y-99771610D01*
X87115220Y-99589219D01*
X87178477Y-99394534D01*
X87210500Y-99192352D01*
X87210500Y-98987648D01*
X87201446Y-98930485D01*
X87178477Y-98785465D01*
X87115218Y-98590776D01*
X87032307Y-98428056D01*
X87022287Y-98408390D01*
X87014167Y-98397213D01*
X86901971Y-98242786D01*
X86757213Y-98098028D01*
X86591613Y-97977715D01*
X86591612Y-97977714D01*
X86591610Y-97977713D01*
X86483722Y-97922741D01*
X86409223Y-97884781D01*
X86214534Y-97821522D01*
X86039995Y-97793878D01*
X86012352Y-97789500D01*
X85807648Y-97789500D01*
X85783329Y-97793351D01*
X85605465Y-97821522D01*
X85410776Y-97884781D01*
X85228386Y-97977715D01*
X85062786Y-98098028D01*
X84918028Y-98242786D01*
X84797715Y-98408386D01*
X84704781Y-98590776D01*
X84641522Y-98785465D01*
X84609500Y-98987648D01*
X81605285Y-98987648D01*
X81591611Y-98977713D01*
X81498369Y-98930203D01*
X81447574Y-98882229D01*
X81430779Y-98814407D01*
X81453317Y-98748273D01*
X81498371Y-98709234D01*
X81591346Y-98661861D01*
X81591347Y-98661861D01*
X81635921Y-98629474D01*
X80956447Y-97950000D01*
X80962661Y-97950000D01*
X81064394Y-97922741D01*
X81155606Y-97870080D01*
X81230080Y-97795606D01*
X81282741Y-97704394D01*
X81310000Y-97602661D01*
X81310000Y-97596447D01*
X81989474Y-98275921D01*
X82021859Y-98231349D01*
X82114755Y-98049031D01*
X82177990Y-97854417D01*
X82210000Y-97652317D01*
X82210000Y-97511995D01*
X92909500Y-97511995D01*
X92909500Y-97748004D01*
X92909501Y-97748020D01*
X92940306Y-97982010D01*
X93001394Y-98209993D01*
X93091714Y-98428045D01*
X93091719Y-98428056D01*
X93150573Y-98529993D01*
X93209727Y-98632450D01*
X93209729Y-98632453D01*
X93209730Y-98632454D01*
X93353406Y-98819697D01*
X93353412Y-98819704D01*
X93520295Y-98986587D01*
X93520301Y-98986592D01*
X93707550Y-99130273D01*
X93815074Y-99192352D01*
X93911943Y-99248280D01*
X93911948Y-99248282D01*
X93911951Y-99248284D01*
X94130007Y-99338606D01*
X94357986Y-99399693D01*
X94591989Y-99430500D01*
X94591996Y-99430500D01*
X94828004Y-99430500D01*
X94828011Y-99430500D01*
X95062014Y-99399693D01*
X95289993Y-99338606D01*
X95508049Y-99248284D01*
X95712450Y-99130273D01*
X95899699Y-98986592D01*
X96066592Y-98819699D01*
X96210273Y-98632450D01*
X96328284Y-98428049D01*
X96418606Y-98209993D01*
X96479693Y-97982014D01*
X96510500Y-97748011D01*
X96510500Y-97511989D01*
X96479693Y-97277986D01*
X96418606Y-97050007D01*
X96328284Y-96831951D01*
X96328282Y-96831948D01*
X96328280Y-96831943D01*
X96286118Y-96758918D01*
X96210273Y-96627550D01*
X96066592Y-96440301D01*
X96066587Y-96440295D01*
X95899704Y-96273412D01*
X95899697Y-96273406D01*
X95712454Y-96129730D01*
X95712453Y-96129729D01*
X95712450Y-96129727D01*
X95630957Y-96082677D01*
X95508056Y-96011719D01*
X95508045Y-96011714D01*
X95289993Y-95921394D01*
X95062010Y-95860306D01*
X94828020Y-95829501D01*
X94828017Y-95829500D01*
X94828011Y-95829500D01*
X94591989Y-95829500D01*
X94591983Y-95829500D01*
X94591979Y-95829501D01*
X94357989Y-95860306D01*
X94130006Y-95921394D01*
X93911954Y-96011714D01*
X93911943Y-96011719D01*
X93707545Y-96129730D01*
X93520302Y-96273406D01*
X93520295Y-96273412D01*
X93353412Y-96440295D01*
X93353406Y-96440302D01*
X93209730Y-96627545D01*
X93091719Y-96831943D01*
X93091714Y-96831954D01*
X93001394Y-97050006D01*
X92940306Y-97277989D01*
X92909501Y-97511979D01*
X92909500Y-97511995D01*
X82210000Y-97511995D01*
X82210000Y-97447682D01*
X82177990Y-97245582D01*
X82114755Y-97050968D01*
X82021859Y-96868650D01*
X81989474Y-96824077D01*
X81989474Y-96824076D01*
X81310000Y-97503551D01*
X81310000Y-97497339D01*
X81282741Y-97395606D01*
X81230080Y-97304394D01*
X81155606Y-97229920D01*
X81064394Y-97177259D01*
X80962661Y-97150000D01*
X80956446Y-97150000D01*
X81635922Y-96470524D01*
X81635921Y-96470523D01*
X81591359Y-96438147D01*
X81591350Y-96438141D01*
X81498369Y-96390765D01*
X81447573Y-96342790D01*
X81430778Y-96274969D01*
X81453315Y-96208835D01*
X81498370Y-96169795D01*
X81498920Y-96169515D01*
X81591610Y-96122287D01*
X81641144Y-96086298D01*
X81757213Y-96001971D01*
X81757215Y-96001968D01*
X81757219Y-96001966D01*
X81901966Y-95857219D01*
X81901968Y-95857215D01*
X81901971Y-95857213D01*
X81954732Y-95784590D01*
X82022287Y-95691610D01*
X82115220Y-95509219D01*
X82178477Y-95314534D01*
X82210500Y-95112352D01*
X82210500Y-94907648D01*
X82178477Y-94705466D01*
X82115220Y-94510781D01*
X82115218Y-94510778D01*
X82115218Y-94510776D01*
X82043625Y-94370269D01*
X82022287Y-94328390D01*
X81971240Y-94258129D01*
X81901971Y-94162786D01*
X81757213Y-94018028D01*
X81591614Y-93897715D01*
X81542036Y-93872454D01*
X81498917Y-93850483D01*
X81448123Y-93802511D01*
X81431328Y-93734690D01*
X81453865Y-93668555D01*
X81498917Y-93629516D01*
X81591610Y-93582287D01*
X81633060Y-93552172D01*
X81757213Y-93461971D01*
X81757215Y-93461968D01*
X81757219Y-93461966D01*
X81901966Y-93317219D01*
X81901968Y-93317215D01*
X81901971Y-93317213D01*
X81987130Y-93200000D01*
X82022287Y-93151610D01*
X82115220Y-92969219D01*
X82178477Y-92774534D01*
X82210500Y-92572352D01*
X82210500Y-92367648D01*
X82198203Y-92290006D01*
X82178477Y-92165465D01*
X82136805Y-92037213D01*
X82115220Y-91970781D01*
X82115218Y-91970778D01*
X82115218Y-91970776D01*
X82062621Y-91867550D01*
X82022287Y-91788390D01*
X81950236Y-91689219D01*
X81901971Y-91622786D01*
X81757213Y-91478028D01*
X81736657Y-91463094D01*
X81605285Y-91367648D01*
X84609500Y-91367648D01*
X84609500Y-91572351D01*
X84641522Y-91774534D01*
X84704781Y-91969223D01*
X84757126Y-92071954D01*
X84789580Y-92135649D01*
X84797715Y-92151613D01*
X84918028Y-92317213D01*
X85062786Y-92461971D01*
X85217749Y-92574556D01*
X85228390Y-92582287D01*
X85344607Y-92641503D01*
X85410776Y-92675218D01*
X85410778Y-92675218D01*
X85410781Y-92675220D01*
X85515137Y-92709127D01*
X85605465Y-92738477D01*
X85690713Y-92751979D01*
X85807648Y-92770500D01*
X85807649Y-92770500D01*
X86012351Y-92770500D01*
X86012352Y-92770500D01*
X86214534Y-92738477D01*
X86409219Y-92675220D01*
X86591610Y-92582287D01*
X86724165Y-92485981D01*
X86757213Y-92461971D01*
X86757215Y-92461968D01*
X86757219Y-92461966D01*
X86787171Y-92432014D01*
X92910000Y-92432014D01*
X92910000Y-92667985D01*
X92940799Y-92901914D01*
X93001870Y-93129837D01*
X93092160Y-93347819D01*
X93092165Y-93347828D01*
X93210144Y-93552171D01*
X93210145Y-93552172D01*
X93272721Y-93633723D01*
X94108958Y-92797487D01*
X94133978Y-92857890D01*
X94205112Y-92964351D01*
X94295649Y-93054888D01*
X94402110Y-93126022D01*
X94462511Y-93151041D01*
X93626275Y-93987277D01*
X93707827Y-94049854D01*
X93707828Y-94049855D01*
X93912171Y-94167834D01*
X93912180Y-94167839D01*
X94130163Y-94258129D01*
X94130161Y-94258129D01*
X94358085Y-94319200D01*
X94592014Y-94349999D01*
X94592029Y-94350000D01*
X94827971Y-94350000D01*
X94827985Y-94349999D01*
X95061914Y-94319200D01*
X95289837Y-94258129D01*
X95507819Y-94167839D01*
X95507828Y-94167834D01*
X95712181Y-94049850D01*
X95793723Y-93987279D01*
X95793723Y-93987276D01*
X94957487Y-93151041D01*
X95017890Y-93126022D01*
X95124351Y-93054888D01*
X95214888Y-92964351D01*
X95286022Y-92857890D01*
X95311041Y-92797487D01*
X96147276Y-93633723D01*
X96147279Y-93633723D01*
X96209850Y-93552181D01*
X96327834Y-93347828D01*
X96327839Y-93347819D01*
X96418129Y-93129837D01*
X96479200Y-92901914D01*
X96509999Y-92667985D01*
X96510000Y-92667971D01*
X96510000Y-92432028D01*
X96509999Y-92432014D01*
X96479200Y-92198085D01*
X96418129Y-91970162D01*
X96327839Y-91752180D01*
X96327834Y-91752171D01*
X96209855Y-91547828D01*
X96209854Y-91547827D01*
X96147277Y-91466275D01*
X95311041Y-92302511D01*
X95286022Y-92242110D01*
X95214888Y-92135649D01*
X95124351Y-92045112D01*
X95017890Y-91973978D01*
X94957488Y-91948958D01*
X95793723Y-91112721D01*
X95712172Y-91050145D01*
X95712171Y-91050144D01*
X95507828Y-90932165D01*
X95507819Y-90932160D01*
X95289836Y-90841870D01*
X95289838Y-90841870D01*
X95061914Y-90780799D01*
X94827985Y-90750000D01*
X94592014Y-90750000D01*
X94358085Y-90780799D01*
X94130162Y-90841870D01*
X93912180Y-90932160D01*
X93912171Y-90932165D01*
X93707828Y-91050144D01*
X93707818Y-91050150D01*
X93626275Y-91112720D01*
X93626275Y-91112721D01*
X94462512Y-91948958D01*
X94402110Y-91973978D01*
X94295649Y-92045112D01*
X94205112Y-92135649D01*
X94133978Y-92242110D01*
X94108958Y-92302512D01*
X93272721Y-91466275D01*
X93272720Y-91466275D01*
X93210150Y-91547818D01*
X93210144Y-91547828D01*
X93092165Y-91752171D01*
X93092160Y-91752180D01*
X93001870Y-91970162D01*
X92940799Y-92198085D01*
X92910000Y-92432014D01*
X86787171Y-92432014D01*
X86901966Y-92317219D01*
X86901968Y-92317215D01*
X86901971Y-92317213D01*
X86989712Y-92196446D01*
X87022287Y-92151610D01*
X87115220Y-91969219D01*
X87178477Y-91774534D01*
X87210500Y-91572352D01*
X87210500Y-91367648D01*
X87201446Y-91310485D01*
X87180791Y-91180072D01*
X87178476Y-91165465D01*
X87177154Y-91161395D01*
X87147296Y-91069500D01*
X87115220Y-90970781D01*
X87115218Y-90970778D01*
X87115218Y-90970776D01*
X87049536Y-90841870D01*
X87022287Y-90788390D01*
X87014167Y-90777213D01*
X86901971Y-90622786D01*
X86757213Y-90478028D01*
X86591613Y-90357715D01*
X86591612Y-90357714D01*
X86591610Y-90357713D01*
X86483722Y-90302741D01*
X86409223Y-90264781D01*
X86214534Y-90201522D01*
X86039995Y-90173878D01*
X86012352Y-90169500D01*
X85807648Y-90169500D01*
X85783329Y-90173351D01*
X85605465Y-90201522D01*
X85410776Y-90264781D01*
X85228386Y-90357715D01*
X85062786Y-90478028D01*
X84918028Y-90622786D01*
X84797715Y-90788386D01*
X84704781Y-90970776D01*
X84641522Y-91165465D01*
X84609500Y-91367648D01*
X81605285Y-91367648D01*
X81591611Y-91357713D01*
X81498369Y-91310203D01*
X81447574Y-91262229D01*
X81430779Y-91194407D01*
X81453317Y-91128273D01*
X81498371Y-91089234D01*
X81591346Y-91041861D01*
X81591347Y-91041861D01*
X81635921Y-91009474D01*
X80956447Y-90330000D01*
X80962661Y-90330000D01*
X81064394Y-90302741D01*
X81155606Y-90250080D01*
X81230080Y-90175606D01*
X81282741Y-90084394D01*
X81310000Y-89982661D01*
X81310000Y-89976447D01*
X81989474Y-90655921D01*
X82021859Y-90611349D01*
X82114755Y-90429031D01*
X82177990Y-90234417D01*
X82210000Y-90032317D01*
X82210000Y-89827682D01*
X82177990Y-89625582D01*
X82114755Y-89430968D01*
X82021859Y-89248650D01*
X81989474Y-89204077D01*
X81989474Y-89204076D01*
X81310000Y-89883551D01*
X81310000Y-89877339D01*
X81282741Y-89775606D01*
X81230080Y-89684394D01*
X81155606Y-89609920D01*
X81064394Y-89557259D01*
X80962661Y-89530000D01*
X80956446Y-89530000D01*
X81635922Y-88850524D01*
X81635921Y-88850523D01*
X81591359Y-88818147D01*
X81591350Y-88818141D01*
X81498369Y-88770765D01*
X81447573Y-88722790D01*
X81430778Y-88654969D01*
X81453315Y-88588835D01*
X81498370Y-88549795D01*
X81591610Y-88502287D01*
X81715396Y-88412352D01*
X81757213Y-88381971D01*
X81757215Y-88381968D01*
X81757219Y-88381966D01*
X81901966Y-88237219D01*
X81906868Y-88230471D01*
X81923450Y-88207648D01*
X84609500Y-88207648D01*
X84609500Y-88412351D01*
X84641522Y-88614534D01*
X84704781Y-88809223D01*
X84797715Y-88991613D01*
X84918028Y-89157213D01*
X85062786Y-89301971D01*
X85191132Y-89395218D01*
X85228390Y-89422287D01*
X85299417Y-89458477D01*
X85410776Y-89515218D01*
X85410778Y-89515218D01*
X85410781Y-89515220D01*
X85515137Y-89549127D01*
X85605465Y-89578477D01*
X85681362Y-89590498D01*
X85807648Y-89610500D01*
X85807649Y-89610500D01*
X86012351Y-89610500D01*
X86012352Y-89610500D01*
X86214534Y-89578477D01*
X86409219Y-89515220D01*
X86591610Y-89422287D01*
X86684590Y-89354732D01*
X86757213Y-89301971D01*
X86757215Y-89301968D01*
X86757219Y-89301966D01*
X86901966Y-89157219D01*
X86901968Y-89157215D01*
X86901971Y-89157213D01*
X86989150Y-89037219D01*
X87022287Y-88991610D01*
X87115220Y-88809219D01*
X87178477Y-88614534D01*
X87210500Y-88412352D01*
X87210500Y-88207648D01*
X87198184Y-88129891D01*
X87178477Y-88005465D01*
X87115218Y-87810776D01*
X87055989Y-87694534D01*
X87022287Y-87628390D01*
X87014556Y-87617749D01*
X86901971Y-87462786D01*
X86757213Y-87318028D01*
X86591613Y-87197715D01*
X86591612Y-87197714D01*
X86591610Y-87197713D01*
X86534653Y-87168691D01*
X86409223Y-87104781D01*
X86214534Y-87041522D01*
X86039995Y-87013878D01*
X86012352Y-87009500D01*
X85807648Y-87009500D01*
X85783329Y-87013351D01*
X85605465Y-87041522D01*
X85410776Y-87104781D01*
X85228386Y-87197715D01*
X85062786Y-87318028D01*
X84918028Y-87462786D01*
X84797715Y-87628386D01*
X84704781Y-87810776D01*
X84641522Y-88005465D01*
X84609500Y-88207648D01*
X81923450Y-88207648D01*
X81979945Y-88129891D01*
X82010635Y-88087648D01*
X82022287Y-88071610D01*
X82115220Y-87889219D01*
X82178477Y-87694534D01*
X82210500Y-87492352D01*
X82210500Y-87287648D01*
X82196256Y-87197715D01*
X82178477Y-87085465D01*
X82145762Y-86984780D01*
X82115220Y-86890781D01*
X82115218Y-86890778D01*
X82115218Y-86890776D01*
X82063865Y-86789991D01*
X82022287Y-86708390D01*
X82006892Y-86687200D01*
X81901971Y-86542786D01*
X81757213Y-86398028D01*
X81591613Y-86277715D01*
X81591612Y-86277714D01*
X81591610Y-86277713D01*
X81531898Y-86247288D01*
X81409223Y-86184781D01*
X81214534Y-86121522D01*
X81039995Y-86093878D01*
X81012352Y-86089500D01*
X80807648Y-86089500D01*
X80783329Y-86093351D01*
X80605465Y-86121522D01*
X80410776Y-86184781D01*
X80228386Y-86277715D01*
X80062786Y-86398028D01*
X79918028Y-86542786D01*
X79797715Y-86708386D01*
X79704781Y-86890776D01*
X79641522Y-87085465D01*
X79609500Y-87287648D01*
X74590499Y-87287648D01*
X74590499Y-86789992D01*
X74579999Y-86687203D01*
X74524814Y-86520666D01*
X74432712Y-86371344D01*
X74308656Y-86247288D01*
X74207314Y-86184780D01*
X74159336Y-86155187D01*
X74159331Y-86155185D01*
X74157862Y-86154698D01*
X73992797Y-86100001D01*
X73992795Y-86100000D01*
X73890010Y-86089500D01*
X72689998Y-86089500D01*
X72689981Y-86089501D01*
X72587203Y-86100000D01*
X72587200Y-86100001D01*
X72420668Y-86155185D01*
X72420663Y-86155187D01*
X72271342Y-86247289D01*
X72147289Y-86371342D01*
X72055187Y-86520663D01*
X72055185Y-86520668D01*
X72028798Y-86600301D01*
X72000001Y-86687203D01*
X72000001Y-86687204D01*
X72000000Y-86687204D01*
X71989500Y-86789983D01*
X61211678Y-86789983D01*
X61210273Y-86787550D01*
X61066592Y-86600301D01*
X61066587Y-86600295D01*
X60899704Y-86433412D01*
X60899697Y-86433406D01*
X60712454Y-86289730D01*
X60712453Y-86289729D01*
X60712450Y-86289727D01*
X60630957Y-86242677D01*
X60508056Y-86171719D01*
X60508045Y-86171714D01*
X60289993Y-86081394D01*
X60062010Y-86020306D01*
X59828020Y-85989501D01*
X59828017Y-85989500D01*
X59828011Y-85989500D01*
X59591989Y-85989500D01*
X59591983Y-85989500D01*
X59591979Y-85989501D01*
X59357989Y-86020306D01*
X59130006Y-86081394D01*
X58911954Y-86171714D01*
X58911943Y-86171719D01*
X58707545Y-86289730D01*
X58520302Y-86433406D01*
X58520295Y-86433412D01*
X58353412Y-86600295D01*
X58353406Y-86600302D01*
X58209730Y-86787545D01*
X58209727Y-86787549D01*
X58209727Y-86787550D01*
X58208322Y-86789983D01*
X58091719Y-86991943D01*
X58091714Y-86991954D01*
X58001394Y-87210006D01*
X57940306Y-87437989D01*
X57909501Y-87671979D01*
X57909500Y-87671995D01*
X50500500Y-87671995D01*
X50500500Y-82591995D01*
X57909500Y-82591995D01*
X57909500Y-82828004D01*
X57909501Y-82828020D01*
X57940306Y-83062010D01*
X57940306Y-83062013D01*
X57940307Y-83062014D01*
X57952802Y-83108644D01*
X58001394Y-83289993D01*
X58091714Y-83508045D01*
X58091719Y-83508056D01*
X58139478Y-83590776D01*
X58209727Y-83712450D01*
X58209729Y-83712453D01*
X58209730Y-83712454D01*
X58353406Y-83899697D01*
X58353412Y-83899704D01*
X58520295Y-84066587D01*
X58520302Y-84066593D01*
X58550807Y-84090000D01*
X58707550Y-84210273D01*
X58838918Y-84286118D01*
X58911943Y-84328280D01*
X58911948Y-84328282D01*
X58911951Y-84328284D01*
X59130007Y-84418606D01*
X59357986Y-84479693D01*
X59591989Y-84510500D01*
X59591996Y-84510500D01*
X59828004Y-84510500D01*
X59828011Y-84510500D01*
X60062014Y-84479693D01*
X60289993Y-84418606D01*
X60508049Y-84328284D01*
X60712450Y-84210273D01*
X60899699Y-84066592D01*
X60978609Y-83987682D01*
X74600000Y-83987682D01*
X74600000Y-84192317D01*
X74632009Y-84394417D01*
X74695244Y-84589031D01*
X74788141Y-84771350D01*
X74788147Y-84771359D01*
X74820523Y-84815921D01*
X74820524Y-84815922D01*
X75500000Y-84136446D01*
X75500000Y-84142661D01*
X75527259Y-84244394D01*
X75579920Y-84335606D01*
X75654394Y-84410080D01*
X75745606Y-84462741D01*
X75847339Y-84490000D01*
X75853553Y-84490000D01*
X75174076Y-85169474D01*
X75218650Y-85201859D01*
X75400968Y-85294755D01*
X75595582Y-85357990D01*
X75797683Y-85390000D01*
X76002317Y-85390000D01*
X76204417Y-85357990D01*
X76399031Y-85294755D01*
X76581349Y-85201859D01*
X76625921Y-85169474D01*
X75946447Y-84490000D01*
X75952661Y-84490000D01*
X76054394Y-84462741D01*
X76145606Y-84410080D01*
X76220080Y-84335606D01*
X76272741Y-84244394D01*
X76300000Y-84142661D01*
X76300000Y-84136447D01*
X76979474Y-84815921D01*
X77011859Y-84771349D01*
X77104755Y-84589031D01*
X77167990Y-84394417D01*
X77200000Y-84192317D01*
X77200000Y-83987682D01*
X77199995Y-83987648D01*
X79599500Y-83987648D01*
X79599500Y-84192352D01*
X79603878Y-84219995D01*
X79631522Y-84394534D01*
X79694781Y-84589223D01*
X79719234Y-84637213D01*
X79787585Y-84771359D01*
X79787715Y-84771613D01*
X79908028Y-84937213D01*
X80052786Y-85081971D01*
X80173226Y-85169474D01*
X80218390Y-85202287D01*
X80334607Y-85261503D01*
X80400776Y-85295218D01*
X80400778Y-85295218D01*
X80400781Y-85295220D01*
X80505137Y-85329127D01*
X80595465Y-85358477D01*
X80696557Y-85374488D01*
X80797648Y-85390500D01*
X80797649Y-85390500D01*
X81002351Y-85390500D01*
X81002352Y-85390500D01*
X81204534Y-85358477D01*
X81399219Y-85295220D01*
X81581610Y-85202287D01*
X81674590Y-85134732D01*
X81747213Y-85081971D01*
X81747215Y-85081968D01*
X81747219Y-85081966D01*
X81891966Y-84937219D01*
X81891968Y-84937215D01*
X81891971Y-84937213D01*
X82012286Y-84771611D01*
X82012415Y-84771359D01*
X82105220Y-84589219D01*
X82168477Y-84394534D01*
X82200500Y-84192352D01*
X82200500Y-83987648D01*
X82168477Y-83785466D01*
X82168476Y-83785462D01*
X82168476Y-83785461D01*
X82147575Y-83721134D01*
X82136706Y-83687682D01*
X90910000Y-83687682D01*
X90910000Y-83892317D01*
X90942009Y-84094417D01*
X91005244Y-84289031D01*
X91098141Y-84471350D01*
X91098147Y-84471359D01*
X91130523Y-84515921D01*
X91130524Y-84515922D01*
X91810000Y-83836446D01*
X91810000Y-83842661D01*
X91837259Y-83944394D01*
X91889920Y-84035606D01*
X91964394Y-84110080D01*
X92055606Y-84162741D01*
X92157339Y-84190000D01*
X92163553Y-84190000D01*
X91484076Y-84869474D01*
X91528650Y-84901859D01*
X91710968Y-84994755D01*
X91905582Y-85057990D01*
X92107683Y-85090000D01*
X92312317Y-85090000D01*
X92514417Y-85057990D01*
X92709031Y-84994755D01*
X92891349Y-84901859D01*
X92935921Y-84869474D01*
X92256447Y-84190000D01*
X92262661Y-84190000D01*
X92364394Y-84162741D01*
X92455606Y-84110080D01*
X92530080Y-84035606D01*
X92582741Y-83944394D01*
X92610000Y-83842661D01*
X92610000Y-83836447D01*
X93289474Y-84515921D01*
X93321859Y-84471349D01*
X93414755Y-84289031D01*
X93477990Y-84094417D01*
X93510000Y-83892317D01*
X93510000Y-83687682D01*
X93509995Y-83687648D01*
X95909500Y-83687648D01*
X95909500Y-83892352D01*
X95913878Y-83919995D01*
X95941522Y-84094534D01*
X96004781Y-84289223D01*
X96028415Y-84335606D01*
X96097585Y-84471359D01*
X96097715Y-84471613D01*
X96218028Y-84637213D01*
X96362786Y-84781971D01*
X96483226Y-84869474D01*
X96528390Y-84902287D01*
X96644607Y-84961503D01*
X96710776Y-84995218D01*
X96710778Y-84995218D01*
X96710781Y-84995220D01*
X96815137Y-85029127D01*
X96905465Y-85058477D01*
X97006557Y-85074488D01*
X97107648Y-85090500D01*
X97107649Y-85090500D01*
X97312351Y-85090500D01*
X97312352Y-85090500D01*
X97514534Y-85058477D01*
X97709219Y-84995220D01*
X97891610Y-84902287D01*
X97984590Y-84834732D01*
X98057213Y-84781971D01*
X98057215Y-84781968D01*
X98057219Y-84781966D01*
X98201966Y-84637219D01*
X98201968Y-84637215D01*
X98201971Y-84637213D01*
X98254732Y-84564590D01*
X98322287Y-84471610D01*
X98415220Y-84289219D01*
X98478477Y-84094534D01*
X98510500Y-83892352D01*
X98510500Y-83687648D01*
X98495157Y-83590776D01*
X98478477Y-83485465D01*
X98439035Y-83364076D01*
X98415220Y-83290781D01*
X98415218Y-83290778D01*
X98415218Y-83290776D01*
X98322419Y-83108650D01*
X98322287Y-83108390D01*
X98290092Y-83064077D01*
X98201971Y-82942786D01*
X98057213Y-82798028D01*
X97891613Y-82677715D01*
X97891612Y-82677714D01*
X97891610Y-82677713D01*
X97834653Y-82648691D01*
X97709223Y-82584781D01*
X97514534Y-82521522D01*
X97339995Y-82493878D01*
X97312352Y-82489500D01*
X97107648Y-82489500D01*
X97083329Y-82493351D01*
X96905465Y-82521522D01*
X96710776Y-82584781D01*
X96528386Y-82677715D01*
X96362786Y-82798028D01*
X96218028Y-82942786D01*
X96097715Y-83108386D01*
X96004781Y-83290776D01*
X95941522Y-83485465D01*
X95909500Y-83687648D01*
X93509995Y-83687648D01*
X93477990Y-83485582D01*
X93414755Y-83290968D01*
X93321859Y-83108650D01*
X93289474Y-83064077D01*
X93289474Y-83064076D01*
X92610000Y-83743551D01*
X92610000Y-83737339D01*
X92582741Y-83635606D01*
X92530080Y-83544394D01*
X92455606Y-83469920D01*
X92364394Y-83417259D01*
X92262661Y-83390000D01*
X92256446Y-83390000D01*
X92935922Y-82710524D01*
X92935921Y-82710523D01*
X92891359Y-82678147D01*
X92891350Y-82678141D01*
X92709031Y-82585244D01*
X92514417Y-82522009D01*
X92312317Y-82490000D01*
X92107683Y-82490000D01*
X91905582Y-82522009D01*
X91710968Y-82585244D01*
X91528644Y-82678143D01*
X91484077Y-82710523D01*
X91484077Y-82710524D01*
X92163554Y-83390000D01*
X92157339Y-83390000D01*
X92055606Y-83417259D01*
X91964394Y-83469920D01*
X91889920Y-83544394D01*
X91837259Y-83635606D01*
X91810000Y-83737339D01*
X91810000Y-83743553D01*
X91130524Y-83064077D01*
X91130523Y-83064077D01*
X91098143Y-83108644D01*
X91005244Y-83290968D01*
X90942009Y-83485582D01*
X90910000Y-83687682D01*
X82136706Y-83687682D01*
X82119514Y-83634773D01*
X82105220Y-83590781D01*
X82105218Y-83590778D01*
X82105218Y-83590776D01*
X82051559Y-83485466D01*
X82012287Y-83408390D01*
X81980092Y-83364077D01*
X81891971Y-83242786D01*
X81747213Y-83098028D01*
X81581613Y-82977715D01*
X81581612Y-82977714D01*
X81581610Y-82977713D01*
X81399219Y-82884780D01*
X81311411Y-82856249D01*
X81204534Y-82821522D01*
X81029995Y-82793878D01*
X81002352Y-82789500D01*
X80797648Y-82789500D01*
X80773329Y-82793351D01*
X80595465Y-82821522D01*
X80400776Y-82884781D01*
X80218386Y-82977715D01*
X80052786Y-83098028D01*
X79908028Y-83242786D01*
X79787715Y-83408386D01*
X79694781Y-83590776D01*
X79631522Y-83785465D01*
X79606351Y-83944394D01*
X79599500Y-83987648D01*
X77199995Y-83987648D01*
X77167990Y-83785582D01*
X77104755Y-83590968D01*
X77011859Y-83408650D01*
X76979474Y-83364077D01*
X76979474Y-83364076D01*
X76300000Y-84043551D01*
X76300000Y-84037339D01*
X76272741Y-83935606D01*
X76220080Y-83844394D01*
X76145606Y-83769920D01*
X76054394Y-83717259D01*
X75952661Y-83690000D01*
X75946446Y-83690000D01*
X76625922Y-83010524D01*
X76625921Y-83010523D01*
X76581359Y-82978147D01*
X76581350Y-82978141D01*
X76399031Y-82885244D01*
X76204417Y-82822009D01*
X76002317Y-82790000D01*
X75797683Y-82790000D01*
X75595582Y-82822009D01*
X75400968Y-82885244D01*
X75218644Y-82978143D01*
X75174077Y-83010523D01*
X75174077Y-83010524D01*
X75853554Y-83690000D01*
X75847339Y-83690000D01*
X75745606Y-83717259D01*
X75654394Y-83769920D01*
X75579920Y-83844394D01*
X75527259Y-83935606D01*
X75500000Y-84037339D01*
X75500000Y-84043553D01*
X74820524Y-83364077D01*
X74820523Y-83364077D01*
X74788143Y-83408644D01*
X74695244Y-83590968D01*
X74632009Y-83785582D01*
X74600000Y-83987682D01*
X60978609Y-83987682D01*
X61066592Y-83899699D01*
X61210273Y-83712450D01*
X61328284Y-83508049D01*
X61418606Y-83289993D01*
X61479693Y-83062014D01*
X61510500Y-82828011D01*
X61510500Y-82591989D01*
X61479693Y-82357986D01*
X61418606Y-82130007D01*
X61328284Y-81911951D01*
X61328282Y-81911948D01*
X61328280Y-81911943D01*
X61264969Y-81802287D01*
X61210273Y-81707550D01*
X61151001Y-81630306D01*
X61066593Y-81520302D01*
X61066587Y-81520295D01*
X60899704Y-81353412D01*
X60899697Y-81353406D01*
X60712454Y-81209730D01*
X60712453Y-81209729D01*
X60712450Y-81209727D01*
X60630957Y-81162677D01*
X60508056Y-81091719D01*
X60508045Y-81091714D01*
X60289993Y-81001394D01*
X60062010Y-80940306D01*
X59828020Y-80909501D01*
X59828017Y-80909500D01*
X59828011Y-80909500D01*
X59591989Y-80909500D01*
X59591983Y-80909500D01*
X59591979Y-80909501D01*
X59357989Y-80940306D01*
X59130006Y-81001394D01*
X58911954Y-81091714D01*
X58911943Y-81091719D01*
X58707545Y-81209730D01*
X58520302Y-81353406D01*
X58520295Y-81353412D01*
X58353412Y-81520295D01*
X58353406Y-81520302D01*
X58209730Y-81707545D01*
X58091719Y-81911943D01*
X58091714Y-81911954D01*
X58001394Y-82130006D01*
X57940306Y-82357989D01*
X57909501Y-82591979D01*
X57909500Y-82591995D01*
X50500500Y-82591995D01*
X50500500Y-80467648D01*
X67209500Y-80467648D01*
X67209500Y-80672351D01*
X67241522Y-80874534D01*
X67304781Y-81069223D01*
X67397715Y-81251613D01*
X67518028Y-81417213D01*
X67662786Y-81561971D01*
X67817749Y-81674556D01*
X67828390Y-81682287D01*
X67944607Y-81741503D01*
X68010776Y-81775218D01*
X68010778Y-81775218D01*
X68010781Y-81775220D01*
X68094085Y-81802287D01*
X68205465Y-81838477D01*
X68306557Y-81854488D01*
X68407648Y-81870500D01*
X68407649Y-81870500D01*
X68612351Y-81870500D01*
X68612352Y-81870500D01*
X68814534Y-81838477D01*
X69009219Y-81775220D01*
X69191610Y-81682287D01*
X69284590Y-81614732D01*
X69357213Y-81561971D01*
X69357215Y-81561968D01*
X69357219Y-81561966D01*
X69501966Y-81417219D01*
X69501968Y-81417215D01*
X69501971Y-81417213D01*
X69554732Y-81344590D01*
X69622287Y-81251610D01*
X69715220Y-81069219D01*
X69778477Y-80874534D01*
X69810500Y-80672352D01*
X69810500Y-80587648D01*
X84609500Y-80587648D01*
X84609500Y-80792351D01*
X84641522Y-80994534D01*
X84704781Y-81189223D01*
X84797715Y-81371613D01*
X84918028Y-81537213D01*
X85062786Y-81681971D01*
X85191132Y-81775218D01*
X85228390Y-81802287D01*
X85299417Y-81838477D01*
X85410776Y-81895218D01*
X85410778Y-81895218D01*
X85410781Y-81895220D01*
X85515137Y-81929127D01*
X85605465Y-81958477D01*
X85706557Y-81974488D01*
X85807648Y-81990500D01*
X85807649Y-81990500D01*
X86012351Y-81990500D01*
X86012352Y-81990500D01*
X86214534Y-81958477D01*
X86409219Y-81895220D01*
X86591610Y-81802287D01*
X86684590Y-81734732D01*
X86757213Y-81681971D01*
X86757215Y-81681968D01*
X86757219Y-81681966D01*
X86901966Y-81537219D01*
X86901968Y-81537215D01*
X86901971Y-81537213D01*
X86989150Y-81417219D01*
X87022287Y-81371610D01*
X87115220Y-81189219D01*
X87178477Y-80994534D01*
X87210500Y-80792352D01*
X87210500Y-80587648D01*
X87178477Y-80385466D01*
X87115220Y-80190781D01*
X87115218Y-80190778D01*
X87115218Y-80190776D01*
X87081503Y-80124607D01*
X87022287Y-80008390D01*
X86999997Y-79977710D01*
X86901971Y-79842786D01*
X86757213Y-79698028D01*
X86591613Y-79577715D01*
X86591612Y-79577714D01*
X86591610Y-79577713D01*
X86534653Y-79548691D01*
X86409223Y-79484781D01*
X86214534Y-79421522D01*
X86039995Y-79393878D01*
X86012352Y-79389500D01*
X85807648Y-79389500D01*
X85783329Y-79393351D01*
X85605465Y-79421522D01*
X85410776Y-79484781D01*
X85228386Y-79577715D01*
X85062786Y-79698028D01*
X84918028Y-79842786D01*
X84797715Y-80008386D01*
X84704781Y-80190776D01*
X84641522Y-80385465D01*
X84609500Y-80587648D01*
X69810500Y-80587648D01*
X69810500Y-80467648D01*
X69778477Y-80265465D01*
X69715218Y-80070776D01*
X69667798Y-79977710D01*
X69622287Y-79888390D01*
X69597052Y-79853657D01*
X69501971Y-79722786D01*
X69357213Y-79578028D01*
X69191613Y-79457715D01*
X69191612Y-79457714D01*
X69191610Y-79457713D01*
X69120583Y-79421523D01*
X69009223Y-79364781D01*
X68814534Y-79301522D01*
X68632619Y-79272710D01*
X68612352Y-79269500D01*
X68407648Y-79269500D01*
X68387381Y-79272710D01*
X68205465Y-79301522D01*
X68010776Y-79364781D01*
X67828386Y-79457715D01*
X67662786Y-79578028D01*
X67518028Y-79722786D01*
X67397715Y-79888386D01*
X67304781Y-80070776D01*
X67241522Y-80265465D01*
X67209500Y-80467648D01*
X50500500Y-80467648D01*
X50500500Y-76529983D01*
X57909500Y-76529983D01*
X57909500Y-78730001D01*
X57909501Y-78730018D01*
X57920000Y-78832796D01*
X57920001Y-78832799D01*
X57975185Y-78999331D01*
X57975186Y-78999334D01*
X58067288Y-79148656D01*
X58191344Y-79272712D01*
X58340666Y-79364814D01*
X58507203Y-79419999D01*
X58609991Y-79430500D01*
X60810008Y-79430499D01*
X60912797Y-79419999D01*
X61079334Y-79364814D01*
X61228656Y-79272712D01*
X61352712Y-79148656D01*
X61444814Y-78999334D01*
X61499999Y-78832797D01*
X61510500Y-78730009D01*
X61510499Y-77234983D01*
X93082000Y-77234983D01*
X93082000Y-79435001D01*
X93082001Y-79435018D01*
X93092500Y-79537796D01*
X93092501Y-79537799D01*
X93105832Y-79578028D01*
X93147686Y-79704334D01*
X93239788Y-79853656D01*
X93363844Y-79977712D01*
X93513166Y-80069814D01*
X93679703Y-80124999D01*
X93782491Y-80135500D01*
X95982508Y-80135499D01*
X96085297Y-80124999D01*
X96251834Y-80069814D01*
X96401156Y-79977712D01*
X96525212Y-79853656D01*
X96617314Y-79704334D01*
X96672499Y-79537797D01*
X96683000Y-79435009D01*
X96682999Y-77234992D01*
X96672499Y-77132203D01*
X96617314Y-76965666D01*
X96525212Y-76816344D01*
X96401156Y-76692288D01*
X96265276Y-76608477D01*
X96251836Y-76600187D01*
X96251831Y-76600185D01*
X96250362Y-76599698D01*
X96085297Y-76545001D01*
X96085295Y-76545000D01*
X95982510Y-76534500D01*
X93782498Y-76534500D01*
X93782481Y-76534501D01*
X93679703Y-76545000D01*
X93679700Y-76545001D01*
X93513168Y-76600185D01*
X93513163Y-76600187D01*
X93363842Y-76692289D01*
X93239789Y-76816342D01*
X93147687Y-76965663D01*
X93147686Y-76965666D01*
X93092501Y-77132203D01*
X93092501Y-77132204D01*
X93092500Y-77132204D01*
X93082000Y-77234983D01*
X61510499Y-77234983D01*
X61510499Y-76529992D01*
X61499999Y-76427203D01*
X61444814Y-76260666D01*
X61352712Y-76111344D01*
X61228656Y-75987288D01*
X61079334Y-75895186D01*
X60912797Y-75840001D01*
X60912795Y-75840000D01*
X60810010Y-75829500D01*
X58609998Y-75829500D01*
X58609981Y-75829501D01*
X58507203Y-75840000D01*
X58507200Y-75840001D01*
X58340668Y-75895185D01*
X58340663Y-75895187D01*
X58191342Y-75987289D01*
X58067289Y-76111342D01*
X57975187Y-76260663D01*
X57975186Y-76260666D01*
X57920001Y-76427203D01*
X57920001Y-76427204D01*
X57920000Y-76427204D01*
X57909500Y-76529983D01*
X50500500Y-76529983D01*
X50500500Y-75237648D01*
X66999500Y-75237648D01*
X66999500Y-75442351D01*
X67031522Y-75644534D01*
X67094781Y-75839223D01*
X67123297Y-75895187D01*
X67187585Y-76021359D01*
X67187715Y-76021613D01*
X67308028Y-76187213D01*
X67452786Y-76331971D01*
X67583866Y-76427204D01*
X67618390Y-76452287D01*
X67734607Y-76511503D01*
X67800776Y-76545218D01*
X67800778Y-76545218D01*
X67800781Y-76545220D01*
X67905137Y-76579127D01*
X67995465Y-76608477D01*
X68096557Y-76624488D01*
X68197648Y-76640500D01*
X68197649Y-76640500D01*
X68402351Y-76640500D01*
X68402352Y-76640500D01*
X68604534Y-76608477D01*
X68799219Y-76545220D01*
X68981610Y-76452287D01*
X69074590Y-76384732D01*
X69147213Y-76331971D01*
X69147215Y-76331968D01*
X69147219Y-76331966D01*
X69291966Y-76187219D01*
X69291968Y-76187215D01*
X69291971Y-76187213D01*
X69347093Y-76111342D01*
X69412287Y-76021610D01*
X69505220Y-75839219D01*
X69568477Y-75644534D01*
X69600500Y-75442352D01*
X69600500Y-75237682D01*
X72000000Y-75237682D01*
X72000000Y-75442317D01*
X72032009Y-75644417D01*
X72095244Y-75839031D01*
X72188141Y-76021350D01*
X72188147Y-76021359D01*
X72220523Y-76065921D01*
X72220524Y-76065922D01*
X72900000Y-75386446D01*
X72900000Y-75392661D01*
X72927259Y-75494394D01*
X72979920Y-75585606D01*
X73054394Y-75660080D01*
X73145606Y-75712741D01*
X73247339Y-75740000D01*
X73253553Y-75740000D01*
X72574076Y-76419474D01*
X72618650Y-76451859D01*
X72800968Y-76544755D01*
X72995582Y-76607990D01*
X73197683Y-76640000D01*
X73402317Y-76640000D01*
X73604417Y-76607990D01*
X73799031Y-76544755D01*
X73981349Y-76451859D01*
X74025921Y-76419474D01*
X73346447Y-75740000D01*
X73352661Y-75740000D01*
X73454394Y-75712741D01*
X73545606Y-75660080D01*
X73620080Y-75585606D01*
X73672741Y-75494394D01*
X73700000Y-75392661D01*
X73700000Y-75386447D01*
X74379474Y-76065921D01*
X74411859Y-76021349D01*
X74504755Y-75839031D01*
X74567990Y-75644417D01*
X74600000Y-75442317D01*
X74600000Y-75237682D01*
X74567990Y-75035582D01*
X74504755Y-74840968D01*
X74433244Y-74700620D01*
X74411859Y-74658650D01*
X74379474Y-74614077D01*
X74379474Y-74614076D01*
X73700000Y-75293551D01*
X73700000Y-75287339D01*
X73672741Y-75185606D01*
X73620080Y-75094394D01*
X73545606Y-75019920D01*
X73454394Y-74967259D01*
X73352661Y-74940000D01*
X73346446Y-74940000D01*
X74025922Y-74260524D01*
X74025921Y-74260523D01*
X73981359Y-74228147D01*
X73981350Y-74228141D01*
X73799031Y-74135244D01*
X73604417Y-74072009D01*
X73402317Y-74040000D01*
X73197683Y-74040000D01*
X72995582Y-74072009D01*
X72800968Y-74135244D01*
X72618644Y-74228143D01*
X72574077Y-74260523D01*
X72574077Y-74260524D01*
X73253554Y-74940000D01*
X73247339Y-74940000D01*
X73145606Y-74967259D01*
X73054394Y-75019920D01*
X72979920Y-75094394D01*
X72927259Y-75185606D01*
X72900000Y-75287339D01*
X72900000Y-75293553D01*
X72220524Y-74614077D01*
X72220523Y-74614077D01*
X72188143Y-74658644D01*
X72095244Y-74840968D01*
X72032009Y-75035582D01*
X72000000Y-75237682D01*
X69600500Y-75237682D01*
X69600500Y-75237648D01*
X69592257Y-75185606D01*
X69568477Y-75035465D01*
X69515636Y-74872839D01*
X69505220Y-74840781D01*
X69505218Y-74840778D01*
X69505218Y-74840776D01*
X69429553Y-74692277D01*
X69412287Y-74658390D01*
X69380092Y-74614077D01*
X69291971Y-74492786D01*
X69147213Y-74348028D01*
X68981613Y-74227715D01*
X68981612Y-74227714D01*
X68981610Y-74227713D01*
X68924653Y-74198691D01*
X68799223Y-74134781D01*
X68604534Y-74071522D01*
X68429995Y-74043878D01*
X68402352Y-74039500D01*
X68197648Y-74039500D01*
X68173329Y-74043351D01*
X67995465Y-74071522D01*
X67800776Y-74134781D01*
X67618386Y-74227715D01*
X67452786Y-74348028D01*
X67308028Y-74492786D01*
X67187715Y-74658386D01*
X67094781Y-74840776D01*
X67031522Y-75035465D01*
X66999500Y-75237648D01*
X50500500Y-75237648D01*
X50500500Y-70671995D01*
X57909500Y-70671995D01*
X57909500Y-70908004D01*
X57909501Y-70908020D01*
X57940306Y-71142010D01*
X58001394Y-71369993D01*
X58091714Y-71588045D01*
X58091719Y-71588056D01*
X58120070Y-71637160D01*
X58209727Y-71792450D01*
X58209729Y-71792453D01*
X58209730Y-71792454D01*
X58353406Y-71979697D01*
X58353412Y-71979704D01*
X58520295Y-72146587D01*
X58520302Y-72146593D01*
X58569748Y-72184534D01*
X58707550Y-72290273D01*
X58838918Y-72366118D01*
X58911943Y-72408280D01*
X58911948Y-72408282D01*
X58911951Y-72408284D01*
X59130007Y-72498606D01*
X59357986Y-72559693D01*
X59591989Y-72590500D01*
X59591996Y-72590500D01*
X59828004Y-72590500D01*
X59828011Y-72590500D01*
X60062014Y-72559693D01*
X60289993Y-72498606D01*
X60508049Y-72408284D01*
X60712450Y-72290273D01*
X60899699Y-72146592D01*
X61066592Y-71979699D01*
X61210273Y-71792450D01*
X61328284Y-71588049D01*
X61418606Y-71369993D01*
X61479693Y-71142014D01*
X61510500Y-70908011D01*
X61510500Y-70671989D01*
X61479693Y-70437986D01*
X61418606Y-70210007D01*
X61328284Y-69991951D01*
X61328282Y-69991948D01*
X61328280Y-69991943D01*
X61240106Y-69839223D01*
X61210273Y-69787550D01*
X61066592Y-69600301D01*
X61066587Y-69600295D01*
X60899704Y-69433412D01*
X60899697Y-69433406D01*
X60766489Y-69331192D01*
X60712454Y-69289730D01*
X60712453Y-69289729D01*
X60712450Y-69289727D01*
X60630957Y-69242677D01*
X60508056Y-69171719D01*
X60508045Y-69171714D01*
X60289993Y-69081394D01*
X60062010Y-69020306D01*
X59828020Y-68989501D01*
X59828017Y-68989500D01*
X59828011Y-68989500D01*
X59591989Y-68989500D01*
X59591983Y-68989500D01*
X59591979Y-68989501D01*
X59357989Y-69020306D01*
X59130006Y-69081394D01*
X58911954Y-69171714D01*
X58911943Y-69171719D01*
X58707545Y-69289730D01*
X58520302Y-69433406D01*
X58520295Y-69433412D01*
X58353412Y-69600295D01*
X58353406Y-69600302D01*
X58209730Y-69787545D01*
X58091719Y-69991943D01*
X58091714Y-69991954D01*
X58001394Y-70210006D01*
X57940306Y-70437989D01*
X57909501Y-70671979D01*
X57909500Y-70671995D01*
X50500500Y-70671995D01*
X50500500Y-65591995D01*
X57909500Y-65591995D01*
X57909500Y-65828004D01*
X57909501Y-65828020D01*
X57940306Y-66062010D01*
X58001394Y-66289993D01*
X58091714Y-66508045D01*
X58091719Y-66508056D01*
X58112923Y-66544781D01*
X58209727Y-66712450D01*
X58209729Y-66712453D01*
X58209730Y-66712454D01*
X58353406Y-66899697D01*
X58353412Y-66899704D01*
X58520295Y-67066587D01*
X58520302Y-67066593D01*
X58534906Y-67077799D01*
X58707550Y-67210273D01*
X58838918Y-67286118D01*
X58911943Y-67328280D01*
X58911948Y-67328282D01*
X58911951Y-67328284D01*
X59130007Y-67418606D01*
X59357986Y-67479693D01*
X59591989Y-67510500D01*
X59591996Y-67510500D01*
X59828004Y-67510500D01*
X59828011Y-67510500D01*
X60062014Y-67479693D01*
X60289993Y-67418606D01*
X60508049Y-67328284D01*
X60712450Y-67210273D01*
X60899699Y-67066592D01*
X61066592Y-66899699D01*
X61210273Y-66712450D01*
X61328284Y-66508049D01*
X61418606Y-66289993D01*
X61479693Y-66062014D01*
X61510500Y-65828011D01*
X61510500Y-65591989D01*
X61479693Y-65357986D01*
X61418606Y-65130007D01*
X61328284Y-64911951D01*
X61328282Y-64911948D01*
X61328280Y-64911943D01*
X61249214Y-64774998D01*
X61210273Y-64707550D01*
X61066592Y-64520301D01*
X61066587Y-64520295D01*
X60899704Y-64353412D01*
X60899697Y-64353406D01*
X60766437Y-64251152D01*
X60712454Y-64209730D01*
X60712453Y-64209729D01*
X60712450Y-64209727D01*
X60622247Y-64157648D01*
X60508056Y-64091719D01*
X60508045Y-64091714D01*
X60289993Y-64001394D01*
X60062010Y-63940306D01*
X59828020Y-63909501D01*
X59828017Y-63909500D01*
X59828011Y-63909500D01*
X59591989Y-63909500D01*
X59591983Y-63909500D01*
X59591979Y-63909501D01*
X59357989Y-63940306D01*
X59130006Y-64001394D01*
X58911954Y-64091714D01*
X58911943Y-64091719D01*
X58707545Y-64209730D01*
X58520302Y-64353406D01*
X58520295Y-64353412D01*
X58353412Y-64520295D01*
X58353406Y-64520302D01*
X58209730Y-64707545D01*
X58091719Y-64911943D01*
X58091714Y-64911954D01*
X58001394Y-65130006D01*
X57940306Y-65357989D01*
X57909501Y-65591979D01*
X57909500Y-65591995D01*
X50500500Y-65591995D01*
X50500500Y-60511995D01*
X57909500Y-60511995D01*
X57909500Y-60748004D01*
X57909501Y-60748020D01*
X57940306Y-60982010D01*
X58001394Y-61209993D01*
X58091714Y-61428045D01*
X58091719Y-61428056D01*
X58118473Y-61474394D01*
X58209727Y-61632450D01*
X58209729Y-61632453D01*
X58209730Y-61632454D01*
X58353406Y-61819697D01*
X58353412Y-61819704D01*
X58520295Y-61986587D01*
X58520302Y-61986593D01*
X58569748Y-62024534D01*
X58707550Y-62130273D01*
X58838918Y-62206118D01*
X58911943Y-62248280D01*
X58911948Y-62248282D01*
X58911951Y-62248284D01*
X59130007Y-62338606D01*
X59357986Y-62399693D01*
X59591989Y-62430500D01*
X59591996Y-62430500D01*
X59828004Y-62430500D01*
X59828011Y-62430500D01*
X60062014Y-62399693D01*
X60289993Y-62338606D01*
X60508049Y-62248284D01*
X60712450Y-62130273D01*
X60899699Y-61986592D01*
X61066592Y-61819699D01*
X61210273Y-61632450D01*
X61328284Y-61428049D01*
X61418606Y-61209993D01*
X61479693Y-60982014D01*
X61510500Y-60748011D01*
X61510500Y-60511989D01*
X61479693Y-60277986D01*
X61418606Y-60050007D01*
X61328284Y-59831951D01*
X61328282Y-59831948D01*
X61328280Y-59831943D01*
X61259194Y-59712284D01*
X61210273Y-59627550D01*
X61100533Y-59484534D01*
X61066593Y-59440302D01*
X61066587Y-59440295D01*
X60899704Y-59273412D01*
X60899697Y-59273406D01*
X60712454Y-59129730D01*
X60712453Y-59129729D01*
X60712450Y-59129727D01*
X60622247Y-59077648D01*
X60508056Y-59011719D01*
X60508045Y-59011714D01*
X60289993Y-58921394D01*
X60062010Y-58860306D01*
X59828020Y-58829501D01*
X59828017Y-58829500D01*
X59828011Y-58829500D01*
X59591989Y-58829500D01*
X59591983Y-58829500D01*
X59591979Y-58829501D01*
X59357989Y-58860306D01*
X59130006Y-58921394D01*
X58911954Y-59011714D01*
X58911943Y-59011719D01*
X58707545Y-59129730D01*
X58520302Y-59273406D01*
X58520295Y-59273412D01*
X58353412Y-59440295D01*
X58353406Y-59440302D01*
X58209730Y-59627545D01*
X58091719Y-59831943D01*
X58091714Y-59831954D01*
X58001394Y-60050006D01*
X57940306Y-60277989D01*
X57909501Y-60511979D01*
X57909500Y-60511995D01*
X50500500Y-60511995D01*
X50500500Y-54449983D01*
X57909500Y-54449983D01*
X57909500Y-56650001D01*
X57909501Y-56650018D01*
X57920000Y-56752796D01*
X57920001Y-56752799D01*
X57970336Y-56904697D01*
X57975186Y-56919334D01*
X58067288Y-57068656D01*
X58191344Y-57192712D01*
X58340666Y-57284814D01*
X58507203Y-57339999D01*
X58609991Y-57350500D01*
X60810008Y-57350499D01*
X60912797Y-57339999D01*
X61079334Y-57284814D01*
X61228656Y-57192712D01*
X61352712Y-57068656D01*
X61444814Y-56919334D01*
X61499999Y-56752797D01*
X61510500Y-56650009D01*
X61510500Y-56537648D01*
X67089500Y-56537648D01*
X67089500Y-56742351D01*
X67121522Y-56944534D01*
X67184781Y-57139223D01*
X67248691Y-57264653D01*
X67266447Y-57299500D01*
X67277715Y-57321613D01*
X67398028Y-57487213D01*
X67542786Y-57631971D01*
X67697749Y-57744556D01*
X67708390Y-57752287D01*
X67799840Y-57798883D01*
X67801080Y-57799515D01*
X67851876Y-57847490D01*
X67868671Y-57915311D01*
X67846134Y-57981446D01*
X67801080Y-58020485D01*
X67708386Y-58067715D01*
X67542786Y-58188028D01*
X67398028Y-58332786D01*
X67277715Y-58498386D01*
X67184781Y-58680776D01*
X67121522Y-58875465D01*
X67089500Y-59077648D01*
X67089500Y-59282351D01*
X67121522Y-59484534D01*
X67184781Y-59679223D01*
X67242662Y-59792818D01*
X67262602Y-59831954D01*
X67277715Y-59861613D01*
X67398028Y-60027213D01*
X67542786Y-60171971D01*
X67708385Y-60292284D01*
X67708387Y-60292285D01*
X67708390Y-60292287D01*
X67801080Y-60339515D01*
X67801630Y-60339795D01*
X67852426Y-60387770D01*
X67869221Y-60455591D01*
X67846684Y-60521725D01*
X67801630Y-60560765D01*
X67708644Y-60608143D01*
X67664077Y-60640523D01*
X67664077Y-60640524D01*
X68343554Y-61320000D01*
X68337339Y-61320000D01*
X68235606Y-61347259D01*
X68144394Y-61399920D01*
X68069920Y-61474394D01*
X68017259Y-61565606D01*
X67990000Y-61667339D01*
X67990000Y-61673553D01*
X67310524Y-60994077D01*
X67310523Y-60994077D01*
X67278143Y-61038644D01*
X67185244Y-61220968D01*
X67122009Y-61415582D01*
X67090000Y-61617682D01*
X67090000Y-61822317D01*
X67122009Y-62024417D01*
X67185244Y-62219031D01*
X67278141Y-62401350D01*
X67278147Y-62401359D01*
X67310523Y-62445921D01*
X67310524Y-62445922D01*
X67990000Y-61766446D01*
X67990000Y-61772661D01*
X68017259Y-61874394D01*
X68069920Y-61965606D01*
X68144394Y-62040080D01*
X68235606Y-62092741D01*
X68337339Y-62120000D01*
X68343553Y-62120000D01*
X67664076Y-62799474D01*
X67708652Y-62831861D01*
X67801628Y-62879234D01*
X67852425Y-62927208D01*
X67869220Y-62995029D01*
X67846683Y-63061164D01*
X67801630Y-63100203D01*
X67708388Y-63147713D01*
X67542786Y-63268028D01*
X67398028Y-63412786D01*
X67277715Y-63578386D01*
X67184781Y-63760776D01*
X67121522Y-63955465D01*
X67089500Y-64157648D01*
X67089500Y-64362351D01*
X67121522Y-64564534D01*
X67184781Y-64759223D01*
X67248691Y-64884653D01*
X67262602Y-64911954D01*
X67277715Y-64941613D01*
X67398028Y-65107213D01*
X67542786Y-65251971D01*
X67688706Y-65357986D01*
X67708390Y-65372287D01*
X67799840Y-65418883D01*
X67801080Y-65419515D01*
X67851876Y-65467490D01*
X67868671Y-65535311D01*
X67846134Y-65601446D01*
X67801080Y-65640485D01*
X67708386Y-65687715D01*
X67542786Y-65808028D01*
X67398028Y-65952786D01*
X67277715Y-66118386D01*
X67184781Y-66300776D01*
X67121522Y-66495465D01*
X67089500Y-66697648D01*
X67089500Y-66902351D01*
X67121522Y-67104534D01*
X67184781Y-67299223D01*
X67245610Y-67418605D01*
X67276736Y-67479693D01*
X67277715Y-67481613D01*
X67398028Y-67647213D01*
X67542786Y-67791971D01*
X67708385Y-67912284D01*
X67708387Y-67912285D01*
X67708390Y-67912287D01*
X67801080Y-67959515D01*
X67801630Y-67959795D01*
X67852426Y-68007770D01*
X67869221Y-68075591D01*
X67846684Y-68141725D01*
X67801630Y-68180765D01*
X67708644Y-68228143D01*
X67664077Y-68260523D01*
X67664077Y-68260524D01*
X68343554Y-68940000D01*
X68337339Y-68940000D01*
X68235606Y-68967259D01*
X68144394Y-69019920D01*
X68069920Y-69094394D01*
X68017259Y-69185606D01*
X67990000Y-69287339D01*
X67990000Y-69293553D01*
X67310524Y-68614077D01*
X67310523Y-68614077D01*
X67278143Y-68658644D01*
X67185244Y-68840968D01*
X67122009Y-69035582D01*
X67090000Y-69237682D01*
X67090000Y-69442317D01*
X67122009Y-69644417D01*
X67185244Y-69839031D01*
X67278141Y-70021350D01*
X67278147Y-70021359D01*
X67310523Y-70065921D01*
X67310524Y-70065922D01*
X67990000Y-69386446D01*
X67990000Y-69392661D01*
X68017259Y-69494394D01*
X68069920Y-69585606D01*
X68144394Y-69660080D01*
X68235606Y-69712741D01*
X68337339Y-69740000D01*
X68343553Y-69740000D01*
X67664076Y-70419474D01*
X67708652Y-70451861D01*
X67801628Y-70499234D01*
X67852425Y-70547208D01*
X67869220Y-70615029D01*
X67846683Y-70681164D01*
X67801630Y-70720203D01*
X67708388Y-70767713D01*
X67542786Y-70888028D01*
X67398028Y-71032786D01*
X67277715Y-71198386D01*
X67184781Y-71380776D01*
X67121522Y-71575465D01*
X67089500Y-71777648D01*
X67089500Y-71982351D01*
X67121522Y-72184534D01*
X67184781Y-72379223D01*
X67236135Y-72480009D01*
X67276736Y-72559693D01*
X67277715Y-72561613D01*
X67398028Y-72727213D01*
X67542786Y-72871971D01*
X67690754Y-72979474D01*
X67708390Y-72992287D01*
X67824607Y-73051503D01*
X67890776Y-73085218D01*
X67890778Y-73085218D01*
X67890781Y-73085220D01*
X67950904Y-73104755D01*
X68085465Y-73148477D01*
X68186557Y-73164488D01*
X68287648Y-73180500D01*
X68287649Y-73180500D01*
X68492351Y-73180500D01*
X68492352Y-73180500D01*
X68694534Y-73148477D01*
X68889219Y-73085220D01*
X69071610Y-72992287D01*
X69200482Y-72898657D01*
X69237213Y-72871971D01*
X69237215Y-72871968D01*
X69237219Y-72871966D01*
X69381966Y-72727219D01*
X69381968Y-72727215D01*
X69381971Y-72727213D01*
X69455562Y-72625922D01*
X69502287Y-72561610D01*
X69595220Y-72379219D01*
X69658477Y-72184534D01*
X69690500Y-71982352D01*
X69690500Y-71777648D01*
X69660469Y-71588045D01*
X69658477Y-71575465D01*
X69601718Y-71400781D01*
X69595220Y-71380781D01*
X69595218Y-71380778D01*
X69595218Y-71380776D01*
X69543865Y-71279991D01*
X69502287Y-71198390D01*
X69461325Y-71142010D01*
X69381971Y-71032786D01*
X69237213Y-70888028D01*
X69071611Y-70767713D01*
X68978369Y-70720203D01*
X68927574Y-70672229D01*
X68910779Y-70604407D01*
X68933317Y-70538273D01*
X68978371Y-70499234D01*
X69071346Y-70451861D01*
X69071347Y-70451861D01*
X69115921Y-70419474D01*
X68436447Y-69740000D01*
X68442661Y-69740000D01*
X68544394Y-69712741D01*
X68635606Y-69660080D01*
X68710080Y-69585606D01*
X68762741Y-69494394D01*
X68790000Y-69392661D01*
X68790000Y-69386447D01*
X69469474Y-70065921D01*
X69501859Y-70021349D01*
X69594755Y-69839031D01*
X69657990Y-69644417D01*
X69690000Y-69442317D01*
X69690000Y-69237682D01*
X69657990Y-69035582D01*
X69594755Y-68840968D01*
X69501859Y-68658650D01*
X69469474Y-68614077D01*
X69469474Y-68614076D01*
X68790000Y-69293551D01*
X68790000Y-69287339D01*
X68762741Y-69185606D01*
X68710080Y-69094394D01*
X68635606Y-69019920D01*
X68544394Y-68967259D01*
X68442661Y-68940000D01*
X68436446Y-68940000D01*
X69115922Y-68260524D01*
X69115921Y-68260523D01*
X69071359Y-68228147D01*
X69071350Y-68228141D01*
X68978369Y-68180765D01*
X68927573Y-68132790D01*
X68910778Y-68064969D01*
X68933315Y-67998835D01*
X68978370Y-67959795D01*
X68978920Y-67959515D01*
X69071610Y-67912287D01*
X69154104Y-67852352D01*
X69237213Y-67791971D01*
X69237215Y-67791968D01*
X69237219Y-67791966D01*
X69381966Y-67647219D01*
X69381968Y-67647215D01*
X69381971Y-67647213D01*
X69438148Y-67569891D01*
X69502287Y-67481610D01*
X69595220Y-67299219D01*
X69658477Y-67104534D01*
X69690500Y-66902352D01*
X69690500Y-66697648D01*
X69658477Y-66495466D01*
X69653946Y-66481522D01*
X69595218Y-66300776D01*
X69561503Y-66234607D01*
X69502287Y-66118390D01*
X69461325Y-66062010D01*
X69381971Y-65952786D01*
X69237213Y-65808028D01*
X69071614Y-65687715D01*
X69065006Y-65684348D01*
X68978917Y-65640483D01*
X68928123Y-65592511D01*
X68911328Y-65524690D01*
X68933865Y-65458555D01*
X68978917Y-65419516D01*
X69071610Y-65372287D01*
X69092770Y-65356913D01*
X69237213Y-65251971D01*
X69237215Y-65251968D01*
X69237219Y-65251966D01*
X69381966Y-65107219D01*
X69381968Y-65107215D01*
X69381971Y-65107213D01*
X69434732Y-65034590D01*
X69502287Y-64941610D01*
X69595220Y-64759219D01*
X69658477Y-64564534D01*
X69690500Y-64362352D01*
X69690500Y-64157648D01*
X69677331Y-64074501D01*
X69658477Y-63955465D01*
X69595218Y-63760776D01*
X69561503Y-63694607D01*
X69502287Y-63578390D01*
X69494556Y-63567749D01*
X69381971Y-63412786D01*
X69237213Y-63268028D01*
X69071611Y-63147713D01*
X68978369Y-63100203D01*
X68927574Y-63052229D01*
X68910779Y-62984407D01*
X68933317Y-62918273D01*
X68978371Y-62879234D01*
X69071346Y-62831861D01*
X69071347Y-62831861D01*
X69115921Y-62799474D01*
X68436447Y-62120000D01*
X68442661Y-62120000D01*
X68544394Y-62092741D01*
X68635606Y-62040080D01*
X68710080Y-61965606D01*
X68762741Y-61874394D01*
X68790000Y-61772661D01*
X68790000Y-61766447D01*
X69469474Y-62445921D01*
X69501859Y-62401349D01*
X69594755Y-62219031D01*
X69657990Y-62024417D01*
X69690000Y-61822317D01*
X69690000Y-61617682D01*
X69657990Y-61415582D01*
X69594755Y-61220968D01*
X69501859Y-61038650D01*
X69469474Y-60994077D01*
X69469474Y-60994076D01*
X68790000Y-61673551D01*
X68790000Y-61667339D01*
X68762741Y-61565606D01*
X68710080Y-61474394D01*
X68635606Y-61399920D01*
X68544394Y-61347259D01*
X68442661Y-61320000D01*
X68436446Y-61320000D01*
X69115922Y-60640524D01*
X69115921Y-60640523D01*
X69071359Y-60608147D01*
X69071350Y-60608141D01*
X68978369Y-60560765D01*
X68927573Y-60512790D01*
X68910778Y-60444969D01*
X68933315Y-60378835D01*
X68978370Y-60339795D01*
X68978920Y-60339515D01*
X69071610Y-60292287D01*
X69172512Y-60218978D01*
X69237213Y-60171971D01*
X69237215Y-60171968D01*
X69237219Y-60171966D01*
X69381966Y-60027219D01*
X69381968Y-60027215D01*
X69381971Y-60027213D01*
X69474395Y-59900000D01*
X69502287Y-59861610D01*
X69595220Y-59679219D01*
X69658477Y-59484534D01*
X69690500Y-59282352D01*
X69690500Y-59077648D01*
X69670845Y-58953553D01*
X69658477Y-58875465D01*
X69602229Y-58702352D01*
X69595220Y-58680781D01*
X69595218Y-58680778D01*
X69595218Y-58680776D01*
X69528110Y-58549071D01*
X69502287Y-58498390D01*
X69494556Y-58487749D01*
X69381971Y-58332786D01*
X69237213Y-58188028D01*
X69071614Y-58067715D01*
X69065006Y-58064348D01*
X68978917Y-58020483D01*
X68928123Y-57972511D01*
X68911328Y-57904690D01*
X68933865Y-57838555D01*
X68978917Y-57799516D01*
X69071610Y-57752287D01*
X69092770Y-57736913D01*
X69237213Y-57631971D01*
X69237215Y-57631968D01*
X69237219Y-57631966D01*
X69381966Y-57487219D01*
X69381968Y-57487215D01*
X69381971Y-57487213D01*
X69448789Y-57395244D01*
X69502287Y-57321610D01*
X69595220Y-57139219D01*
X69658477Y-56944534D01*
X69690500Y-56742352D01*
X69690500Y-56537648D01*
X74709500Y-56537648D01*
X74709500Y-56742351D01*
X74741522Y-56944534D01*
X74804781Y-57139223D01*
X74868691Y-57264653D01*
X74886447Y-57299500D01*
X74897715Y-57321613D01*
X75018028Y-57487213D01*
X75162786Y-57631971D01*
X75317749Y-57744556D01*
X75328390Y-57752287D01*
X75419840Y-57798883D01*
X75421080Y-57799515D01*
X75471876Y-57847490D01*
X75488671Y-57915311D01*
X75466134Y-57981446D01*
X75421080Y-58020485D01*
X75328386Y-58067715D01*
X75162786Y-58188028D01*
X75018028Y-58332786D01*
X74897715Y-58498386D01*
X74804781Y-58680776D01*
X74741522Y-58875465D01*
X74709500Y-59077648D01*
X74709500Y-59282351D01*
X74741522Y-59484534D01*
X74804781Y-59679223D01*
X74862662Y-59792818D01*
X74882602Y-59831954D01*
X74897715Y-59861613D01*
X75018028Y-60027213D01*
X75162786Y-60171971D01*
X75308706Y-60277986D01*
X75328390Y-60292287D01*
X75419840Y-60338883D01*
X75421080Y-60339515D01*
X75471876Y-60387490D01*
X75488671Y-60455311D01*
X75466134Y-60521446D01*
X75421080Y-60560485D01*
X75328386Y-60607715D01*
X75162786Y-60728028D01*
X75018028Y-60872786D01*
X74897715Y-61038386D01*
X74804781Y-61220776D01*
X74741522Y-61415465D01*
X74709500Y-61617648D01*
X74709500Y-61822351D01*
X74741522Y-62024534D01*
X74804781Y-62219223D01*
X74865610Y-62338605D01*
X74897585Y-62401359D01*
X74897715Y-62401613D01*
X75018028Y-62567213D01*
X75162786Y-62711971D01*
X75283226Y-62799474D01*
X75328390Y-62832287D01*
X75419840Y-62878883D01*
X75421080Y-62879515D01*
X75471876Y-62927490D01*
X75488671Y-62995311D01*
X75466134Y-63061446D01*
X75421080Y-63100485D01*
X75328386Y-63147715D01*
X75162786Y-63268028D01*
X75018028Y-63412786D01*
X74897715Y-63578386D01*
X74804781Y-63760776D01*
X74741522Y-63955465D01*
X74709500Y-64157648D01*
X74709500Y-64362351D01*
X74741522Y-64564534D01*
X74804781Y-64759223D01*
X74868691Y-64884653D01*
X74882602Y-64911954D01*
X74897715Y-64941613D01*
X75018028Y-65107213D01*
X75162786Y-65251971D01*
X75308706Y-65357986D01*
X75328390Y-65372287D01*
X75419840Y-65418883D01*
X75421080Y-65419515D01*
X75471876Y-65467490D01*
X75488671Y-65535311D01*
X75466134Y-65601446D01*
X75421080Y-65640485D01*
X75328386Y-65687715D01*
X75162786Y-65808028D01*
X75018028Y-65952786D01*
X74897715Y-66118386D01*
X74804781Y-66300776D01*
X74741522Y-66495465D01*
X74709500Y-66697648D01*
X74709500Y-66902351D01*
X74741522Y-67104534D01*
X74804781Y-67299223D01*
X74865610Y-67418605D01*
X74896736Y-67479693D01*
X74897715Y-67481613D01*
X75018028Y-67647213D01*
X75162786Y-67791971D01*
X75317749Y-67904556D01*
X75328390Y-67912287D01*
X75419840Y-67958883D01*
X75421080Y-67959515D01*
X75471876Y-68007490D01*
X75488671Y-68075311D01*
X75466134Y-68141446D01*
X75421080Y-68180485D01*
X75328386Y-68227715D01*
X75162786Y-68348028D01*
X75018028Y-68492786D01*
X74897715Y-68658386D01*
X74804781Y-68840776D01*
X74741522Y-69035465D01*
X74709500Y-69237648D01*
X74709500Y-69442351D01*
X74741522Y-69644534D01*
X74804781Y-69839223D01*
X74868691Y-69964653D01*
X74897585Y-70021359D01*
X74897715Y-70021613D01*
X75018028Y-70187213D01*
X75018034Y-70187219D01*
X75162781Y-70331966D01*
X75256452Y-70400021D01*
X75299117Y-70455350D01*
X75305096Y-70524963D01*
X75272491Y-70586759D01*
X75222571Y-70618045D01*
X75140666Y-70645186D01*
X75140663Y-70645187D01*
X74991342Y-70737289D01*
X74867289Y-70861342D01*
X74775187Y-71010663D01*
X74775186Y-71010666D01*
X74720001Y-71177203D01*
X74720001Y-71177204D01*
X74720000Y-71177204D01*
X74709500Y-71279983D01*
X74709500Y-72480001D01*
X74709501Y-72480018D01*
X74720000Y-72582796D01*
X74720001Y-72582799D01*
X74751872Y-72678978D01*
X74775186Y-72749334D01*
X74867288Y-72898656D01*
X74991344Y-73022712D01*
X75140666Y-73114814D01*
X75307203Y-73169999D01*
X75409991Y-73180500D01*
X76610008Y-73180499D01*
X76712797Y-73169999D01*
X76879334Y-73114814D01*
X77028656Y-73022712D01*
X77152712Y-72898656D01*
X77244814Y-72749334D01*
X77299999Y-72582797D01*
X77310500Y-72480009D01*
X77310499Y-71797648D01*
X78189500Y-71797648D01*
X78189500Y-72002351D01*
X78221522Y-72204534D01*
X78284781Y-72399223D01*
X78325948Y-72480016D01*
X78377585Y-72581359D01*
X78377715Y-72581613D01*
X78498028Y-72747213D01*
X78642786Y-72891971D01*
X78763226Y-72979474D01*
X78808390Y-73012287D01*
X78912634Y-73065402D01*
X78990776Y-73105218D01*
X78990778Y-73105218D01*
X78990781Y-73105220D01*
X79088633Y-73137014D01*
X79185465Y-73168477D01*
X79261375Y-73180500D01*
X79387648Y-73200500D01*
X79387649Y-73200500D01*
X79592351Y-73200500D01*
X79592352Y-73200500D01*
X79794534Y-73168477D01*
X79989219Y-73105220D01*
X80171610Y-73012287D01*
X80264590Y-72944732D01*
X80337213Y-72891971D01*
X80337215Y-72891968D01*
X80337219Y-72891966D01*
X80481966Y-72747219D01*
X80481968Y-72747215D01*
X80481971Y-72747213D01*
X80567145Y-72629979D01*
X80602287Y-72581610D01*
X80695220Y-72399219D01*
X80758477Y-72204534D01*
X80790500Y-72002352D01*
X80790500Y-71797682D01*
X85810000Y-71797682D01*
X85810000Y-72002317D01*
X85842009Y-72204417D01*
X85905244Y-72399031D01*
X85998141Y-72581350D01*
X85998147Y-72581359D01*
X86030523Y-72625921D01*
X86030524Y-72625922D01*
X86710000Y-71946446D01*
X86710000Y-71952661D01*
X86737259Y-72054394D01*
X86789920Y-72145606D01*
X86864394Y-72220080D01*
X86955606Y-72272741D01*
X87057339Y-72300000D01*
X87063553Y-72300000D01*
X86384076Y-72979474D01*
X86428650Y-73011859D01*
X86610968Y-73104755D01*
X86805582Y-73167990D01*
X87007683Y-73200000D01*
X87212317Y-73200000D01*
X87414417Y-73167990D01*
X87509750Y-73137014D01*
X93082500Y-73137014D01*
X93082500Y-73372985D01*
X93113299Y-73606914D01*
X93174370Y-73834837D01*
X93264660Y-74052819D01*
X93264665Y-74052828D01*
X93382644Y-74257171D01*
X93382645Y-74257172D01*
X93445221Y-74338723D01*
X94281458Y-73502487D01*
X94306478Y-73562890D01*
X94377612Y-73669351D01*
X94468149Y-73759888D01*
X94574610Y-73831022D01*
X94635011Y-73856041D01*
X93798775Y-74692277D01*
X93880327Y-74754854D01*
X93880328Y-74754855D01*
X94084671Y-74872834D01*
X94084680Y-74872839D01*
X94302663Y-74963129D01*
X94302661Y-74963129D01*
X94530585Y-75024200D01*
X94764514Y-75054999D01*
X94764529Y-75055000D01*
X95000471Y-75055000D01*
X95000485Y-75054999D01*
X95234414Y-75024200D01*
X95462337Y-74963129D01*
X95680319Y-74872839D01*
X95680328Y-74872834D01*
X95884681Y-74754850D01*
X95966223Y-74692279D01*
X95966223Y-74692276D01*
X95129987Y-73856041D01*
X95190390Y-73831022D01*
X95296851Y-73759888D01*
X95387388Y-73669351D01*
X95458522Y-73562890D01*
X95483541Y-73502487D01*
X96319776Y-74338723D01*
X96319779Y-74338723D01*
X96382350Y-74257181D01*
X96500334Y-74052828D01*
X96500339Y-74052819D01*
X96590629Y-73834837D01*
X96651700Y-73606914D01*
X96682499Y-73372985D01*
X96682500Y-73372971D01*
X96682500Y-73137028D01*
X96682499Y-73137014D01*
X96651700Y-72903085D01*
X96590629Y-72675162D01*
X96500339Y-72457180D01*
X96500334Y-72457171D01*
X96382355Y-72252828D01*
X96382354Y-72252827D01*
X96319777Y-72171275D01*
X95483541Y-73007511D01*
X95458522Y-72947110D01*
X95387388Y-72840649D01*
X95296851Y-72750112D01*
X95190390Y-72678978D01*
X95129988Y-72653958D01*
X95966223Y-71817721D01*
X95884672Y-71755145D01*
X95884671Y-71755144D01*
X95680328Y-71637165D01*
X95680319Y-71637160D01*
X95462336Y-71546870D01*
X95462338Y-71546870D01*
X95234414Y-71485799D01*
X95000485Y-71455000D01*
X94764514Y-71455000D01*
X94530585Y-71485799D01*
X94302662Y-71546870D01*
X94084680Y-71637160D01*
X94084671Y-71637165D01*
X93880328Y-71755144D01*
X93880318Y-71755150D01*
X93798775Y-71817720D01*
X93798775Y-71817721D01*
X94635012Y-72653958D01*
X94574610Y-72678978D01*
X94468149Y-72750112D01*
X94377612Y-72840649D01*
X94306478Y-72947110D01*
X94281458Y-73007511D01*
X93445221Y-72171275D01*
X93445220Y-72171275D01*
X93382650Y-72252818D01*
X93382644Y-72252828D01*
X93264665Y-72457171D01*
X93264660Y-72457180D01*
X93174370Y-72675162D01*
X93113299Y-72903085D01*
X93082500Y-73137014D01*
X87509750Y-73137014D01*
X87609031Y-73104755D01*
X87770510Y-73022478D01*
X87791349Y-73011859D01*
X87835921Y-72979474D01*
X87156447Y-72300000D01*
X87162661Y-72300000D01*
X87264394Y-72272741D01*
X87355606Y-72220080D01*
X87430080Y-72145606D01*
X87482741Y-72054394D01*
X87510000Y-71952661D01*
X87510000Y-71946447D01*
X88189474Y-72625921D01*
X88221859Y-72581349D01*
X88314755Y-72399031D01*
X88377990Y-72204417D01*
X88410000Y-72002317D01*
X88410000Y-71797682D01*
X88377990Y-71595582D01*
X88314755Y-71400968D01*
X88221859Y-71218650D01*
X88189474Y-71174077D01*
X88189474Y-71174076D01*
X87510000Y-71853551D01*
X87510000Y-71847339D01*
X87482741Y-71745606D01*
X87430080Y-71654394D01*
X87355606Y-71579920D01*
X87264394Y-71527259D01*
X87162661Y-71500000D01*
X87156446Y-71500000D01*
X87835922Y-70820524D01*
X87835921Y-70820523D01*
X87791359Y-70788147D01*
X87791350Y-70788141D01*
X87609031Y-70695244D01*
X87414417Y-70632009D01*
X87212317Y-70600000D01*
X87007683Y-70600000D01*
X86805582Y-70632009D01*
X86610968Y-70695244D01*
X86428644Y-70788143D01*
X86384077Y-70820523D01*
X86384077Y-70820524D01*
X87063554Y-71500000D01*
X87057339Y-71500000D01*
X86955606Y-71527259D01*
X86864394Y-71579920D01*
X86789920Y-71654394D01*
X86737259Y-71745606D01*
X86710000Y-71847339D01*
X86710000Y-71853553D01*
X86030524Y-71174077D01*
X86030523Y-71174077D01*
X85998143Y-71218644D01*
X85905244Y-71400968D01*
X85842009Y-71595582D01*
X85810000Y-71797682D01*
X80790500Y-71797682D01*
X80790500Y-71797648D01*
X80776741Y-71710776D01*
X80758477Y-71595465D01*
X80712837Y-71455000D01*
X80695220Y-71400781D01*
X80695218Y-71400778D01*
X80695218Y-71400776D01*
X80661503Y-71334607D01*
X80602287Y-71218390D01*
X80570092Y-71174077D01*
X80481971Y-71052786D01*
X80337213Y-70908028D01*
X80171613Y-70787715D01*
X80171612Y-70787714D01*
X80171610Y-70787713D01*
X80114653Y-70758691D01*
X79989223Y-70694781D01*
X79794534Y-70631522D01*
X79619995Y-70603878D01*
X79592352Y-70599500D01*
X79387648Y-70599500D01*
X79363329Y-70603351D01*
X79185465Y-70631522D01*
X78990776Y-70694781D01*
X78808386Y-70787715D01*
X78642786Y-70908028D01*
X78498028Y-71052786D01*
X78377715Y-71218386D01*
X78284781Y-71400776D01*
X78221522Y-71595465D01*
X78189500Y-71797648D01*
X77310499Y-71797648D01*
X77310499Y-71279992D01*
X77299999Y-71177203D01*
X77244814Y-71010666D01*
X77152712Y-70861344D01*
X77028656Y-70737288D01*
X76879334Y-70645186D01*
X76797427Y-70618044D01*
X76739984Y-70578272D01*
X76713161Y-70513756D01*
X76725476Y-70444980D01*
X76763547Y-70400021D01*
X76857219Y-70331966D01*
X77001966Y-70187219D01*
X77001968Y-70187215D01*
X77001971Y-70187213D01*
X77054732Y-70114590D01*
X77122287Y-70021610D01*
X77215220Y-69839219D01*
X77278477Y-69644534D01*
X77310500Y-69442352D01*
X77310500Y-69237648D01*
X77300057Y-69171714D01*
X77278477Y-69035465D01*
X77247458Y-68940000D01*
X77215220Y-68840781D01*
X77215218Y-68840778D01*
X77215218Y-68840776D01*
X77181503Y-68774607D01*
X77122287Y-68658390D01*
X77090092Y-68614077D01*
X77001971Y-68492786D01*
X76857213Y-68348028D01*
X76691614Y-68227715D01*
X76685006Y-68224348D01*
X76598917Y-68180483D01*
X76548123Y-68132511D01*
X76531328Y-68064690D01*
X76553865Y-67998555D01*
X76598917Y-67959516D01*
X76691610Y-67912287D01*
X76774104Y-67852352D01*
X76857213Y-67791971D01*
X76857215Y-67791968D01*
X76857219Y-67791966D01*
X77001537Y-67647648D01*
X78199500Y-67647648D01*
X78199500Y-67852351D01*
X78231522Y-68054534D01*
X78294781Y-68249223D01*
X78387715Y-68431613D01*
X78508028Y-68597213D01*
X78652786Y-68741971D01*
X78807749Y-68854556D01*
X78818390Y-68862287D01*
X78934607Y-68921503D01*
X79000776Y-68955218D01*
X79000778Y-68955218D01*
X79000781Y-68955220D01*
X79096885Y-68986446D01*
X79195465Y-69018477D01*
X79296557Y-69034488D01*
X79397648Y-69050500D01*
X79397649Y-69050500D01*
X79602351Y-69050500D01*
X79602352Y-69050500D01*
X79804534Y-69018477D01*
X79999219Y-68955220D01*
X80181610Y-68862287D01*
X80274590Y-68794732D01*
X80347213Y-68741971D01*
X80347215Y-68741968D01*
X80347219Y-68741966D01*
X80491966Y-68597219D01*
X80491968Y-68597215D01*
X80491971Y-68597213D01*
X80567844Y-68492781D01*
X80612287Y-68431610D01*
X80705220Y-68249219D01*
X80768477Y-68054534D01*
X80800500Y-67852352D01*
X80800500Y-67647648D01*
X85819500Y-67647648D01*
X85819500Y-67852351D01*
X85851522Y-68054534D01*
X85914781Y-68249223D01*
X86007715Y-68431613D01*
X86128028Y-68597213D01*
X86272786Y-68741971D01*
X86427749Y-68854556D01*
X86438390Y-68862287D01*
X86554607Y-68921503D01*
X86620776Y-68955218D01*
X86620778Y-68955218D01*
X86620781Y-68955220D01*
X86716885Y-68986446D01*
X86815465Y-69018477D01*
X86916557Y-69034488D01*
X87017648Y-69050500D01*
X87017649Y-69050500D01*
X87222351Y-69050500D01*
X87222352Y-69050500D01*
X87424534Y-69018477D01*
X87619219Y-68955220D01*
X87801610Y-68862287D01*
X87894590Y-68794732D01*
X87967213Y-68741971D01*
X87967215Y-68741968D01*
X87967219Y-68741966D01*
X88111966Y-68597219D01*
X88111968Y-68597215D01*
X88111971Y-68597213D01*
X88187844Y-68492781D01*
X88232287Y-68431610D01*
X88325220Y-68249219D01*
X88388477Y-68054534D01*
X88420500Y-67852352D01*
X88420500Y-67647648D01*
X88414507Y-67609812D01*
X88388477Y-67445465D01*
X88359127Y-67355137D01*
X88325220Y-67250781D01*
X88325218Y-67250778D01*
X88325218Y-67250776D01*
X88250703Y-67104534D01*
X88232287Y-67068390D01*
X88224556Y-67057749D01*
X88111971Y-66902786D01*
X87967213Y-66758028D01*
X87801613Y-66637715D01*
X87801612Y-66637714D01*
X87801610Y-66637713D01*
X87744653Y-66608691D01*
X87619223Y-66544781D01*
X87424534Y-66481522D01*
X87249995Y-66453878D01*
X87222352Y-66449500D01*
X87017648Y-66449500D01*
X86993329Y-66453351D01*
X86815465Y-66481522D01*
X86620776Y-66544781D01*
X86438386Y-66637715D01*
X86272786Y-66758028D01*
X86128028Y-66902786D01*
X86007715Y-67068386D01*
X85914781Y-67250776D01*
X85851522Y-67445465D01*
X85819500Y-67647648D01*
X80800500Y-67647648D01*
X80794507Y-67609812D01*
X80768477Y-67445465D01*
X80739127Y-67355137D01*
X80705220Y-67250781D01*
X80705218Y-67250778D01*
X80705218Y-67250776D01*
X80630703Y-67104534D01*
X80612287Y-67068390D01*
X80604556Y-67057749D01*
X80491971Y-66902786D01*
X80347213Y-66758028D01*
X80181613Y-66637715D01*
X80181612Y-66637714D01*
X80181610Y-66637713D01*
X80124653Y-66608691D01*
X79999223Y-66544781D01*
X79804534Y-66481522D01*
X79629995Y-66453878D01*
X79602352Y-66449500D01*
X79397648Y-66449500D01*
X79373329Y-66453351D01*
X79195465Y-66481522D01*
X79000776Y-66544781D01*
X78818386Y-66637715D01*
X78652786Y-66758028D01*
X78508028Y-66902786D01*
X78387715Y-67068386D01*
X78294781Y-67250776D01*
X78231522Y-67445465D01*
X78199500Y-67647648D01*
X77001537Y-67647648D01*
X77001966Y-67647219D01*
X77122287Y-67481610D01*
X77215220Y-67299219D01*
X77278477Y-67104534D01*
X77310500Y-66902352D01*
X77310500Y-66697648D01*
X77278477Y-66495466D01*
X77273946Y-66481522D01*
X77215218Y-66300776D01*
X77181503Y-66234607D01*
X77122287Y-66118390D01*
X77081325Y-66062010D01*
X77001971Y-65952786D01*
X76857213Y-65808028D01*
X76691614Y-65687715D01*
X76685006Y-65684348D01*
X76598917Y-65640483D01*
X76548123Y-65592511D01*
X76531328Y-65524690D01*
X76553865Y-65458555D01*
X76598917Y-65419516D01*
X76691610Y-65372287D01*
X76712770Y-65356913D01*
X76857213Y-65251971D01*
X76857215Y-65251968D01*
X76857219Y-65251966D01*
X77001966Y-65107219D01*
X77001968Y-65107215D01*
X77001971Y-65107213D01*
X77054732Y-65034590D01*
X77122287Y-64941610D01*
X77207188Y-64774983D01*
X93082000Y-64774983D01*
X93082000Y-66975001D01*
X93082001Y-66975018D01*
X93092500Y-67077796D01*
X93092501Y-67077799D01*
X93147685Y-67244331D01*
X93147687Y-67244336D01*
X93181539Y-67299219D01*
X93239788Y-67393656D01*
X93363844Y-67517712D01*
X93513166Y-67609814D01*
X93679703Y-67664999D01*
X93782491Y-67675500D01*
X95982508Y-67675499D01*
X96085297Y-67664999D01*
X96251834Y-67609814D01*
X96401156Y-67517712D01*
X96525212Y-67393656D01*
X96617314Y-67244334D01*
X96672499Y-67077797D01*
X96683000Y-66975009D01*
X96682999Y-64774992D01*
X96672499Y-64672203D01*
X96617314Y-64505666D01*
X96525212Y-64356344D01*
X96401156Y-64232288D01*
X96251834Y-64140186D01*
X96085297Y-64085001D01*
X96085295Y-64085000D01*
X95982510Y-64074500D01*
X93782498Y-64074500D01*
X93782481Y-64074501D01*
X93679703Y-64085000D01*
X93679700Y-64085001D01*
X93513168Y-64140185D01*
X93513163Y-64140187D01*
X93363842Y-64232289D01*
X93239789Y-64356342D01*
X93147687Y-64505663D01*
X93147686Y-64505666D01*
X93092501Y-64672203D01*
X93092501Y-64672204D01*
X93092500Y-64672204D01*
X93082000Y-64774983D01*
X77207188Y-64774983D01*
X77215220Y-64759219D01*
X77278477Y-64564534D01*
X77310500Y-64362352D01*
X77310500Y-64157648D01*
X77297331Y-64074501D01*
X77278477Y-63955465D01*
X77215218Y-63760776D01*
X77181503Y-63694607D01*
X77122287Y-63578390D01*
X77114556Y-63567749D01*
X77001971Y-63412786D01*
X76857213Y-63268028D01*
X76691614Y-63147715D01*
X76685006Y-63144348D01*
X76598917Y-63100483D01*
X76548123Y-63052511D01*
X76531328Y-62984690D01*
X76553865Y-62918555D01*
X76598917Y-62879516D01*
X76691610Y-62832287D01*
X76736774Y-62799474D01*
X76857213Y-62711971D01*
X76857215Y-62711968D01*
X76857219Y-62711966D01*
X77001966Y-62567219D01*
X77001968Y-62567215D01*
X77001971Y-62567213D01*
X77054732Y-62494590D01*
X77122287Y-62401610D01*
X77215220Y-62219219D01*
X77278477Y-62024534D01*
X77310500Y-61822352D01*
X77310500Y-61617648D01*
X77299915Y-61550815D01*
X77278477Y-61415465D01*
X77240923Y-61299888D01*
X77215220Y-61220781D01*
X77215218Y-61220778D01*
X77215218Y-61220776D01*
X77122419Y-61038650D01*
X77122287Y-61038390D01*
X77090092Y-60994077D01*
X77001971Y-60872786D01*
X76857213Y-60728028D01*
X76786997Y-60677014D01*
X93082500Y-60677014D01*
X93082500Y-60912985D01*
X93113299Y-61146914D01*
X93174370Y-61374837D01*
X93264660Y-61592819D01*
X93264665Y-61592828D01*
X93382644Y-61797171D01*
X93382645Y-61797172D01*
X93445221Y-61878723D01*
X94281458Y-61042487D01*
X94306478Y-61102890D01*
X94377612Y-61209351D01*
X94468149Y-61299888D01*
X94574610Y-61371022D01*
X94635011Y-61396041D01*
X93798775Y-62232277D01*
X93880327Y-62294854D01*
X93880328Y-62294855D01*
X94084671Y-62412834D01*
X94084680Y-62412839D01*
X94302663Y-62503129D01*
X94302661Y-62503129D01*
X94530585Y-62564200D01*
X94764514Y-62594999D01*
X94764529Y-62595000D01*
X95000471Y-62595000D01*
X95000485Y-62594999D01*
X95234414Y-62564200D01*
X95462337Y-62503129D01*
X95680319Y-62412839D01*
X95680328Y-62412834D01*
X95884681Y-62294850D01*
X95966223Y-62232279D01*
X95966223Y-62232276D01*
X95129987Y-61396041D01*
X95190390Y-61371022D01*
X95296851Y-61299888D01*
X95387388Y-61209351D01*
X95458522Y-61102890D01*
X95483541Y-61042487D01*
X96319776Y-61878723D01*
X96319779Y-61878723D01*
X96382350Y-61797181D01*
X96500334Y-61592828D01*
X96500339Y-61592819D01*
X96590629Y-61374837D01*
X96651700Y-61146914D01*
X96682499Y-60912985D01*
X96682500Y-60912971D01*
X96682500Y-60677028D01*
X96682499Y-60677014D01*
X96651700Y-60443085D01*
X96590629Y-60215162D01*
X96500339Y-59997180D01*
X96500334Y-59997171D01*
X96382355Y-59792828D01*
X96382354Y-59792827D01*
X96319777Y-59711275D01*
X95483541Y-60547511D01*
X95458522Y-60487110D01*
X95387388Y-60380649D01*
X95296851Y-60290112D01*
X95190390Y-60218978D01*
X95129988Y-60193958D01*
X95966223Y-59357721D01*
X95884672Y-59295145D01*
X95884671Y-59295144D01*
X95680328Y-59177165D01*
X95680319Y-59177160D01*
X95462336Y-59086870D01*
X95462338Y-59086870D01*
X95234414Y-59025799D01*
X95000485Y-58995000D01*
X94764514Y-58995000D01*
X94530585Y-59025799D01*
X94302662Y-59086870D01*
X94084680Y-59177160D01*
X94084671Y-59177165D01*
X93880328Y-59295144D01*
X93880318Y-59295150D01*
X93798775Y-59357720D01*
X93798775Y-59357721D01*
X94635012Y-60193958D01*
X94574610Y-60218978D01*
X94468149Y-60290112D01*
X94377612Y-60380649D01*
X94306478Y-60487110D01*
X94281458Y-60547511D01*
X93445221Y-59711275D01*
X93445220Y-59711275D01*
X93382650Y-59792818D01*
X93382644Y-59792828D01*
X93264665Y-59997171D01*
X93264660Y-59997180D01*
X93174370Y-60215162D01*
X93113299Y-60443085D01*
X93082500Y-60677014D01*
X76786997Y-60677014D01*
X76691614Y-60607715D01*
X76685006Y-60604348D01*
X76598917Y-60560483D01*
X76548123Y-60512511D01*
X76531328Y-60444690D01*
X76553865Y-60378555D01*
X76598917Y-60339516D01*
X76691610Y-60292287D01*
X76792512Y-60218978D01*
X76857213Y-60171971D01*
X76857215Y-60171968D01*
X76857219Y-60171966D01*
X77001966Y-60027219D01*
X77001968Y-60027215D01*
X77001971Y-60027213D01*
X77094395Y-59900000D01*
X77122287Y-59861610D01*
X77215220Y-59679219D01*
X77278477Y-59484534D01*
X77310500Y-59282352D01*
X77310500Y-59077648D01*
X77290845Y-58953553D01*
X77278477Y-58875465D01*
X77222229Y-58702352D01*
X77215220Y-58680781D01*
X77215218Y-58680778D01*
X77215218Y-58680776D01*
X77148110Y-58549071D01*
X77122287Y-58498390D01*
X77122285Y-58498387D01*
X77122284Y-58498385D01*
X77121749Y-58497648D01*
X78189500Y-58497648D01*
X78189500Y-58702351D01*
X78221522Y-58904534D01*
X78284781Y-59099223D01*
X78348691Y-59224653D01*
X78377585Y-59281359D01*
X78377715Y-59281613D01*
X78498028Y-59447213D01*
X78642786Y-59591971D01*
X78762875Y-59679219D01*
X78808390Y-59712287D01*
X78924607Y-59771503D01*
X78990776Y-59805218D01*
X78990778Y-59805218D01*
X78990781Y-59805220D01*
X79073026Y-59831943D01*
X79185465Y-59868477D01*
X79286557Y-59884488D01*
X79387648Y-59900500D01*
X79387649Y-59900500D01*
X79592351Y-59900500D01*
X79592352Y-59900500D01*
X79794534Y-59868477D01*
X79989219Y-59805220D01*
X80171610Y-59712287D01*
X80264590Y-59644732D01*
X80337213Y-59591971D01*
X80337215Y-59591968D01*
X80337219Y-59591966D01*
X80481966Y-59447219D01*
X80481968Y-59447215D01*
X80481971Y-59447213D01*
X80534732Y-59374590D01*
X80602287Y-59281610D01*
X80695220Y-59099219D01*
X80758477Y-58904534D01*
X80790500Y-58702352D01*
X80790500Y-58497682D01*
X85810000Y-58497682D01*
X85810000Y-58702317D01*
X85842009Y-58904417D01*
X85905244Y-59099031D01*
X85998141Y-59281350D01*
X85998147Y-59281359D01*
X86030523Y-59325921D01*
X86030524Y-59325922D01*
X86710000Y-58646446D01*
X86710000Y-58652661D01*
X86737259Y-58754394D01*
X86789920Y-58845606D01*
X86864394Y-58920080D01*
X86955606Y-58972741D01*
X87057339Y-59000000D01*
X87063553Y-59000000D01*
X86384076Y-59679474D01*
X86428650Y-59711859D01*
X86610968Y-59804755D01*
X86805582Y-59867990D01*
X87007683Y-59900000D01*
X87212317Y-59900000D01*
X87414417Y-59867990D01*
X87609031Y-59804755D01*
X87791349Y-59711859D01*
X87835921Y-59679474D01*
X87156447Y-59000000D01*
X87162661Y-59000000D01*
X87264394Y-58972741D01*
X87355606Y-58920080D01*
X87430080Y-58845606D01*
X87482741Y-58754394D01*
X87510000Y-58652661D01*
X87510000Y-58646447D01*
X88189474Y-59325921D01*
X88221859Y-59281349D01*
X88314755Y-59099031D01*
X88377990Y-58904417D01*
X88410000Y-58702317D01*
X88410000Y-58497682D01*
X88377990Y-58295582D01*
X88314755Y-58100968D01*
X88221859Y-57918650D01*
X88189474Y-57874077D01*
X88189474Y-57874076D01*
X87510000Y-58553551D01*
X87510000Y-58547339D01*
X87482741Y-58445606D01*
X87430080Y-58354394D01*
X87355606Y-58279920D01*
X87264394Y-58227259D01*
X87162661Y-58200000D01*
X87156446Y-58200000D01*
X87835922Y-57520524D01*
X87835921Y-57520523D01*
X87791359Y-57488147D01*
X87791350Y-57488141D01*
X87609031Y-57395244D01*
X87414417Y-57332009D01*
X87212317Y-57300000D01*
X87007683Y-57300000D01*
X86805582Y-57332009D01*
X86610968Y-57395244D01*
X86428644Y-57488143D01*
X86384077Y-57520523D01*
X86384077Y-57520524D01*
X87063554Y-58200000D01*
X87057339Y-58200000D01*
X86955606Y-58227259D01*
X86864394Y-58279920D01*
X86789920Y-58354394D01*
X86737259Y-58445606D01*
X86710000Y-58547339D01*
X86710000Y-58553553D01*
X86030524Y-57874077D01*
X86030523Y-57874077D01*
X85998143Y-57918644D01*
X85905244Y-58100968D01*
X85842009Y-58295582D01*
X85810000Y-58497682D01*
X80790500Y-58497682D01*
X80790500Y-58497648D01*
X80782257Y-58445606D01*
X80758477Y-58295465D01*
X80723568Y-58188028D01*
X80695220Y-58100781D01*
X80695218Y-58100778D01*
X80695218Y-58100776D01*
X80654307Y-58020485D01*
X80602287Y-57918390D01*
X80570092Y-57874077D01*
X80481971Y-57752786D01*
X80337213Y-57608028D01*
X80171613Y-57487715D01*
X80171612Y-57487714D01*
X80171610Y-57487713D01*
X80114653Y-57458691D01*
X79989223Y-57394781D01*
X79794534Y-57331522D01*
X79619995Y-57303878D01*
X79592352Y-57299500D01*
X79387648Y-57299500D01*
X79363329Y-57303351D01*
X79185465Y-57331522D01*
X78990776Y-57394781D01*
X78808386Y-57487715D01*
X78642786Y-57608028D01*
X78498028Y-57752786D01*
X78377715Y-57918386D01*
X78284781Y-58100776D01*
X78221522Y-58295465D01*
X78189500Y-58497648D01*
X77121749Y-58497648D01*
X77001971Y-58332786D01*
X76857213Y-58188028D01*
X76691614Y-58067715D01*
X76685006Y-58064348D01*
X76598917Y-58020483D01*
X76548123Y-57972511D01*
X76531328Y-57904690D01*
X76553865Y-57838555D01*
X76598917Y-57799516D01*
X76691610Y-57752287D01*
X76712770Y-57736913D01*
X76857213Y-57631971D01*
X76857215Y-57631968D01*
X76857219Y-57631966D01*
X77001966Y-57487219D01*
X77001968Y-57487215D01*
X77001971Y-57487213D01*
X77068789Y-57395244D01*
X77122287Y-57321610D01*
X77215220Y-57139219D01*
X77278477Y-56944534D01*
X77310500Y-56742352D01*
X77310500Y-56537648D01*
X77278477Y-56335466D01*
X77215220Y-56140781D01*
X77215218Y-56140778D01*
X77215218Y-56140776D01*
X77177632Y-56067010D01*
X77122287Y-55958390D01*
X77114556Y-55947749D01*
X77001971Y-55792786D01*
X76857213Y-55648028D01*
X76786971Y-55596995D01*
X93082000Y-55596995D01*
X93082000Y-55833004D01*
X93082001Y-55833020D01*
X93112806Y-56067010D01*
X93173894Y-56294993D01*
X93264214Y-56513045D01*
X93264219Y-56513056D01*
X93335177Y-56635957D01*
X93382227Y-56717450D01*
X93382229Y-56717453D01*
X93382230Y-56717454D01*
X93525906Y-56904697D01*
X93525912Y-56904704D01*
X93692795Y-57071587D01*
X93692801Y-57071592D01*
X93880050Y-57215273D01*
X94000495Y-57284812D01*
X94084443Y-57333280D01*
X94084448Y-57333282D01*
X94084451Y-57333284D01*
X94302507Y-57423606D01*
X94530486Y-57484693D01*
X94764489Y-57515500D01*
X94764496Y-57515500D01*
X95000504Y-57515500D01*
X95000511Y-57515500D01*
X95234514Y-57484693D01*
X95462493Y-57423606D01*
X95680549Y-57333284D01*
X95884950Y-57215273D01*
X96072199Y-57071592D01*
X96239092Y-56904699D01*
X96382773Y-56717450D01*
X96500784Y-56513049D01*
X96591106Y-56294993D01*
X96652193Y-56067014D01*
X96683000Y-55833011D01*
X96683000Y-55596989D01*
X96652193Y-55362986D01*
X96591106Y-55135007D01*
X96500784Y-54916951D01*
X96500782Y-54916948D01*
X96500780Y-54916943D01*
X96448228Y-54825921D01*
X96382773Y-54712550D01*
X96239092Y-54525301D01*
X96239087Y-54525295D01*
X96072204Y-54358412D01*
X96072197Y-54358406D01*
X95884954Y-54214730D01*
X95884953Y-54214729D01*
X95884950Y-54214727D01*
X95777449Y-54152661D01*
X95680556Y-54096719D01*
X95680545Y-54096714D01*
X95462493Y-54006394D01*
X95234510Y-53945306D01*
X95000520Y-53914501D01*
X95000517Y-53914500D01*
X95000511Y-53914500D01*
X94764489Y-53914500D01*
X94764483Y-53914500D01*
X94764479Y-53914501D01*
X94530489Y-53945306D01*
X94302506Y-54006394D01*
X94084454Y-54096714D01*
X94084443Y-54096719D01*
X93880045Y-54214730D01*
X93692802Y-54358406D01*
X93692795Y-54358412D01*
X93525912Y-54525295D01*
X93525906Y-54525302D01*
X93382230Y-54712545D01*
X93264219Y-54916943D01*
X93264214Y-54916954D01*
X93173894Y-55135006D01*
X93112806Y-55362989D01*
X93082001Y-55596979D01*
X93082000Y-55596995D01*
X76786971Y-55596995D01*
X76691611Y-55527713D01*
X76598369Y-55480203D01*
X76547574Y-55432229D01*
X76530779Y-55364407D01*
X76553317Y-55298273D01*
X76598371Y-55259234D01*
X76691346Y-55211861D01*
X76691347Y-55211861D01*
X76735921Y-55179474D01*
X76056447Y-54500000D01*
X76062661Y-54500000D01*
X76164394Y-54472741D01*
X76255606Y-54420080D01*
X76330080Y-54345606D01*
X76382741Y-54254394D01*
X76410000Y-54152661D01*
X76410000Y-54146447D01*
X77089474Y-54825921D01*
X77121859Y-54781349D01*
X77214755Y-54599031D01*
X77277990Y-54404417D01*
X77310000Y-54202317D01*
X77310000Y-53997682D01*
X77294873Y-53902174D01*
X77292572Y-53887648D01*
X78189500Y-53887648D01*
X78189500Y-54092351D01*
X78221522Y-54294534D01*
X78284781Y-54489223D01*
X78377715Y-54671613D01*
X78498028Y-54837213D01*
X78642786Y-54981971D01*
X78797749Y-55094556D01*
X78808390Y-55102287D01*
X78872605Y-55135006D01*
X78990776Y-55195218D01*
X78990778Y-55195218D01*
X78990781Y-55195220D01*
X79041997Y-55211861D01*
X79185465Y-55258477D01*
X79286557Y-55274488D01*
X79387648Y-55290500D01*
X79387649Y-55290500D01*
X79592351Y-55290500D01*
X79592352Y-55290500D01*
X79794534Y-55258477D01*
X79989219Y-55195220D01*
X80171610Y-55102287D01*
X80264590Y-55034732D01*
X80337213Y-54981971D01*
X80337215Y-54981968D01*
X80337219Y-54981966D01*
X80481966Y-54837219D01*
X80481968Y-54837215D01*
X80481971Y-54837213D01*
X80534732Y-54764590D01*
X80602287Y-54671610D01*
X80695220Y-54489219D01*
X80758477Y-54294534D01*
X80790500Y-54092352D01*
X80790500Y-53887648D01*
X85809500Y-53887648D01*
X85809500Y-54092351D01*
X85841522Y-54294534D01*
X85904781Y-54489223D01*
X85997715Y-54671613D01*
X86118028Y-54837213D01*
X86262786Y-54981971D01*
X86417749Y-55094556D01*
X86428390Y-55102287D01*
X86492605Y-55135006D01*
X86610776Y-55195218D01*
X86610778Y-55195218D01*
X86610781Y-55195220D01*
X86661997Y-55211861D01*
X86805465Y-55258477D01*
X86906557Y-55274488D01*
X87007648Y-55290500D01*
X87007649Y-55290500D01*
X87212351Y-55290500D01*
X87212352Y-55290500D01*
X87414534Y-55258477D01*
X87609219Y-55195220D01*
X87791610Y-55102287D01*
X87884590Y-55034732D01*
X87957213Y-54981971D01*
X87957215Y-54981968D01*
X87957219Y-54981966D01*
X88101966Y-54837219D01*
X88101968Y-54837215D01*
X88101971Y-54837213D01*
X88154732Y-54764590D01*
X88222287Y-54671610D01*
X88315220Y-54489219D01*
X88378477Y-54294534D01*
X88410500Y-54092352D01*
X88410500Y-53887648D01*
X88388619Y-53749500D01*
X88378477Y-53685465D01*
X88315218Y-53490776D01*
X88255756Y-53374077D01*
X88222287Y-53308390D01*
X88214556Y-53297749D01*
X88101971Y-53142786D01*
X87957213Y-52998028D01*
X87791613Y-52877715D01*
X87791612Y-52877714D01*
X87791610Y-52877713D01*
X87734653Y-52848691D01*
X87609223Y-52784781D01*
X87414534Y-52721522D01*
X87239995Y-52693878D01*
X87212352Y-52689500D01*
X87007648Y-52689500D01*
X86983329Y-52693351D01*
X86805465Y-52721522D01*
X86610776Y-52784781D01*
X86428386Y-52877715D01*
X86262786Y-52998028D01*
X86118028Y-53142786D01*
X85997715Y-53308386D01*
X85904781Y-53490776D01*
X85841522Y-53685465D01*
X85809500Y-53887648D01*
X80790500Y-53887648D01*
X80768619Y-53749500D01*
X80758477Y-53685465D01*
X80695218Y-53490776D01*
X80635756Y-53374077D01*
X80602287Y-53308390D01*
X80594556Y-53297749D01*
X80481971Y-53142786D01*
X80337213Y-52998028D01*
X80171613Y-52877715D01*
X80171612Y-52877714D01*
X80171610Y-52877713D01*
X80114653Y-52848691D01*
X79989223Y-52784781D01*
X79794534Y-52721522D01*
X79619995Y-52693878D01*
X79592352Y-52689500D01*
X79387648Y-52689500D01*
X79363329Y-52693351D01*
X79185465Y-52721522D01*
X78990776Y-52784781D01*
X78808386Y-52877715D01*
X78642786Y-52998028D01*
X78498028Y-53142786D01*
X78377715Y-53308386D01*
X78284781Y-53490776D01*
X78221522Y-53685465D01*
X78189500Y-53887648D01*
X77292572Y-53887648D01*
X77277990Y-53795582D01*
X77214755Y-53600968D01*
X77121859Y-53418650D01*
X77089474Y-53374077D01*
X77089474Y-53374076D01*
X76410000Y-54053551D01*
X76410000Y-54047339D01*
X76382741Y-53945606D01*
X76330080Y-53854394D01*
X76255606Y-53779920D01*
X76164394Y-53727259D01*
X76062661Y-53700000D01*
X76056446Y-53700000D01*
X76735922Y-53020524D01*
X76735921Y-53020523D01*
X76691359Y-52988147D01*
X76691350Y-52988141D01*
X76509031Y-52895244D01*
X76314417Y-52832009D01*
X76112317Y-52800000D01*
X75907683Y-52800000D01*
X75705582Y-52832009D01*
X75510968Y-52895244D01*
X75328644Y-52988143D01*
X75284077Y-53020523D01*
X75284077Y-53020524D01*
X75963554Y-53700000D01*
X75957339Y-53700000D01*
X75855606Y-53727259D01*
X75764394Y-53779920D01*
X75689920Y-53854394D01*
X75637259Y-53945606D01*
X75610000Y-54047339D01*
X75610000Y-54053553D01*
X74930524Y-53374077D01*
X74930523Y-53374077D01*
X74898143Y-53418644D01*
X74805244Y-53600968D01*
X74742009Y-53795582D01*
X74710000Y-53997682D01*
X74710000Y-54202317D01*
X74742009Y-54404417D01*
X74805244Y-54599031D01*
X74898141Y-54781350D01*
X74898147Y-54781359D01*
X74930523Y-54825921D01*
X74930524Y-54825922D01*
X75610000Y-54146446D01*
X75610000Y-54152661D01*
X75637259Y-54254394D01*
X75689920Y-54345606D01*
X75764394Y-54420080D01*
X75855606Y-54472741D01*
X75957339Y-54500000D01*
X75963553Y-54500000D01*
X75284076Y-55179474D01*
X75328652Y-55211861D01*
X75421628Y-55259234D01*
X75472425Y-55307208D01*
X75489220Y-55375029D01*
X75466683Y-55441164D01*
X75421630Y-55480203D01*
X75328388Y-55527713D01*
X75162786Y-55648028D01*
X75018028Y-55792786D01*
X74897715Y-55958386D01*
X74804781Y-56140776D01*
X74741522Y-56335465D01*
X74709500Y-56537648D01*
X69690500Y-56537648D01*
X69658477Y-56335466D01*
X69595220Y-56140781D01*
X69595218Y-56140778D01*
X69595218Y-56140776D01*
X69557632Y-56067010D01*
X69502287Y-55958390D01*
X69494556Y-55947749D01*
X69381971Y-55792786D01*
X69237213Y-55648028D01*
X69071611Y-55527713D01*
X68978369Y-55480203D01*
X68927574Y-55432229D01*
X68910779Y-55364407D01*
X68933317Y-55298273D01*
X68978371Y-55259234D01*
X69071346Y-55211861D01*
X69071347Y-55211861D01*
X69115921Y-55179474D01*
X68436447Y-54500000D01*
X68442661Y-54500000D01*
X68544394Y-54472741D01*
X68635606Y-54420080D01*
X68710080Y-54345606D01*
X68762741Y-54254394D01*
X68790000Y-54152661D01*
X68790000Y-54146447D01*
X69469474Y-54825921D01*
X69501859Y-54781349D01*
X69594755Y-54599031D01*
X69657990Y-54404417D01*
X69690000Y-54202317D01*
X69690000Y-53997682D01*
X69657990Y-53795582D01*
X69594755Y-53600968D01*
X69501859Y-53418650D01*
X69469474Y-53374077D01*
X69469474Y-53374076D01*
X68790000Y-54053551D01*
X68790000Y-54047339D01*
X68762741Y-53945606D01*
X68710080Y-53854394D01*
X68635606Y-53779920D01*
X68544394Y-53727259D01*
X68442661Y-53700000D01*
X68436446Y-53700000D01*
X69115922Y-53020524D01*
X69115921Y-53020523D01*
X69071359Y-52988147D01*
X69071350Y-52988141D01*
X68889031Y-52895244D01*
X68694417Y-52832009D01*
X68492317Y-52800000D01*
X68287683Y-52800000D01*
X68085582Y-52832009D01*
X67890968Y-52895244D01*
X67708644Y-52988143D01*
X67664077Y-53020523D01*
X67664077Y-53020524D01*
X68343554Y-53700000D01*
X68337339Y-53700000D01*
X68235606Y-53727259D01*
X68144394Y-53779920D01*
X68069920Y-53854394D01*
X68017259Y-53945606D01*
X67990000Y-54047339D01*
X67990000Y-54053553D01*
X67310524Y-53374077D01*
X67310523Y-53374077D01*
X67278143Y-53418644D01*
X67185244Y-53600968D01*
X67122009Y-53795582D01*
X67090000Y-53997682D01*
X67090000Y-54202317D01*
X67122009Y-54404417D01*
X67185244Y-54599031D01*
X67278141Y-54781350D01*
X67278147Y-54781359D01*
X67310523Y-54825921D01*
X67310524Y-54825922D01*
X67990000Y-54146446D01*
X67990000Y-54152661D01*
X68017259Y-54254394D01*
X68069920Y-54345606D01*
X68144394Y-54420080D01*
X68235606Y-54472741D01*
X68337339Y-54500000D01*
X68343553Y-54500000D01*
X67664076Y-55179474D01*
X67708652Y-55211861D01*
X67801628Y-55259234D01*
X67852425Y-55307208D01*
X67869220Y-55375029D01*
X67846683Y-55441164D01*
X67801630Y-55480203D01*
X67708388Y-55527713D01*
X67542786Y-55648028D01*
X67398028Y-55792786D01*
X67277715Y-55958386D01*
X67184781Y-56140776D01*
X67121522Y-56335465D01*
X67089500Y-56537648D01*
X61510500Y-56537648D01*
X61510499Y-55527713D01*
X61510499Y-54449998D01*
X61510498Y-54449981D01*
X61499999Y-54347203D01*
X61499998Y-54347200D01*
X61469245Y-54254394D01*
X61444814Y-54180666D01*
X61352712Y-54031344D01*
X61228656Y-53907288D01*
X61079334Y-53815186D01*
X60912797Y-53760001D01*
X60912795Y-53760000D01*
X60810010Y-53749500D01*
X58609998Y-53749500D01*
X58609981Y-53749501D01*
X58507203Y-53760000D01*
X58507200Y-53760001D01*
X58340668Y-53815185D01*
X58340663Y-53815187D01*
X58191342Y-53907289D01*
X58067289Y-54031342D01*
X57975187Y-54180663D01*
X57975185Y-54180668D01*
X57963899Y-54214727D01*
X57920001Y-54347203D01*
X57920001Y-54347204D01*
X57920000Y-54347204D01*
X57909500Y-54449983D01*
X50500500Y-54449983D01*
X50500500Y-50624500D01*
X50520185Y-50557461D01*
X50572989Y-50511706D01*
X50624500Y-50500500D01*
X103375500Y-50500500D01*
X103442539Y-50520185D01*
G37*
%TD.AperFunction*%
%TD*%
M02*
