%TF.GenerationSoftware,KiCad,Pcbnew,10.0.6*%
%TF.CreationDate,2026-10-04T16:07:57+02:00*%
%TF.ProjectId,Interface_IAI,496e7465-7266-4616-9365-5f4941492e6b,rev?*%
%TF.SameCoordinates,Original*%
%TF.FileFunction,Legend,Top*%
%TF.FilePolarity,Positive*%
%FSLAX46Y46*%
G04 Gerber Fmt 4.6, Leading zero omitted, Abs format (unit mm)*
G04 Created by KiCad (PCBNEW 10.0.6) date 2026-10-04 16:07:57*
%MOMM*%
%LPD*%
G01*
G04 APERTURE LIST*
%ADD10C,0.100000*%
%ADD11C,0.150000*%
%ADD12C,0.120000*%
G04 APERTURE END LIST*
D10*
X73848323Y-56585987D02*
X73848323Y-56205034D01*
X74076895Y-56662177D02*
X73276895Y-56395510D01*
X73276895Y-56395510D02*
X74076895Y-56128844D01*
X74153085Y-56052654D02*
X74153085Y-55443130D01*
X74076895Y-55252653D02*
X73276895Y-55252653D01*
X73276895Y-55252653D02*
X74076895Y-54795510D01*
X74076895Y-54795510D02*
X73276895Y-54795510D01*
X73908323Y-61805987D02*
X73908323Y-61425034D01*
X74136895Y-61882177D02*
X73336895Y-61615510D01*
X73336895Y-61615510D02*
X74136895Y-61348844D01*
X74213085Y-61272654D02*
X74213085Y-60663130D01*
X74136895Y-60472653D02*
X73336895Y-60472653D01*
X73336895Y-60472653D02*
X73336895Y-60167891D01*
X73336895Y-60167891D02*
X73374990Y-60091701D01*
X73374990Y-60091701D02*
X73413085Y-60053606D01*
X73413085Y-60053606D02*
X73489276Y-60015510D01*
X73489276Y-60015510D02*
X73603561Y-60015510D01*
X73603561Y-60015510D02*
X73679752Y-60053606D01*
X73679752Y-60053606D02*
X73717847Y-60091701D01*
X73717847Y-60091701D02*
X73755942Y-60167891D01*
X73755942Y-60167891D02*
X73755942Y-60472653D01*
X73717847Y-66701225D02*
X73755942Y-66586939D01*
X73755942Y-66586939D02*
X73794038Y-66548844D01*
X73794038Y-66548844D02*
X73870228Y-66510748D01*
X73870228Y-66510748D02*
X73984514Y-66510748D01*
X73984514Y-66510748D02*
X74060704Y-66548844D01*
X74060704Y-66548844D02*
X74098800Y-66586939D01*
X74098800Y-66586939D02*
X74136895Y-66663129D01*
X74136895Y-66663129D02*
X74136895Y-66967891D01*
X74136895Y-66967891D02*
X73336895Y-66967891D01*
X73336895Y-66967891D02*
X73336895Y-66701225D01*
X73336895Y-66701225D02*
X73374990Y-66625034D01*
X73374990Y-66625034D02*
X73413085Y-66586939D01*
X73413085Y-66586939D02*
X73489276Y-66548844D01*
X73489276Y-66548844D02*
X73565466Y-66548844D01*
X73565466Y-66548844D02*
X73641657Y-66586939D01*
X73641657Y-66586939D02*
X73679752Y-66625034D01*
X73679752Y-66625034D02*
X73717847Y-66701225D01*
X73717847Y-66701225D02*
X73717847Y-66967891D01*
X74213085Y-66358368D02*
X74213085Y-65748844D01*
X74136895Y-65558367D02*
X73336895Y-65558367D01*
X73336895Y-65558367D02*
X73336895Y-65253605D01*
X73336895Y-65253605D02*
X73374990Y-65177415D01*
X73374990Y-65177415D02*
X73413085Y-65139320D01*
X73413085Y-65139320D02*
X73489276Y-65101224D01*
X73489276Y-65101224D02*
X73603561Y-65101224D01*
X73603561Y-65101224D02*
X73679752Y-65139320D01*
X73679752Y-65139320D02*
X73717847Y-65177415D01*
X73717847Y-65177415D02*
X73755942Y-65253605D01*
X73755942Y-65253605D02*
X73755942Y-65558367D01*
X73717847Y-71401225D02*
X73755942Y-71286939D01*
X73755942Y-71286939D02*
X73794038Y-71248844D01*
X73794038Y-71248844D02*
X73870228Y-71210748D01*
X73870228Y-71210748D02*
X73984514Y-71210748D01*
X73984514Y-71210748D02*
X74060704Y-71248844D01*
X74060704Y-71248844D02*
X74098800Y-71286939D01*
X74098800Y-71286939D02*
X74136895Y-71363129D01*
X74136895Y-71363129D02*
X74136895Y-71667891D01*
X74136895Y-71667891D02*
X73336895Y-71667891D01*
X73336895Y-71667891D02*
X73336895Y-71401225D01*
X73336895Y-71401225D02*
X73374990Y-71325034D01*
X73374990Y-71325034D02*
X73413085Y-71286939D01*
X73413085Y-71286939D02*
X73489276Y-71248844D01*
X73489276Y-71248844D02*
X73565466Y-71248844D01*
X73565466Y-71248844D02*
X73641657Y-71286939D01*
X73641657Y-71286939D02*
X73679752Y-71325034D01*
X73679752Y-71325034D02*
X73717847Y-71401225D01*
X73717847Y-71401225D02*
X73717847Y-71667891D01*
X74213085Y-71058368D02*
X74213085Y-70448844D01*
X74136895Y-70258367D02*
X73336895Y-70258367D01*
X73336895Y-70258367D02*
X74136895Y-69801224D01*
X74136895Y-69801224D02*
X73336895Y-69801224D01*
X73336895Y-77344082D02*
X73336895Y-76810748D01*
X73336895Y-76810748D02*
X74136895Y-77344082D01*
X74136895Y-77344082D02*
X74136895Y-76810748D01*
X74213085Y-76696463D02*
X74213085Y-76086939D01*
X74136895Y-75896462D02*
X73336895Y-75896462D01*
X73336895Y-75896462D02*
X74136895Y-75439319D01*
X74136895Y-75439319D02*
X73336895Y-75439319D01*
X73336895Y-81944082D02*
X73336895Y-81410748D01*
X73336895Y-81410748D02*
X74136895Y-81944082D01*
X74136895Y-81944082D02*
X74136895Y-81410748D01*
X74213085Y-81296463D02*
X74213085Y-80686939D01*
X74136895Y-80496462D02*
X73336895Y-80496462D01*
X73336895Y-80496462D02*
X73336895Y-80191700D01*
X73336895Y-80191700D02*
X73374990Y-80115510D01*
X73374990Y-80115510D02*
X73413085Y-80077415D01*
X73413085Y-80077415D02*
X73489276Y-80039319D01*
X73489276Y-80039319D02*
X73603561Y-80039319D01*
X73603561Y-80039319D02*
X73679752Y-80077415D01*
X73679752Y-80077415D02*
X73717847Y-80115510D01*
X73717847Y-80115510D02*
X73755942Y-80191700D01*
X73755942Y-80191700D02*
X73755942Y-80496462D01*
X73374990Y-86848844D02*
X73336895Y-86925034D01*
X73336895Y-86925034D02*
X73336895Y-87039320D01*
X73336895Y-87039320D02*
X73374990Y-87153606D01*
X73374990Y-87153606D02*
X73451180Y-87229796D01*
X73451180Y-87229796D02*
X73527371Y-87267891D01*
X73527371Y-87267891D02*
X73679752Y-87305987D01*
X73679752Y-87305987D02*
X73794038Y-87305987D01*
X73794038Y-87305987D02*
X73946419Y-87267891D01*
X73946419Y-87267891D02*
X74022609Y-87229796D01*
X74022609Y-87229796D02*
X74098800Y-87153606D01*
X74098800Y-87153606D02*
X74136895Y-87039320D01*
X74136895Y-87039320D02*
X74136895Y-86963129D01*
X74136895Y-86963129D02*
X74098800Y-86848844D01*
X74098800Y-86848844D02*
X74060704Y-86810748D01*
X74060704Y-86810748D02*
X73794038Y-86810748D01*
X73794038Y-86810748D02*
X73794038Y-86963129D01*
X74136895Y-86467891D02*
X73336895Y-86467891D01*
X73336895Y-86467891D02*
X74136895Y-86010748D01*
X74136895Y-86010748D02*
X73336895Y-86010748D01*
X74136895Y-85629796D02*
X73336895Y-85629796D01*
X73336895Y-85629796D02*
X73336895Y-85439320D01*
X73336895Y-85439320D02*
X73374990Y-85325034D01*
X73374990Y-85325034D02*
X73451180Y-85248844D01*
X73451180Y-85248844D02*
X73527371Y-85210749D01*
X73527371Y-85210749D02*
X73679752Y-85172653D01*
X73679752Y-85172653D02*
X73794038Y-85172653D01*
X73794038Y-85172653D02*
X73946419Y-85210749D01*
X73946419Y-85210749D02*
X74022609Y-85248844D01*
X74022609Y-85248844D02*
X74098800Y-85325034D01*
X74098800Y-85325034D02*
X74136895Y-85439320D01*
X74136895Y-85439320D02*
X74136895Y-85629796D01*
X74136895Y-95667891D02*
X73336895Y-95667891D01*
X73336895Y-95667891D02*
X73336895Y-95363129D01*
X73336895Y-95363129D02*
X73374990Y-95286939D01*
X73374990Y-95286939D02*
X73413085Y-95248844D01*
X73413085Y-95248844D02*
X73489276Y-95210748D01*
X73489276Y-95210748D02*
X73603561Y-95210748D01*
X73603561Y-95210748D02*
X73679752Y-95248844D01*
X73679752Y-95248844D02*
X73717847Y-95286939D01*
X73717847Y-95286939D02*
X73755942Y-95363129D01*
X73755942Y-95363129D02*
X73755942Y-95667891D01*
X73336895Y-94867891D02*
X73984514Y-94867891D01*
X73984514Y-94867891D02*
X74060704Y-94829796D01*
X74060704Y-94829796D02*
X74098800Y-94791701D01*
X74098800Y-94791701D02*
X74136895Y-94715510D01*
X74136895Y-94715510D02*
X74136895Y-94563129D01*
X74136895Y-94563129D02*
X74098800Y-94486939D01*
X74098800Y-94486939D02*
X74060704Y-94448844D01*
X74060704Y-94448844D02*
X73984514Y-94410748D01*
X73984514Y-94410748D02*
X73336895Y-94410748D01*
X74136895Y-93648844D02*
X74136895Y-94029796D01*
X74136895Y-94029796D02*
X73336895Y-94029796D01*
X74098800Y-93420273D02*
X74136895Y-93305987D01*
X74136895Y-93305987D02*
X74136895Y-93115511D01*
X74136895Y-93115511D02*
X74098800Y-93039320D01*
X74098800Y-93039320D02*
X74060704Y-93001225D01*
X74060704Y-93001225D02*
X73984514Y-92963130D01*
X73984514Y-92963130D02*
X73908323Y-92963130D01*
X73908323Y-92963130D02*
X73832133Y-93001225D01*
X73832133Y-93001225D02*
X73794038Y-93039320D01*
X73794038Y-93039320D02*
X73755942Y-93115511D01*
X73755942Y-93115511D02*
X73717847Y-93267892D01*
X73717847Y-93267892D02*
X73679752Y-93344082D01*
X73679752Y-93344082D02*
X73641657Y-93382177D01*
X73641657Y-93382177D02*
X73565466Y-93420273D01*
X73565466Y-93420273D02*
X73489276Y-93420273D01*
X73489276Y-93420273D02*
X73413085Y-93382177D01*
X73413085Y-93382177D02*
X73374990Y-93344082D01*
X73374990Y-93344082D02*
X73336895Y-93267892D01*
X73336895Y-93267892D02*
X73336895Y-93077415D01*
X73336895Y-93077415D02*
X73374990Y-92963130D01*
X73717847Y-92620272D02*
X73717847Y-92353606D01*
X74136895Y-92239320D02*
X74136895Y-92620272D01*
X74136895Y-92620272D02*
X73336895Y-92620272D01*
X73336895Y-92620272D02*
X73336895Y-92239320D01*
X74213085Y-92086939D02*
X74213085Y-91477415D01*
X74136895Y-91286938D02*
X73336895Y-91286938D01*
X73336895Y-91286938D02*
X73336895Y-90982176D01*
X73336895Y-90982176D02*
X73374990Y-90905986D01*
X73374990Y-90905986D02*
X73413085Y-90867891D01*
X73413085Y-90867891D02*
X73489276Y-90829795D01*
X73489276Y-90829795D02*
X73603561Y-90829795D01*
X73603561Y-90829795D02*
X73679752Y-90867891D01*
X73679752Y-90867891D02*
X73717847Y-90905986D01*
X73717847Y-90905986D02*
X73755942Y-90982176D01*
X73755942Y-90982176D02*
X73755942Y-91286938D01*
X74136895Y-101567891D02*
X73336895Y-101567891D01*
X73336895Y-101567891D02*
X73336895Y-101263129D01*
X73336895Y-101263129D02*
X73374990Y-101186939D01*
X73374990Y-101186939D02*
X73413085Y-101148844D01*
X73413085Y-101148844D02*
X73489276Y-101110748D01*
X73489276Y-101110748D02*
X73603561Y-101110748D01*
X73603561Y-101110748D02*
X73679752Y-101148844D01*
X73679752Y-101148844D02*
X73717847Y-101186939D01*
X73717847Y-101186939D02*
X73755942Y-101263129D01*
X73755942Y-101263129D02*
X73755942Y-101567891D01*
X73336895Y-100767891D02*
X73984514Y-100767891D01*
X73984514Y-100767891D02*
X74060704Y-100729796D01*
X74060704Y-100729796D02*
X74098800Y-100691701D01*
X74098800Y-100691701D02*
X74136895Y-100615510D01*
X74136895Y-100615510D02*
X74136895Y-100463129D01*
X74136895Y-100463129D02*
X74098800Y-100386939D01*
X74098800Y-100386939D02*
X74060704Y-100348844D01*
X74060704Y-100348844D02*
X73984514Y-100310748D01*
X73984514Y-100310748D02*
X73336895Y-100310748D01*
X74136895Y-99548844D02*
X74136895Y-99929796D01*
X74136895Y-99929796D02*
X73336895Y-99929796D01*
X74098800Y-99320273D02*
X74136895Y-99205987D01*
X74136895Y-99205987D02*
X74136895Y-99015511D01*
X74136895Y-99015511D02*
X74098800Y-98939320D01*
X74098800Y-98939320D02*
X74060704Y-98901225D01*
X74060704Y-98901225D02*
X73984514Y-98863130D01*
X73984514Y-98863130D02*
X73908323Y-98863130D01*
X73908323Y-98863130D02*
X73832133Y-98901225D01*
X73832133Y-98901225D02*
X73794038Y-98939320D01*
X73794038Y-98939320D02*
X73755942Y-99015511D01*
X73755942Y-99015511D02*
X73717847Y-99167892D01*
X73717847Y-99167892D02*
X73679752Y-99244082D01*
X73679752Y-99244082D02*
X73641657Y-99282177D01*
X73641657Y-99282177D02*
X73565466Y-99320273D01*
X73565466Y-99320273D02*
X73489276Y-99320273D01*
X73489276Y-99320273D02*
X73413085Y-99282177D01*
X73413085Y-99282177D02*
X73374990Y-99244082D01*
X73374990Y-99244082D02*
X73336895Y-99167892D01*
X73336895Y-99167892D02*
X73336895Y-98977415D01*
X73336895Y-98977415D02*
X73374990Y-98863130D01*
X73717847Y-98520272D02*
X73717847Y-98253606D01*
X74136895Y-98139320D02*
X74136895Y-98520272D01*
X74136895Y-98520272D02*
X73336895Y-98520272D01*
X73336895Y-98520272D02*
X73336895Y-98139320D01*
X74213085Y-97986939D02*
X74213085Y-97377415D01*
X74136895Y-97186938D02*
X73336895Y-97186938D01*
X73336895Y-97186938D02*
X74136895Y-96729795D01*
X74136895Y-96729795D02*
X73336895Y-96729795D01*
X74098800Y-106605987D02*
X74136895Y-106491701D01*
X74136895Y-106491701D02*
X74136895Y-106301225D01*
X74136895Y-106301225D02*
X74098800Y-106225034D01*
X74098800Y-106225034D02*
X74060704Y-106186939D01*
X74060704Y-106186939D02*
X73984514Y-106148844D01*
X73984514Y-106148844D02*
X73908323Y-106148844D01*
X73908323Y-106148844D02*
X73832133Y-106186939D01*
X73832133Y-106186939D02*
X73794038Y-106225034D01*
X73794038Y-106225034D02*
X73755942Y-106301225D01*
X73755942Y-106301225D02*
X73717847Y-106453606D01*
X73717847Y-106453606D02*
X73679752Y-106529796D01*
X73679752Y-106529796D02*
X73641657Y-106567891D01*
X73641657Y-106567891D02*
X73565466Y-106605987D01*
X73565466Y-106605987D02*
X73489276Y-106605987D01*
X73489276Y-106605987D02*
X73413085Y-106567891D01*
X73413085Y-106567891D02*
X73374990Y-106529796D01*
X73374990Y-106529796D02*
X73336895Y-106453606D01*
X73336895Y-106453606D02*
X73336895Y-106263129D01*
X73336895Y-106263129D02*
X73374990Y-106148844D01*
X74136895Y-105805986D02*
X73336895Y-105805986D01*
X73374990Y-105005987D02*
X73336895Y-105082177D01*
X73336895Y-105082177D02*
X73336895Y-105196463D01*
X73336895Y-105196463D02*
X73374990Y-105310749D01*
X73374990Y-105310749D02*
X73451180Y-105386939D01*
X73451180Y-105386939D02*
X73527371Y-105425034D01*
X73527371Y-105425034D02*
X73679752Y-105463130D01*
X73679752Y-105463130D02*
X73794038Y-105463130D01*
X73794038Y-105463130D02*
X73946419Y-105425034D01*
X73946419Y-105425034D02*
X74022609Y-105386939D01*
X74022609Y-105386939D02*
X74098800Y-105310749D01*
X74098800Y-105310749D02*
X74136895Y-105196463D01*
X74136895Y-105196463D02*
X74136895Y-105120272D01*
X74136895Y-105120272D02*
X74098800Y-105005987D01*
X74098800Y-105005987D02*
X74060704Y-104967891D01*
X74060704Y-104967891D02*
X73794038Y-104967891D01*
X73794038Y-104967891D02*
X73794038Y-105120272D01*
X74136895Y-104625034D02*
X73336895Y-104625034D01*
X73336895Y-104625034D02*
X74136895Y-104167891D01*
X74136895Y-104167891D02*
X73336895Y-104167891D01*
X74213085Y-103977416D02*
X74213085Y-103367892D01*
X74136895Y-103177415D02*
X73336895Y-103177415D01*
X73336895Y-103177415D02*
X74136895Y-102720272D01*
X74136895Y-102720272D02*
X73336895Y-102720272D01*
X74098800Y-111605987D02*
X74136895Y-111491701D01*
X74136895Y-111491701D02*
X74136895Y-111301225D01*
X74136895Y-111301225D02*
X74098800Y-111225034D01*
X74098800Y-111225034D02*
X74060704Y-111186939D01*
X74060704Y-111186939D02*
X73984514Y-111148844D01*
X73984514Y-111148844D02*
X73908323Y-111148844D01*
X73908323Y-111148844D02*
X73832133Y-111186939D01*
X73832133Y-111186939D02*
X73794038Y-111225034D01*
X73794038Y-111225034D02*
X73755942Y-111301225D01*
X73755942Y-111301225D02*
X73717847Y-111453606D01*
X73717847Y-111453606D02*
X73679752Y-111529796D01*
X73679752Y-111529796D02*
X73641657Y-111567891D01*
X73641657Y-111567891D02*
X73565466Y-111605987D01*
X73565466Y-111605987D02*
X73489276Y-111605987D01*
X73489276Y-111605987D02*
X73413085Y-111567891D01*
X73413085Y-111567891D02*
X73374990Y-111529796D01*
X73374990Y-111529796D02*
X73336895Y-111453606D01*
X73336895Y-111453606D02*
X73336895Y-111263129D01*
X73336895Y-111263129D02*
X73374990Y-111148844D01*
X74136895Y-110805986D02*
X73336895Y-110805986D01*
X73374990Y-110005987D02*
X73336895Y-110082177D01*
X73336895Y-110082177D02*
X73336895Y-110196463D01*
X73336895Y-110196463D02*
X73374990Y-110310749D01*
X73374990Y-110310749D02*
X73451180Y-110386939D01*
X73451180Y-110386939D02*
X73527371Y-110425034D01*
X73527371Y-110425034D02*
X73679752Y-110463130D01*
X73679752Y-110463130D02*
X73794038Y-110463130D01*
X73794038Y-110463130D02*
X73946419Y-110425034D01*
X73946419Y-110425034D02*
X74022609Y-110386939D01*
X74022609Y-110386939D02*
X74098800Y-110310749D01*
X74098800Y-110310749D02*
X74136895Y-110196463D01*
X74136895Y-110196463D02*
X74136895Y-110120272D01*
X74136895Y-110120272D02*
X74098800Y-110005987D01*
X74098800Y-110005987D02*
X74060704Y-109967891D01*
X74060704Y-109967891D02*
X73794038Y-109967891D01*
X73794038Y-109967891D02*
X73794038Y-110120272D01*
X74136895Y-109625034D02*
X73336895Y-109625034D01*
X73336895Y-109625034D02*
X74136895Y-109167891D01*
X74136895Y-109167891D02*
X73336895Y-109167891D01*
X74213085Y-108977416D02*
X74213085Y-108367892D01*
X74136895Y-108177415D02*
X73336895Y-108177415D01*
X73336895Y-108177415D02*
X73336895Y-107872653D01*
X73336895Y-107872653D02*
X73374990Y-107796463D01*
X73374990Y-107796463D02*
X73413085Y-107758368D01*
X73413085Y-107758368D02*
X73489276Y-107720272D01*
X73489276Y-107720272D02*
X73603561Y-107720272D01*
X73603561Y-107720272D02*
X73679752Y-107758368D01*
X73679752Y-107758368D02*
X73717847Y-107796463D01*
X73717847Y-107796463D02*
X73755942Y-107872653D01*
X73755942Y-107872653D02*
X73755942Y-108177415D01*
X73832133Y-118567891D02*
X73832133Y-117958368D01*
X74136895Y-118263129D02*
X73527371Y-118263129D01*
X73413085Y-117615511D02*
X73374990Y-117577415D01*
X73374990Y-117577415D02*
X73336895Y-117501225D01*
X73336895Y-117501225D02*
X73336895Y-117310749D01*
X73336895Y-117310749D02*
X73374990Y-117234558D01*
X73374990Y-117234558D02*
X73413085Y-117196463D01*
X73413085Y-117196463D02*
X73489276Y-117158368D01*
X73489276Y-117158368D02*
X73565466Y-117158368D01*
X73565466Y-117158368D02*
X73679752Y-117196463D01*
X73679752Y-117196463D02*
X74136895Y-117653606D01*
X74136895Y-117653606D02*
X74136895Y-117158368D01*
X73603561Y-116472653D02*
X74136895Y-116472653D01*
X73298800Y-116663129D02*
X73870228Y-116853606D01*
X73870228Y-116853606D02*
X73870228Y-116358367D01*
X73336895Y-116167891D02*
X74136895Y-115901224D01*
X74136895Y-115901224D02*
X73336895Y-115634558D01*
X73374990Y-122848844D02*
X73336895Y-122925034D01*
X73336895Y-122925034D02*
X73336895Y-123039320D01*
X73336895Y-123039320D02*
X73374990Y-123153606D01*
X73374990Y-123153606D02*
X73451180Y-123229796D01*
X73451180Y-123229796D02*
X73527371Y-123267891D01*
X73527371Y-123267891D02*
X73679752Y-123305987D01*
X73679752Y-123305987D02*
X73794038Y-123305987D01*
X73794038Y-123305987D02*
X73946419Y-123267891D01*
X73946419Y-123267891D02*
X74022609Y-123229796D01*
X74022609Y-123229796D02*
X74098800Y-123153606D01*
X74098800Y-123153606D02*
X74136895Y-123039320D01*
X74136895Y-123039320D02*
X74136895Y-122963129D01*
X74136895Y-122963129D02*
X74098800Y-122848844D01*
X74098800Y-122848844D02*
X74060704Y-122810748D01*
X74060704Y-122810748D02*
X73794038Y-122810748D01*
X73794038Y-122810748D02*
X73794038Y-122963129D01*
X74136895Y-122467891D02*
X73336895Y-122467891D01*
X73336895Y-122467891D02*
X74136895Y-122010748D01*
X74136895Y-122010748D02*
X73336895Y-122010748D01*
X74136895Y-121629796D02*
X73336895Y-121629796D01*
X73336895Y-121629796D02*
X73336895Y-121439320D01*
X73336895Y-121439320D02*
X73374990Y-121325034D01*
X73374990Y-121325034D02*
X73451180Y-121248844D01*
X73451180Y-121248844D02*
X73527371Y-121210749D01*
X73527371Y-121210749D02*
X73679752Y-121172653D01*
X73679752Y-121172653D02*
X73794038Y-121172653D01*
X73794038Y-121172653D02*
X73946419Y-121210749D01*
X73946419Y-121210749D02*
X74022609Y-121248844D01*
X74022609Y-121248844D02*
X74098800Y-121325034D01*
X74098800Y-121325034D02*
X74136895Y-121439320D01*
X74136895Y-121439320D02*
X74136895Y-121629796D01*
X74060704Y-128310748D02*
X74098800Y-128348844D01*
X74098800Y-128348844D02*
X74136895Y-128463129D01*
X74136895Y-128463129D02*
X74136895Y-128539320D01*
X74136895Y-128539320D02*
X74098800Y-128653606D01*
X74098800Y-128653606D02*
X74022609Y-128729796D01*
X74022609Y-128729796D02*
X73946419Y-128767891D01*
X73946419Y-128767891D02*
X73794038Y-128805987D01*
X73794038Y-128805987D02*
X73679752Y-128805987D01*
X73679752Y-128805987D02*
X73527371Y-128767891D01*
X73527371Y-128767891D02*
X73451180Y-128729796D01*
X73451180Y-128729796D02*
X73374990Y-128653606D01*
X73374990Y-128653606D02*
X73336895Y-128539320D01*
X73336895Y-128539320D02*
X73336895Y-128463129D01*
X73336895Y-128463129D02*
X73374990Y-128348844D01*
X73374990Y-128348844D02*
X73413085Y-128310748D01*
X74098800Y-128005987D02*
X74136895Y-127891701D01*
X74136895Y-127891701D02*
X74136895Y-127701225D01*
X74136895Y-127701225D02*
X74098800Y-127625034D01*
X74098800Y-127625034D02*
X74060704Y-127586939D01*
X74060704Y-127586939D02*
X73984514Y-127548844D01*
X73984514Y-127548844D02*
X73908323Y-127548844D01*
X73908323Y-127548844D02*
X73832133Y-127586939D01*
X73832133Y-127586939D02*
X73794038Y-127625034D01*
X73794038Y-127625034D02*
X73755942Y-127701225D01*
X73755942Y-127701225D02*
X73717847Y-127853606D01*
X73717847Y-127853606D02*
X73679752Y-127929796D01*
X73679752Y-127929796D02*
X73641657Y-127967891D01*
X73641657Y-127967891D02*
X73565466Y-128005987D01*
X73565466Y-128005987D02*
X73489276Y-128005987D01*
X73489276Y-128005987D02*
X73413085Y-127967891D01*
X73413085Y-127967891D02*
X73374990Y-127929796D01*
X73374990Y-127929796D02*
X73336895Y-127853606D01*
X73336895Y-127853606D02*
X73336895Y-127663129D01*
X73336895Y-127663129D02*
X73374990Y-127548844D01*
X73336895Y-127320272D02*
X73336895Y-126863129D01*
X74136895Y-127091701D02*
X73336895Y-127091701D01*
X74136895Y-126596462D02*
X73336895Y-126596462D01*
X73336895Y-126596462D02*
X73336895Y-126291700D01*
X73336895Y-126291700D02*
X73374990Y-126215510D01*
X73374990Y-126215510D02*
X73413085Y-126177415D01*
X73413085Y-126177415D02*
X73489276Y-126139319D01*
X73489276Y-126139319D02*
X73603561Y-126139319D01*
X73603561Y-126139319D02*
X73679752Y-126177415D01*
X73679752Y-126177415D02*
X73717847Y-126215510D01*
X73717847Y-126215510D02*
X73755942Y-126291700D01*
X73755942Y-126291700D02*
X73755942Y-126596462D01*
X74136895Y-133867891D02*
X73336895Y-133867891D01*
X73717847Y-133867891D02*
X73717847Y-133410748D01*
X74136895Y-133410748D02*
X73336895Y-133410748D01*
X73336895Y-132877415D02*
X73336895Y-132725034D01*
X73336895Y-132725034D02*
X73374990Y-132648844D01*
X73374990Y-132648844D02*
X73451180Y-132572653D01*
X73451180Y-132572653D02*
X73603561Y-132534558D01*
X73603561Y-132534558D02*
X73870228Y-132534558D01*
X73870228Y-132534558D02*
X74022609Y-132572653D01*
X74022609Y-132572653D02*
X74098800Y-132648844D01*
X74098800Y-132648844D02*
X74136895Y-132725034D01*
X74136895Y-132725034D02*
X74136895Y-132877415D01*
X74136895Y-132877415D02*
X74098800Y-132953606D01*
X74098800Y-132953606D02*
X74022609Y-133029796D01*
X74022609Y-133029796D02*
X73870228Y-133067892D01*
X73870228Y-133067892D02*
X73603561Y-133067892D01*
X73603561Y-133067892D02*
X73451180Y-133029796D01*
X73451180Y-133029796D02*
X73374990Y-132953606D01*
X73374990Y-132953606D02*
X73336895Y-132877415D01*
X74136895Y-132191701D02*
X73336895Y-132191701D01*
X73336895Y-132191701D02*
X73908323Y-131925035D01*
X73908323Y-131925035D02*
X73336895Y-131658368D01*
X73336895Y-131658368D02*
X74136895Y-131658368D01*
X73717847Y-131277415D02*
X73717847Y-131010749D01*
X74136895Y-130896463D02*
X74136895Y-131277415D01*
X74136895Y-131277415D02*
X73336895Y-131277415D01*
X73336895Y-131277415D02*
X73336895Y-130896463D01*
X74136895Y-138210748D02*
X73755942Y-138477415D01*
X74136895Y-138667891D02*
X73336895Y-138667891D01*
X73336895Y-138667891D02*
X73336895Y-138363129D01*
X73336895Y-138363129D02*
X73374990Y-138286939D01*
X73374990Y-138286939D02*
X73413085Y-138248844D01*
X73413085Y-138248844D02*
X73489276Y-138210748D01*
X73489276Y-138210748D02*
X73603561Y-138210748D01*
X73603561Y-138210748D02*
X73679752Y-138248844D01*
X73679752Y-138248844D02*
X73717847Y-138286939D01*
X73717847Y-138286939D02*
X73755942Y-138363129D01*
X73755942Y-138363129D02*
X73755942Y-138667891D01*
X73717847Y-137867891D02*
X73717847Y-137601225D01*
X74136895Y-137486939D02*
X74136895Y-137867891D01*
X74136895Y-137867891D02*
X73336895Y-137867891D01*
X73336895Y-137867891D02*
X73336895Y-137486939D01*
X74098800Y-137182177D02*
X74136895Y-137067891D01*
X74136895Y-137067891D02*
X74136895Y-136877415D01*
X74136895Y-136877415D02*
X74098800Y-136801224D01*
X74098800Y-136801224D02*
X74060704Y-136763129D01*
X74060704Y-136763129D02*
X73984514Y-136725034D01*
X73984514Y-136725034D02*
X73908323Y-136725034D01*
X73908323Y-136725034D02*
X73832133Y-136763129D01*
X73832133Y-136763129D02*
X73794038Y-136801224D01*
X73794038Y-136801224D02*
X73755942Y-136877415D01*
X73755942Y-136877415D02*
X73717847Y-137029796D01*
X73717847Y-137029796D02*
X73679752Y-137105986D01*
X73679752Y-137105986D02*
X73641657Y-137144081D01*
X73641657Y-137144081D02*
X73565466Y-137182177D01*
X73565466Y-137182177D02*
X73489276Y-137182177D01*
X73489276Y-137182177D02*
X73413085Y-137144081D01*
X73413085Y-137144081D02*
X73374990Y-137105986D01*
X73374990Y-137105986D02*
X73336895Y-137029796D01*
X73336895Y-137029796D02*
X73336895Y-136839319D01*
X73336895Y-136839319D02*
X73374990Y-136725034D01*
X74098800Y-143705987D02*
X74136895Y-143591701D01*
X74136895Y-143591701D02*
X74136895Y-143401225D01*
X74136895Y-143401225D02*
X74098800Y-143325034D01*
X74098800Y-143325034D02*
X74060704Y-143286939D01*
X74060704Y-143286939D02*
X73984514Y-143248844D01*
X73984514Y-143248844D02*
X73908323Y-143248844D01*
X73908323Y-143248844D02*
X73832133Y-143286939D01*
X73832133Y-143286939D02*
X73794038Y-143325034D01*
X73794038Y-143325034D02*
X73755942Y-143401225D01*
X73755942Y-143401225D02*
X73717847Y-143553606D01*
X73717847Y-143553606D02*
X73679752Y-143629796D01*
X73679752Y-143629796D02*
X73641657Y-143667891D01*
X73641657Y-143667891D02*
X73565466Y-143705987D01*
X73565466Y-143705987D02*
X73489276Y-143705987D01*
X73489276Y-143705987D02*
X73413085Y-143667891D01*
X73413085Y-143667891D02*
X73374990Y-143629796D01*
X73374990Y-143629796D02*
X73336895Y-143553606D01*
X73336895Y-143553606D02*
X73336895Y-143363129D01*
X73336895Y-143363129D02*
X73374990Y-143248844D01*
X73336895Y-142753605D02*
X73336895Y-142601224D01*
X73336895Y-142601224D02*
X73374990Y-142525034D01*
X73374990Y-142525034D02*
X73451180Y-142448843D01*
X73451180Y-142448843D02*
X73603561Y-142410748D01*
X73603561Y-142410748D02*
X73870228Y-142410748D01*
X73870228Y-142410748D02*
X74022609Y-142448843D01*
X74022609Y-142448843D02*
X74098800Y-142525034D01*
X74098800Y-142525034D02*
X74136895Y-142601224D01*
X74136895Y-142601224D02*
X74136895Y-142753605D01*
X74136895Y-142753605D02*
X74098800Y-142829796D01*
X74098800Y-142829796D02*
X74022609Y-142905986D01*
X74022609Y-142905986D02*
X73870228Y-142944082D01*
X73870228Y-142944082D02*
X73603561Y-142944082D01*
X73603561Y-142944082D02*
X73451180Y-142905986D01*
X73451180Y-142905986D02*
X73374990Y-142829796D01*
X73374990Y-142829796D02*
X73336895Y-142753605D01*
X74136895Y-142067891D02*
X73336895Y-142067891D01*
X73336895Y-142067891D02*
X74136895Y-141610748D01*
X74136895Y-141610748D02*
X73336895Y-141610748D01*
X74098800Y-148405987D02*
X74136895Y-148291701D01*
X74136895Y-148291701D02*
X74136895Y-148101225D01*
X74136895Y-148101225D02*
X74098800Y-148025034D01*
X74098800Y-148025034D02*
X74060704Y-147986939D01*
X74060704Y-147986939D02*
X73984514Y-147948844D01*
X73984514Y-147948844D02*
X73908323Y-147948844D01*
X73908323Y-147948844D02*
X73832133Y-147986939D01*
X73832133Y-147986939D02*
X73794038Y-148025034D01*
X73794038Y-148025034D02*
X73755942Y-148101225D01*
X73755942Y-148101225D02*
X73717847Y-148253606D01*
X73717847Y-148253606D02*
X73679752Y-148329796D01*
X73679752Y-148329796D02*
X73641657Y-148367891D01*
X73641657Y-148367891D02*
X73565466Y-148405987D01*
X73565466Y-148405987D02*
X73489276Y-148405987D01*
X73489276Y-148405987D02*
X73413085Y-148367891D01*
X73413085Y-148367891D02*
X73374990Y-148329796D01*
X73374990Y-148329796D02*
X73336895Y-148253606D01*
X73336895Y-148253606D02*
X73336895Y-148063129D01*
X73336895Y-148063129D02*
X73374990Y-147948844D01*
X73336895Y-147720272D02*
X74136895Y-147453605D01*
X74136895Y-147453605D02*
X73336895Y-147186939D01*
X74136895Y-153567891D02*
X73336895Y-153567891D01*
X74136895Y-153186939D02*
X73336895Y-153186939D01*
X73336895Y-153186939D02*
X74136895Y-152729796D01*
X74136895Y-152729796D02*
X73336895Y-152729796D01*
X74136895Y-152348844D02*
X73336895Y-152348844D01*
X73336895Y-152348844D02*
X73336895Y-152044082D01*
X73336895Y-152044082D02*
X73374990Y-151967892D01*
X73374990Y-151967892D02*
X73413085Y-151929797D01*
X73413085Y-151929797D02*
X73489276Y-151891701D01*
X73489276Y-151891701D02*
X73603561Y-151891701D01*
X73603561Y-151891701D02*
X73679752Y-151929797D01*
X73679752Y-151929797D02*
X73717847Y-151967892D01*
X73717847Y-151967892D02*
X73755942Y-152044082D01*
X73755942Y-152044082D02*
X73755942Y-152348844D01*
X74136895Y-159167891D02*
X73336895Y-159167891D01*
X73717847Y-159167891D02*
X73717847Y-158710748D01*
X74136895Y-158710748D02*
X73336895Y-158710748D01*
X73717847Y-158329796D02*
X73717847Y-158063130D01*
X74136895Y-157948844D02*
X74136895Y-158329796D01*
X74136895Y-158329796D02*
X73336895Y-158329796D01*
X73336895Y-158329796D02*
X73336895Y-157948844D01*
X74136895Y-157605986D02*
X73336895Y-157605986D01*
X73336895Y-157605986D02*
X74136895Y-157148843D01*
X74136895Y-157148843D02*
X73336895Y-157148843D01*
X74136895Y-156767891D02*
X73336895Y-156767891D01*
X73336895Y-156767891D02*
X73336895Y-156577415D01*
X73336895Y-156577415D02*
X73374990Y-156463129D01*
X73374990Y-156463129D02*
X73451180Y-156386939D01*
X73451180Y-156386939D02*
X73527371Y-156348844D01*
X73527371Y-156348844D02*
X73679752Y-156310748D01*
X73679752Y-156310748D02*
X73794038Y-156310748D01*
X73794038Y-156310748D02*
X73946419Y-156348844D01*
X73946419Y-156348844D02*
X74022609Y-156386939D01*
X74022609Y-156386939D02*
X74098800Y-156463129D01*
X74098800Y-156463129D02*
X74136895Y-156577415D01*
X74136895Y-156577415D02*
X74136895Y-156767891D01*
X73908323Y-163805987D02*
X73908323Y-163425034D01*
X74136895Y-163882177D02*
X73336895Y-163615510D01*
X73336895Y-163615510D02*
X74136895Y-163348844D01*
X74136895Y-162701225D02*
X74136895Y-163082177D01*
X74136895Y-163082177D02*
X73336895Y-163082177D01*
X74136895Y-162434558D02*
X73336895Y-162434558D01*
X73336895Y-162434558D02*
X73908323Y-162167892D01*
X73908323Y-162167892D02*
X73336895Y-161901225D01*
X73336895Y-161901225D02*
X74136895Y-161901225D01*
X125683635Y-55499469D02*
X125721730Y-55423279D01*
X125721730Y-55423279D02*
X125721730Y-55308993D01*
X125721730Y-55308993D02*
X125683635Y-55194707D01*
X125683635Y-55194707D02*
X125607445Y-55118517D01*
X125607445Y-55118517D02*
X125531254Y-55080422D01*
X125531254Y-55080422D02*
X125378873Y-55042326D01*
X125378873Y-55042326D02*
X125264587Y-55042326D01*
X125264587Y-55042326D02*
X125112206Y-55080422D01*
X125112206Y-55080422D02*
X125036016Y-55118517D01*
X125036016Y-55118517D02*
X124959826Y-55194707D01*
X124959826Y-55194707D02*
X124921730Y-55308993D01*
X124921730Y-55308993D02*
X124921730Y-55385184D01*
X124921730Y-55385184D02*
X124959826Y-55499469D01*
X124959826Y-55499469D02*
X124997921Y-55537565D01*
X124997921Y-55537565D02*
X125264587Y-55537565D01*
X125264587Y-55537565D02*
X125264587Y-55385184D01*
X124921730Y-55880422D02*
X125721730Y-55880422D01*
X125721730Y-55880422D02*
X124921730Y-56337565D01*
X124921730Y-56337565D02*
X125721730Y-56337565D01*
X124921730Y-56718517D02*
X125721730Y-56718517D01*
X125721730Y-56718517D02*
X125721730Y-56908993D01*
X125721730Y-56908993D02*
X125683635Y-57023279D01*
X125683635Y-57023279D02*
X125607445Y-57099469D01*
X125607445Y-57099469D02*
X125531254Y-57137564D01*
X125531254Y-57137564D02*
X125378873Y-57175660D01*
X125378873Y-57175660D02*
X125264587Y-57175660D01*
X125264587Y-57175660D02*
X125112206Y-57137564D01*
X125112206Y-57137564D02*
X125036016Y-57099469D01*
X125036016Y-57099469D02*
X124959826Y-57023279D01*
X124959826Y-57023279D02*
X124921730Y-56908993D01*
X124921730Y-56908993D02*
X124921730Y-56718517D01*
X125150302Y-60742326D02*
X125150302Y-61123279D01*
X124921730Y-60666136D02*
X125721730Y-60932803D01*
X125721730Y-60932803D02*
X124921730Y-61199469D01*
X125340778Y-66147088D02*
X125302683Y-66261374D01*
X125302683Y-66261374D02*
X125264587Y-66299469D01*
X125264587Y-66299469D02*
X125188397Y-66337565D01*
X125188397Y-66337565D02*
X125074111Y-66337565D01*
X125074111Y-66337565D02*
X124997921Y-66299469D01*
X124997921Y-66299469D02*
X124959826Y-66261374D01*
X124959826Y-66261374D02*
X124921730Y-66185184D01*
X124921730Y-66185184D02*
X124921730Y-65880422D01*
X124921730Y-65880422D02*
X125721730Y-65880422D01*
X125721730Y-65880422D02*
X125721730Y-66147088D01*
X125721730Y-66147088D02*
X125683635Y-66223279D01*
X125683635Y-66223279D02*
X125645540Y-66261374D01*
X125645540Y-66261374D02*
X125569349Y-66299469D01*
X125569349Y-66299469D02*
X125493159Y-66299469D01*
X125493159Y-66299469D02*
X125416968Y-66261374D01*
X125416968Y-66261374D02*
X125378873Y-66223279D01*
X125378873Y-66223279D02*
X125340778Y-66147088D01*
X125340778Y-66147088D02*
X125340778Y-65880422D01*
X125721730Y-70604231D02*
X125721730Y-71137565D01*
X125721730Y-71137565D02*
X124921730Y-70604231D01*
X124921730Y-70604231D02*
X124921730Y-71137565D01*
X125683635Y-80399469D02*
X125721730Y-80323279D01*
X125721730Y-80323279D02*
X125721730Y-80208993D01*
X125721730Y-80208993D02*
X125683635Y-80094707D01*
X125683635Y-80094707D02*
X125607445Y-80018517D01*
X125607445Y-80018517D02*
X125531254Y-79980422D01*
X125531254Y-79980422D02*
X125378873Y-79942326D01*
X125378873Y-79942326D02*
X125264587Y-79942326D01*
X125264587Y-79942326D02*
X125112206Y-79980422D01*
X125112206Y-79980422D02*
X125036016Y-80018517D01*
X125036016Y-80018517D02*
X124959826Y-80094707D01*
X124959826Y-80094707D02*
X124921730Y-80208993D01*
X124921730Y-80208993D02*
X124921730Y-80285184D01*
X124921730Y-80285184D02*
X124959826Y-80399469D01*
X124959826Y-80399469D02*
X124997921Y-80437565D01*
X124997921Y-80437565D02*
X125264587Y-80437565D01*
X125264587Y-80437565D02*
X125264587Y-80285184D01*
X124921730Y-80780422D02*
X125721730Y-80780422D01*
X125721730Y-80780422D02*
X124921730Y-81237565D01*
X124921730Y-81237565D02*
X125721730Y-81237565D01*
X124921730Y-81618517D02*
X125721730Y-81618517D01*
X125721730Y-81618517D02*
X125721730Y-81808993D01*
X125721730Y-81808993D02*
X125683635Y-81923279D01*
X125683635Y-81923279D02*
X125607445Y-81999469D01*
X125607445Y-81999469D02*
X125531254Y-82037564D01*
X125531254Y-82037564D02*
X125378873Y-82075660D01*
X125378873Y-82075660D02*
X125264587Y-82075660D01*
X125264587Y-82075660D02*
X125112206Y-82037564D01*
X125112206Y-82037564D02*
X125036016Y-81999469D01*
X125036016Y-81999469D02*
X124959826Y-81923279D01*
X124959826Y-81923279D02*
X124921730Y-81808993D01*
X124921730Y-81808993D02*
X124921730Y-81618517D01*
X125226492Y-84580422D02*
X125226492Y-85189946D01*
X124921730Y-84885184D02*
X125531254Y-84885184D01*
X125645540Y-85532802D02*
X125683635Y-85570898D01*
X125683635Y-85570898D02*
X125721730Y-85647088D01*
X125721730Y-85647088D02*
X125721730Y-85837564D01*
X125721730Y-85837564D02*
X125683635Y-85913755D01*
X125683635Y-85913755D02*
X125645540Y-85951850D01*
X125645540Y-85951850D02*
X125569349Y-85989945D01*
X125569349Y-85989945D02*
X125493159Y-85989945D01*
X125493159Y-85989945D02*
X125378873Y-85951850D01*
X125378873Y-85951850D02*
X124921730Y-85494707D01*
X124921730Y-85494707D02*
X124921730Y-85989945D01*
X125455064Y-86675660D02*
X124921730Y-86675660D01*
X125759826Y-86485184D02*
X125188397Y-86294707D01*
X125188397Y-86294707D02*
X125188397Y-86789946D01*
X125721730Y-86980422D02*
X124921730Y-87247089D01*
X124921730Y-87247089D02*
X125721730Y-87513755D01*
X124921730Y-110180422D02*
X125721730Y-110180422D01*
X125721730Y-110180422D02*
X125721730Y-110485184D01*
X125721730Y-110485184D02*
X125683635Y-110561374D01*
X125683635Y-110561374D02*
X125645540Y-110599469D01*
X125645540Y-110599469D02*
X125569349Y-110637565D01*
X125569349Y-110637565D02*
X125455064Y-110637565D01*
X125455064Y-110637565D02*
X125378873Y-110599469D01*
X125378873Y-110599469D02*
X125340778Y-110561374D01*
X125340778Y-110561374D02*
X125302683Y-110485184D01*
X125302683Y-110485184D02*
X125302683Y-110180422D01*
X125721730Y-110980422D02*
X125074111Y-110980422D01*
X125074111Y-110980422D02*
X124997921Y-111018517D01*
X124997921Y-111018517D02*
X124959826Y-111056612D01*
X124959826Y-111056612D02*
X124921730Y-111132803D01*
X124921730Y-111132803D02*
X124921730Y-111285184D01*
X124921730Y-111285184D02*
X124959826Y-111361374D01*
X124959826Y-111361374D02*
X124997921Y-111399469D01*
X124997921Y-111399469D02*
X125074111Y-111437565D01*
X125074111Y-111437565D02*
X125721730Y-111437565D01*
X124921730Y-112199469D02*
X124921730Y-111818517D01*
X124921730Y-111818517D02*
X125721730Y-111818517D01*
X124959826Y-112428040D02*
X124921730Y-112542326D01*
X124921730Y-112542326D02*
X124921730Y-112732802D01*
X124921730Y-112732802D02*
X124959826Y-112808993D01*
X124959826Y-112808993D02*
X124997921Y-112847088D01*
X124997921Y-112847088D02*
X125074111Y-112885183D01*
X125074111Y-112885183D02*
X125150302Y-112885183D01*
X125150302Y-112885183D02*
X125226492Y-112847088D01*
X125226492Y-112847088D02*
X125264587Y-112808993D01*
X125264587Y-112808993D02*
X125302683Y-112732802D01*
X125302683Y-112732802D02*
X125340778Y-112580421D01*
X125340778Y-112580421D02*
X125378873Y-112504231D01*
X125378873Y-112504231D02*
X125416968Y-112466136D01*
X125416968Y-112466136D02*
X125493159Y-112428040D01*
X125493159Y-112428040D02*
X125569349Y-112428040D01*
X125569349Y-112428040D02*
X125645540Y-112466136D01*
X125645540Y-112466136D02*
X125683635Y-112504231D01*
X125683635Y-112504231D02*
X125721730Y-112580421D01*
X125721730Y-112580421D02*
X125721730Y-112770898D01*
X125721730Y-112770898D02*
X125683635Y-112885183D01*
X125340778Y-113228041D02*
X125340778Y-113494707D01*
X124921730Y-113608993D02*
X124921730Y-113228041D01*
X124921730Y-113228041D02*
X125721730Y-113228041D01*
X125721730Y-113228041D02*
X125721730Y-113608993D01*
X124959826Y-115942326D02*
X124921730Y-116056612D01*
X124921730Y-116056612D02*
X124921730Y-116247088D01*
X124921730Y-116247088D02*
X124959826Y-116323279D01*
X124959826Y-116323279D02*
X124997921Y-116361374D01*
X124997921Y-116361374D02*
X125074111Y-116399469D01*
X125074111Y-116399469D02*
X125150302Y-116399469D01*
X125150302Y-116399469D02*
X125226492Y-116361374D01*
X125226492Y-116361374D02*
X125264587Y-116323279D01*
X125264587Y-116323279D02*
X125302683Y-116247088D01*
X125302683Y-116247088D02*
X125340778Y-116094707D01*
X125340778Y-116094707D02*
X125378873Y-116018517D01*
X125378873Y-116018517D02*
X125416968Y-115980422D01*
X125416968Y-115980422D02*
X125493159Y-115942326D01*
X125493159Y-115942326D02*
X125569349Y-115942326D01*
X125569349Y-115942326D02*
X125645540Y-115980422D01*
X125645540Y-115980422D02*
X125683635Y-116018517D01*
X125683635Y-116018517D02*
X125721730Y-116094707D01*
X125721730Y-116094707D02*
X125721730Y-116285184D01*
X125721730Y-116285184D02*
X125683635Y-116399469D01*
X124921730Y-116742327D02*
X125721730Y-116742327D01*
X125683635Y-117542326D02*
X125721730Y-117466136D01*
X125721730Y-117466136D02*
X125721730Y-117351850D01*
X125721730Y-117351850D02*
X125683635Y-117237564D01*
X125683635Y-117237564D02*
X125607445Y-117161374D01*
X125607445Y-117161374D02*
X125531254Y-117123279D01*
X125531254Y-117123279D02*
X125378873Y-117085183D01*
X125378873Y-117085183D02*
X125264587Y-117085183D01*
X125264587Y-117085183D02*
X125112206Y-117123279D01*
X125112206Y-117123279D02*
X125036016Y-117161374D01*
X125036016Y-117161374D02*
X124959826Y-117237564D01*
X124959826Y-117237564D02*
X124921730Y-117351850D01*
X124921730Y-117351850D02*
X124921730Y-117428041D01*
X124921730Y-117428041D02*
X124959826Y-117542326D01*
X124959826Y-117542326D02*
X124997921Y-117580422D01*
X124997921Y-117580422D02*
X125264587Y-117580422D01*
X125264587Y-117580422D02*
X125264587Y-117428041D01*
X124921730Y-117923279D02*
X125721730Y-117923279D01*
X125721730Y-117923279D02*
X124921730Y-118380422D01*
X124921730Y-118380422D02*
X125721730Y-118380422D01*
X124997921Y-121237565D02*
X124959826Y-121199469D01*
X124959826Y-121199469D02*
X124921730Y-121085184D01*
X124921730Y-121085184D02*
X124921730Y-121008993D01*
X124921730Y-121008993D02*
X124959826Y-120894707D01*
X124959826Y-120894707D02*
X125036016Y-120818517D01*
X125036016Y-120818517D02*
X125112206Y-120780422D01*
X125112206Y-120780422D02*
X125264587Y-120742326D01*
X125264587Y-120742326D02*
X125378873Y-120742326D01*
X125378873Y-120742326D02*
X125531254Y-120780422D01*
X125531254Y-120780422D02*
X125607445Y-120818517D01*
X125607445Y-120818517D02*
X125683635Y-120894707D01*
X125683635Y-120894707D02*
X125721730Y-121008993D01*
X125721730Y-121008993D02*
X125721730Y-121085184D01*
X125721730Y-121085184D02*
X125683635Y-121199469D01*
X125683635Y-121199469D02*
X125645540Y-121237565D01*
X124959826Y-121542326D02*
X124921730Y-121656612D01*
X124921730Y-121656612D02*
X124921730Y-121847088D01*
X124921730Y-121847088D02*
X124959826Y-121923279D01*
X124959826Y-121923279D02*
X124997921Y-121961374D01*
X124997921Y-121961374D02*
X125074111Y-121999469D01*
X125074111Y-121999469D02*
X125150302Y-121999469D01*
X125150302Y-121999469D02*
X125226492Y-121961374D01*
X125226492Y-121961374D02*
X125264587Y-121923279D01*
X125264587Y-121923279D02*
X125302683Y-121847088D01*
X125302683Y-121847088D02*
X125340778Y-121694707D01*
X125340778Y-121694707D02*
X125378873Y-121618517D01*
X125378873Y-121618517D02*
X125416968Y-121580422D01*
X125416968Y-121580422D02*
X125493159Y-121542326D01*
X125493159Y-121542326D02*
X125569349Y-121542326D01*
X125569349Y-121542326D02*
X125645540Y-121580422D01*
X125645540Y-121580422D02*
X125683635Y-121618517D01*
X125683635Y-121618517D02*
X125721730Y-121694707D01*
X125721730Y-121694707D02*
X125721730Y-121885184D01*
X125721730Y-121885184D02*
X125683635Y-121999469D01*
X125721730Y-122228041D02*
X125721730Y-122685184D01*
X124921730Y-122456612D02*
X125721730Y-122456612D01*
X124921730Y-122951851D02*
X125721730Y-122951851D01*
X125721730Y-122951851D02*
X125721730Y-123256613D01*
X125721730Y-123256613D02*
X125683635Y-123332803D01*
X125683635Y-123332803D02*
X125645540Y-123370898D01*
X125645540Y-123370898D02*
X125569349Y-123408994D01*
X125569349Y-123408994D02*
X125455064Y-123408994D01*
X125455064Y-123408994D02*
X125378873Y-123370898D01*
X125378873Y-123370898D02*
X125340778Y-123332803D01*
X125340778Y-123332803D02*
X125302683Y-123256613D01*
X125302683Y-123256613D02*
X125302683Y-122951851D01*
X124921730Y-125780422D02*
X125721730Y-125780422D01*
X125340778Y-125780422D02*
X125340778Y-126237565D01*
X124921730Y-126237565D02*
X125721730Y-126237565D01*
X125721730Y-126770898D02*
X125721730Y-126923279D01*
X125721730Y-126923279D02*
X125683635Y-126999469D01*
X125683635Y-126999469D02*
X125607445Y-127075660D01*
X125607445Y-127075660D02*
X125455064Y-127113755D01*
X125455064Y-127113755D02*
X125188397Y-127113755D01*
X125188397Y-127113755D02*
X125036016Y-127075660D01*
X125036016Y-127075660D02*
X124959826Y-126999469D01*
X124959826Y-126999469D02*
X124921730Y-126923279D01*
X124921730Y-126923279D02*
X124921730Y-126770898D01*
X124921730Y-126770898D02*
X124959826Y-126694707D01*
X124959826Y-126694707D02*
X125036016Y-126618517D01*
X125036016Y-126618517D02*
X125188397Y-126580421D01*
X125188397Y-126580421D02*
X125455064Y-126580421D01*
X125455064Y-126580421D02*
X125607445Y-126618517D01*
X125607445Y-126618517D02*
X125683635Y-126694707D01*
X125683635Y-126694707D02*
X125721730Y-126770898D01*
X124921730Y-127456612D02*
X125721730Y-127456612D01*
X125721730Y-127456612D02*
X125150302Y-127723278D01*
X125150302Y-127723278D02*
X125721730Y-127989945D01*
X125721730Y-127989945D02*
X124921730Y-127989945D01*
X125340778Y-128370898D02*
X125340778Y-128637564D01*
X124921730Y-128751850D02*
X124921730Y-128370898D01*
X124921730Y-128370898D02*
X125721730Y-128370898D01*
X125721730Y-128370898D02*
X125721730Y-128751850D01*
X124921730Y-131737565D02*
X125302683Y-131470898D01*
X124921730Y-131280422D02*
X125721730Y-131280422D01*
X125721730Y-131280422D02*
X125721730Y-131585184D01*
X125721730Y-131585184D02*
X125683635Y-131661374D01*
X125683635Y-131661374D02*
X125645540Y-131699469D01*
X125645540Y-131699469D02*
X125569349Y-131737565D01*
X125569349Y-131737565D02*
X125455064Y-131737565D01*
X125455064Y-131737565D02*
X125378873Y-131699469D01*
X125378873Y-131699469D02*
X125340778Y-131661374D01*
X125340778Y-131661374D02*
X125302683Y-131585184D01*
X125302683Y-131585184D02*
X125302683Y-131280422D01*
X125340778Y-132080422D02*
X125340778Y-132347088D01*
X124921730Y-132461374D02*
X124921730Y-132080422D01*
X124921730Y-132080422D02*
X125721730Y-132080422D01*
X125721730Y-132080422D02*
X125721730Y-132461374D01*
X124959826Y-132766136D02*
X124921730Y-132880422D01*
X124921730Y-132880422D02*
X124921730Y-133070898D01*
X124921730Y-133070898D02*
X124959826Y-133147089D01*
X124959826Y-133147089D02*
X124997921Y-133185184D01*
X124997921Y-133185184D02*
X125074111Y-133223279D01*
X125074111Y-133223279D02*
X125150302Y-133223279D01*
X125150302Y-133223279D02*
X125226492Y-133185184D01*
X125226492Y-133185184D02*
X125264587Y-133147089D01*
X125264587Y-133147089D02*
X125302683Y-133070898D01*
X125302683Y-133070898D02*
X125340778Y-132918517D01*
X125340778Y-132918517D02*
X125378873Y-132842327D01*
X125378873Y-132842327D02*
X125416968Y-132804232D01*
X125416968Y-132804232D02*
X125493159Y-132766136D01*
X125493159Y-132766136D02*
X125569349Y-132766136D01*
X125569349Y-132766136D02*
X125645540Y-132804232D01*
X125645540Y-132804232D02*
X125683635Y-132842327D01*
X125683635Y-132842327D02*
X125721730Y-132918517D01*
X125721730Y-132918517D02*
X125721730Y-133108994D01*
X125721730Y-133108994D02*
X125683635Y-133223279D01*
X124959826Y-136342326D02*
X124921730Y-136456612D01*
X124921730Y-136456612D02*
X124921730Y-136647088D01*
X124921730Y-136647088D02*
X124959826Y-136723279D01*
X124959826Y-136723279D02*
X124997921Y-136761374D01*
X124997921Y-136761374D02*
X125074111Y-136799469D01*
X125074111Y-136799469D02*
X125150302Y-136799469D01*
X125150302Y-136799469D02*
X125226492Y-136761374D01*
X125226492Y-136761374D02*
X125264587Y-136723279D01*
X125264587Y-136723279D02*
X125302683Y-136647088D01*
X125302683Y-136647088D02*
X125340778Y-136494707D01*
X125340778Y-136494707D02*
X125378873Y-136418517D01*
X125378873Y-136418517D02*
X125416968Y-136380422D01*
X125416968Y-136380422D02*
X125493159Y-136342326D01*
X125493159Y-136342326D02*
X125569349Y-136342326D01*
X125569349Y-136342326D02*
X125645540Y-136380422D01*
X125645540Y-136380422D02*
X125683635Y-136418517D01*
X125683635Y-136418517D02*
X125721730Y-136494707D01*
X125721730Y-136494707D02*
X125721730Y-136685184D01*
X125721730Y-136685184D02*
X125683635Y-136799469D01*
X125721730Y-137294708D02*
X125721730Y-137447089D01*
X125721730Y-137447089D02*
X125683635Y-137523279D01*
X125683635Y-137523279D02*
X125607445Y-137599470D01*
X125607445Y-137599470D02*
X125455064Y-137637565D01*
X125455064Y-137637565D02*
X125188397Y-137637565D01*
X125188397Y-137637565D02*
X125036016Y-137599470D01*
X125036016Y-137599470D02*
X124959826Y-137523279D01*
X124959826Y-137523279D02*
X124921730Y-137447089D01*
X124921730Y-137447089D02*
X124921730Y-137294708D01*
X124921730Y-137294708D02*
X124959826Y-137218517D01*
X124959826Y-137218517D02*
X125036016Y-137142327D01*
X125036016Y-137142327D02*
X125188397Y-137104231D01*
X125188397Y-137104231D02*
X125455064Y-137104231D01*
X125455064Y-137104231D02*
X125607445Y-137142327D01*
X125607445Y-137142327D02*
X125683635Y-137218517D01*
X125683635Y-137218517D02*
X125721730Y-137294708D01*
X124921730Y-137980422D02*
X125721730Y-137980422D01*
X125721730Y-137980422D02*
X124921730Y-138437565D01*
X124921730Y-138437565D02*
X125721730Y-138437565D01*
X124959826Y-142142326D02*
X124921730Y-142256612D01*
X124921730Y-142256612D02*
X124921730Y-142447088D01*
X124921730Y-142447088D02*
X124959826Y-142523279D01*
X124959826Y-142523279D02*
X124997921Y-142561374D01*
X124997921Y-142561374D02*
X125074111Y-142599469D01*
X125074111Y-142599469D02*
X125150302Y-142599469D01*
X125150302Y-142599469D02*
X125226492Y-142561374D01*
X125226492Y-142561374D02*
X125264587Y-142523279D01*
X125264587Y-142523279D02*
X125302683Y-142447088D01*
X125302683Y-142447088D02*
X125340778Y-142294707D01*
X125340778Y-142294707D02*
X125378873Y-142218517D01*
X125378873Y-142218517D02*
X125416968Y-142180422D01*
X125416968Y-142180422D02*
X125493159Y-142142326D01*
X125493159Y-142142326D02*
X125569349Y-142142326D01*
X125569349Y-142142326D02*
X125645540Y-142180422D01*
X125645540Y-142180422D02*
X125683635Y-142218517D01*
X125683635Y-142218517D02*
X125721730Y-142294707D01*
X125721730Y-142294707D02*
X125721730Y-142485184D01*
X125721730Y-142485184D02*
X125683635Y-142599469D01*
X125721730Y-142828041D02*
X124921730Y-143094708D01*
X124921730Y-143094708D02*
X125721730Y-143361374D01*
X124921730Y-146680422D02*
X125721730Y-146680422D01*
X124921730Y-147061374D02*
X125721730Y-147061374D01*
X125721730Y-147061374D02*
X124921730Y-147518517D01*
X124921730Y-147518517D02*
X125721730Y-147518517D01*
X124921730Y-147899469D02*
X125721730Y-147899469D01*
X125721730Y-147899469D02*
X125721730Y-148204231D01*
X125721730Y-148204231D02*
X125683635Y-148280421D01*
X125683635Y-148280421D02*
X125645540Y-148318516D01*
X125645540Y-148318516D02*
X125569349Y-148356612D01*
X125569349Y-148356612D02*
X125455064Y-148356612D01*
X125455064Y-148356612D02*
X125378873Y-148318516D01*
X125378873Y-148318516D02*
X125340778Y-148280421D01*
X125340778Y-148280421D02*
X125302683Y-148204231D01*
X125302683Y-148204231D02*
X125302683Y-147899469D01*
X124921730Y-151380422D02*
X125721730Y-151380422D01*
X125340778Y-151380422D02*
X125340778Y-151837565D01*
X124921730Y-151837565D02*
X125721730Y-151837565D01*
X125340778Y-152218517D02*
X125340778Y-152485183D01*
X124921730Y-152599469D02*
X124921730Y-152218517D01*
X124921730Y-152218517D02*
X125721730Y-152218517D01*
X125721730Y-152218517D02*
X125721730Y-152599469D01*
X124921730Y-152942327D02*
X125721730Y-152942327D01*
X125721730Y-152942327D02*
X124921730Y-153399470D01*
X124921730Y-153399470D02*
X125721730Y-153399470D01*
X124921730Y-153780422D02*
X125721730Y-153780422D01*
X125721730Y-153780422D02*
X125721730Y-153970898D01*
X125721730Y-153970898D02*
X125683635Y-154085184D01*
X125683635Y-154085184D02*
X125607445Y-154161374D01*
X125607445Y-154161374D02*
X125531254Y-154199469D01*
X125531254Y-154199469D02*
X125378873Y-154237565D01*
X125378873Y-154237565D02*
X125264587Y-154237565D01*
X125264587Y-154237565D02*
X125112206Y-154199469D01*
X125112206Y-154199469D02*
X125036016Y-154161374D01*
X125036016Y-154161374D02*
X124959826Y-154085184D01*
X124959826Y-154085184D02*
X124921730Y-153970898D01*
X124921730Y-153970898D02*
X124921730Y-153780422D01*
X125150302Y-156742326D02*
X125150302Y-157123279D01*
X124921730Y-156666136D02*
X125721730Y-156932803D01*
X125721730Y-156932803D02*
X124921730Y-157199469D01*
X124921730Y-157847088D02*
X124921730Y-157466136D01*
X124921730Y-157466136D02*
X125721730Y-157466136D01*
X124921730Y-158113755D02*
X125721730Y-158113755D01*
X125721730Y-158113755D02*
X125150302Y-158380421D01*
X125150302Y-158380421D02*
X125721730Y-158647088D01*
X125721730Y-158647088D02*
X124921730Y-158647088D01*
X125683635Y-162299469D02*
X125721730Y-162223279D01*
X125721730Y-162223279D02*
X125721730Y-162108993D01*
X125721730Y-162108993D02*
X125683635Y-161994707D01*
X125683635Y-161994707D02*
X125607445Y-161918517D01*
X125607445Y-161918517D02*
X125531254Y-161880422D01*
X125531254Y-161880422D02*
X125378873Y-161842326D01*
X125378873Y-161842326D02*
X125264587Y-161842326D01*
X125264587Y-161842326D02*
X125112206Y-161880422D01*
X125112206Y-161880422D02*
X125036016Y-161918517D01*
X125036016Y-161918517D02*
X124959826Y-161994707D01*
X124959826Y-161994707D02*
X124921730Y-162108993D01*
X124921730Y-162108993D02*
X124921730Y-162185184D01*
X124921730Y-162185184D02*
X124959826Y-162299469D01*
X124959826Y-162299469D02*
X124997921Y-162337565D01*
X124997921Y-162337565D02*
X125264587Y-162337565D01*
X125264587Y-162337565D02*
X125264587Y-162185184D01*
X124921730Y-162680422D02*
X125721730Y-162680422D01*
X125721730Y-162680422D02*
X124921730Y-163137565D01*
X124921730Y-163137565D02*
X125721730Y-163137565D01*
X124921730Y-163518517D02*
X125721730Y-163518517D01*
X125721730Y-163518517D02*
X125721730Y-163708993D01*
X125721730Y-163708993D02*
X125683635Y-163823279D01*
X125683635Y-163823279D02*
X125607445Y-163899469D01*
X125607445Y-163899469D02*
X125531254Y-163937564D01*
X125531254Y-163937564D02*
X125378873Y-163975660D01*
X125378873Y-163975660D02*
X125264587Y-163975660D01*
X125264587Y-163975660D02*
X125112206Y-163937564D01*
X125112206Y-163937564D02*
X125036016Y-163899469D01*
X125036016Y-163899469D02*
X124959826Y-163823279D01*
X124959826Y-163823279D02*
X124921730Y-163708993D01*
X124921730Y-163708993D02*
X124921730Y-163518517D01*
D11*
X125370112Y-75914899D02*
X124989160Y-75914899D01*
X124989160Y-75914899D02*
X124951064Y-76295851D01*
X124951064Y-76295851D02*
X124989160Y-76257756D01*
X124989160Y-76257756D02*
X125065350Y-76219661D01*
X125065350Y-76219661D02*
X125255826Y-76219661D01*
X125255826Y-76219661D02*
X125332017Y-76257756D01*
X125332017Y-76257756D02*
X125370112Y-76295851D01*
X125370112Y-76295851D02*
X125408207Y-76372042D01*
X125408207Y-76372042D02*
X125408207Y-76562518D01*
X125408207Y-76562518D02*
X125370112Y-76638708D01*
X125370112Y-76638708D02*
X125332017Y-76676804D01*
X125332017Y-76676804D02*
X125255826Y-76714899D01*
X125255826Y-76714899D02*
X125065350Y-76714899D01*
X125065350Y-76714899D02*
X124989160Y-76676804D01*
X124989160Y-76676804D02*
X124951064Y-76638708D01*
X125636779Y-75914899D02*
X125903446Y-76714899D01*
X125903446Y-76714899D02*
X126170112Y-75914899D01*
X125051064Y-92891089D02*
X125089160Y-92852994D01*
X125089160Y-92852994D02*
X125165350Y-92814899D01*
X125165350Y-92814899D02*
X125355826Y-92814899D01*
X125355826Y-92814899D02*
X125432017Y-92852994D01*
X125432017Y-92852994D02*
X125470112Y-92891089D01*
X125470112Y-92891089D02*
X125508207Y-92967280D01*
X125508207Y-92967280D02*
X125508207Y-93043470D01*
X125508207Y-93043470D02*
X125470112Y-93157756D01*
X125470112Y-93157756D02*
X125012969Y-93614899D01*
X125012969Y-93614899D02*
X125508207Y-93614899D01*
X126193922Y-93081565D02*
X126193922Y-93614899D01*
X126003446Y-92776804D02*
X125812969Y-93348232D01*
X125812969Y-93348232D02*
X126308208Y-93348232D01*
X126498684Y-92814899D02*
X126765351Y-93614899D01*
X126765351Y-93614899D02*
X127032017Y-92814899D01*
D10*
X93254286Y-164886632D02*
X93254286Y-163886632D01*
X93682857Y-164839013D02*
X93825714Y-164886632D01*
X93825714Y-164886632D02*
X94063809Y-164886632D01*
X94063809Y-164886632D02*
X94159047Y-164839013D01*
X94159047Y-164839013D02*
X94206666Y-164791393D01*
X94206666Y-164791393D02*
X94254285Y-164696155D01*
X94254285Y-164696155D02*
X94254285Y-164600917D01*
X94254285Y-164600917D02*
X94206666Y-164505679D01*
X94206666Y-164505679D02*
X94159047Y-164458060D01*
X94159047Y-164458060D02*
X94063809Y-164410441D01*
X94063809Y-164410441D02*
X93873333Y-164362822D01*
X93873333Y-164362822D02*
X93778095Y-164315203D01*
X93778095Y-164315203D02*
X93730476Y-164267584D01*
X93730476Y-164267584D02*
X93682857Y-164172346D01*
X93682857Y-164172346D02*
X93682857Y-164077108D01*
X93682857Y-164077108D02*
X93730476Y-163981870D01*
X93730476Y-163981870D02*
X93778095Y-163934251D01*
X93778095Y-163934251D02*
X93873333Y-163886632D01*
X93873333Y-163886632D02*
X94111428Y-163886632D01*
X94111428Y-163886632D02*
X94254285Y-163934251D01*
X94682857Y-164886632D02*
X94682857Y-163886632D01*
X94682857Y-163886632D02*
X95016190Y-164600917D01*
X95016190Y-164600917D02*
X95349523Y-163886632D01*
X95349523Y-163886632D02*
X95349523Y-164886632D01*
X96587619Y-164505679D02*
X97349524Y-164505679D01*
X98778095Y-163886632D02*
X98873333Y-163886632D01*
X98873333Y-163886632D02*
X98968571Y-163934251D01*
X98968571Y-163934251D02*
X99016190Y-163981870D01*
X99016190Y-163981870D02*
X99063809Y-164077108D01*
X99063809Y-164077108D02*
X99111428Y-164267584D01*
X99111428Y-164267584D02*
X99111428Y-164505679D01*
X99111428Y-164505679D02*
X99063809Y-164696155D01*
X99063809Y-164696155D02*
X99016190Y-164791393D01*
X99016190Y-164791393D02*
X98968571Y-164839013D01*
X98968571Y-164839013D02*
X98873333Y-164886632D01*
X98873333Y-164886632D02*
X98778095Y-164886632D01*
X98778095Y-164886632D02*
X98682857Y-164839013D01*
X98682857Y-164839013D02*
X98635238Y-164791393D01*
X98635238Y-164791393D02*
X98587619Y-164696155D01*
X98587619Y-164696155D02*
X98540000Y-164505679D01*
X98540000Y-164505679D02*
X98540000Y-164267584D01*
X98540000Y-164267584D02*
X98587619Y-164077108D01*
X98587619Y-164077108D02*
X98635238Y-163981870D01*
X98635238Y-163981870D02*
X98682857Y-163934251D01*
X98682857Y-163934251D02*
X98778095Y-163886632D01*
X99968571Y-164219965D02*
X99968571Y-164886632D01*
X99730476Y-163839013D02*
X99492381Y-164553298D01*
X99492381Y-164553298D02*
X100111428Y-164553298D01*
X101206666Y-163839013D02*
X100349524Y-165124727D01*
X102063809Y-164886632D02*
X101492381Y-164886632D01*
X101778095Y-164886632D02*
X101778095Y-163886632D01*
X101778095Y-163886632D02*
X101682857Y-164029489D01*
X101682857Y-164029489D02*
X101587619Y-164124727D01*
X101587619Y-164124727D02*
X101492381Y-164172346D01*
X102682857Y-163886632D02*
X102778095Y-163886632D01*
X102778095Y-163886632D02*
X102873333Y-163934251D01*
X102873333Y-163934251D02*
X102920952Y-163981870D01*
X102920952Y-163981870D02*
X102968571Y-164077108D01*
X102968571Y-164077108D02*
X103016190Y-164267584D01*
X103016190Y-164267584D02*
X103016190Y-164505679D01*
X103016190Y-164505679D02*
X102968571Y-164696155D01*
X102968571Y-164696155D02*
X102920952Y-164791393D01*
X102920952Y-164791393D02*
X102873333Y-164839013D01*
X102873333Y-164839013D02*
X102778095Y-164886632D01*
X102778095Y-164886632D02*
X102682857Y-164886632D01*
X102682857Y-164886632D02*
X102587619Y-164839013D01*
X102587619Y-164839013D02*
X102540000Y-164791393D01*
X102540000Y-164791393D02*
X102492381Y-164696155D01*
X102492381Y-164696155D02*
X102444762Y-164505679D01*
X102444762Y-164505679D02*
X102444762Y-164267584D01*
X102444762Y-164267584D02*
X102492381Y-164077108D01*
X102492381Y-164077108D02*
X102540000Y-163981870D01*
X102540000Y-163981870D02*
X102587619Y-163934251D01*
X102587619Y-163934251D02*
X102682857Y-163886632D01*
X104159047Y-163839013D02*
X103301905Y-165124727D01*
X104444762Y-163981870D02*
X104492381Y-163934251D01*
X104492381Y-163934251D02*
X104587619Y-163886632D01*
X104587619Y-163886632D02*
X104825714Y-163886632D01*
X104825714Y-163886632D02*
X104920952Y-163934251D01*
X104920952Y-163934251D02*
X104968571Y-163981870D01*
X104968571Y-163981870D02*
X105016190Y-164077108D01*
X105016190Y-164077108D02*
X105016190Y-164172346D01*
X105016190Y-164172346D02*
X104968571Y-164315203D01*
X104968571Y-164315203D02*
X104397143Y-164886632D01*
X104397143Y-164886632D02*
X105016190Y-164886632D01*
X105635238Y-163886632D02*
X105730476Y-163886632D01*
X105730476Y-163886632D02*
X105825714Y-163934251D01*
X105825714Y-163934251D02*
X105873333Y-163981870D01*
X105873333Y-163981870D02*
X105920952Y-164077108D01*
X105920952Y-164077108D02*
X105968571Y-164267584D01*
X105968571Y-164267584D02*
X105968571Y-164505679D01*
X105968571Y-164505679D02*
X105920952Y-164696155D01*
X105920952Y-164696155D02*
X105873333Y-164791393D01*
X105873333Y-164791393D02*
X105825714Y-164839013D01*
X105825714Y-164839013D02*
X105730476Y-164886632D01*
X105730476Y-164886632D02*
X105635238Y-164886632D01*
X105635238Y-164886632D02*
X105540000Y-164839013D01*
X105540000Y-164839013D02*
X105492381Y-164791393D01*
X105492381Y-164791393D02*
X105444762Y-164696155D01*
X105444762Y-164696155D02*
X105397143Y-164505679D01*
X105397143Y-164505679D02*
X105397143Y-164267584D01*
X105397143Y-164267584D02*
X105444762Y-164077108D01*
X105444762Y-164077108D02*
X105492381Y-163981870D01*
X105492381Y-163981870D02*
X105540000Y-163934251D01*
X105540000Y-163934251D02*
X105635238Y-163886632D01*
X106349524Y-163981870D02*
X106397143Y-163934251D01*
X106397143Y-163934251D02*
X106492381Y-163886632D01*
X106492381Y-163886632D02*
X106730476Y-163886632D01*
X106730476Y-163886632D02*
X106825714Y-163934251D01*
X106825714Y-163934251D02*
X106873333Y-163981870D01*
X106873333Y-163981870D02*
X106920952Y-164077108D01*
X106920952Y-164077108D02*
X106920952Y-164172346D01*
X106920952Y-164172346D02*
X106873333Y-164315203D01*
X106873333Y-164315203D02*
X106301905Y-164886632D01*
X106301905Y-164886632D02*
X106920952Y-164886632D01*
X107778095Y-163886632D02*
X107587619Y-163886632D01*
X107587619Y-163886632D02*
X107492381Y-163934251D01*
X107492381Y-163934251D02*
X107444762Y-163981870D01*
X107444762Y-163981870D02*
X107349524Y-164124727D01*
X107349524Y-164124727D02*
X107301905Y-164315203D01*
X107301905Y-164315203D02*
X107301905Y-164696155D01*
X107301905Y-164696155D02*
X107349524Y-164791393D01*
X107349524Y-164791393D02*
X107397143Y-164839013D01*
X107397143Y-164839013D02*
X107492381Y-164886632D01*
X107492381Y-164886632D02*
X107682857Y-164886632D01*
X107682857Y-164886632D02*
X107778095Y-164839013D01*
X107778095Y-164839013D02*
X107825714Y-164791393D01*
X107825714Y-164791393D02*
X107873333Y-164696155D01*
X107873333Y-164696155D02*
X107873333Y-164458060D01*
X107873333Y-164458060D02*
X107825714Y-164362822D01*
X107825714Y-164362822D02*
X107778095Y-164315203D01*
X107778095Y-164315203D02*
X107682857Y-164267584D01*
X107682857Y-164267584D02*
X107492381Y-164267584D01*
X107492381Y-164267584D02*
X107397143Y-164315203D01*
X107397143Y-164315203D02*
X107349524Y-164362822D01*
X107349524Y-164362822D02*
X107301905Y-164458060D01*
X97468571Y-165972766D02*
X97135238Y-165972766D01*
X97135238Y-166496576D02*
X97135238Y-165496576D01*
X97135238Y-165496576D02*
X97611428Y-165496576D01*
X97992381Y-166401337D02*
X98040000Y-166448957D01*
X98040000Y-166448957D02*
X97992381Y-166496576D01*
X97992381Y-166496576D02*
X97944762Y-166448957D01*
X97944762Y-166448957D02*
X97992381Y-166401337D01*
X97992381Y-166401337D02*
X97992381Y-166496576D01*
X98801904Y-165972766D02*
X98944761Y-166020385D01*
X98944761Y-166020385D02*
X98992380Y-166068004D01*
X98992380Y-166068004D02*
X99039999Y-166163242D01*
X99039999Y-166163242D02*
X99039999Y-166306099D01*
X99039999Y-166306099D02*
X98992380Y-166401337D01*
X98992380Y-166401337D02*
X98944761Y-166448957D01*
X98944761Y-166448957D02*
X98849523Y-166496576D01*
X98849523Y-166496576D02*
X98468571Y-166496576D01*
X98468571Y-166496576D02*
X98468571Y-165496576D01*
X98468571Y-165496576D02*
X98801904Y-165496576D01*
X98801904Y-165496576D02*
X98897142Y-165544195D01*
X98897142Y-165544195D02*
X98944761Y-165591814D01*
X98944761Y-165591814D02*
X98992380Y-165687052D01*
X98992380Y-165687052D02*
X98992380Y-165782290D01*
X98992380Y-165782290D02*
X98944761Y-165877528D01*
X98944761Y-165877528D02*
X98897142Y-165925147D01*
X98897142Y-165925147D02*
X98801904Y-165972766D01*
X98801904Y-165972766D02*
X98468571Y-165972766D01*
X99468571Y-165496576D02*
X99468571Y-166306099D01*
X99468571Y-166306099D02*
X99516190Y-166401337D01*
X99516190Y-166401337D02*
X99563809Y-166448957D01*
X99563809Y-166448957D02*
X99659047Y-166496576D01*
X99659047Y-166496576D02*
X99849523Y-166496576D01*
X99849523Y-166496576D02*
X99944761Y-166448957D01*
X99944761Y-166448957D02*
X99992380Y-166401337D01*
X99992380Y-166401337D02*
X100039999Y-166306099D01*
X100039999Y-166306099D02*
X100039999Y-165496576D01*
X100992380Y-166496576D02*
X100516190Y-166496576D01*
X100516190Y-166496576D02*
X100516190Y-165496576D01*
X101516190Y-165496576D02*
X101706666Y-165496576D01*
X101706666Y-165496576D02*
X101801904Y-165544195D01*
X101801904Y-165544195D02*
X101897142Y-165639433D01*
X101897142Y-165639433D02*
X101944761Y-165829909D01*
X101944761Y-165829909D02*
X101944761Y-166163242D01*
X101944761Y-166163242D02*
X101897142Y-166353718D01*
X101897142Y-166353718D02*
X101801904Y-166448957D01*
X101801904Y-166448957D02*
X101706666Y-166496576D01*
X101706666Y-166496576D02*
X101516190Y-166496576D01*
X101516190Y-166496576D02*
X101420952Y-166448957D01*
X101420952Y-166448957D02*
X101325714Y-166353718D01*
X101325714Y-166353718D02*
X101278095Y-166163242D01*
X101278095Y-166163242D02*
X101278095Y-165829909D01*
X101278095Y-165829909D02*
X101325714Y-165639433D01*
X101325714Y-165639433D02*
X101420952Y-165544195D01*
X101420952Y-165544195D02*
X101516190Y-165496576D01*
X102373333Y-165496576D02*
X102373333Y-166306099D01*
X102373333Y-166306099D02*
X102420952Y-166401337D01*
X102420952Y-166401337D02*
X102468571Y-166448957D01*
X102468571Y-166448957D02*
X102563809Y-166496576D01*
X102563809Y-166496576D02*
X102754285Y-166496576D01*
X102754285Y-166496576D02*
X102849523Y-166448957D01*
X102849523Y-166448957D02*
X102897142Y-166401337D01*
X102897142Y-166401337D02*
X102944761Y-166306099D01*
X102944761Y-166306099D02*
X102944761Y-165496576D01*
X103420952Y-166496576D02*
X103420952Y-165496576D01*
X103420952Y-165496576D02*
X103801904Y-165496576D01*
X103801904Y-165496576D02*
X103897142Y-165544195D01*
X103897142Y-165544195D02*
X103944761Y-165591814D01*
X103944761Y-165591814D02*
X103992380Y-165687052D01*
X103992380Y-165687052D02*
X103992380Y-165829909D01*
X103992380Y-165829909D02*
X103944761Y-165925147D01*
X103944761Y-165925147D02*
X103897142Y-165972766D01*
X103897142Y-165972766D02*
X103801904Y-166020385D01*
X103801904Y-166020385D02*
X103420952Y-166020385D01*
X71500560Y-76277891D02*
X71548179Y-76135034D01*
X71548179Y-76135034D02*
X71548179Y-75896939D01*
X71548179Y-75896939D02*
X71500560Y-75801701D01*
X71500560Y-75801701D02*
X71452940Y-75754082D01*
X71452940Y-75754082D02*
X71357702Y-75706463D01*
X71357702Y-75706463D02*
X71262464Y-75706463D01*
X71262464Y-75706463D02*
X71167226Y-75754082D01*
X71167226Y-75754082D02*
X71119607Y-75801701D01*
X71119607Y-75801701D02*
X71071988Y-75896939D01*
X71071988Y-75896939D02*
X71024369Y-76087415D01*
X71024369Y-76087415D02*
X70976750Y-76182653D01*
X70976750Y-76182653D02*
X70929131Y-76230272D01*
X70929131Y-76230272D02*
X70833893Y-76277891D01*
X70833893Y-76277891D02*
X70738655Y-76277891D01*
X70738655Y-76277891D02*
X70643417Y-76230272D01*
X70643417Y-76230272D02*
X70595798Y-76182653D01*
X70595798Y-76182653D02*
X70548179Y-76087415D01*
X70548179Y-76087415D02*
X70548179Y-75849320D01*
X70548179Y-75849320D02*
X70595798Y-75706463D01*
X71452940Y-74706463D02*
X71500560Y-74754082D01*
X71500560Y-74754082D02*
X71548179Y-74896939D01*
X71548179Y-74896939D02*
X71548179Y-74992177D01*
X71548179Y-74992177D02*
X71500560Y-75135034D01*
X71500560Y-75135034D02*
X71405321Y-75230272D01*
X71405321Y-75230272D02*
X71310083Y-75277891D01*
X71310083Y-75277891D02*
X71119607Y-75325510D01*
X71119607Y-75325510D02*
X70976750Y-75325510D01*
X70976750Y-75325510D02*
X70786274Y-75277891D01*
X70786274Y-75277891D02*
X70691036Y-75230272D01*
X70691036Y-75230272D02*
X70595798Y-75135034D01*
X70595798Y-75135034D02*
X70548179Y-74992177D01*
X70548179Y-74992177D02*
X70548179Y-74896939D01*
X70548179Y-74896939D02*
X70595798Y-74754082D01*
X70595798Y-74754082D02*
X70643417Y-74706463D01*
X70548179Y-74087415D02*
X70548179Y-73896939D01*
X70548179Y-73896939D02*
X70595798Y-73801701D01*
X70595798Y-73801701D02*
X70691036Y-73706463D01*
X70691036Y-73706463D02*
X70881512Y-73658844D01*
X70881512Y-73658844D02*
X71214845Y-73658844D01*
X71214845Y-73658844D02*
X71405321Y-73706463D01*
X71405321Y-73706463D02*
X71500560Y-73801701D01*
X71500560Y-73801701D02*
X71548179Y-73896939D01*
X71548179Y-73896939D02*
X71548179Y-74087415D01*
X71548179Y-74087415D02*
X71500560Y-74182653D01*
X71500560Y-74182653D02*
X71405321Y-74277891D01*
X71405321Y-74277891D02*
X71214845Y-74325510D01*
X71214845Y-74325510D02*
X70881512Y-74325510D01*
X70881512Y-74325510D02*
X70691036Y-74277891D01*
X70691036Y-74277891D02*
X70595798Y-74182653D01*
X70595798Y-74182653D02*
X70548179Y-74087415D01*
X71548179Y-73230272D02*
X70548179Y-73230272D01*
X70548179Y-73230272D02*
X71548179Y-72658844D01*
X71548179Y-72658844D02*
X70548179Y-72658844D01*
X71024369Y-71087415D02*
X71024369Y-71420748D01*
X71548179Y-71420748D02*
X70548179Y-71420748D01*
X70548179Y-71420748D02*
X70548179Y-70944558D01*
X71024369Y-70563605D02*
X71024369Y-70230272D01*
X71548179Y-70087415D02*
X71548179Y-70563605D01*
X71548179Y-70563605D02*
X70548179Y-70563605D01*
X70548179Y-70563605D02*
X70548179Y-70087415D01*
X71024369Y-69658843D02*
X71024369Y-69325510D01*
X71548179Y-69182653D02*
X71548179Y-69658843D01*
X71548179Y-69658843D02*
X70548179Y-69658843D01*
X70548179Y-69658843D02*
X70548179Y-69182653D01*
X71548179Y-68754081D02*
X70548179Y-68754081D01*
X70548179Y-68754081D02*
X70548179Y-68515986D01*
X70548179Y-68515986D02*
X70595798Y-68373129D01*
X70595798Y-68373129D02*
X70691036Y-68277891D01*
X70691036Y-68277891D02*
X70786274Y-68230272D01*
X70786274Y-68230272D02*
X70976750Y-68182653D01*
X70976750Y-68182653D02*
X71119607Y-68182653D01*
X71119607Y-68182653D02*
X71310083Y-68230272D01*
X71310083Y-68230272D02*
X71405321Y-68277891D01*
X71405321Y-68277891D02*
X71500560Y-68373129D01*
X71500560Y-68373129D02*
X71548179Y-68515986D01*
X71548179Y-68515986D02*
X71548179Y-68754081D01*
X71024369Y-67420748D02*
X71071988Y-67277891D01*
X71071988Y-67277891D02*
X71119607Y-67230272D01*
X71119607Y-67230272D02*
X71214845Y-67182653D01*
X71214845Y-67182653D02*
X71357702Y-67182653D01*
X71357702Y-67182653D02*
X71452940Y-67230272D01*
X71452940Y-67230272D02*
X71500560Y-67277891D01*
X71500560Y-67277891D02*
X71548179Y-67373129D01*
X71548179Y-67373129D02*
X71548179Y-67754081D01*
X71548179Y-67754081D02*
X70548179Y-67754081D01*
X70548179Y-67754081D02*
X70548179Y-67420748D01*
X70548179Y-67420748D02*
X70595798Y-67325510D01*
X70595798Y-67325510D02*
X70643417Y-67277891D01*
X70643417Y-67277891D02*
X70738655Y-67230272D01*
X70738655Y-67230272D02*
X70833893Y-67230272D01*
X70833893Y-67230272D02*
X70929131Y-67277891D01*
X70929131Y-67277891D02*
X70976750Y-67325510D01*
X70976750Y-67325510D02*
X71024369Y-67420748D01*
X71024369Y-67420748D02*
X71024369Y-67754081D01*
X71262464Y-66801700D02*
X71262464Y-66325510D01*
X71548179Y-66896938D02*
X70548179Y-66563605D01*
X70548179Y-66563605D02*
X71548179Y-66230272D01*
X71452940Y-65325510D02*
X71500560Y-65373129D01*
X71500560Y-65373129D02*
X71548179Y-65515986D01*
X71548179Y-65515986D02*
X71548179Y-65611224D01*
X71548179Y-65611224D02*
X71500560Y-65754081D01*
X71500560Y-65754081D02*
X71405321Y-65849319D01*
X71405321Y-65849319D02*
X71310083Y-65896938D01*
X71310083Y-65896938D02*
X71119607Y-65944557D01*
X71119607Y-65944557D02*
X70976750Y-65944557D01*
X70976750Y-65944557D02*
X70786274Y-65896938D01*
X70786274Y-65896938D02*
X70691036Y-65849319D01*
X70691036Y-65849319D02*
X70595798Y-65754081D01*
X70595798Y-65754081D02*
X70548179Y-65611224D01*
X70548179Y-65611224D02*
X70548179Y-65515986D01*
X70548179Y-65515986D02*
X70595798Y-65373129D01*
X70595798Y-65373129D02*
X70643417Y-65325510D01*
X71548179Y-64896938D02*
X70548179Y-64896938D01*
X71548179Y-64325510D02*
X70976750Y-64754081D01*
X70548179Y-64325510D02*
X71119607Y-64896938D01*
X71500560Y-105777891D02*
X71548179Y-105635034D01*
X71548179Y-105635034D02*
X71548179Y-105396939D01*
X71548179Y-105396939D02*
X71500560Y-105301701D01*
X71500560Y-105301701D02*
X71452940Y-105254082D01*
X71452940Y-105254082D02*
X71357702Y-105206463D01*
X71357702Y-105206463D02*
X71262464Y-105206463D01*
X71262464Y-105206463D02*
X71167226Y-105254082D01*
X71167226Y-105254082D02*
X71119607Y-105301701D01*
X71119607Y-105301701D02*
X71071988Y-105396939D01*
X71071988Y-105396939D02*
X71024369Y-105587415D01*
X71024369Y-105587415D02*
X70976750Y-105682653D01*
X70976750Y-105682653D02*
X70929131Y-105730272D01*
X70929131Y-105730272D02*
X70833893Y-105777891D01*
X70833893Y-105777891D02*
X70738655Y-105777891D01*
X70738655Y-105777891D02*
X70643417Y-105730272D01*
X70643417Y-105730272D02*
X70595798Y-105682653D01*
X70595798Y-105682653D02*
X70548179Y-105587415D01*
X70548179Y-105587415D02*
X70548179Y-105349320D01*
X70548179Y-105349320D02*
X70595798Y-105206463D01*
X71452940Y-104206463D02*
X71500560Y-104254082D01*
X71500560Y-104254082D02*
X71548179Y-104396939D01*
X71548179Y-104396939D02*
X71548179Y-104492177D01*
X71548179Y-104492177D02*
X71500560Y-104635034D01*
X71500560Y-104635034D02*
X71405321Y-104730272D01*
X71405321Y-104730272D02*
X71310083Y-104777891D01*
X71310083Y-104777891D02*
X71119607Y-104825510D01*
X71119607Y-104825510D02*
X70976750Y-104825510D01*
X70976750Y-104825510D02*
X70786274Y-104777891D01*
X70786274Y-104777891D02*
X70691036Y-104730272D01*
X70691036Y-104730272D02*
X70595798Y-104635034D01*
X70595798Y-104635034D02*
X70548179Y-104492177D01*
X70548179Y-104492177D02*
X70548179Y-104396939D01*
X70548179Y-104396939D02*
X70595798Y-104254082D01*
X70595798Y-104254082D02*
X70643417Y-104206463D01*
X70548179Y-103587415D02*
X70548179Y-103396939D01*
X70548179Y-103396939D02*
X70595798Y-103301701D01*
X70595798Y-103301701D02*
X70691036Y-103206463D01*
X70691036Y-103206463D02*
X70881512Y-103158844D01*
X70881512Y-103158844D02*
X71214845Y-103158844D01*
X71214845Y-103158844D02*
X71405321Y-103206463D01*
X71405321Y-103206463D02*
X71500560Y-103301701D01*
X71500560Y-103301701D02*
X71548179Y-103396939D01*
X71548179Y-103396939D02*
X71548179Y-103587415D01*
X71548179Y-103587415D02*
X71500560Y-103682653D01*
X71500560Y-103682653D02*
X71405321Y-103777891D01*
X71405321Y-103777891D02*
X71214845Y-103825510D01*
X71214845Y-103825510D02*
X70881512Y-103825510D01*
X70881512Y-103825510D02*
X70691036Y-103777891D01*
X70691036Y-103777891D02*
X70595798Y-103682653D01*
X70595798Y-103682653D02*
X70548179Y-103587415D01*
X71548179Y-102730272D02*
X70548179Y-102730272D01*
X70548179Y-102730272D02*
X71548179Y-102158844D01*
X71548179Y-102158844D02*
X70548179Y-102158844D01*
X71548179Y-100920748D02*
X70548179Y-100920748D01*
X70548179Y-100920748D02*
X70548179Y-100539796D01*
X70548179Y-100539796D02*
X70595798Y-100444558D01*
X70595798Y-100444558D02*
X70643417Y-100396939D01*
X70643417Y-100396939D02*
X70738655Y-100349320D01*
X70738655Y-100349320D02*
X70881512Y-100349320D01*
X70881512Y-100349320D02*
X70976750Y-100396939D01*
X70976750Y-100396939D02*
X71024369Y-100444558D01*
X71024369Y-100444558D02*
X71071988Y-100539796D01*
X71071988Y-100539796D02*
X71071988Y-100920748D01*
X70548179Y-99920748D02*
X71357702Y-99920748D01*
X71357702Y-99920748D02*
X71452940Y-99873129D01*
X71452940Y-99873129D02*
X71500560Y-99825510D01*
X71500560Y-99825510D02*
X71548179Y-99730272D01*
X71548179Y-99730272D02*
X71548179Y-99539796D01*
X71548179Y-99539796D02*
X71500560Y-99444558D01*
X71500560Y-99444558D02*
X71452940Y-99396939D01*
X71452940Y-99396939D02*
X71357702Y-99349320D01*
X71357702Y-99349320D02*
X70548179Y-99349320D01*
X71548179Y-98396939D02*
X71548179Y-98873129D01*
X71548179Y-98873129D02*
X70548179Y-98873129D01*
X71500560Y-98111224D02*
X71548179Y-97968367D01*
X71548179Y-97968367D02*
X71548179Y-97730272D01*
X71548179Y-97730272D02*
X71500560Y-97635034D01*
X71500560Y-97635034D02*
X71452940Y-97587415D01*
X71452940Y-97587415D02*
X71357702Y-97539796D01*
X71357702Y-97539796D02*
X71262464Y-97539796D01*
X71262464Y-97539796D02*
X71167226Y-97587415D01*
X71167226Y-97587415D02*
X71119607Y-97635034D01*
X71119607Y-97635034D02*
X71071988Y-97730272D01*
X71071988Y-97730272D02*
X71024369Y-97920748D01*
X71024369Y-97920748D02*
X70976750Y-98015986D01*
X70976750Y-98015986D02*
X70929131Y-98063605D01*
X70929131Y-98063605D02*
X70833893Y-98111224D01*
X70833893Y-98111224D02*
X70738655Y-98111224D01*
X70738655Y-98111224D02*
X70643417Y-98063605D01*
X70643417Y-98063605D02*
X70595798Y-98015986D01*
X70595798Y-98015986D02*
X70548179Y-97920748D01*
X70548179Y-97920748D02*
X70548179Y-97682653D01*
X70548179Y-97682653D02*
X70595798Y-97539796D01*
X71024369Y-97111224D02*
X71024369Y-96777891D01*
X71548179Y-96635034D02*
X71548179Y-97111224D01*
X71548179Y-97111224D02*
X70548179Y-97111224D01*
X70548179Y-97111224D02*
X70548179Y-96635034D01*
X71500560Y-142477891D02*
X71548179Y-142335034D01*
X71548179Y-142335034D02*
X71548179Y-142096939D01*
X71548179Y-142096939D02*
X71500560Y-142001701D01*
X71500560Y-142001701D02*
X71452940Y-141954082D01*
X71452940Y-141954082D02*
X71357702Y-141906463D01*
X71357702Y-141906463D02*
X71262464Y-141906463D01*
X71262464Y-141906463D02*
X71167226Y-141954082D01*
X71167226Y-141954082D02*
X71119607Y-142001701D01*
X71119607Y-142001701D02*
X71071988Y-142096939D01*
X71071988Y-142096939D02*
X71024369Y-142287415D01*
X71024369Y-142287415D02*
X70976750Y-142382653D01*
X70976750Y-142382653D02*
X70929131Y-142430272D01*
X70929131Y-142430272D02*
X70833893Y-142477891D01*
X70833893Y-142477891D02*
X70738655Y-142477891D01*
X70738655Y-142477891D02*
X70643417Y-142430272D01*
X70643417Y-142430272D02*
X70595798Y-142382653D01*
X70595798Y-142382653D02*
X70548179Y-142287415D01*
X70548179Y-142287415D02*
X70548179Y-142049320D01*
X70548179Y-142049320D02*
X70595798Y-141906463D01*
X71452940Y-140906463D02*
X71500560Y-140954082D01*
X71500560Y-140954082D02*
X71548179Y-141096939D01*
X71548179Y-141096939D02*
X71548179Y-141192177D01*
X71548179Y-141192177D02*
X71500560Y-141335034D01*
X71500560Y-141335034D02*
X71405321Y-141430272D01*
X71405321Y-141430272D02*
X71310083Y-141477891D01*
X71310083Y-141477891D02*
X71119607Y-141525510D01*
X71119607Y-141525510D02*
X70976750Y-141525510D01*
X70976750Y-141525510D02*
X70786274Y-141477891D01*
X70786274Y-141477891D02*
X70691036Y-141430272D01*
X70691036Y-141430272D02*
X70595798Y-141335034D01*
X70595798Y-141335034D02*
X70548179Y-141192177D01*
X70548179Y-141192177D02*
X70548179Y-141096939D01*
X70548179Y-141096939D02*
X70595798Y-140954082D01*
X70595798Y-140954082D02*
X70643417Y-140906463D01*
X70548179Y-140287415D02*
X70548179Y-140096939D01*
X70548179Y-140096939D02*
X70595798Y-140001701D01*
X70595798Y-140001701D02*
X70691036Y-139906463D01*
X70691036Y-139906463D02*
X70881512Y-139858844D01*
X70881512Y-139858844D02*
X71214845Y-139858844D01*
X71214845Y-139858844D02*
X71405321Y-139906463D01*
X71405321Y-139906463D02*
X71500560Y-140001701D01*
X71500560Y-140001701D02*
X71548179Y-140096939D01*
X71548179Y-140096939D02*
X71548179Y-140287415D01*
X71548179Y-140287415D02*
X71500560Y-140382653D01*
X71500560Y-140382653D02*
X71405321Y-140477891D01*
X71405321Y-140477891D02*
X71214845Y-140525510D01*
X71214845Y-140525510D02*
X70881512Y-140525510D01*
X70881512Y-140525510D02*
X70691036Y-140477891D01*
X70691036Y-140477891D02*
X70595798Y-140382653D01*
X70595798Y-140382653D02*
X70548179Y-140287415D01*
X71548179Y-139430272D02*
X70548179Y-139430272D01*
X70548179Y-139430272D02*
X71548179Y-138858844D01*
X71548179Y-138858844D02*
X70548179Y-138858844D01*
X71548179Y-137620748D02*
X70548179Y-137620748D01*
X70548179Y-137620748D02*
X70548179Y-137239796D01*
X70548179Y-137239796D02*
X70595798Y-137144558D01*
X70595798Y-137144558D02*
X70643417Y-137096939D01*
X70643417Y-137096939D02*
X70738655Y-137049320D01*
X70738655Y-137049320D02*
X70881512Y-137049320D01*
X70881512Y-137049320D02*
X70976750Y-137096939D01*
X70976750Y-137096939D02*
X71024369Y-137144558D01*
X71024369Y-137144558D02*
X71071988Y-137239796D01*
X71071988Y-137239796D02*
X71071988Y-137620748D01*
X71548179Y-136620748D02*
X70548179Y-136620748D01*
X70548179Y-135954082D02*
X70548179Y-135763606D01*
X70548179Y-135763606D02*
X70595798Y-135668368D01*
X70595798Y-135668368D02*
X70691036Y-135573130D01*
X70691036Y-135573130D02*
X70881512Y-135525511D01*
X70881512Y-135525511D02*
X71214845Y-135525511D01*
X71214845Y-135525511D02*
X71405321Y-135573130D01*
X71405321Y-135573130D02*
X71500560Y-135668368D01*
X71500560Y-135668368D02*
X71548179Y-135763606D01*
X71548179Y-135763606D02*
X71548179Y-135954082D01*
X71548179Y-135954082D02*
X71500560Y-136049320D01*
X71500560Y-136049320D02*
X71405321Y-136144558D01*
X71405321Y-136144558D02*
X71214845Y-136192177D01*
X71214845Y-136192177D02*
X70881512Y-136192177D01*
X70881512Y-136192177D02*
X70691036Y-136144558D01*
X70691036Y-136144558D02*
X70595798Y-136049320D01*
X70595798Y-136049320D02*
X70548179Y-135954082D01*
X127329055Y-58320422D02*
X127329055Y-58796612D01*
X127043340Y-58225184D02*
X128043340Y-58558517D01*
X128043340Y-58558517D02*
X127043340Y-58891850D01*
X127043340Y-59225184D02*
X128043340Y-59225184D01*
X128043340Y-59225184D02*
X128043340Y-59463279D01*
X128043340Y-59463279D02*
X127995721Y-59606136D01*
X127995721Y-59606136D02*
X127900483Y-59701374D01*
X127900483Y-59701374D02*
X127805245Y-59748993D01*
X127805245Y-59748993D02*
X127614769Y-59796612D01*
X127614769Y-59796612D02*
X127471912Y-59796612D01*
X127471912Y-59796612D02*
X127281436Y-59748993D01*
X127281436Y-59748993D02*
X127186198Y-59701374D01*
X127186198Y-59701374D02*
X127090960Y-59606136D01*
X127090960Y-59606136D02*
X127043340Y-59463279D01*
X127043340Y-59463279D02*
X127043340Y-59225184D01*
X128043340Y-60129946D02*
X127043340Y-60368041D01*
X127043340Y-60368041D02*
X127757626Y-60558517D01*
X127757626Y-60558517D02*
X127043340Y-60748993D01*
X127043340Y-60748993D02*
X128043340Y-60987089D01*
X127043340Y-61368041D02*
X127710007Y-61368041D01*
X128043340Y-61368041D02*
X127995721Y-61320422D01*
X127995721Y-61320422D02*
X127948102Y-61368041D01*
X127948102Y-61368041D02*
X127995721Y-61415660D01*
X127995721Y-61415660D02*
X128043340Y-61368041D01*
X128043340Y-61368041D02*
X127948102Y-61368041D01*
X127710007Y-61844231D02*
X127043340Y-61844231D01*
X127614769Y-61844231D02*
X127662388Y-61891850D01*
X127662388Y-61891850D02*
X127710007Y-61987088D01*
X127710007Y-61987088D02*
X127710007Y-62129945D01*
X127710007Y-62129945D02*
X127662388Y-62225183D01*
X127662388Y-62225183D02*
X127567150Y-62272802D01*
X127567150Y-62272802D02*
X127043340Y-62272802D01*
X127138579Y-64082326D02*
X127090960Y-64034707D01*
X127090960Y-64034707D02*
X127043340Y-63891850D01*
X127043340Y-63891850D02*
X127043340Y-63796612D01*
X127043340Y-63796612D02*
X127090960Y-63653755D01*
X127090960Y-63653755D02*
X127186198Y-63558517D01*
X127186198Y-63558517D02*
X127281436Y-63510898D01*
X127281436Y-63510898D02*
X127471912Y-63463279D01*
X127471912Y-63463279D02*
X127614769Y-63463279D01*
X127614769Y-63463279D02*
X127805245Y-63510898D01*
X127805245Y-63510898D02*
X127900483Y-63558517D01*
X127900483Y-63558517D02*
X127995721Y-63653755D01*
X127995721Y-63653755D02*
X128043340Y-63796612D01*
X128043340Y-63796612D02*
X128043340Y-63891850D01*
X128043340Y-63891850D02*
X127995721Y-64034707D01*
X127995721Y-64034707D02*
X127948102Y-64082326D01*
X128043340Y-64701374D02*
X128043340Y-64891850D01*
X128043340Y-64891850D02*
X127995721Y-64987088D01*
X127995721Y-64987088D02*
X127900483Y-65082326D01*
X127900483Y-65082326D02*
X127710007Y-65129945D01*
X127710007Y-65129945D02*
X127376674Y-65129945D01*
X127376674Y-65129945D02*
X127186198Y-65082326D01*
X127186198Y-65082326D02*
X127090960Y-64987088D01*
X127090960Y-64987088D02*
X127043340Y-64891850D01*
X127043340Y-64891850D02*
X127043340Y-64701374D01*
X127043340Y-64701374D02*
X127090960Y-64606136D01*
X127090960Y-64606136D02*
X127186198Y-64510898D01*
X127186198Y-64510898D02*
X127376674Y-64463279D01*
X127376674Y-64463279D02*
X127710007Y-64463279D01*
X127710007Y-64463279D02*
X127900483Y-64510898D01*
X127900483Y-64510898D02*
X127995721Y-64606136D01*
X127995721Y-64606136D02*
X128043340Y-64701374D01*
X127710007Y-65987088D02*
X127043340Y-65987088D01*
X128090960Y-65748993D02*
X127376674Y-65510898D01*
X127376674Y-65510898D02*
X127376674Y-66129945D01*
X127424293Y-66510898D02*
X127424293Y-67272803D01*
X128043340Y-67606136D02*
X128043340Y-68177564D01*
X127043340Y-67891850D02*
X128043340Y-67891850D01*
X127329055Y-80220422D02*
X127329055Y-80696612D01*
X127043340Y-80125184D02*
X128043340Y-80458517D01*
X128043340Y-80458517D02*
X127043340Y-80791850D01*
X127043340Y-81601374D02*
X127043340Y-81125184D01*
X127043340Y-81125184D02*
X128043340Y-81125184D01*
X127043340Y-81934708D02*
X128043340Y-81934708D01*
X127043340Y-82410898D02*
X128043340Y-82410898D01*
X128043340Y-82410898D02*
X127329055Y-82744231D01*
X127329055Y-82744231D02*
X128043340Y-83077564D01*
X128043340Y-83077564D02*
X127043340Y-83077564D01*
X127424293Y-83553755D02*
X127424293Y-84315660D01*
X127043340Y-83934707D02*
X127805245Y-83934707D01*
X127948102Y-84744231D02*
X127995721Y-84791850D01*
X127995721Y-84791850D02*
X128043340Y-84887088D01*
X128043340Y-84887088D02*
X128043340Y-85125183D01*
X128043340Y-85125183D02*
X127995721Y-85220421D01*
X127995721Y-85220421D02*
X127948102Y-85268040D01*
X127948102Y-85268040D02*
X127852864Y-85315659D01*
X127852864Y-85315659D02*
X127757626Y-85315659D01*
X127757626Y-85315659D02*
X127614769Y-85268040D01*
X127614769Y-85268040D02*
X127043340Y-84696612D01*
X127043340Y-84696612D02*
X127043340Y-85315659D01*
X127710007Y-86172802D02*
X127043340Y-86172802D01*
X128090960Y-85934707D02*
X127376674Y-85696612D01*
X127376674Y-85696612D02*
X127376674Y-86315659D01*
X128043340Y-86553755D02*
X127043340Y-86887088D01*
X127043340Y-86887088D02*
X128043340Y-87220421D01*
X127329055Y-131820422D02*
X127329055Y-132296612D01*
X127043340Y-131725184D02*
X128043340Y-132058517D01*
X128043340Y-132058517D02*
X127043340Y-132391850D01*
X127043340Y-132725184D02*
X128043340Y-132725184D01*
X128043340Y-132725184D02*
X128043340Y-132963279D01*
X128043340Y-132963279D02*
X127995721Y-133106136D01*
X127995721Y-133106136D02*
X127900483Y-133201374D01*
X127900483Y-133201374D02*
X127805245Y-133248993D01*
X127805245Y-133248993D02*
X127614769Y-133296612D01*
X127614769Y-133296612D02*
X127471912Y-133296612D01*
X127471912Y-133296612D02*
X127281436Y-133248993D01*
X127281436Y-133248993D02*
X127186198Y-133201374D01*
X127186198Y-133201374D02*
X127090960Y-133106136D01*
X127090960Y-133106136D02*
X127043340Y-132963279D01*
X127043340Y-132963279D02*
X127043340Y-132725184D01*
X128043340Y-133629946D02*
X127043340Y-133868041D01*
X127043340Y-133868041D02*
X127757626Y-134058517D01*
X127757626Y-134058517D02*
X127043340Y-134248993D01*
X127043340Y-134248993D02*
X128043340Y-134487089D01*
X127043340Y-134868041D02*
X127710007Y-134868041D01*
X128043340Y-134868041D02*
X127995721Y-134820422D01*
X127995721Y-134820422D02*
X127948102Y-134868041D01*
X127948102Y-134868041D02*
X127995721Y-134915660D01*
X127995721Y-134915660D02*
X128043340Y-134868041D01*
X128043340Y-134868041D02*
X127948102Y-134868041D01*
X127710007Y-135344231D02*
X127043340Y-135344231D01*
X127614769Y-135344231D02*
X127662388Y-135391850D01*
X127662388Y-135391850D02*
X127710007Y-135487088D01*
X127710007Y-135487088D02*
X127710007Y-135629945D01*
X127710007Y-135629945D02*
X127662388Y-135725183D01*
X127662388Y-135725183D02*
X127567150Y-135772802D01*
X127567150Y-135772802D02*
X127043340Y-135772802D01*
X127424293Y-137010898D02*
X127424293Y-137772803D01*
X127043340Y-139010898D02*
X128043340Y-139010898D01*
X128043340Y-139010898D02*
X128043340Y-139248993D01*
X128043340Y-139248993D02*
X127995721Y-139391850D01*
X127995721Y-139391850D02*
X127900483Y-139487088D01*
X127900483Y-139487088D02*
X127805245Y-139534707D01*
X127805245Y-139534707D02*
X127614769Y-139582326D01*
X127614769Y-139582326D02*
X127471912Y-139582326D01*
X127471912Y-139582326D02*
X127281436Y-139534707D01*
X127281436Y-139534707D02*
X127186198Y-139487088D01*
X127186198Y-139487088D02*
X127090960Y-139391850D01*
X127090960Y-139391850D02*
X127043340Y-139248993D01*
X127043340Y-139248993D02*
X127043340Y-139010898D01*
X127043340Y-140010898D02*
X128043340Y-140010898D01*
X128043340Y-140677564D02*
X128043340Y-140868040D01*
X128043340Y-140868040D02*
X127995721Y-140963278D01*
X127995721Y-140963278D02*
X127900483Y-141058516D01*
X127900483Y-141058516D02*
X127710007Y-141106135D01*
X127710007Y-141106135D02*
X127376674Y-141106135D01*
X127376674Y-141106135D02*
X127186198Y-141058516D01*
X127186198Y-141058516D02*
X127090960Y-140963278D01*
X127090960Y-140963278D02*
X127043340Y-140868040D01*
X127043340Y-140868040D02*
X127043340Y-140677564D01*
X127043340Y-140677564D02*
X127090960Y-140582326D01*
X127090960Y-140582326D02*
X127186198Y-140487088D01*
X127186198Y-140487088D02*
X127376674Y-140439469D01*
X127376674Y-140439469D02*
X127710007Y-140439469D01*
X127710007Y-140439469D02*
X127900483Y-140487088D01*
X127900483Y-140487088D02*
X127995721Y-140582326D01*
X127995721Y-140582326D02*
X128043340Y-140677564D01*
X128043340Y-141439469D02*
X128043340Y-142058516D01*
X128043340Y-142058516D02*
X127662388Y-141725183D01*
X127662388Y-141725183D02*
X127662388Y-141868040D01*
X127662388Y-141868040D02*
X127614769Y-141963278D01*
X127614769Y-141963278D02*
X127567150Y-142010897D01*
X127567150Y-142010897D02*
X127471912Y-142058516D01*
X127471912Y-142058516D02*
X127233817Y-142058516D01*
X127233817Y-142058516D02*
X127138579Y-142010897D01*
X127138579Y-142010897D02*
X127090960Y-141963278D01*
X127090960Y-141963278D02*
X127043340Y-141868040D01*
X127043340Y-141868040D02*
X127043340Y-141582326D01*
X127043340Y-141582326D02*
X127090960Y-141487088D01*
X127090960Y-141487088D02*
X127138579Y-141439469D01*
X127948102Y-142439469D02*
X127995721Y-142487088D01*
X127995721Y-142487088D02*
X128043340Y-142582326D01*
X128043340Y-142582326D02*
X128043340Y-142820421D01*
X128043340Y-142820421D02*
X127995721Y-142915659D01*
X127995721Y-142915659D02*
X127948102Y-142963278D01*
X127948102Y-142963278D02*
X127852864Y-143010897D01*
X127852864Y-143010897D02*
X127757626Y-143010897D01*
X127757626Y-143010897D02*
X127614769Y-142963278D01*
X127614769Y-142963278D02*
X127043340Y-142391850D01*
X127043340Y-142391850D02*
X127043340Y-143010897D01*
D11*
X118675292Y-51118976D02*
X118675292Y-51833261D01*
X118675292Y-51833261D02*
X118627673Y-51976118D01*
X118627673Y-51976118D02*
X118532435Y-52071357D01*
X118532435Y-52071357D02*
X118389578Y-52118976D01*
X118389578Y-52118976D02*
X118294340Y-52118976D01*
X119580054Y-51118976D02*
X119389578Y-51118976D01*
X119389578Y-51118976D02*
X119294340Y-51166595D01*
X119294340Y-51166595D02*
X119246721Y-51214214D01*
X119246721Y-51214214D02*
X119151483Y-51357071D01*
X119151483Y-51357071D02*
X119103864Y-51547547D01*
X119103864Y-51547547D02*
X119103864Y-51928499D01*
X119103864Y-51928499D02*
X119151483Y-52023737D01*
X119151483Y-52023737D02*
X119199102Y-52071357D01*
X119199102Y-52071357D02*
X119294340Y-52118976D01*
X119294340Y-52118976D02*
X119484816Y-52118976D01*
X119484816Y-52118976D02*
X119580054Y-52071357D01*
X119580054Y-52071357D02*
X119627673Y-52023737D01*
X119627673Y-52023737D02*
X119675292Y-51928499D01*
X119675292Y-51928499D02*
X119675292Y-51690404D01*
X119675292Y-51690404D02*
X119627673Y-51595166D01*
X119627673Y-51595166D02*
X119580054Y-51547547D01*
X119580054Y-51547547D02*
X119484816Y-51499928D01*
X119484816Y-51499928D02*
X119294340Y-51499928D01*
X119294340Y-51499928D02*
X119199102Y-51547547D01*
X119199102Y-51547547D02*
X119151483Y-51595166D01*
X119151483Y-51595166D02*
X119103864Y-51690404D01*
X92837142Y-143708976D02*
X92503809Y-143232785D01*
X92265714Y-143708976D02*
X92265714Y-142708976D01*
X92265714Y-142708976D02*
X92646666Y-142708976D01*
X92646666Y-142708976D02*
X92741904Y-142756595D01*
X92741904Y-142756595D02*
X92789523Y-142804214D01*
X92789523Y-142804214D02*
X92837142Y-142899452D01*
X92837142Y-142899452D02*
X92837142Y-143042309D01*
X92837142Y-143042309D02*
X92789523Y-143137547D01*
X92789523Y-143137547D02*
X92741904Y-143185166D01*
X92741904Y-143185166D02*
X92646666Y-143232785D01*
X92646666Y-143232785D02*
X92265714Y-143232785D01*
X93789523Y-143708976D02*
X93218095Y-143708976D01*
X93503809Y-143708976D02*
X93503809Y-142708976D01*
X93503809Y-142708976D02*
X93408571Y-142851833D01*
X93408571Y-142851833D02*
X93313333Y-142947071D01*
X93313333Y-142947071D02*
X93218095Y-142994690D01*
X94694285Y-142708976D02*
X94218095Y-142708976D01*
X94218095Y-142708976D02*
X94170476Y-143185166D01*
X94170476Y-143185166D02*
X94218095Y-143137547D01*
X94218095Y-143137547D02*
X94313333Y-143089928D01*
X94313333Y-143089928D02*
X94551428Y-143089928D01*
X94551428Y-143089928D02*
X94646666Y-143137547D01*
X94646666Y-143137547D02*
X94694285Y-143185166D01*
X94694285Y-143185166D02*
X94741904Y-143280404D01*
X94741904Y-143280404D02*
X94741904Y-143518499D01*
X94741904Y-143518499D02*
X94694285Y-143613737D01*
X94694285Y-143613737D02*
X94646666Y-143661357D01*
X94646666Y-143661357D02*
X94551428Y-143708976D01*
X94551428Y-143708976D02*
X94313333Y-143708976D01*
X94313333Y-143708976D02*
X94218095Y-143661357D01*
X94218095Y-143661357D02*
X94170476Y-143613737D01*
X108203333Y-117783737D02*
X108155714Y-117831357D01*
X108155714Y-117831357D02*
X108012857Y-117878976D01*
X108012857Y-117878976D02*
X107917619Y-117878976D01*
X107917619Y-117878976D02*
X107774762Y-117831357D01*
X107774762Y-117831357D02*
X107679524Y-117736118D01*
X107679524Y-117736118D02*
X107631905Y-117640880D01*
X107631905Y-117640880D02*
X107584286Y-117450404D01*
X107584286Y-117450404D02*
X107584286Y-117307547D01*
X107584286Y-117307547D02*
X107631905Y-117117071D01*
X107631905Y-117117071D02*
X107679524Y-117021833D01*
X107679524Y-117021833D02*
X107774762Y-116926595D01*
X107774762Y-116926595D02*
X107917619Y-116878976D01*
X107917619Y-116878976D02*
X108012857Y-116878976D01*
X108012857Y-116878976D02*
X108155714Y-116926595D01*
X108155714Y-116926595D02*
X108203333Y-116974214D01*
X108584286Y-116974214D02*
X108631905Y-116926595D01*
X108631905Y-116926595D02*
X108727143Y-116878976D01*
X108727143Y-116878976D02*
X108965238Y-116878976D01*
X108965238Y-116878976D02*
X109060476Y-116926595D01*
X109060476Y-116926595D02*
X109108095Y-116974214D01*
X109108095Y-116974214D02*
X109155714Y-117069452D01*
X109155714Y-117069452D02*
X109155714Y-117164690D01*
X109155714Y-117164690D02*
X109108095Y-117307547D01*
X109108095Y-117307547D02*
X108536667Y-117878976D01*
X108536667Y-117878976D02*
X109155714Y-117878976D01*
X111666666Y-83575423D02*
X111666666Y-84289708D01*
X111666666Y-84289708D02*
X111619047Y-84432565D01*
X111619047Y-84432565D02*
X111523809Y-84527804D01*
X111523809Y-84527804D02*
X111380952Y-84575423D01*
X111380952Y-84575423D02*
X111285714Y-84575423D01*
X112666666Y-84575423D02*
X112095238Y-84575423D01*
X112380952Y-84575423D02*
X112380952Y-83575423D01*
X112380952Y-83575423D02*
X112285714Y-83718280D01*
X112285714Y-83718280D02*
X112190476Y-83813518D01*
X112190476Y-83813518D02*
X112095238Y-83861137D01*
X111447142Y-134078976D02*
X111113809Y-133602785D01*
X110875714Y-134078976D02*
X110875714Y-133078976D01*
X110875714Y-133078976D02*
X111256666Y-133078976D01*
X111256666Y-133078976D02*
X111351904Y-133126595D01*
X111351904Y-133126595D02*
X111399523Y-133174214D01*
X111399523Y-133174214D02*
X111447142Y-133269452D01*
X111447142Y-133269452D02*
X111447142Y-133412309D01*
X111447142Y-133412309D02*
X111399523Y-133507547D01*
X111399523Y-133507547D02*
X111351904Y-133555166D01*
X111351904Y-133555166D02*
X111256666Y-133602785D01*
X111256666Y-133602785D02*
X110875714Y-133602785D01*
X112399523Y-134078976D02*
X111828095Y-134078976D01*
X112113809Y-134078976D02*
X112113809Y-133078976D01*
X112113809Y-133078976D02*
X112018571Y-133221833D01*
X112018571Y-133221833D02*
X111923333Y-133317071D01*
X111923333Y-133317071D02*
X111828095Y-133364690D01*
X112780476Y-133174214D02*
X112828095Y-133126595D01*
X112828095Y-133126595D02*
X112923333Y-133078976D01*
X112923333Y-133078976D02*
X113161428Y-133078976D01*
X113161428Y-133078976D02*
X113256666Y-133126595D01*
X113256666Y-133126595D02*
X113304285Y-133174214D01*
X113304285Y-133174214D02*
X113351904Y-133269452D01*
X113351904Y-133269452D02*
X113351904Y-133364690D01*
X113351904Y-133364690D02*
X113304285Y-133507547D01*
X113304285Y-133507547D02*
X112732857Y-134078976D01*
X112732857Y-134078976D02*
X113351904Y-134078976D01*
X101433333Y-90980184D02*
X101385714Y-91027804D01*
X101385714Y-91027804D02*
X101242857Y-91075423D01*
X101242857Y-91075423D02*
X101147619Y-91075423D01*
X101147619Y-91075423D02*
X101004762Y-91027804D01*
X101004762Y-91027804D02*
X100909524Y-90932565D01*
X100909524Y-90932565D02*
X100861905Y-90837327D01*
X100861905Y-90837327D02*
X100814286Y-90646851D01*
X100814286Y-90646851D02*
X100814286Y-90503994D01*
X100814286Y-90503994D02*
X100861905Y-90313518D01*
X100861905Y-90313518D02*
X100909524Y-90218280D01*
X100909524Y-90218280D02*
X101004762Y-90123042D01*
X101004762Y-90123042D02*
X101147619Y-90075423D01*
X101147619Y-90075423D02*
X101242857Y-90075423D01*
X101242857Y-90075423D02*
X101385714Y-90123042D01*
X101385714Y-90123042D02*
X101433333Y-90170661D01*
X102385714Y-91075423D02*
X101814286Y-91075423D01*
X102100000Y-91075423D02*
X102100000Y-90075423D01*
X102100000Y-90075423D02*
X102004762Y-90218280D01*
X102004762Y-90218280D02*
X101909524Y-90313518D01*
X101909524Y-90313518D02*
X101814286Y-90361137D01*
X93047142Y-158408976D02*
X92713809Y-157932785D01*
X92475714Y-158408976D02*
X92475714Y-157408976D01*
X92475714Y-157408976D02*
X92856666Y-157408976D01*
X92856666Y-157408976D02*
X92951904Y-157456595D01*
X92951904Y-157456595D02*
X92999523Y-157504214D01*
X92999523Y-157504214D02*
X93047142Y-157599452D01*
X93047142Y-157599452D02*
X93047142Y-157742309D01*
X93047142Y-157742309D02*
X92999523Y-157837547D01*
X92999523Y-157837547D02*
X92951904Y-157885166D01*
X92951904Y-157885166D02*
X92856666Y-157932785D01*
X92856666Y-157932785D02*
X92475714Y-157932785D01*
X93999523Y-158408976D02*
X93428095Y-158408976D01*
X93713809Y-158408976D02*
X93713809Y-157408976D01*
X93713809Y-157408976D02*
X93618571Y-157551833D01*
X93618571Y-157551833D02*
X93523333Y-157647071D01*
X93523333Y-157647071D02*
X93428095Y-157694690D01*
X94570952Y-157837547D02*
X94475714Y-157789928D01*
X94475714Y-157789928D02*
X94428095Y-157742309D01*
X94428095Y-157742309D02*
X94380476Y-157647071D01*
X94380476Y-157647071D02*
X94380476Y-157599452D01*
X94380476Y-157599452D02*
X94428095Y-157504214D01*
X94428095Y-157504214D02*
X94475714Y-157456595D01*
X94475714Y-157456595D02*
X94570952Y-157408976D01*
X94570952Y-157408976D02*
X94761428Y-157408976D01*
X94761428Y-157408976D02*
X94856666Y-157456595D01*
X94856666Y-157456595D02*
X94904285Y-157504214D01*
X94904285Y-157504214D02*
X94951904Y-157599452D01*
X94951904Y-157599452D02*
X94951904Y-157647071D01*
X94951904Y-157647071D02*
X94904285Y-157742309D01*
X94904285Y-157742309D02*
X94856666Y-157789928D01*
X94856666Y-157789928D02*
X94761428Y-157837547D01*
X94761428Y-157837547D02*
X94570952Y-157837547D01*
X94570952Y-157837547D02*
X94475714Y-157885166D01*
X94475714Y-157885166D02*
X94428095Y-157932785D01*
X94428095Y-157932785D02*
X94380476Y-158028023D01*
X94380476Y-158028023D02*
X94380476Y-158218499D01*
X94380476Y-158218499D02*
X94428095Y-158313737D01*
X94428095Y-158313737D02*
X94475714Y-158361357D01*
X94475714Y-158361357D02*
X94570952Y-158408976D01*
X94570952Y-158408976D02*
X94761428Y-158408976D01*
X94761428Y-158408976D02*
X94856666Y-158361357D01*
X94856666Y-158361357D02*
X94904285Y-158313737D01*
X94904285Y-158313737D02*
X94951904Y-158218499D01*
X94951904Y-158218499D02*
X94951904Y-158028023D01*
X94951904Y-158028023D02*
X94904285Y-157932785D01*
X94904285Y-157932785D02*
X94856666Y-157885166D01*
X94856666Y-157885166D02*
X94761428Y-157837547D01*
X91511959Y-78448976D02*
X91178626Y-77972785D01*
X90940531Y-78448976D02*
X90940531Y-77448976D01*
X90940531Y-77448976D02*
X91321483Y-77448976D01*
X91321483Y-77448976D02*
X91416721Y-77496595D01*
X91416721Y-77496595D02*
X91464340Y-77544214D01*
X91464340Y-77544214D02*
X91511959Y-77639452D01*
X91511959Y-77639452D02*
X91511959Y-77782309D01*
X91511959Y-77782309D02*
X91464340Y-77877547D01*
X91464340Y-77877547D02*
X91416721Y-77925166D01*
X91416721Y-77925166D02*
X91321483Y-77972785D01*
X91321483Y-77972785D02*
X90940531Y-77972785D01*
X91845293Y-77448976D02*
X92511959Y-77448976D01*
X92511959Y-77448976D02*
X92083388Y-78448976D01*
X110477142Y-161079867D02*
X110143809Y-160603676D01*
X109905714Y-161079867D02*
X109905714Y-160079867D01*
X109905714Y-160079867D02*
X110286666Y-160079867D01*
X110286666Y-160079867D02*
X110381904Y-160127486D01*
X110381904Y-160127486D02*
X110429523Y-160175105D01*
X110429523Y-160175105D02*
X110477142Y-160270343D01*
X110477142Y-160270343D02*
X110477142Y-160413200D01*
X110477142Y-160413200D02*
X110429523Y-160508438D01*
X110429523Y-160508438D02*
X110381904Y-160556057D01*
X110381904Y-160556057D02*
X110286666Y-160603676D01*
X110286666Y-160603676D02*
X109905714Y-160603676D01*
X110858095Y-160175105D02*
X110905714Y-160127486D01*
X110905714Y-160127486D02*
X111000952Y-160079867D01*
X111000952Y-160079867D02*
X111239047Y-160079867D01*
X111239047Y-160079867D02*
X111334285Y-160127486D01*
X111334285Y-160127486D02*
X111381904Y-160175105D01*
X111381904Y-160175105D02*
X111429523Y-160270343D01*
X111429523Y-160270343D02*
X111429523Y-160365581D01*
X111429523Y-160365581D02*
X111381904Y-160508438D01*
X111381904Y-160508438D02*
X110810476Y-161079867D01*
X110810476Y-161079867D02*
X111429523Y-161079867D01*
X111810476Y-160175105D02*
X111858095Y-160127486D01*
X111858095Y-160127486D02*
X111953333Y-160079867D01*
X111953333Y-160079867D02*
X112191428Y-160079867D01*
X112191428Y-160079867D02*
X112286666Y-160127486D01*
X112286666Y-160127486D02*
X112334285Y-160175105D01*
X112334285Y-160175105D02*
X112381904Y-160270343D01*
X112381904Y-160270343D02*
X112381904Y-160365581D01*
X112381904Y-160365581D02*
X112334285Y-160508438D01*
X112334285Y-160508438D02*
X111762857Y-161079867D01*
X111762857Y-161079867D02*
X112381904Y-161079867D01*
X120256666Y-107575423D02*
X120256666Y-108289708D01*
X120256666Y-108289708D02*
X120209047Y-108432565D01*
X120209047Y-108432565D02*
X120113809Y-108527804D01*
X120113809Y-108527804D02*
X119970952Y-108575423D01*
X119970952Y-108575423D02*
X119875714Y-108575423D01*
X120685238Y-107670661D02*
X120732857Y-107623042D01*
X120732857Y-107623042D02*
X120828095Y-107575423D01*
X120828095Y-107575423D02*
X121066190Y-107575423D01*
X121066190Y-107575423D02*
X121161428Y-107623042D01*
X121161428Y-107623042D02*
X121209047Y-107670661D01*
X121209047Y-107670661D02*
X121256666Y-107765899D01*
X121256666Y-107765899D02*
X121256666Y-107861137D01*
X121256666Y-107861137D02*
X121209047Y-108003994D01*
X121209047Y-108003994D02*
X120637619Y-108575423D01*
X120637619Y-108575423D02*
X121256666Y-108575423D01*
X109957142Y-79375423D02*
X109623809Y-78899232D01*
X109385714Y-79375423D02*
X109385714Y-78375423D01*
X109385714Y-78375423D02*
X109766666Y-78375423D01*
X109766666Y-78375423D02*
X109861904Y-78423042D01*
X109861904Y-78423042D02*
X109909523Y-78470661D01*
X109909523Y-78470661D02*
X109957142Y-78565899D01*
X109957142Y-78565899D02*
X109957142Y-78708756D01*
X109957142Y-78708756D02*
X109909523Y-78803994D01*
X109909523Y-78803994D02*
X109861904Y-78851613D01*
X109861904Y-78851613D02*
X109766666Y-78899232D01*
X109766666Y-78899232D02*
X109385714Y-78899232D01*
X110338095Y-78470661D02*
X110385714Y-78423042D01*
X110385714Y-78423042D02*
X110480952Y-78375423D01*
X110480952Y-78375423D02*
X110719047Y-78375423D01*
X110719047Y-78375423D02*
X110814285Y-78423042D01*
X110814285Y-78423042D02*
X110861904Y-78470661D01*
X110861904Y-78470661D02*
X110909523Y-78565899D01*
X110909523Y-78565899D02*
X110909523Y-78661137D01*
X110909523Y-78661137D02*
X110861904Y-78803994D01*
X110861904Y-78803994D02*
X110290476Y-79375423D01*
X110290476Y-79375423D02*
X110909523Y-79375423D01*
X111766666Y-78708756D02*
X111766666Y-79375423D01*
X111528571Y-78327804D02*
X111290476Y-79042089D01*
X111290476Y-79042089D02*
X111909523Y-79042089D01*
X124761905Y-75175423D02*
X124761905Y-74175423D01*
X124761905Y-74175423D02*
X125000000Y-74175423D01*
X125000000Y-74175423D02*
X125142857Y-74223042D01*
X125142857Y-74223042D02*
X125238095Y-74318280D01*
X125238095Y-74318280D02*
X125285714Y-74413518D01*
X125285714Y-74413518D02*
X125333333Y-74603994D01*
X125333333Y-74603994D02*
X125333333Y-74746851D01*
X125333333Y-74746851D02*
X125285714Y-74937327D01*
X125285714Y-74937327D02*
X125238095Y-75032565D01*
X125238095Y-75032565D02*
X125142857Y-75127804D01*
X125142857Y-75127804D02*
X125000000Y-75175423D01*
X125000000Y-75175423D02*
X124761905Y-75175423D01*
X125666667Y-74175423D02*
X126285714Y-74175423D01*
X126285714Y-74175423D02*
X125952381Y-74556375D01*
X125952381Y-74556375D02*
X126095238Y-74556375D01*
X126095238Y-74556375D02*
X126190476Y-74603994D01*
X126190476Y-74603994D02*
X126238095Y-74651613D01*
X126238095Y-74651613D02*
X126285714Y-74746851D01*
X126285714Y-74746851D02*
X126285714Y-74984946D01*
X126285714Y-74984946D02*
X126238095Y-75080184D01*
X126238095Y-75080184D02*
X126190476Y-75127804D01*
X126190476Y-75127804D02*
X126095238Y-75175423D01*
X126095238Y-75175423D02*
X125809524Y-75175423D01*
X125809524Y-75175423D02*
X125714286Y-75127804D01*
X125714286Y-75127804D02*
X125666667Y-75080184D01*
X97008095Y-139648976D02*
X97008095Y-140458499D01*
X97008095Y-140458499D02*
X97055714Y-140553737D01*
X97055714Y-140553737D02*
X97103333Y-140601357D01*
X97103333Y-140601357D02*
X97198571Y-140648976D01*
X97198571Y-140648976D02*
X97389047Y-140648976D01*
X97389047Y-140648976D02*
X97484285Y-140601357D01*
X97484285Y-140601357D02*
X97531904Y-140553737D01*
X97531904Y-140553737D02*
X97579523Y-140458499D01*
X97579523Y-140458499D02*
X97579523Y-139648976D01*
X97960476Y-139648976D02*
X98579523Y-139648976D01*
X98579523Y-139648976D02*
X98246190Y-140029928D01*
X98246190Y-140029928D02*
X98389047Y-140029928D01*
X98389047Y-140029928D02*
X98484285Y-140077547D01*
X98484285Y-140077547D02*
X98531904Y-140125166D01*
X98531904Y-140125166D02*
X98579523Y-140220404D01*
X98579523Y-140220404D02*
X98579523Y-140458499D01*
X98579523Y-140458499D02*
X98531904Y-140553737D01*
X98531904Y-140553737D02*
X98484285Y-140601357D01*
X98484285Y-140601357D02*
X98389047Y-140648976D01*
X98389047Y-140648976D02*
X98103333Y-140648976D01*
X98103333Y-140648976D02*
X98008095Y-140601357D01*
X98008095Y-140601357D02*
X97960476Y-140553737D01*
X124861905Y-91875423D02*
X124861905Y-90875423D01*
X124861905Y-90875423D02*
X125100000Y-90875423D01*
X125100000Y-90875423D02*
X125242857Y-90923042D01*
X125242857Y-90923042D02*
X125338095Y-91018280D01*
X125338095Y-91018280D02*
X125385714Y-91113518D01*
X125385714Y-91113518D02*
X125433333Y-91303994D01*
X125433333Y-91303994D02*
X125433333Y-91446851D01*
X125433333Y-91446851D02*
X125385714Y-91637327D01*
X125385714Y-91637327D02*
X125338095Y-91732565D01*
X125338095Y-91732565D02*
X125242857Y-91827804D01*
X125242857Y-91827804D02*
X125100000Y-91875423D01*
X125100000Y-91875423D02*
X124861905Y-91875423D01*
X125814286Y-90970661D02*
X125861905Y-90923042D01*
X125861905Y-90923042D02*
X125957143Y-90875423D01*
X125957143Y-90875423D02*
X126195238Y-90875423D01*
X126195238Y-90875423D02*
X126290476Y-90923042D01*
X126290476Y-90923042D02*
X126338095Y-90970661D01*
X126338095Y-90970661D02*
X126385714Y-91065899D01*
X126385714Y-91065899D02*
X126385714Y-91161137D01*
X126385714Y-91161137D02*
X126338095Y-91303994D01*
X126338095Y-91303994D02*
X125766667Y-91875423D01*
X125766667Y-91875423D02*
X126385714Y-91875423D01*
X87931959Y-52278976D02*
X87598626Y-51802785D01*
X87360531Y-52278976D02*
X87360531Y-51278976D01*
X87360531Y-51278976D02*
X87741483Y-51278976D01*
X87741483Y-51278976D02*
X87836721Y-51326595D01*
X87836721Y-51326595D02*
X87884340Y-51374214D01*
X87884340Y-51374214D02*
X87931959Y-51469452D01*
X87931959Y-51469452D02*
X87931959Y-51612309D01*
X87931959Y-51612309D02*
X87884340Y-51707547D01*
X87884340Y-51707547D02*
X87836721Y-51755166D01*
X87836721Y-51755166D02*
X87741483Y-51802785D01*
X87741483Y-51802785D02*
X87360531Y-51802785D01*
X88836721Y-51278976D02*
X88360531Y-51278976D01*
X88360531Y-51278976D02*
X88312912Y-51755166D01*
X88312912Y-51755166D02*
X88360531Y-51707547D01*
X88360531Y-51707547D02*
X88455769Y-51659928D01*
X88455769Y-51659928D02*
X88693864Y-51659928D01*
X88693864Y-51659928D02*
X88789102Y-51707547D01*
X88789102Y-51707547D02*
X88836721Y-51755166D01*
X88836721Y-51755166D02*
X88884340Y-51850404D01*
X88884340Y-51850404D02*
X88884340Y-52088499D01*
X88884340Y-52088499D02*
X88836721Y-52183737D01*
X88836721Y-52183737D02*
X88789102Y-52231357D01*
X88789102Y-52231357D02*
X88693864Y-52278976D01*
X88693864Y-52278976D02*
X88455769Y-52278976D01*
X88455769Y-52278976D02*
X88360531Y-52231357D01*
X88360531Y-52231357D02*
X88312912Y-52183737D01*
X87831959Y-74378976D02*
X87498626Y-73902785D01*
X87260531Y-74378976D02*
X87260531Y-73378976D01*
X87260531Y-73378976D02*
X87641483Y-73378976D01*
X87641483Y-73378976D02*
X87736721Y-73426595D01*
X87736721Y-73426595D02*
X87784340Y-73474214D01*
X87784340Y-73474214D02*
X87831959Y-73569452D01*
X87831959Y-73569452D02*
X87831959Y-73712309D01*
X87831959Y-73712309D02*
X87784340Y-73807547D01*
X87784340Y-73807547D02*
X87736721Y-73855166D01*
X87736721Y-73855166D02*
X87641483Y-73902785D01*
X87641483Y-73902785D02*
X87260531Y-73902785D01*
X88689102Y-73378976D02*
X88498626Y-73378976D01*
X88498626Y-73378976D02*
X88403388Y-73426595D01*
X88403388Y-73426595D02*
X88355769Y-73474214D01*
X88355769Y-73474214D02*
X88260531Y-73617071D01*
X88260531Y-73617071D02*
X88212912Y-73807547D01*
X88212912Y-73807547D02*
X88212912Y-74188499D01*
X88212912Y-74188499D02*
X88260531Y-74283737D01*
X88260531Y-74283737D02*
X88308150Y-74331357D01*
X88308150Y-74331357D02*
X88403388Y-74378976D01*
X88403388Y-74378976D02*
X88593864Y-74378976D01*
X88593864Y-74378976D02*
X88689102Y-74331357D01*
X88689102Y-74331357D02*
X88736721Y-74283737D01*
X88736721Y-74283737D02*
X88784340Y-74188499D01*
X88784340Y-74188499D02*
X88784340Y-73950404D01*
X88784340Y-73950404D02*
X88736721Y-73855166D01*
X88736721Y-73855166D02*
X88689102Y-73807547D01*
X88689102Y-73807547D02*
X88593864Y-73759928D01*
X88593864Y-73759928D02*
X88403388Y-73759928D01*
X88403388Y-73759928D02*
X88308150Y-73807547D01*
X88308150Y-73807547D02*
X88260531Y-73855166D01*
X88260531Y-73855166D02*
X88212912Y-73950404D01*
X111447142Y-125078976D02*
X111113809Y-124602785D01*
X110875714Y-125078976D02*
X110875714Y-124078976D01*
X110875714Y-124078976D02*
X111256666Y-124078976D01*
X111256666Y-124078976D02*
X111351904Y-124126595D01*
X111351904Y-124126595D02*
X111399523Y-124174214D01*
X111399523Y-124174214D02*
X111447142Y-124269452D01*
X111447142Y-124269452D02*
X111447142Y-124412309D01*
X111447142Y-124412309D02*
X111399523Y-124507547D01*
X111399523Y-124507547D02*
X111351904Y-124555166D01*
X111351904Y-124555166D02*
X111256666Y-124602785D01*
X111256666Y-124602785D02*
X110875714Y-124602785D01*
X112399523Y-125078976D02*
X111828095Y-125078976D01*
X112113809Y-125078976D02*
X112113809Y-124078976D01*
X112113809Y-124078976D02*
X112018571Y-124221833D01*
X112018571Y-124221833D02*
X111923333Y-124317071D01*
X111923333Y-124317071D02*
X111828095Y-124364690D01*
X113256666Y-124412309D02*
X113256666Y-125078976D01*
X113018571Y-124031357D02*
X112780476Y-124745642D01*
X112780476Y-124745642D02*
X113399523Y-124745642D01*
X108175768Y-71578976D02*
X107842435Y-71102785D01*
X107604340Y-71578976D02*
X107604340Y-70578976D01*
X107604340Y-70578976D02*
X107985292Y-70578976D01*
X107985292Y-70578976D02*
X108080530Y-70626595D01*
X108080530Y-70626595D02*
X108128149Y-70674214D01*
X108128149Y-70674214D02*
X108175768Y-70769452D01*
X108175768Y-70769452D02*
X108175768Y-70912309D01*
X108175768Y-70912309D02*
X108128149Y-71007547D01*
X108128149Y-71007547D02*
X108080530Y-71055166D01*
X108080530Y-71055166D02*
X107985292Y-71102785D01*
X107985292Y-71102785D02*
X107604340Y-71102785D01*
X109128149Y-71578976D02*
X108556721Y-71578976D01*
X108842435Y-71578976D02*
X108842435Y-70578976D01*
X108842435Y-70578976D02*
X108747197Y-70721833D01*
X108747197Y-70721833D02*
X108651959Y-70817071D01*
X108651959Y-70817071D02*
X108556721Y-70864690D01*
X109747197Y-70578976D02*
X109842435Y-70578976D01*
X109842435Y-70578976D02*
X109937673Y-70626595D01*
X109937673Y-70626595D02*
X109985292Y-70674214D01*
X109985292Y-70674214D02*
X110032911Y-70769452D01*
X110032911Y-70769452D02*
X110080530Y-70959928D01*
X110080530Y-70959928D02*
X110080530Y-71198023D01*
X110080530Y-71198023D02*
X110032911Y-71388499D01*
X110032911Y-71388499D02*
X109985292Y-71483737D01*
X109985292Y-71483737D02*
X109937673Y-71531357D01*
X109937673Y-71531357D02*
X109842435Y-71578976D01*
X109842435Y-71578976D02*
X109747197Y-71578976D01*
X109747197Y-71578976D02*
X109651959Y-71531357D01*
X109651959Y-71531357D02*
X109604340Y-71483737D01*
X109604340Y-71483737D02*
X109556721Y-71388499D01*
X109556721Y-71388499D02*
X109509102Y-71198023D01*
X109509102Y-71198023D02*
X109509102Y-70959928D01*
X109509102Y-70959928D02*
X109556721Y-70769452D01*
X109556721Y-70769452D02*
X109604340Y-70674214D01*
X109604340Y-70674214D02*
X109651959Y-70626595D01*
X109651959Y-70626595D02*
X109747197Y-70578976D01*
X106033333Y-95075423D02*
X105700000Y-94599232D01*
X105461905Y-95075423D02*
X105461905Y-94075423D01*
X105461905Y-94075423D02*
X105842857Y-94075423D01*
X105842857Y-94075423D02*
X105938095Y-94123042D01*
X105938095Y-94123042D02*
X105985714Y-94170661D01*
X105985714Y-94170661D02*
X106033333Y-94265899D01*
X106033333Y-94265899D02*
X106033333Y-94408756D01*
X106033333Y-94408756D02*
X105985714Y-94503994D01*
X105985714Y-94503994D02*
X105938095Y-94551613D01*
X105938095Y-94551613D02*
X105842857Y-94599232D01*
X105842857Y-94599232D02*
X105461905Y-94599232D01*
X106985714Y-95075423D02*
X106414286Y-95075423D01*
X106700000Y-95075423D02*
X106700000Y-94075423D01*
X106700000Y-94075423D02*
X106604762Y-94218280D01*
X106604762Y-94218280D02*
X106509524Y-94313518D01*
X106509524Y-94313518D02*
X106414286Y-94361137D01*
X79765292Y-51378976D02*
X79765292Y-52093261D01*
X79765292Y-52093261D02*
X79717673Y-52236118D01*
X79717673Y-52236118D02*
X79622435Y-52331357D01*
X79622435Y-52331357D02*
X79479578Y-52378976D01*
X79479578Y-52378976D02*
X79384340Y-52378976D01*
X80146245Y-51378976D02*
X80765292Y-51378976D01*
X80765292Y-51378976D02*
X80431959Y-51759928D01*
X80431959Y-51759928D02*
X80574816Y-51759928D01*
X80574816Y-51759928D02*
X80670054Y-51807547D01*
X80670054Y-51807547D02*
X80717673Y-51855166D01*
X80717673Y-51855166D02*
X80765292Y-51950404D01*
X80765292Y-51950404D02*
X80765292Y-52188499D01*
X80765292Y-52188499D02*
X80717673Y-52283737D01*
X80717673Y-52283737D02*
X80670054Y-52331357D01*
X80670054Y-52331357D02*
X80574816Y-52378976D01*
X80574816Y-52378976D02*
X80289102Y-52378976D01*
X80289102Y-52378976D02*
X80193864Y-52331357D01*
X80193864Y-52331357D02*
X80146245Y-52283737D01*
X108391959Y-58398976D02*
X108058626Y-57922785D01*
X107820531Y-58398976D02*
X107820531Y-57398976D01*
X107820531Y-57398976D02*
X108201483Y-57398976D01*
X108201483Y-57398976D02*
X108296721Y-57446595D01*
X108296721Y-57446595D02*
X108344340Y-57494214D01*
X108344340Y-57494214D02*
X108391959Y-57589452D01*
X108391959Y-57589452D02*
X108391959Y-57732309D01*
X108391959Y-57732309D02*
X108344340Y-57827547D01*
X108344340Y-57827547D02*
X108296721Y-57875166D01*
X108296721Y-57875166D02*
X108201483Y-57922785D01*
X108201483Y-57922785D02*
X107820531Y-57922785D01*
X108963388Y-57827547D02*
X108868150Y-57779928D01*
X108868150Y-57779928D02*
X108820531Y-57732309D01*
X108820531Y-57732309D02*
X108772912Y-57637071D01*
X108772912Y-57637071D02*
X108772912Y-57589452D01*
X108772912Y-57589452D02*
X108820531Y-57494214D01*
X108820531Y-57494214D02*
X108868150Y-57446595D01*
X108868150Y-57446595D02*
X108963388Y-57398976D01*
X108963388Y-57398976D02*
X109153864Y-57398976D01*
X109153864Y-57398976D02*
X109249102Y-57446595D01*
X109249102Y-57446595D02*
X109296721Y-57494214D01*
X109296721Y-57494214D02*
X109344340Y-57589452D01*
X109344340Y-57589452D02*
X109344340Y-57637071D01*
X109344340Y-57637071D02*
X109296721Y-57732309D01*
X109296721Y-57732309D02*
X109249102Y-57779928D01*
X109249102Y-57779928D02*
X109153864Y-57827547D01*
X109153864Y-57827547D02*
X108963388Y-57827547D01*
X108963388Y-57827547D02*
X108868150Y-57875166D01*
X108868150Y-57875166D02*
X108820531Y-57922785D01*
X108820531Y-57922785D02*
X108772912Y-58018023D01*
X108772912Y-58018023D02*
X108772912Y-58208499D01*
X108772912Y-58208499D02*
X108820531Y-58303737D01*
X108820531Y-58303737D02*
X108868150Y-58351357D01*
X108868150Y-58351357D02*
X108963388Y-58398976D01*
X108963388Y-58398976D02*
X109153864Y-58398976D01*
X109153864Y-58398976D02*
X109249102Y-58351357D01*
X109249102Y-58351357D02*
X109296721Y-58303737D01*
X109296721Y-58303737D02*
X109344340Y-58208499D01*
X109344340Y-58208499D02*
X109344340Y-58018023D01*
X109344340Y-58018023D02*
X109296721Y-57922785D01*
X109296721Y-57922785D02*
X109249102Y-57875166D01*
X109249102Y-57875166D02*
X109153864Y-57827547D01*
X110577142Y-155779867D02*
X110243809Y-155303676D01*
X110005714Y-155779867D02*
X110005714Y-154779867D01*
X110005714Y-154779867D02*
X110386666Y-154779867D01*
X110386666Y-154779867D02*
X110481904Y-154827486D01*
X110481904Y-154827486D02*
X110529523Y-154875105D01*
X110529523Y-154875105D02*
X110577142Y-154970343D01*
X110577142Y-154970343D02*
X110577142Y-155113200D01*
X110577142Y-155113200D02*
X110529523Y-155208438D01*
X110529523Y-155208438D02*
X110481904Y-155256057D01*
X110481904Y-155256057D02*
X110386666Y-155303676D01*
X110386666Y-155303676D02*
X110005714Y-155303676D01*
X110958095Y-154875105D02*
X111005714Y-154827486D01*
X111005714Y-154827486D02*
X111100952Y-154779867D01*
X111100952Y-154779867D02*
X111339047Y-154779867D01*
X111339047Y-154779867D02*
X111434285Y-154827486D01*
X111434285Y-154827486D02*
X111481904Y-154875105D01*
X111481904Y-154875105D02*
X111529523Y-154970343D01*
X111529523Y-154970343D02*
X111529523Y-155065581D01*
X111529523Y-155065581D02*
X111481904Y-155208438D01*
X111481904Y-155208438D02*
X110910476Y-155779867D01*
X110910476Y-155779867D02*
X111529523Y-155779867D01*
X112481904Y-155779867D02*
X111910476Y-155779867D01*
X112196190Y-155779867D02*
X112196190Y-154779867D01*
X112196190Y-154779867D02*
X112100952Y-154922724D01*
X112100952Y-154922724D02*
X112005714Y-155017962D01*
X112005714Y-155017962D02*
X111910476Y-155065581D01*
X110451959Y-66678976D02*
X110118626Y-66202785D01*
X109880531Y-66678976D02*
X109880531Y-65678976D01*
X109880531Y-65678976D02*
X110261483Y-65678976D01*
X110261483Y-65678976D02*
X110356721Y-65726595D01*
X110356721Y-65726595D02*
X110404340Y-65774214D01*
X110404340Y-65774214D02*
X110451959Y-65869452D01*
X110451959Y-65869452D02*
X110451959Y-66012309D01*
X110451959Y-66012309D02*
X110404340Y-66107547D01*
X110404340Y-66107547D02*
X110356721Y-66155166D01*
X110356721Y-66155166D02*
X110261483Y-66202785D01*
X110261483Y-66202785D02*
X109880531Y-66202785D01*
X110928150Y-66678976D02*
X111118626Y-66678976D01*
X111118626Y-66678976D02*
X111213864Y-66631357D01*
X111213864Y-66631357D02*
X111261483Y-66583737D01*
X111261483Y-66583737D02*
X111356721Y-66440880D01*
X111356721Y-66440880D02*
X111404340Y-66250404D01*
X111404340Y-66250404D02*
X111404340Y-65869452D01*
X111404340Y-65869452D02*
X111356721Y-65774214D01*
X111356721Y-65774214D02*
X111309102Y-65726595D01*
X111309102Y-65726595D02*
X111213864Y-65678976D01*
X111213864Y-65678976D02*
X111023388Y-65678976D01*
X111023388Y-65678976D02*
X110928150Y-65726595D01*
X110928150Y-65726595D02*
X110880531Y-65774214D01*
X110880531Y-65774214D02*
X110832912Y-65869452D01*
X110832912Y-65869452D02*
X110832912Y-66107547D01*
X110832912Y-66107547D02*
X110880531Y-66202785D01*
X110880531Y-66202785D02*
X110928150Y-66250404D01*
X110928150Y-66250404D02*
X111023388Y-66298023D01*
X111023388Y-66298023D02*
X111213864Y-66298023D01*
X111213864Y-66298023D02*
X111309102Y-66250404D01*
X111309102Y-66250404D02*
X111356721Y-66202785D01*
X111356721Y-66202785D02*
X111404340Y-66107547D01*
X110377142Y-146079867D02*
X110043809Y-145603676D01*
X109805714Y-146079867D02*
X109805714Y-145079867D01*
X109805714Y-145079867D02*
X110186666Y-145079867D01*
X110186666Y-145079867D02*
X110281904Y-145127486D01*
X110281904Y-145127486D02*
X110329523Y-145175105D01*
X110329523Y-145175105D02*
X110377142Y-145270343D01*
X110377142Y-145270343D02*
X110377142Y-145413200D01*
X110377142Y-145413200D02*
X110329523Y-145508438D01*
X110329523Y-145508438D02*
X110281904Y-145556057D01*
X110281904Y-145556057D02*
X110186666Y-145603676D01*
X110186666Y-145603676D02*
X109805714Y-145603676D01*
X111329523Y-146079867D02*
X110758095Y-146079867D01*
X111043809Y-146079867D02*
X111043809Y-145079867D01*
X111043809Y-145079867D02*
X110948571Y-145222724D01*
X110948571Y-145222724D02*
X110853333Y-145317962D01*
X110853333Y-145317962D02*
X110758095Y-145365581D01*
X111805714Y-146079867D02*
X111996190Y-146079867D01*
X111996190Y-146079867D02*
X112091428Y-146032248D01*
X112091428Y-146032248D02*
X112139047Y-145984628D01*
X112139047Y-145984628D02*
X112234285Y-145841771D01*
X112234285Y-145841771D02*
X112281904Y-145651295D01*
X112281904Y-145651295D02*
X112281904Y-145270343D01*
X112281904Y-145270343D02*
X112234285Y-145175105D01*
X112234285Y-145175105D02*
X112186666Y-145127486D01*
X112186666Y-145127486D02*
X112091428Y-145079867D01*
X112091428Y-145079867D02*
X111900952Y-145079867D01*
X111900952Y-145079867D02*
X111805714Y-145127486D01*
X111805714Y-145127486D02*
X111758095Y-145175105D01*
X111758095Y-145175105D02*
X111710476Y-145270343D01*
X111710476Y-145270343D02*
X111710476Y-145508438D01*
X111710476Y-145508438D02*
X111758095Y-145603676D01*
X111758095Y-145603676D02*
X111805714Y-145651295D01*
X111805714Y-145651295D02*
X111900952Y-145698914D01*
X111900952Y-145698914D02*
X112091428Y-145698914D01*
X112091428Y-145698914D02*
X112186666Y-145651295D01*
X112186666Y-145651295D02*
X112234285Y-145603676D01*
X112234285Y-145603676D02*
X112281904Y-145508438D01*
X110577142Y-150879867D02*
X110243809Y-150403676D01*
X110005714Y-150879867D02*
X110005714Y-149879867D01*
X110005714Y-149879867D02*
X110386666Y-149879867D01*
X110386666Y-149879867D02*
X110481904Y-149927486D01*
X110481904Y-149927486D02*
X110529523Y-149975105D01*
X110529523Y-149975105D02*
X110577142Y-150070343D01*
X110577142Y-150070343D02*
X110577142Y-150213200D01*
X110577142Y-150213200D02*
X110529523Y-150308438D01*
X110529523Y-150308438D02*
X110481904Y-150356057D01*
X110481904Y-150356057D02*
X110386666Y-150403676D01*
X110386666Y-150403676D02*
X110005714Y-150403676D01*
X110958095Y-149975105D02*
X111005714Y-149927486D01*
X111005714Y-149927486D02*
X111100952Y-149879867D01*
X111100952Y-149879867D02*
X111339047Y-149879867D01*
X111339047Y-149879867D02*
X111434285Y-149927486D01*
X111434285Y-149927486D02*
X111481904Y-149975105D01*
X111481904Y-149975105D02*
X111529523Y-150070343D01*
X111529523Y-150070343D02*
X111529523Y-150165581D01*
X111529523Y-150165581D02*
X111481904Y-150308438D01*
X111481904Y-150308438D02*
X110910476Y-150879867D01*
X110910476Y-150879867D02*
X111529523Y-150879867D01*
X112148571Y-149879867D02*
X112243809Y-149879867D01*
X112243809Y-149879867D02*
X112339047Y-149927486D01*
X112339047Y-149927486D02*
X112386666Y-149975105D01*
X112386666Y-149975105D02*
X112434285Y-150070343D01*
X112434285Y-150070343D02*
X112481904Y-150260819D01*
X112481904Y-150260819D02*
X112481904Y-150498914D01*
X112481904Y-150498914D02*
X112434285Y-150689390D01*
X112434285Y-150689390D02*
X112386666Y-150784628D01*
X112386666Y-150784628D02*
X112339047Y-150832248D01*
X112339047Y-150832248D02*
X112243809Y-150879867D01*
X112243809Y-150879867D02*
X112148571Y-150879867D01*
X112148571Y-150879867D02*
X112053333Y-150832248D01*
X112053333Y-150832248D02*
X112005714Y-150784628D01*
X112005714Y-150784628D02*
X111958095Y-150689390D01*
X111958095Y-150689390D02*
X111910476Y-150498914D01*
X111910476Y-150498914D02*
X111910476Y-150260819D01*
X111910476Y-150260819D02*
X111958095Y-150070343D01*
X111958095Y-150070343D02*
X112005714Y-149975105D01*
X112005714Y-149975105D02*
X112053333Y-149927486D01*
X112053333Y-149927486D02*
X112148571Y-149879867D01*
X107033333Y-81180184D02*
X106985714Y-81227804D01*
X106985714Y-81227804D02*
X106842857Y-81275423D01*
X106842857Y-81275423D02*
X106747619Y-81275423D01*
X106747619Y-81275423D02*
X106604762Y-81227804D01*
X106604762Y-81227804D02*
X106509524Y-81132565D01*
X106509524Y-81132565D02*
X106461905Y-81037327D01*
X106461905Y-81037327D02*
X106414286Y-80846851D01*
X106414286Y-80846851D02*
X106414286Y-80703994D01*
X106414286Y-80703994D02*
X106461905Y-80513518D01*
X106461905Y-80513518D02*
X106509524Y-80418280D01*
X106509524Y-80418280D02*
X106604762Y-80323042D01*
X106604762Y-80323042D02*
X106747619Y-80275423D01*
X106747619Y-80275423D02*
X106842857Y-80275423D01*
X106842857Y-80275423D02*
X106985714Y-80323042D01*
X106985714Y-80323042D02*
X107033333Y-80370661D01*
X107938095Y-80275423D02*
X107461905Y-80275423D01*
X107461905Y-80275423D02*
X107414286Y-80751613D01*
X107414286Y-80751613D02*
X107461905Y-80703994D01*
X107461905Y-80703994D02*
X107557143Y-80656375D01*
X107557143Y-80656375D02*
X107795238Y-80656375D01*
X107795238Y-80656375D02*
X107890476Y-80703994D01*
X107890476Y-80703994D02*
X107938095Y-80751613D01*
X107938095Y-80751613D02*
X107985714Y-80846851D01*
X107985714Y-80846851D02*
X107985714Y-81084946D01*
X107985714Y-81084946D02*
X107938095Y-81180184D01*
X107938095Y-81180184D02*
X107890476Y-81227804D01*
X107890476Y-81227804D02*
X107795238Y-81275423D01*
X107795238Y-81275423D02*
X107557143Y-81275423D01*
X107557143Y-81275423D02*
X107461905Y-81227804D01*
X107461905Y-81227804D02*
X107414286Y-81180184D01*
X95026721Y-51408976D02*
X95026721Y-52218499D01*
X95026721Y-52218499D02*
X95074340Y-52313737D01*
X95074340Y-52313737D02*
X95121959Y-52361357D01*
X95121959Y-52361357D02*
X95217197Y-52408976D01*
X95217197Y-52408976D02*
X95407673Y-52408976D01*
X95407673Y-52408976D02*
X95502911Y-52361357D01*
X95502911Y-52361357D02*
X95550530Y-52313737D01*
X95550530Y-52313737D02*
X95598149Y-52218499D01*
X95598149Y-52218499D02*
X95598149Y-51408976D01*
X96026721Y-51504214D02*
X96074340Y-51456595D01*
X96074340Y-51456595D02*
X96169578Y-51408976D01*
X96169578Y-51408976D02*
X96407673Y-51408976D01*
X96407673Y-51408976D02*
X96502911Y-51456595D01*
X96502911Y-51456595D02*
X96550530Y-51504214D01*
X96550530Y-51504214D02*
X96598149Y-51599452D01*
X96598149Y-51599452D02*
X96598149Y-51694690D01*
X96598149Y-51694690D02*
X96550530Y-51837547D01*
X96550530Y-51837547D02*
X95979102Y-52408976D01*
X95979102Y-52408976D02*
X96598149Y-52408976D01*
X93037142Y-148508976D02*
X92703809Y-148032785D01*
X92465714Y-148508976D02*
X92465714Y-147508976D01*
X92465714Y-147508976D02*
X92846666Y-147508976D01*
X92846666Y-147508976D02*
X92941904Y-147556595D01*
X92941904Y-147556595D02*
X92989523Y-147604214D01*
X92989523Y-147604214D02*
X93037142Y-147699452D01*
X93037142Y-147699452D02*
X93037142Y-147842309D01*
X93037142Y-147842309D02*
X92989523Y-147937547D01*
X92989523Y-147937547D02*
X92941904Y-147985166D01*
X92941904Y-147985166D02*
X92846666Y-148032785D01*
X92846666Y-148032785D02*
X92465714Y-148032785D01*
X93989523Y-148508976D02*
X93418095Y-148508976D01*
X93703809Y-148508976D02*
X93703809Y-147508976D01*
X93703809Y-147508976D02*
X93608571Y-147651833D01*
X93608571Y-147651833D02*
X93513333Y-147747071D01*
X93513333Y-147747071D02*
X93418095Y-147794690D01*
X94846666Y-147508976D02*
X94656190Y-147508976D01*
X94656190Y-147508976D02*
X94560952Y-147556595D01*
X94560952Y-147556595D02*
X94513333Y-147604214D01*
X94513333Y-147604214D02*
X94418095Y-147747071D01*
X94418095Y-147747071D02*
X94370476Y-147937547D01*
X94370476Y-147937547D02*
X94370476Y-148318499D01*
X94370476Y-148318499D02*
X94418095Y-148413737D01*
X94418095Y-148413737D02*
X94465714Y-148461357D01*
X94465714Y-148461357D02*
X94560952Y-148508976D01*
X94560952Y-148508976D02*
X94751428Y-148508976D01*
X94751428Y-148508976D02*
X94846666Y-148461357D01*
X94846666Y-148461357D02*
X94894285Y-148413737D01*
X94894285Y-148413737D02*
X94941904Y-148318499D01*
X94941904Y-148318499D02*
X94941904Y-148080404D01*
X94941904Y-148080404D02*
X94894285Y-147985166D01*
X94894285Y-147985166D02*
X94846666Y-147937547D01*
X94846666Y-147937547D02*
X94751428Y-147889928D01*
X94751428Y-147889928D02*
X94560952Y-147889928D01*
X94560952Y-147889928D02*
X94465714Y-147937547D01*
X94465714Y-147937547D02*
X94418095Y-147985166D01*
X94418095Y-147985166D02*
X94370476Y-148080404D01*
X89231959Y-80983737D02*
X89184340Y-81031357D01*
X89184340Y-81031357D02*
X89041483Y-81078976D01*
X89041483Y-81078976D02*
X88946245Y-81078976D01*
X88946245Y-81078976D02*
X88803388Y-81031357D01*
X88803388Y-81031357D02*
X88708150Y-80936118D01*
X88708150Y-80936118D02*
X88660531Y-80840880D01*
X88660531Y-80840880D02*
X88612912Y-80650404D01*
X88612912Y-80650404D02*
X88612912Y-80507547D01*
X88612912Y-80507547D02*
X88660531Y-80317071D01*
X88660531Y-80317071D02*
X88708150Y-80221833D01*
X88708150Y-80221833D02*
X88803388Y-80126595D01*
X88803388Y-80126595D02*
X88946245Y-80078976D01*
X88946245Y-80078976D02*
X89041483Y-80078976D01*
X89041483Y-80078976D02*
X89184340Y-80126595D01*
X89184340Y-80126595D02*
X89231959Y-80174214D01*
X90089102Y-80412309D02*
X90089102Y-81078976D01*
X89851007Y-80031357D02*
X89612912Y-80745642D01*
X89612912Y-80745642D02*
X90231959Y-80745642D01*
X100431959Y-114178976D02*
X100098626Y-113702785D01*
X99860531Y-114178976D02*
X99860531Y-113178976D01*
X99860531Y-113178976D02*
X100241483Y-113178976D01*
X100241483Y-113178976D02*
X100336721Y-113226595D01*
X100336721Y-113226595D02*
X100384340Y-113274214D01*
X100384340Y-113274214D02*
X100431959Y-113369452D01*
X100431959Y-113369452D02*
X100431959Y-113512309D01*
X100431959Y-113512309D02*
X100384340Y-113607547D01*
X100384340Y-113607547D02*
X100336721Y-113655166D01*
X100336721Y-113655166D02*
X100241483Y-113702785D01*
X100241483Y-113702785D02*
X99860531Y-113702785D01*
X101289102Y-113512309D02*
X101289102Y-114178976D01*
X101051007Y-113131357D02*
X100812912Y-113845642D01*
X100812912Y-113845642D02*
X101431959Y-113845642D01*
X93137142Y-153508976D02*
X92803809Y-153032785D01*
X92565714Y-153508976D02*
X92565714Y-152508976D01*
X92565714Y-152508976D02*
X92946666Y-152508976D01*
X92946666Y-152508976D02*
X93041904Y-152556595D01*
X93041904Y-152556595D02*
X93089523Y-152604214D01*
X93089523Y-152604214D02*
X93137142Y-152699452D01*
X93137142Y-152699452D02*
X93137142Y-152842309D01*
X93137142Y-152842309D02*
X93089523Y-152937547D01*
X93089523Y-152937547D02*
X93041904Y-152985166D01*
X93041904Y-152985166D02*
X92946666Y-153032785D01*
X92946666Y-153032785D02*
X92565714Y-153032785D01*
X94089523Y-153508976D02*
X93518095Y-153508976D01*
X93803809Y-153508976D02*
X93803809Y-152508976D01*
X93803809Y-152508976D02*
X93708571Y-152651833D01*
X93708571Y-152651833D02*
X93613333Y-152747071D01*
X93613333Y-152747071D02*
X93518095Y-152794690D01*
X94422857Y-152508976D02*
X95089523Y-152508976D01*
X95089523Y-152508976D02*
X94660952Y-153508976D01*
X111447142Y-138078976D02*
X111113809Y-137602785D01*
X110875714Y-138078976D02*
X110875714Y-137078976D01*
X110875714Y-137078976D02*
X111256666Y-137078976D01*
X111256666Y-137078976D02*
X111351904Y-137126595D01*
X111351904Y-137126595D02*
X111399523Y-137174214D01*
X111399523Y-137174214D02*
X111447142Y-137269452D01*
X111447142Y-137269452D02*
X111447142Y-137412309D01*
X111447142Y-137412309D02*
X111399523Y-137507547D01*
X111399523Y-137507547D02*
X111351904Y-137555166D01*
X111351904Y-137555166D02*
X111256666Y-137602785D01*
X111256666Y-137602785D02*
X110875714Y-137602785D01*
X112399523Y-138078976D02*
X111828095Y-138078976D01*
X112113809Y-138078976D02*
X112113809Y-137078976D01*
X112113809Y-137078976D02*
X112018571Y-137221833D01*
X112018571Y-137221833D02*
X111923333Y-137317071D01*
X111923333Y-137317071D02*
X111828095Y-137364690D01*
X113351904Y-138078976D02*
X112780476Y-138078976D01*
X113066190Y-138078976D02*
X113066190Y-137078976D01*
X113066190Y-137078976D02*
X112970952Y-137221833D01*
X112970952Y-137221833D02*
X112875714Y-137317071D01*
X112875714Y-137317071D02*
X112780476Y-137364690D01*
X104931959Y-51983737D02*
X104884340Y-52031357D01*
X104884340Y-52031357D02*
X104741483Y-52078976D01*
X104741483Y-52078976D02*
X104646245Y-52078976D01*
X104646245Y-52078976D02*
X104503388Y-52031357D01*
X104503388Y-52031357D02*
X104408150Y-51936118D01*
X104408150Y-51936118D02*
X104360531Y-51840880D01*
X104360531Y-51840880D02*
X104312912Y-51650404D01*
X104312912Y-51650404D02*
X104312912Y-51507547D01*
X104312912Y-51507547D02*
X104360531Y-51317071D01*
X104360531Y-51317071D02*
X104408150Y-51221833D01*
X104408150Y-51221833D02*
X104503388Y-51126595D01*
X104503388Y-51126595D02*
X104646245Y-51078976D01*
X104646245Y-51078976D02*
X104741483Y-51078976D01*
X104741483Y-51078976D02*
X104884340Y-51126595D01*
X104884340Y-51126595D02*
X104931959Y-51174214D01*
X105265293Y-51078976D02*
X105884340Y-51078976D01*
X105884340Y-51078976D02*
X105551007Y-51459928D01*
X105551007Y-51459928D02*
X105693864Y-51459928D01*
X105693864Y-51459928D02*
X105789102Y-51507547D01*
X105789102Y-51507547D02*
X105836721Y-51555166D01*
X105836721Y-51555166D02*
X105884340Y-51650404D01*
X105884340Y-51650404D02*
X105884340Y-51888499D01*
X105884340Y-51888499D02*
X105836721Y-51983737D01*
X105836721Y-51983737D02*
X105789102Y-52031357D01*
X105789102Y-52031357D02*
X105693864Y-52078976D01*
X105693864Y-52078976D02*
X105408150Y-52078976D01*
X105408150Y-52078976D02*
X105312912Y-52031357D01*
X105312912Y-52031357D02*
X105265293Y-51983737D01*
X92536721Y-79378976D02*
X92536721Y-80188499D01*
X92536721Y-80188499D02*
X92584340Y-80283737D01*
X92584340Y-80283737D02*
X92631959Y-80331357D01*
X92631959Y-80331357D02*
X92727197Y-80378976D01*
X92727197Y-80378976D02*
X92917673Y-80378976D01*
X92917673Y-80378976D02*
X93012911Y-80331357D01*
X93012911Y-80331357D02*
X93060530Y-80283737D01*
X93060530Y-80283737D02*
X93108149Y-80188499D01*
X93108149Y-80188499D02*
X93108149Y-79378976D01*
X94012911Y-79712309D02*
X94012911Y-80378976D01*
X93774816Y-79331357D02*
X93536721Y-80045642D01*
X93536721Y-80045642D02*
X94155768Y-80045642D01*
X111447142Y-129378976D02*
X111113809Y-128902785D01*
X110875714Y-129378976D02*
X110875714Y-128378976D01*
X110875714Y-128378976D02*
X111256666Y-128378976D01*
X111256666Y-128378976D02*
X111351904Y-128426595D01*
X111351904Y-128426595D02*
X111399523Y-128474214D01*
X111399523Y-128474214D02*
X111447142Y-128569452D01*
X111447142Y-128569452D02*
X111447142Y-128712309D01*
X111447142Y-128712309D02*
X111399523Y-128807547D01*
X111399523Y-128807547D02*
X111351904Y-128855166D01*
X111351904Y-128855166D02*
X111256666Y-128902785D01*
X111256666Y-128902785D02*
X110875714Y-128902785D01*
X112399523Y-129378976D02*
X111828095Y-129378976D01*
X112113809Y-129378976D02*
X112113809Y-128378976D01*
X112113809Y-128378976D02*
X112018571Y-128521833D01*
X112018571Y-128521833D02*
X111923333Y-128617071D01*
X111923333Y-128617071D02*
X111828095Y-128664690D01*
X112732857Y-128378976D02*
X113351904Y-128378976D01*
X113351904Y-128378976D02*
X113018571Y-128759928D01*
X113018571Y-128759928D02*
X113161428Y-128759928D01*
X113161428Y-128759928D02*
X113256666Y-128807547D01*
X113256666Y-128807547D02*
X113304285Y-128855166D01*
X113304285Y-128855166D02*
X113351904Y-128950404D01*
X113351904Y-128950404D02*
X113351904Y-129188499D01*
X113351904Y-129188499D02*
X113304285Y-129283737D01*
X113304285Y-129283737D02*
X113256666Y-129331357D01*
X113256666Y-129331357D02*
X113161428Y-129378976D01*
X113161428Y-129378976D02*
X112875714Y-129378976D01*
X112875714Y-129378976D02*
X112780476Y-129331357D01*
X112780476Y-129331357D02*
X112732857Y-129283737D01*
X109857142Y-91075423D02*
X109523809Y-90599232D01*
X109285714Y-91075423D02*
X109285714Y-90075423D01*
X109285714Y-90075423D02*
X109666666Y-90075423D01*
X109666666Y-90075423D02*
X109761904Y-90123042D01*
X109761904Y-90123042D02*
X109809523Y-90170661D01*
X109809523Y-90170661D02*
X109857142Y-90265899D01*
X109857142Y-90265899D02*
X109857142Y-90408756D01*
X109857142Y-90408756D02*
X109809523Y-90503994D01*
X109809523Y-90503994D02*
X109761904Y-90551613D01*
X109761904Y-90551613D02*
X109666666Y-90599232D01*
X109666666Y-90599232D02*
X109285714Y-90599232D01*
X110238095Y-90170661D02*
X110285714Y-90123042D01*
X110285714Y-90123042D02*
X110380952Y-90075423D01*
X110380952Y-90075423D02*
X110619047Y-90075423D01*
X110619047Y-90075423D02*
X110714285Y-90123042D01*
X110714285Y-90123042D02*
X110761904Y-90170661D01*
X110761904Y-90170661D02*
X110809523Y-90265899D01*
X110809523Y-90265899D02*
X110809523Y-90361137D01*
X110809523Y-90361137D02*
X110761904Y-90503994D01*
X110761904Y-90503994D02*
X110190476Y-91075423D01*
X110190476Y-91075423D02*
X110809523Y-91075423D01*
X111142857Y-90075423D02*
X111761904Y-90075423D01*
X111761904Y-90075423D02*
X111428571Y-90456375D01*
X111428571Y-90456375D02*
X111571428Y-90456375D01*
X111571428Y-90456375D02*
X111666666Y-90503994D01*
X111666666Y-90503994D02*
X111714285Y-90551613D01*
X111714285Y-90551613D02*
X111761904Y-90646851D01*
X111761904Y-90646851D02*
X111761904Y-90884946D01*
X111761904Y-90884946D02*
X111714285Y-90980184D01*
X111714285Y-90980184D02*
X111666666Y-91027804D01*
X111666666Y-91027804D02*
X111571428Y-91075423D01*
X111571428Y-91075423D02*
X111285714Y-91075423D01*
X111285714Y-91075423D02*
X111190476Y-91027804D01*
X111190476Y-91027804D02*
X111142857Y-90980184D01*
X106333333Y-103375423D02*
X106000000Y-102899232D01*
X105761905Y-103375423D02*
X105761905Y-102375423D01*
X105761905Y-102375423D02*
X106142857Y-102375423D01*
X106142857Y-102375423D02*
X106238095Y-102423042D01*
X106238095Y-102423042D02*
X106285714Y-102470661D01*
X106285714Y-102470661D02*
X106333333Y-102565899D01*
X106333333Y-102565899D02*
X106333333Y-102708756D01*
X106333333Y-102708756D02*
X106285714Y-102803994D01*
X106285714Y-102803994D02*
X106238095Y-102851613D01*
X106238095Y-102851613D02*
X106142857Y-102899232D01*
X106142857Y-102899232D02*
X105761905Y-102899232D01*
X106666667Y-102375423D02*
X107285714Y-102375423D01*
X107285714Y-102375423D02*
X106952381Y-102756375D01*
X106952381Y-102756375D02*
X107095238Y-102756375D01*
X107095238Y-102756375D02*
X107190476Y-102803994D01*
X107190476Y-102803994D02*
X107238095Y-102851613D01*
X107238095Y-102851613D02*
X107285714Y-102946851D01*
X107285714Y-102946851D02*
X107285714Y-103184946D01*
X107285714Y-103184946D02*
X107238095Y-103280184D01*
X107238095Y-103280184D02*
X107190476Y-103327804D01*
X107190476Y-103327804D02*
X107095238Y-103375423D01*
X107095238Y-103375423D02*
X106809524Y-103375423D01*
X106809524Y-103375423D02*
X106714286Y-103327804D01*
X106714286Y-103327804D02*
X106666667Y-103280184D01*
X79765292Y-89878976D02*
X79765292Y-90593261D01*
X79765292Y-90593261D02*
X79717673Y-90736118D01*
X79717673Y-90736118D02*
X79622435Y-90831357D01*
X79622435Y-90831357D02*
X79479578Y-90878976D01*
X79479578Y-90878976D02*
X79384340Y-90878976D01*
X80670054Y-90212309D02*
X80670054Y-90878976D01*
X80431959Y-89831357D02*
X80193864Y-90545642D01*
X80193864Y-90545642D02*
X80812911Y-90545642D01*
X117461905Y-100175423D02*
X117461905Y-99175423D01*
X117461905Y-99175423D02*
X117700000Y-99175423D01*
X117700000Y-99175423D02*
X117842857Y-99223042D01*
X117842857Y-99223042D02*
X117938095Y-99318280D01*
X117938095Y-99318280D02*
X117985714Y-99413518D01*
X117985714Y-99413518D02*
X118033333Y-99603994D01*
X118033333Y-99603994D02*
X118033333Y-99746851D01*
X118033333Y-99746851D02*
X117985714Y-99937327D01*
X117985714Y-99937327D02*
X117938095Y-100032565D01*
X117938095Y-100032565D02*
X117842857Y-100127804D01*
X117842857Y-100127804D02*
X117700000Y-100175423D01*
X117700000Y-100175423D02*
X117461905Y-100175423D01*
X118985714Y-100175423D02*
X118414286Y-100175423D01*
X118700000Y-100175423D02*
X118700000Y-99175423D01*
X118700000Y-99175423D02*
X118604762Y-99318280D01*
X118604762Y-99318280D02*
X118509524Y-99413518D01*
X118509524Y-99413518D02*
X118414286Y-99461137D01*
X112538095Y-99975423D02*
X112538095Y-98975423D01*
X113109523Y-99975423D02*
X112680952Y-99403994D01*
X113109523Y-98975423D02*
X112538095Y-99546851D01*
X91494221Y-90198976D02*
X91494221Y-91008499D01*
X91494221Y-91008499D02*
X91541840Y-91103737D01*
X91541840Y-91103737D02*
X91589459Y-91151357D01*
X91589459Y-91151357D02*
X91684697Y-91198976D01*
X91684697Y-91198976D02*
X91875173Y-91198976D01*
X91875173Y-91198976D02*
X91970411Y-91151357D01*
X91970411Y-91151357D02*
X92018030Y-91103737D01*
X92018030Y-91103737D02*
X92065649Y-91008499D01*
X92065649Y-91008499D02*
X92065649Y-90198976D01*
X93065649Y-91198976D02*
X92494221Y-91198976D01*
X92779935Y-91198976D02*
X92779935Y-90198976D01*
X92779935Y-90198976D02*
X92684697Y-90341833D01*
X92684697Y-90341833D02*
X92589459Y-90437071D01*
X92589459Y-90437071D02*
X92494221Y-90484690D01*
X79765292Y-112879867D02*
X79765292Y-113594152D01*
X79765292Y-113594152D02*
X79717673Y-113737009D01*
X79717673Y-113737009D02*
X79622435Y-113832248D01*
X79622435Y-113832248D02*
X79479578Y-113879867D01*
X79479578Y-113879867D02*
X79384340Y-113879867D01*
X80717673Y-112879867D02*
X80241483Y-112879867D01*
X80241483Y-112879867D02*
X80193864Y-113356057D01*
X80193864Y-113356057D02*
X80241483Y-113308438D01*
X80241483Y-113308438D02*
X80336721Y-113260819D01*
X80336721Y-113260819D02*
X80574816Y-113260819D01*
X80574816Y-113260819D02*
X80670054Y-113308438D01*
X80670054Y-113308438D02*
X80717673Y-113356057D01*
X80717673Y-113356057D02*
X80765292Y-113451295D01*
X80765292Y-113451295D02*
X80765292Y-113689390D01*
X80765292Y-113689390D02*
X80717673Y-113784628D01*
X80717673Y-113784628D02*
X80670054Y-113832248D01*
X80670054Y-113832248D02*
X80574816Y-113879867D01*
X80574816Y-113879867D02*
X80336721Y-113879867D01*
X80336721Y-113879867D02*
X80241483Y-113832248D01*
X80241483Y-113832248D02*
X80193864Y-113784628D01*
X106631959Y-108078976D02*
X106298626Y-107602785D01*
X106060531Y-108078976D02*
X106060531Y-107078976D01*
X106060531Y-107078976D02*
X106441483Y-107078976D01*
X106441483Y-107078976D02*
X106536721Y-107126595D01*
X106536721Y-107126595D02*
X106584340Y-107174214D01*
X106584340Y-107174214D02*
X106631959Y-107269452D01*
X106631959Y-107269452D02*
X106631959Y-107412309D01*
X106631959Y-107412309D02*
X106584340Y-107507547D01*
X106584340Y-107507547D02*
X106536721Y-107555166D01*
X106536721Y-107555166D02*
X106441483Y-107602785D01*
X106441483Y-107602785D02*
X106060531Y-107602785D01*
X107012912Y-107174214D02*
X107060531Y-107126595D01*
X107060531Y-107126595D02*
X107155769Y-107078976D01*
X107155769Y-107078976D02*
X107393864Y-107078976D01*
X107393864Y-107078976D02*
X107489102Y-107126595D01*
X107489102Y-107126595D02*
X107536721Y-107174214D01*
X107536721Y-107174214D02*
X107584340Y-107269452D01*
X107584340Y-107269452D02*
X107584340Y-107364690D01*
X107584340Y-107364690D02*
X107536721Y-107507547D01*
X107536721Y-107507547D02*
X106965293Y-108078976D01*
X106965293Y-108078976D02*
X107584340Y-108078976D01*
D12*
%TO.C,J6*%
X123728626Y-70904157D02*
X124338626Y-70464157D01*
X124338626Y-71344157D01*
X123728626Y-70904157D01*
G36*
X124338626Y-71344157D02*
G01*
X123728626Y-70904157D01*
X124338626Y-70464157D01*
X124338626Y-71344157D01*
G37*
X123728626Y-73564157D02*
X113688626Y-73564157D01*
X123728626Y-71204157D02*
X123728626Y-73564157D01*
X123728626Y-53004157D02*
X123728626Y-70604157D01*
X123108626Y-73564157D02*
X123108626Y-53004157D01*
X121608626Y-73564157D02*
X121608626Y-53004157D01*
X116708626Y-73564157D02*
X116708626Y-53004157D01*
X113688626Y-73564157D02*
X113688626Y-53004157D01*
X113688626Y-53004157D02*
X123728626Y-53004157D01*
%TO.C,R15*%
X96750000Y-146994157D02*
X96750000Y-146664157D01*
X96750000Y-144254157D02*
X96750000Y-144584157D01*
X90210000Y-146994157D02*
X96750000Y-146994157D01*
X90210000Y-146664157D02*
X90210000Y-146994157D01*
X90210000Y-144584157D02*
X90210000Y-144254157D01*
X90210000Y-144254157D02*
X96750000Y-144254157D01*
%TO.C,C2*%
X106090000Y-118774157D02*
X100850000Y-118774157D01*
X106090000Y-118437157D02*
X106090000Y-118774157D01*
X106090000Y-116034157D02*
X106090000Y-116371157D01*
X100850000Y-118774157D02*
X100850000Y-118437157D01*
X100850000Y-116371157D02*
X100850000Y-116034157D01*
X100850000Y-116034157D02*
X106090000Y-116034157D01*
%TO.C,J1*%
X123798626Y-87134157D02*
X124408626Y-86694157D01*
X124408626Y-87574157D01*
X123798626Y-87134157D01*
G36*
X124408626Y-87574157D02*
G01*
X123798626Y-87134157D01*
X124408626Y-86694157D01*
X124408626Y-87574157D01*
G37*
X123798626Y-89794157D02*
X113758626Y-89794157D01*
X123798626Y-87434157D02*
X123798626Y-89794157D01*
X123798626Y-79394157D02*
X123798626Y-86834157D01*
X123178626Y-89794157D02*
X123178626Y-79394157D01*
X121678626Y-89794157D02*
X121678626Y-79394157D01*
X116778626Y-89794157D02*
X116778626Y-79394157D01*
X113758626Y-89794157D02*
X113758626Y-79394157D01*
X113758626Y-79394157D02*
X123798626Y-79394157D01*
%TO.C,R12*%
X108500000Y-135084157D02*
X108500000Y-134754157D01*
X108500000Y-132344157D02*
X108500000Y-132674157D01*
X101960000Y-135084157D02*
X108500000Y-135084157D01*
X101960000Y-134754157D02*
X101960000Y-135084157D01*
X101960000Y-132674157D02*
X101960000Y-132344157D01*
X101960000Y-132344157D02*
X108500000Y-132344157D01*
%TO.C,C1*%
X104046126Y-94354157D02*
X98806126Y-94354157D01*
X104046126Y-94017157D02*
X104046126Y-94354157D01*
X104046126Y-91614157D02*
X104046126Y-91951157D01*
X98806126Y-94354157D02*
X98806126Y-94017157D01*
X98806126Y-91951157D02*
X98806126Y-91614157D01*
X98806126Y-91614157D02*
X104046126Y-91614157D01*
%TO.C,R18*%
X96960000Y-161694157D02*
X96960000Y-161364157D01*
X96960000Y-158954157D02*
X96960000Y-159284157D01*
X90420000Y-161694157D02*
X96960000Y-161694157D01*
X90420000Y-161364157D02*
X90420000Y-161694157D01*
X90420000Y-159284157D02*
X90420000Y-158954157D01*
X90420000Y-158954157D02*
X96960000Y-158954157D01*
%TO.C,R7*%
X98828626Y-77124157D02*
X92288626Y-77124157D01*
X98828626Y-76794157D02*
X98828626Y-77124157D01*
X98828626Y-74714157D02*
X98828626Y-74384157D01*
X98828626Y-74384157D02*
X92288626Y-74384157D01*
X92288626Y-77124157D02*
X92288626Y-76794157D01*
X92288626Y-74384157D02*
X92288626Y-74714157D01*
%TO.C,R22*%
X107550000Y-161794157D02*
X107550000Y-161464157D01*
X107550000Y-159054157D02*
X107550000Y-159384157D01*
X101010000Y-161794157D02*
X107550000Y-161794157D01*
X101010000Y-161464157D02*
X101010000Y-161794157D01*
X101010000Y-159384157D02*
X101010000Y-159054157D01*
X101010000Y-159054157D02*
X107550000Y-159054157D01*
%TO.C,J2*%
X123908626Y-162964157D02*
X124518626Y-162524157D01*
X124518626Y-163404157D01*
X123908626Y-162964157D01*
G36*
X124518626Y-163404157D02*
G01*
X123908626Y-162964157D01*
X124518626Y-162524157D01*
X124518626Y-163404157D01*
G37*
X123908626Y-165624157D02*
X113868626Y-165624157D01*
X123908626Y-163264157D02*
X123908626Y-165624157D01*
X123908626Y-109504157D02*
X123908626Y-162664157D01*
X123288626Y-165624157D02*
X123288626Y-109504157D01*
X121788626Y-165624157D02*
X121788626Y-109504157D01*
X116888626Y-165624157D02*
X116888626Y-109504157D01*
X113868626Y-165624157D02*
X113868626Y-109504157D01*
X113868626Y-109504157D02*
X123908626Y-109504157D01*
%TO.C,R24*%
X116360000Y-77760604D02*
X116360000Y-77430604D01*
X116360000Y-75020604D02*
X116360000Y-75350604D01*
X109820000Y-77760604D02*
X116360000Y-77760604D01*
X109820000Y-77430604D02*
X109820000Y-77760604D01*
X109820000Y-75350604D02*
X109820000Y-75020604D01*
X109820000Y-75020604D02*
X116360000Y-75020604D01*
%TO.C,D3*%
X123230000Y-77656120D02*
G75*
G02*
X119998563Y-77500604I-1560000J1235516D01*
G01*
X122710961Y-77500604D02*
G75*
G02*
X120629039Y-77500604I-1040961J1080000D01*
G01*
X120629039Y-75340604D02*
G75*
G02*
X122710961Y-75340604I1040961J-1080000D01*
G01*
X119998563Y-75340604D02*
G75*
G02*
X123230000Y-75185088I1671437J-1080000D01*
G01*
X123230000Y-77656604D02*
X123230000Y-77500604D01*
X123230000Y-75340604D02*
X123230000Y-75184604D01*
%TO.C,U3*%
X93080000Y-139174157D02*
G75*
G02*
X95080000Y-139174157I1000000J0D01*
G01*
X88940000Y-116134157D02*
X99220000Y-116134157D01*
X99220000Y-139234157D01*
X88940000Y-139234157D01*
X88940000Y-116134157D01*
X96730000Y-139174157D02*
X96730000Y-116194157D01*
X96730000Y-116194157D02*
X91430000Y-116194157D01*
X95080000Y-139174157D02*
X96730000Y-139174157D01*
X91430000Y-139174157D02*
X93080000Y-139174157D01*
X91430000Y-116194157D02*
X91430000Y-139174157D01*
%TO.C,D2*%
X123330000Y-94056120D02*
G75*
G02*
X120098563Y-93900604I-1560000J1235516D01*
G01*
X122810961Y-93900604D02*
G75*
G02*
X120729039Y-93900604I-1040961J1080000D01*
G01*
X120729039Y-91740604D02*
G75*
G02*
X122810961Y-91740604I1040961J-1080000D01*
G01*
X120098563Y-91740604D02*
G75*
G02*
X123330000Y-91585088I1671437J-1080000D01*
G01*
X123330000Y-94056604D02*
X123330000Y-93900604D01*
X123330000Y-91740604D02*
X123330000Y-91584604D01*
%TO.C,R5*%
X89468626Y-60794157D02*
X89468626Y-54254157D01*
X89468626Y-54254157D02*
X89138626Y-54254157D01*
X89138626Y-60794157D02*
X89468626Y-60794157D01*
X87058626Y-60794157D02*
X86728626Y-60794157D01*
X86728626Y-60794157D02*
X86728626Y-54254157D01*
X86728626Y-54254157D02*
X87058626Y-54254157D01*
%TO.C,R6*%
X89468626Y-71194157D02*
X89138626Y-71194157D01*
X89468626Y-64654157D02*
X89468626Y-71194157D01*
X89138626Y-64654157D02*
X89468626Y-64654157D01*
X87058626Y-64654157D02*
X86728626Y-64654157D01*
X86728626Y-71194157D02*
X87058626Y-71194157D01*
X86728626Y-64654157D02*
X86728626Y-71194157D01*
%TO.C,R14*%
X108410000Y-125814157D02*
X108410000Y-125484157D01*
X108410000Y-123074157D02*
X108410000Y-123404157D01*
X101870000Y-125814157D02*
X108410000Y-125814157D01*
X101870000Y-125484157D02*
X101870000Y-125814157D01*
X101870000Y-123404157D02*
X101870000Y-123074157D01*
X101870000Y-123074157D02*
X108410000Y-123074157D01*
%TO.C,R10*%
X110368626Y-69994157D02*
X110368626Y-69664157D01*
X110368626Y-67254157D02*
X110368626Y-67584157D01*
X103828626Y-69994157D02*
X110368626Y-69994157D01*
X103828626Y-69664157D02*
X103828626Y-69994157D01*
X103828626Y-67584157D02*
X103828626Y-67254157D01*
X103828626Y-67254157D02*
X110368626Y-67254157D01*
%TO.C,R1*%
X106996126Y-98354157D02*
X100456126Y-98354157D01*
X106996126Y-98024157D02*
X106996126Y-98354157D01*
X106996126Y-95944157D02*
X106996126Y-95614157D01*
X106996126Y-95614157D02*
X100456126Y-95614157D01*
X100456126Y-98354157D02*
X100456126Y-98024157D01*
X100456126Y-95614157D02*
X100456126Y-95944157D01*
%TO.C,J3*%
X74978626Y-55784157D02*
X74368626Y-56224157D01*
X74368626Y-55344157D01*
X74978626Y-55784157D01*
G36*
X74978626Y-55784157D02*
G01*
X74368626Y-56224157D01*
X74368626Y-55344157D01*
X74978626Y-55784157D01*
G37*
X85018626Y-88924157D02*
X74978626Y-88924157D01*
X85018626Y-53124157D02*
X85018626Y-88924157D01*
X81998626Y-53124157D02*
X81998626Y-88924157D01*
X77098626Y-53124157D02*
X77098626Y-88924157D01*
X75598626Y-53124157D02*
X75598626Y-88924157D01*
X74978626Y-88924157D02*
X74978626Y-56084157D01*
X74978626Y-55484157D02*
X74978626Y-53124157D01*
X74978626Y-53124157D02*
X85018626Y-53124157D01*
%TO.C,R8*%
X110428626Y-61714157D02*
X110428626Y-61384157D01*
X110428626Y-58974157D02*
X110428626Y-59304157D01*
X103888626Y-61714157D02*
X110428626Y-61714157D01*
X103888626Y-61384157D02*
X103888626Y-61714157D01*
X103888626Y-59304157D02*
X103888626Y-58974157D01*
X103888626Y-58974157D02*
X110428626Y-58974157D01*
%TO.C,R21*%
X107550000Y-156794157D02*
X107550000Y-156464157D01*
X107550000Y-154054157D02*
X107550000Y-154384157D01*
X101010000Y-156794157D02*
X107550000Y-156794157D01*
X101010000Y-156464157D02*
X101010000Y-156794157D01*
X101010000Y-154384157D02*
X101010000Y-154054157D01*
X101010000Y-154054157D02*
X107550000Y-154054157D01*
%TO.C,R9*%
X110428626Y-65134157D02*
X110428626Y-64804157D01*
X110428626Y-62394157D02*
X110428626Y-62724157D01*
X103888626Y-65134157D02*
X110428626Y-65134157D01*
X103888626Y-64804157D02*
X103888626Y-65134157D01*
X103888626Y-62724157D02*
X103888626Y-62394157D01*
X103888626Y-62394157D02*
X110428626Y-62394157D01*
%TO.C,R19*%
X107350000Y-146994157D02*
X107350000Y-146664157D01*
X107350000Y-144254157D02*
X107350000Y-144584157D01*
X100810000Y-146994157D02*
X107350000Y-146994157D01*
X100810000Y-146664157D02*
X100810000Y-146994157D01*
X100810000Y-144584157D02*
X100810000Y-144254157D01*
X100810000Y-144254157D02*
X107350000Y-144254157D01*
%TO.C,R20*%
X107640000Y-151694157D02*
X107640000Y-151364157D01*
X107640000Y-148954157D02*
X107640000Y-149284157D01*
X101100000Y-151694157D02*
X107640000Y-151694157D01*
X101100000Y-151364157D02*
X101100000Y-151694157D01*
X101100000Y-149284157D02*
X101100000Y-148954157D01*
X101100000Y-148954157D02*
X107640000Y-148954157D01*
%TO.C,C5*%
X109820000Y-84560604D02*
G75*
G02*
X104580000Y-84560604I-2620000J0D01*
G01*
X104580000Y-84560604D02*
G75*
G02*
X109820000Y-84560604I2620000J0D01*
G01*
%TO.C,U2*%
X96788626Y-52954157D02*
G75*
G02*
X94788626Y-52954157I-1000000J0D01*
G01*
X90648626Y-52894157D02*
X100928626Y-52894157D01*
X100928626Y-73454157D01*
X90648626Y-73454157D01*
X90648626Y-52894157D01*
X98438626Y-73394157D02*
X98438626Y-52954157D01*
X98438626Y-52954157D02*
X96788626Y-52954157D01*
X94788626Y-52954157D02*
X93138626Y-52954157D01*
X93138626Y-73394157D02*
X98438626Y-73394157D01*
X93138626Y-52954157D02*
X93138626Y-73394157D01*
%TO.C,R16*%
X96950000Y-151794157D02*
X96950000Y-151464157D01*
X96950000Y-149054157D02*
X96950000Y-149384157D01*
X90410000Y-151794157D02*
X96950000Y-151794157D01*
X90410000Y-151464157D02*
X90410000Y-151794157D01*
X90410000Y-149384157D02*
X90410000Y-149054157D01*
X90410000Y-149054157D02*
X96950000Y-149054157D01*
%TO.C,C4*%
X90901126Y-87761657D02*
X90564126Y-87761657D01*
X90901126Y-82521657D02*
X90901126Y-87761657D01*
X90564126Y-82521657D02*
X90901126Y-82521657D01*
X88498126Y-87761657D02*
X88161126Y-87761657D01*
X88161126Y-87761657D02*
X88161126Y-82521657D01*
X88161126Y-82521657D02*
X88498126Y-82521657D01*
%TO.C,R4*%
X101786126Y-110944157D02*
X101786126Y-104404157D01*
X101786126Y-104404157D02*
X101456126Y-104404157D01*
X101456126Y-110944157D02*
X101786126Y-110944157D01*
X99376126Y-110944157D02*
X99046126Y-110944157D01*
X99046126Y-110944157D02*
X99046126Y-104404157D01*
X99046126Y-104404157D02*
X99376126Y-104404157D01*
%TO.C,R17*%
X97050000Y-156794157D02*
X97050000Y-156464157D01*
X97050000Y-154054157D02*
X97050000Y-154384157D01*
X90510000Y-156794157D02*
X97050000Y-156794157D01*
X90510000Y-156464157D02*
X90510000Y-156794157D01*
X90510000Y-154384157D02*
X90510000Y-154054157D01*
X90510000Y-154054157D02*
X97050000Y-154054157D01*
%TO.C,R11*%
X108140000Y-139274157D02*
X108140000Y-138944157D01*
X108140000Y-136534157D02*
X108140000Y-136864157D01*
X101600000Y-139274157D02*
X108140000Y-139274157D01*
X101600000Y-138944157D02*
X101600000Y-139274157D01*
X101600000Y-136864157D02*
X101600000Y-136534157D01*
X101600000Y-136534157D02*
X108140000Y-136534157D01*
%TO.C,C3*%
X107718626Y-55494157D02*
X102478626Y-55494157D01*
X107718626Y-55157157D02*
X107718626Y-55494157D01*
X107718626Y-52754157D02*
X107718626Y-53091157D01*
X102478626Y-55494157D02*
X102478626Y-55157157D01*
X102478626Y-53091157D02*
X102478626Y-52754157D01*
X102478626Y-52754157D02*
X107718626Y-52754157D01*
%TO.C,U4*%
X103881126Y-83141657D02*
X103881126Y-80691657D01*
X103881126Y-80691657D02*
X101551126Y-80691657D01*
X103551126Y-88871657D02*
X91611126Y-88871657D01*
X103551126Y-81021657D02*
X103551126Y-88871657D01*
X91611126Y-88871657D02*
X91611126Y-81021657D01*
X91611126Y-81021657D02*
X103551126Y-81021657D01*
%TO.C,R13*%
X108400000Y-130304157D02*
X108400000Y-129974157D01*
X108400000Y-127564157D02*
X108400000Y-127894157D01*
X101860000Y-130304157D02*
X108400000Y-130304157D01*
X101860000Y-129974157D02*
X101860000Y-130304157D01*
X101860000Y-127894157D02*
X101860000Y-127564157D01*
X101860000Y-127564157D02*
X108400000Y-127564157D01*
%TO.C,R23*%
X117270000Y-94190604D02*
X117270000Y-93860604D01*
X117270000Y-91450604D02*
X117270000Y-91780604D01*
X110730000Y-94190604D02*
X117270000Y-94190604D01*
X110730000Y-93860604D02*
X110730000Y-94190604D01*
X110730000Y-91780604D02*
X110730000Y-91450604D01*
X110730000Y-91450604D02*
X117270000Y-91450604D01*
%TO.C,R3*%
X106996126Y-101954157D02*
X106996126Y-101624157D01*
X106996126Y-99214157D02*
X106996126Y-99544157D01*
X100456126Y-101954157D02*
X106996126Y-101954157D01*
X100456126Y-101624157D02*
X100456126Y-101954157D01*
X100456126Y-99544157D02*
X100456126Y-99214157D01*
X100456126Y-99214157D02*
X106996126Y-99214157D01*
%TO.C,J4*%
X75006126Y-94304157D02*
X74396126Y-94744157D01*
X74396126Y-93864157D01*
X75006126Y-94304157D01*
G36*
X75006126Y-94304157D02*
G01*
X74396126Y-94744157D01*
X74396126Y-93864157D01*
X75006126Y-94304157D01*
G37*
X85046126Y-112204157D02*
X75006126Y-112204157D01*
X85046126Y-91644157D02*
X85046126Y-112204157D01*
X82026126Y-91644157D02*
X82026126Y-112204157D01*
X77126126Y-91644157D02*
X77126126Y-112204157D01*
X75626126Y-91644157D02*
X75626126Y-112204157D01*
X75006126Y-112204157D02*
X75006126Y-94604157D01*
X75006126Y-94004157D02*
X75006126Y-91644157D01*
X75006126Y-91644157D02*
X85046126Y-91644157D01*
%TO.C,D1*%
X115080000Y-95550604D02*
X120520000Y-95550604D01*
X120520000Y-98490604D01*
X115080000Y-98490604D01*
X115080000Y-95550604D01*
X121540000Y-97020604D02*
X120520000Y-97020604D01*
X116100000Y-95550604D02*
X116100000Y-98490604D01*
X115980000Y-95550604D02*
X115980000Y-98490604D01*
X115860000Y-95550604D02*
X115860000Y-98490604D01*
X114060000Y-97020604D02*
X115080000Y-97020604D01*
%TO.C,U1*%
X93256126Y-91744157D02*
G75*
G02*
X91256126Y-91744157I-1000000J0D01*
G01*
X87116126Y-91684157D02*
X97396126Y-91684157D01*
X97396126Y-112244157D01*
X87116126Y-112244157D01*
X87116126Y-91684157D01*
X94906126Y-112184157D02*
X94906126Y-91744157D01*
X94906126Y-91744157D02*
X93256126Y-91744157D01*
X91256126Y-91744157D02*
X89606126Y-91744157D01*
X89606126Y-112184157D02*
X94906126Y-112184157D01*
X89606126Y-91744157D02*
X89606126Y-112184157D01*
%TO.C,J5*%
X75078626Y-117244157D02*
X74468626Y-117684157D01*
X74468626Y-116804157D01*
X75078626Y-117244157D01*
G36*
X75078626Y-117244157D02*
G01*
X74468626Y-117684157D01*
X74468626Y-116804157D01*
X75078626Y-117244157D01*
G37*
X85118626Y-165624157D02*
X75078626Y-165624157D01*
X85118626Y-114584157D02*
X85118626Y-165624157D01*
X82098626Y-114584157D02*
X82098626Y-165624157D01*
X77198626Y-114584157D02*
X77198626Y-165624157D01*
X75698626Y-114584157D02*
X75698626Y-165624157D01*
X75078626Y-165624157D02*
X75078626Y-117544157D01*
X75078626Y-116944157D02*
X75078626Y-114584157D01*
X75078626Y-114584157D02*
X85118626Y-114584157D01*
%TO.C,R2*%
X105096126Y-110954157D02*
X104766126Y-110954157D01*
X105096126Y-104414157D02*
X105096126Y-110954157D01*
X104766126Y-104414157D02*
X105096126Y-104414157D01*
X102686126Y-104414157D02*
X102356126Y-104414157D01*
X102356126Y-110954157D02*
X102686126Y-110954157D01*
X102356126Y-104414157D02*
X102356126Y-110954157D01*
%TD*%
M02*
