M48
; DRILL file KiCad 10.0.6 date 2026-10-01T20:14:40
; FORMAT={-:-/ absolute / metric / decimal}
; #@! TF.CreationDate,2026-10-01T20:14:40+02:00
; #@! TF.GenerationSoftware,Kicad,Pcbnew,10.0.6
; #@! TF.FileFunction,Plated,1,2,PTH
FMAT,2
METRIC
; #@! TA.AperFunction,Plated,PTH,ComponentDrill
T1C0.800
; #@! TA.AperFunction,Plated,PTH,ComponentDrill
T2C1.300
%
G90
G05
T1
X68.3Y-75.34
X68.39Y-54.1
X68.39Y-56.64
X68.39Y-59.18
X68.39Y-61.72
X68.39Y-64.26
X68.39Y-66.8
X68.39Y-69.34
X68.39Y-71.88
X68.4Y-102.0
X68.4Y-109.62
X68.51Y-80.57
X68.51Y-88.19
X68.51Y-91.19
X68.51Y-98.81
X73.29Y-87.39
X73.29Y-89.93
X73.29Y-92.47
X73.29Y-95.01
X73.29Y-97.55
X73.29Y-100.09
X73.29Y-102.63
X73.29Y-105.17
X73.3Y-75.34
X75.9Y-84.09
X76.01Y-54.1
X76.01Y-56.64
X76.01Y-59.18
X76.01Y-61.72
X76.01Y-64.26
X76.01Y-66.8
X76.01Y-69.34
X76.01Y-71.88
X79.49Y-53.99
X79.49Y-58.6
X79.49Y-71.9
X79.5Y-67.75
X80.9Y-84.09
X80.91Y-87.39
X80.91Y-89.93
X80.91Y-92.47
X80.91Y-95.01
X80.91Y-97.55
X80.91Y-100.09
X80.91Y-102.63
X80.91Y-105.17
X85.91Y-80.69
X85.91Y-88.31
X85.91Y-91.47
X85.91Y-99.09
X85.91Y-102.09
X85.91Y-109.71
X87.11Y-53.99
X87.11Y-58.6
X87.11Y-71.9
X87.12Y-67.75
X92.21Y-83.79
X97.21Y-83.79
T2
X59.71Y-55.55
X59.71Y-60.63
X59.71Y-65.71
X59.71Y-70.79
X59.71Y-77.63
X59.71Y-82.71
X59.71Y-87.79
X59.71Y-92.87
X59.71Y-97.95
X59.71Y-103.03
X59.71Y-108.11
X94.71Y-92.55
X94.71Y-97.63
X94.71Y-102.71
X94.71Y-107.79
X94.882Y-55.715
X94.882Y-60.795
X94.882Y-65.875
X94.882Y-73.255
X94.882Y-78.335
M30
