%TF.GenerationSoftware,KiCad,Pcbnew,10.0.6*%
%TF.CreationDate,2026-10-04T11:26:31+02:00*%
%TF.ProjectId,Interface_IAI,496e7465-7266-4616-9365-5f4941492e6b,rev?*%
%TF.SameCoordinates,Original*%
%TF.FileFunction,Copper,L1,Top*%
%TF.FilePolarity,Positive*%
%FSLAX46Y46*%
G04 Gerber Fmt 4.6, Leading zero omitted, Abs format (unit mm)*
G04 Created by KiCad (PCBNEW 10.0.6) date 2026-10-04 11:26:31*
%MOMM*%
%LPD*%
G01*
G04 APERTURE LIST*
G04 Aperture macros list*
%AMRoundRect*
0 Rectangle with rounded corners*
0 $1 Rounding radius*
0 $2 $3 $4 $5 $6 $7 $8 $9 X,Y pos of 4 corners*
0 Add a 4 corners polygon primitive as box body*
4,1,4,$2,$3,$4,$5,$6,$7,$8,$9,$2,$3,0*
0 Add four circle primitives for the rounded corners*
1,1,$1+$1,$2,$3*
1,1,$1+$1,$4,$5*
1,1,$1+$1,$6,$7*
1,1,$1+$1,$8,$9*
0 Add four rect primitives between the rounded corners*
20,1,$1+$1,$2,$3,$4,$5,0*
20,1,$1+$1,$4,$5,$6,$7,0*
20,1,$1+$1,$6,$7,$8,$9,0*
20,1,$1+$1,$8,$9,$2,$3,0*%
G04 Aperture macros list end*
%TA.AperFunction,ComponentPad*%
%ADD10RoundRect,0.250000X1.050000X-1.050000X1.050000X1.050000X-1.050000X1.050000X-1.050000X-1.050000X0*%
%TD*%
%TA.AperFunction,ComponentPad*%
%ADD11C,2.600000*%
%TD*%
%TA.AperFunction,ComponentPad*%
%ADD12C,1.600000*%
%TD*%
%TA.AperFunction,ComponentPad*%
%ADD13RoundRect,0.250000X0.550000X0.550000X-0.550000X0.550000X-0.550000X-0.550000X0.550000X-0.550000X0*%
%TD*%
%TA.AperFunction,ComponentPad*%
%ADD14RoundRect,0.250000X-1.050000X1.050000X-1.050000X-1.050000X1.050000X-1.050000X1.050000X1.050000X0*%
%TD*%
%TA.AperFunction,ComponentPad*%
%ADD15RoundRect,0.250000X-0.550000X-0.550000X0.550000X-0.550000X0.550000X0.550000X-0.550000X0.550000X0*%
%TD*%
%TA.AperFunction,ComponentPad*%
%ADD16R,1.500000X2.500000*%
%TD*%
%TA.AperFunction,ComponentPad*%
%ADD17O,1.500000X2.500000*%
%TD*%
%TA.AperFunction,ComponentPad*%
%ADD18RoundRect,0.249999X-0.850001X-0.850001X0.850001X-0.850001X0.850001X0.850001X-0.850001X0.850001X0*%
%TD*%
%TA.AperFunction,ComponentPad*%
%ADD19C,2.200000*%
%TD*%
%TA.AperFunction,Conductor*%
%ADD20C,0.250000*%
%TD*%
%TA.AperFunction,Conductor*%
%ADD21C,1.000000*%
%TD*%
%TA.AperFunction,Conductor*%
%ADD22C,0.400000*%
%TD*%
%TA.AperFunction,Conductor*%
%ADD23C,0.200000*%
%TD*%
G04 APERTURE END LIST*
D10*
%TO.P,J6,1,Pin_1_1*%
%TO.N,/CNT_Z*%
X100608626Y-70883553D03*
D11*
%TO.P,J6,2,Pin_2_2*%
%TO.N,/CNT_B*%
X100608626Y-65803553D03*
%TO.P,J6,3,Pin_3_3*%
%TO.N,/CNT_A*%
X100608626Y-60723553D03*
%TO.P,J6,4,Pin_4_4*%
%TO.N,GND*%
X100608626Y-55643553D03*
%TD*%
D12*
%TO.P,R15,1*%
%TO.N,/SCON_SV*%
X71270000Y-145603553D03*
%TO.P,R15,2*%
%TO.N,/DIO_SV*%
X78890000Y-145603553D03*
%TD*%
%TO.P,C6,1*%
%TO.N,+24V*%
X82570000Y-117383553D03*
%TO.P,C6,2*%
%TO.N,GND*%
X87570000Y-117383553D03*
%TD*%
D10*
%TO.P,J1,1,Pin_1_1*%
%TO.N,+24V*%
X100678626Y-86113553D03*
D11*
%TO.P,J1,2,Pin_2_2*%
%TO.N,GND*%
X100678626Y-81033553D03*
%TD*%
D12*
%TO.P,R12,1*%
%TO.N,/DIO_RES*%
X83020000Y-133693553D03*
%TO.P,R12,2*%
%TO.N,GND*%
X90640000Y-133693553D03*
%TD*%
%TO.P,C1,1*%
%TO.N,+5V*%
X80526126Y-92963553D03*
%TO.P,C1,2*%
%TO.N,GND*%
X85526126Y-92963553D03*
%TD*%
%TO.P,R18,1*%
%TO.N,/SCON_ALM*%
X71480000Y-160303553D03*
%TO.P,R18,2*%
%TO.N,/DIO_ALM*%
X79100000Y-160303553D03*
%TD*%
%TO.P,R7,1*%
%TO.N,/FB_Z_P*%
X80968626Y-75733553D03*
%TO.P,R7,2*%
%TO.N,/FB_Z_N*%
X73348626Y-75733553D03*
%TD*%
%TO.P,R22,1*%
%TO.N,/DIO_ALM*%
X82070000Y-160403553D03*
%TO.P,R22,2*%
%TO.N,GND*%
X89690000Y-160403553D03*
%TD*%
D10*
%TO.P,J2,1,Pin_1_1*%
%TO.N,GND*%
X100788626Y-162943553D03*
D11*
%TO.P,J2,2,Pin_2_2*%
%TO.N,/DIO_ALM*%
X100788626Y-157863553D03*
%TO.P,J2,3,Pin_3_3*%
%TO.N,/DIO_HEND*%
X100788626Y-152783553D03*
%TO.P,J2,4,Pin_4_4*%
%TO.N,/DIO_INP*%
X100788626Y-147703553D03*
%TO.P,J2,5,Pin_5_5*%
%TO.N,/DIO_SV*%
X100788626Y-142623553D03*
%TO.P,J2,6,Pin_6_6*%
%TO.N,/DIO_SON*%
X100788626Y-137543553D03*
%TO.P,J2,7,Pin_7_7*%
%TO.N,/DIO_RES*%
X100788626Y-132463553D03*
%TO.P,J2,8,Pin_8_8*%
%TO.N,/DIO_HOME*%
X100788626Y-127383553D03*
%TO.P,J2,9,Pin_9_9*%
%TO.N,/DIO_CSTP*%
X100788626Y-122303553D03*
%TO.P,J2,10,Pin_10_10*%
%TO.N,/DIO_SIGN*%
X100788626Y-117223553D03*
%TO.P,J2,11,Pin_11_11*%
%TO.N,/DIO_PULSE*%
X100788626Y-112143553D03*
%TD*%
D13*
%TO.P,U3,1,I1_1*%
%TO.N,/DIO_SON*%
X79490000Y-137823553D03*
D12*
%TO.P,U3,2,I2_2*%
%TO.N,/DIO_RES*%
X79490000Y-135283553D03*
%TO.P,U3,3,I3_3*%
%TO.N,/DIO_HOME*%
X79490000Y-132743553D03*
%TO.P,U3,4,I4_4*%
%TO.N,/DIO_CSTP*%
X79490000Y-130203553D03*
%TO.P,U3,5,I5_5*%
%TO.N,GND*%
X79490000Y-127663553D03*
%TO.P,U3,6,I6_6*%
X79490000Y-125123553D03*
%TO.P,U3,7,I7_7*%
X79490000Y-122583553D03*
%TO.P,U3,8,I8_8*%
X79490000Y-120043553D03*
%TO.P,U3,9,VCC_9*%
%TO.N,+24V*%
X79490000Y-117503553D03*
%TO.P,U3,10,GND_10*%
%TO.N,GND*%
X71870000Y-117503553D03*
%TO.P,U3,11,O8_11*%
%TO.N,unconnected-(U3-O8-Pad11)*%
X71870000Y-120043553D03*
%TO.P,U3,12,O7_12*%
%TO.N,unconnected-(U3-O7-Pad12)*%
X71870000Y-122583553D03*
%TO.P,U3,13,O6_13*%
%TO.N,unconnected-(U3-O6-Pad13)*%
X71870000Y-125123553D03*
%TO.P,U3,14,O5_14*%
%TO.N,unconnected-(U3-O5-Pad14)*%
X71870000Y-127663553D03*
%TO.P,U3,15,O4_15*%
%TO.N,/SCON_CSTP*%
X71870000Y-130203553D03*
%TO.P,U3,16,O3_16*%
%TO.N,/SCON_HOME*%
X71870000Y-132743553D03*
%TO.P,U3,17,O2_17*%
%TO.N,/SCON_RES*%
X71870000Y-135283553D03*
%TO.P,U3,18,O1_18*%
%TO.N,/SCON_SON*%
X71870000Y-137823553D03*
%TD*%
%TO.P,R5,1*%
%TO.N,/FB_A_P*%
X69698626Y-61313553D03*
%TO.P,R5,2*%
%TO.N,/FB_A_N*%
X69698626Y-53693553D03*
%TD*%
%TO.P,R6,1*%
%TO.N,/FB_B_P*%
X69698626Y-64093553D03*
%TO.P,R6,2*%
%TO.N,/FB_B_N*%
X69698626Y-71713553D03*
%TD*%
%TO.P,R14,1*%
%TO.N,/DIO_CSTP*%
X82930000Y-124423553D03*
%TO.P,R14,2*%
%TO.N,GND*%
X90550000Y-124423553D03*
%TD*%
%TO.P,R10,1*%
%TO.N,/Z_RX*%
X84888626Y-68603553D03*
%TO.P,R10,2*%
%TO.N,/CNT_Z*%
X92508626Y-68603553D03*
%TD*%
%TO.P,R1,1*%
%TO.N,/DIO_PULSE*%
X89136126Y-96963553D03*
%TO.P,R1,2*%
%TO.N,/PULSE_TTL*%
X81516126Y-96963553D03*
%TD*%
D14*
%TO.P,J3,1,Pin_1_1*%
%TO.N,/FB_A_N*%
X61298626Y-55763553D03*
D11*
%TO.P,J3,2,Pin_2_2*%
%TO.N,/FB_A_P*%
X61298626Y-60843553D03*
%TO.P,J3,3,Pin_3_3*%
%TO.N,/FB_B_P*%
X61298626Y-65923553D03*
%TO.P,J3,4,Pin_4_4*%
%TO.N,/FB_B_N*%
X61298626Y-71003553D03*
%TO.P,J3,5,Pin_5_5*%
%TO.N,/FB_Z_N*%
X61298626Y-76083553D03*
%TO.P,J3,6,Pin_6_6*%
%TO.N,/FB_Z_P*%
X61298626Y-81163553D03*
%TO.P,J3,7,Pin_7_7*%
%TO.N,GND*%
X61298626Y-86243553D03*
%TD*%
D12*
%TO.P,R8,1*%
%TO.N,/A_RX*%
X84948626Y-60323553D03*
%TO.P,R8,2*%
%TO.N,/CNT_A*%
X92568626Y-60323553D03*
%TD*%
%TO.P,R21,1*%
%TO.N,/DIO_HEND*%
X82070000Y-155403553D03*
%TO.P,R21,2*%
%TO.N,GND*%
X89690000Y-155403553D03*
%TD*%
%TO.P,R9,1*%
%TO.N,/B_RX*%
X84948626Y-63743553D03*
%TO.P,R9,2*%
%TO.N,/CNT_B*%
X92568626Y-63743553D03*
%TD*%
%TO.P,R19,1*%
%TO.N,/DIO_SV*%
X81870000Y-145603553D03*
%TO.P,R19,2*%
%TO.N,GND*%
X89490000Y-145603553D03*
%TD*%
%TO.P,R20,1*%
%TO.N,/DIO_INP*%
X82160000Y-150303553D03*
%TO.P,R20,2*%
%TO.N,GND*%
X89780000Y-150303553D03*
%TD*%
%TO.P,C5,1*%
%TO.N,/VIN_REG*%
X87398626Y-87303553D03*
%TO.P,C5,2*%
%TO.N,GND*%
X87398626Y-82303553D03*
%TD*%
D15*
%TO.P,U2,1,1B_1*%
%TO.N,/FB_A_N*%
X73578626Y-54263553D03*
D12*
%TO.P,U2,2,1A_2*%
%TO.N,/FB_A_P*%
X73578626Y-56803553D03*
%TO.P,U2,3,1Y_3*%
%TO.N,/A_RX*%
X73578626Y-59343553D03*
%TO.P,U2,4,G_4*%
%TO.N,GND*%
X73578626Y-61883553D03*
%TO.P,U2,5,2Y_5*%
%TO.N,/B_RX*%
X73578626Y-64423553D03*
%TO.P,U2,6,2A_6*%
%TO.N,/FB_B_P*%
X73578626Y-66963553D03*
%TO.P,U2,7,2B_7*%
%TO.N,/FB_B_N*%
X73578626Y-69503553D03*
%TO.P,U2,8,GND_8*%
%TO.N,GND*%
X73578626Y-72043553D03*
%TO.P,U2,9,3B_9*%
%TO.N,/FB_Z_N*%
X81198626Y-72043553D03*
%TO.P,U2,10,3A_10*%
%TO.N,/FB_Z_P*%
X81198626Y-69503553D03*
%TO.P,U2,11,3Y_11*%
%TO.N,/Z_RX*%
X81198626Y-66963553D03*
%TO.P,U2,12,~{G}_12*%
%TO.N,GND*%
X81198626Y-64423553D03*
%TO.P,U2,13,4Y_13*%
%TO.N,unconnected-(U2-4Y-Pad13)*%
X81198626Y-61883553D03*
%TO.P,U2,14,4A_14*%
%TO.N,+5V*%
X81198626Y-59343553D03*
%TO.P,U2,15,4B_15*%
%TO.N,GND*%
X81198626Y-56803553D03*
%TO.P,U2,16,VDD_16*%
%TO.N,+5V*%
X81198626Y-54263553D03*
%TD*%
%TO.P,R16,1*%
%TO.N,/SCON_INP*%
X71470000Y-150403553D03*
%TO.P,R16,2*%
%TO.N,/DIO_INP*%
X79090000Y-150403553D03*
%TD*%
%TO.P,C4,1*%
%TO.N,+5V*%
X71131126Y-82621053D03*
%TO.P,C4,2*%
%TO.N,GND*%
X71131126Y-87621053D03*
%TD*%
%TO.P,R4,1*%
%TO.N,/SIGN_TTL*%
X82016126Y-111463553D03*
%TO.P,R4,2*%
%TO.N,GND*%
X82016126Y-103843553D03*
%TD*%
%TO.P,R17,1*%
%TO.N,/SCON_HEND*%
X71570000Y-155403553D03*
%TO.P,R17,2*%
%TO.N,/DIO_HEND*%
X79190000Y-155403553D03*
%TD*%
%TO.P,R11,1*%
%TO.N,/DIO_SON*%
X82660000Y-137883553D03*
%TO.P,R11,2*%
%TO.N,GND*%
X90280000Y-137883553D03*
%TD*%
%TO.P,C3,1*%
%TO.N,+5V*%
X84198626Y-54103553D03*
%TO.P,C3,2*%
%TO.N,GND*%
X89198626Y-54103553D03*
%TD*%
D16*
%TO.P,U4,1,Vin_1*%
%TO.N,/VIN_REG*%
X81731126Y-83121053D03*
D17*
%TO.P,U4,2,GND_2*%
%TO.N,GND*%
X79191126Y-83121053D03*
%TO.P,U4,3,Vout_3*%
%TO.N,+5V*%
X76651126Y-83121053D03*
%TD*%
D12*
%TO.P,R13,1*%
%TO.N,/DIO_HOME*%
X82920000Y-128913553D03*
%TO.P,R13,2*%
%TO.N,GND*%
X90540000Y-128913553D03*
%TD*%
%TO.P,R3,1*%
%TO.N,/PULSE_TTL*%
X81516126Y-100563553D03*
%TO.P,R3,2*%
%TO.N,GND*%
X89136126Y-100563553D03*
%TD*%
D14*
%TO.P,J4,1,Pin_1_1*%
%TO.N,/PULSE_P*%
X61326126Y-94283553D03*
D11*
%TO.P,J4,2,Pin_2_2*%
%TO.N,/PULSE_N*%
X61326126Y-99363553D03*
%TO.P,J4,3,Pin_3_3*%
%TO.N,/SIGN_N*%
X61326126Y-104443553D03*
%TO.P,J4,4,Pin_4_4*%
%TO.N,/SIGN_P*%
X61326126Y-109523553D03*
%TD*%
D18*
%TO.P,D1,1,K_1*%
%TO.N,/VIN_REG*%
X94260000Y-92704444D03*
D19*
%TO.P,D1,2,A_2*%
%TO.N,+24V*%
X104420000Y-92704444D03*
%TD*%
D15*
%TO.P,U1,1,1A_1*%
%TO.N,/PULSE_TTL*%
X70046126Y-93053553D03*
D12*
%TO.P,U1,2,1Y_2*%
%TO.N,/PULSE_P*%
X70046126Y-95593553D03*
%TO.P,U1,3,1Z_3*%
%TO.N,/PULSE_N*%
X70046126Y-98133553D03*
%TO.P,U1,4,G_4*%
%TO.N,GND*%
X70046126Y-100673553D03*
%TO.P,U1,5,2Z_5*%
%TO.N,/SIGN_N*%
X70046126Y-103213553D03*
%TO.P,U1,6,2Y_6*%
%TO.N,/SIGN_P*%
X70046126Y-105753553D03*
%TO.P,U1,7,2A_7*%
%TO.N,/SIGN_TTL*%
X70046126Y-108293553D03*
%TO.P,U1,8,GND_8*%
%TO.N,GND*%
X70046126Y-110833553D03*
%TO.P,U1,9,3A_9*%
X77666126Y-110833553D03*
%TO.P,U1,10,3Y_10*%
%TO.N,unconnected-(U1-3Y-Pad10)*%
X77666126Y-108293553D03*
%TO.P,U1,11,3Z_11*%
%TO.N,unconnected-(U1-3Z-Pad11)*%
X77666126Y-105753553D03*
%TO.P,U1,12,~{G}_12*%
%TO.N,GND*%
X77666126Y-103213553D03*
%TO.P,U1,13,4Z_13*%
%TO.N,unconnected-(U1-4Z-Pad13)*%
X77666126Y-100673553D03*
%TO.P,U1,14,4Y_14*%
%TO.N,unconnected-(U1-4Y-Pad14)*%
X77666126Y-98133553D03*
%TO.P,U1,15,4A_15*%
%TO.N,GND*%
X77666126Y-95593553D03*
%TO.P,U1,16,VDD_16*%
%TO.N,+5V*%
X77666126Y-93053553D03*
%TD*%
D14*
%TO.P,J5,1,Pin_1_1*%
%TO.N,+24V*%
X61398626Y-117223553D03*
D11*
%TO.P,J5,2,Pin_2_2*%
%TO.N,GND*%
X61398626Y-122303553D03*
%TO.P,J5,3,Pin_3_3*%
%TO.N,/SCON_CSTP*%
X61398626Y-127383553D03*
%TO.P,J5,4,Pin_4_4*%
%TO.N,/SCON_HOME*%
X61398626Y-132463553D03*
%TO.P,J5,5,Pin_5_5*%
%TO.N,/SCON_RES*%
X61398626Y-137543553D03*
%TO.P,J5,6,Pin_6_6*%
%TO.N,/SCON_SON*%
X61398626Y-142623553D03*
%TO.P,J5,7,Pin_7_7*%
%TO.N,/SCON_SV*%
X61398626Y-147703553D03*
%TO.P,J5,8,Pin_8_8*%
%TO.N,/SCON_INP*%
X61398626Y-152783553D03*
%TO.P,J5,9,Pin_9_9*%
%TO.N,/SCON_HEND*%
X61398626Y-157863553D03*
%TO.P,J5,10,Pin_10_10*%
%TO.N,/SCON_ALM*%
X61398626Y-162943553D03*
%TD*%
D12*
%TO.P,R2,1*%
%TO.N,/DIO_SIGN*%
X85326126Y-103853553D03*
%TO.P,R2,2*%
%TO.N,/SIGN_TTL*%
X85326126Y-111473553D03*
%TD*%
%TO.N,/CNT_Z*%
D20*
X94788626Y-70883553D02*
X92508626Y-68603553D01*
X100608626Y-70883553D02*
X94788626Y-70883553D01*
%TO.N,/CNT_B*%
X100608626Y-65803553D02*
X98548626Y-63743553D01*
X98548626Y-63743553D02*
X92568626Y-63743553D01*
%TO.N,/CNT_A*%
X92568626Y-60323553D02*
X100208626Y-60323553D01*
X100208626Y-60323553D02*
X100608626Y-60723553D01*
%TO.N,/SCON_SV*%
X61398626Y-147703553D02*
X63498626Y-145603553D01*
X63498626Y-145603553D02*
X71270000Y-145603553D01*
%TO.N,/DIO_SV*%
X78890000Y-145603553D02*
X81870000Y-145603553D01*
X100788626Y-142623553D02*
X84850000Y-142623553D01*
X84850000Y-142623553D02*
X81870000Y-145603553D01*
%TO.N,+24V*%
D21*
X102748626Y-119703553D02*
X104420000Y-118032179D01*
X64018626Y-117223553D02*
X61398626Y-117223553D01*
X66598626Y-114643553D02*
X64018626Y-117223553D01*
X104420000Y-92704444D02*
X104420000Y-89854927D01*
X104420000Y-118032179D02*
X104420000Y-92704444D01*
X79610000Y-117383553D02*
X79490000Y-117503553D01*
X73548626Y-114643553D02*
X66598626Y-114643553D01*
X104420000Y-89854927D02*
X100678626Y-86113553D01*
X82570000Y-117383553D02*
X79610000Y-117383553D01*
X76408626Y-117503553D02*
X79490000Y-117503553D01*
X82570000Y-117383553D02*
X84310000Y-117383553D01*
X84310000Y-117383553D02*
X86630000Y-119703553D01*
X86630000Y-119703553D02*
X102748626Y-119703553D01*
X76408626Y-117503553D02*
X73548626Y-114643553D01*
%TO.N,/DIO_RES*%
D20*
X81430000Y-135283553D02*
X83020000Y-133693553D01*
X99268626Y-130943553D02*
X85770000Y-130943553D01*
X100788626Y-132463553D02*
X99268626Y-130943553D01*
X79490000Y-135283553D02*
X81430000Y-135283553D01*
X85770000Y-130943553D02*
X83020000Y-133693553D01*
%TO.N,+5V*%
D21*
X84038626Y-54263553D02*
X84198626Y-54103553D01*
X84198626Y-55733553D02*
X84198626Y-54103553D01*
X76151126Y-82621053D02*
X76651126Y-83121053D01*
X77666126Y-84606053D02*
X77666126Y-93053553D01*
X81198626Y-54263553D02*
X84038626Y-54263553D01*
X87148626Y-75623553D02*
X87148626Y-58683553D01*
X84198626Y-54103553D02*
X84198626Y-56343553D01*
X84258626Y-78513553D02*
X87148626Y-75623553D01*
X76651126Y-83591053D02*
X77666126Y-84606053D01*
X71131126Y-82621053D02*
X76151126Y-82621053D01*
D22*
X80526126Y-92963553D02*
X77756126Y-92963553D01*
D21*
X76651126Y-82011053D02*
X80148626Y-78513553D01*
X87148626Y-58683553D02*
X84198626Y-55733553D01*
X76651126Y-83121053D02*
X76651126Y-83591053D01*
X84198626Y-56343553D02*
X81198626Y-59343553D01*
D22*
X77756126Y-92963553D02*
X77666126Y-93053553D01*
D21*
X76651126Y-83121053D02*
X76651126Y-82011053D01*
X80148626Y-78513553D02*
X84258626Y-78513553D01*
%TO.N,/SCON_ALM*%
D20*
X64038626Y-160303553D02*
X71480000Y-160303553D01*
X61398626Y-162943553D02*
X64038626Y-160303553D01*
%TO.N,/DIO_ALM*%
X100788626Y-157863553D02*
X84610000Y-157863553D01*
X84610000Y-157863553D02*
X82070000Y-160403553D01*
X79100000Y-160303553D02*
X81970000Y-160303553D01*
X81970000Y-160303553D02*
X82070000Y-160403553D01*
%TO.N,/FB_Z_P*%
D23*
X80968626Y-75733553D02*
X83218626Y-73483553D01*
X83218626Y-73483553D02*
X83218626Y-70153553D01*
X83208626Y-70153553D02*
X82558626Y-69503553D01*
X61298626Y-81163553D02*
X63613626Y-78848553D01*
X82558626Y-69503553D02*
X81198626Y-69503553D01*
X77853626Y-78848553D02*
X80968626Y-75733553D01*
X83218626Y-70153553D02*
X83208626Y-70153553D01*
X63613626Y-78848553D02*
X77853626Y-78848553D01*
%TO.N,/FB_Z_N*%
X77508626Y-75733553D02*
X81198626Y-72043553D01*
X73348626Y-75733553D02*
X77508626Y-75733553D01*
X63613626Y-78398553D02*
X70683626Y-78398553D01*
X70683626Y-78398553D02*
X73348626Y-75733553D01*
X61298626Y-76083553D02*
X63613626Y-78398553D01*
%TO.N,/DIO_HEND*%
D20*
X79190000Y-155403553D02*
X82070000Y-155403553D01*
X84690000Y-152783553D02*
X82070000Y-155403553D01*
X100788626Y-152783553D02*
X84690000Y-152783553D01*
%TO.N,/DIO_INP*%
X84760000Y-147703553D02*
X82160000Y-150303553D01*
X100788626Y-147703553D02*
X84760000Y-147703553D01*
X79090000Y-150403553D02*
X82060000Y-150403553D01*
X82060000Y-150403553D02*
X82160000Y-150303553D01*
%TO.N,/DIO_SON*%
X100788626Y-137543553D02*
X99328626Y-136083553D01*
X82660000Y-137883553D02*
X79550000Y-137883553D01*
X99328626Y-136083553D02*
X84460000Y-136083553D01*
X79550000Y-137883553D02*
X79490000Y-137823553D01*
X84460000Y-136083553D02*
X82660000Y-137883553D01*
%TO.N,/DIO_HOME*%
X84450000Y-127383553D02*
X82920000Y-128913553D01*
X79490000Y-132743553D02*
X82920000Y-129313553D01*
X100788626Y-127383553D02*
X84450000Y-127383553D01*
X82920000Y-129313553D02*
X82920000Y-128913553D01*
%TO.N,/DIO_CSTP*%
X82930000Y-126763553D02*
X79490000Y-130203553D01*
X85050000Y-122303553D02*
X82930000Y-124423553D01*
X82930000Y-124423553D02*
X82930000Y-126763553D01*
X100788626Y-122303553D02*
X85050000Y-122303553D01*
%TO.N,/DIO_SIGN*%
X85326126Y-103853553D02*
X87418626Y-103853553D01*
X87418626Y-103853553D02*
X100788626Y-117223553D01*
%TO.N,/DIO_PULSE*%
X89136126Y-96963553D02*
X100788626Y-108616053D01*
X100788626Y-108616053D02*
X100788626Y-112143553D01*
%TO.N,/SCON_CSTP*%
X64218626Y-130203553D02*
X71870000Y-130203553D01*
X61398626Y-127383553D02*
X64218626Y-130203553D01*
%TO.N,/SCON_HOME*%
X61678626Y-132743553D02*
X61398626Y-132463553D01*
X71590000Y-132463553D02*
X71870000Y-132743553D01*
X71870000Y-132743553D02*
X61678626Y-132743553D01*
%TO.N,/SCON_RES*%
X63658626Y-135283553D02*
X71870000Y-135283553D01*
X61398626Y-137543553D02*
X63658626Y-135283553D01*
%TO.N,/SCON_SON*%
X66198626Y-137823553D02*
X71870000Y-137823553D01*
X61398626Y-142623553D02*
X66198626Y-137823553D01*
%TO.N,/FB_A_P*%
D23*
X73578626Y-56803553D02*
X73578626Y-56937156D01*
X63613626Y-58528553D02*
X68248626Y-58528553D01*
X69228626Y-60843553D02*
X69698626Y-61313553D01*
X61298626Y-60843553D02*
X63613626Y-58528553D01*
X69698626Y-60683553D02*
X69698626Y-61313553D01*
X68248626Y-58528553D02*
X69698626Y-59978553D01*
X69698626Y-59978553D02*
X69698626Y-61313553D01*
X73578626Y-56937156D02*
X73600023Y-56958553D01*
X73578626Y-56803553D02*
X69698626Y-60683553D01*
%TO.N,/FB_A_N*%
X63613626Y-58078553D02*
X68248626Y-58078553D01*
X73578626Y-54263553D02*
X70268626Y-54263553D01*
X69698626Y-56628553D02*
X69698626Y-53693553D01*
X61298626Y-55763553D02*
X63613626Y-58078553D01*
X70268626Y-54263553D02*
X69698626Y-53693553D01*
X68248626Y-58078553D02*
X69698626Y-56628553D01*
%TO.N,/FB_B_P*%
X73578626Y-66963553D02*
X70708626Y-64093553D01*
X70708626Y-64093553D02*
X69698626Y-64093553D01*
X61298626Y-65923553D02*
X63613626Y-68238553D01*
X63613626Y-68238553D02*
X68308626Y-68238553D01*
X69698626Y-66848553D02*
X69698626Y-64093553D01*
X68308626Y-68238553D02*
X69698626Y-66848553D01*
%TO.N,/FB_B_N*%
X68308626Y-68688553D02*
X69698626Y-70078553D01*
X61298626Y-71003553D02*
X63613626Y-68688553D01*
X69698626Y-71713553D02*
X71368626Y-71713553D01*
X69698626Y-70078553D02*
X69698626Y-71713553D01*
X71368626Y-71713553D02*
X73578626Y-69503553D01*
X63613626Y-68688553D02*
X68308626Y-68688553D01*
%TO.N,/Z_RX*%
D20*
X84888626Y-68603553D02*
X82838626Y-68603553D01*
X82838626Y-68603553D02*
X81198626Y-66963553D01*
%TO.N,/PULSE_TTL*%
X72458626Y-93053553D02*
X70046126Y-93053553D01*
X81516126Y-100563553D02*
X81516126Y-96963553D01*
X81516126Y-96963553D02*
X79288626Y-96963553D01*
X79138626Y-96813553D02*
X76218626Y-96813553D01*
X79288626Y-96963553D02*
X79138626Y-96813553D01*
X76218626Y-96813553D02*
X72458626Y-93053553D01*
%TO.N,/A_RX*%
X82618626Y-60323553D02*
X82338626Y-60603553D01*
X79728626Y-60603553D02*
X78468626Y-59343553D01*
X78468626Y-59343553D02*
X73578626Y-59343553D01*
X84948626Y-60323553D02*
X82618626Y-60323553D01*
X82338626Y-60603553D02*
X79728626Y-60603553D01*
%TO.N,/B_RX*%
X73578626Y-64423553D02*
X78358626Y-64423553D01*
X78358626Y-64423553D02*
X79698626Y-63083553D01*
X79698626Y-63083553D02*
X81828626Y-63083553D01*
X81828626Y-63083553D02*
X82488626Y-63743553D01*
X82488626Y-63743553D02*
X84948626Y-63743553D01*
%TO.N,/VIN_REG*%
D21*
X87398626Y-87303553D02*
X88859109Y-87303553D01*
X87398626Y-87303553D02*
X85913626Y-87303553D01*
X85913626Y-87303553D02*
X81731126Y-83121053D01*
X88859109Y-87303553D02*
X94260000Y-92704444D01*
%TO.N,/SCON_INP*%
D20*
X63778626Y-150403553D02*
X71470000Y-150403553D01*
X61398626Y-152783553D02*
X63778626Y-150403553D01*
%TO.N,/SIGN_TTL*%
X74498626Y-108293553D02*
X70046126Y-108293553D01*
X85316126Y-111463553D02*
X85326126Y-111473553D01*
X82016126Y-111463553D02*
X85316126Y-111463553D01*
X80858626Y-111463553D02*
X78928626Y-109533553D01*
X75738626Y-109533553D02*
X74498626Y-108293553D01*
X78928626Y-109533553D02*
X75738626Y-109533553D01*
X82016126Y-111463553D02*
X80858626Y-111463553D01*
%TO.N,/SCON_HEND*%
X61398626Y-157863553D02*
X63858626Y-155403553D01*
X63858626Y-155403553D02*
X71570000Y-155403553D01*
%TO.N,/PULSE_P*%
D23*
X70046126Y-95593553D02*
X66726127Y-98913552D01*
X66726127Y-98913552D02*
X65956125Y-98913552D01*
X65956125Y-98913552D02*
X61326126Y-94283553D01*
%TO.N,/PULSE_N*%
X70046126Y-98133553D02*
X68142523Y-98133553D01*
X68142523Y-98133553D02*
X66912523Y-99363553D01*
X66912523Y-99363553D02*
X61326126Y-99363553D01*
%TO.N,/SIGN_N*%
X70046126Y-103213553D02*
X69001127Y-104258552D01*
X69001127Y-104258552D02*
X65954730Y-104258552D01*
X65769729Y-104443553D02*
X61326126Y-104443553D01*
X65954730Y-104258552D02*
X65769729Y-104443553D01*
%TO.N,/SIGN_P*%
X66141125Y-104708554D02*
X61326126Y-109523553D01*
X70046126Y-105753553D02*
X69001127Y-104708554D01*
X69001127Y-104708554D02*
X66141125Y-104708554D01*
%TD*%
M02*
