%TF.GenerationSoftware,KiCad,Pcbnew,10.0.6*%
%TF.CreationDate,2026-10-04T16:08:01+02:00*%
%TF.ProjectId,Interface_IAI,496e7465-7266-4616-9365-5f4941492e6b,rev?*%
%TF.SameCoordinates,Original*%
%TF.FileFunction,Drillmap*%
%TF.FilePolarity,Positive*%
%FSLAX45Y45*%
G04 Gerber Fmt 4.5, Leading zero omitted, Abs format (unit mm)*
G04 Created by KiCad (PCBNEW 10.0.6) date 2026-10-04 16:08:01*
%MOMM*%
%LPD*%
G01*
G04 APERTURE LIST*
%ADD10C,0.050000*%
%ADD11C,0.200000*%
G04 APERTURE END LIST*
D10*
X5000000Y-5002416D02*
X14880000Y-5002416D01*
X14880000Y-17001416D01*
X5000000Y-17001416D01*
X5000000Y-5002416D01*
D11*
X5258277Y-17315400D02*
X5258277Y-17115400D01*
X5258277Y-17115400D02*
X5305896Y-17115400D01*
X5305896Y-17115400D02*
X5334467Y-17124923D01*
X5334467Y-17124923D02*
X5353515Y-17143971D01*
X5353515Y-17143971D02*
X5363039Y-17163019D01*
X5363039Y-17163019D02*
X5372563Y-17201114D01*
X5372563Y-17201114D02*
X5372563Y-17229685D01*
X5372563Y-17229685D02*
X5363039Y-17267780D01*
X5363039Y-17267780D02*
X5353515Y-17286828D01*
X5353515Y-17286828D02*
X5334467Y-17305876D01*
X5334467Y-17305876D02*
X5305896Y-17315400D01*
X5305896Y-17315400D02*
X5258277Y-17315400D01*
X5458277Y-17315400D02*
X5458277Y-17182066D01*
X5458277Y-17220161D02*
X5467801Y-17201114D01*
X5467801Y-17201114D02*
X5477324Y-17191590D01*
X5477324Y-17191590D02*
X5496372Y-17182066D01*
X5496372Y-17182066D02*
X5515420Y-17182066D01*
X5582086Y-17315400D02*
X5582086Y-17182066D01*
X5582086Y-17115400D02*
X5572563Y-17124923D01*
X5572563Y-17124923D02*
X5582086Y-17134447D01*
X5582086Y-17134447D02*
X5591610Y-17124923D01*
X5591610Y-17124923D02*
X5582086Y-17115400D01*
X5582086Y-17115400D02*
X5582086Y-17134447D01*
X5705896Y-17315400D02*
X5686848Y-17305876D01*
X5686848Y-17305876D02*
X5677324Y-17286828D01*
X5677324Y-17286828D02*
X5677324Y-17115400D01*
X5810658Y-17315400D02*
X5791610Y-17305876D01*
X5791610Y-17305876D02*
X5782086Y-17286828D01*
X5782086Y-17286828D02*
X5782086Y-17115400D01*
X6039229Y-17315400D02*
X6039229Y-17115400D01*
X6039229Y-17115400D02*
X6105896Y-17258257D01*
X6105896Y-17258257D02*
X6172562Y-17115400D01*
X6172562Y-17115400D02*
X6172562Y-17315400D01*
X6353515Y-17315400D02*
X6353515Y-17210638D01*
X6353515Y-17210638D02*
X6343991Y-17191590D01*
X6343991Y-17191590D02*
X6324943Y-17182066D01*
X6324943Y-17182066D02*
X6286848Y-17182066D01*
X6286848Y-17182066D02*
X6267801Y-17191590D01*
X6353515Y-17305876D02*
X6334467Y-17315400D01*
X6334467Y-17315400D02*
X6286848Y-17315400D01*
X6286848Y-17315400D02*
X6267801Y-17305876D01*
X6267801Y-17305876D02*
X6258277Y-17286828D01*
X6258277Y-17286828D02*
X6258277Y-17267780D01*
X6258277Y-17267780D02*
X6267801Y-17248733D01*
X6267801Y-17248733D02*
X6286848Y-17239209D01*
X6286848Y-17239209D02*
X6334467Y-17239209D01*
X6334467Y-17239209D02*
X6353515Y-17229685D01*
X6448753Y-17182066D02*
X6448753Y-17382066D01*
X6448753Y-17191590D02*
X6467801Y-17182066D01*
X6467801Y-17182066D02*
X6505896Y-17182066D01*
X6505896Y-17182066D02*
X6524943Y-17191590D01*
X6524943Y-17191590D02*
X6534467Y-17201114D01*
X6534467Y-17201114D02*
X6543991Y-17220161D01*
X6543991Y-17220161D02*
X6543991Y-17277304D01*
X6543991Y-17277304D02*
X6534467Y-17296352D01*
X6534467Y-17296352D02*
X6524943Y-17305876D01*
X6524943Y-17305876D02*
X6505896Y-17315400D01*
X6505896Y-17315400D02*
X6467801Y-17315400D01*
X6467801Y-17315400D02*
X6448753Y-17305876D01*
X6629705Y-17296352D02*
X6639229Y-17305876D01*
X6639229Y-17305876D02*
X6629705Y-17315400D01*
X6629705Y-17315400D02*
X6620182Y-17305876D01*
X6620182Y-17305876D02*
X6629705Y-17296352D01*
X6629705Y-17296352D02*
X6629705Y-17315400D01*
X6629705Y-17191590D02*
X6639229Y-17201114D01*
X6639229Y-17201114D02*
X6629705Y-17210638D01*
X6629705Y-17210638D02*
X6620182Y-17201114D01*
X6620182Y-17201114D02*
X6629705Y-17191590D01*
X6629705Y-17191590D02*
X6629705Y-17210638D01*
M02*
