%TF.GenerationSoftware,KiCad,Pcbnew,10.0.6*%
%TF.CreationDate,2026-10-09T09:46:29+02:00*%
%TF.ProjectId,Interface_IAI,496e7465-7266-4616-9365-5f4941492e6b,rev?*%
%TF.SameCoordinates,Original*%
%TF.FileFunction,Legend,Top*%
%TF.FilePolarity,Positive*%
%FSLAX46Y46*%
G04 Gerber Fmt 4.6, Leading zero omitted, Abs format (unit mm)*
G04 Created by KiCad (PCBNEW 10.0.6) date 2026-10-09 09:46:29*
%MOMM*%
%LPD*%
G01*
G04 APERTURE LIST*
%ADD10C,0.100000*%
%ADD11C,0.150000*%
%ADD12C,0.254000*%
%ADD13C,0.120000*%
%ADD14C,0.200000*%
G04 APERTURE END LIST*
D10*
X63746895Y-101093734D02*
X62946895Y-101093734D01*
X62946895Y-101093734D02*
X62946895Y-100788972D01*
X62946895Y-100788972D02*
X62984990Y-100712782D01*
X62984990Y-100712782D02*
X63023085Y-100674687D01*
X63023085Y-100674687D02*
X63099276Y-100636591D01*
X63099276Y-100636591D02*
X63213561Y-100636591D01*
X63213561Y-100636591D02*
X63289752Y-100674687D01*
X63289752Y-100674687D02*
X63327847Y-100712782D01*
X63327847Y-100712782D02*
X63365942Y-100788972D01*
X63365942Y-100788972D02*
X63365942Y-101093734D01*
X63746895Y-100293734D02*
X62946895Y-100293734D01*
X62946895Y-100293734D02*
X62946895Y-99988972D01*
X62946895Y-99988972D02*
X62984990Y-99912782D01*
X62984990Y-99912782D02*
X63023085Y-99874687D01*
X63023085Y-99874687D02*
X63099276Y-99836591D01*
X63099276Y-99836591D02*
X63213561Y-99836591D01*
X63213561Y-99836591D02*
X63289752Y-99874687D01*
X63289752Y-99874687D02*
X63327847Y-99912782D01*
X63327847Y-99912782D02*
X63365942Y-99988972D01*
X63365942Y-99988972D02*
X63365942Y-100293734D01*
X63823085Y-99684211D02*
X63823085Y-99074687D01*
X63746895Y-98884210D02*
X62946895Y-98884210D01*
X62946895Y-98884210D02*
X63746895Y-98427067D01*
X63746895Y-98427067D02*
X62946895Y-98427067D01*
X63746895Y-96193734D02*
X62946895Y-96193734D01*
X62946895Y-96193734D02*
X62946895Y-95888972D01*
X62946895Y-95888972D02*
X62984990Y-95812782D01*
X62984990Y-95812782D02*
X63023085Y-95774687D01*
X63023085Y-95774687D02*
X63099276Y-95736591D01*
X63099276Y-95736591D02*
X63213561Y-95736591D01*
X63213561Y-95736591D02*
X63289752Y-95774687D01*
X63289752Y-95774687D02*
X63327847Y-95812782D01*
X63327847Y-95812782D02*
X63365942Y-95888972D01*
X63365942Y-95888972D02*
X63365942Y-96193734D01*
X63746895Y-95393734D02*
X62946895Y-95393734D01*
X62946895Y-95393734D02*
X62946895Y-95088972D01*
X62946895Y-95088972D02*
X62984990Y-95012782D01*
X62984990Y-95012782D02*
X63023085Y-94974687D01*
X63023085Y-94974687D02*
X63099276Y-94936591D01*
X63099276Y-94936591D02*
X63213561Y-94936591D01*
X63213561Y-94936591D02*
X63289752Y-94974687D01*
X63289752Y-94974687D02*
X63327847Y-95012782D01*
X63327847Y-95012782D02*
X63365942Y-95088972D01*
X63365942Y-95088972D02*
X63365942Y-95393734D01*
X63823085Y-94784211D02*
X63823085Y-94174687D01*
X63746895Y-93984210D02*
X62946895Y-93984210D01*
X62946895Y-93984210D02*
X62946895Y-93679448D01*
X62946895Y-93679448D02*
X62984990Y-93603258D01*
X62984990Y-93603258D02*
X63023085Y-93565163D01*
X63023085Y-93565163D02*
X63099276Y-93527067D01*
X63099276Y-93527067D02*
X63213561Y-93527067D01*
X63213561Y-93527067D02*
X63289752Y-93565163D01*
X63289752Y-93565163D02*
X63327847Y-93603258D01*
X63327847Y-93603258D02*
X63365942Y-93679448D01*
X63365942Y-93679448D02*
X63365942Y-93984210D01*
X63668800Y-130071830D02*
X63706895Y-129957544D01*
X63706895Y-129957544D02*
X63706895Y-129767068D01*
X63706895Y-129767068D02*
X63668800Y-129690877D01*
X63668800Y-129690877D02*
X63630704Y-129652782D01*
X63630704Y-129652782D02*
X63554514Y-129614687D01*
X63554514Y-129614687D02*
X63478323Y-129614687D01*
X63478323Y-129614687D02*
X63402133Y-129652782D01*
X63402133Y-129652782D02*
X63364038Y-129690877D01*
X63364038Y-129690877D02*
X63325942Y-129767068D01*
X63325942Y-129767068D02*
X63287847Y-129919449D01*
X63287847Y-129919449D02*
X63249752Y-129995639D01*
X63249752Y-129995639D02*
X63211657Y-130033734D01*
X63211657Y-130033734D02*
X63135466Y-130071830D01*
X63135466Y-130071830D02*
X63059276Y-130071830D01*
X63059276Y-130071830D02*
X62983085Y-130033734D01*
X62983085Y-130033734D02*
X62944990Y-129995639D01*
X62944990Y-129995639D02*
X62906895Y-129919449D01*
X62906895Y-129919449D02*
X62906895Y-129728972D01*
X62906895Y-129728972D02*
X62944990Y-129614687D01*
X63630704Y-128814686D02*
X63668800Y-128852782D01*
X63668800Y-128852782D02*
X63706895Y-128967067D01*
X63706895Y-128967067D02*
X63706895Y-129043258D01*
X63706895Y-129043258D02*
X63668800Y-129157544D01*
X63668800Y-129157544D02*
X63592609Y-129233734D01*
X63592609Y-129233734D02*
X63516419Y-129271829D01*
X63516419Y-129271829D02*
X63364038Y-129309925D01*
X63364038Y-129309925D02*
X63249752Y-129309925D01*
X63249752Y-129309925D02*
X63097371Y-129271829D01*
X63097371Y-129271829D02*
X63021180Y-129233734D01*
X63021180Y-129233734D02*
X62944990Y-129157544D01*
X62944990Y-129157544D02*
X62906895Y-129043258D01*
X62906895Y-129043258D02*
X62906895Y-128967067D01*
X62906895Y-128967067D02*
X62944990Y-128852782D01*
X62944990Y-128852782D02*
X62983085Y-128814686D01*
X62906895Y-128319448D02*
X62906895Y-128167067D01*
X62906895Y-128167067D02*
X62944990Y-128090877D01*
X62944990Y-128090877D02*
X63021180Y-128014686D01*
X63021180Y-128014686D02*
X63173561Y-127976591D01*
X63173561Y-127976591D02*
X63440228Y-127976591D01*
X63440228Y-127976591D02*
X63592609Y-128014686D01*
X63592609Y-128014686D02*
X63668800Y-128090877D01*
X63668800Y-128090877D02*
X63706895Y-128167067D01*
X63706895Y-128167067D02*
X63706895Y-128319448D01*
X63706895Y-128319448D02*
X63668800Y-128395639D01*
X63668800Y-128395639D02*
X63592609Y-128471829D01*
X63592609Y-128471829D02*
X63440228Y-128509925D01*
X63440228Y-128509925D02*
X63173561Y-128509925D01*
X63173561Y-128509925D02*
X63021180Y-128471829D01*
X63021180Y-128471829D02*
X62944990Y-128395639D01*
X62944990Y-128395639D02*
X62906895Y-128319448D01*
X63706895Y-127633734D02*
X62906895Y-127633734D01*
X62906895Y-127633734D02*
X63706895Y-127176591D01*
X63706895Y-127176591D02*
X62906895Y-127176591D01*
X63783085Y-126986116D02*
X63783085Y-126376592D01*
X63706895Y-126186115D02*
X62906895Y-126186115D01*
X63706895Y-125805163D02*
X62906895Y-125805163D01*
X62906895Y-125805163D02*
X63706895Y-125348020D01*
X63706895Y-125348020D02*
X62906895Y-125348020D01*
X63528323Y-57131830D02*
X63528323Y-56750877D01*
X63756895Y-57208020D02*
X62956895Y-56941353D01*
X62956895Y-56941353D02*
X63756895Y-56674687D01*
X63833085Y-56598497D02*
X63833085Y-55988973D01*
X63756895Y-55798496D02*
X62956895Y-55798496D01*
X62956895Y-55798496D02*
X63756895Y-55341353D01*
X63756895Y-55341353D02*
X62956895Y-55341353D01*
X63706895Y-133536591D02*
X63325942Y-133803258D01*
X63706895Y-133993734D02*
X62906895Y-133993734D01*
X62906895Y-133993734D02*
X62906895Y-133688972D01*
X62906895Y-133688972D02*
X62944990Y-133612782D01*
X62944990Y-133612782D02*
X62983085Y-133574687D01*
X62983085Y-133574687D02*
X63059276Y-133536591D01*
X63059276Y-133536591D02*
X63173561Y-133536591D01*
X63173561Y-133536591D02*
X63249752Y-133574687D01*
X63249752Y-133574687D02*
X63287847Y-133612782D01*
X63287847Y-133612782D02*
X63325942Y-133688972D01*
X63325942Y-133688972D02*
X63325942Y-133993734D01*
X63668800Y-133231830D02*
X63706895Y-133117544D01*
X63706895Y-133117544D02*
X63706895Y-132927068D01*
X63706895Y-132927068D02*
X63668800Y-132850877D01*
X63668800Y-132850877D02*
X63630704Y-132812782D01*
X63630704Y-132812782D02*
X63554514Y-132774687D01*
X63554514Y-132774687D02*
X63478323Y-132774687D01*
X63478323Y-132774687D02*
X63402133Y-132812782D01*
X63402133Y-132812782D02*
X63364038Y-132850877D01*
X63364038Y-132850877D02*
X63325942Y-132927068D01*
X63325942Y-132927068D02*
X63287847Y-133079449D01*
X63287847Y-133079449D02*
X63249752Y-133155639D01*
X63249752Y-133155639D02*
X63211657Y-133193734D01*
X63211657Y-133193734D02*
X63135466Y-133231830D01*
X63135466Y-133231830D02*
X63059276Y-133231830D01*
X63059276Y-133231830D02*
X62983085Y-133193734D01*
X62983085Y-133193734D02*
X62944990Y-133155639D01*
X62944990Y-133155639D02*
X62906895Y-133079449D01*
X62906895Y-133079449D02*
X62906895Y-132888972D01*
X62906895Y-132888972D02*
X62944990Y-132774687D01*
X62906895Y-132546115D02*
X62906895Y-132088972D01*
X63706895Y-132317544D02*
X62906895Y-132317544D01*
X63706895Y-131365162D02*
X63325942Y-131631829D01*
X63706895Y-131822305D02*
X62906895Y-131822305D01*
X62906895Y-131822305D02*
X62906895Y-131517543D01*
X62906895Y-131517543D02*
X62944990Y-131441353D01*
X62944990Y-131441353D02*
X62983085Y-131403258D01*
X62983085Y-131403258D02*
X63059276Y-131365162D01*
X63059276Y-131365162D02*
X63173561Y-131365162D01*
X63173561Y-131365162D02*
X63249752Y-131403258D01*
X63249752Y-131403258D02*
X63287847Y-131441353D01*
X63287847Y-131441353D02*
X63325942Y-131517543D01*
X63325942Y-131517543D02*
X63325942Y-131822305D01*
X63630704Y-138512303D02*
X63668800Y-138550399D01*
X63668800Y-138550399D02*
X63706895Y-138664684D01*
X63706895Y-138664684D02*
X63706895Y-138740875D01*
X63706895Y-138740875D02*
X63668800Y-138855161D01*
X63668800Y-138855161D02*
X63592609Y-138931351D01*
X63592609Y-138931351D02*
X63516419Y-138969446D01*
X63516419Y-138969446D02*
X63364038Y-139007542D01*
X63364038Y-139007542D02*
X63249752Y-139007542D01*
X63249752Y-139007542D02*
X63097371Y-138969446D01*
X63097371Y-138969446D02*
X63021180Y-138931351D01*
X63021180Y-138931351D02*
X62944990Y-138855161D01*
X62944990Y-138855161D02*
X62906895Y-138740875D01*
X62906895Y-138740875D02*
X62906895Y-138664684D01*
X62906895Y-138664684D02*
X62944990Y-138550399D01*
X62944990Y-138550399D02*
X62983085Y-138512303D01*
X63668800Y-138207542D02*
X63706895Y-138093256D01*
X63706895Y-138093256D02*
X63706895Y-137902780D01*
X63706895Y-137902780D02*
X63668800Y-137826589D01*
X63668800Y-137826589D02*
X63630704Y-137788494D01*
X63630704Y-137788494D02*
X63554514Y-137750399D01*
X63554514Y-137750399D02*
X63478323Y-137750399D01*
X63478323Y-137750399D02*
X63402133Y-137788494D01*
X63402133Y-137788494D02*
X63364038Y-137826589D01*
X63364038Y-137826589D02*
X63325942Y-137902780D01*
X63325942Y-137902780D02*
X63287847Y-138055161D01*
X63287847Y-138055161D02*
X63249752Y-138131351D01*
X63249752Y-138131351D02*
X63211657Y-138169446D01*
X63211657Y-138169446D02*
X63135466Y-138207542D01*
X63135466Y-138207542D02*
X63059276Y-138207542D01*
X63059276Y-138207542D02*
X62983085Y-138169446D01*
X62983085Y-138169446D02*
X62944990Y-138131351D01*
X62944990Y-138131351D02*
X62906895Y-138055161D01*
X62906895Y-138055161D02*
X62906895Y-137864684D01*
X62906895Y-137864684D02*
X62944990Y-137750399D01*
X62906895Y-137521827D02*
X62906895Y-137064684D01*
X63706895Y-137293256D02*
X62906895Y-137293256D01*
X63706895Y-136798017D02*
X62906895Y-136798017D01*
X62906895Y-136798017D02*
X62906895Y-136493255D01*
X62906895Y-136493255D02*
X62944990Y-136417065D01*
X62944990Y-136417065D02*
X62983085Y-136378970D01*
X62983085Y-136378970D02*
X63059276Y-136340874D01*
X63059276Y-136340874D02*
X63173561Y-136340874D01*
X63173561Y-136340874D02*
X63249752Y-136378970D01*
X63249752Y-136378970D02*
X63287847Y-136417065D01*
X63287847Y-136417065D02*
X63325942Y-136493255D01*
X63325942Y-136493255D02*
X63325942Y-136798017D01*
X63706895Y-144069446D02*
X62906895Y-144069446D01*
X63287847Y-144069446D02*
X63287847Y-143612303D01*
X63706895Y-143612303D02*
X62906895Y-143612303D01*
X62906895Y-143078970D02*
X62906895Y-142926589D01*
X62906895Y-142926589D02*
X62944990Y-142850399D01*
X62944990Y-142850399D02*
X63021180Y-142774208D01*
X63021180Y-142774208D02*
X63173561Y-142736113D01*
X63173561Y-142736113D02*
X63440228Y-142736113D01*
X63440228Y-142736113D02*
X63592609Y-142774208D01*
X63592609Y-142774208D02*
X63668800Y-142850399D01*
X63668800Y-142850399D02*
X63706895Y-142926589D01*
X63706895Y-142926589D02*
X63706895Y-143078970D01*
X63706895Y-143078970D02*
X63668800Y-143155161D01*
X63668800Y-143155161D02*
X63592609Y-143231351D01*
X63592609Y-143231351D02*
X63440228Y-143269447D01*
X63440228Y-143269447D02*
X63173561Y-143269447D01*
X63173561Y-143269447D02*
X63021180Y-143231351D01*
X63021180Y-143231351D02*
X62944990Y-143155161D01*
X62944990Y-143155161D02*
X62906895Y-143078970D01*
X63706895Y-142393256D02*
X62906895Y-142393256D01*
X62906895Y-142393256D02*
X63478323Y-142126590D01*
X63478323Y-142126590D02*
X62906895Y-141859923D01*
X62906895Y-141859923D02*
X63706895Y-141859923D01*
X63287847Y-141478970D02*
X63287847Y-141212304D01*
X63706895Y-141098018D02*
X63706895Y-141478970D01*
X63706895Y-141478970D02*
X62906895Y-141478970D01*
X62906895Y-141478970D02*
X62906895Y-141098018D01*
X63706895Y-148412303D02*
X63325942Y-148678970D01*
X63706895Y-148869446D02*
X62906895Y-148869446D01*
X62906895Y-148869446D02*
X62906895Y-148564684D01*
X62906895Y-148564684D02*
X62944990Y-148488494D01*
X62944990Y-148488494D02*
X62983085Y-148450399D01*
X62983085Y-148450399D02*
X63059276Y-148412303D01*
X63059276Y-148412303D02*
X63173561Y-148412303D01*
X63173561Y-148412303D02*
X63249752Y-148450399D01*
X63249752Y-148450399D02*
X63287847Y-148488494D01*
X63287847Y-148488494D02*
X63325942Y-148564684D01*
X63325942Y-148564684D02*
X63325942Y-148869446D01*
X63287847Y-148069446D02*
X63287847Y-147802780D01*
X63706895Y-147688494D02*
X63706895Y-148069446D01*
X63706895Y-148069446D02*
X62906895Y-148069446D01*
X62906895Y-148069446D02*
X62906895Y-147688494D01*
X63668800Y-147383732D02*
X63706895Y-147269446D01*
X63706895Y-147269446D02*
X63706895Y-147078970D01*
X63706895Y-147078970D02*
X63668800Y-147002779D01*
X63668800Y-147002779D02*
X63630704Y-146964684D01*
X63630704Y-146964684D02*
X63554514Y-146926589D01*
X63554514Y-146926589D02*
X63478323Y-146926589D01*
X63478323Y-146926589D02*
X63402133Y-146964684D01*
X63402133Y-146964684D02*
X63364038Y-147002779D01*
X63364038Y-147002779D02*
X63325942Y-147078970D01*
X63325942Y-147078970D02*
X63287847Y-147231351D01*
X63287847Y-147231351D02*
X63249752Y-147307541D01*
X63249752Y-147307541D02*
X63211657Y-147345636D01*
X63211657Y-147345636D02*
X63135466Y-147383732D01*
X63135466Y-147383732D02*
X63059276Y-147383732D01*
X63059276Y-147383732D02*
X62983085Y-147345636D01*
X62983085Y-147345636D02*
X62944990Y-147307541D01*
X62944990Y-147307541D02*
X62906895Y-147231351D01*
X62906895Y-147231351D02*
X62906895Y-147040874D01*
X62906895Y-147040874D02*
X62944990Y-146926589D01*
X63668800Y-153907542D02*
X63706895Y-153793256D01*
X63706895Y-153793256D02*
X63706895Y-153602780D01*
X63706895Y-153602780D02*
X63668800Y-153526589D01*
X63668800Y-153526589D02*
X63630704Y-153488494D01*
X63630704Y-153488494D02*
X63554514Y-153450399D01*
X63554514Y-153450399D02*
X63478323Y-153450399D01*
X63478323Y-153450399D02*
X63402133Y-153488494D01*
X63402133Y-153488494D02*
X63364038Y-153526589D01*
X63364038Y-153526589D02*
X63325942Y-153602780D01*
X63325942Y-153602780D02*
X63287847Y-153755161D01*
X63287847Y-153755161D02*
X63249752Y-153831351D01*
X63249752Y-153831351D02*
X63211657Y-153869446D01*
X63211657Y-153869446D02*
X63135466Y-153907542D01*
X63135466Y-153907542D02*
X63059276Y-153907542D01*
X63059276Y-153907542D02*
X62983085Y-153869446D01*
X62983085Y-153869446D02*
X62944990Y-153831351D01*
X62944990Y-153831351D02*
X62906895Y-153755161D01*
X62906895Y-153755161D02*
X62906895Y-153564684D01*
X62906895Y-153564684D02*
X62944990Y-153450399D01*
X62906895Y-152955160D02*
X62906895Y-152802779D01*
X62906895Y-152802779D02*
X62944990Y-152726589D01*
X62944990Y-152726589D02*
X63021180Y-152650398D01*
X63021180Y-152650398D02*
X63173561Y-152612303D01*
X63173561Y-152612303D02*
X63440228Y-152612303D01*
X63440228Y-152612303D02*
X63592609Y-152650398D01*
X63592609Y-152650398D02*
X63668800Y-152726589D01*
X63668800Y-152726589D02*
X63706895Y-152802779D01*
X63706895Y-152802779D02*
X63706895Y-152955160D01*
X63706895Y-152955160D02*
X63668800Y-153031351D01*
X63668800Y-153031351D02*
X63592609Y-153107541D01*
X63592609Y-153107541D02*
X63440228Y-153145637D01*
X63440228Y-153145637D02*
X63173561Y-153145637D01*
X63173561Y-153145637D02*
X63021180Y-153107541D01*
X63021180Y-153107541D02*
X62944990Y-153031351D01*
X62944990Y-153031351D02*
X62906895Y-152955160D01*
X63706895Y-152269446D02*
X62906895Y-152269446D01*
X62906895Y-152269446D02*
X63706895Y-151812303D01*
X63706895Y-151812303D02*
X62906895Y-151812303D01*
X63528323Y-62351830D02*
X63528323Y-61970877D01*
X63756895Y-62428020D02*
X62956895Y-62161353D01*
X62956895Y-62161353D02*
X63756895Y-61894687D01*
X63833085Y-61818497D02*
X63833085Y-61208973D01*
X63756895Y-61018496D02*
X62956895Y-61018496D01*
X62956895Y-61018496D02*
X62956895Y-60713734D01*
X62956895Y-60713734D02*
X62994990Y-60637544D01*
X62994990Y-60637544D02*
X63033085Y-60599449D01*
X63033085Y-60599449D02*
X63109276Y-60561353D01*
X63109276Y-60561353D02*
X63223561Y-60561353D01*
X63223561Y-60561353D02*
X63299752Y-60599449D01*
X63299752Y-60599449D02*
X63337847Y-60637544D01*
X63337847Y-60637544D02*
X63375942Y-60713734D01*
X63375942Y-60713734D02*
X63375942Y-61018496D01*
X63337847Y-67247068D02*
X63375942Y-67132782D01*
X63375942Y-67132782D02*
X63414038Y-67094687D01*
X63414038Y-67094687D02*
X63490228Y-67056591D01*
X63490228Y-67056591D02*
X63604514Y-67056591D01*
X63604514Y-67056591D02*
X63680704Y-67094687D01*
X63680704Y-67094687D02*
X63718800Y-67132782D01*
X63718800Y-67132782D02*
X63756895Y-67208972D01*
X63756895Y-67208972D02*
X63756895Y-67513734D01*
X63756895Y-67513734D02*
X62956895Y-67513734D01*
X62956895Y-67513734D02*
X62956895Y-67247068D01*
X62956895Y-67247068D02*
X62994990Y-67170877D01*
X62994990Y-67170877D02*
X63033085Y-67132782D01*
X63033085Y-67132782D02*
X63109276Y-67094687D01*
X63109276Y-67094687D02*
X63185466Y-67094687D01*
X63185466Y-67094687D02*
X63261657Y-67132782D01*
X63261657Y-67132782D02*
X63299752Y-67170877D01*
X63299752Y-67170877D02*
X63337847Y-67247068D01*
X63337847Y-67247068D02*
X63337847Y-67513734D01*
X63833085Y-66904211D02*
X63833085Y-66294687D01*
X63756895Y-66104210D02*
X62956895Y-66104210D01*
X62956895Y-66104210D02*
X62956895Y-65799448D01*
X62956895Y-65799448D02*
X62994990Y-65723258D01*
X62994990Y-65723258D02*
X63033085Y-65685163D01*
X63033085Y-65685163D02*
X63109276Y-65647067D01*
X63109276Y-65647067D02*
X63223561Y-65647067D01*
X63223561Y-65647067D02*
X63299752Y-65685163D01*
X63299752Y-65685163D02*
X63337847Y-65723258D01*
X63337847Y-65723258D02*
X63375942Y-65799448D01*
X63375942Y-65799448D02*
X63375942Y-66104210D01*
X63337847Y-71947068D02*
X63375942Y-71832782D01*
X63375942Y-71832782D02*
X63414038Y-71794687D01*
X63414038Y-71794687D02*
X63490228Y-71756591D01*
X63490228Y-71756591D02*
X63604514Y-71756591D01*
X63604514Y-71756591D02*
X63680704Y-71794687D01*
X63680704Y-71794687D02*
X63718800Y-71832782D01*
X63718800Y-71832782D02*
X63756895Y-71908972D01*
X63756895Y-71908972D02*
X63756895Y-72213734D01*
X63756895Y-72213734D02*
X62956895Y-72213734D01*
X62956895Y-72213734D02*
X62956895Y-71947068D01*
X62956895Y-71947068D02*
X62994990Y-71870877D01*
X62994990Y-71870877D02*
X63033085Y-71832782D01*
X63033085Y-71832782D02*
X63109276Y-71794687D01*
X63109276Y-71794687D02*
X63185466Y-71794687D01*
X63185466Y-71794687D02*
X63261657Y-71832782D01*
X63261657Y-71832782D02*
X63299752Y-71870877D01*
X63299752Y-71870877D02*
X63337847Y-71947068D01*
X63337847Y-71947068D02*
X63337847Y-72213734D01*
X63833085Y-71604211D02*
X63833085Y-70994687D01*
X63756895Y-70804210D02*
X62956895Y-70804210D01*
X62956895Y-70804210D02*
X63756895Y-70347067D01*
X63756895Y-70347067D02*
X62956895Y-70347067D01*
X62956895Y-77889925D02*
X62956895Y-77356591D01*
X62956895Y-77356591D02*
X63756895Y-77889925D01*
X63756895Y-77889925D02*
X63756895Y-77356591D01*
X63833085Y-77242306D02*
X63833085Y-76632782D01*
X63756895Y-76442305D02*
X62956895Y-76442305D01*
X62956895Y-76442305D02*
X63756895Y-75985162D01*
X63756895Y-75985162D02*
X62956895Y-75985162D01*
X62956895Y-82489925D02*
X62956895Y-81956591D01*
X62956895Y-81956591D02*
X63756895Y-82489925D01*
X63756895Y-82489925D02*
X63756895Y-81956591D01*
X63833085Y-81842306D02*
X63833085Y-81232782D01*
X63756895Y-81042305D02*
X62956895Y-81042305D01*
X62956895Y-81042305D02*
X62956895Y-80737543D01*
X62956895Y-80737543D02*
X62994990Y-80661353D01*
X62994990Y-80661353D02*
X63033085Y-80623258D01*
X63033085Y-80623258D02*
X63109276Y-80585162D01*
X63109276Y-80585162D02*
X63223561Y-80585162D01*
X63223561Y-80585162D02*
X63299752Y-80623258D01*
X63299752Y-80623258D02*
X63337847Y-80661353D01*
X63337847Y-80661353D02*
X63375942Y-80737543D01*
X63375942Y-80737543D02*
X63375942Y-81042305D01*
X62994990Y-87394687D02*
X62956895Y-87470877D01*
X62956895Y-87470877D02*
X62956895Y-87585163D01*
X62956895Y-87585163D02*
X62994990Y-87699449D01*
X62994990Y-87699449D02*
X63071180Y-87775639D01*
X63071180Y-87775639D02*
X63147371Y-87813734D01*
X63147371Y-87813734D02*
X63299752Y-87851830D01*
X63299752Y-87851830D02*
X63414038Y-87851830D01*
X63414038Y-87851830D02*
X63566419Y-87813734D01*
X63566419Y-87813734D02*
X63642609Y-87775639D01*
X63642609Y-87775639D02*
X63718800Y-87699449D01*
X63718800Y-87699449D02*
X63756895Y-87585163D01*
X63756895Y-87585163D02*
X63756895Y-87508972D01*
X63756895Y-87508972D02*
X63718800Y-87394687D01*
X63718800Y-87394687D02*
X63680704Y-87356591D01*
X63680704Y-87356591D02*
X63414038Y-87356591D01*
X63414038Y-87356591D02*
X63414038Y-87508972D01*
X63756895Y-87013734D02*
X62956895Y-87013734D01*
X62956895Y-87013734D02*
X63756895Y-86556591D01*
X63756895Y-86556591D02*
X62956895Y-86556591D01*
X63756895Y-86175639D02*
X62956895Y-86175639D01*
X62956895Y-86175639D02*
X62956895Y-85985163D01*
X62956895Y-85985163D02*
X62994990Y-85870877D01*
X62994990Y-85870877D02*
X63071180Y-85794687D01*
X63071180Y-85794687D02*
X63147371Y-85756592D01*
X63147371Y-85756592D02*
X63299752Y-85718496D01*
X63299752Y-85718496D02*
X63414038Y-85718496D01*
X63414038Y-85718496D02*
X63566419Y-85756592D01*
X63566419Y-85756592D02*
X63642609Y-85794687D01*
X63642609Y-85794687D02*
X63718800Y-85870877D01*
X63718800Y-85870877D02*
X63756895Y-85985163D01*
X63756895Y-85985163D02*
X63756895Y-86175639D01*
X63746895Y-105893734D02*
X62946895Y-105893734D01*
X62946895Y-105893734D02*
X63746895Y-105436591D01*
X63746895Y-105436591D02*
X62946895Y-105436591D01*
X63746895Y-105055639D02*
X62946895Y-105055639D01*
X62946895Y-105055639D02*
X62946895Y-104750877D01*
X62946895Y-104750877D02*
X62984990Y-104674687D01*
X62984990Y-104674687D02*
X63023085Y-104636592D01*
X63023085Y-104636592D02*
X63099276Y-104598496D01*
X63099276Y-104598496D02*
X63213561Y-104598496D01*
X63213561Y-104598496D02*
X63289752Y-104636592D01*
X63289752Y-104636592D02*
X63327847Y-104674687D01*
X63327847Y-104674687D02*
X63365942Y-104750877D01*
X63365942Y-104750877D02*
X63365942Y-105055639D01*
X63823085Y-104446116D02*
X63823085Y-103836592D01*
X63746895Y-103646115D02*
X62946895Y-103646115D01*
X62946895Y-103646115D02*
X63746895Y-103188972D01*
X63746895Y-103188972D02*
X62946895Y-103188972D01*
X63746895Y-111193734D02*
X62946895Y-111193734D01*
X62946895Y-111193734D02*
X63746895Y-110736591D01*
X63746895Y-110736591D02*
X62946895Y-110736591D01*
X63746895Y-110355639D02*
X62946895Y-110355639D01*
X62946895Y-110355639D02*
X62946895Y-110050877D01*
X62946895Y-110050877D02*
X62984990Y-109974687D01*
X62984990Y-109974687D02*
X63023085Y-109936592D01*
X63023085Y-109936592D02*
X63099276Y-109898496D01*
X63099276Y-109898496D02*
X63213561Y-109898496D01*
X63213561Y-109898496D02*
X63289752Y-109936592D01*
X63289752Y-109936592D02*
X63327847Y-109974687D01*
X63327847Y-109974687D02*
X63365942Y-110050877D01*
X63365942Y-110050877D02*
X63365942Y-110355639D01*
X63823085Y-109746116D02*
X63823085Y-109136592D01*
X63746895Y-108946115D02*
X62946895Y-108946115D01*
X62946895Y-108946115D02*
X62946895Y-108641353D01*
X62946895Y-108641353D02*
X62984990Y-108565163D01*
X62984990Y-108565163D02*
X63023085Y-108527068D01*
X63023085Y-108527068D02*
X63099276Y-108488972D01*
X63099276Y-108488972D02*
X63213561Y-108488972D01*
X63213561Y-108488972D02*
X63289752Y-108527068D01*
X63289752Y-108527068D02*
X63327847Y-108565163D01*
X63327847Y-108565163D02*
X63365942Y-108641353D01*
X63365942Y-108641353D02*
X63365942Y-108946115D01*
X63402133Y-119119446D02*
X63402133Y-118509923D01*
X63706895Y-118814684D02*
X63097371Y-118814684D01*
X62983085Y-118167066D02*
X62944990Y-118128970D01*
X62944990Y-118128970D02*
X62906895Y-118052780D01*
X62906895Y-118052780D02*
X62906895Y-117862304D01*
X62906895Y-117862304D02*
X62944990Y-117786113D01*
X62944990Y-117786113D02*
X62983085Y-117748018D01*
X62983085Y-117748018D02*
X63059276Y-117709923D01*
X63059276Y-117709923D02*
X63135466Y-117709923D01*
X63135466Y-117709923D02*
X63249752Y-117748018D01*
X63249752Y-117748018D02*
X63706895Y-118205161D01*
X63706895Y-118205161D02*
X63706895Y-117709923D01*
X63173561Y-117024208D02*
X63706895Y-117024208D01*
X62868800Y-117214684D02*
X63440228Y-117405161D01*
X63440228Y-117405161D02*
X63440228Y-116909922D01*
X62906895Y-116719446D02*
X63706895Y-116452779D01*
X63706895Y-116452779D02*
X62906895Y-116186113D01*
X62944990Y-123400399D02*
X62906895Y-123476589D01*
X62906895Y-123476589D02*
X62906895Y-123590875D01*
X62906895Y-123590875D02*
X62944990Y-123705161D01*
X62944990Y-123705161D02*
X63021180Y-123781351D01*
X63021180Y-123781351D02*
X63097371Y-123819446D01*
X63097371Y-123819446D02*
X63249752Y-123857542D01*
X63249752Y-123857542D02*
X63364038Y-123857542D01*
X63364038Y-123857542D02*
X63516419Y-123819446D01*
X63516419Y-123819446D02*
X63592609Y-123781351D01*
X63592609Y-123781351D02*
X63668800Y-123705161D01*
X63668800Y-123705161D02*
X63706895Y-123590875D01*
X63706895Y-123590875D02*
X63706895Y-123514684D01*
X63706895Y-123514684D02*
X63668800Y-123400399D01*
X63668800Y-123400399D02*
X63630704Y-123362303D01*
X63630704Y-123362303D02*
X63364038Y-123362303D01*
X63364038Y-123362303D02*
X63364038Y-123514684D01*
X63706895Y-123019446D02*
X62906895Y-123019446D01*
X62906895Y-123019446D02*
X63706895Y-122562303D01*
X63706895Y-122562303D02*
X62906895Y-122562303D01*
X63706895Y-122181351D02*
X62906895Y-122181351D01*
X62906895Y-122181351D02*
X62906895Y-121990875D01*
X62906895Y-121990875D02*
X62944990Y-121876589D01*
X62944990Y-121876589D02*
X63021180Y-121800399D01*
X63021180Y-121800399D02*
X63097371Y-121762304D01*
X63097371Y-121762304D02*
X63249752Y-121724208D01*
X63249752Y-121724208D02*
X63364038Y-121724208D01*
X63364038Y-121724208D02*
X63516419Y-121762304D01*
X63516419Y-121762304D02*
X63592609Y-121800399D01*
X63592609Y-121800399D02*
X63668800Y-121876589D01*
X63668800Y-121876589D02*
X63706895Y-121990875D01*
X63706895Y-121990875D02*
X63706895Y-122181351D01*
X63668800Y-169317542D02*
X63706895Y-169203256D01*
X63706895Y-169203256D02*
X63706895Y-169012780D01*
X63706895Y-169012780D02*
X63668800Y-168936589D01*
X63668800Y-168936589D02*
X63630704Y-168898494D01*
X63630704Y-168898494D02*
X63554514Y-168860399D01*
X63554514Y-168860399D02*
X63478323Y-168860399D01*
X63478323Y-168860399D02*
X63402133Y-168898494D01*
X63402133Y-168898494D02*
X63364038Y-168936589D01*
X63364038Y-168936589D02*
X63325942Y-169012780D01*
X63325942Y-169012780D02*
X63287847Y-169165161D01*
X63287847Y-169165161D02*
X63249752Y-169241351D01*
X63249752Y-169241351D02*
X63211657Y-169279446D01*
X63211657Y-169279446D02*
X63135466Y-169317542D01*
X63135466Y-169317542D02*
X63059276Y-169317542D01*
X63059276Y-169317542D02*
X62983085Y-169279446D01*
X62983085Y-169279446D02*
X62944990Y-169241351D01*
X62944990Y-169241351D02*
X62906895Y-169165161D01*
X62906895Y-169165161D02*
X62906895Y-168974684D01*
X62906895Y-168974684D02*
X62944990Y-168860399D01*
X62906895Y-168631827D02*
X63706895Y-168365160D01*
X63706895Y-168365160D02*
X62906895Y-168098494D01*
X63706895Y-174479446D02*
X62906895Y-174479446D01*
X63706895Y-174098494D02*
X62906895Y-174098494D01*
X62906895Y-174098494D02*
X63706895Y-173641351D01*
X63706895Y-173641351D02*
X62906895Y-173641351D01*
X63706895Y-173260399D02*
X62906895Y-173260399D01*
X62906895Y-173260399D02*
X62906895Y-172955637D01*
X62906895Y-172955637D02*
X62944990Y-172879447D01*
X62944990Y-172879447D02*
X62983085Y-172841352D01*
X62983085Y-172841352D02*
X63059276Y-172803256D01*
X63059276Y-172803256D02*
X63173561Y-172803256D01*
X63173561Y-172803256D02*
X63249752Y-172841352D01*
X63249752Y-172841352D02*
X63287847Y-172879447D01*
X63287847Y-172879447D02*
X63325942Y-172955637D01*
X63325942Y-172955637D02*
X63325942Y-173260399D01*
X63706895Y-180079446D02*
X62906895Y-180079446D01*
X63287847Y-180079446D02*
X63287847Y-179622303D01*
X63706895Y-179622303D02*
X62906895Y-179622303D01*
X63287847Y-179241351D02*
X63287847Y-178974685D01*
X63706895Y-178860399D02*
X63706895Y-179241351D01*
X63706895Y-179241351D02*
X62906895Y-179241351D01*
X62906895Y-179241351D02*
X62906895Y-178860399D01*
X63706895Y-178517541D02*
X62906895Y-178517541D01*
X62906895Y-178517541D02*
X63706895Y-178060398D01*
X63706895Y-178060398D02*
X62906895Y-178060398D01*
X63706895Y-177679446D02*
X62906895Y-177679446D01*
X62906895Y-177679446D02*
X62906895Y-177488970D01*
X62906895Y-177488970D02*
X62944990Y-177374684D01*
X62944990Y-177374684D02*
X63021180Y-177298494D01*
X63021180Y-177298494D02*
X63097371Y-177260399D01*
X63097371Y-177260399D02*
X63249752Y-177222303D01*
X63249752Y-177222303D02*
X63364038Y-177222303D01*
X63364038Y-177222303D02*
X63516419Y-177260399D01*
X63516419Y-177260399D02*
X63592609Y-177298494D01*
X63592609Y-177298494D02*
X63668800Y-177374684D01*
X63668800Y-177374684D02*
X63706895Y-177488970D01*
X63706895Y-177488970D02*
X63706895Y-177679446D01*
X62906895Y-184565161D02*
X63097371Y-184565161D01*
X63021180Y-184755637D02*
X63097371Y-184565161D01*
X63097371Y-184565161D02*
X63021180Y-184374684D01*
X63249752Y-184679446D02*
X63097371Y-184565161D01*
X63097371Y-184565161D02*
X63249752Y-184450875D01*
X63478323Y-184108018D02*
X63478323Y-183727065D01*
X63706895Y-184184208D02*
X62906895Y-183917541D01*
X62906895Y-183917541D02*
X63706895Y-183650875D01*
X63706895Y-183003256D02*
X63706895Y-183384208D01*
X63706895Y-183384208D02*
X62906895Y-183384208D01*
X63706895Y-182736589D02*
X62906895Y-182736589D01*
X62906895Y-182736589D02*
X63478323Y-182469923D01*
X63478323Y-182469923D02*
X62906895Y-182203256D01*
X62906895Y-182203256D02*
X63706895Y-182203256D01*
X62906895Y-159569449D02*
X63097371Y-159569449D01*
X63021180Y-159759925D02*
X63097371Y-159569449D01*
X63097371Y-159569449D02*
X63021180Y-159378972D01*
X63249752Y-159683734D02*
X63097371Y-159569449D01*
X63097371Y-159569449D02*
X63249752Y-159455163D01*
X63287847Y-159074210D02*
X63287847Y-158807544D01*
X63706895Y-158693258D02*
X63706895Y-159074210D01*
X63706895Y-159074210D02*
X62906895Y-159074210D01*
X62906895Y-159074210D02*
X62906895Y-158693258D01*
X63706895Y-158350400D02*
X62906895Y-158350400D01*
X62906895Y-158350400D02*
X63478323Y-158083734D01*
X63478323Y-158083734D02*
X62906895Y-157817067D01*
X62906895Y-157817067D02*
X63706895Y-157817067D01*
X62944990Y-157017067D02*
X62906895Y-157093257D01*
X62906895Y-157093257D02*
X62906895Y-157207543D01*
X62906895Y-157207543D02*
X62944990Y-157321829D01*
X62944990Y-157321829D02*
X63021180Y-157398019D01*
X63021180Y-157398019D02*
X63097371Y-157436114D01*
X63097371Y-157436114D02*
X63249752Y-157474210D01*
X63249752Y-157474210D02*
X63364038Y-157474210D01*
X63364038Y-157474210D02*
X63516419Y-157436114D01*
X63516419Y-157436114D02*
X63592609Y-157398019D01*
X63592609Y-157398019D02*
X63668800Y-157321829D01*
X63668800Y-157321829D02*
X63706895Y-157207543D01*
X63706895Y-157207543D02*
X63706895Y-157131352D01*
X63706895Y-157131352D02*
X63668800Y-157017067D01*
X63668800Y-157017067D02*
X63630704Y-156978971D01*
X63630704Y-156978971D02*
X63364038Y-156978971D01*
X63364038Y-156978971D02*
X63364038Y-157131352D01*
X63668800Y-156674210D02*
X63706895Y-156559924D01*
X63706895Y-156559924D02*
X63706895Y-156369448D01*
X63706895Y-156369448D02*
X63668800Y-156293257D01*
X63668800Y-156293257D02*
X63630704Y-156255162D01*
X63630704Y-156255162D02*
X63554514Y-156217067D01*
X63554514Y-156217067D02*
X63478323Y-156217067D01*
X63478323Y-156217067D02*
X63402133Y-156255162D01*
X63402133Y-156255162D02*
X63364038Y-156293257D01*
X63364038Y-156293257D02*
X63325942Y-156369448D01*
X63325942Y-156369448D02*
X63287847Y-156521829D01*
X63287847Y-156521829D02*
X63249752Y-156598019D01*
X63249752Y-156598019D02*
X63211657Y-156636114D01*
X63211657Y-156636114D02*
X63135466Y-156674210D01*
X63135466Y-156674210D02*
X63059276Y-156674210D01*
X63059276Y-156674210D02*
X62983085Y-156636114D01*
X62983085Y-156636114D02*
X62944990Y-156598019D01*
X62944990Y-156598019D02*
X62906895Y-156521829D01*
X62906895Y-156521829D02*
X62906895Y-156331352D01*
X62906895Y-156331352D02*
X62944990Y-156217067D01*
X63706895Y-164186460D02*
X63325942Y-164453127D01*
X63706895Y-164643603D02*
X62906895Y-164643603D01*
X62906895Y-164643603D02*
X62906895Y-164338841D01*
X62906895Y-164338841D02*
X62944990Y-164262651D01*
X62944990Y-164262651D02*
X62983085Y-164224556D01*
X62983085Y-164224556D02*
X63059276Y-164186460D01*
X63059276Y-164186460D02*
X63173561Y-164186460D01*
X63173561Y-164186460D02*
X63249752Y-164224556D01*
X63249752Y-164224556D02*
X63287847Y-164262651D01*
X63287847Y-164262651D02*
X63325942Y-164338841D01*
X63325942Y-164338841D02*
X63325942Y-164643603D01*
X63287847Y-163843603D02*
X63287847Y-163576937D01*
X63706895Y-163462651D02*
X63706895Y-163843603D01*
X63706895Y-163843603D02*
X62906895Y-163843603D01*
X62906895Y-163843603D02*
X62906895Y-163462651D01*
X63706895Y-163119793D02*
X62906895Y-163119793D01*
X62906895Y-163119793D02*
X63706895Y-162662650D01*
X63706895Y-162662650D02*
X62906895Y-162662650D01*
X115465009Y-56051024D02*
X115503104Y-55974834D01*
X115503104Y-55974834D02*
X115503104Y-55860548D01*
X115503104Y-55860548D02*
X115465009Y-55746262D01*
X115465009Y-55746262D02*
X115388819Y-55670072D01*
X115388819Y-55670072D02*
X115312628Y-55631977D01*
X115312628Y-55631977D02*
X115160247Y-55593881D01*
X115160247Y-55593881D02*
X115045961Y-55593881D01*
X115045961Y-55593881D02*
X114893580Y-55631977D01*
X114893580Y-55631977D02*
X114817390Y-55670072D01*
X114817390Y-55670072D02*
X114741200Y-55746262D01*
X114741200Y-55746262D02*
X114703104Y-55860548D01*
X114703104Y-55860548D02*
X114703104Y-55936739D01*
X114703104Y-55936739D02*
X114741200Y-56051024D01*
X114741200Y-56051024D02*
X114779295Y-56089120D01*
X114779295Y-56089120D02*
X115045961Y-56089120D01*
X115045961Y-56089120D02*
X115045961Y-55936739D01*
X114703104Y-56431977D02*
X115503104Y-56431977D01*
X115503104Y-56431977D02*
X114703104Y-56889120D01*
X114703104Y-56889120D02*
X115503104Y-56889120D01*
X114703104Y-57270072D02*
X115503104Y-57270072D01*
X115503104Y-57270072D02*
X115503104Y-57460548D01*
X115503104Y-57460548D02*
X115465009Y-57574834D01*
X115465009Y-57574834D02*
X115388819Y-57651024D01*
X115388819Y-57651024D02*
X115312628Y-57689119D01*
X115312628Y-57689119D02*
X115160247Y-57727215D01*
X115160247Y-57727215D02*
X115045961Y-57727215D01*
X115045961Y-57727215D02*
X114893580Y-57689119D01*
X114893580Y-57689119D02*
X114817390Y-57651024D01*
X114817390Y-57651024D02*
X114741200Y-57574834D01*
X114741200Y-57574834D02*
X114703104Y-57460548D01*
X114703104Y-57460548D02*
X114703104Y-57270072D01*
X114931676Y-61293881D02*
X114931676Y-61674834D01*
X114703104Y-61217691D02*
X115503104Y-61484358D01*
X115503104Y-61484358D02*
X114703104Y-61751024D01*
X115122152Y-66698643D02*
X115084057Y-66812929D01*
X115084057Y-66812929D02*
X115045961Y-66851024D01*
X115045961Y-66851024D02*
X114969771Y-66889120D01*
X114969771Y-66889120D02*
X114855485Y-66889120D01*
X114855485Y-66889120D02*
X114779295Y-66851024D01*
X114779295Y-66851024D02*
X114741200Y-66812929D01*
X114741200Y-66812929D02*
X114703104Y-66736739D01*
X114703104Y-66736739D02*
X114703104Y-66431977D01*
X114703104Y-66431977D02*
X115503104Y-66431977D01*
X115503104Y-66431977D02*
X115503104Y-66698643D01*
X115503104Y-66698643D02*
X115465009Y-66774834D01*
X115465009Y-66774834D02*
X115426914Y-66812929D01*
X115426914Y-66812929D02*
X115350723Y-66851024D01*
X115350723Y-66851024D02*
X115274533Y-66851024D01*
X115274533Y-66851024D02*
X115198342Y-66812929D01*
X115198342Y-66812929D02*
X115160247Y-66774834D01*
X115160247Y-66774834D02*
X115122152Y-66698643D01*
X115122152Y-66698643D02*
X115122152Y-66431977D01*
X115503104Y-71155786D02*
X115503104Y-71689120D01*
X115503104Y-71689120D02*
X114703104Y-71155786D01*
X114703104Y-71155786D02*
X114703104Y-71689120D01*
X115465009Y-80951024D02*
X115503104Y-80874834D01*
X115503104Y-80874834D02*
X115503104Y-80760548D01*
X115503104Y-80760548D02*
X115465009Y-80646262D01*
X115465009Y-80646262D02*
X115388819Y-80570072D01*
X115388819Y-80570072D02*
X115312628Y-80531977D01*
X115312628Y-80531977D02*
X115160247Y-80493881D01*
X115160247Y-80493881D02*
X115045961Y-80493881D01*
X115045961Y-80493881D02*
X114893580Y-80531977D01*
X114893580Y-80531977D02*
X114817390Y-80570072D01*
X114817390Y-80570072D02*
X114741200Y-80646262D01*
X114741200Y-80646262D02*
X114703104Y-80760548D01*
X114703104Y-80760548D02*
X114703104Y-80836739D01*
X114703104Y-80836739D02*
X114741200Y-80951024D01*
X114741200Y-80951024D02*
X114779295Y-80989120D01*
X114779295Y-80989120D02*
X115045961Y-80989120D01*
X115045961Y-80989120D02*
X115045961Y-80836739D01*
X114703104Y-81331977D02*
X115503104Y-81331977D01*
X115503104Y-81331977D02*
X114703104Y-81789120D01*
X114703104Y-81789120D02*
X115503104Y-81789120D01*
X114703104Y-82170072D02*
X115503104Y-82170072D01*
X115503104Y-82170072D02*
X115503104Y-82360548D01*
X115503104Y-82360548D02*
X115465009Y-82474834D01*
X115465009Y-82474834D02*
X115388819Y-82551024D01*
X115388819Y-82551024D02*
X115312628Y-82589119D01*
X115312628Y-82589119D02*
X115160247Y-82627215D01*
X115160247Y-82627215D02*
X115045961Y-82627215D01*
X115045961Y-82627215D02*
X114893580Y-82589119D01*
X114893580Y-82589119D02*
X114817390Y-82551024D01*
X114817390Y-82551024D02*
X114741200Y-82474834D01*
X114741200Y-82474834D02*
X114703104Y-82360548D01*
X114703104Y-82360548D02*
X114703104Y-82170072D01*
X115007866Y-85131977D02*
X115007866Y-85741501D01*
X114703104Y-85436739D02*
X115312628Y-85436739D01*
X115426914Y-86084357D02*
X115465009Y-86122453D01*
X115465009Y-86122453D02*
X115503104Y-86198643D01*
X115503104Y-86198643D02*
X115503104Y-86389119D01*
X115503104Y-86389119D02*
X115465009Y-86465310D01*
X115465009Y-86465310D02*
X115426914Y-86503405D01*
X115426914Y-86503405D02*
X115350723Y-86541500D01*
X115350723Y-86541500D02*
X115274533Y-86541500D01*
X115274533Y-86541500D02*
X115160247Y-86503405D01*
X115160247Y-86503405D02*
X114703104Y-86046262D01*
X114703104Y-86046262D02*
X114703104Y-86541500D01*
X115236438Y-87227215D02*
X114703104Y-87227215D01*
X115541200Y-87036739D02*
X114969771Y-86846262D01*
X114969771Y-86846262D02*
X114969771Y-87341501D01*
X115503104Y-87531977D02*
X114703104Y-87798644D01*
X114703104Y-87798644D02*
X115503104Y-88065310D01*
X115153104Y-120556265D02*
X115953104Y-120556265D01*
X115953104Y-120556265D02*
X115953104Y-120746741D01*
X115953104Y-120746741D02*
X115915009Y-120861027D01*
X115915009Y-120861027D02*
X115838819Y-120937217D01*
X115838819Y-120937217D02*
X115762628Y-120975312D01*
X115762628Y-120975312D02*
X115610247Y-121013408D01*
X115610247Y-121013408D02*
X115495961Y-121013408D01*
X115495961Y-121013408D02*
X115343580Y-120975312D01*
X115343580Y-120975312D02*
X115267390Y-120937217D01*
X115267390Y-120937217D02*
X115191200Y-120861027D01*
X115191200Y-120861027D02*
X115153104Y-120746741D01*
X115153104Y-120746741D02*
X115153104Y-120556265D01*
X115153104Y-121356265D02*
X115953104Y-121356265D01*
X115953104Y-121889598D02*
X115953104Y-122041979D01*
X115953104Y-122041979D02*
X115915009Y-122118169D01*
X115915009Y-122118169D02*
X115838819Y-122194360D01*
X115838819Y-122194360D02*
X115686438Y-122232455D01*
X115686438Y-122232455D02*
X115419771Y-122232455D01*
X115419771Y-122232455D02*
X115267390Y-122194360D01*
X115267390Y-122194360D02*
X115191200Y-122118169D01*
X115191200Y-122118169D02*
X115153104Y-122041979D01*
X115153104Y-122041979D02*
X115153104Y-121889598D01*
X115153104Y-121889598D02*
X115191200Y-121813407D01*
X115191200Y-121813407D02*
X115267390Y-121737217D01*
X115267390Y-121737217D02*
X115419771Y-121699121D01*
X115419771Y-121699121D02*
X115686438Y-121699121D01*
X115686438Y-121699121D02*
X115838819Y-121737217D01*
X115838819Y-121737217D02*
X115915009Y-121813407D01*
X115915009Y-121813407D02*
X115953104Y-121889598D01*
X115076914Y-122384836D02*
X115076914Y-122994359D01*
X115953104Y-123337217D02*
X115953104Y-123489598D01*
X115953104Y-123489598D02*
X115915009Y-123565788D01*
X115915009Y-123565788D02*
X115838819Y-123641979D01*
X115838819Y-123641979D02*
X115686438Y-123680074D01*
X115686438Y-123680074D02*
X115419771Y-123680074D01*
X115419771Y-123680074D02*
X115267390Y-123641979D01*
X115267390Y-123641979D02*
X115191200Y-123565788D01*
X115191200Y-123565788D02*
X115153104Y-123489598D01*
X115153104Y-123489598D02*
X115153104Y-123337217D01*
X115153104Y-123337217D02*
X115191200Y-123261026D01*
X115191200Y-123261026D02*
X115267390Y-123184836D01*
X115267390Y-123184836D02*
X115419771Y-123146740D01*
X115419771Y-123146740D02*
X115686438Y-123146740D01*
X115686438Y-123146740D02*
X115838819Y-123184836D01*
X115838819Y-123184836D02*
X115915009Y-123261026D01*
X115915009Y-123261026D02*
X115953104Y-123337217D01*
X115953104Y-124022931D02*
X115305485Y-124022931D01*
X115305485Y-124022931D02*
X115229295Y-124061026D01*
X115229295Y-124061026D02*
X115191200Y-124099121D01*
X115191200Y-124099121D02*
X115153104Y-124175312D01*
X115153104Y-124175312D02*
X115153104Y-124327693D01*
X115153104Y-124327693D02*
X115191200Y-124403883D01*
X115191200Y-124403883D02*
X115229295Y-124441978D01*
X115229295Y-124441978D02*
X115305485Y-124480074D01*
X115305485Y-124480074D02*
X115953104Y-124480074D01*
X115953104Y-124746740D02*
X115953104Y-125203883D01*
X115153104Y-124975311D02*
X115953104Y-124975311D01*
X115063104Y-127193277D02*
X115444057Y-126926610D01*
X115063104Y-126736134D02*
X115863104Y-126736134D01*
X115863104Y-126736134D02*
X115863104Y-127040896D01*
X115863104Y-127040896D02*
X115825009Y-127117086D01*
X115825009Y-127117086D02*
X115786914Y-127155181D01*
X115786914Y-127155181D02*
X115710723Y-127193277D01*
X115710723Y-127193277D02*
X115596438Y-127193277D01*
X115596438Y-127193277D02*
X115520247Y-127155181D01*
X115520247Y-127155181D02*
X115482152Y-127117086D01*
X115482152Y-127117086D02*
X115444057Y-127040896D01*
X115444057Y-127040896D02*
X115444057Y-126736134D01*
X115101200Y-127498038D02*
X115063104Y-127612324D01*
X115063104Y-127612324D02*
X115063104Y-127802800D01*
X115063104Y-127802800D02*
X115101200Y-127878991D01*
X115101200Y-127878991D02*
X115139295Y-127917086D01*
X115139295Y-127917086D02*
X115215485Y-127955181D01*
X115215485Y-127955181D02*
X115291676Y-127955181D01*
X115291676Y-127955181D02*
X115367866Y-127917086D01*
X115367866Y-127917086D02*
X115405961Y-127878991D01*
X115405961Y-127878991D02*
X115444057Y-127802800D01*
X115444057Y-127802800D02*
X115482152Y-127650419D01*
X115482152Y-127650419D02*
X115520247Y-127574229D01*
X115520247Y-127574229D02*
X115558342Y-127536134D01*
X115558342Y-127536134D02*
X115634533Y-127498038D01*
X115634533Y-127498038D02*
X115710723Y-127498038D01*
X115710723Y-127498038D02*
X115786914Y-127536134D01*
X115786914Y-127536134D02*
X115825009Y-127574229D01*
X115825009Y-127574229D02*
X115863104Y-127650419D01*
X115863104Y-127650419D02*
X115863104Y-127840896D01*
X115863104Y-127840896D02*
X115825009Y-127955181D01*
X115863104Y-128183753D02*
X115863104Y-128640896D01*
X115063104Y-128412324D02*
X115863104Y-128412324D01*
X115063104Y-129364706D02*
X115444057Y-129098039D01*
X115063104Y-128907563D02*
X115863104Y-128907563D01*
X115863104Y-128907563D02*
X115863104Y-129212325D01*
X115863104Y-129212325D02*
X115825009Y-129288515D01*
X115825009Y-129288515D02*
X115786914Y-129326610D01*
X115786914Y-129326610D02*
X115710723Y-129364706D01*
X115710723Y-129364706D02*
X115596438Y-129364706D01*
X115596438Y-129364706D02*
X115520247Y-129326610D01*
X115520247Y-129326610D02*
X115482152Y-129288515D01*
X115482152Y-129288515D02*
X115444057Y-129212325D01*
X115444057Y-129212325D02*
X115444057Y-128907563D01*
X115229295Y-132453277D02*
X115191200Y-132415181D01*
X115191200Y-132415181D02*
X115153104Y-132300896D01*
X115153104Y-132300896D02*
X115153104Y-132224705D01*
X115153104Y-132224705D02*
X115191200Y-132110419D01*
X115191200Y-132110419D02*
X115267390Y-132034229D01*
X115267390Y-132034229D02*
X115343580Y-131996134D01*
X115343580Y-131996134D02*
X115495961Y-131958038D01*
X115495961Y-131958038D02*
X115610247Y-131958038D01*
X115610247Y-131958038D02*
X115762628Y-131996134D01*
X115762628Y-131996134D02*
X115838819Y-132034229D01*
X115838819Y-132034229D02*
X115915009Y-132110419D01*
X115915009Y-132110419D02*
X115953104Y-132224705D01*
X115953104Y-132224705D02*
X115953104Y-132300896D01*
X115953104Y-132300896D02*
X115915009Y-132415181D01*
X115915009Y-132415181D02*
X115876914Y-132453277D01*
X115191200Y-132758038D02*
X115153104Y-132872324D01*
X115153104Y-132872324D02*
X115153104Y-133062800D01*
X115153104Y-133062800D02*
X115191200Y-133138991D01*
X115191200Y-133138991D02*
X115229295Y-133177086D01*
X115229295Y-133177086D02*
X115305485Y-133215181D01*
X115305485Y-133215181D02*
X115381676Y-133215181D01*
X115381676Y-133215181D02*
X115457866Y-133177086D01*
X115457866Y-133177086D02*
X115495961Y-133138991D01*
X115495961Y-133138991D02*
X115534057Y-133062800D01*
X115534057Y-133062800D02*
X115572152Y-132910419D01*
X115572152Y-132910419D02*
X115610247Y-132834229D01*
X115610247Y-132834229D02*
X115648342Y-132796134D01*
X115648342Y-132796134D02*
X115724533Y-132758038D01*
X115724533Y-132758038D02*
X115800723Y-132758038D01*
X115800723Y-132758038D02*
X115876914Y-132796134D01*
X115876914Y-132796134D02*
X115915009Y-132834229D01*
X115915009Y-132834229D02*
X115953104Y-132910419D01*
X115953104Y-132910419D02*
X115953104Y-133100896D01*
X115953104Y-133100896D02*
X115915009Y-133215181D01*
X115953104Y-133443753D02*
X115953104Y-133900896D01*
X115153104Y-133672324D02*
X115953104Y-133672324D01*
X115153104Y-134167563D02*
X115953104Y-134167563D01*
X115953104Y-134167563D02*
X115953104Y-134472325D01*
X115953104Y-134472325D02*
X115915009Y-134548515D01*
X115915009Y-134548515D02*
X115876914Y-134586610D01*
X115876914Y-134586610D02*
X115800723Y-134624706D01*
X115800723Y-134624706D02*
X115686438Y-134624706D01*
X115686438Y-134624706D02*
X115610247Y-134586610D01*
X115610247Y-134586610D02*
X115572152Y-134548515D01*
X115572152Y-134548515D02*
X115534057Y-134472325D01*
X115534057Y-134472325D02*
X115534057Y-134167563D01*
X115153104Y-136996134D02*
X115953104Y-136996134D01*
X115572152Y-136996134D02*
X115572152Y-137453277D01*
X115153104Y-137453277D02*
X115953104Y-137453277D01*
X115953104Y-137986610D02*
X115953104Y-138138991D01*
X115953104Y-138138991D02*
X115915009Y-138215181D01*
X115915009Y-138215181D02*
X115838819Y-138291372D01*
X115838819Y-138291372D02*
X115686438Y-138329467D01*
X115686438Y-138329467D02*
X115419771Y-138329467D01*
X115419771Y-138329467D02*
X115267390Y-138291372D01*
X115267390Y-138291372D02*
X115191200Y-138215181D01*
X115191200Y-138215181D02*
X115153104Y-138138991D01*
X115153104Y-138138991D02*
X115153104Y-137986610D01*
X115153104Y-137986610D02*
X115191200Y-137910419D01*
X115191200Y-137910419D02*
X115267390Y-137834229D01*
X115267390Y-137834229D02*
X115419771Y-137796133D01*
X115419771Y-137796133D02*
X115686438Y-137796133D01*
X115686438Y-137796133D02*
X115838819Y-137834229D01*
X115838819Y-137834229D02*
X115915009Y-137910419D01*
X115915009Y-137910419D02*
X115953104Y-137986610D01*
X115153104Y-138672324D02*
X115953104Y-138672324D01*
X115953104Y-138672324D02*
X115381676Y-138938990D01*
X115381676Y-138938990D02*
X115953104Y-139205657D01*
X115953104Y-139205657D02*
X115153104Y-139205657D01*
X115572152Y-139586610D02*
X115572152Y-139853276D01*
X115153104Y-139967562D02*
X115153104Y-139586610D01*
X115153104Y-139586610D02*
X115953104Y-139586610D01*
X115953104Y-139586610D02*
X115953104Y-139967562D01*
X115153104Y-142953277D02*
X115534057Y-142686610D01*
X115153104Y-142496134D02*
X115953104Y-142496134D01*
X115953104Y-142496134D02*
X115953104Y-142800896D01*
X115953104Y-142800896D02*
X115915009Y-142877086D01*
X115915009Y-142877086D02*
X115876914Y-142915181D01*
X115876914Y-142915181D02*
X115800723Y-142953277D01*
X115800723Y-142953277D02*
X115686438Y-142953277D01*
X115686438Y-142953277D02*
X115610247Y-142915181D01*
X115610247Y-142915181D02*
X115572152Y-142877086D01*
X115572152Y-142877086D02*
X115534057Y-142800896D01*
X115534057Y-142800896D02*
X115534057Y-142496134D01*
X115572152Y-143296134D02*
X115572152Y-143562800D01*
X115153104Y-143677086D02*
X115153104Y-143296134D01*
X115153104Y-143296134D02*
X115953104Y-143296134D01*
X115953104Y-143296134D02*
X115953104Y-143677086D01*
X115191200Y-143981848D02*
X115153104Y-144096134D01*
X115153104Y-144096134D02*
X115153104Y-144286610D01*
X115153104Y-144286610D02*
X115191200Y-144362801D01*
X115191200Y-144362801D02*
X115229295Y-144400896D01*
X115229295Y-144400896D02*
X115305485Y-144438991D01*
X115305485Y-144438991D02*
X115381676Y-144438991D01*
X115381676Y-144438991D02*
X115457866Y-144400896D01*
X115457866Y-144400896D02*
X115495961Y-144362801D01*
X115495961Y-144362801D02*
X115534057Y-144286610D01*
X115534057Y-144286610D02*
X115572152Y-144134229D01*
X115572152Y-144134229D02*
X115610247Y-144058039D01*
X115610247Y-144058039D02*
X115648342Y-144019944D01*
X115648342Y-144019944D02*
X115724533Y-143981848D01*
X115724533Y-143981848D02*
X115800723Y-143981848D01*
X115800723Y-143981848D02*
X115876914Y-144019944D01*
X115876914Y-144019944D02*
X115915009Y-144058039D01*
X115915009Y-144058039D02*
X115953104Y-144134229D01*
X115953104Y-144134229D02*
X115953104Y-144324706D01*
X115953104Y-144324706D02*
X115915009Y-144438991D01*
X115191200Y-147558038D02*
X115153104Y-147672324D01*
X115153104Y-147672324D02*
X115153104Y-147862800D01*
X115153104Y-147862800D02*
X115191200Y-147938991D01*
X115191200Y-147938991D02*
X115229295Y-147977086D01*
X115229295Y-147977086D02*
X115305485Y-148015181D01*
X115305485Y-148015181D02*
X115381676Y-148015181D01*
X115381676Y-148015181D02*
X115457866Y-147977086D01*
X115457866Y-147977086D02*
X115495961Y-147938991D01*
X115495961Y-147938991D02*
X115534057Y-147862800D01*
X115534057Y-147862800D02*
X115572152Y-147710419D01*
X115572152Y-147710419D02*
X115610247Y-147634229D01*
X115610247Y-147634229D02*
X115648342Y-147596134D01*
X115648342Y-147596134D02*
X115724533Y-147558038D01*
X115724533Y-147558038D02*
X115800723Y-147558038D01*
X115800723Y-147558038D02*
X115876914Y-147596134D01*
X115876914Y-147596134D02*
X115915009Y-147634229D01*
X115915009Y-147634229D02*
X115953104Y-147710419D01*
X115953104Y-147710419D02*
X115953104Y-147900896D01*
X115953104Y-147900896D02*
X115915009Y-148015181D01*
X115953104Y-148510420D02*
X115953104Y-148662801D01*
X115953104Y-148662801D02*
X115915009Y-148738991D01*
X115915009Y-148738991D02*
X115838819Y-148815182D01*
X115838819Y-148815182D02*
X115686438Y-148853277D01*
X115686438Y-148853277D02*
X115419771Y-148853277D01*
X115419771Y-148853277D02*
X115267390Y-148815182D01*
X115267390Y-148815182D02*
X115191200Y-148738991D01*
X115191200Y-148738991D02*
X115153104Y-148662801D01*
X115153104Y-148662801D02*
X115153104Y-148510420D01*
X115153104Y-148510420D02*
X115191200Y-148434229D01*
X115191200Y-148434229D02*
X115267390Y-148358039D01*
X115267390Y-148358039D02*
X115419771Y-148319943D01*
X115419771Y-148319943D02*
X115686438Y-148319943D01*
X115686438Y-148319943D02*
X115838819Y-148358039D01*
X115838819Y-148358039D02*
X115915009Y-148434229D01*
X115915009Y-148434229D02*
X115953104Y-148510420D01*
X115153104Y-149196134D02*
X115953104Y-149196134D01*
X115953104Y-149196134D02*
X115153104Y-149653277D01*
X115153104Y-149653277D02*
X115953104Y-149653277D01*
X115191200Y-163258038D02*
X115153104Y-163372324D01*
X115153104Y-163372324D02*
X115153104Y-163562800D01*
X115153104Y-163562800D02*
X115191200Y-163638991D01*
X115191200Y-163638991D02*
X115229295Y-163677086D01*
X115229295Y-163677086D02*
X115305485Y-163715181D01*
X115305485Y-163715181D02*
X115381676Y-163715181D01*
X115381676Y-163715181D02*
X115457866Y-163677086D01*
X115457866Y-163677086D02*
X115495961Y-163638991D01*
X115495961Y-163638991D02*
X115534057Y-163562800D01*
X115534057Y-163562800D02*
X115572152Y-163410419D01*
X115572152Y-163410419D02*
X115610247Y-163334229D01*
X115610247Y-163334229D02*
X115648342Y-163296134D01*
X115648342Y-163296134D02*
X115724533Y-163258038D01*
X115724533Y-163258038D02*
X115800723Y-163258038D01*
X115800723Y-163258038D02*
X115876914Y-163296134D01*
X115876914Y-163296134D02*
X115915009Y-163334229D01*
X115915009Y-163334229D02*
X115953104Y-163410419D01*
X115953104Y-163410419D02*
X115953104Y-163600896D01*
X115953104Y-163600896D02*
X115915009Y-163715181D01*
X115953104Y-163943753D02*
X115153104Y-164210420D01*
X115153104Y-164210420D02*
X115953104Y-164477086D01*
X115153104Y-167796134D02*
X115953104Y-167796134D01*
X115153104Y-168177086D02*
X115953104Y-168177086D01*
X115953104Y-168177086D02*
X115153104Y-168634229D01*
X115153104Y-168634229D02*
X115953104Y-168634229D01*
X115153104Y-169015181D02*
X115953104Y-169015181D01*
X115953104Y-169015181D02*
X115953104Y-169319943D01*
X115953104Y-169319943D02*
X115915009Y-169396133D01*
X115915009Y-169396133D02*
X115876914Y-169434228D01*
X115876914Y-169434228D02*
X115800723Y-169472324D01*
X115800723Y-169472324D02*
X115686438Y-169472324D01*
X115686438Y-169472324D02*
X115610247Y-169434228D01*
X115610247Y-169434228D02*
X115572152Y-169396133D01*
X115572152Y-169396133D02*
X115534057Y-169319943D01*
X115534057Y-169319943D02*
X115534057Y-169015181D01*
X115153104Y-172496134D02*
X115953104Y-172496134D01*
X115572152Y-172496134D02*
X115572152Y-172953277D01*
X115153104Y-172953277D02*
X115953104Y-172953277D01*
X115572152Y-173334229D02*
X115572152Y-173600895D01*
X115153104Y-173715181D02*
X115153104Y-173334229D01*
X115153104Y-173334229D02*
X115953104Y-173334229D01*
X115953104Y-173334229D02*
X115953104Y-173715181D01*
X115153104Y-174058039D02*
X115953104Y-174058039D01*
X115953104Y-174058039D02*
X115153104Y-174515182D01*
X115153104Y-174515182D02*
X115953104Y-174515182D01*
X115153104Y-174896134D02*
X115953104Y-174896134D01*
X115953104Y-174896134D02*
X115953104Y-175086610D01*
X115953104Y-175086610D02*
X115915009Y-175200896D01*
X115915009Y-175200896D02*
X115838819Y-175277086D01*
X115838819Y-175277086D02*
X115762628Y-175315181D01*
X115762628Y-175315181D02*
X115610247Y-175353277D01*
X115610247Y-175353277D02*
X115495961Y-175353277D01*
X115495961Y-175353277D02*
X115343580Y-175315181D01*
X115343580Y-175315181D02*
X115267390Y-175277086D01*
X115267390Y-175277086D02*
X115191200Y-175200896D01*
X115191200Y-175200896D02*
X115153104Y-175086610D01*
X115153104Y-175086610D02*
X115153104Y-174896134D01*
X115953104Y-177640550D02*
X115762628Y-177640550D01*
X115838819Y-177450074D02*
X115762628Y-177640550D01*
X115762628Y-177640550D02*
X115838819Y-177831027D01*
X115610247Y-177526265D02*
X115762628Y-177640550D01*
X115762628Y-177640550D02*
X115610247Y-177754836D01*
X115381676Y-178097693D02*
X115381676Y-178478646D01*
X115153104Y-178021503D02*
X115953104Y-178288170D01*
X115953104Y-178288170D02*
X115153104Y-178554836D01*
X115153104Y-179202455D02*
X115153104Y-178821503D01*
X115153104Y-178821503D02*
X115953104Y-178821503D01*
X115153104Y-179469122D02*
X115953104Y-179469122D01*
X115953104Y-179469122D02*
X115381676Y-179735788D01*
X115381676Y-179735788D02*
X115953104Y-180002455D01*
X115953104Y-180002455D02*
X115153104Y-180002455D01*
X115915009Y-183415181D02*
X115953104Y-183338991D01*
X115953104Y-183338991D02*
X115953104Y-183224705D01*
X115953104Y-183224705D02*
X115915009Y-183110419D01*
X115915009Y-183110419D02*
X115838819Y-183034229D01*
X115838819Y-183034229D02*
X115762628Y-182996134D01*
X115762628Y-182996134D02*
X115610247Y-182958038D01*
X115610247Y-182958038D02*
X115495961Y-182958038D01*
X115495961Y-182958038D02*
X115343580Y-182996134D01*
X115343580Y-182996134D02*
X115267390Y-183034229D01*
X115267390Y-183034229D02*
X115191200Y-183110419D01*
X115191200Y-183110419D02*
X115153104Y-183224705D01*
X115153104Y-183224705D02*
X115153104Y-183300896D01*
X115153104Y-183300896D02*
X115191200Y-183415181D01*
X115191200Y-183415181D02*
X115229295Y-183453277D01*
X115229295Y-183453277D02*
X115495961Y-183453277D01*
X115495961Y-183453277D02*
X115495961Y-183300896D01*
X115153104Y-183796134D02*
X115953104Y-183796134D01*
X115953104Y-183796134D02*
X115153104Y-184253277D01*
X115153104Y-184253277D02*
X115953104Y-184253277D01*
X115153104Y-184634229D02*
X115953104Y-184634229D01*
X115953104Y-184634229D02*
X115953104Y-184824705D01*
X115953104Y-184824705D02*
X115915009Y-184938991D01*
X115915009Y-184938991D02*
X115838819Y-185015181D01*
X115838819Y-185015181D02*
X115762628Y-185053276D01*
X115762628Y-185053276D02*
X115610247Y-185091372D01*
X115610247Y-185091372D02*
X115495961Y-185091372D01*
X115495961Y-185091372D02*
X115343580Y-185053276D01*
X115343580Y-185053276D02*
X115267390Y-185015181D01*
X115267390Y-185015181D02*
X115191200Y-184938991D01*
X115191200Y-184938991D02*
X115153104Y-184824705D01*
X115153104Y-184824705D02*
X115153104Y-184634229D01*
X115153104Y-117606134D02*
X115953104Y-117606134D01*
X115953104Y-117606134D02*
X115153104Y-118063277D01*
X115153104Y-118063277D02*
X115953104Y-118063277D01*
X115153104Y-118444229D02*
X115953104Y-118444229D01*
X115953104Y-118444229D02*
X115953104Y-118748991D01*
X115953104Y-118748991D02*
X115915009Y-118825181D01*
X115915009Y-118825181D02*
X115876914Y-118863276D01*
X115876914Y-118863276D02*
X115800723Y-118901372D01*
X115800723Y-118901372D02*
X115686438Y-118901372D01*
X115686438Y-118901372D02*
X115610247Y-118863276D01*
X115610247Y-118863276D02*
X115572152Y-118825181D01*
X115572152Y-118825181D02*
X115534057Y-118748991D01*
X115534057Y-118748991D02*
X115534057Y-118444229D01*
X115153104Y-112446134D02*
X115953104Y-112446134D01*
X115953104Y-112446134D02*
X115953104Y-112750896D01*
X115953104Y-112750896D02*
X115915009Y-112827086D01*
X115915009Y-112827086D02*
X115876914Y-112865181D01*
X115876914Y-112865181D02*
X115800723Y-112903277D01*
X115800723Y-112903277D02*
X115686438Y-112903277D01*
X115686438Y-112903277D02*
X115610247Y-112865181D01*
X115610247Y-112865181D02*
X115572152Y-112827086D01*
X115572152Y-112827086D02*
X115534057Y-112750896D01*
X115534057Y-112750896D02*
X115534057Y-112446134D01*
X115153104Y-113246134D02*
X115953104Y-113246134D01*
X115953104Y-113246134D02*
X115953104Y-113550896D01*
X115953104Y-113550896D02*
X115915009Y-113627086D01*
X115915009Y-113627086D02*
X115876914Y-113665181D01*
X115876914Y-113665181D02*
X115800723Y-113703277D01*
X115800723Y-113703277D02*
X115686438Y-113703277D01*
X115686438Y-113703277D02*
X115610247Y-113665181D01*
X115610247Y-113665181D02*
X115572152Y-113627086D01*
X115572152Y-113627086D02*
X115534057Y-113550896D01*
X115534057Y-113550896D02*
X115534057Y-113246134D01*
X115953104Y-151460550D02*
X115762628Y-151460550D01*
X115838819Y-151270074D02*
X115762628Y-151460550D01*
X115762628Y-151460550D02*
X115838819Y-151651027D01*
X115610247Y-151346265D02*
X115762628Y-151460550D01*
X115762628Y-151460550D02*
X115610247Y-151574836D01*
X115572152Y-151955789D02*
X115572152Y-152222455D01*
X115153104Y-152336741D02*
X115153104Y-151955789D01*
X115153104Y-151955789D02*
X115953104Y-151955789D01*
X115953104Y-151955789D02*
X115953104Y-152336741D01*
X115153104Y-152679599D02*
X115953104Y-152679599D01*
X115953104Y-152679599D02*
X115381676Y-152946265D01*
X115381676Y-152946265D02*
X115953104Y-153212932D01*
X115953104Y-153212932D02*
X115153104Y-153212932D01*
X115915009Y-154012932D02*
X115953104Y-153936742D01*
X115953104Y-153936742D02*
X115953104Y-153822456D01*
X115953104Y-153822456D02*
X115915009Y-153708170D01*
X115915009Y-153708170D02*
X115838819Y-153631980D01*
X115838819Y-153631980D02*
X115762628Y-153593885D01*
X115762628Y-153593885D02*
X115610247Y-153555789D01*
X115610247Y-153555789D02*
X115495961Y-153555789D01*
X115495961Y-153555789D02*
X115343580Y-153593885D01*
X115343580Y-153593885D02*
X115267390Y-153631980D01*
X115267390Y-153631980D02*
X115191200Y-153708170D01*
X115191200Y-153708170D02*
X115153104Y-153822456D01*
X115153104Y-153822456D02*
X115153104Y-153898647D01*
X115153104Y-153898647D02*
X115191200Y-154012932D01*
X115191200Y-154012932D02*
X115229295Y-154051028D01*
X115229295Y-154051028D02*
X115495961Y-154051028D01*
X115495961Y-154051028D02*
X115495961Y-153898647D01*
X115191200Y-154355789D02*
X115153104Y-154470075D01*
X115153104Y-154470075D02*
X115153104Y-154660551D01*
X115153104Y-154660551D02*
X115191200Y-154736742D01*
X115191200Y-154736742D02*
X115229295Y-154774837D01*
X115229295Y-154774837D02*
X115305485Y-154812932D01*
X115305485Y-154812932D02*
X115381676Y-154812932D01*
X115381676Y-154812932D02*
X115457866Y-154774837D01*
X115457866Y-154774837D02*
X115495961Y-154736742D01*
X115495961Y-154736742D02*
X115534057Y-154660551D01*
X115534057Y-154660551D02*
X115572152Y-154508170D01*
X115572152Y-154508170D02*
X115610247Y-154431980D01*
X115610247Y-154431980D02*
X115648342Y-154393885D01*
X115648342Y-154393885D02*
X115724533Y-154355789D01*
X115724533Y-154355789D02*
X115800723Y-154355789D01*
X115800723Y-154355789D02*
X115876914Y-154393885D01*
X115876914Y-154393885D02*
X115915009Y-154431980D01*
X115915009Y-154431980D02*
X115953104Y-154508170D01*
X115953104Y-154508170D02*
X115953104Y-154698647D01*
X115953104Y-154698647D02*
X115915009Y-154812932D01*
X115153104Y-157563408D02*
X115534057Y-157296741D01*
X115153104Y-157106265D02*
X115953104Y-157106265D01*
X115953104Y-157106265D02*
X115953104Y-157411027D01*
X115953104Y-157411027D02*
X115915009Y-157487217D01*
X115915009Y-157487217D02*
X115876914Y-157525312D01*
X115876914Y-157525312D02*
X115800723Y-157563408D01*
X115800723Y-157563408D02*
X115686438Y-157563408D01*
X115686438Y-157563408D02*
X115610247Y-157525312D01*
X115610247Y-157525312D02*
X115572152Y-157487217D01*
X115572152Y-157487217D02*
X115534057Y-157411027D01*
X115534057Y-157411027D02*
X115534057Y-157106265D01*
X115572152Y-157906265D02*
X115572152Y-158172931D01*
X115153104Y-158287217D02*
X115153104Y-157906265D01*
X115153104Y-157906265D02*
X115953104Y-157906265D01*
X115953104Y-157906265D02*
X115953104Y-158287217D01*
X115153104Y-158630075D02*
X115953104Y-158630075D01*
X115953104Y-158630075D02*
X115153104Y-159087218D01*
X115153104Y-159087218D02*
X115953104Y-159087218D01*
X115153104Y-159468170D02*
X115953104Y-159468170D01*
X115953104Y-159468170D02*
X115953104Y-159658646D01*
X115953104Y-159658646D02*
X115915009Y-159772932D01*
X115915009Y-159772932D02*
X115838819Y-159849122D01*
X115838819Y-159849122D02*
X115762628Y-159887217D01*
X115762628Y-159887217D02*
X115610247Y-159925313D01*
X115610247Y-159925313D02*
X115495961Y-159925313D01*
X115495961Y-159925313D02*
X115343580Y-159887217D01*
X115343580Y-159887217D02*
X115267390Y-159849122D01*
X115267390Y-159849122D02*
X115191200Y-159772932D01*
X115191200Y-159772932D02*
X115153104Y-159658646D01*
X115153104Y-159658646D02*
X115153104Y-159468170D01*
D11*
X115151486Y-76466454D02*
X114770534Y-76466454D01*
X114770534Y-76466454D02*
X114732438Y-76847406D01*
X114732438Y-76847406D02*
X114770534Y-76809311D01*
X114770534Y-76809311D02*
X114846724Y-76771216D01*
X114846724Y-76771216D02*
X115037200Y-76771216D01*
X115037200Y-76771216D02*
X115113391Y-76809311D01*
X115113391Y-76809311D02*
X115151486Y-76847406D01*
X115151486Y-76847406D02*
X115189581Y-76923597D01*
X115189581Y-76923597D02*
X115189581Y-77114073D01*
X115189581Y-77114073D02*
X115151486Y-77190263D01*
X115151486Y-77190263D02*
X115113391Y-77228359D01*
X115113391Y-77228359D02*
X115037200Y-77266454D01*
X115037200Y-77266454D02*
X114846724Y-77266454D01*
X114846724Y-77266454D02*
X114770534Y-77228359D01*
X114770534Y-77228359D02*
X114732438Y-77190263D01*
X115418153Y-76466454D02*
X115684820Y-77266454D01*
X115684820Y-77266454D02*
X115951486Y-76466454D01*
X114832438Y-93442644D02*
X114870534Y-93404549D01*
X114870534Y-93404549D02*
X114946724Y-93366454D01*
X114946724Y-93366454D02*
X115137200Y-93366454D01*
X115137200Y-93366454D02*
X115213391Y-93404549D01*
X115213391Y-93404549D02*
X115251486Y-93442644D01*
X115251486Y-93442644D02*
X115289581Y-93518835D01*
X115289581Y-93518835D02*
X115289581Y-93595025D01*
X115289581Y-93595025D02*
X115251486Y-93709311D01*
X115251486Y-93709311D02*
X114794343Y-94166454D01*
X114794343Y-94166454D02*
X115289581Y-94166454D01*
X115975296Y-93633120D02*
X115975296Y-94166454D01*
X115784820Y-93328359D02*
X115594343Y-93899787D01*
X115594343Y-93899787D02*
X116089582Y-93899787D01*
X116280058Y-93366454D02*
X116546725Y-94166454D01*
X116546725Y-94166454D02*
X116813391Y-93366454D01*
D10*
X82524286Y-187518187D02*
X82524286Y-186518187D01*
X82952857Y-187470568D02*
X83095714Y-187518187D01*
X83095714Y-187518187D02*
X83333809Y-187518187D01*
X83333809Y-187518187D02*
X83429047Y-187470568D01*
X83429047Y-187470568D02*
X83476666Y-187422948D01*
X83476666Y-187422948D02*
X83524285Y-187327710D01*
X83524285Y-187327710D02*
X83524285Y-187232472D01*
X83524285Y-187232472D02*
X83476666Y-187137234D01*
X83476666Y-187137234D02*
X83429047Y-187089615D01*
X83429047Y-187089615D02*
X83333809Y-187041996D01*
X83333809Y-187041996D02*
X83143333Y-186994377D01*
X83143333Y-186994377D02*
X83048095Y-186946758D01*
X83048095Y-186946758D02*
X83000476Y-186899139D01*
X83000476Y-186899139D02*
X82952857Y-186803901D01*
X82952857Y-186803901D02*
X82952857Y-186708663D01*
X82952857Y-186708663D02*
X83000476Y-186613425D01*
X83000476Y-186613425D02*
X83048095Y-186565806D01*
X83048095Y-186565806D02*
X83143333Y-186518187D01*
X83143333Y-186518187D02*
X83381428Y-186518187D01*
X83381428Y-186518187D02*
X83524285Y-186565806D01*
X83952857Y-187518187D02*
X83952857Y-186518187D01*
X83952857Y-186518187D02*
X84286190Y-187232472D01*
X84286190Y-187232472D02*
X84619523Y-186518187D01*
X84619523Y-186518187D02*
X84619523Y-187518187D01*
X85857619Y-187137234D02*
X86619524Y-187137234D01*
X88048095Y-186518187D02*
X88143333Y-186518187D01*
X88143333Y-186518187D02*
X88238571Y-186565806D01*
X88238571Y-186565806D02*
X88286190Y-186613425D01*
X88286190Y-186613425D02*
X88333809Y-186708663D01*
X88333809Y-186708663D02*
X88381428Y-186899139D01*
X88381428Y-186899139D02*
X88381428Y-187137234D01*
X88381428Y-187137234D02*
X88333809Y-187327710D01*
X88333809Y-187327710D02*
X88286190Y-187422948D01*
X88286190Y-187422948D02*
X88238571Y-187470568D01*
X88238571Y-187470568D02*
X88143333Y-187518187D01*
X88143333Y-187518187D02*
X88048095Y-187518187D01*
X88048095Y-187518187D02*
X87952857Y-187470568D01*
X87952857Y-187470568D02*
X87905238Y-187422948D01*
X87905238Y-187422948D02*
X87857619Y-187327710D01*
X87857619Y-187327710D02*
X87810000Y-187137234D01*
X87810000Y-187137234D02*
X87810000Y-186899139D01*
X87810000Y-186899139D02*
X87857619Y-186708663D01*
X87857619Y-186708663D02*
X87905238Y-186613425D01*
X87905238Y-186613425D02*
X87952857Y-186565806D01*
X87952857Y-186565806D02*
X88048095Y-186518187D01*
X89238571Y-186851520D02*
X89238571Y-187518187D01*
X89000476Y-186470568D02*
X88762381Y-187184853D01*
X88762381Y-187184853D02*
X89381428Y-187184853D01*
X90476666Y-186470568D02*
X89619524Y-187756282D01*
X91333809Y-187518187D02*
X90762381Y-187518187D01*
X91048095Y-187518187D02*
X91048095Y-186518187D01*
X91048095Y-186518187D02*
X90952857Y-186661044D01*
X90952857Y-186661044D02*
X90857619Y-186756282D01*
X90857619Y-186756282D02*
X90762381Y-186803901D01*
X91952857Y-186518187D02*
X92048095Y-186518187D01*
X92048095Y-186518187D02*
X92143333Y-186565806D01*
X92143333Y-186565806D02*
X92190952Y-186613425D01*
X92190952Y-186613425D02*
X92238571Y-186708663D01*
X92238571Y-186708663D02*
X92286190Y-186899139D01*
X92286190Y-186899139D02*
X92286190Y-187137234D01*
X92286190Y-187137234D02*
X92238571Y-187327710D01*
X92238571Y-187327710D02*
X92190952Y-187422948D01*
X92190952Y-187422948D02*
X92143333Y-187470568D01*
X92143333Y-187470568D02*
X92048095Y-187518187D01*
X92048095Y-187518187D02*
X91952857Y-187518187D01*
X91952857Y-187518187D02*
X91857619Y-187470568D01*
X91857619Y-187470568D02*
X91810000Y-187422948D01*
X91810000Y-187422948D02*
X91762381Y-187327710D01*
X91762381Y-187327710D02*
X91714762Y-187137234D01*
X91714762Y-187137234D02*
X91714762Y-186899139D01*
X91714762Y-186899139D02*
X91762381Y-186708663D01*
X91762381Y-186708663D02*
X91810000Y-186613425D01*
X91810000Y-186613425D02*
X91857619Y-186565806D01*
X91857619Y-186565806D02*
X91952857Y-186518187D01*
X93429047Y-186470568D02*
X92571905Y-187756282D01*
X93714762Y-186613425D02*
X93762381Y-186565806D01*
X93762381Y-186565806D02*
X93857619Y-186518187D01*
X93857619Y-186518187D02*
X94095714Y-186518187D01*
X94095714Y-186518187D02*
X94190952Y-186565806D01*
X94190952Y-186565806D02*
X94238571Y-186613425D01*
X94238571Y-186613425D02*
X94286190Y-186708663D01*
X94286190Y-186708663D02*
X94286190Y-186803901D01*
X94286190Y-186803901D02*
X94238571Y-186946758D01*
X94238571Y-186946758D02*
X93667143Y-187518187D01*
X93667143Y-187518187D02*
X94286190Y-187518187D01*
X94905238Y-186518187D02*
X95000476Y-186518187D01*
X95000476Y-186518187D02*
X95095714Y-186565806D01*
X95095714Y-186565806D02*
X95143333Y-186613425D01*
X95143333Y-186613425D02*
X95190952Y-186708663D01*
X95190952Y-186708663D02*
X95238571Y-186899139D01*
X95238571Y-186899139D02*
X95238571Y-187137234D01*
X95238571Y-187137234D02*
X95190952Y-187327710D01*
X95190952Y-187327710D02*
X95143333Y-187422948D01*
X95143333Y-187422948D02*
X95095714Y-187470568D01*
X95095714Y-187470568D02*
X95000476Y-187518187D01*
X95000476Y-187518187D02*
X94905238Y-187518187D01*
X94905238Y-187518187D02*
X94810000Y-187470568D01*
X94810000Y-187470568D02*
X94762381Y-187422948D01*
X94762381Y-187422948D02*
X94714762Y-187327710D01*
X94714762Y-187327710D02*
X94667143Y-187137234D01*
X94667143Y-187137234D02*
X94667143Y-186899139D01*
X94667143Y-186899139D02*
X94714762Y-186708663D01*
X94714762Y-186708663D02*
X94762381Y-186613425D01*
X94762381Y-186613425D02*
X94810000Y-186565806D01*
X94810000Y-186565806D02*
X94905238Y-186518187D01*
X95619524Y-186613425D02*
X95667143Y-186565806D01*
X95667143Y-186565806D02*
X95762381Y-186518187D01*
X95762381Y-186518187D02*
X96000476Y-186518187D01*
X96000476Y-186518187D02*
X96095714Y-186565806D01*
X96095714Y-186565806D02*
X96143333Y-186613425D01*
X96143333Y-186613425D02*
X96190952Y-186708663D01*
X96190952Y-186708663D02*
X96190952Y-186803901D01*
X96190952Y-186803901D02*
X96143333Y-186946758D01*
X96143333Y-186946758D02*
X95571905Y-187518187D01*
X95571905Y-187518187D02*
X96190952Y-187518187D01*
X97048095Y-186518187D02*
X96857619Y-186518187D01*
X96857619Y-186518187D02*
X96762381Y-186565806D01*
X96762381Y-186565806D02*
X96714762Y-186613425D01*
X96714762Y-186613425D02*
X96619524Y-186756282D01*
X96619524Y-186756282D02*
X96571905Y-186946758D01*
X96571905Y-186946758D02*
X96571905Y-187327710D01*
X96571905Y-187327710D02*
X96619524Y-187422948D01*
X96619524Y-187422948D02*
X96667143Y-187470568D01*
X96667143Y-187470568D02*
X96762381Y-187518187D01*
X96762381Y-187518187D02*
X96952857Y-187518187D01*
X96952857Y-187518187D02*
X97048095Y-187470568D01*
X97048095Y-187470568D02*
X97095714Y-187422948D01*
X97095714Y-187422948D02*
X97143333Y-187327710D01*
X97143333Y-187327710D02*
X97143333Y-187089615D01*
X97143333Y-187089615D02*
X97095714Y-186994377D01*
X97095714Y-186994377D02*
X97048095Y-186946758D01*
X97048095Y-186946758D02*
X96952857Y-186899139D01*
X96952857Y-186899139D02*
X96762381Y-186899139D01*
X96762381Y-186899139D02*
X96667143Y-186946758D01*
X96667143Y-186946758D02*
X96619524Y-186994377D01*
X96619524Y-186994377D02*
X96571905Y-187089615D01*
X86738571Y-188604321D02*
X86405238Y-188604321D01*
X86405238Y-189128131D02*
X86405238Y-188128131D01*
X86405238Y-188128131D02*
X86881428Y-188128131D01*
X87262381Y-189032892D02*
X87310000Y-189080512D01*
X87310000Y-189080512D02*
X87262381Y-189128131D01*
X87262381Y-189128131D02*
X87214762Y-189080512D01*
X87214762Y-189080512D02*
X87262381Y-189032892D01*
X87262381Y-189032892D02*
X87262381Y-189128131D01*
X88071904Y-188604321D02*
X88214761Y-188651940D01*
X88214761Y-188651940D02*
X88262380Y-188699559D01*
X88262380Y-188699559D02*
X88309999Y-188794797D01*
X88309999Y-188794797D02*
X88309999Y-188937654D01*
X88309999Y-188937654D02*
X88262380Y-189032892D01*
X88262380Y-189032892D02*
X88214761Y-189080512D01*
X88214761Y-189080512D02*
X88119523Y-189128131D01*
X88119523Y-189128131D02*
X87738571Y-189128131D01*
X87738571Y-189128131D02*
X87738571Y-188128131D01*
X87738571Y-188128131D02*
X88071904Y-188128131D01*
X88071904Y-188128131D02*
X88167142Y-188175750D01*
X88167142Y-188175750D02*
X88214761Y-188223369D01*
X88214761Y-188223369D02*
X88262380Y-188318607D01*
X88262380Y-188318607D02*
X88262380Y-188413845D01*
X88262380Y-188413845D02*
X88214761Y-188509083D01*
X88214761Y-188509083D02*
X88167142Y-188556702D01*
X88167142Y-188556702D02*
X88071904Y-188604321D01*
X88071904Y-188604321D02*
X87738571Y-188604321D01*
X88738571Y-188128131D02*
X88738571Y-188937654D01*
X88738571Y-188937654D02*
X88786190Y-189032892D01*
X88786190Y-189032892D02*
X88833809Y-189080512D01*
X88833809Y-189080512D02*
X88929047Y-189128131D01*
X88929047Y-189128131D02*
X89119523Y-189128131D01*
X89119523Y-189128131D02*
X89214761Y-189080512D01*
X89214761Y-189080512D02*
X89262380Y-189032892D01*
X89262380Y-189032892D02*
X89309999Y-188937654D01*
X89309999Y-188937654D02*
X89309999Y-188128131D01*
X90262380Y-189128131D02*
X89786190Y-189128131D01*
X89786190Y-189128131D02*
X89786190Y-188128131D01*
X90786190Y-188128131D02*
X90976666Y-188128131D01*
X90976666Y-188128131D02*
X91071904Y-188175750D01*
X91071904Y-188175750D02*
X91167142Y-188270988D01*
X91167142Y-188270988D02*
X91214761Y-188461464D01*
X91214761Y-188461464D02*
X91214761Y-188794797D01*
X91214761Y-188794797D02*
X91167142Y-188985273D01*
X91167142Y-188985273D02*
X91071904Y-189080512D01*
X91071904Y-189080512D02*
X90976666Y-189128131D01*
X90976666Y-189128131D02*
X90786190Y-189128131D01*
X90786190Y-189128131D02*
X90690952Y-189080512D01*
X90690952Y-189080512D02*
X90595714Y-188985273D01*
X90595714Y-188985273D02*
X90548095Y-188794797D01*
X90548095Y-188794797D02*
X90548095Y-188461464D01*
X90548095Y-188461464D02*
X90595714Y-188270988D01*
X90595714Y-188270988D02*
X90690952Y-188175750D01*
X90690952Y-188175750D02*
X90786190Y-188128131D01*
X91643333Y-188128131D02*
X91643333Y-188937654D01*
X91643333Y-188937654D02*
X91690952Y-189032892D01*
X91690952Y-189032892D02*
X91738571Y-189080512D01*
X91738571Y-189080512D02*
X91833809Y-189128131D01*
X91833809Y-189128131D02*
X92024285Y-189128131D01*
X92024285Y-189128131D02*
X92119523Y-189080512D01*
X92119523Y-189080512D02*
X92167142Y-189032892D01*
X92167142Y-189032892D02*
X92214761Y-188937654D01*
X92214761Y-188937654D02*
X92214761Y-188128131D01*
X92690952Y-189128131D02*
X92690952Y-188128131D01*
X92690952Y-188128131D02*
X93071904Y-188128131D01*
X93071904Y-188128131D02*
X93167142Y-188175750D01*
X93167142Y-188175750D02*
X93214761Y-188223369D01*
X93214761Y-188223369D02*
X93262380Y-188318607D01*
X93262380Y-188318607D02*
X93262380Y-188461464D01*
X93262380Y-188461464D02*
X93214761Y-188556702D01*
X93214761Y-188556702D02*
X93167142Y-188604321D01*
X93167142Y-188604321D02*
X93071904Y-188651940D01*
X93071904Y-188651940D02*
X92690952Y-188651940D01*
X61281934Y-76829446D02*
X61329553Y-76686589D01*
X61329553Y-76686589D02*
X61329553Y-76448494D01*
X61329553Y-76448494D02*
X61281934Y-76353256D01*
X61281934Y-76353256D02*
X61234314Y-76305637D01*
X61234314Y-76305637D02*
X61139076Y-76258018D01*
X61139076Y-76258018D02*
X61043838Y-76258018D01*
X61043838Y-76258018D02*
X60948600Y-76305637D01*
X60948600Y-76305637D02*
X60900981Y-76353256D01*
X60900981Y-76353256D02*
X60853362Y-76448494D01*
X60853362Y-76448494D02*
X60805743Y-76638970D01*
X60805743Y-76638970D02*
X60758124Y-76734208D01*
X60758124Y-76734208D02*
X60710505Y-76781827D01*
X60710505Y-76781827D02*
X60615267Y-76829446D01*
X60615267Y-76829446D02*
X60520029Y-76829446D01*
X60520029Y-76829446D02*
X60424791Y-76781827D01*
X60424791Y-76781827D02*
X60377172Y-76734208D01*
X60377172Y-76734208D02*
X60329553Y-76638970D01*
X60329553Y-76638970D02*
X60329553Y-76400875D01*
X60329553Y-76400875D02*
X60377172Y-76258018D01*
X61234314Y-75258018D02*
X61281934Y-75305637D01*
X61281934Y-75305637D02*
X61329553Y-75448494D01*
X61329553Y-75448494D02*
X61329553Y-75543732D01*
X61329553Y-75543732D02*
X61281934Y-75686589D01*
X61281934Y-75686589D02*
X61186695Y-75781827D01*
X61186695Y-75781827D02*
X61091457Y-75829446D01*
X61091457Y-75829446D02*
X60900981Y-75877065D01*
X60900981Y-75877065D02*
X60758124Y-75877065D01*
X60758124Y-75877065D02*
X60567648Y-75829446D01*
X60567648Y-75829446D02*
X60472410Y-75781827D01*
X60472410Y-75781827D02*
X60377172Y-75686589D01*
X60377172Y-75686589D02*
X60329553Y-75543732D01*
X60329553Y-75543732D02*
X60329553Y-75448494D01*
X60329553Y-75448494D02*
X60377172Y-75305637D01*
X60377172Y-75305637D02*
X60424791Y-75258018D01*
X60329553Y-74638970D02*
X60329553Y-74448494D01*
X60329553Y-74448494D02*
X60377172Y-74353256D01*
X60377172Y-74353256D02*
X60472410Y-74258018D01*
X60472410Y-74258018D02*
X60662886Y-74210399D01*
X60662886Y-74210399D02*
X60996219Y-74210399D01*
X60996219Y-74210399D02*
X61186695Y-74258018D01*
X61186695Y-74258018D02*
X61281934Y-74353256D01*
X61281934Y-74353256D02*
X61329553Y-74448494D01*
X61329553Y-74448494D02*
X61329553Y-74638970D01*
X61329553Y-74638970D02*
X61281934Y-74734208D01*
X61281934Y-74734208D02*
X61186695Y-74829446D01*
X61186695Y-74829446D02*
X60996219Y-74877065D01*
X60996219Y-74877065D02*
X60662886Y-74877065D01*
X60662886Y-74877065D02*
X60472410Y-74829446D01*
X60472410Y-74829446D02*
X60377172Y-74734208D01*
X60377172Y-74734208D02*
X60329553Y-74638970D01*
X61329553Y-73781827D02*
X60329553Y-73781827D01*
X60329553Y-73781827D02*
X61329553Y-73210399D01*
X61329553Y-73210399D02*
X60329553Y-73210399D01*
X60805743Y-71638970D02*
X60805743Y-71972303D01*
X61329553Y-71972303D02*
X60329553Y-71972303D01*
X60329553Y-71972303D02*
X60329553Y-71496113D01*
X60805743Y-71115160D02*
X60805743Y-70781827D01*
X61329553Y-70638970D02*
X61329553Y-71115160D01*
X61329553Y-71115160D02*
X60329553Y-71115160D01*
X60329553Y-71115160D02*
X60329553Y-70638970D01*
X60805743Y-70210398D02*
X60805743Y-69877065D01*
X61329553Y-69734208D02*
X61329553Y-70210398D01*
X61329553Y-70210398D02*
X60329553Y-70210398D01*
X60329553Y-70210398D02*
X60329553Y-69734208D01*
X61329553Y-69305636D02*
X60329553Y-69305636D01*
X60329553Y-69305636D02*
X60329553Y-69067541D01*
X60329553Y-69067541D02*
X60377172Y-68924684D01*
X60377172Y-68924684D02*
X60472410Y-68829446D01*
X60472410Y-68829446D02*
X60567648Y-68781827D01*
X60567648Y-68781827D02*
X60758124Y-68734208D01*
X60758124Y-68734208D02*
X60900981Y-68734208D01*
X60900981Y-68734208D02*
X61091457Y-68781827D01*
X61091457Y-68781827D02*
X61186695Y-68829446D01*
X61186695Y-68829446D02*
X61281934Y-68924684D01*
X61281934Y-68924684D02*
X61329553Y-69067541D01*
X61329553Y-69067541D02*
X61329553Y-69305636D01*
X60805743Y-67972303D02*
X60853362Y-67829446D01*
X60853362Y-67829446D02*
X60900981Y-67781827D01*
X60900981Y-67781827D02*
X60996219Y-67734208D01*
X60996219Y-67734208D02*
X61139076Y-67734208D01*
X61139076Y-67734208D02*
X61234314Y-67781827D01*
X61234314Y-67781827D02*
X61281934Y-67829446D01*
X61281934Y-67829446D02*
X61329553Y-67924684D01*
X61329553Y-67924684D02*
X61329553Y-68305636D01*
X61329553Y-68305636D02*
X60329553Y-68305636D01*
X60329553Y-68305636D02*
X60329553Y-67972303D01*
X60329553Y-67972303D02*
X60377172Y-67877065D01*
X60377172Y-67877065D02*
X60424791Y-67829446D01*
X60424791Y-67829446D02*
X60520029Y-67781827D01*
X60520029Y-67781827D02*
X60615267Y-67781827D01*
X60615267Y-67781827D02*
X60710505Y-67829446D01*
X60710505Y-67829446D02*
X60758124Y-67877065D01*
X60758124Y-67877065D02*
X60805743Y-67972303D01*
X60805743Y-67972303D02*
X60805743Y-68305636D01*
X61043838Y-67353255D02*
X61043838Y-66877065D01*
X61329553Y-67448493D02*
X60329553Y-67115160D01*
X60329553Y-67115160D02*
X61329553Y-66781827D01*
X61234314Y-65877065D02*
X61281934Y-65924684D01*
X61281934Y-65924684D02*
X61329553Y-66067541D01*
X61329553Y-66067541D02*
X61329553Y-66162779D01*
X61329553Y-66162779D02*
X61281934Y-66305636D01*
X61281934Y-66305636D02*
X61186695Y-66400874D01*
X61186695Y-66400874D02*
X61091457Y-66448493D01*
X61091457Y-66448493D02*
X60900981Y-66496112D01*
X60900981Y-66496112D02*
X60758124Y-66496112D01*
X60758124Y-66496112D02*
X60567648Y-66448493D01*
X60567648Y-66448493D02*
X60472410Y-66400874D01*
X60472410Y-66400874D02*
X60377172Y-66305636D01*
X60377172Y-66305636D02*
X60329553Y-66162779D01*
X60329553Y-66162779D02*
X60329553Y-66067541D01*
X60329553Y-66067541D02*
X60377172Y-65924684D01*
X60377172Y-65924684D02*
X60424791Y-65877065D01*
X61329553Y-65448493D02*
X60329553Y-65448493D01*
X61329553Y-64877065D02*
X60758124Y-65305636D01*
X60329553Y-64877065D02*
X60900981Y-65448493D01*
X61281934Y-106329446D02*
X61329553Y-106186589D01*
X61329553Y-106186589D02*
X61329553Y-105948494D01*
X61329553Y-105948494D02*
X61281934Y-105853256D01*
X61281934Y-105853256D02*
X61234314Y-105805637D01*
X61234314Y-105805637D02*
X61139076Y-105758018D01*
X61139076Y-105758018D02*
X61043838Y-105758018D01*
X61043838Y-105758018D02*
X60948600Y-105805637D01*
X60948600Y-105805637D02*
X60900981Y-105853256D01*
X60900981Y-105853256D02*
X60853362Y-105948494D01*
X60853362Y-105948494D02*
X60805743Y-106138970D01*
X60805743Y-106138970D02*
X60758124Y-106234208D01*
X60758124Y-106234208D02*
X60710505Y-106281827D01*
X60710505Y-106281827D02*
X60615267Y-106329446D01*
X60615267Y-106329446D02*
X60520029Y-106329446D01*
X60520029Y-106329446D02*
X60424791Y-106281827D01*
X60424791Y-106281827D02*
X60377172Y-106234208D01*
X60377172Y-106234208D02*
X60329553Y-106138970D01*
X60329553Y-106138970D02*
X60329553Y-105900875D01*
X60329553Y-105900875D02*
X60377172Y-105758018D01*
X61234314Y-104758018D02*
X61281934Y-104805637D01*
X61281934Y-104805637D02*
X61329553Y-104948494D01*
X61329553Y-104948494D02*
X61329553Y-105043732D01*
X61329553Y-105043732D02*
X61281934Y-105186589D01*
X61281934Y-105186589D02*
X61186695Y-105281827D01*
X61186695Y-105281827D02*
X61091457Y-105329446D01*
X61091457Y-105329446D02*
X60900981Y-105377065D01*
X60900981Y-105377065D02*
X60758124Y-105377065D01*
X60758124Y-105377065D02*
X60567648Y-105329446D01*
X60567648Y-105329446D02*
X60472410Y-105281827D01*
X60472410Y-105281827D02*
X60377172Y-105186589D01*
X60377172Y-105186589D02*
X60329553Y-105043732D01*
X60329553Y-105043732D02*
X60329553Y-104948494D01*
X60329553Y-104948494D02*
X60377172Y-104805637D01*
X60377172Y-104805637D02*
X60424791Y-104758018D01*
X60329553Y-104138970D02*
X60329553Y-103948494D01*
X60329553Y-103948494D02*
X60377172Y-103853256D01*
X60377172Y-103853256D02*
X60472410Y-103758018D01*
X60472410Y-103758018D02*
X60662886Y-103710399D01*
X60662886Y-103710399D02*
X60996219Y-103710399D01*
X60996219Y-103710399D02*
X61186695Y-103758018D01*
X61186695Y-103758018D02*
X61281934Y-103853256D01*
X61281934Y-103853256D02*
X61329553Y-103948494D01*
X61329553Y-103948494D02*
X61329553Y-104138970D01*
X61329553Y-104138970D02*
X61281934Y-104234208D01*
X61281934Y-104234208D02*
X61186695Y-104329446D01*
X61186695Y-104329446D02*
X60996219Y-104377065D01*
X60996219Y-104377065D02*
X60662886Y-104377065D01*
X60662886Y-104377065D02*
X60472410Y-104329446D01*
X60472410Y-104329446D02*
X60377172Y-104234208D01*
X60377172Y-104234208D02*
X60329553Y-104138970D01*
X61329553Y-103281827D02*
X60329553Y-103281827D01*
X60329553Y-103281827D02*
X61329553Y-102710399D01*
X61329553Y-102710399D02*
X60329553Y-102710399D01*
X61329553Y-101472303D02*
X60329553Y-101472303D01*
X60329553Y-101472303D02*
X60329553Y-101091351D01*
X60329553Y-101091351D02*
X60377172Y-100996113D01*
X60377172Y-100996113D02*
X60424791Y-100948494D01*
X60424791Y-100948494D02*
X60520029Y-100900875D01*
X60520029Y-100900875D02*
X60662886Y-100900875D01*
X60662886Y-100900875D02*
X60758124Y-100948494D01*
X60758124Y-100948494D02*
X60805743Y-100996113D01*
X60805743Y-100996113D02*
X60853362Y-101091351D01*
X60853362Y-101091351D02*
X60853362Y-101472303D01*
X60329553Y-100472303D02*
X61139076Y-100472303D01*
X61139076Y-100472303D02*
X61234314Y-100424684D01*
X61234314Y-100424684D02*
X61281934Y-100377065D01*
X61281934Y-100377065D02*
X61329553Y-100281827D01*
X61329553Y-100281827D02*
X61329553Y-100091351D01*
X61329553Y-100091351D02*
X61281934Y-99996113D01*
X61281934Y-99996113D02*
X61234314Y-99948494D01*
X61234314Y-99948494D02*
X61139076Y-99900875D01*
X61139076Y-99900875D02*
X60329553Y-99900875D01*
X61329553Y-98948494D02*
X61329553Y-99424684D01*
X61329553Y-99424684D02*
X60329553Y-99424684D01*
X61281934Y-98662779D02*
X61329553Y-98519922D01*
X61329553Y-98519922D02*
X61329553Y-98281827D01*
X61329553Y-98281827D02*
X61281934Y-98186589D01*
X61281934Y-98186589D02*
X61234314Y-98138970D01*
X61234314Y-98138970D02*
X61139076Y-98091351D01*
X61139076Y-98091351D02*
X61043838Y-98091351D01*
X61043838Y-98091351D02*
X60948600Y-98138970D01*
X60948600Y-98138970D02*
X60900981Y-98186589D01*
X60900981Y-98186589D02*
X60853362Y-98281827D01*
X60853362Y-98281827D02*
X60805743Y-98472303D01*
X60805743Y-98472303D02*
X60758124Y-98567541D01*
X60758124Y-98567541D02*
X60710505Y-98615160D01*
X60710505Y-98615160D02*
X60615267Y-98662779D01*
X60615267Y-98662779D02*
X60520029Y-98662779D01*
X60520029Y-98662779D02*
X60424791Y-98615160D01*
X60424791Y-98615160D02*
X60377172Y-98567541D01*
X60377172Y-98567541D02*
X60329553Y-98472303D01*
X60329553Y-98472303D02*
X60329553Y-98234208D01*
X60329553Y-98234208D02*
X60377172Y-98091351D01*
X60805743Y-97662779D02*
X60805743Y-97329446D01*
X61329553Y-97186589D02*
X61329553Y-97662779D01*
X61329553Y-97662779D02*
X60329553Y-97662779D01*
X60329553Y-97662779D02*
X60329553Y-97186589D01*
X61281934Y-143029446D02*
X61329553Y-142886589D01*
X61329553Y-142886589D02*
X61329553Y-142648494D01*
X61329553Y-142648494D02*
X61281934Y-142553256D01*
X61281934Y-142553256D02*
X61234314Y-142505637D01*
X61234314Y-142505637D02*
X61139076Y-142458018D01*
X61139076Y-142458018D02*
X61043838Y-142458018D01*
X61043838Y-142458018D02*
X60948600Y-142505637D01*
X60948600Y-142505637D02*
X60900981Y-142553256D01*
X60900981Y-142553256D02*
X60853362Y-142648494D01*
X60853362Y-142648494D02*
X60805743Y-142838970D01*
X60805743Y-142838970D02*
X60758124Y-142934208D01*
X60758124Y-142934208D02*
X60710505Y-142981827D01*
X60710505Y-142981827D02*
X60615267Y-143029446D01*
X60615267Y-143029446D02*
X60520029Y-143029446D01*
X60520029Y-143029446D02*
X60424791Y-142981827D01*
X60424791Y-142981827D02*
X60377172Y-142934208D01*
X60377172Y-142934208D02*
X60329553Y-142838970D01*
X60329553Y-142838970D02*
X60329553Y-142600875D01*
X60329553Y-142600875D02*
X60377172Y-142458018D01*
X61234314Y-141458018D02*
X61281934Y-141505637D01*
X61281934Y-141505637D02*
X61329553Y-141648494D01*
X61329553Y-141648494D02*
X61329553Y-141743732D01*
X61329553Y-141743732D02*
X61281934Y-141886589D01*
X61281934Y-141886589D02*
X61186695Y-141981827D01*
X61186695Y-141981827D02*
X61091457Y-142029446D01*
X61091457Y-142029446D02*
X60900981Y-142077065D01*
X60900981Y-142077065D02*
X60758124Y-142077065D01*
X60758124Y-142077065D02*
X60567648Y-142029446D01*
X60567648Y-142029446D02*
X60472410Y-141981827D01*
X60472410Y-141981827D02*
X60377172Y-141886589D01*
X60377172Y-141886589D02*
X60329553Y-141743732D01*
X60329553Y-141743732D02*
X60329553Y-141648494D01*
X60329553Y-141648494D02*
X60377172Y-141505637D01*
X60377172Y-141505637D02*
X60424791Y-141458018D01*
X60329553Y-140838970D02*
X60329553Y-140648494D01*
X60329553Y-140648494D02*
X60377172Y-140553256D01*
X60377172Y-140553256D02*
X60472410Y-140458018D01*
X60472410Y-140458018D02*
X60662886Y-140410399D01*
X60662886Y-140410399D02*
X60996219Y-140410399D01*
X60996219Y-140410399D02*
X61186695Y-140458018D01*
X61186695Y-140458018D02*
X61281934Y-140553256D01*
X61281934Y-140553256D02*
X61329553Y-140648494D01*
X61329553Y-140648494D02*
X61329553Y-140838970D01*
X61329553Y-140838970D02*
X61281934Y-140934208D01*
X61281934Y-140934208D02*
X61186695Y-141029446D01*
X61186695Y-141029446D02*
X60996219Y-141077065D01*
X60996219Y-141077065D02*
X60662886Y-141077065D01*
X60662886Y-141077065D02*
X60472410Y-141029446D01*
X60472410Y-141029446D02*
X60377172Y-140934208D01*
X60377172Y-140934208D02*
X60329553Y-140838970D01*
X61329553Y-139981827D02*
X60329553Y-139981827D01*
X60329553Y-139981827D02*
X61329553Y-139410399D01*
X61329553Y-139410399D02*
X60329553Y-139410399D01*
X61329553Y-138172303D02*
X60329553Y-138172303D01*
X60329553Y-138172303D02*
X60329553Y-137791351D01*
X60329553Y-137791351D02*
X60377172Y-137696113D01*
X60377172Y-137696113D02*
X60424791Y-137648494D01*
X60424791Y-137648494D02*
X60520029Y-137600875D01*
X60520029Y-137600875D02*
X60662886Y-137600875D01*
X60662886Y-137600875D02*
X60758124Y-137648494D01*
X60758124Y-137648494D02*
X60805743Y-137696113D01*
X60805743Y-137696113D02*
X60853362Y-137791351D01*
X60853362Y-137791351D02*
X60853362Y-138172303D01*
X61329553Y-137172303D02*
X60329553Y-137172303D01*
X60329553Y-136505637D02*
X60329553Y-136315161D01*
X60329553Y-136315161D02*
X60377172Y-136219923D01*
X60377172Y-136219923D02*
X60472410Y-136124685D01*
X60472410Y-136124685D02*
X60662886Y-136077066D01*
X60662886Y-136077066D02*
X60996219Y-136077066D01*
X60996219Y-136077066D02*
X61186695Y-136124685D01*
X61186695Y-136124685D02*
X61281934Y-136219923D01*
X61281934Y-136219923D02*
X61329553Y-136315161D01*
X61329553Y-136315161D02*
X61329553Y-136505637D01*
X61329553Y-136505637D02*
X61281934Y-136600875D01*
X61281934Y-136600875D02*
X61186695Y-136696113D01*
X61186695Y-136696113D02*
X60996219Y-136743732D01*
X60996219Y-136743732D02*
X60662886Y-136743732D01*
X60662886Y-136743732D02*
X60472410Y-136696113D01*
X60472410Y-136696113D02*
X60377172Y-136600875D01*
X60377172Y-136600875D02*
X60329553Y-136505637D01*
X117003295Y-62786134D02*
X117003295Y-63262324D01*
X116717580Y-62690896D02*
X117717580Y-63024229D01*
X117717580Y-63024229D02*
X116717580Y-63357562D01*
X116717580Y-63690896D02*
X117717580Y-63690896D01*
X117717580Y-63690896D02*
X117717580Y-63928991D01*
X117717580Y-63928991D02*
X117669961Y-64071848D01*
X117669961Y-64071848D02*
X117574723Y-64167086D01*
X117574723Y-64167086D02*
X117479485Y-64214705D01*
X117479485Y-64214705D02*
X117289009Y-64262324D01*
X117289009Y-64262324D02*
X117146152Y-64262324D01*
X117146152Y-64262324D02*
X116955676Y-64214705D01*
X116955676Y-64214705D02*
X116860438Y-64167086D01*
X116860438Y-64167086D02*
X116765200Y-64071848D01*
X116765200Y-64071848D02*
X116717580Y-63928991D01*
X116717580Y-63928991D02*
X116717580Y-63690896D01*
X117717580Y-64595658D02*
X116717580Y-64833753D01*
X116717580Y-64833753D02*
X117431866Y-65024229D01*
X117431866Y-65024229D02*
X116717580Y-65214705D01*
X116717580Y-65214705D02*
X117717580Y-65452801D01*
X116717580Y-65833753D02*
X117384247Y-65833753D01*
X117717580Y-65833753D02*
X117669961Y-65786134D01*
X117669961Y-65786134D02*
X117622342Y-65833753D01*
X117622342Y-65833753D02*
X117669961Y-65881372D01*
X117669961Y-65881372D02*
X117717580Y-65833753D01*
X117717580Y-65833753D02*
X117622342Y-65833753D01*
X117384247Y-66309943D02*
X116717580Y-66309943D01*
X117289009Y-66309943D02*
X117336628Y-66357562D01*
X117336628Y-66357562D02*
X117384247Y-66452800D01*
X117384247Y-66452800D02*
X117384247Y-66595657D01*
X117384247Y-66595657D02*
X117336628Y-66690895D01*
X117336628Y-66690895D02*
X117241390Y-66738514D01*
X117241390Y-66738514D02*
X116717580Y-66738514D01*
X116812819Y-68548038D02*
X116765200Y-68500419D01*
X116765200Y-68500419D02*
X116717580Y-68357562D01*
X116717580Y-68357562D02*
X116717580Y-68262324D01*
X116717580Y-68262324D02*
X116765200Y-68119467D01*
X116765200Y-68119467D02*
X116860438Y-68024229D01*
X116860438Y-68024229D02*
X116955676Y-67976610D01*
X116955676Y-67976610D02*
X117146152Y-67928991D01*
X117146152Y-67928991D02*
X117289009Y-67928991D01*
X117289009Y-67928991D02*
X117479485Y-67976610D01*
X117479485Y-67976610D02*
X117574723Y-68024229D01*
X117574723Y-68024229D02*
X117669961Y-68119467D01*
X117669961Y-68119467D02*
X117717580Y-68262324D01*
X117717580Y-68262324D02*
X117717580Y-68357562D01*
X117717580Y-68357562D02*
X117669961Y-68500419D01*
X117669961Y-68500419D02*
X117622342Y-68548038D01*
X117717580Y-69167086D02*
X117717580Y-69357562D01*
X117717580Y-69357562D02*
X117669961Y-69452800D01*
X117669961Y-69452800D02*
X117574723Y-69548038D01*
X117574723Y-69548038D02*
X117384247Y-69595657D01*
X117384247Y-69595657D02*
X117050914Y-69595657D01*
X117050914Y-69595657D02*
X116860438Y-69548038D01*
X116860438Y-69548038D02*
X116765200Y-69452800D01*
X116765200Y-69452800D02*
X116717580Y-69357562D01*
X116717580Y-69357562D02*
X116717580Y-69167086D01*
X116717580Y-69167086D02*
X116765200Y-69071848D01*
X116765200Y-69071848D02*
X116860438Y-68976610D01*
X116860438Y-68976610D02*
X117050914Y-68928991D01*
X117050914Y-68928991D02*
X117384247Y-68928991D01*
X117384247Y-68928991D02*
X117574723Y-68976610D01*
X117574723Y-68976610D02*
X117669961Y-69071848D01*
X117669961Y-69071848D02*
X117717580Y-69167086D01*
X117384247Y-70452800D02*
X116717580Y-70452800D01*
X117765200Y-70214705D02*
X117050914Y-69976610D01*
X117050914Y-69976610D02*
X117050914Y-70595657D01*
X117098533Y-70976610D02*
X117098533Y-71738515D01*
X117717580Y-72071848D02*
X117717580Y-72643276D01*
X116717580Y-72357562D02*
X117717580Y-72357562D01*
X117663295Y-80906134D02*
X117663295Y-81382324D01*
X117377580Y-80810896D02*
X118377580Y-81144229D01*
X118377580Y-81144229D02*
X117377580Y-81477562D01*
X117377580Y-82287086D02*
X117377580Y-81810896D01*
X117377580Y-81810896D02*
X118377580Y-81810896D01*
X117377580Y-82620420D02*
X118377580Y-82620420D01*
X117377580Y-83096610D02*
X118377580Y-83096610D01*
X118377580Y-83096610D02*
X117663295Y-83429943D01*
X117663295Y-83429943D02*
X118377580Y-83763276D01*
X118377580Y-83763276D02*
X117377580Y-83763276D01*
X117758533Y-84239467D02*
X117758533Y-85001372D01*
X117377580Y-84620419D02*
X118139485Y-84620419D01*
X118282342Y-85429943D02*
X118329961Y-85477562D01*
X118329961Y-85477562D02*
X118377580Y-85572800D01*
X118377580Y-85572800D02*
X118377580Y-85810895D01*
X118377580Y-85810895D02*
X118329961Y-85906133D01*
X118329961Y-85906133D02*
X118282342Y-85953752D01*
X118282342Y-85953752D02*
X118187104Y-86001371D01*
X118187104Y-86001371D02*
X118091866Y-86001371D01*
X118091866Y-86001371D02*
X117949009Y-85953752D01*
X117949009Y-85953752D02*
X117377580Y-85382324D01*
X117377580Y-85382324D02*
X117377580Y-86001371D01*
X118044247Y-86858514D02*
X117377580Y-86858514D01*
X118425200Y-86620419D02*
X117710914Y-86382324D01*
X117710914Y-86382324D02*
X117710914Y-87001371D01*
X118377580Y-87239467D02*
X117377580Y-87572800D01*
X117377580Y-87572800D02*
X118377580Y-87906133D01*
X117943295Y-142446134D02*
X117943295Y-142922324D01*
X117657580Y-142350896D02*
X118657580Y-142684229D01*
X118657580Y-142684229D02*
X117657580Y-143017562D01*
X117657580Y-143350896D02*
X118657580Y-143350896D01*
X118657580Y-143350896D02*
X118657580Y-143588991D01*
X118657580Y-143588991D02*
X118609961Y-143731848D01*
X118609961Y-143731848D02*
X118514723Y-143827086D01*
X118514723Y-143827086D02*
X118419485Y-143874705D01*
X118419485Y-143874705D02*
X118229009Y-143922324D01*
X118229009Y-143922324D02*
X118086152Y-143922324D01*
X118086152Y-143922324D02*
X117895676Y-143874705D01*
X117895676Y-143874705D02*
X117800438Y-143827086D01*
X117800438Y-143827086D02*
X117705200Y-143731848D01*
X117705200Y-143731848D02*
X117657580Y-143588991D01*
X117657580Y-143588991D02*
X117657580Y-143350896D01*
X118657580Y-144255658D02*
X117657580Y-144493753D01*
X117657580Y-144493753D02*
X118371866Y-144684229D01*
X118371866Y-144684229D02*
X117657580Y-144874705D01*
X117657580Y-144874705D02*
X118657580Y-145112801D01*
X117657580Y-145493753D02*
X118324247Y-145493753D01*
X118657580Y-145493753D02*
X118609961Y-145446134D01*
X118609961Y-145446134D02*
X118562342Y-145493753D01*
X118562342Y-145493753D02*
X118609961Y-145541372D01*
X118609961Y-145541372D02*
X118657580Y-145493753D01*
X118657580Y-145493753D02*
X118562342Y-145493753D01*
X118324247Y-145969943D02*
X117657580Y-145969943D01*
X118229009Y-145969943D02*
X118276628Y-146017562D01*
X118276628Y-146017562D02*
X118324247Y-146112800D01*
X118324247Y-146112800D02*
X118324247Y-146255657D01*
X118324247Y-146255657D02*
X118276628Y-146350895D01*
X118276628Y-146350895D02*
X118181390Y-146398514D01*
X118181390Y-146398514D02*
X117657580Y-146398514D01*
X118038533Y-147636610D02*
X118038533Y-148398515D01*
X117657580Y-149636610D02*
X118657580Y-149636610D01*
X118657580Y-149636610D02*
X118657580Y-149874705D01*
X118657580Y-149874705D02*
X118609961Y-150017562D01*
X118609961Y-150017562D02*
X118514723Y-150112800D01*
X118514723Y-150112800D02*
X118419485Y-150160419D01*
X118419485Y-150160419D02*
X118229009Y-150208038D01*
X118229009Y-150208038D02*
X118086152Y-150208038D01*
X118086152Y-150208038D02*
X117895676Y-150160419D01*
X117895676Y-150160419D02*
X117800438Y-150112800D01*
X117800438Y-150112800D02*
X117705200Y-150017562D01*
X117705200Y-150017562D02*
X117657580Y-149874705D01*
X117657580Y-149874705D02*
X117657580Y-149636610D01*
X117657580Y-150636610D02*
X118657580Y-150636610D01*
X118657580Y-151303276D02*
X118657580Y-151493752D01*
X118657580Y-151493752D02*
X118609961Y-151588990D01*
X118609961Y-151588990D02*
X118514723Y-151684228D01*
X118514723Y-151684228D02*
X118324247Y-151731847D01*
X118324247Y-151731847D02*
X117990914Y-151731847D01*
X117990914Y-151731847D02*
X117800438Y-151684228D01*
X117800438Y-151684228D02*
X117705200Y-151588990D01*
X117705200Y-151588990D02*
X117657580Y-151493752D01*
X117657580Y-151493752D02*
X117657580Y-151303276D01*
X117657580Y-151303276D02*
X117705200Y-151208038D01*
X117705200Y-151208038D02*
X117800438Y-151112800D01*
X117800438Y-151112800D02*
X117990914Y-151065181D01*
X117990914Y-151065181D02*
X118324247Y-151065181D01*
X118324247Y-151065181D02*
X118514723Y-151112800D01*
X118514723Y-151112800D02*
X118609961Y-151208038D01*
X118609961Y-151208038D02*
X118657580Y-151303276D01*
X118657580Y-152065181D02*
X118657580Y-152684228D01*
X118657580Y-152684228D02*
X118276628Y-152350895D01*
X118276628Y-152350895D02*
X118276628Y-152493752D01*
X118276628Y-152493752D02*
X118229009Y-152588990D01*
X118229009Y-152588990D02*
X118181390Y-152636609D01*
X118181390Y-152636609D02*
X118086152Y-152684228D01*
X118086152Y-152684228D02*
X117848057Y-152684228D01*
X117848057Y-152684228D02*
X117752819Y-152636609D01*
X117752819Y-152636609D02*
X117705200Y-152588990D01*
X117705200Y-152588990D02*
X117657580Y-152493752D01*
X117657580Y-152493752D02*
X117657580Y-152208038D01*
X117657580Y-152208038D02*
X117705200Y-152112800D01*
X117705200Y-152112800D02*
X117752819Y-152065181D01*
X118562342Y-153065181D02*
X118609961Y-153112800D01*
X118609961Y-153112800D02*
X118657580Y-153208038D01*
X118657580Y-153208038D02*
X118657580Y-153446133D01*
X118657580Y-153446133D02*
X118609961Y-153541371D01*
X118609961Y-153541371D02*
X118562342Y-153588990D01*
X118562342Y-153588990D02*
X118467104Y-153636609D01*
X118467104Y-153636609D02*
X118371866Y-153636609D01*
X118371866Y-153636609D02*
X118229009Y-153588990D01*
X118229009Y-153588990D02*
X117657580Y-153017562D01*
X117657580Y-153017562D02*
X117657580Y-153636609D01*
D11*
X108456666Y-51670531D02*
X108456666Y-52384816D01*
X108456666Y-52384816D02*
X108409047Y-52527673D01*
X108409047Y-52527673D02*
X108313809Y-52622912D01*
X108313809Y-52622912D02*
X108170952Y-52670531D01*
X108170952Y-52670531D02*
X108075714Y-52670531D01*
X109361428Y-51670531D02*
X109170952Y-51670531D01*
X109170952Y-51670531D02*
X109075714Y-51718150D01*
X109075714Y-51718150D02*
X109028095Y-51765769D01*
X109028095Y-51765769D02*
X108932857Y-51908626D01*
X108932857Y-51908626D02*
X108885238Y-52099102D01*
X108885238Y-52099102D02*
X108885238Y-52480054D01*
X108885238Y-52480054D02*
X108932857Y-52575292D01*
X108932857Y-52575292D02*
X108980476Y-52622912D01*
X108980476Y-52622912D02*
X109075714Y-52670531D01*
X109075714Y-52670531D02*
X109266190Y-52670531D01*
X109266190Y-52670531D02*
X109361428Y-52622912D01*
X109361428Y-52622912D02*
X109409047Y-52575292D01*
X109409047Y-52575292D02*
X109456666Y-52480054D01*
X109456666Y-52480054D02*
X109456666Y-52241959D01*
X109456666Y-52241959D02*
X109409047Y-52146721D01*
X109409047Y-52146721D02*
X109361428Y-52099102D01*
X109361428Y-52099102D02*
X109266190Y-52051483D01*
X109266190Y-52051483D02*
X109075714Y-52051483D01*
X109075714Y-52051483D02*
X108980476Y-52099102D01*
X108980476Y-52099102D02*
X108932857Y-52146721D01*
X108932857Y-52146721D02*
X108885238Y-52241959D01*
X82107142Y-166340531D02*
X81773809Y-165864340D01*
X81535714Y-166340531D02*
X81535714Y-165340531D01*
X81535714Y-165340531D02*
X81916666Y-165340531D01*
X81916666Y-165340531D02*
X82011904Y-165388150D01*
X82011904Y-165388150D02*
X82059523Y-165435769D01*
X82059523Y-165435769D02*
X82107142Y-165531007D01*
X82107142Y-165531007D02*
X82107142Y-165673864D01*
X82107142Y-165673864D02*
X82059523Y-165769102D01*
X82059523Y-165769102D02*
X82011904Y-165816721D01*
X82011904Y-165816721D02*
X81916666Y-165864340D01*
X81916666Y-165864340D02*
X81535714Y-165864340D01*
X83059523Y-166340531D02*
X82488095Y-166340531D01*
X82773809Y-166340531D02*
X82773809Y-165340531D01*
X82773809Y-165340531D02*
X82678571Y-165483388D01*
X82678571Y-165483388D02*
X82583333Y-165578626D01*
X82583333Y-165578626D02*
X82488095Y-165626245D01*
X83964285Y-165340531D02*
X83488095Y-165340531D01*
X83488095Y-165340531D02*
X83440476Y-165816721D01*
X83440476Y-165816721D02*
X83488095Y-165769102D01*
X83488095Y-165769102D02*
X83583333Y-165721483D01*
X83583333Y-165721483D02*
X83821428Y-165721483D01*
X83821428Y-165721483D02*
X83916666Y-165769102D01*
X83916666Y-165769102D02*
X83964285Y-165816721D01*
X83964285Y-165816721D02*
X84011904Y-165911959D01*
X84011904Y-165911959D02*
X84011904Y-166150054D01*
X84011904Y-166150054D02*
X83964285Y-166245292D01*
X83964285Y-166245292D02*
X83916666Y-166292912D01*
X83916666Y-166292912D02*
X83821428Y-166340531D01*
X83821428Y-166340531D02*
X83583333Y-166340531D01*
X83583333Y-166340531D02*
X83488095Y-166292912D01*
X83488095Y-166292912D02*
X83440476Y-166245292D01*
X96023333Y-128739449D02*
X95975714Y-128787069D01*
X95975714Y-128787069D02*
X95832857Y-128834688D01*
X95832857Y-128834688D02*
X95737619Y-128834688D01*
X95737619Y-128834688D02*
X95594762Y-128787069D01*
X95594762Y-128787069D02*
X95499524Y-128691830D01*
X95499524Y-128691830D02*
X95451905Y-128596592D01*
X95451905Y-128596592D02*
X95404286Y-128406116D01*
X95404286Y-128406116D02*
X95404286Y-128263259D01*
X95404286Y-128263259D02*
X95451905Y-128072783D01*
X95451905Y-128072783D02*
X95499524Y-127977545D01*
X95499524Y-127977545D02*
X95594762Y-127882307D01*
X95594762Y-127882307D02*
X95737619Y-127834688D01*
X95737619Y-127834688D02*
X95832857Y-127834688D01*
X95832857Y-127834688D02*
X95975714Y-127882307D01*
X95975714Y-127882307D02*
X96023333Y-127929926D01*
X96404286Y-127929926D02*
X96451905Y-127882307D01*
X96451905Y-127882307D02*
X96547143Y-127834688D01*
X96547143Y-127834688D02*
X96785238Y-127834688D01*
X96785238Y-127834688D02*
X96880476Y-127882307D01*
X96880476Y-127882307D02*
X96928095Y-127929926D01*
X96928095Y-127929926D02*
X96975714Y-128025164D01*
X96975714Y-128025164D02*
X96975714Y-128120402D01*
X96975714Y-128120402D02*
X96928095Y-128263259D01*
X96928095Y-128263259D02*
X96356667Y-128834688D01*
X96356667Y-128834688D02*
X96975714Y-128834688D01*
X101448040Y-84126978D02*
X101448040Y-84841263D01*
X101448040Y-84841263D02*
X101400421Y-84984120D01*
X101400421Y-84984120D02*
X101305183Y-85079359D01*
X101305183Y-85079359D02*
X101162326Y-85126978D01*
X101162326Y-85126978D02*
X101067088Y-85126978D01*
X102448040Y-85126978D02*
X101876612Y-85126978D01*
X102162326Y-85126978D02*
X102162326Y-84126978D01*
X102162326Y-84126978D02*
X102067088Y-84269835D01*
X102067088Y-84269835D02*
X101971850Y-84365073D01*
X101971850Y-84365073D02*
X101876612Y-84412692D01*
X99767142Y-150380531D02*
X99433809Y-149904340D01*
X99195714Y-150380531D02*
X99195714Y-149380531D01*
X99195714Y-149380531D02*
X99576666Y-149380531D01*
X99576666Y-149380531D02*
X99671904Y-149428150D01*
X99671904Y-149428150D02*
X99719523Y-149475769D01*
X99719523Y-149475769D02*
X99767142Y-149571007D01*
X99767142Y-149571007D02*
X99767142Y-149713864D01*
X99767142Y-149713864D02*
X99719523Y-149809102D01*
X99719523Y-149809102D02*
X99671904Y-149856721D01*
X99671904Y-149856721D02*
X99576666Y-149904340D01*
X99576666Y-149904340D02*
X99195714Y-149904340D01*
X100719523Y-150380531D02*
X100148095Y-150380531D01*
X100433809Y-150380531D02*
X100433809Y-149380531D01*
X100433809Y-149380531D02*
X100338571Y-149523388D01*
X100338571Y-149523388D02*
X100243333Y-149618626D01*
X100243333Y-149618626D02*
X100148095Y-149666245D01*
X101100476Y-149475769D02*
X101148095Y-149428150D01*
X101148095Y-149428150D02*
X101243333Y-149380531D01*
X101243333Y-149380531D02*
X101481428Y-149380531D01*
X101481428Y-149380531D02*
X101576666Y-149428150D01*
X101576666Y-149428150D02*
X101624285Y-149475769D01*
X101624285Y-149475769D02*
X101671904Y-149571007D01*
X101671904Y-149571007D02*
X101671904Y-149666245D01*
X101671904Y-149666245D02*
X101624285Y-149809102D01*
X101624285Y-149809102D02*
X101052857Y-150380531D01*
X101052857Y-150380531D02*
X101671904Y-150380531D01*
X91214707Y-91531739D02*
X91167088Y-91579359D01*
X91167088Y-91579359D02*
X91024231Y-91626978D01*
X91024231Y-91626978D02*
X90928993Y-91626978D01*
X90928993Y-91626978D02*
X90786136Y-91579359D01*
X90786136Y-91579359D02*
X90690898Y-91484120D01*
X90690898Y-91484120D02*
X90643279Y-91388882D01*
X90643279Y-91388882D02*
X90595660Y-91198406D01*
X90595660Y-91198406D02*
X90595660Y-91055549D01*
X90595660Y-91055549D02*
X90643279Y-90865073D01*
X90643279Y-90865073D02*
X90690898Y-90769835D01*
X90690898Y-90769835D02*
X90786136Y-90674597D01*
X90786136Y-90674597D02*
X90928993Y-90626978D01*
X90928993Y-90626978D02*
X91024231Y-90626978D01*
X91024231Y-90626978D02*
X91167088Y-90674597D01*
X91167088Y-90674597D02*
X91214707Y-90722216D01*
X92167088Y-91626978D02*
X91595660Y-91626978D01*
X91881374Y-91626978D02*
X91881374Y-90626978D01*
X91881374Y-90626978D02*
X91786136Y-90769835D01*
X91786136Y-90769835D02*
X91690898Y-90865073D01*
X91690898Y-90865073D02*
X91595660Y-90912692D01*
X82317142Y-181040531D02*
X81983809Y-180564340D01*
X81745714Y-181040531D02*
X81745714Y-180040531D01*
X81745714Y-180040531D02*
X82126666Y-180040531D01*
X82126666Y-180040531D02*
X82221904Y-180088150D01*
X82221904Y-180088150D02*
X82269523Y-180135769D01*
X82269523Y-180135769D02*
X82317142Y-180231007D01*
X82317142Y-180231007D02*
X82317142Y-180373864D01*
X82317142Y-180373864D02*
X82269523Y-180469102D01*
X82269523Y-180469102D02*
X82221904Y-180516721D01*
X82221904Y-180516721D02*
X82126666Y-180564340D01*
X82126666Y-180564340D02*
X81745714Y-180564340D01*
X83269523Y-181040531D02*
X82698095Y-181040531D01*
X82983809Y-181040531D02*
X82983809Y-180040531D01*
X82983809Y-180040531D02*
X82888571Y-180183388D01*
X82888571Y-180183388D02*
X82793333Y-180278626D01*
X82793333Y-180278626D02*
X82698095Y-180326245D01*
X83840952Y-180469102D02*
X83745714Y-180421483D01*
X83745714Y-180421483D02*
X83698095Y-180373864D01*
X83698095Y-180373864D02*
X83650476Y-180278626D01*
X83650476Y-180278626D02*
X83650476Y-180231007D01*
X83650476Y-180231007D02*
X83698095Y-180135769D01*
X83698095Y-180135769D02*
X83745714Y-180088150D01*
X83745714Y-180088150D02*
X83840952Y-180040531D01*
X83840952Y-180040531D02*
X84031428Y-180040531D01*
X84031428Y-180040531D02*
X84126666Y-180088150D01*
X84126666Y-180088150D02*
X84174285Y-180135769D01*
X84174285Y-180135769D02*
X84221904Y-180231007D01*
X84221904Y-180231007D02*
X84221904Y-180278626D01*
X84221904Y-180278626D02*
X84174285Y-180373864D01*
X84174285Y-180373864D02*
X84126666Y-180421483D01*
X84126666Y-180421483D02*
X84031428Y-180469102D01*
X84031428Y-180469102D02*
X83840952Y-180469102D01*
X83840952Y-180469102D02*
X83745714Y-180516721D01*
X83745714Y-180516721D02*
X83698095Y-180564340D01*
X83698095Y-180564340D02*
X83650476Y-180659578D01*
X83650476Y-180659578D02*
X83650476Y-180850054D01*
X83650476Y-180850054D02*
X83698095Y-180945292D01*
X83698095Y-180945292D02*
X83745714Y-180992912D01*
X83745714Y-180992912D02*
X83840952Y-181040531D01*
X83840952Y-181040531D02*
X84031428Y-181040531D01*
X84031428Y-181040531D02*
X84126666Y-180992912D01*
X84126666Y-180992912D02*
X84174285Y-180945292D01*
X84174285Y-180945292D02*
X84221904Y-180850054D01*
X84221904Y-180850054D02*
X84221904Y-180659578D01*
X84221904Y-180659578D02*
X84174285Y-180564340D01*
X84174285Y-180564340D02*
X84126666Y-180516721D01*
X84126666Y-180516721D02*
X84031428Y-180469102D01*
X81293333Y-79000531D02*
X80960000Y-78524340D01*
X80721905Y-79000531D02*
X80721905Y-78000531D01*
X80721905Y-78000531D02*
X81102857Y-78000531D01*
X81102857Y-78000531D02*
X81198095Y-78048150D01*
X81198095Y-78048150D02*
X81245714Y-78095769D01*
X81245714Y-78095769D02*
X81293333Y-78191007D01*
X81293333Y-78191007D02*
X81293333Y-78333864D01*
X81293333Y-78333864D02*
X81245714Y-78429102D01*
X81245714Y-78429102D02*
X81198095Y-78476721D01*
X81198095Y-78476721D02*
X81102857Y-78524340D01*
X81102857Y-78524340D02*
X80721905Y-78524340D01*
X81626667Y-78000531D02*
X82293333Y-78000531D01*
X82293333Y-78000531D02*
X81864762Y-79000531D01*
X82097142Y-156440531D02*
X81763809Y-155964340D01*
X81525714Y-156440531D02*
X81525714Y-155440531D01*
X81525714Y-155440531D02*
X81906666Y-155440531D01*
X81906666Y-155440531D02*
X82001904Y-155488150D01*
X82001904Y-155488150D02*
X82049523Y-155535769D01*
X82049523Y-155535769D02*
X82097142Y-155631007D01*
X82097142Y-155631007D02*
X82097142Y-155773864D01*
X82097142Y-155773864D02*
X82049523Y-155869102D01*
X82049523Y-155869102D02*
X82001904Y-155916721D01*
X82001904Y-155916721D02*
X81906666Y-155964340D01*
X81906666Y-155964340D02*
X81525714Y-155964340D01*
X82430476Y-155440531D02*
X83049523Y-155440531D01*
X83049523Y-155440531D02*
X82716190Y-155821483D01*
X82716190Y-155821483D02*
X82859047Y-155821483D01*
X82859047Y-155821483D02*
X82954285Y-155869102D01*
X82954285Y-155869102D02*
X83001904Y-155916721D01*
X83001904Y-155916721D02*
X83049523Y-156011959D01*
X83049523Y-156011959D02*
X83049523Y-156250054D01*
X83049523Y-156250054D02*
X83001904Y-156345292D01*
X83001904Y-156345292D02*
X82954285Y-156392912D01*
X82954285Y-156392912D02*
X82859047Y-156440531D01*
X82859047Y-156440531D02*
X82573333Y-156440531D01*
X82573333Y-156440531D02*
X82478095Y-156392912D01*
X82478095Y-156392912D02*
X82430476Y-156345292D01*
X83668571Y-155440531D02*
X83763809Y-155440531D01*
X83763809Y-155440531D02*
X83859047Y-155488150D01*
X83859047Y-155488150D02*
X83906666Y-155535769D01*
X83906666Y-155535769D02*
X83954285Y-155631007D01*
X83954285Y-155631007D02*
X84001904Y-155821483D01*
X84001904Y-155821483D02*
X84001904Y-156059578D01*
X84001904Y-156059578D02*
X83954285Y-156250054D01*
X83954285Y-156250054D02*
X83906666Y-156345292D01*
X83906666Y-156345292D02*
X83859047Y-156392912D01*
X83859047Y-156392912D02*
X83763809Y-156440531D01*
X83763809Y-156440531D02*
X83668571Y-156440531D01*
X83668571Y-156440531D02*
X83573333Y-156392912D01*
X83573333Y-156392912D02*
X83525714Y-156345292D01*
X83525714Y-156345292D02*
X83478095Y-156250054D01*
X83478095Y-156250054D02*
X83430476Y-156059578D01*
X83430476Y-156059578D02*
X83430476Y-155821483D01*
X83430476Y-155821483D02*
X83478095Y-155631007D01*
X83478095Y-155631007D02*
X83525714Y-155535769D01*
X83525714Y-155535769D02*
X83573333Y-155488150D01*
X83573333Y-155488150D02*
X83668571Y-155440531D01*
X99747142Y-183711422D02*
X99413809Y-183235231D01*
X99175714Y-183711422D02*
X99175714Y-182711422D01*
X99175714Y-182711422D02*
X99556666Y-182711422D01*
X99556666Y-182711422D02*
X99651904Y-182759041D01*
X99651904Y-182759041D02*
X99699523Y-182806660D01*
X99699523Y-182806660D02*
X99747142Y-182901898D01*
X99747142Y-182901898D02*
X99747142Y-183044755D01*
X99747142Y-183044755D02*
X99699523Y-183139993D01*
X99699523Y-183139993D02*
X99651904Y-183187612D01*
X99651904Y-183187612D02*
X99556666Y-183235231D01*
X99556666Y-183235231D02*
X99175714Y-183235231D01*
X100128095Y-182806660D02*
X100175714Y-182759041D01*
X100175714Y-182759041D02*
X100270952Y-182711422D01*
X100270952Y-182711422D02*
X100509047Y-182711422D01*
X100509047Y-182711422D02*
X100604285Y-182759041D01*
X100604285Y-182759041D02*
X100651904Y-182806660D01*
X100651904Y-182806660D02*
X100699523Y-182901898D01*
X100699523Y-182901898D02*
X100699523Y-182997136D01*
X100699523Y-182997136D02*
X100651904Y-183139993D01*
X100651904Y-183139993D02*
X100080476Y-183711422D01*
X100080476Y-183711422D02*
X100699523Y-183711422D01*
X101080476Y-182806660D02*
X101128095Y-182759041D01*
X101128095Y-182759041D02*
X101223333Y-182711422D01*
X101223333Y-182711422D02*
X101461428Y-182711422D01*
X101461428Y-182711422D02*
X101556666Y-182759041D01*
X101556666Y-182759041D02*
X101604285Y-182806660D01*
X101604285Y-182806660D02*
X101651904Y-182901898D01*
X101651904Y-182901898D02*
X101651904Y-182997136D01*
X101651904Y-182997136D02*
X101604285Y-183139993D01*
X101604285Y-183139993D02*
X101032857Y-183711422D01*
X101032857Y-183711422D02*
X101651904Y-183711422D01*
X108756666Y-108254688D02*
X108756666Y-108968973D01*
X108756666Y-108968973D02*
X108709047Y-109111830D01*
X108709047Y-109111830D02*
X108613809Y-109207069D01*
X108613809Y-109207069D02*
X108470952Y-109254688D01*
X108470952Y-109254688D02*
X108375714Y-109254688D01*
X109185238Y-108349926D02*
X109232857Y-108302307D01*
X109232857Y-108302307D02*
X109328095Y-108254688D01*
X109328095Y-108254688D02*
X109566190Y-108254688D01*
X109566190Y-108254688D02*
X109661428Y-108302307D01*
X109661428Y-108302307D02*
X109709047Y-108349926D01*
X109709047Y-108349926D02*
X109756666Y-108445164D01*
X109756666Y-108445164D02*
X109756666Y-108540402D01*
X109756666Y-108540402D02*
X109709047Y-108683259D01*
X109709047Y-108683259D02*
X109137619Y-109254688D01*
X109137619Y-109254688D02*
X109756666Y-109254688D01*
X99738516Y-79926978D02*
X99405183Y-79450787D01*
X99167088Y-79926978D02*
X99167088Y-78926978D01*
X99167088Y-78926978D02*
X99548040Y-78926978D01*
X99548040Y-78926978D02*
X99643278Y-78974597D01*
X99643278Y-78974597D02*
X99690897Y-79022216D01*
X99690897Y-79022216D02*
X99738516Y-79117454D01*
X99738516Y-79117454D02*
X99738516Y-79260311D01*
X99738516Y-79260311D02*
X99690897Y-79355549D01*
X99690897Y-79355549D02*
X99643278Y-79403168D01*
X99643278Y-79403168D02*
X99548040Y-79450787D01*
X99548040Y-79450787D02*
X99167088Y-79450787D01*
X100119469Y-79022216D02*
X100167088Y-78974597D01*
X100167088Y-78974597D02*
X100262326Y-78926978D01*
X100262326Y-78926978D02*
X100500421Y-78926978D01*
X100500421Y-78926978D02*
X100595659Y-78974597D01*
X100595659Y-78974597D02*
X100643278Y-79022216D01*
X100643278Y-79022216D02*
X100690897Y-79117454D01*
X100690897Y-79117454D02*
X100690897Y-79212692D01*
X100690897Y-79212692D02*
X100643278Y-79355549D01*
X100643278Y-79355549D02*
X100071850Y-79926978D01*
X100071850Y-79926978D02*
X100690897Y-79926978D01*
X101548040Y-79260311D02*
X101548040Y-79926978D01*
X101309945Y-78879359D02*
X101071850Y-79593644D01*
X101071850Y-79593644D02*
X101690897Y-79593644D01*
X99607142Y-163610531D02*
X99273809Y-163134340D01*
X99035714Y-163610531D02*
X99035714Y-162610531D01*
X99035714Y-162610531D02*
X99416666Y-162610531D01*
X99416666Y-162610531D02*
X99511904Y-162658150D01*
X99511904Y-162658150D02*
X99559523Y-162705769D01*
X99559523Y-162705769D02*
X99607142Y-162801007D01*
X99607142Y-162801007D02*
X99607142Y-162943864D01*
X99607142Y-162943864D02*
X99559523Y-163039102D01*
X99559523Y-163039102D02*
X99511904Y-163086721D01*
X99511904Y-163086721D02*
X99416666Y-163134340D01*
X99416666Y-163134340D02*
X99035714Y-163134340D01*
X99988095Y-162705769D02*
X100035714Y-162658150D01*
X100035714Y-162658150D02*
X100130952Y-162610531D01*
X100130952Y-162610531D02*
X100369047Y-162610531D01*
X100369047Y-162610531D02*
X100464285Y-162658150D01*
X100464285Y-162658150D02*
X100511904Y-162705769D01*
X100511904Y-162705769D02*
X100559523Y-162801007D01*
X100559523Y-162801007D02*
X100559523Y-162896245D01*
X100559523Y-162896245D02*
X100511904Y-163039102D01*
X100511904Y-163039102D02*
X99940476Y-163610531D01*
X99940476Y-163610531D02*
X100559523Y-163610531D01*
X100892857Y-162610531D02*
X101559523Y-162610531D01*
X101559523Y-162610531D02*
X101130952Y-163610531D01*
X114543279Y-75726978D02*
X114543279Y-74726978D01*
X114543279Y-74726978D02*
X114781374Y-74726978D01*
X114781374Y-74726978D02*
X114924231Y-74774597D01*
X114924231Y-74774597D02*
X115019469Y-74869835D01*
X115019469Y-74869835D02*
X115067088Y-74965073D01*
X115067088Y-74965073D02*
X115114707Y-75155549D01*
X115114707Y-75155549D02*
X115114707Y-75298406D01*
X115114707Y-75298406D02*
X115067088Y-75488882D01*
X115067088Y-75488882D02*
X115019469Y-75584120D01*
X115019469Y-75584120D02*
X114924231Y-75679359D01*
X114924231Y-75679359D02*
X114781374Y-75726978D01*
X114781374Y-75726978D02*
X114543279Y-75726978D01*
X115448041Y-74726978D02*
X116067088Y-74726978D01*
X116067088Y-74726978D02*
X115733755Y-75107930D01*
X115733755Y-75107930D02*
X115876612Y-75107930D01*
X115876612Y-75107930D02*
X115971850Y-75155549D01*
X115971850Y-75155549D02*
X116019469Y-75203168D01*
X116019469Y-75203168D02*
X116067088Y-75298406D01*
X116067088Y-75298406D02*
X116067088Y-75536501D01*
X116067088Y-75536501D02*
X116019469Y-75631739D01*
X116019469Y-75631739D02*
X115971850Y-75679359D01*
X115971850Y-75679359D02*
X115876612Y-75726978D01*
X115876612Y-75726978D02*
X115590898Y-75726978D01*
X115590898Y-75726978D02*
X115495660Y-75679359D01*
X115495660Y-75679359D02*
X115448041Y-75631739D01*
X77128095Y-150564688D02*
X77128095Y-151374211D01*
X77128095Y-151374211D02*
X77175714Y-151469449D01*
X77175714Y-151469449D02*
X77223333Y-151517069D01*
X77223333Y-151517069D02*
X77318571Y-151564688D01*
X77318571Y-151564688D02*
X77509047Y-151564688D01*
X77509047Y-151564688D02*
X77604285Y-151517069D01*
X77604285Y-151517069D02*
X77651904Y-151469449D01*
X77651904Y-151469449D02*
X77699523Y-151374211D01*
X77699523Y-151374211D02*
X77699523Y-150564688D01*
X78080476Y-150564688D02*
X78699523Y-150564688D01*
X78699523Y-150564688D02*
X78366190Y-150945640D01*
X78366190Y-150945640D02*
X78509047Y-150945640D01*
X78509047Y-150945640D02*
X78604285Y-150993259D01*
X78604285Y-150993259D02*
X78651904Y-151040878D01*
X78651904Y-151040878D02*
X78699523Y-151136116D01*
X78699523Y-151136116D02*
X78699523Y-151374211D01*
X78699523Y-151374211D02*
X78651904Y-151469449D01*
X78651904Y-151469449D02*
X78604285Y-151517069D01*
X78604285Y-151517069D02*
X78509047Y-151564688D01*
X78509047Y-151564688D02*
X78223333Y-151564688D01*
X78223333Y-151564688D02*
X78128095Y-151517069D01*
X78128095Y-151517069D02*
X78080476Y-151469449D01*
X114643279Y-92426978D02*
X114643279Y-91426978D01*
X114643279Y-91426978D02*
X114881374Y-91426978D01*
X114881374Y-91426978D02*
X115024231Y-91474597D01*
X115024231Y-91474597D02*
X115119469Y-91569835D01*
X115119469Y-91569835D02*
X115167088Y-91665073D01*
X115167088Y-91665073D02*
X115214707Y-91855549D01*
X115214707Y-91855549D02*
X115214707Y-91998406D01*
X115214707Y-91998406D02*
X115167088Y-92188882D01*
X115167088Y-92188882D02*
X115119469Y-92284120D01*
X115119469Y-92284120D02*
X115024231Y-92379359D01*
X115024231Y-92379359D02*
X114881374Y-92426978D01*
X114881374Y-92426978D02*
X114643279Y-92426978D01*
X115595660Y-91522216D02*
X115643279Y-91474597D01*
X115643279Y-91474597D02*
X115738517Y-91426978D01*
X115738517Y-91426978D02*
X115976612Y-91426978D01*
X115976612Y-91426978D02*
X116071850Y-91474597D01*
X116071850Y-91474597D02*
X116119469Y-91522216D01*
X116119469Y-91522216D02*
X116167088Y-91617454D01*
X116167088Y-91617454D02*
X116167088Y-91712692D01*
X116167088Y-91712692D02*
X116119469Y-91855549D01*
X116119469Y-91855549D02*
X115548041Y-92426978D01*
X115548041Y-92426978D02*
X116167088Y-92426978D01*
X77713333Y-52824819D02*
X77380000Y-52348628D01*
X77141905Y-52824819D02*
X77141905Y-51824819D01*
X77141905Y-51824819D02*
X77522857Y-51824819D01*
X77522857Y-51824819D02*
X77618095Y-51872438D01*
X77618095Y-51872438D02*
X77665714Y-51920057D01*
X77665714Y-51920057D02*
X77713333Y-52015295D01*
X77713333Y-52015295D02*
X77713333Y-52158152D01*
X77713333Y-52158152D02*
X77665714Y-52253390D01*
X77665714Y-52253390D02*
X77618095Y-52301009D01*
X77618095Y-52301009D02*
X77522857Y-52348628D01*
X77522857Y-52348628D02*
X77141905Y-52348628D01*
X78618095Y-51824819D02*
X78141905Y-51824819D01*
X78141905Y-51824819D02*
X78094286Y-52301009D01*
X78094286Y-52301009D02*
X78141905Y-52253390D01*
X78141905Y-52253390D02*
X78237143Y-52205771D01*
X78237143Y-52205771D02*
X78475238Y-52205771D01*
X78475238Y-52205771D02*
X78570476Y-52253390D01*
X78570476Y-52253390D02*
X78618095Y-52301009D01*
X78618095Y-52301009D02*
X78665714Y-52396247D01*
X78665714Y-52396247D02*
X78665714Y-52634342D01*
X78665714Y-52634342D02*
X78618095Y-52729580D01*
X78618095Y-52729580D02*
X78570476Y-52777200D01*
X78570476Y-52777200D02*
X78475238Y-52824819D01*
X78475238Y-52824819D02*
X78237143Y-52824819D01*
X78237143Y-52824819D02*
X78141905Y-52777200D01*
X78141905Y-52777200D02*
X78094286Y-52729580D01*
X77613333Y-74930531D02*
X77280000Y-74454340D01*
X77041905Y-74930531D02*
X77041905Y-73930531D01*
X77041905Y-73930531D02*
X77422857Y-73930531D01*
X77422857Y-73930531D02*
X77518095Y-73978150D01*
X77518095Y-73978150D02*
X77565714Y-74025769D01*
X77565714Y-74025769D02*
X77613333Y-74121007D01*
X77613333Y-74121007D02*
X77613333Y-74263864D01*
X77613333Y-74263864D02*
X77565714Y-74359102D01*
X77565714Y-74359102D02*
X77518095Y-74406721D01*
X77518095Y-74406721D02*
X77422857Y-74454340D01*
X77422857Y-74454340D02*
X77041905Y-74454340D01*
X78470476Y-73930531D02*
X78280000Y-73930531D01*
X78280000Y-73930531D02*
X78184762Y-73978150D01*
X78184762Y-73978150D02*
X78137143Y-74025769D01*
X78137143Y-74025769D02*
X78041905Y-74168626D01*
X78041905Y-74168626D02*
X77994286Y-74359102D01*
X77994286Y-74359102D02*
X77994286Y-74740054D01*
X77994286Y-74740054D02*
X78041905Y-74835292D01*
X78041905Y-74835292D02*
X78089524Y-74882912D01*
X78089524Y-74882912D02*
X78184762Y-74930531D01*
X78184762Y-74930531D02*
X78375238Y-74930531D01*
X78375238Y-74930531D02*
X78470476Y-74882912D01*
X78470476Y-74882912D02*
X78518095Y-74835292D01*
X78518095Y-74835292D02*
X78565714Y-74740054D01*
X78565714Y-74740054D02*
X78565714Y-74501959D01*
X78565714Y-74501959D02*
X78518095Y-74406721D01*
X78518095Y-74406721D02*
X78470476Y-74359102D01*
X78470476Y-74359102D02*
X78375238Y-74311483D01*
X78375238Y-74311483D02*
X78184762Y-74311483D01*
X78184762Y-74311483D02*
X78089524Y-74359102D01*
X78089524Y-74359102D02*
X78041905Y-74406721D01*
X78041905Y-74406721D02*
X77994286Y-74501959D01*
X99857142Y-141380531D02*
X99523809Y-140904340D01*
X99285714Y-141380531D02*
X99285714Y-140380531D01*
X99285714Y-140380531D02*
X99666666Y-140380531D01*
X99666666Y-140380531D02*
X99761904Y-140428150D01*
X99761904Y-140428150D02*
X99809523Y-140475769D01*
X99809523Y-140475769D02*
X99857142Y-140571007D01*
X99857142Y-140571007D02*
X99857142Y-140713864D01*
X99857142Y-140713864D02*
X99809523Y-140809102D01*
X99809523Y-140809102D02*
X99761904Y-140856721D01*
X99761904Y-140856721D02*
X99666666Y-140904340D01*
X99666666Y-140904340D02*
X99285714Y-140904340D01*
X100809523Y-141380531D02*
X100238095Y-141380531D01*
X100523809Y-141380531D02*
X100523809Y-140380531D01*
X100523809Y-140380531D02*
X100428571Y-140523388D01*
X100428571Y-140523388D02*
X100333333Y-140618626D01*
X100333333Y-140618626D02*
X100238095Y-140666245D01*
X101666666Y-140713864D02*
X101666666Y-141380531D01*
X101428571Y-140332912D02*
X101190476Y-141047197D01*
X101190476Y-141047197D02*
X101809523Y-141047197D01*
X97957142Y-72130531D02*
X97623809Y-71654340D01*
X97385714Y-72130531D02*
X97385714Y-71130531D01*
X97385714Y-71130531D02*
X97766666Y-71130531D01*
X97766666Y-71130531D02*
X97861904Y-71178150D01*
X97861904Y-71178150D02*
X97909523Y-71225769D01*
X97909523Y-71225769D02*
X97957142Y-71321007D01*
X97957142Y-71321007D02*
X97957142Y-71463864D01*
X97957142Y-71463864D02*
X97909523Y-71559102D01*
X97909523Y-71559102D02*
X97861904Y-71606721D01*
X97861904Y-71606721D02*
X97766666Y-71654340D01*
X97766666Y-71654340D02*
X97385714Y-71654340D01*
X98909523Y-72130531D02*
X98338095Y-72130531D01*
X98623809Y-72130531D02*
X98623809Y-71130531D01*
X98623809Y-71130531D02*
X98528571Y-71273388D01*
X98528571Y-71273388D02*
X98433333Y-71368626D01*
X98433333Y-71368626D02*
X98338095Y-71416245D01*
X99528571Y-71130531D02*
X99623809Y-71130531D01*
X99623809Y-71130531D02*
X99719047Y-71178150D01*
X99719047Y-71178150D02*
X99766666Y-71225769D01*
X99766666Y-71225769D02*
X99814285Y-71321007D01*
X99814285Y-71321007D02*
X99861904Y-71511483D01*
X99861904Y-71511483D02*
X99861904Y-71749578D01*
X99861904Y-71749578D02*
X99814285Y-71940054D01*
X99814285Y-71940054D02*
X99766666Y-72035292D01*
X99766666Y-72035292D02*
X99719047Y-72082912D01*
X99719047Y-72082912D02*
X99623809Y-72130531D01*
X99623809Y-72130531D02*
X99528571Y-72130531D01*
X99528571Y-72130531D02*
X99433333Y-72082912D01*
X99433333Y-72082912D02*
X99385714Y-72035292D01*
X99385714Y-72035292D02*
X99338095Y-71940054D01*
X99338095Y-71940054D02*
X99290476Y-71749578D01*
X99290476Y-71749578D02*
X99290476Y-71511483D01*
X99290476Y-71511483D02*
X99338095Y-71321007D01*
X99338095Y-71321007D02*
X99385714Y-71225769D01*
X99385714Y-71225769D02*
X99433333Y-71178150D01*
X99433333Y-71178150D02*
X99528571Y-71130531D01*
X56878095Y-116774688D02*
X56878095Y-115774688D01*
X56878095Y-116250878D02*
X57449523Y-116250878D01*
X57449523Y-116774688D02*
X57449523Y-115774688D01*
X57878095Y-115869926D02*
X57925714Y-115822307D01*
X57925714Y-115822307D02*
X58020952Y-115774688D01*
X58020952Y-115774688D02*
X58259047Y-115774688D01*
X58259047Y-115774688D02*
X58354285Y-115822307D01*
X58354285Y-115822307D02*
X58401904Y-115869926D01*
X58401904Y-115869926D02*
X58449523Y-115965164D01*
X58449523Y-115965164D02*
X58449523Y-116060402D01*
X58449523Y-116060402D02*
X58401904Y-116203259D01*
X58401904Y-116203259D02*
X57830476Y-116774688D01*
X57830476Y-116774688D02*
X58449523Y-116774688D01*
X95814707Y-95626978D02*
X95481374Y-95150787D01*
X95243279Y-95626978D02*
X95243279Y-94626978D01*
X95243279Y-94626978D02*
X95624231Y-94626978D01*
X95624231Y-94626978D02*
X95719469Y-94674597D01*
X95719469Y-94674597D02*
X95767088Y-94722216D01*
X95767088Y-94722216D02*
X95814707Y-94817454D01*
X95814707Y-94817454D02*
X95814707Y-94960311D01*
X95814707Y-94960311D02*
X95767088Y-95055549D01*
X95767088Y-95055549D02*
X95719469Y-95103168D01*
X95719469Y-95103168D02*
X95624231Y-95150787D01*
X95624231Y-95150787D02*
X95243279Y-95150787D01*
X96767088Y-95626978D02*
X96195660Y-95626978D01*
X96481374Y-95626978D02*
X96481374Y-94626978D01*
X96481374Y-94626978D02*
X96386136Y-94769835D01*
X96386136Y-94769835D02*
X96290898Y-94865073D01*
X96290898Y-94865073D02*
X96195660Y-94912692D01*
X69546666Y-51930531D02*
X69546666Y-52644816D01*
X69546666Y-52644816D02*
X69499047Y-52787673D01*
X69499047Y-52787673D02*
X69403809Y-52882912D01*
X69403809Y-52882912D02*
X69260952Y-52930531D01*
X69260952Y-52930531D02*
X69165714Y-52930531D01*
X69927619Y-51930531D02*
X70546666Y-51930531D01*
X70546666Y-51930531D02*
X70213333Y-52311483D01*
X70213333Y-52311483D02*
X70356190Y-52311483D01*
X70356190Y-52311483D02*
X70451428Y-52359102D01*
X70451428Y-52359102D02*
X70499047Y-52406721D01*
X70499047Y-52406721D02*
X70546666Y-52501959D01*
X70546666Y-52501959D02*
X70546666Y-52740054D01*
X70546666Y-52740054D02*
X70499047Y-52835292D01*
X70499047Y-52835292D02*
X70451428Y-52882912D01*
X70451428Y-52882912D02*
X70356190Y-52930531D01*
X70356190Y-52930531D02*
X70070476Y-52930531D01*
X70070476Y-52930531D02*
X69975238Y-52882912D01*
X69975238Y-52882912D02*
X69927619Y-52835292D01*
X99757142Y-132960531D02*
X99423809Y-132484340D01*
X99185714Y-132960531D02*
X99185714Y-131960531D01*
X99185714Y-131960531D02*
X99566666Y-131960531D01*
X99566666Y-131960531D02*
X99661904Y-132008150D01*
X99661904Y-132008150D02*
X99709523Y-132055769D01*
X99709523Y-132055769D02*
X99757142Y-132151007D01*
X99757142Y-132151007D02*
X99757142Y-132293864D01*
X99757142Y-132293864D02*
X99709523Y-132389102D01*
X99709523Y-132389102D02*
X99661904Y-132436721D01*
X99661904Y-132436721D02*
X99566666Y-132484340D01*
X99566666Y-132484340D02*
X99185714Y-132484340D01*
X100138095Y-132055769D02*
X100185714Y-132008150D01*
X100185714Y-132008150D02*
X100280952Y-131960531D01*
X100280952Y-131960531D02*
X100519047Y-131960531D01*
X100519047Y-131960531D02*
X100614285Y-132008150D01*
X100614285Y-132008150D02*
X100661904Y-132055769D01*
X100661904Y-132055769D02*
X100709523Y-132151007D01*
X100709523Y-132151007D02*
X100709523Y-132246245D01*
X100709523Y-132246245D02*
X100661904Y-132389102D01*
X100661904Y-132389102D02*
X100090476Y-132960531D01*
X100090476Y-132960531D02*
X100709523Y-132960531D01*
X101566666Y-131960531D02*
X101376190Y-131960531D01*
X101376190Y-131960531D02*
X101280952Y-132008150D01*
X101280952Y-132008150D02*
X101233333Y-132055769D01*
X101233333Y-132055769D02*
X101138095Y-132198626D01*
X101138095Y-132198626D02*
X101090476Y-132389102D01*
X101090476Y-132389102D02*
X101090476Y-132770054D01*
X101090476Y-132770054D02*
X101138095Y-132865292D01*
X101138095Y-132865292D02*
X101185714Y-132912912D01*
X101185714Y-132912912D02*
X101280952Y-132960531D01*
X101280952Y-132960531D02*
X101471428Y-132960531D01*
X101471428Y-132960531D02*
X101566666Y-132912912D01*
X101566666Y-132912912D02*
X101614285Y-132865292D01*
X101614285Y-132865292D02*
X101661904Y-132770054D01*
X101661904Y-132770054D02*
X101661904Y-132531959D01*
X101661904Y-132531959D02*
X101614285Y-132436721D01*
X101614285Y-132436721D02*
X101566666Y-132389102D01*
X101566666Y-132389102D02*
X101471428Y-132341483D01*
X101471428Y-132341483D02*
X101280952Y-132341483D01*
X101280952Y-132341483D02*
X101185714Y-132389102D01*
X101185714Y-132389102D02*
X101138095Y-132436721D01*
X101138095Y-132436721D02*
X101090476Y-132531959D01*
X56878095Y-179694688D02*
X56878095Y-178694688D01*
X56878095Y-179170878D02*
X57449523Y-179170878D01*
X57449523Y-179694688D02*
X57449523Y-178694688D01*
X57830476Y-178694688D02*
X58449523Y-178694688D01*
X58449523Y-178694688D02*
X58116190Y-179075640D01*
X58116190Y-179075640D02*
X58259047Y-179075640D01*
X58259047Y-179075640D02*
X58354285Y-179123259D01*
X58354285Y-179123259D02*
X58401904Y-179170878D01*
X58401904Y-179170878D02*
X58449523Y-179266116D01*
X58449523Y-179266116D02*
X58449523Y-179504211D01*
X58449523Y-179504211D02*
X58401904Y-179599449D01*
X58401904Y-179599449D02*
X58354285Y-179647069D01*
X58354285Y-179647069D02*
X58259047Y-179694688D01*
X58259047Y-179694688D02*
X57973333Y-179694688D01*
X57973333Y-179694688D02*
X57878095Y-179647069D01*
X57878095Y-179647069D02*
X57830476Y-179599449D01*
X98173333Y-58950531D02*
X97840000Y-58474340D01*
X97601905Y-58950531D02*
X97601905Y-57950531D01*
X97601905Y-57950531D02*
X97982857Y-57950531D01*
X97982857Y-57950531D02*
X98078095Y-57998150D01*
X98078095Y-57998150D02*
X98125714Y-58045769D01*
X98125714Y-58045769D02*
X98173333Y-58141007D01*
X98173333Y-58141007D02*
X98173333Y-58283864D01*
X98173333Y-58283864D02*
X98125714Y-58379102D01*
X98125714Y-58379102D02*
X98078095Y-58426721D01*
X98078095Y-58426721D02*
X97982857Y-58474340D01*
X97982857Y-58474340D02*
X97601905Y-58474340D01*
X98744762Y-58379102D02*
X98649524Y-58331483D01*
X98649524Y-58331483D02*
X98601905Y-58283864D01*
X98601905Y-58283864D02*
X98554286Y-58188626D01*
X98554286Y-58188626D02*
X98554286Y-58141007D01*
X98554286Y-58141007D02*
X98601905Y-58045769D01*
X98601905Y-58045769D02*
X98649524Y-57998150D01*
X98649524Y-57998150D02*
X98744762Y-57950531D01*
X98744762Y-57950531D02*
X98935238Y-57950531D01*
X98935238Y-57950531D02*
X99030476Y-57998150D01*
X99030476Y-57998150D02*
X99078095Y-58045769D01*
X99078095Y-58045769D02*
X99125714Y-58141007D01*
X99125714Y-58141007D02*
X99125714Y-58188626D01*
X99125714Y-58188626D02*
X99078095Y-58283864D01*
X99078095Y-58283864D02*
X99030476Y-58331483D01*
X99030476Y-58331483D02*
X98935238Y-58379102D01*
X98935238Y-58379102D02*
X98744762Y-58379102D01*
X98744762Y-58379102D02*
X98649524Y-58426721D01*
X98649524Y-58426721D02*
X98601905Y-58474340D01*
X98601905Y-58474340D02*
X98554286Y-58569578D01*
X98554286Y-58569578D02*
X98554286Y-58760054D01*
X98554286Y-58760054D02*
X98601905Y-58855292D01*
X98601905Y-58855292D02*
X98649524Y-58902912D01*
X98649524Y-58902912D02*
X98744762Y-58950531D01*
X98744762Y-58950531D02*
X98935238Y-58950531D01*
X98935238Y-58950531D02*
X99030476Y-58902912D01*
X99030476Y-58902912D02*
X99078095Y-58855292D01*
X99078095Y-58855292D02*
X99125714Y-58760054D01*
X99125714Y-58760054D02*
X99125714Y-58569578D01*
X99125714Y-58569578D02*
X99078095Y-58474340D01*
X99078095Y-58474340D02*
X99030476Y-58426721D01*
X99030476Y-58426721D02*
X98935238Y-58379102D01*
X99847142Y-178411422D02*
X99513809Y-177935231D01*
X99275714Y-178411422D02*
X99275714Y-177411422D01*
X99275714Y-177411422D02*
X99656666Y-177411422D01*
X99656666Y-177411422D02*
X99751904Y-177459041D01*
X99751904Y-177459041D02*
X99799523Y-177506660D01*
X99799523Y-177506660D02*
X99847142Y-177601898D01*
X99847142Y-177601898D02*
X99847142Y-177744755D01*
X99847142Y-177744755D02*
X99799523Y-177839993D01*
X99799523Y-177839993D02*
X99751904Y-177887612D01*
X99751904Y-177887612D02*
X99656666Y-177935231D01*
X99656666Y-177935231D02*
X99275714Y-177935231D01*
X100228095Y-177506660D02*
X100275714Y-177459041D01*
X100275714Y-177459041D02*
X100370952Y-177411422D01*
X100370952Y-177411422D02*
X100609047Y-177411422D01*
X100609047Y-177411422D02*
X100704285Y-177459041D01*
X100704285Y-177459041D02*
X100751904Y-177506660D01*
X100751904Y-177506660D02*
X100799523Y-177601898D01*
X100799523Y-177601898D02*
X100799523Y-177697136D01*
X100799523Y-177697136D02*
X100751904Y-177839993D01*
X100751904Y-177839993D02*
X100180476Y-178411422D01*
X100180476Y-178411422D02*
X100799523Y-178411422D01*
X101751904Y-178411422D02*
X101180476Y-178411422D01*
X101466190Y-178411422D02*
X101466190Y-177411422D01*
X101466190Y-177411422D02*
X101370952Y-177554279D01*
X101370952Y-177554279D02*
X101275714Y-177649517D01*
X101275714Y-177649517D02*
X101180476Y-177697136D01*
X100233333Y-67230531D02*
X99900000Y-66754340D01*
X99661905Y-67230531D02*
X99661905Y-66230531D01*
X99661905Y-66230531D02*
X100042857Y-66230531D01*
X100042857Y-66230531D02*
X100138095Y-66278150D01*
X100138095Y-66278150D02*
X100185714Y-66325769D01*
X100185714Y-66325769D02*
X100233333Y-66421007D01*
X100233333Y-66421007D02*
X100233333Y-66563864D01*
X100233333Y-66563864D02*
X100185714Y-66659102D01*
X100185714Y-66659102D02*
X100138095Y-66706721D01*
X100138095Y-66706721D02*
X100042857Y-66754340D01*
X100042857Y-66754340D02*
X99661905Y-66754340D01*
X100709524Y-67230531D02*
X100900000Y-67230531D01*
X100900000Y-67230531D02*
X100995238Y-67182912D01*
X100995238Y-67182912D02*
X101042857Y-67135292D01*
X101042857Y-67135292D02*
X101138095Y-66992435D01*
X101138095Y-66992435D02*
X101185714Y-66801959D01*
X101185714Y-66801959D02*
X101185714Y-66421007D01*
X101185714Y-66421007D02*
X101138095Y-66325769D01*
X101138095Y-66325769D02*
X101090476Y-66278150D01*
X101090476Y-66278150D02*
X100995238Y-66230531D01*
X100995238Y-66230531D02*
X100804762Y-66230531D01*
X100804762Y-66230531D02*
X100709524Y-66278150D01*
X100709524Y-66278150D02*
X100661905Y-66325769D01*
X100661905Y-66325769D02*
X100614286Y-66421007D01*
X100614286Y-66421007D02*
X100614286Y-66659102D01*
X100614286Y-66659102D02*
X100661905Y-66754340D01*
X100661905Y-66754340D02*
X100709524Y-66801959D01*
X100709524Y-66801959D02*
X100804762Y-66849578D01*
X100804762Y-66849578D02*
X100995238Y-66849578D01*
X100995238Y-66849578D02*
X101090476Y-66801959D01*
X101090476Y-66801959D02*
X101138095Y-66754340D01*
X101138095Y-66754340D02*
X101185714Y-66659102D01*
D12*
X114956667Y-98973949D02*
X114533333Y-98973949D01*
X114533333Y-99639187D02*
X114533333Y-98369187D01*
X114533333Y-98369187D02*
X115138095Y-98369187D01*
X116287143Y-99639187D02*
X115561428Y-99639187D01*
X115924285Y-99639187D02*
X115924285Y-98369187D01*
X115924285Y-98369187D02*
X115803333Y-98550615D01*
X115803333Y-98550615D02*
X115682381Y-98671568D01*
X115682381Y-98671568D02*
X115561428Y-98732044D01*
D11*
X99847142Y-168711422D02*
X99513809Y-168235231D01*
X99275714Y-168711422D02*
X99275714Y-167711422D01*
X99275714Y-167711422D02*
X99656666Y-167711422D01*
X99656666Y-167711422D02*
X99751904Y-167759041D01*
X99751904Y-167759041D02*
X99799523Y-167806660D01*
X99799523Y-167806660D02*
X99847142Y-167901898D01*
X99847142Y-167901898D02*
X99847142Y-168044755D01*
X99847142Y-168044755D02*
X99799523Y-168139993D01*
X99799523Y-168139993D02*
X99751904Y-168187612D01*
X99751904Y-168187612D02*
X99656666Y-168235231D01*
X99656666Y-168235231D02*
X99275714Y-168235231D01*
X100799523Y-168711422D02*
X100228095Y-168711422D01*
X100513809Y-168711422D02*
X100513809Y-167711422D01*
X100513809Y-167711422D02*
X100418571Y-167854279D01*
X100418571Y-167854279D02*
X100323333Y-167949517D01*
X100323333Y-167949517D02*
X100228095Y-167997136D01*
X101275714Y-168711422D02*
X101466190Y-168711422D01*
X101466190Y-168711422D02*
X101561428Y-168663803D01*
X101561428Y-168663803D02*
X101609047Y-168616183D01*
X101609047Y-168616183D02*
X101704285Y-168473326D01*
X101704285Y-168473326D02*
X101751904Y-168282850D01*
X101751904Y-168282850D02*
X101751904Y-167901898D01*
X101751904Y-167901898D02*
X101704285Y-167806660D01*
X101704285Y-167806660D02*
X101656666Y-167759041D01*
X101656666Y-167759041D02*
X101561428Y-167711422D01*
X101561428Y-167711422D02*
X101370952Y-167711422D01*
X101370952Y-167711422D02*
X101275714Y-167759041D01*
X101275714Y-167759041D02*
X101228095Y-167806660D01*
X101228095Y-167806660D02*
X101180476Y-167901898D01*
X101180476Y-167901898D02*
X101180476Y-168139993D01*
X101180476Y-168139993D02*
X101228095Y-168235231D01*
X101228095Y-168235231D02*
X101275714Y-168282850D01*
X101275714Y-168282850D02*
X101370952Y-168330469D01*
X101370952Y-168330469D02*
X101561428Y-168330469D01*
X101561428Y-168330469D02*
X101656666Y-168282850D01*
X101656666Y-168282850D02*
X101704285Y-168235231D01*
X101704285Y-168235231D02*
X101751904Y-168139993D01*
X99757142Y-173511422D02*
X99423809Y-173035231D01*
X99185714Y-173511422D02*
X99185714Y-172511422D01*
X99185714Y-172511422D02*
X99566666Y-172511422D01*
X99566666Y-172511422D02*
X99661904Y-172559041D01*
X99661904Y-172559041D02*
X99709523Y-172606660D01*
X99709523Y-172606660D02*
X99757142Y-172701898D01*
X99757142Y-172701898D02*
X99757142Y-172844755D01*
X99757142Y-172844755D02*
X99709523Y-172939993D01*
X99709523Y-172939993D02*
X99661904Y-172987612D01*
X99661904Y-172987612D02*
X99566666Y-173035231D01*
X99566666Y-173035231D02*
X99185714Y-173035231D01*
X100138095Y-172606660D02*
X100185714Y-172559041D01*
X100185714Y-172559041D02*
X100280952Y-172511422D01*
X100280952Y-172511422D02*
X100519047Y-172511422D01*
X100519047Y-172511422D02*
X100614285Y-172559041D01*
X100614285Y-172559041D02*
X100661904Y-172606660D01*
X100661904Y-172606660D02*
X100709523Y-172701898D01*
X100709523Y-172701898D02*
X100709523Y-172797136D01*
X100709523Y-172797136D02*
X100661904Y-172939993D01*
X100661904Y-172939993D02*
X100090476Y-173511422D01*
X100090476Y-173511422D02*
X100709523Y-173511422D01*
X101328571Y-172511422D02*
X101423809Y-172511422D01*
X101423809Y-172511422D02*
X101519047Y-172559041D01*
X101519047Y-172559041D02*
X101566666Y-172606660D01*
X101566666Y-172606660D02*
X101614285Y-172701898D01*
X101614285Y-172701898D02*
X101661904Y-172892374D01*
X101661904Y-172892374D02*
X101661904Y-173130469D01*
X101661904Y-173130469D02*
X101614285Y-173320945D01*
X101614285Y-173320945D02*
X101566666Y-173416183D01*
X101566666Y-173416183D02*
X101519047Y-173463803D01*
X101519047Y-173463803D02*
X101423809Y-173511422D01*
X101423809Y-173511422D02*
X101328571Y-173511422D01*
X101328571Y-173511422D02*
X101233333Y-173463803D01*
X101233333Y-173463803D02*
X101185714Y-173416183D01*
X101185714Y-173416183D02*
X101138095Y-173320945D01*
X101138095Y-173320945D02*
X101090476Y-173130469D01*
X101090476Y-173130469D02*
X101090476Y-172892374D01*
X101090476Y-172892374D02*
X101138095Y-172701898D01*
X101138095Y-172701898D02*
X101185714Y-172606660D01*
X101185714Y-172606660D02*
X101233333Y-172559041D01*
X101233333Y-172559041D02*
X101328571Y-172511422D01*
X96733333Y-81699449D02*
X96685714Y-81747069D01*
X96685714Y-81747069D02*
X96542857Y-81794688D01*
X96542857Y-81794688D02*
X96447619Y-81794688D01*
X96447619Y-81794688D02*
X96304762Y-81747069D01*
X96304762Y-81747069D02*
X96209524Y-81651830D01*
X96209524Y-81651830D02*
X96161905Y-81556592D01*
X96161905Y-81556592D02*
X96114286Y-81366116D01*
X96114286Y-81366116D02*
X96114286Y-81223259D01*
X96114286Y-81223259D02*
X96161905Y-81032783D01*
X96161905Y-81032783D02*
X96209524Y-80937545D01*
X96209524Y-80937545D02*
X96304762Y-80842307D01*
X96304762Y-80842307D02*
X96447619Y-80794688D01*
X96447619Y-80794688D02*
X96542857Y-80794688D01*
X96542857Y-80794688D02*
X96685714Y-80842307D01*
X96685714Y-80842307D02*
X96733333Y-80889926D01*
X97638095Y-80794688D02*
X97161905Y-80794688D01*
X97161905Y-80794688D02*
X97114286Y-81270878D01*
X97114286Y-81270878D02*
X97161905Y-81223259D01*
X97161905Y-81223259D02*
X97257143Y-81175640D01*
X97257143Y-81175640D02*
X97495238Y-81175640D01*
X97495238Y-81175640D02*
X97590476Y-81223259D01*
X97590476Y-81223259D02*
X97638095Y-81270878D01*
X97638095Y-81270878D02*
X97685714Y-81366116D01*
X97685714Y-81366116D02*
X97685714Y-81604211D01*
X97685714Y-81604211D02*
X97638095Y-81699449D01*
X97638095Y-81699449D02*
X97590476Y-81747069D01*
X97590476Y-81747069D02*
X97495238Y-81794688D01*
X97495238Y-81794688D02*
X97257143Y-81794688D01*
X97257143Y-81794688D02*
X97161905Y-81747069D01*
X97161905Y-81747069D02*
X97114286Y-81699449D01*
X84808095Y-51956845D02*
X84808095Y-52766368D01*
X84808095Y-52766368D02*
X84855714Y-52861606D01*
X84855714Y-52861606D02*
X84903333Y-52909226D01*
X84903333Y-52909226D02*
X84998571Y-52956845D01*
X84998571Y-52956845D02*
X85189047Y-52956845D01*
X85189047Y-52956845D02*
X85284285Y-52909226D01*
X85284285Y-52909226D02*
X85331904Y-52861606D01*
X85331904Y-52861606D02*
X85379523Y-52766368D01*
X85379523Y-52766368D02*
X85379523Y-51956845D01*
X85808095Y-52052083D02*
X85855714Y-52004464D01*
X85855714Y-52004464D02*
X85950952Y-51956845D01*
X85950952Y-51956845D02*
X86189047Y-51956845D01*
X86189047Y-51956845D02*
X86284285Y-52004464D01*
X86284285Y-52004464D02*
X86331904Y-52052083D01*
X86331904Y-52052083D02*
X86379523Y-52147321D01*
X86379523Y-52147321D02*
X86379523Y-52242559D01*
X86379523Y-52242559D02*
X86331904Y-52385416D01*
X86331904Y-52385416D02*
X85760476Y-52956845D01*
X85760476Y-52956845D02*
X86379523Y-52956845D01*
X82307142Y-171140531D02*
X81973809Y-170664340D01*
X81735714Y-171140531D02*
X81735714Y-170140531D01*
X81735714Y-170140531D02*
X82116666Y-170140531D01*
X82116666Y-170140531D02*
X82211904Y-170188150D01*
X82211904Y-170188150D02*
X82259523Y-170235769D01*
X82259523Y-170235769D02*
X82307142Y-170331007D01*
X82307142Y-170331007D02*
X82307142Y-170473864D01*
X82307142Y-170473864D02*
X82259523Y-170569102D01*
X82259523Y-170569102D02*
X82211904Y-170616721D01*
X82211904Y-170616721D02*
X82116666Y-170664340D01*
X82116666Y-170664340D02*
X81735714Y-170664340D01*
X83259523Y-171140531D02*
X82688095Y-171140531D01*
X82973809Y-171140531D02*
X82973809Y-170140531D01*
X82973809Y-170140531D02*
X82878571Y-170283388D01*
X82878571Y-170283388D02*
X82783333Y-170378626D01*
X82783333Y-170378626D02*
X82688095Y-170426245D01*
X84116666Y-170140531D02*
X83926190Y-170140531D01*
X83926190Y-170140531D02*
X83830952Y-170188150D01*
X83830952Y-170188150D02*
X83783333Y-170235769D01*
X83783333Y-170235769D02*
X83688095Y-170378626D01*
X83688095Y-170378626D02*
X83640476Y-170569102D01*
X83640476Y-170569102D02*
X83640476Y-170950054D01*
X83640476Y-170950054D02*
X83688095Y-171045292D01*
X83688095Y-171045292D02*
X83735714Y-171092912D01*
X83735714Y-171092912D02*
X83830952Y-171140531D01*
X83830952Y-171140531D02*
X84021428Y-171140531D01*
X84021428Y-171140531D02*
X84116666Y-171092912D01*
X84116666Y-171092912D02*
X84164285Y-171045292D01*
X84164285Y-171045292D02*
X84211904Y-170950054D01*
X84211904Y-170950054D02*
X84211904Y-170711959D01*
X84211904Y-170711959D02*
X84164285Y-170616721D01*
X84164285Y-170616721D02*
X84116666Y-170569102D01*
X84116666Y-170569102D02*
X84021428Y-170521483D01*
X84021428Y-170521483D02*
X83830952Y-170521483D01*
X83830952Y-170521483D02*
X83735714Y-170569102D01*
X83735714Y-170569102D02*
X83688095Y-170616721D01*
X83688095Y-170616721D02*
X83640476Y-170711959D01*
X120908095Y-53814688D02*
X120908095Y-52814688D01*
X120908095Y-53290878D02*
X121479523Y-53290878D01*
X121479523Y-53814688D02*
X121479523Y-52814688D01*
X122384285Y-53148021D02*
X122384285Y-53814688D01*
X122146190Y-52767069D02*
X121908095Y-53481354D01*
X121908095Y-53481354D02*
X122527142Y-53481354D01*
X79013333Y-81535292D02*
X78965714Y-81582912D01*
X78965714Y-81582912D02*
X78822857Y-81630531D01*
X78822857Y-81630531D02*
X78727619Y-81630531D01*
X78727619Y-81630531D02*
X78584762Y-81582912D01*
X78584762Y-81582912D02*
X78489524Y-81487673D01*
X78489524Y-81487673D02*
X78441905Y-81392435D01*
X78441905Y-81392435D02*
X78394286Y-81201959D01*
X78394286Y-81201959D02*
X78394286Y-81059102D01*
X78394286Y-81059102D02*
X78441905Y-80868626D01*
X78441905Y-80868626D02*
X78489524Y-80773388D01*
X78489524Y-80773388D02*
X78584762Y-80678150D01*
X78584762Y-80678150D02*
X78727619Y-80630531D01*
X78727619Y-80630531D02*
X78822857Y-80630531D01*
X78822857Y-80630531D02*
X78965714Y-80678150D01*
X78965714Y-80678150D02*
X79013333Y-80725769D01*
X79870476Y-80963864D02*
X79870476Y-81630531D01*
X79632381Y-80582912D02*
X79394286Y-81297197D01*
X79394286Y-81297197D02*
X80013333Y-81297197D01*
X120908095Y-179694688D02*
X120908095Y-178694688D01*
X120908095Y-179170878D02*
X121479523Y-179170878D01*
X121479523Y-179694688D02*
X121479523Y-178694688D01*
X122384285Y-178694688D02*
X122193809Y-178694688D01*
X122193809Y-178694688D02*
X122098571Y-178742307D01*
X122098571Y-178742307D02*
X122050952Y-178789926D01*
X122050952Y-178789926D02*
X121955714Y-178932783D01*
X121955714Y-178932783D02*
X121908095Y-179123259D01*
X121908095Y-179123259D02*
X121908095Y-179504211D01*
X121908095Y-179504211D02*
X121955714Y-179599449D01*
X121955714Y-179599449D02*
X122003333Y-179647069D01*
X122003333Y-179647069D02*
X122098571Y-179694688D01*
X122098571Y-179694688D02*
X122289047Y-179694688D01*
X122289047Y-179694688D02*
X122384285Y-179647069D01*
X122384285Y-179647069D02*
X122431904Y-179599449D01*
X122431904Y-179599449D02*
X122479523Y-179504211D01*
X122479523Y-179504211D02*
X122479523Y-179266116D01*
X122479523Y-179266116D02*
X122431904Y-179170878D01*
X122431904Y-179170878D02*
X122384285Y-179123259D01*
X122384285Y-179123259D02*
X122289047Y-179075640D01*
X122289047Y-179075640D02*
X122098571Y-179075640D01*
X122098571Y-179075640D02*
X122003333Y-179123259D01*
X122003333Y-179123259D02*
X121955714Y-179170878D01*
X121955714Y-179170878D02*
X121908095Y-179266116D01*
X96093333Y-110944688D02*
X95760000Y-110468497D01*
X95521905Y-110944688D02*
X95521905Y-109944688D01*
X95521905Y-109944688D02*
X95902857Y-109944688D01*
X95902857Y-109944688D02*
X95998095Y-109992307D01*
X95998095Y-109992307D02*
X96045714Y-110039926D01*
X96045714Y-110039926D02*
X96093333Y-110135164D01*
X96093333Y-110135164D02*
X96093333Y-110278021D01*
X96093333Y-110278021D02*
X96045714Y-110373259D01*
X96045714Y-110373259D02*
X95998095Y-110420878D01*
X95998095Y-110420878D02*
X95902857Y-110468497D01*
X95902857Y-110468497D02*
X95521905Y-110468497D01*
X96950476Y-110278021D02*
X96950476Y-110944688D01*
X96712381Y-109897069D02*
X96474286Y-110611354D01*
X96474286Y-110611354D02*
X97093333Y-110611354D01*
X82097142Y-161240531D02*
X81763809Y-160764340D01*
X81525714Y-161240531D02*
X81525714Y-160240531D01*
X81525714Y-160240531D02*
X81906666Y-160240531D01*
X81906666Y-160240531D02*
X82001904Y-160288150D01*
X82001904Y-160288150D02*
X82049523Y-160335769D01*
X82049523Y-160335769D02*
X82097142Y-160431007D01*
X82097142Y-160431007D02*
X82097142Y-160573864D01*
X82097142Y-160573864D02*
X82049523Y-160669102D01*
X82049523Y-160669102D02*
X82001904Y-160716721D01*
X82001904Y-160716721D02*
X81906666Y-160764340D01*
X81906666Y-160764340D02*
X81525714Y-160764340D01*
X82478095Y-160335769D02*
X82525714Y-160288150D01*
X82525714Y-160288150D02*
X82620952Y-160240531D01*
X82620952Y-160240531D02*
X82859047Y-160240531D01*
X82859047Y-160240531D02*
X82954285Y-160288150D01*
X82954285Y-160288150D02*
X83001904Y-160335769D01*
X83001904Y-160335769D02*
X83049523Y-160431007D01*
X83049523Y-160431007D02*
X83049523Y-160526245D01*
X83049523Y-160526245D02*
X83001904Y-160669102D01*
X83001904Y-160669102D02*
X82430476Y-161240531D01*
X82430476Y-161240531D02*
X83049523Y-161240531D01*
X83620952Y-160669102D02*
X83525714Y-160621483D01*
X83525714Y-160621483D02*
X83478095Y-160573864D01*
X83478095Y-160573864D02*
X83430476Y-160478626D01*
X83430476Y-160478626D02*
X83430476Y-160431007D01*
X83430476Y-160431007D02*
X83478095Y-160335769D01*
X83478095Y-160335769D02*
X83525714Y-160288150D01*
X83525714Y-160288150D02*
X83620952Y-160240531D01*
X83620952Y-160240531D02*
X83811428Y-160240531D01*
X83811428Y-160240531D02*
X83906666Y-160288150D01*
X83906666Y-160288150D02*
X83954285Y-160335769D01*
X83954285Y-160335769D02*
X84001904Y-160431007D01*
X84001904Y-160431007D02*
X84001904Y-160478626D01*
X84001904Y-160478626D02*
X83954285Y-160573864D01*
X83954285Y-160573864D02*
X83906666Y-160621483D01*
X83906666Y-160621483D02*
X83811428Y-160669102D01*
X83811428Y-160669102D02*
X83620952Y-160669102D01*
X83620952Y-160669102D02*
X83525714Y-160716721D01*
X83525714Y-160716721D02*
X83478095Y-160764340D01*
X83478095Y-160764340D02*
X83430476Y-160859578D01*
X83430476Y-160859578D02*
X83430476Y-161050054D01*
X83430476Y-161050054D02*
X83478095Y-161145292D01*
X83478095Y-161145292D02*
X83525714Y-161192912D01*
X83525714Y-161192912D02*
X83620952Y-161240531D01*
X83620952Y-161240531D02*
X83811428Y-161240531D01*
X83811428Y-161240531D02*
X83906666Y-161192912D01*
X83906666Y-161192912D02*
X83954285Y-161145292D01*
X83954285Y-161145292D02*
X84001904Y-161050054D01*
X84001904Y-161050054D02*
X84001904Y-160859578D01*
X84001904Y-160859578D02*
X83954285Y-160764340D01*
X83954285Y-160764340D02*
X83906666Y-160716721D01*
X83906666Y-160716721D02*
X83811428Y-160669102D01*
X82407142Y-176140531D02*
X82073809Y-175664340D01*
X81835714Y-176140531D02*
X81835714Y-175140531D01*
X81835714Y-175140531D02*
X82216666Y-175140531D01*
X82216666Y-175140531D02*
X82311904Y-175188150D01*
X82311904Y-175188150D02*
X82359523Y-175235769D01*
X82359523Y-175235769D02*
X82407142Y-175331007D01*
X82407142Y-175331007D02*
X82407142Y-175473864D01*
X82407142Y-175473864D02*
X82359523Y-175569102D01*
X82359523Y-175569102D02*
X82311904Y-175616721D01*
X82311904Y-175616721D02*
X82216666Y-175664340D01*
X82216666Y-175664340D02*
X81835714Y-175664340D01*
X83359523Y-176140531D02*
X82788095Y-176140531D01*
X83073809Y-176140531D02*
X83073809Y-175140531D01*
X83073809Y-175140531D02*
X82978571Y-175283388D01*
X82978571Y-175283388D02*
X82883333Y-175378626D01*
X82883333Y-175378626D02*
X82788095Y-175426245D01*
X83692857Y-175140531D02*
X84359523Y-175140531D01*
X84359523Y-175140531D02*
X83930952Y-176140531D01*
X100127142Y-154380531D02*
X99793809Y-153904340D01*
X99555714Y-154380531D02*
X99555714Y-153380531D01*
X99555714Y-153380531D02*
X99936666Y-153380531D01*
X99936666Y-153380531D02*
X100031904Y-153428150D01*
X100031904Y-153428150D02*
X100079523Y-153475769D01*
X100079523Y-153475769D02*
X100127142Y-153571007D01*
X100127142Y-153571007D02*
X100127142Y-153713864D01*
X100127142Y-153713864D02*
X100079523Y-153809102D01*
X100079523Y-153809102D02*
X100031904Y-153856721D01*
X100031904Y-153856721D02*
X99936666Y-153904340D01*
X99936666Y-153904340D02*
X99555714Y-153904340D01*
X101079523Y-154380531D02*
X100508095Y-154380531D01*
X100793809Y-154380531D02*
X100793809Y-153380531D01*
X100793809Y-153380531D02*
X100698571Y-153523388D01*
X100698571Y-153523388D02*
X100603333Y-153618626D01*
X100603333Y-153618626D02*
X100508095Y-153666245D01*
X102031904Y-154380531D02*
X101460476Y-154380531D01*
X101746190Y-154380531D02*
X101746190Y-153380531D01*
X101746190Y-153380531D02*
X101650952Y-153523388D01*
X101650952Y-153523388D02*
X101555714Y-153618626D01*
X101555714Y-153618626D02*
X101460476Y-153666245D01*
X94713333Y-52535292D02*
X94665714Y-52582912D01*
X94665714Y-52582912D02*
X94522857Y-52630531D01*
X94522857Y-52630531D02*
X94427619Y-52630531D01*
X94427619Y-52630531D02*
X94284762Y-52582912D01*
X94284762Y-52582912D02*
X94189524Y-52487673D01*
X94189524Y-52487673D02*
X94141905Y-52392435D01*
X94141905Y-52392435D02*
X94094286Y-52201959D01*
X94094286Y-52201959D02*
X94094286Y-52059102D01*
X94094286Y-52059102D02*
X94141905Y-51868626D01*
X94141905Y-51868626D02*
X94189524Y-51773388D01*
X94189524Y-51773388D02*
X94284762Y-51678150D01*
X94284762Y-51678150D02*
X94427619Y-51630531D01*
X94427619Y-51630531D02*
X94522857Y-51630531D01*
X94522857Y-51630531D02*
X94665714Y-51678150D01*
X94665714Y-51678150D02*
X94713333Y-51725769D01*
X95046667Y-51630531D02*
X95665714Y-51630531D01*
X95665714Y-51630531D02*
X95332381Y-52011483D01*
X95332381Y-52011483D02*
X95475238Y-52011483D01*
X95475238Y-52011483D02*
X95570476Y-52059102D01*
X95570476Y-52059102D02*
X95618095Y-52106721D01*
X95618095Y-52106721D02*
X95665714Y-52201959D01*
X95665714Y-52201959D02*
X95665714Y-52440054D01*
X95665714Y-52440054D02*
X95618095Y-52535292D01*
X95618095Y-52535292D02*
X95570476Y-52582912D01*
X95570476Y-52582912D02*
X95475238Y-52630531D01*
X95475238Y-52630531D02*
X95189524Y-52630531D01*
X95189524Y-52630531D02*
X95094286Y-52582912D01*
X95094286Y-52582912D02*
X95046667Y-52535292D01*
X82318095Y-79930531D02*
X82318095Y-80740054D01*
X82318095Y-80740054D02*
X82365714Y-80835292D01*
X82365714Y-80835292D02*
X82413333Y-80882912D01*
X82413333Y-80882912D02*
X82508571Y-80930531D01*
X82508571Y-80930531D02*
X82699047Y-80930531D01*
X82699047Y-80930531D02*
X82794285Y-80882912D01*
X82794285Y-80882912D02*
X82841904Y-80835292D01*
X82841904Y-80835292D02*
X82889523Y-80740054D01*
X82889523Y-80740054D02*
X82889523Y-79930531D01*
X83794285Y-80263864D02*
X83794285Y-80930531D01*
X83556190Y-79882912D02*
X83318095Y-80597197D01*
X83318095Y-80597197D02*
X83937142Y-80597197D01*
X99707142Y-159010531D02*
X99373809Y-158534340D01*
X99135714Y-159010531D02*
X99135714Y-158010531D01*
X99135714Y-158010531D02*
X99516666Y-158010531D01*
X99516666Y-158010531D02*
X99611904Y-158058150D01*
X99611904Y-158058150D02*
X99659523Y-158105769D01*
X99659523Y-158105769D02*
X99707142Y-158201007D01*
X99707142Y-158201007D02*
X99707142Y-158343864D01*
X99707142Y-158343864D02*
X99659523Y-158439102D01*
X99659523Y-158439102D02*
X99611904Y-158486721D01*
X99611904Y-158486721D02*
X99516666Y-158534340D01*
X99516666Y-158534340D02*
X99135714Y-158534340D01*
X100088095Y-158105769D02*
X100135714Y-158058150D01*
X100135714Y-158058150D02*
X100230952Y-158010531D01*
X100230952Y-158010531D02*
X100469047Y-158010531D01*
X100469047Y-158010531D02*
X100564285Y-158058150D01*
X100564285Y-158058150D02*
X100611904Y-158105769D01*
X100611904Y-158105769D02*
X100659523Y-158201007D01*
X100659523Y-158201007D02*
X100659523Y-158296245D01*
X100659523Y-158296245D02*
X100611904Y-158439102D01*
X100611904Y-158439102D02*
X100040476Y-159010531D01*
X100040476Y-159010531D02*
X100659523Y-159010531D01*
X101135714Y-159010531D02*
X101326190Y-159010531D01*
X101326190Y-159010531D02*
X101421428Y-158962912D01*
X101421428Y-158962912D02*
X101469047Y-158915292D01*
X101469047Y-158915292D02*
X101564285Y-158772435D01*
X101564285Y-158772435D02*
X101611904Y-158581959D01*
X101611904Y-158581959D02*
X101611904Y-158201007D01*
X101611904Y-158201007D02*
X101564285Y-158105769D01*
X101564285Y-158105769D02*
X101516666Y-158058150D01*
X101516666Y-158058150D02*
X101421428Y-158010531D01*
X101421428Y-158010531D02*
X101230952Y-158010531D01*
X101230952Y-158010531D02*
X101135714Y-158058150D01*
X101135714Y-158058150D02*
X101088095Y-158105769D01*
X101088095Y-158105769D02*
X101040476Y-158201007D01*
X101040476Y-158201007D02*
X101040476Y-158439102D01*
X101040476Y-158439102D02*
X101088095Y-158534340D01*
X101088095Y-158534340D02*
X101135714Y-158581959D01*
X101135714Y-158581959D02*
X101230952Y-158629578D01*
X101230952Y-158629578D02*
X101421428Y-158629578D01*
X101421428Y-158629578D02*
X101516666Y-158581959D01*
X101516666Y-158581959D02*
X101564285Y-158534340D01*
X101564285Y-158534340D02*
X101611904Y-158439102D01*
X56878095Y-53824688D02*
X56878095Y-52824688D01*
X56878095Y-53300878D02*
X57449523Y-53300878D01*
X57449523Y-53824688D02*
X57449523Y-52824688D01*
X58449523Y-53824688D02*
X57878095Y-53824688D01*
X58163809Y-53824688D02*
X58163809Y-52824688D01*
X58163809Y-52824688D02*
X58068571Y-52967545D01*
X58068571Y-52967545D02*
X57973333Y-53062783D01*
X57973333Y-53062783D02*
X57878095Y-53110402D01*
X99867142Y-145680531D02*
X99533809Y-145204340D01*
X99295714Y-145680531D02*
X99295714Y-144680531D01*
X99295714Y-144680531D02*
X99676666Y-144680531D01*
X99676666Y-144680531D02*
X99771904Y-144728150D01*
X99771904Y-144728150D02*
X99819523Y-144775769D01*
X99819523Y-144775769D02*
X99867142Y-144871007D01*
X99867142Y-144871007D02*
X99867142Y-145013864D01*
X99867142Y-145013864D02*
X99819523Y-145109102D01*
X99819523Y-145109102D02*
X99771904Y-145156721D01*
X99771904Y-145156721D02*
X99676666Y-145204340D01*
X99676666Y-145204340D02*
X99295714Y-145204340D01*
X100819523Y-145680531D02*
X100248095Y-145680531D01*
X100533809Y-145680531D02*
X100533809Y-144680531D01*
X100533809Y-144680531D02*
X100438571Y-144823388D01*
X100438571Y-144823388D02*
X100343333Y-144918626D01*
X100343333Y-144918626D02*
X100248095Y-144966245D01*
X101152857Y-144680531D02*
X101771904Y-144680531D01*
X101771904Y-144680531D02*
X101438571Y-145061483D01*
X101438571Y-145061483D02*
X101581428Y-145061483D01*
X101581428Y-145061483D02*
X101676666Y-145109102D01*
X101676666Y-145109102D02*
X101724285Y-145156721D01*
X101724285Y-145156721D02*
X101771904Y-145251959D01*
X101771904Y-145251959D02*
X101771904Y-145490054D01*
X101771904Y-145490054D02*
X101724285Y-145585292D01*
X101724285Y-145585292D02*
X101676666Y-145632912D01*
X101676666Y-145632912D02*
X101581428Y-145680531D01*
X101581428Y-145680531D02*
X101295714Y-145680531D01*
X101295714Y-145680531D02*
X101200476Y-145632912D01*
X101200476Y-145632912D02*
X101152857Y-145585292D01*
X96557142Y-92844688D02*
X96223809Y-92368497D01*
X95985714Y-92844688D02*
X95985714Y-91844688D01*
X95985714Y-91844688D02*
X96366666Y-91844688D01*
X96366666Y-91844688D02*
X96461904Y-91892307D01*
X96461904Y-91892307D02*
X96509523Y-91939926D01*
X96509523Y-91939926D02*
X96557142Y-92035164D01*
X96557142Y-92035164D02*
X96557142Y-92178021D01*
X96557142Y-92178021D02*
X96509523Y-92273259D01*
X96509523Y-92273259D02*
X96461904Y-92320878D01*
X96461904Y-92320878D02*
X96366666Y-92368497D01*
X96366666Y-92368497D02*
X95985714Y-92368497D01*
X96938095Y-91939926D02*
X96985714Y-91892307D01*
X96985714Y-91892307D02*
X97080952Y-91844688D01*
X97080952Y-91844688D02*
X97319047Y-91844688D01*
X97319047Y-91844688D02*
X97414285Y-91892307D01*
X97414285Y-91892307D02*
X97461904Y-91939926D01*
X97461904Y-91939926D02*
X97509523Y-92035164D01*
X97509523Y-92035164D02*
X97509523Y-92130402D01*
X97509523Y-92130402D02*
X97461904Y-92273259D01*
X97461904Y-92273259D02*
X96890476Y-92844688D01*
X96890476Y-92844688D02*
X97509523Y-92844688D01*
X97842857Y-91844688D02*
X98461904Y-91844688D01*
X98461904Y-91844688D02*
X98128571Y-92225640D01*
X98128571Y-92225640D02*
X98271428Y-92225640D01*
X98271428Y-92225640D02*
X98366666Y-92273259D01*
X98366666Y-92273259D02*
X98414285Y-92320878D01*
X98414285Y-92320878D02*
X98461904Y-92416116D01*
X98461904Y-92416116D02*
X98461904Y-92654211D01*
X98461904Y-92654211D02*
X98414285Y-92749449D01*
X98414285Y-92749449D02*
X98366666Y-92797069D01*
X98366666Y-92797069D02*
X98271428Y-92844688D01*
X98271428Y-92844688D02*
X97985714Y-92844688D01*
X97985714Y-92844688D02*
X97890476Y-92797069D01*
X97890476Y-92797069D02*
X97842857Y-92749449D01*
X96114707Y-103926978D02*
X95781374Y-103450787D01*
X95543279Y-103926978D02*
X95543279Y-102926978D01*
X95543279Y-102926978D02*
X95924231Y-102926978D01*
X95924231Y-102926978D02*
X96019469Y-102974597D01*
X96019469Y-102974597D02*
X96067088Y-103022216D01*
X96067088Y-103022216D02*
X96114707Y-103117454D01*
X96114707Y-103117454D02*
X96114707Y-103260311D01*
X96114707Y-103260311D02*
X96067088Y-103355549D01*
X96067088Y-103355549D02*
X96019469Y-103403168D01*
X96019469Y-103403168D02*
X95924231Y-103450787D01*
X95924231Y-103450787D02*
X95543279Y-103450787D01*
X96448041Y-102926978D02*
X97067088Y-102926978D01*
X97067088Y-102926978D02*
X96733755Y-103307930D01*
X96733755Y-103307930D02*
X96876612Y-103307930D01*
X96876612Y-103307930D02*
X96971850Y-103355549D01*
X96971850Y-103355549D02*
X97019469Y-103403168D01*
X97019469Y-103403168D02*
X97067088Y-103498406D01*
X97067088Y-103498406D02*
X97067088Y-103736501D01*
X97067088Y-103736501D02*
X97019469Y-103831739D01*
X97019469Y-103831739D02*
X96971850Y-103879359D01*
X96971850Y-103879359D02*
X96876612Y-103926978D01*
X96876612Y-103926978D02*
X96590898Y-103926978D01*
X96590898Y-103926978D02*
X96495660Y-103879359D01*
X96495660Y-103879359D02*
X96448041Y-103831739D01*
X120908095Y-116774688D02*
X120908095Y-115774688D01*
X120908095Y-116250878D02*
X121479523Y-116250878D01*
X121479523Y-116774688D02*
X121479523Y-115774688D01*
X122431904Y-115774688D02*
X121955714Y-115774688D01*
X121955714Y-115774688D02*
X121908095Y-116250878D01*
X121908095Y-116250878D02*
X121955714Y-116203259D01*
X121955714Y-116203259D02*
X122050952Y-116155640D01*
X122050952Y-116155640D02*
X122289047Y-116155640D01*
X122289047Y-116155640D02*
X122384285Y-116203259D01*
X122384285Y-116203259D02*
X122431904Y-116250878D01*
X122431904Y-116250878D02*
X122479523Y-116346116D01*
X122479523Y-116346116D02*
X122479523Y-116584211D01*
X122479523Y-116584211D02*
X122431904Y-116679449D01*
X122431904Y-116679449D02*
X122384285Y-116727069D01*
X122384285Y-116727069D02*
X122289047Y-116774688D01*
X122289047Y-116774688D02*
X122050952Y-116774688D01*
X122050952Y-116774688D02*
X121955714Y-116727069D01*
X121955714Y-116727069D02*
X121908095Y-116679449D01*
X69546666Y-90430531D02*
X69546666Y-91144816D01*
X69546666Y-91144816D02*
X69499047Y-91287673D01*
X69499047Y-91287673D02*
X69403809Y-91382912D01*
X69403809Y-91382912D02*
X69260952Y-91430531D01*
X69260952Y-91430531D02*
X69165714Y-91430531D01*
X70451428Y-90763864D02*
X70451428Y-91430531D01*
X70213333Y-90382912D02*
X69975238Y-91097197D01*
X69975238Y-91097197D02*
X70594285Y-91097197D01*
X104851905Y-107454819D02*
X104851905Y-106454819D01*
X104851905Y-106454819D02*
X105090000Y-106454819D01*
X105090000Y-106454819D02*
X105232857Y-106502438D01*
X105232857Y-106502438D02*
X105328095Y-106597676D01*
X105328095Y-106597676D02*
X105375714Y-106692914D01*
X105375714Y-106692914D02*
X105423333Y-106883390D01*
X105423333Y-106883390D02*
X105423333Y-107026247D01*
X105423333Y-107026247D02*
X105375714Y-107216723D01*
X105375714Y-107216723D02*
X105328095Y-107311961D01*
X105328095Y-107311961D02*
X105232857Y-107407200D01*
X105232857Y-107407200D02*
X105090000Y-107454819D01*
X105090000Y-107454819D02*
X104851905Y-107454819D01*
X106375714Y-107454819D02*
X105804286Y-107454819D01*
X106090000Y-107454819D02*
X106090000Y-106454819D01*
X106090000Y-106454819D02*
X105994762Y-106597676D01*
X105994762Y-106597676D02*
X105899524Y-106692914D01*
X105899524Y-106692914D02*
X105804286Y-106740533D01*
X102098095Y-107264819D02*
X102098095Y-106264819D01*
X102669523Y-107264819D02*
X102240952Y-106693390D01*
X102669523Y-106264819D02*
X102098095Y-106836247D01*
X81275595Y-90750531D02*
X81275595Y-91560054D01*
X81275595Y-91560054D02*
X81323214Y-91655292D01*
X81323214Y-91655292D02*
X81370833Y-91702912D01*
X81370833Y-91702912D02*
X81466071Y-91750531D01*
X81466071Y-91750531D02*
X81656547Y-91750531D01*
X81656547Y-91750531D02*
X81751785Y-91702912D01*
X81751785Y-91702912D02*
X81799404Y-91655292D01*
X81799404Y-91655292D02*
X81847023Y-91560054D01*
X81847023Y-91560054D02*
X81847023Y-90750531D01*
X82847023Y-91750531D02*
X82275595Y-91750531D01*
X82561309Y-91750531D02*
X82561309Y-90750531D01*
X82561309Y-90750531D02*
X82466071Y-90893388D01*
X82466071Y-90893388D02*
X82370833Y-90988626D01*
X82370833Y-90988626D02*
X82275595Y-91036245D01*
X69166666Y-113324688D02*
X69166666Y-114038973D01*
X69166666Y-114038973D02*
X69119047Y-114181830D01*
X69119047Y-114181830D02*
X69023809Y-114277069D01*
X69023809Y-114277069D02*
X68880952Y-114324688D01*
X68880952Y-114324688D02*
X68785714Y-114324688D01*
X70119047Y-113324688D02*
X69642857Y-113324688D01*
X69642857Y-113324688D02*
X69595238Y-113800878D01*
X69595238Y-113800878D02*
X69642857Y-113753259D01*
X69642857Y-113753259D02*
X69738095Y-113705640D01*
X69738095Y-113705640D02*
X69976190Y-113705640D01*
X69976190Y-113705640D02*
X70071428Y-113753259D01*
X70071428Y-113753259D02*
X70119047Y-113800878D01*
X70119047Y-113800878D02*
X70166666Y-113896116D01*
X70166666Y-113896116D02*
X70166666Y-114134211D01*
X70166666Y-114134211D02*
X70119047Y-114229449D01*
X70119047Y-114229449D02*
X70071428Y-114277069D01*
X70071428Y-114277069D02*
X69976190Y-114324688D01*
X69976190Y-114324688D02*
X69738095Y-114324688D01*
X69738095Y-114324688D02*
X69642857Y-114277069D01*
X69642857Y-114277069D02*
X69595238Y-114229449D01*
X96423333Y-106874688D02*
X96090000Y-106398497D01*
X95851905Y-106874688D02*
X95851905Y-105874688D01*
X95851905Y-105874688D02*
X96232857Y-105874688D01*
X96232857Y-105874688D02*
X96328095Y-105922307D01*
X96328095Y-105922307D02*
X96375714Y-105969926D01*
X96375714Y-105969926D02*
X96423333Y-106065164D01*
X96423333Y-106065164D02*
X96423333Y-106208021D01*
X96423333Y-106208021D02*
X96375714Y-106303259D01*
X96375714Y-106303259D02*
X96328095Y-106350878D01*
X96328095Y-106350878D02*
X96232857Y-106398497D01*
X96232857Y-106398497D02*
X95851905Y-106398497D01*
X96804286Y-105969926D02*
X96851905Y-105922307D01*
X96851905Y-105922307D02*
X96947143Y-105874688D01*
X96947143Y-105874688D02*
X97185238Y-105874688D01*
X97185238Y-105874688D02*
X97280476Y-105922307D01*
X97280476Y-105922307D02*
X97328095Y-105969926D01*
X97328095Y-105969926D02*
X97375714Y-106065164D01*
X97375714Y-106065164D02*
X97375714Y-106160402D01*
X97375714Y-106160402D02*
X97328095Y-106303259D01*
X97328095Y-106303259D02*
X96756667Y-106874688D01*
X96756667Y-106874688D02*
X97375714Y-106874688D01*
X99797142Y-136990531D02*
X99463809Y-136514340D01*
X99225714Y-136990531D02*
X99225714Y-135990531D01*
X99225714Y-135990531D02*
X99606666Y-135990531D01*
X99606666Y-135990531D02*
X99701904Y-136038150D01*
X99701904Y-136038150D02*
X99749523Y-136085769D01*
X99749523Y-136085769D02*
X99797142Y-136181007D01*
X99797142Y-136181007D02*
X99797142Y-136323864D01*
X99797142Y-136323864D02*
X99749523Y-136419102D01*
X99749523Y-136419102D02*
X99701904Y-136466721D01*
X99701904Y-136466721D02*
X99606666Y-136514340D01*
X99606666Y-136514340D02*
X99225714Y-136514340D01*
X100178095Y-136085769D02*
X100225714Y-136038150D01*
X100225714Y-136038150D02*
X100320952Y-135990531D01*
X100320952Y-135990531D02*
X100559047Y-135990531D01*
X100559047Y-135990531D02*
X100654285Y-136038150D01*
X100654285Y-136038150D02*
X100701904Y-136085769D01*
X100701904Y-136085769D02*
X100749523Y-136181007D01*
X100749523Y-136181007D02*
X100749523Y-136276245D01*
X100749523Y-136276245D02*
X100701904Y-136419102D01*
X100701904Y-136419102D02*
X100130476Y-136990531D01*
X100130476Y-136990531D02*
X100749523Y-136990531D01*
X101654285Y-135990531D02*
X101178095Y-135990531D01*
X101178095Y-135990531D02*
X101130476Y-136466721D01*
X101130476Y-136466721D02*
X101178095Y-136419102D01*
X101178095Y-136419102D02*
X101273333Y-136371483D01*
X101273333Y-136371483D02*
X101511428Y-136371483D01*
X101511428Y-136371483D02*
X101606666Y-136419102D01*
X101606666Y-136419102D02*
X101654285Y-136466721D01*
X101654285Y-136466721D02*
X101701904Y-136561959D01*
X101701904Y-136561959D02*
X101701904Y-136800054D01*
X101701904Y-136800054D02*
X101654285Y-136895292D01*
X101654285Y-136895292D02*
X101606666Y-136942912D01*
X101606666Y-136942912D02*
X101511428Y-136990531D01*
X101511428Y-136990531D02*
X101273333Y-136990531D01*
X101273333Y-136990531D02*
X101178095Y-136942912D01*
X101178095Y-136942912D02*
X101130476Y-136895292D01*
%TO.C,J6*%
D13*
X103470000Y-53555712D02*
X113510000Y-53555712D01*
X103470000Y-74115712D02*
X103470000Y-53555712D01*
X106490000Y-74115712D02*
X106490000Y-53555712D01*
X111390000Y-74115712D02*
X111390000Y-53555712D01*
X112890000Y-74115712D02*
X112890000Y-53555712D01*
X113510000Y-53555712D02*
X113510000Y-71155712D01*
X113510000Y-71755712D02*
X113510000Y-74115712D01*
X113510000Y-74115712D02*
X103470000Y-74115712D01*
X113510000Y-71455712D02*
X114120000Y-71015712D01*
X114120000Y-71895712D01*
X113510000Y-71455712D01*
G36*
X114120000Y-71895712D02*
G01*
X113510000Y-71455712D01*
X114120000Y-71015712D01*
X114120000Y-71895712D01*
G37*
%TO.C,R15*%
X79480000Y-166885712D02*
X86020000Y-166885712D01*
X79480000Y-167215712D02*
X79480000Y-166885712D01*
X79480000Y-169295712D02*
X79480000Y-169625712D01*
X79480000Y-169625712D02*
X86020000Y-169625712D01*
X86020000Y-166885712D02*
X86020000Y-167215712D01*
X86020000Y-169625712D02*
X86020000Y-169295712D01*
%TO.C,C2*%
X88670000Y-126989869D02*
X93910000Y-126989869D01*
X88670000Y-127326869D02*
X88670000Y-126989869D01*
X88670000Y-129729869D02*
X88670000Y-129392869D01*
X93910000Y-126989869D02*
X93910000Y-127326869D01*
X93910000Y-129392869D02*
X93910000Y-129729869D01*
X93910000Y-129729869D02*
X88670000Y-129729869D01*
%TO.C,J1*%
X103540000Y-79945712D02*
X113580000Y-79945712D01*
X103540000Y-90345712D02*
X103540000Y-79945712D01*
X106560000Y-90345712D02*
X106560000Y-79945712D01*
X111460000Y-90345712D02*
X111460000Y-79945712D01*
X112960000Y-90345712D02*
X112960000Y-79945712D01*
X113580000Y-79945712D02*
X113580000Y-87385712D01*
X113580000Y-87985712D02*
X113580000Y-90345712D01*
X113580000Y-90345712D02*
X103540000Y-90345712D01*
X113580000Y-87685712D02*
X114190000Y-87245712D01*
X114190000Y-88125712D01*
X113580000Y-87685712D01*
G36*
X114190000Y-88125712D02*
G01*
X113580000Y-87685712D01*
X114190000Y-87245712D01*
X114190000Y-88125712D01*
G37*
%TO.C,R12*%
X90280000Y-148645712D02*
X96820000Y-148645712D01*
X90280000Y-148975712D02*
X90280000Y-148645712D01*
X90280000Y-151055712D02*
X90280000Y-151385712D01*
X90280000Y-151385712D02*
X96820000Y-151385712D01*
X96820000Y-148645712D02*
X96820000Y-148975712D01*
X96820000Y-151385712D02*
X96820000Y-151055712D01*
%TO.C,C1*%
X88587500Y-92165712D02*
X93827500Y-92165712D01*
X88587500Y-92502712D02*
X88587500Y-92165712D01*
X88587500Y-94905712D02*
X88587500Y-94568712D01*
X93827500Y-92165712D02*
X93827500Y-92502712D01*
X93827500Y-94568712D02*
X93827500Y-94905712D01*
X93827500Y-94905712D02*
X88587500Y-94905712D01*
%TO.C,R18*%
X79690000Y-181585712D02*
X86230000Y-181585712D01*
X79690000Y-181915712D02*
X79690000Y-181585712D01*
X79690000Y-183995712D02*
X79690000Y-184325712D01*
X79690000Y-184325712D02*
X86230000Y-184325712D01*
X86230000Y-181585712D02*
X86230000Y-181915712D01*
X86230000Y-184325712D02*
X86230000Y-183995712D01*
%TO.C,R7*%
X82070000Y-74935712D02*
X82070000Y-75265712D01*
X82070000Y-77675712D02*
X82070000Y-77345712D01*
X88610000Y-74935712D02*
X82070000Y-74935712D01*
X88610000Y-75265712D02*
X88610000Y-74935712D01*
X88610000Y-77345712D02*
X88610000Y-77675712D01*
X88610000Y-77675712D02*
X82070000Y-77675712D01*
%TO.C,R30*%
X79470000Y-156985712D02*
X86010000Y-156985712D01*
X79470000Y-157315712D02*
X79470000Y-156985712D01*
X79470000Y-159395712D02*
X79470000Y-159725712D01*
X79470000Y-159725712D02*
X86010000Y-159725712D01*
X86010000Y-156985712D02*
X86010000Y-157315712D01*
X86010000Y-159725712D02*
X86010000Y-159395712D01*
%TO.C,R22*%
X90280000Y-181685712D02*
X96820000Y-181685712D01*
X90280000Y-182015712D02*
X90280000Y-181685712D01*
X90280000Y-184095712D02*
X90280000Y-184425712D01*
X90280000Y-184425712D02*
X96820000Y-184425712D01*
X96820000Y-181685712D02*
X96820000Y-182015712D01*
X96820000Y-184425712D02*
X96820000Y-184095712D01*
%TO.C,J2*%
X103800000Y-110095712D02*
X113840000Y-110095712D01*
X103800000Y-186535712D02*
X103800000Y-110095712D01*
X106820000Y-186535712D02*
X106820000Y-110095712D01*
X111720000Y-186535712D02*
X111720000Y-110095712D01*
X113220000Y-186535712D02*
X113220000Y-110095712D01*
X113840000Y-110095712D02*
X113840000Y-183575712D01*
X113840000Y-184175712D02*
X113840000Y-186535712D01*
X113840000Y-186535712D02*
X103800000Y-186535712D01*
X113840000Y-183875712D02*
X114450000Y-183435712D01*
X114450000Y-184315712D01*
X113840000Y-183875712D01*
G36*
X114450000Y-184315712D02*
G01*
X113840000Y-183875712D01*
X114450000Y-183435712D01*
X114450000Y-184315712D01*
G37*
%TO.C,R24*%
X99601374Y-75572159D02*
X106141374Y-75572159D01*
X99601374Y-75902159D02*
X99601374Y-75572159D01*
X99601374Y-77982159D02*
X99601374Y-78312159D01*
X99601374Y-78312159D02*
X106141374Y-78312159D01*
X106141374Y-75572159D02*
X106141374Y-75902159D01*
X106141374Y-78312159D02*
X106141374Y-77982159D01*
%TO.C,R27*%
X90280000Y-161785712D02*
X96820000Y-161785712D01*
X90280000Y-162115712D02*
X90280000Y-161785712D01*
X90280000Y-164195712D02*
X90280000Y-164525712D01*
X90280000Y-164525712D02*
X96820000Y-164525712D01*
X96820000Y-161785712D02*
X96820000Y-162115712D01*
X96820000Y-164525712D02*
X96820000Y-164195712D01*
%TO.C,D3*%
X113011374Y-75892159D02*
X113011374Y-75736159D01*
X113011374Y-78208159D02*
X113011374Y-78052159D01*
X109779937Y-75892159D02*
G75*
G02*
X113011374Y-75736643I1671437J-1080000D01*
G01*
X110410413Y-75892159D02*
G75*
G02*
X112492335Y-75892159I1040961J-1080000D01*
G01*
X112492335Y-78052159D02*
G75*
G02*
X110410413Y-78052159I-1040961J1080000D01*
G01*
X113011374Y-78207675D02*
G75*
G02*
X109779937Y-78052159I-1560000J1235516D01*
G01*
%TO.C,U3*%
X79340000Y-127035712D02*
X79340000Y-150015712D01*
X79340000Y-150015712D02*
X80990000Y-150015712D01*
X82990000Y-150015712D02*
X84640000Y-150015712D01*
X84640000Y-127035712D02*
X79340000Y-127035712D01*
X84640000Y-150015712D02*
X84640000Y-127035712D01*
X76850000Y-126975712D02*
X87130000Y-126975712D01*
X87130000Y-150075712D01*
X76850000Y-150075712D01*
X76850000Y-126975712D01*
X80990000Y-150015712D02*
G75*
G02*
X82990000Y-150015712I1000000J0D01*
G01*
%TO.C,D2*%
X113111374Y-92292159D02*
X113111374Y-92136159D01*
X113111374Y-94608159D02*
X113111374Y-94452159D01*
X109879937Y-92292159D02*
G75*
G02*
X113111374Y-92136643I1671437J-1080000D01*
G01*
X110510413Y-92292159D02*
G75*
G02*
X112592335Y-92292159I1040961J-1080000D01*
G01*
X112592335Y-94452159D02*
G75*
G02*
X110510413Y-94452159I-1040961J1080000D01*
G01*
X113111374Y-94607675D02*
G75*
G02*
X109879937Y-94452159I-1560000J1235516D01*
G01*
%TO.C,R5*%
X76510000Y-54800000D02*
X76840000Y-54800000D01*
X76510000Y-61340000D02*
X76510000Y-54800000D01*
X76840000Y-61340000D02*
X76510000Y-61340000D01*
X78920000Y-61340000D02*
X79250000Y-61340000D01*
X79250000Y-54800000D02*
X78920000Y-54800000D01*
X79250000Y-61340000D02*
X79250000Y-54800000D01*
%TO.C,R6*%
X76510000Y-65205712D02*
X76510000Y-71745712D01*
X76510000Y-71745712D02*
X76840000Y-71745712D01*
X76840000Y-65205712D02*
X76510000Y-65205712D01*
X78920000Y-65205712D02*
X79250000Y-65205712D01*
X79250000Y-65205712D02*
X79250000Y-71745712D01*
X79250000Y-71745712D02*
X78920000Y-71745712D01*
%TO.C,R14*%
X90280000Y-139375712D02*
X96820000Y-139375712D01*
X90280000Y-139705712D02*
X90280000Y-139375712D01*
X90280000Y-141785712D02*
X90280000Y-142115712D01*
X90280000Y-142115712D02*
X96820000Y-142115712D01*
X96820000Y-139375712D02*
X96820000Y-139705712D01*
X96820000Y-142115712D02*
X96820000Y-141785712D01*
%TO.C,R10*%
X93610000Y-67805712D02*
X100150000Y-67805712D01*
X93610000Y-68135712D02*
X93610000Y-67805712D01*
X93610000Y-70215712D02*
X93610000Y-70545712D01*
X93610000Y-70545712D02*
X100150000Y-70545712D01*
X100150000Y-67805712D02*
X100150000Y-68135712D01*
X100150000Y-70545712D02*
X100150000Y-70215712D01*
%TO.C,R1*%
X90237500Y-96165712D02*
X90237500Y-96495712D01*
X90237500Y-98905712D02*
X90237500Y-98575712D01*
X96777500Y-96165712D02*
X90237500Y-96165712D01*
X96777500Y-96495712D02*
X96777500Y-96165712D01*
X96777500Y-98575712D02*
X96777500Y-98905712D01*
X96777500Y-98905712D02*
X90237500Y-98905712D01*
%TO.C,J3*%
X64760000Y-53675712D02*
X74800000Y-53675712D01*
X64760000Y-56035712D02*
X64760000Y-53675712D01*
X64760000Y-89475712D02*
X64760000Y-56635712D01*
X65380000Y-53675712D02*
X65380000Y-89475712D01*
X66880000Y-53675712D02*
X66880000Y-89475712D01*
X71780000Y-53675712D02*
X71780000Y-89475712D01*
X74800000Y-53675712D02*
X74800000Y-89475712D01*
X74800000Y-89475712D02*
X64760000Y-89475712D01*
X64760000Y-56335712D02*
X64150000Y-56775712D01*
X64150000Y-55895712D01*
X64760000Y-56335712D01*
G36*
X64760000Y-56335712D02*
G01*
X64150000Y-56775712D01*
X64150000Y-55895712D01*
X64760000Y-56335712D01*
G37*
%TO.C,R26*%
X90300000Y-131015712D02*
X96840000Y-131015712D01*
X90300000Y-131345712D02*
X90300000Y-131015712D01*
X90300000Y-133425712D02*
X90300000Y-133755712D01*
X90300000Y-133755712D02*
X96840000Y-133755712D01*
X96840000Y-131015712D02*
X96840000Y-131345712D01*
X96840000Y-133755712D02*
X96840000Y-133425712D01*
%TO.C,R8*%
X93670000Y-59525712D02*
X100210000Y-59525712D01*
X93670000Y-59855712D02*
X93670000Y-59525712D01*
X93670000Y-61935712D02*
X93670000Y-62265712D01*
X93670000Y-62265712D02*
X100210000Y-62265712D01*
X100210000Y-59525712D02*
X100210000Y-59855712D01*
X100210000Y-62265712D02*
X100210000Y-61935712D01*
%TO.C,R21*%
X90280000Y-176685712D02*
X96820000Y-176685712D01*
X90280000Y-177015712D02*
X90280000Y-176685712D01*
X90280000Y-179095712D02*
X90280000Y-179425712D01*
X90280000Y-179425712D02*
X96820000Y-179425712D01*
X96820000Y-176685712D02*
X96820000Y-177015712D01*
X96820000Y-179425712D02*
X96820000Y-179095712D01*
%TO.C,R9*%
X93670000Y-62945712D02*
X100210000Y-62945712D01*
X93670000Y-63275712D02*
X93670000Y-62945712D01*
X93670000Y-65355712D02*
X93670000Y-65685712D01*
X93670000Y-65685712D02*
X100210000Y-65685712D01*
X100210000Y-62945712D02*
X100210000Y-63275712D01*
X100210000Y-65685712D02*
X100210000Y-65355712D01*
%TO.C,F1*%
D14*
X105040000Y-97489869D02*
X105040000Y-100589869D01*
X105040000Y-100589869D02*
X110440000Y-100589869D01*
X105440000Y-97489869D02*
X105040000Y-97489869D01*
D10*
X106440000Y-96644869D02*
X106440000Y-96644869D01*
X106440000Y-96744869D02*
X106440000Y-96744869D01*
D14*
X112440000Y-100589869D02*
X112940000Y-100589869D01*
X112940000Y-97489869D02*
X107440000Y-97489869D01*
X112940000Y-100589869D02*
X112940000Y-97489869D01*
D10*
X106440000Y-96644869D02*
G75*
G02*
X106440000Y-96744869I0J-50000D01*
G01*
X106440000Y-96744869D02*
G75*
G02*
X106440000Y-96644869I0J50000D01*
G01*
%TO.C,R19*%
D13*
X90280000Y-166885712D02*
X96820000Y-166885712D01*
X90280000Y-167215712D02*
X90280000Y-166885712D01*
X90280000Y-169295712D02*
X90280000Y-169625712D01*
X90280000Y-169625712D02*
X96820000Y-169625712D01*
X96820000Y-166885712D02*
X96820000Y-167215712D01*
X96820000Y-169625712D02*
X96820000Y-169295712D01*
%TO.C,R20*%
X90280000Y-171585712D02*
X96820000Y-171585712D01*
X90280000Y-171915712D02*
X90280000Y-171585712D01*
X90280000Y-173995712D02*
X90280000Y-174325712D01*
X90280000Y-174325712D02*
X96820000Y-174325712D01*
X96820000Y-171585712D02*
X96820000Y-171915712D01*
X96820000Y-174325712D02*
X96820000Y-173995712D01*
%TO.C,C5*%
X94401374Y-85072159D02*
X95941374Y-85072159D01*
X94401374Y-85112159D02*
X95941374Y-85112159D01*
X94402374Y-85032159D02*
X95941374Y-85032159D01*
X94404374Y-84992159D02*
X95941374Y-84992159D01*
X94406374Y-84952159D02*
X95941374Y-84952159D01*
X94409374Y-84912159D02*
X95941374Y-84912159D01*
X94412374Y-84872159D02*
X95941374Y-84872159D01*
X94416374Y-84832159D02*
X95941374Y-84832159D01*
X94421374Y-84792159D02*
X95941374Y-84792159D01*
X94426374Y-84752159D02*
X95941374Y-84752159D01*
X94432374Y-84712159D02*
X95941374Y-84712159D01*
X94438374Y-84672159D02*
X95941374Y-84672159D01*
X94445374Y-84632159D02*
X95941374Y-84632159D01*
X94453374Y-84592159D02*
X95941374Y-84592159D01*
X94462374Y-84552159D02*
X95941374Y-84552159D01*
X94471374Y-84512159D02*
X95941374Y-84512159D01*
X94480374Y-84472159D02*
X95941374Y-84472159D01*
X94491374Y-84432159D02*
X95941374Y-84432159D01*
X94502374Y-84392159D02*
X95941374Y-84392159D01*
X94514374Y-84352159D02*
X95941374Y-84352159D01*
X94526374Y-84312159D02*
X95941374Y-84312159D01*
X94539374Y-84272159D02*
X95941374Y-84272159D01*
X94553374Y-84232159D02*
X95941374Y-84232159D01*
X94568374Y-84192159D02*
X95941374Y-84192159D01*
X94583374Y-84152159D02*
X95941374Y-84152159D01*
X94599374Y-84112159D02*
X95941374Y-84112159D01*
X94616374Y-84072159D02*
X95941374Y-84072159D01*
X94634374Y-84032159D02*
X95941374Y-84032159D01*
X94652374Y-83992159D02*
X95941374Y-83992159D01*
X94672374Y-83952159D02*
X95941374Y-83952159D01*
X94692374Y-83912159D02*
X95941374Y-83912159D01*
X94713374Y-83872159D02*
X95941374Y-83872159D01*
X94735374Y-83832159D02*
X95941374Y-83832159D01*
X94758374Y-83792159D02*
X95941374Y-83792159D01*
X94782374Y-83752159D02*
X95941374Y-83752159D01*
X94806374Y-83712159D02*
X95941374Y-83712159D01*
X94832374Y-83672159D02*
X95941374Y-83672159D01*
X94859374Y-83632159D02*
X95941374Y-83632159D01*
X94887374Y-83592159D02*
X95941374Y-83592159D01*
X94916374Y-83552159D02*
X95941374Y-83552159D01*
X94946374Y-83512159D02*
X95941374Y-83512159D01*
X94978374Y-83472159D02*
X95941374Y-83472159D01*
X95011374Y-83432159D02*
X95941374Y-83432159D01*
X95045374Y-83392159D02*
X95941374Y-83392159D01*
X95080374Y-83352159D02*
X95941374Y-83352159D01*
X95117374Y-83312159D02*
X95941374Y-83312159D01*
X95156374Y-83272159D02*
X95941374Y-83272159D01*
X95196374Y-83232159D02*
X95941374Y-83232159D01*
X95238374Y-83192159D02*
X95941374Y-83192159D01*
X95256374Y-87666934D02*
X95756374Y-87666934D01*
X95282374Y-83152159D02*
X95941374Y-83152159D01*
X95329374Y-83112159D02*
X95941374Y-83112159D01*
X95377374Y-83072159D02*
X98585374Y-83072159D01*
X95428374Y-83032159D02*
X98534374Y-83032159D01*
X95482374Y-82992159D02*
X98480374Y-82992159D01*
X95506374Y-87916934D02*
X95506374Y-87416934D01*
X95538374Y-82952159D02*
X98424374Y-82952159D01*
X95598374Y-82912159D02*
X98364374Y-82912159D01*
X95662374Y-82872159D02*
X98300374Y-82872159D01*
X95730374Y-82832159D02*
X98232374Y-82832159D01*
X95804374Y-82792159D02*
X98158374Y-82792159D01*
X95883374Y-82752159D02*
X98079374Y-82752159D01*
X95970374Y-82712159D02*
X97992374Y-82712159D01*
X96067374Y-82672159D02*
X97895374Y-82672159D01*
X96176374Y-82632159D02*
X97786374Y-82632159D01*
X96304374Y-82592159D02*
X97658374Y-82592159D01*
X96464374Y-82552159D02*
X97498374Y-82552159D01*
X96698374Y-82512159D02*
X97264374Y-82512159D01*
X98021374Y-83112159D02*
X98633374Y-83112159D01*
X98021374Y-83152159D02*
X98680374Y-83152159D01*
X98021374Y-83192159D02*
X98724374Y-83192159D01*
X98021374Y-83232159D02*
X98766374Y-83232159D01*
X98021374Y-83272159D02*
X98806374Y-83272159D01*
X98021374Y-83312159D02*
X98845374Y-83312159D01*
X98021374Y-83352159D02*
X98882374Y-83352159D01*
X98021374Y-83392159D02*
X98917374Y-83392159D01*
X98021374Y-83432159D02*
X98951374Y-83432159D01*
X98021374Y-83472159D02*
X98984374Y-83472159D01*
X98021374Y-83512159D02*
X99016374Y-83512159D01*
X98021374Y-83552159D02*
X99046374Y-83552159D01*
X98021374Y-83592159D02*
X99075374Y-83592159D01*
X98021374Y-83632159D02*
X99103374Y-83632159D01*
X98021374Y-83672159D02*
X99130374Y-83672159D01*
X98021374Y-83712159D02*
X99156374Y-83712159D01*
X98021374Y-83752159D02*
X99180374Y-83752159D01*
X98021374Y-83792159D02*
X99204374Y-83792159D01*
X98021374Y-83832159D02*
X99227374Y-83832159D01*
X98021374Y-83872159D02*
X99249374Y-83872159D01*
X98021374Y-83912159D02*
X99270374Y-83912159D01*
X98021374Y-83952159D02*
X99290374Y-83952159D01*
X98021374Y-83992159D02*
X99310374Y-83992159D01*
X98021374Y-84032159D02*
X99328374Y-84032159D01*
X98021374Y-84072159D02*
X99346374Y-84072159D01*
X98021374Y-84112159D02*
X99363374Y-84112159D01*
X98021374Y-84152159D02*
X99379374Y-84152159D01*
X98021374Y-84192159D02*
X99394374Y-84192159D01*
X98021374Y-84232159D02*
X99409374Y-84232159D01*
X98021374Y-84272159D02*
X99423374Y-84272159D01*
X98021374Y-84312159D02*
X99436374Y-84312159D01*
X98021374Y-84352159D02*
X99448374Y-84352159D01*
X98021374Y-84392159D02*
X99460374Y-84392159D01*
X98021374Y-84432159D02*
X99471374Y-84432159D01*
X98021374Y-84472159D02*
X99482374Y-84472159D01*
X98021374Y-84512159D02*
X99491374Y-84512159D01*
X98021374Y-84552159D02*
X99500374Y-84552159D01*
X98021374Y-84592159D02*
X99509374Y-84592159D01*
X98021374Y-84632159D02*
X99517374Y-84632159D01*
X98021374Y-84672159D02*
X99524374Y-84672159D01*
X98021374Y-84712159D02*
X99530374Y-84712159D01*
X98021374Y-84752159D02*
X99536374Y-84752159D01*
X98021374Y-84792159D02*
X99541374Y-84792159D01*
X98021374Y-84832159D02*
X99546374Y-84832159D01*
X98021374Y-84872159D02*
X99550374Y-84872159D01*
X98021374Y-84912159D02*
X99553374Y-84912159D01*
X98021374Y-84952159D02*
X99556374Y-84952159D01*
X98021374Y-84992159D02*
X99558374Y-84992159D01*
X98021374Y-85032159D02*
X99560374Y-85032159D01*
X98021374Y-85072159D02*
X99561374Y-85072159D01*
X98021374Y-85112159D02*
X99561374Y-85112159D01*
X99601374Y-85112159D02*
G75*
G02*
X94361374Y-85112159I-2620000J0D01*
G01*
X94361374Y-85112159D02*
G75*
G02*
X99601374Y-85112159I2620000J0D01*
G01*
%TO.C,U2*%
X82920000Y-53502026D02*
X82920000Y-73942026D01*
X82920000Y-73942026D02*
X88220000Y-73942026D01*
X84570000Y-53502026D02*
X82920000Y-53502026D01*
X88220000Y-53502026D02*
X86570000Y-53502026D01*
X88220000Y-73942026D02*
X88220000Y-53502026D01*
X80430000Y-53442026D02*
X90710000Y-53442026D01*
X90710000Y-74002026D01*
X80430000Y-74002026D01*
X80430000Y-53442026D01*
X86570000Y-53502026D02*
G75*
G02*
X84570000Y-53502026I-1000000J0D01*
G01*
%TO.C,R16*%
X79680000Y-171685712D02*
X86220000Y-171685712D01*
X79680000Y-172015712D02*
X79680000Y-171685712D01*
X79680000Y-174095712D02*
X79680000Y-174425712D01*
X79680000Y-174425712D02*
X86220000Y-174425712D01*
X86220000Y-171685712D02*
X86220000Y-172015712D01*
X86220000Y-174425712D02*
X86220000Y-174095712D01*
%TO.C,C4*%
X77942500Y-83073212D02*
X78279500Y-83073212D01*
X77942500Y-88313212D02*
X77942500Y-83073212D01*
X78279500Y-88313212D02*
X77942500Y-88313212D01*
X80345500Y-83073212D02*
X80682500Y-83073212D01*
X80682500Y-83073212D02*
X80682500Y-88313212D01*
X80682500Y-88313212D02*
X80345500Y-88313212D01*
%TO.C,R4*%
X88827500Y-104955712D02*
X89157500Y-104955712D01*
X88827500Y-111495712D02*
X88827500Y-104955712D01*
X89157500Y-111495712D02*
X88827500Y-111495712D01*
X91237500Y-111495712D02*
X91567500Y-111495712D01*
X91567500Y-104955712D02*
X91237500Y-104955712D01*
X91567500Y-111495712D02*
X91567500Y-104955712D01*
%TO.C,R28*%
X79470000Y-161785712D02*
X86010000Y-161785712D01*
X79470000Y-162115712D02*
X79470000Y-161785712D01*
X79470000Y-164195712D02*
X79470000Y-164525712D01*
X79470000Y-164525712D02*
X86010000Y-164525712D01*
X86010000Y-161785712D02*
X86010000Y-162115712D01*
X86010000Y-164525712D02*
X86010000Y-164195712D01*
%TO.C,R17*%
X79780000Y-176685712D02*
X86320000Y-176685712D01*
X79780000Y-177015712D02*
X79780000Y-176685712D01*
X79780000Y-179095712D02*
X79780000Y-179425712D01*
X79780000Y-179425712D02*
X86320000Y-179425712D01*
X86320000Y-176685712D02*
X86320000Y-177015712D01*
X86320000Y-179425712D02*
X86320000Y-179095712D01*
%TO.C,R11*%
X90280000Y-152835712D02*
X96820000Y-152835712D01*
X90280000Y-153165712D02*
X90280000Y-152835712D01*
X90280000Y-155245712D02*
X90280000Y-155575712D01*
X90280000Y-155575712D02*
X96820000Y-155575712D01*
X96820000Y-152835712D02*
X96820000Y-153165712D01*
X96820000Y-155575712D02*
X96820000Y-155245712D01*
%TO.C,C3*%
X92260000Y-53305712D02*
X97500000Y-53305712D01*
X92260000Y-53642712D02*
X92260000Y-53305712D01*
X92260000Y-56045712D02*
X92260000Y-55708712D01*
X97500000Y-53305712D02*
X97500000Y-53642712D01*
X97500000Y-55708712D02*
X97500000Y-56045712D01*
X97500000Y-56045712D02*
X92260000Y-56045712D01*
%TO.C,U4*%
X81392500Y-81573212D02*
X93332500Y-81573212D01*
X81392500Y-89423212D02*
X81392500Y-81573212D01*
X93332500Y-81573212D02*
X93332500Y-89423212D01*
X93332500Y-89423212D02*
X81392500Y-89423212D01*
X93662500Y-81243212D02*
X91332500Y-81243212D01*
X93662500Y-83693212D02*
X93662500Y-81243212D01*
%TO.C,R29*%
X90280000Y-156985712D02*
X96820000Y-156985712D01*
X90280000Y-157315712D02*
X90280000Y-156985712D01*
X90280000Y-159395712D02*
X90280000Y-159725712D01*
X90280000Y-159725712D02*
X96820000Y-159725712D01*
X96820000Y-156985712D02*
X96820000Y-157315712D01*
X96820000Y-159725712D02*
X96820000Y-159395712D01*
%TO.C,R13*%
X90280000Y-143865712D02*
X96820000Y-143865712D01*
X90280000Y-144195712D02*
X90280000Y-143865712D01*
X90280000Y-146275712D02*
X90280000Y-146605712D01*
X90280000Y-146605712D02*
X96820000Y-146605712D01*
X96820000Y-143865712D02*
X96820000Y-144195712D01*
X96820000Y-146605712D02*
X96820000Y-146275712D01*
%TO.C,R23*%
X100511374Y-92002159D02*
X107051374Y-92002159D01*
X100511374Y-92332159D02*
X100511374Y-92002159D01*
X100511374Y-94412159D02*
X100511374Y-94742159D01*
X100511374Y-94742159D02*
X107051374Y-94742159D01*
X107051374Y-92002159D02*
X107051374Y-92332159D01*
X107051374Y-94742159D02*
X107051374Y-94412159D01*
%TO.C,R3*%
X90237500Y-99765712D02*
X96777500Y-99765712D01*
X90237500Y-100095712D02*
X90237500Y-99765712D01*
X90237500Y-102175712D02*
X90237500Y-102505712D01*
X90237500Y-102505712D02*
X96777500Y-102505712D01*
X96777500Y-99765712D02*
X96777500Y-100095712D01*
X96777500Y-102505712D02*
X96777500Y-102175712D01*
%TO.C,J4*%
X64787500Y-92195712D02*
X74827500Y-92195712D01*
X64787500Y-94555712D02*
X64787500Y-92195712D01*
X64787500Y-112755712D02*
X64787500Y-95155712D01*
X65407500Y-92195712D02*
X65407500Y-112755712D01*
X66907500Y-92195712D02*
X66907500Y-112755712D01*
X71807500Y-92195712D02*
X71807500Y-112755712D01*
X74827500Y-92195712D02*
X74827500Y-112755712D01*
X74827500Y-112755712D02*
X64787500Y-112755712D01*
X64787500Y-94855712D02*
X64177500Y-95295712D01*
X64177500Y-94415712D01*
X64787500Y-94855712D01*
G36*
X64787500Y-94855712D02*
G01*
X64177500Y-95295712D01*
X64177500Y-94415712D01*
X64787500Y-94855712D01*
G37*
%TO.C,D1*%
X103620000Y-104310000D02*
X104640000Y-104310000D01*
X105420000Y-102840000D02*
X105420000Y-105780000D01*
X105540000Y-102840000D02*
X105540000Y-105780000D01*
X105660000Y-102840000D02*
X105660000Y-105780000D01*
X111100000Y-104310000D02*
X110080000Y-104310000D01*
X104640000Y-102840000D02*
X110080000Y-102840000D01*
X110080000Y-105780000D01*
X104640000Y-105780000D01*
X104640000Y-102840000D01*
%TO.C,U1*%
X79387500Y-92295712D02*
X79387500Y-112735712D01*
X79387500Y-112735712D02*
X84687500Y-112735712D01*
X81037500Y-92295712D02*
X79387500Y-92295712D01*
X84687500Y-92295712D02*
X83037500Y-92295712D01*
X84687500Y-112735712D02*
X84687500Y-92295712D01*
X76897500Y-92235712D02*
X87177500Y-92235712D01*
X87177500Y-112795712D01*
X76897500Y-112795712D01*
X76897500Y-92235712D01*
X83037500Y-92295712D02*
G75*
G02*
X81037500Y-92295712I-1000000J0D01*
G01*
%TO.C,J5*%
X64780000Y-115135712D02*
X74820000Y-115135712D01*
X64780000Y-117495712D02*
X64780000Y-115135712D01*
X64780000Y-186495712D02*
X64780000Y-118095712D01*
X65400000Y-115135712D02*
X65400000Y-186495712D01*
X66900000Y-115135712D02*
X66900000Y-186495712D01*
X71800000Y-115135712D02*
X71800000Y-186495712D01*
X74820000Y-115135712D02*
X74820000Y-186495712D01*
X74820000Y-186495712D02*
X64780000Y-186495712D01*
X64780000Y-117795712D02*
X64170000Y-118235712D01*
X64170000Y-117355712D01*
X64780000Y-117795712D01*
G36*
X64780000Y-117795712D02*
G01*
X64170000Y-118235712D01*
X64170000Y-117355712D01*
X64780000Y-117795712D01*
G37*
%TO.C,R2*%
X92137500Y-104965712D02*
X92137500Y-111505712D01*
X92137500Y-111505712D02*
X92467500Y-111505712D01*
X92467500Y-104965712D02*
X92137500Y-104965712D01*
X94547500Y-104965712D02*
X94877500Y-104965712D01*
X94877500Y-104965712D02*
X94877500Y-111505712D01*
X94877500Y-111505712D02*
X94547500Y-111505712D01*
%TO.C,R25*%
X90300000Y-135115712D02*
X96840000Y-135115712D01*
X90300000Y-135445712D02*
X90300000Y-135115712D01*
X90300000Y-137525712D02*
X90300000Y-137855712D01*
X90300000Y-137855712D02*
X96840000Y-137855712D01*
X96840000Y-135115712D02*
X96840000Y-135445712D01*
X96840000Y-137855712D02*
X96840000Y-137525712D01*
%TD*%
M02*
