M48
; DRILL file KiCad 10.0.6 date 2026-10-08T07:00:12
; FORMAT={-:-/ absolute / metric / decimal}
; #@! TF.CreationDate,2026-10-08T07:00:12+02:00
; #@! TF.GenerationSoftware,Kicad,Pcbnew,10.0.6
; #@! TF.FileFunction,Plated,1,2,PTH
FMAT,2
METRIC
; #@! TA.AperFunction,Plated,PTH,ComponentDrill
T1C0.710
; #@! TA.AperFunction,Plated,PTH,ComponentDrill
T2C0.800
; #@! TA.AperFunction,Plated,PTH,ComponentDrill
T3C0.900
; #@! TA.AperFunction,Plated,PTH,ComponentDrill
T4C1.000
; #@! TA.AperFunction,Plated,PTH,ComponentDrill
T5C1.100
; #@! TA.AperFunction,Plated,PTH,ComponentDrill
T6C1.300
%
G90
G05
T1
X106.44Y-97.745
X111.54Y-100.335
T2
X77.88Y-54.26
X77.88Y-61.88
X77.88Y-64.666
X77.88Y-72.286
X78.18Y-128.366
X78.18Y-130.906
X78.18Y-133.446
X78.18Y-135.986
X78.18Y-138.526
X78.18Y-141.066
X78.18Y-143.606
X78.18Y-146.146
X78.18Y-148.686
X78.227Y-93.626
X78.227Y-96.166
X78.227Y-98.706
X78.227Y-101.246
X78.227Y-103.786
X78.227Y-106.326
X78.227Y-108.866
X78.227Y-111.406
X78.93Y-158.356
X78.93Y-163.156
X78.94Y-168.256
X79.14Y-173.056
X79.15Y-182.956
X79.24Y-178.056
X79.312Y-83.193
X79.312Y-88.193
X81.53Y-76.306
X81.76Y-54.832
X81.76Y-57.372
X81.76Y-59.912
X81.76Y-62.452
X81.76Y-64.992
X81.76Y-67.532
X81.76Y-70.072
X81.76Y-72.612
X85.8Y-128.366
X85.8Y-130.906
X85.8Y-133.446
X85.8Y-135.986
X85.8Y-138.526
X85.8Y-141.066
X85.8Y-143.606
X85.8Y-146.146
X85.8Y-148.686
X85.847Y-93.626
X85.847Y-96.166
X85.847Y-98.706
X85.847Y-101.246
X85.847Y-103.786
X85.847Y-106.326
X85.847Y-108.866
X85.847Y-111.406
X86.55Y-158.356
X86.55Y-163.156
X86.56Y-168.256
X86.76Y-173.056
X86.77Y-182.956
X86.86Y-178.056
X88.707Y-93.536
X88.79Y-128.36
X89.15Y-76.306
X89.38Y-54.832
X89.38Y-57.372
X89.38Y-59.912
X89.38Y-62.452
X89.38Y-64.992
X89.38Y-67.532
X89.38Y-70.072
X89.38Y-72.612
X89.697Y-97.536
X89.697Y-101.136
X89.74Y-140.746
X89.74Y-145.236
X89.74Y-150.016
X89.74Y-154.206
X89.74Y-158.356
X89.74Y-163.156
X89.74Y-168.256
X89.74Y-172.956
X89.74Y-178.056
X89.74Y-183.056
X89.76Y-132.386
X89.76Y-136.486
X90.197Y-104.416
X90.197Y-112.036
X92.38Y-54.676
X93.07Y-69.176
X93.13Y-60.896
X93.13Y-64.316
X93.507Y-104.426
X93.507Y-112.046
X93.707Y-93.536
X93.79Y-128.36
X96.981Y-84.112
X96.981Y-86.112
X97.317Y-97.536
X97.317Y-101.136
X97.36Y-140.746
X97.36Y-145.236
X97.36Y-150.016
X97.36Y-154.206
X97.36Y-158.356
X97.36Y-163.156
X97.36Y-168.256
X97.36Y-172.956
X97.36Y-178.056
X97.36Y-183.056
X97.38Y-54.676
X97.38Y-132.386
X97.38Y-136.486
X99.061Y-76.942
X99.971Y-93.372
X100.69Y-69.176
X100.75Y-60.896
X100.75Y-64.316
X106.681Y-76.942
X107.591Y-93.372
T3
X110.181Y-76.972
X110.281Y-93.372
X112.721Y-76.972
X112.821Y-93.372
T4
X84.832Y-83.693
X87.373Y-83.693
X89.912Y-83.693
T5
X102.28Y-104.31
X112.44Y-104.31
T6
X69.48Y-56.336
X69.48Y-61.416
X69.48Y-66.496
X69.48Y-71.576
X69.48Y-76.656
X69.48Y-81.736
X69.48Y-86.816
X69.5Y-117.796
X69.5Y-122.876
X69.5Y-127.956
X69.5Y-133.036
X69.5Y-138.116
X69.5Y-143.196
X69.5Y-148.276
X69.5Y-153.356
X69.5Y-158.436
X69.5Y-163.516
X69.5Y-168.596
X69.5Y-173.676
X69.5Y-178.756
X69.5Y-183.836
X69.507Y-94.856
X69.507Y-99.936
X69.507Y-105.016
X69.507Y-110.096
X108.79Y-56.216
X108.79Y-61.296
X108.79Y-66.376
X108.79Y-71.456
X108.86Y-82.606
X108.86Y-87.686
X109.12Y-112.756
X109.12Y-117.836
X109.12Y-122.916
X109.12Y-127.996
X109.12Y-133.076
X109.12Y-138.156
X109.12Y-143.236
X109.12Y-148.316
X109.12Y-153.396
X109.12Y-158.476
X109.12Y-163.556
X109.12Y-168.636
X109.12Y-173.716
X109.12Y-178.796
X109.12Y-183.876
M30
