M48
; DRILL file KiCad 10.0.6 date 2026-10-04T15:00:52
; FORMAT={-:-/ absolute / metric / decimal}
; #@! TF.CreationDate,2026-10-04T15:00:52+02:00
; #@! TF.GenerationSoftware,Kicad,Pcbnew,10.0.6
; #@! TF.FileFunction,Plated,1,2,PTH
FMAT,2
METRIC
; #@! TA.AperFunction,Plated,PTH,ComponentDrill
T1C0.800
; #@! TA.AperFunction,Plated,PTH,ComponentDrill
T2C0.900
; #@! TA.AperFunction,Plated,PTH,ComponentDrill
T3C1.000
; #@! TA.AperFunction,Plated,PTH,ComponentDrill
T4C1.100
; #@! TA.AperFunction,Plated,PTH,ComponentDrill
T5C1.300
%
G90
G05
T1
X69.699Y-53.694
X69.699Y-61.314
X69.699Y-64.094
X69.699Y-71.714
X70.046Y-93.054
X70.046Y-95.594
X70.046Y-98.134
X70.046Y-100.674
X70.046Y-103.214
X70.046Y-105.754
X70.046Y-108.294
X70.046Y-110.834
X71.131Y-82.621
X71.131Y-87.621
X71.27Y-145.604
X71.47Y-150.404
X71.48Y-160.304
X71.57Y-155.404
X71.87Y-117.504
X71.87Y-120.044
X71.87Y-122.584
X71.87Y-125.124
X71.87Y-127.664
X71.87Y-130.204
X71.87Y-132.744
X71.87Y-135.284
X71.87Y-137.824
X73.349Y-75.734
X73.579Y-54.264
X73.579Y-56.804
X73.579Y-59.344
X73.579Y-61.884
X73.579Y-64.424
X73.579Y-66.964
X73.579Y-69.504
X73.579Y-72.044
X77.666Y-93.054
X77.666Y-95.594
X77.666Y-98.134
X77.666Y-100.674
X77.666Y-103.214
X77.666Y-105.754
X77.666Y-108.294
X77.666Y-110.834
X78.89Y-145.604
X79.09Y-150.404
X79.1Y-160.304
X79.19Y-155.404
X79.49Y-117.504
X79.49Y-120.044
X79.49Y-122.584
X79.49Y-125.124
X79.49Y-127.664
X79.49Y-130.204
X79.49Y-132.744
X79.49Y-135.284
X79.49Y-137.824
X80.526Y-92.964
X80.969Y-75.734
X81.199Y-54.264
X81.199Y-56.804
X81.199Y-59.344
X81.199Y-61.884
X81.199Y-64.424
X81.199Y-66.964
X81.199Y-69.504
X81.199Y-72.044
X81.516Y-96.964
X81.516Y-100.564
X81.87Y-145.604
X82.016Y-103.844
X82.016Y-111.464
X82.07Y-155.404
X82.07Y-160.404
X82.16Y-150.304
X82.57Y-117.384
X82.66Y-137.884
X82.92Y-128.914
X82.93Y-124.424
X83.02Y-133.694
X84.199Y-54.104
X84.889Y-68.604
X84.949Y-60.324
X84.949Y-63.744
X85.326Y-103.854
X85.326Y-111.474
X85.526Y-92.964
X87.57Y-117.384
X88.8Y-83.54
X88.8Y-85.54
X89.136Y-96.964
X89.136Y-100.564
X89.199Y-54.104
X89.49Y-145.604
X89.69Y-155.404
X89.69Y-160.404
X89.78Y-150.304
X90.28Y-137.884
X90.54Y-128.914
X90.55Y-124.424
X90.64Y-133.694
X90.88Y-76.37
X91.79Y-92.8
X92.509Y-68.604
X92.569Y-60.324
X92.569Y-63.744
X98.5Y-76.37
X99.41Y-92.8
T2
X102.0Y-76.4
X102.1Y-92.8
X104.54Y-76.4
X104.64Y-92.8
T3
X76.651Y-83.121
X79.191Y-83.121
X81.731Y-83.121
T4
X94.32Y-97.0
X104.48Y-97.0
T5
X61.299Y-55.764
X61.299Y-60.844
X61.299Y-65.924
X61.299Y-71.004
X61.299Y-76.084
X61.299Y-81.164
X61.299Y-86.244
X61.326Y-94.284
X61.326Y-99.364
X61.326Y-104.444
X61.326Y-109.524
X61.399Y-117.224
X61.399Y-122.304
X61.399Y-127.384
X61.399Y-132.464
X61.399Y-137.544
X61.399Y-142.624
X61.399Y-147.704
X61.399Y-152.784
X61.399Y-157.864
X61.399Y-162.944
X100.609Y-55.644
X100.609Y-60.724
X100.609Y-65.804
X100.609Y-70.884
X100.679Y-82.034
X100.679Y-87.114
X100.789Y-112.144
X100.789Y-117.224
X100.789Y-122.304
X100.789Y-127.384
X100.789Y-132.464
X100.789Y-137.544
X100.789Y-142.624
X100.789Y-147.704
X100.789Y-152.784
X100.789Y-157.864
X100.789Y-162.944
M30
