%TF.GenerationSoftware,KiCad,Pcbnew,10.0.6*%
%TF.CreationDate,2026-10-01T20:14:40+02:00*%
%TF.ProjectId,Interface_IAI,496e7465-7266-4616-9365-5f4941492e6b,rev?*%
%TF.SameCoordinates,Original*%
%TF.FileFunction,Drillmap*%
%TF.FilePolarity,Positive*%
%FSLAX45Y45*%
G04 Gerber Fmt 4.5, Leading zero omitted, Abs format (unit mm)*
G04 Created by KiCad (PCBNEW 10.0.6) date 2026-10-01 20:14:40*
%MOMM*%
%LPD*%
G01*
G04 APERTURE LIST*
%ADD10C,0.050000*%
%ADD11C,0.200000*%
%ADD12C,0.100000*%
%ADD13C,0.130000*%
G04 APERTURE END LIST*
D10*
X5000000Y-5000000D02*
X10400000Y-5000000D01*
X10400000Y-11300000D01*
X5000000Y-11300000D01*
X5000000Y-5000000D01*
D11*
D12*
X6790000Y-7494000D02*
X6870000Y-7574000D01*
X6870000Y-7494000D02*
X6790000Y-7574000D01*
X6799000Y-5370000D02*
X6879000Y-5450000D01*
X6879000Y-5370000D02*
X6799000Y-5450000D01*
X6799000Y-5624000D02*
X6879000Y-5704000D01*
X6879000Y-5624000D02*
X6799000Y-5704000D01*
X6799000Y-5878000D02*
X6879000Y-5958000D01*
X6879000Y-5878000D02*
X6799000Y-5958000D01*
X6799000Y-6132000D02*
X6879000Y-6212000D01*
X6879000Y-6132000D02*
X6799000Y-6212000D01*
X6799000Y-6386000D02*
X6879000Y-6466000D01*
X6879000Y-6386000D02*
X6799000Y-6466000D01*
X6799000Y-6640000D02*
X6879000Y-6720000D01*
X6879000Y-6640000D02*
X6799000Y-6720000D01*
X6799000Y-6894000D02*
X6879000Y-6974000D01*
X6879000Y-6894000D02*
X6799000Y-6974000D01*
X6799000Y-7148000D02*
X6879000Y-7228000D01*
X6879000Y-7148000D02*
X6799000Y-7228000D01*
X6800000Y-10160000D02*
X6880000Y-10240000D01*
X6880000Y-10160000D02*
X6800000Y-10240000D01*
X6800000Y-10922000D02*
X6880000Y-11002000D01*
X6880000Y-10922000D02*
X6800000Y-11002000D01*
X6811000Y-8017000D02*
X6891000Y-8097000D01*
X6891000Y-8017000D02*
X6811000Y-8097000D01*
X6811000Y-8779000D02*
X6891000Y-8859000D01*
X6891000Y-8779000D02*
X6811000Y-8859000D01*
X6811000Y-9079000D02*
X6891000Y-9159000D01*
X6891000Y-9079000D02*
X6811000Y-9159000D01*
X6811000Y-9841000D02*
X6891000Y-9921000D01*
X6891000Y-9841000D02*
X6811000Y-9921000D01*
X7289000Y-8699000D02*
X7369000Y-8779000D01*
X7369000Y-8699000D02*
X7289000Y-8779000D01*
X7289000Y-8953000D02*
X7369000Y-9033000D01*
X7369000Y-8953000D02*
X7289000Y-9033000D01*
X7289000Y-9207000D02*
X7369000Y-9287000D01*
X7369000Y-9207000D02*
X7289000Y-9287000D01*
X7289000Y-9461000D02*
X7369000Y-9541000D01*
X7369000Y-9461000D02*
X7289000Y-9541000D01*
X7289000Y-9715000D02*
X7369000Y-9795000D01*
X7369000Y-9715000D02*
X7289000Y-9795000D01*
X7289000Y-9969000D02*
X7369000Y-10049000D01*
X7369000Y-9969000D02*
X7289000Y-10049000D01*
X7289000Y-10223000D02*
X7369000Y-10303000D01*
X7369000Y-10223000D02*
X7289000Y-10303000D01*
X7289000Y-10477000D02*
X7369000Y-10557000D01*
X7369000Y-10477000D02*
X7289000Y-10557000D01*
X7290000Y-7494000D02*
X7370000Y-7574000D01*
X7370000Y-7494000D02*
X7290000Y-7574000D01*
X7550000Y-8369000D02*
X7630000Y-8449000D01*
X7630000Y-8369000D02*
X7550000Y-8449000D01*
X7561000Y-5370000D02*
X7641000Y-5450000D01*
X7641000Y-5370000D02*
X7561000Y-5450000D01*
X7561000Y-5624000D02*
X7641000Y-5704000D01*
X7641000Y-5624000D02*
X7561000Y-5704000D01*
X7561000Y-5878000D02*
X7641000Y-5958000D01*
X7641000Y-5878000D02*
X7561000Y-5958000D01*
X7561000Y-6132000D02*
X7641000Y-6212000D01*
X7641000Y-6132000D02*
X7561000Y-6212000D01*
X7561000Y-6386000D02*
X7641000Y-6466000D01*
X7641000Y-6386000D02*
X7561000Y-6466000D01*
X7561000Y-6640000D02*
X7641000Y-6720000D01*
X7641000Y-6640000D02*
X7561000Y-6720000D01*
X7561000Y-6894000D02*
X7641000Y-6974000D01*
X7641000Y-6894000D02*
X7561000Y-6974000D01*
X7561000Y-7148000D02*
X7641000Y-7228000D01*
X7641000Y-7148000D02*
X7561000Y-7228000D01*
X7909000Y-5359000D02*
X7989000Y-5439000D01*
X7989000Y-5359000D02*
X7909000Y-5439000D01*
X7909000Y-5820000D02*
X7989000Y-5900000D01*
X7989000Y-5820000D02*
X7909000Y-5900000D01*
X7909000Y-7150000D02*
X7989000Y-7230000D01*
X7989000Y-7150000D02*
X7909000Y-7230000D01*
X7910000Y-6735000D02*
X7990000Y-6815000D01*
X7990000Y-6735000D02*
X7910000Y-6815000D01*
X8050000Y-8369000D02*
X8130000Y-8449000D01*
X8130000Y-8369000D02*
X8050000Y-8449000D01*
X8051000Y-8699000D02*
X8131000Y-8779000D01*
X8131000Y-8699000D02*
X8051000Y-8779000D01*
X8051000Y-8953000D02*
X8131000Y-9033000D01*
X8131000Y-8953000D02*
X8051000Y-9033000D01*
X8051000Y-9207000D02*
X8131000Y-9287000D01*
X8131000Y-9207000D02*
X8051000Y-9287000D01*
X8051000Y-9461000D02*
X8131000Y-9541000D01*
X8131000Y-9461000D02*
X8051000Y-9541000D01*
X8051000Y-9715000D02*
X8131000Y-9795000D01*
X8131000Y-9715000D02*
X8051000Y-9795000D01*
X8051000Y-9969000D02*
X8131000Y-10049000D01*
X8131000Y-9969000D02*
X8051000Y-10049000D01*
X8051000Y-10223000D02*
X8131000Y-10303000D01*
X8131000Y-10223000D02*
X8051000Y-10303000D01*
X8051000Y-10477000D02*
X8131000Y-10557000D01*
X8131000Y-10477000D02*
X8051000Y-10557000D01*
X8551000Y-8029000D02*
X8631000Y-8109000D01*
X8631000Y-8029000D02*
X8551000Y-8109000D01*
X8551000Y-8791000D02*
X8631000Y-8871000D01*
X8631000Y-8791000D02*
X8551000Y-8871000D01*
X8551000Y-9107000D02*
X8631000Y-9187000D01*
X8631000Y-9107000D02*
X8551000Y-9187000D01*
X8551000Y-9869000D02*
X8631000Y-9949000D01*
X8631000Y-9869000D02*
X8551000Y-9949000D01*
X8551000Y-10169000D02*
X8631000Y-10249000D01*
X8631000Y-10169000D02*
X8551000Y-10249000D01*
X8551000Y-10931000D02*
X8631000Y-11011000D01*
X8631000Y-10931000D02*
X8551000Y-11011000D01*
X8671000Y-5359000D02*
X8751000Y-5439000D01*
X8751000Y-5359000D02*
X8671000Y-5439000D01*
X8671000Y-5820000D02*
X8751000Y-5900000D01*
X8751000Y-5820000D02*
X8671000Y-5900000D01*
X8671000Y-7150000D02*
X8751000Y-7230000D01*
X8751000Y-7150000D02*
X8671000Y-7230000D01*
X8672000Y-6735000D02*
X8752000Y-6815000D01*
X8752000Y-6735000D02*
X8672000Y-6815000D01*
X9181000Y-8339000D02*
X9261000Y-8419000D01*
X9261000Y-8339000D02*
X9181000Y-8419000D01*
X9681000Y-8339000D02*
X9761000Y-8419000D01*
X9761000Y-8339000D02*
X9681000Y-8419000D01*
D13*
X6036000Y-5555000D02*
G75*
G02*
X5906000Y-5555000I-65000J0D01*
G01*
X5906000Y-5555000D02*
G75*
G02*
X6036000Y-5555000I65000J0D01*
G01*
X6036000Y-6063000D02*
G75*
G02*
X5906000Y-6063000I-65000J0D01*
G01*
X5906000Y-6063000D02*
G75*
G02*
X6036000Y-6063000I65000J0D01*
G01*
X6036000Y-6571000D02*
G75*
G02*
X5906000Y-6571000I-65000J0D01*
G01*
X5906000Y-6571000D02*
G75*
G02*
X6036000Y-6571000I65000J0D01*
G01*
X6036000Y-7079000D02*
G75*
G02*
X5906000Y-7079000I-65000J0D01*
G01*
X5906000Y-7079000D02*
G75*
G02*
X6036000Y-7079000I65000J0D01*
G01*
X6036000Y-7763000D02*
G75*
G02*
X5906000Y-7763000I-65000J0D01*
G01*
X5906000Y-7763000D02*
G75*
G02*
X6036000Y-7763000I65000J0D01*
G01*
X6036000Y-8271000D02*
G75*
G02*
X5906000Y-8271000I-65000J0D01*
G01*
X5906000Y-8271000D02*
G75*
G02*
X6036000Y-8271000I65000J0D01*
G01*
X6036000Y-8779000D02*
G75*
G02*
X5906000Y-8779000I-65000J0D01*
G01*
X5906000Y-8779000D02*
G75*
G02*
X6036000Y-8779000I65000J0D01*
G01*
X6036000Y-9287000D02*
G75*
G02*
X5906000Y-9287000I-65000J0D01*
G01*
X5906000Y-9287000D02*
G75*
G02*
X6036000Y-9287000I65000J0D01*
G01*
X6036000Y-9795000D02*
G75*
G02*
X5906000Y-9795000I-65000J0D01*
G01*
X5906000Y-9795000D02*
G75*
G02*
X6036000Y-9795000I65000J0D01*
G01*
X6036000Y-10303000D02*
G75*
G02*
X5906000Y-10303000I-65000J0D01*
G01*
X5906000Y-10303000D02*
G75*
G02*
X6036000Y-10303000I65000J0D01*
G01*
X6036000Y-10811000D02*
G75*
G02*
X5906000Y-10811000I-65000J0D01*
G01*
X5906000Y-10811000D02*
G75*
G02*
X6036000Y-10811000I65000J0D01*
G01*
X9536000Y-9255000D02*
G75*
G02*
X9406000Y-9255000I-65000J0D01*
G01*
X9406000Y-9255000D02*
G75*
G02*
X9536000Y-9255000I65000J0D01*
G01*
X9536000Y-9763000D02*
G75*
G02*
X9406000Y-9763000I-65000J0D01*
G01*
X9406000Y-9763000D02*
G75*
G02*
X9536000Y-9763000I65000J0D01*
G01*
X9536000Y-10271000D02*
G75*
G02*
X9406000Y-10271000I-65000J0D01*
G01*
X9406000Y-10271000D02*
G75*
G02*
X9536000Y-10271000I65000J0D01*
G01*
X9536000Y-10779000D02*
G75*
G02*
X9406000Y-10779000I-65000J0D01*
G01*
X9406000Y-10779000D02*
G75*
G02*
X9536000Y-10779000I65000J0D01*
G01*
X9553250Y-5571500D02*
G75*
G02*
X9423250Y-5571500I-65000J0D01*
G01*
X9423250Y-5571500D02*
G75*
G02*
X9553250Y-5571500I65000J0D01*
G01*
X9553250Y-6079500D02*
G75*
G02*
X9423250Y-6079500I-65000J0D01*
G01*
X9423250Y-6079500D02*
G75*
G02*
X9553250Y-6079500I65000J0D01*
G01*
X9553250Y-6587500D02*
G75*
G02*
X9423250Y-6587500I-65000J0D01*
G01*
X9423250Y-6587500D02*
G75*
G02*
X9553250Y-6587500I65000J0D01*
G01*
X9553250Y-7325500D02*
G75*
G02*
X9423250Y-7325500I-65000J0D01*
G01*
X9423250Y-7325500D02*
G75*
G02*
X9553250Y-7325500I65000J0D01*
G01*
X9553250Y-7833500D02*
G75*
G02*
X9423250Y-7833500I-65000J0D01*
G01*
X9423250Y-7833500D02*
G75*
G02*
X9553250Y-7833500I65000J0D01*
G01*
D11*
X5258277Y-11613984D02*
X5258277Y-11413984D01*
X5258277Y-11413984D02*
X5305896Y-11413984D01*
X5305896Y-11413984D02*
X5334467Y-11423508D01*
X5334467Y-11423508D02*
X5353515Y-11442555D01*
X5353515Y-11442555D02*
X5363039Y-11461603D01*
X5363039Y-11461603D02*
X5372563Y-11499698D01*
X5372563Y-11499698D02*
X5372563Y-11528269D01*
X5372563Y-11528269D02*
X5363039Y-11566365D01*
X5363039Y-11566365D02*
X5353515Y-11585412D01*
X5353515Y-11585412D02*
X5334467Y-11604460D01*
X5334467Y-11604460D02*
X5305896Y-11613984D01*
X5305896Y-11613984D02*
X5258277Y-11613984D01*
X5458277Y-11613984D02*
X5458277Y-11480650D01*
X5458277Y-11518746D02*
X5467801Y-11499698D01*
X5467801Y-11499698D02*
X5477324Y-11490174D01*
X5477324Y-11490174D02*
X5496372Y-11480650D01*
X5496372Y-11480650D02*
X5515420Y-11480650D01*
X5582086Y-11613984D02*
X5582086Y-11480650D01*
X5582086Y-11413984D02*
X5572563Y-11423508D01*
X5572563Y-11423508D02*
X5582086Y-11433031D01*
X5582086Y-11433031D02*
X5591610Y-11423508D01*
X5591610Y-11423508D02*
X5582086Y-11413984D01*
X5582086Y-11413984D02*
X5582086Y-11433031D01*
X5705896Y-11613984D02*
X5686848Y-11604460D01*
X5686848Y-11604460D02*
X5677324Y-11585412D01*
X5677324Y-11585412D02*
X5677324Y-11413984D01*
X5810658Y-11613984D02*
X5791610Y-11604460D01*
X5791610Y-11604460D02*
X5782086Y-11585412D01*
X5782086Y-11585412D02*
X5782086Y-11413984D01*
X6039229Y-11613984D02*
X6039229Y-11413984D01*
X6039229Y-11413984D02*
X6105896Y-11556841D01*
X6105896Y-11556841D02*
X6172562Y-11413984D01*
X6172562Y-11413984D02*
X6172562Y-11613984D01*
X6353515Y-11613984D02*
X6353515Y-11509222D01*
X6353515Y-11509222D02*
X6343991Y-11490174D01*
X6343991Y-11490174D02*
X6324943Y-11480650D01*
X6324943Y-11480650D02*
X6286848Y-11480650D01*
X6286848Y-11480650D02*
X6267801Y-11490174D01*
X6353515Y-11604460D02*
X6334467Y-11613984D01*
X6334467Y-11613984D02*
X6286848Y-11613984D01*
X6286848Y-11613984D02*
X6267801Y-11604460D01*
X6267801Y-11604460D02*
X6258277Y-11585412D01*
X6258277Y-11585412D02*
X6258277Y-11566365D01*
X6258277Y-11566365D02*
X6267801Y-11547317D01*
X6267801Y-11547317D02*
X6286848Y-11537793D01*
X6286848Y-11537793D02*
X6334467Y-11537793D01*
X6334467Y-11537793D02*
X6353515Y-11528269D01*
X6448753Y-11480650D02*
X6448753Y-11680650D01*
X6448753Y-11490174D02*
X6467801Y-11480650D01*
X6467801Y-11480650D02*
X6505896Y-11480650D01*
X6505896Y-11480650D02*
X6524943Y-11490174D01*
X6524943Y-11490174D02*
X6534467Y-11499698D01*
X6534467Y-11499698D02*
X6543991Y-11518746D01*
X6543991Y-11518746D02*
X6543991Y-11575888D01*
X6543991Y-11575888D02*
X6534467Y-11594936D01*
X6534467Y-11594936D02*
X6524943Y-11604460D01*
X6524943Y-11604460D02*
X6505896Y-11613984D01*
X6505896Y-11613984D02*
X6467801Y-11613984D01*
X6467801Y-11613984D02*
X6448753Y-11604460D01*
X6629705Y-11594936D02*
X6639229Y-11604460D01*
X6639229Y-11604460D02*
X6629705Y-11613984D01*
X6629705Y-11613984D02*
X6620182Y-11604460D01*
X6620182Y-11604460D02*
X6629705Y-11594936D01*
X6629705Y-11594936D02*
X6629705Y-11613984D01*
X6629705Y-11490174D02*
X6639229Y-11499698D01*
X6639229Y-11499698D02*
X6629705Y-11509222D01*
X6629705Y-11509222D02*
X6620182Y-11499698D01*
X6620182Y-11499698D02*
X6629705Y-11490174D01*
X6629705Y-11490174D02*
X6629705Y-11509222D01*
D12*
X4917500Y-11902500D02*
X4997500Y-11982500D01*
X4997500Y-11902500D02*
X4917500Y-11982500D01*
D11*
X5296372Y-11833984D02*
X5315420Y-11833984D01*
X5315420Y-11833984D02*
X5334467Y-11843508D01*
X5334467Y-11843508D02*
X5343991Y-11853031D01*
X5343991Y-11853031D02*
X5353515Y-11872079D01*
X5353515Y-11872079D02*
X5363039Y-11910174D01*
X5363039Y-11910174D02*
X5363039Y-11957793D01*
X5363039Y-11957793D02*
X5353515Y-11995888D01*
X5353515Y-11995888D02*
X5343991Y-12014936D01*
X5343991Y-12014936D02*
X5334467Y-12024460D01*
X5334467Y-12024460D02*
X5315420Y-12033984D01*
X5315420Y-12033984D02*
X5296372Y-12033984D01*
X5296372Y-12033984D02*
X5277324Y-12024460D01*
X5277324Y-12024460D02*
X5267801Y-12014936D01*
X5267801Y-12014936D02*
X5258277Y-11995888D01*
X5258277Y-11995888D02*
X5248753Y-11957793D01*
X5248753Y-11957793D02*
X5248753Y-11910174D01*
X5248753Y-11910174D02*
X5258277Y-11872079D01*
X5258277Y-11872079D02*
X5267801Y-11853031D01*
X5267801Y-11853031D02*
X5277324Y-11843508D01*
X5277324Y-11843508D02*
X5296372Y-11833984D01*
X5458277Y-12024460D02*
X5458277Y-12033984D01*
X5458277Y-12033984D02*
X5448753Y-12053031D01*
X5448753Y-12053031D02*
X5439229Y-12062555D01*
X5572563Y-11919698D02*
X5553515Y-11910174D01*
X5553515Y-11910174D02*
X5543991Y-11900650D01*
X5543991Y-11900650D02*
X5534467Y-11881603D01*
X5534467Y-11881603D02*
X5534467Y-11872079D01*
X5534467Y-11872079D02*
X5543991Y-11853031D01*
X5543991Y-11853031D02*
X5553515Y-11843508D01*
X5553515Y-11843508D02*
X5572563Y-11833984D01*
X5572563Y-11833984D02*
X5610658Y-11833984D01*
X5610658Y-11833984D02*
X5629705Y-11843508D01*
X5629705Y-11843508D02*
X5639229Y-11853031D01*
X5639229Y-11853031D02*
X5648753Y-11872079D01*
X5648753Y-11872079D02*
X5648753Y-11881603D01*
X5648753Y-11881603D02*
X5639229Y-11900650D01*
X5639229Y-11900650D02*
X5629705Y-11910174D01*
X5629705Y-11910174D02*
X5610658Y-11919698D01*
X5610658Y-11919698D02*
X5572563Y-11919698D01*
X5572563Y-11919698D02*
X5553515Y-11929222D01*
X5553515Y-11929222D02*
X5543991Y-11938746D01*
X5543991Y-11938746D02*
X5534467Y-11957793D01*
X5534467Y-11957793D02*
X5534467Y-11995888D01*
X5534467Y-11995888D02*
X5543991Y-12014936D01*
X5543991Y-12014936D02*
X5553515Y-12024460D01*
X5553515Y-12024460D02*
X5572563Y-12033984D01*
X5572563Y-12033984D02*
X5610658Y-12033984D01*
X5610658Y-12033984D02*
X5629705Y-12024460D01*
X5629705Y-12024460D02*
X5639229Y-12014936D01*
X5639229Y-12014936D02*
X5648753Y-11995888D01*
X5648753Y-11995888D02*
X5648753Y-11957793D01*
X5648753Y-11957793D02*
X5639229Y-11938746D01*
X5639229Y-11938746D02*
X5629705Y-11929222D01*
X5629705Y-11929222D02*
X5610658Y-11919698D01*
X5772562Y-11833984D02*
X5791610Y-11833984D01*
X5791610Y-11833984D02*
X5810658Y-11843508D01*
X5810658Y-11843508D02*
X5820182Y-11853031D01*
X5820182Y-11853031D02*
X5829705Y-11872079D01*
X5829705Y-11872079D02*
X5839229Y-11910174D01*
X5839229Y-11910174D02*
X5839229Y-11957793D01*
X5839229Y-11957793D02*
X5829705Y-11995888D01*
X5829705Y-11995888D02*
X5820182Y-12014936D01*
X5820182Y-12014936D02*
X5810658Y-12024460D01*
X5810658Y-12024460D02*
X5791610Y-12033984D01*
X5791610Y-12033984D02*
X5772562Y-12033984D01*
X5772562Y-12033984D02*
X5753515Y-12024460D01*
X5753515Y-12024460D02*
X5743991Y-12014936D01*
X5743991Y-12014936D02*
X5734467Y-11995888D01*
X5734467Y-11995888D02*
X5724943Y-11957793D01*
X5724943Y-11957793D02*
X5724943Y-11910174D01*
X5724943Y-11910174D02*
X5734467Y-11872079D01*
X5734467Y-11872079D02*
X5743991Y-11853031D01*
X5743991Y-11853031D02*
X5753515Y-11843508D01*
X5753515Y-11843508D02*
X5772562Y-11833984D01*
X5963039Y-11833984D02*
X5982086Y-11833984D01*
X5982086Y-11833984D02*
X6001134Y-11843508D01*
X6001134Y-11843508D02*
X6010658Y-11853031D01*
X6010658Y-11853031D02*
X6020182Y-11872079D01*
X6020182Y-11872079D02*
X6029705Y-11910174D01*
X6029705Y-11910174D02*
X6029705Y-11957793D01*
X6029705Y-11957793D02*
X6020182Y-11995888D01*
X6020182Y-11995888D02*
X6010658Y-12014936D01*
X6010658Y-12014936D02*
X6001134Y-12024460D01*
X6001134Y-12024460D02*
X5982086Y-12033984D01*
X5982086Y-12033984D02*
X5963039Y-12033984D01*
X5963039Y-12033984D02*
X5943991Y-12024460D01*
X5943991Y-12024460D02*
X5934467Y-12014936D01*
X5934467Y-12014936D02*
X5924943Y-11995888D01*
X5924943Y-11995888D02*
X5915420Y-11957793D01*
X5915420Y-11957793D02*
X5915420Y-11910174D01*
X5915420Y-11910174D02*
X5924943Y-11872079D01*
X5924943Y-11872079D02*
X5934467Y-11853031D01*
X5934467Y-11853031D02*
X5943991Y-11843508D01*
X5943991Y-11843508D02*
X5963039Y-11833984D01*
X6115420Y-12033984D02*
X6115420Y-11900650D01*
X6115420Y-11919698D02*
X6124943Y-11910174D01*
X6124943Y-11910174D02*
X6143991Y-11900650D01*
X6143991Y-11900650D02*
X6172563Y-11900650D01*
X6172563Y-11900650D02*
X6191610Y-11910174D01*
X6191610Y-11910174D02*
X6201134Y-11929222D01*
X6201134Y-11929222D02*
X6201134Y-12033984D01*
X6201134Y-11929222D02*
X6210658Y-11910174D01*
X6210658Y-11910174D02*
X6229705Y-11900650D01*
X6229705Y-11900650D02*
X6258277Y-11900650D01*
X6258277Y-11900650D02*
X6277324Y-11910174D01*
X6277324Y-11910174D02*
X6286848Y-11929222D01*
X6286848Y-11929222D02*
X6286848Y-12033984D01*
X6382086Y-12033984D02*
X6382086Y-11900650D01*
X6382086Y-11919698D02*
X6391610Y-11910174D01*
X6391610Y-11910174D02*
X6410658Y-11900650D01*
X6410658Y-11900650D02*
X6439229Y-11900650D01*
X6439229Y-11900650D02*
X6458277Y-11910174D01*
X6458277Y-11910174D02*
X6467801Y-11929222D01*
X6467801Y-11929222D02*
X6467801Y-12033984D01*
X6467801Y-11929222D02*
X6477324Y-11910174D01*
X6477324Y-11910174D02*
X6496372Y-11900650D01*
X6496372Y-11900650D02*
X6524943Y-11900650D01*
X6524943Y-11900650D02*
X6543991Y-11910174D01*
X6543991Y-11910174D02*
X6553515Y-11929222D01*
X6553515Y-11929222D02*
X6553515Y-12033984D01*
X6943991Y-11824460D02*
X6772563Y-12081603D01*
X7201134Y-11833984D02*
X7220182Y-11833984D01*
X7220182Y-11833984D02*
X7239229Y-11843508D01*
X7239229Y-11843508D02*
X7248753Y-11853031D01*
X7248753Y-11853031D02*
X7258277Y-11872079D01*
X7258277Y-11872079D02*
X7267801Y-11910174D01*
X7267801Y-11910174D02*
X7267801Y-11957793D01*
X7267801Y-11957793D02*
X7258277Y-11995888D01*
X7258277Y-11995888D02*
X7248753Y-12014936D01*
X7248753Y-12014936D02*
X7239229Y-12024460D01*
X7239229Y-12024460D02*
X7220182Y-12033984D01*
X7220182Y-12033984D02*
X7201134Y-12033984D01*
X7201134Y-12033984D02*
X7182086Y-12024460D01*
X7182086Y-12024460D02*
X7172563Y-12014936D01*
X7172563Y-12014936D02*
X7163039Y-11995888D01*
X7163039Y-11995888D02*
X7153515Y-11957793D01*
X7153515Y-11957793D02*
X7153515Y-11910174D01*
X7153515Y-11910174D02*
X7163039Y-11872079D01*
X7163039Y-11872079D02*
X7172563Y-11853031D01*
X7172563Y-11853031D02*
X7182086Y-11843508D01*
X7182086Y-11843508D02*
X7201134Y-11833984D01*
X7363039Y-12024460D02*
X7363039Y-12033984D01*
X7363039Y-12033984D02*
X7353515Y-12053031D01*
X7353515Y-12053031D02*
X7343991Y-12062555D01*
X7486848Y-11833984D02*
X7505896Y-11833984D01*
X7505896Y-11833984D02*
X7524944Y-11843508D01*
X7524944Y-11843508D02*
X7534467Y-11853031D01*
X7534467Y-11853031D02*
X7543991Y-11872079D01*
X7543991Y-11872079D02*
X7553515Y-11910174D01*
X7553515Y-11910174D02*
X7553515Y-11957793D01*
X7553515Y-11957793D02*
X7543991Y-11995888D01*
X7543991Y-11995888D02*
X7534467Y-12014936D01*
X7534467Y-12014936D02*
X7524944Y-12024460D01*
X7524944Y-12024460D02*
X7505896Y-12033984D01*
X7505896Y-12033984D02*
X7486848Y-12033984D01*
X7486848Y-12033984D02*
X7467801Y-12024460D01*
X7467801Y-12024460D02*
X7458277Y-12014936D01*
X7458277Y-12014936D02*
X7448753Y-11995888D01*
X7448753Y-11995888D02*
X7439229Y-11957793D01*
X7439229Y-11957793D02*
X7439229Y-11910174D01*
X7439229Y-11910174D02*
X7448753Y-11872079D01*
X7448753Y-11872079D02*
X7458277Y-11853031D01*
X7458277Y-11853031D02*
X7467801Y-11843508D01*
X7467801Y-11843508D02*
X7486848Y-11833984D01*
X7620182Y-11833984D02*
X7743991Y-11833984D01*
X7743991Y-11833984D02*
X7677325Y-11910174D01*
X7677325Y-11910174D02*
X7705896Y-11910174D01*
X7705896Y-11910174D02*
X7724944Y-11919698D01*
X7724944Y-11919698D02*
X7734467Y-11929222D01*
X7734467Y-11929222D02*
X7743991Y-11948269D01*
X7743991Y-11948269D02*
X7743991Y-11995888D01*
X7743991Y-11995888D02*
X7734467Y-12014936D01*
X7734467Y-12014936D02*
X7724944Y-12024460D01*
X7724944Y-12024460D02*
X7705896Y-12033984D01*
X7705896Y-12033984D02*
X7648753Y-12033984D01*
X7648753Y-12033984D02*
X7629706Y-12024460D01*
X7629706Y-12024460D02*
X7620182Y-12014936D01*
X7934467Y-12033984D02*
X7820182Y-12033984D01*
X7877325Y-12033984D02*
X7877325Y-11833984D01*
X7877325Y-11833984D02*
X7858277Y-11862555D01*
X7858277Y-11862555D02*
X7839229Y-11881603D01*
X7839229Y-11881603D02*
X7820182Y-11891127D01*
X8115420Y-11833984D02*
X8020182Y-11833984D01*
X8020182Y-11833984D02*
X8010658Y-11929222D01*
X8010658Y-11929222D02*
X8020182Y-11919698D01*
X8020182Y-11919698D02*
X8039229Y-11910174D01*
X8039229Y-11910174D02*
X8086848Y-11910174D01*
X8086848Y-11910174D02*
X8105896Y-11919698D01*
X8105896Y-11919698D02*
X8115420Y-11929222D01*
X8115420Y-11929222D02*
X8124944Y-11948269D01*
X8124944Y-11948269D02*
X8124944Y-11995888D01*
X8124944Y-11995888D02*
X8115420Y-12014936D01*
X8115420Y-12014936D02*
X8105896Y-12024460D01*
X8105896Y-12024460D02*
X8086848Y-12033984D01*
X8086848Y-12033984D02*
X8039229Y-12033984D01*
X8039229Y-12033984D02*
X8020182Y-12024460D01*
X8020182Y-12024460D02*
X8010658Y-12014936D01*
X8201134Y-11833984D02*
X8201134Y-11872079D01*
X8277325Y-11833984D02*
X8277325Y-11872079D01*
X8572563Y-12110174D02*
X8563039Y-12100650D01*
X8563039Y-12100650D02*
X8543991Y-12072079D01*
X8543991Y-12072079D02*
X8534468Y-12053031D01*
X8534468Y-12053031D02*
X8524944Y-12024460D01*
X8524944Y-12024460D02*
X8515420Y-11976841D01*
X8515420Y-11976841D02*
X8515420Y-11938746D01*
X8515420Y-11938746D02*
X8524944Y-11891127D01*
X8524944Y-11891127D02*
X8534468Y-11862555D01*
X8534468Y-11862555D02*
X8543991Y-11843508D01*
X8543991Y-11843508D02*
X8563039Y-11814936D01*
X8563039Y-11814936D02*
X8572563Y-11805412D01*
X8743991Y-11833984D02*
X8648753Y-11833984D01*
X8648753Y-11833984D02*
X8639230Y-11929222D01*
X8639230Y-11929222D02*
X8648753Y-11919698D01*
X8648753Y-11919698D02*
X8667801Y-11910174D01*
X8667801Y-11910174D02*
X8715420Y-11910174D01*
X8715420Y-11910174D02*
X8734468Y-11919698D01*
X8734468Y-11919698D02*
X8743991Y-11929222D01*
X8743991Y-11929222D02*
X8753515Y-11948269D01*
X8753515Y-11948269D02*
X8753515Y-11995888D01*
X8753515Y-11995888D02*
X8743991Y-12014936D01*
X8743991Y-12014936D02*
X8734468Y-12024460D01*
X8734468Y-12024460D02*
X8715420Y-12033984D01*
X8715420Y-12033984D02*
X8667801Y-12033984D01*
X8667801Y-12033984D02*
X8648753Y-12024460D01*
X8648753Y-12024460D02*
X8639230Y-12014936D01*
X8867801Y-11919698D02*
X8848753Y-11910174D01*
X8848753Y-11910174D02*
X8839230Y-11900650D01*
X8839230Y-11900650D02*
X8829706Y-11881603D01*
X8829706Y-11881603D02*
X8829706Y-11872079D01*
X8829706Y-11872079D02*
X8839230Y-11853031D01*
X8839230Y-11853031D02*
X8848753Y-11843508D01*
X8848753Y-11843508D02*
X8867801Y-11833984D01*
X8867801Y-11833984D02*
X8905896Y-11833984D01*
X8905896Y-11833984D02*
X8924944Y-11843508D01*
X8924944Y-11843508D02*
X8934468Y-11853031D01*
X8934468Y-11853031D02*
X8943991Y-11872079D01*
X8943991Y-11872079D02*
X8943991Y-11881603D01*
X8943991Y-11881603D02*
X8934468Y-11900650D01*
X8934468Y-11900650D02*
X8924944Y-11910174D01*
X8924944Y-11910174D02*
X8905896Y-11919698D01*
X8905896Y-11919698D02*
X8867801Y-11919698D01*
X8867801Y-11919698D02*
X8848753Y-11929222D01*
X8848753Y-11929222D02*
X8839230Y-11938746D01*
X8839230Y-11938746D02*
X8829706Y-11957793D01*
X8829706Y-11957793D02*
X8829706Y-11995888D01*
X8829706Y-11995888D02*
X8839230Y-12014936D01*
X8839230Y-12014936D02*
X8848753Y-12024460D01*
X8848753Y-12024460D02*
X8867801Y-12033984D01*
X8867801Y-12033984D02*
X8905896Y-12033984D01*
X8905896Y-12033984D02*
X8924944Y-12024460D01*
X8924944Y-12024460D02*
X8934468Y-12014936D01*
X8934468Y-12014936D02*
X8943991Y-11995888D01*
X8943991Y-11995888D02*
X8943991Y-11957793D01*
X8943991Y-11957793D02*
X8934468Y-11938746D01*
X8934468Y-11938746D02*
X8924944Y-11929222D01*
X8924944Y-11929222D02*
X8905896Y-11919698D01*
X9182087Y-12033984D02*
X9182087Y-11833984D01*
X9267801Y-12033984D02*
X9267801Y-11929222D01*
X9267801Y-11929222D02*
X9258277Y-11910174D01*
X9258277Y-11910174D02*
X9239230Y-11900650D01*
X9239230Y-11900650D02*
X9210658Y-11900650D01*
X9210658Y-11900650D02*
X9191611Y-11910174D01*
X9191611Y-11910174D02*
X9182087Y-11919698D01*
X9391611Y-12033984D02*
X9372563Y-12024460D01*
X9372563Y-12024460D02*
X9363039Y-12014936D01*
X9363039Y-12014936D02*
X9353515Y-11995888D01*
X9353515Y-11995888D02*
X9353515Y-11938746D01*
X9353515Y-11938746D02*
X9363039Y-11919698D01*
X9363039Y-11919698D02*
X9372563Y-11910174D01*
X9372563Y-11910174D02*
X9391611Y-11900650D01*
X9391611Y-11900650D02*
X9420182Y-11900650D01*
X9420182Y-11900650D02*
X9439230Y-11910174D01*
X9439230Y-11910174D02*
X9448753Y-11919698D01*
X9448753Y-11919698D02*
X9458277Y-11938746D01*
X9458277Y-11938746D02*
X9458277Y-11995888D01*
X9458277Y-11995888D02*
X9448753Y-12014936D01*
X9448753Y-12014936D02*
X9439230Y-12024460D01*
X9439230Y-12024460D02*
X9420182Y-12033984D01*
X9420182Y-12033984D02*
X9391611Y-12033984D01*
X9572563Y-12033984D02*
X9553515Y-12024460D01*
X9553515Y-12024460D02*
X9543992Y-12005412D01*
X9543992Y-12005412D02*
X9543992Y-11833984D01*
X9724944Y-12024460D02*
X9705896Y-12033984D01*
X9705896Y-12033984D02*
X9667801Y-12033984D01*
X9667801Y-12033984D02*
X9648753Y-12024460D01*
X9648753Y-12024460D02*
X9639230Y-12005412D01*
X9639230Y-12005412D02*
X9639230Y-11929222D01*
X9639230Y-11929222D02*
X9648753Y-11910174D01*
X9648753Y-11910174D02*
X9667801Y-11900650D01*
X9667801Y-11900650D02*
X9705896Y-11900650D01*
X9705896Y-11900650D02*
X9724944Y-11910174D01*
X9724944Y-11910174D02*
X9734468Y-11929222D01*
X9734468Y-11929222D02*
X9734468Y-11948269D01*
X9734468Y-11948269D02*
X9639230Y-11967317D01*
X9810658Y-12024460D02*
X9829706Y-12033984D01*
X9829706Y-12033984D02*
X9867801Y-12033984D01*
X9867801Y-12033984D02*
X9886849Y-12024460D01*
X9886849Y-12024460D02*
X9896373Y-12005412D01*
X9896373Y-12005412D02*
X9896373Y-11995888D01*
X9896373Y-11995888D02*
X9886849Y-11976841D01*
X9886849Y-11976841D02*
X9867801Y-11967317D01*
X9867801Y-11967317D02*
X9839230Y-11967317D01*
X9839230Y-11967317D02*
X9820182Y-11957793D01*
X9820182Y-11957793D02*
X9810658Y-11938746D01*
X9810658Y-11938746D02*
X9810658Y-11929222D01*
X9810658Y-11929222D02*
X9820182Y-11910174D01*
X9820182Y-11910174D02*
X9839230Y-11900650D01*
X9839230Y-11900650D02*
X9867801Y-11900650D01*
X9867801Y-11900650D02*
X9886849Y-11910174D01*
X9963039Y-12110174D02*
X9972563Y-12100650D01*
X9972563Y-12100650D02*
X9991611Y-12072079D01*
X9991611Y-12072079D02*
X10001134Y-12053031D01*
X10001134Y-12053031D02*
X10010658Y-12024460D01*
X10010658Y-12024460D02*
X10020182Y-11976841D01*
X10020182Y-11976841D02*
X10020182Y-11938746D01*
X10020182Y-11938746D02*
X10010658Y-11891127D01*
X10010658Y-11891127D02*
X10001134Y-11862555D01*
X10001134Y-11862555D02*
X9991611Y-11843508D01*
X9991611Y-11843508D02*
X9972563Y-11814936D01*
X9972563Y-11814936D02*
X9963039Y-11805412D01*
D13*
X4997500Y-12206500D02*
G75*
G02*
X4867500Y-12206500I-65000J0D01*
G01*
X4867500Y-12206500D02*
G75*
G02*
X4997500Y-12206500I65000J0D01*
G01*
D11*
X5363039Y-12297984D02*
X5248753Y-12297984D01*
X5305896Y-12297984D02*
X5305896Y-12097984D01*
X5305896Y-12097984D02*
X5286848Y-12126555D01*
X5286848Y-12126555D02*
X5267801Y-12145603D01*
X5267801Y-12145603D02*
X5248753Y-12155127D01*
X5458277Y-12288460D02*
X5458277Y-12297984D01*
X5458277Y-12297984D02*
X5448753Y-12317031D01*
X5448753Y-12317031D02*
X5439229Y-12326555D01*
X5524944Y-12097984D02*
X5648753Y-12097984D01*
X5648753Y-12097984D02*
X5582086Y-12174174D01*
X5582086Y-12174174D02*
X5610658Y-12174174D01*
X5610658Y-12174174D02*
X5629705Y-12183698D01*
X5629705Y-12183698D02*
X5639229Y-12193222D01*
X5639229Y-12193222D02*
X5648753Y-12212269D01*
X5648753Y-12212269D02*
X5648753Y-12259888D01*
X5648753Y-12259888D02*
X5639229Y-12278936D01*
X5639229Y-12278936D02*
X5629705Y-12288460D01*
X5629705Y-12288460D02*
X5610658Y-12297984D01*
X5610658Y-12297984D02*
X5553515Y-12297984D01*
X5553515Y-12297984D02*
X5534467Y-12288460D01*
X5534467Y-12288460D02*
X5524944Y-12278936D01*
X5772562Y-12097984D02*
X5791610Y-12097984D01*
X5791610Y-12097984D02*
X5810658Y-12107508D01*
X5810658Y-12107508D02*
X5820182Y-12117031D01*
X5820182Y-12117031D02*
X5829705Y-12136079D01*
X5829705Y-12136079D02*
X5839229Y-12174174D01*
X5839229Y-12174174D02*
X5839229Y-12221793D01*
X5839229Y-12221793D02*
X5829705Y-12259888D01*
X5829705Y-12259888D02*
X5820182Y-12278936D01*
X5820182Y-12278936D02*
X5810658Y-12288460D01*
X5810658Y-12288460D02*
X5791610Y-12297984D01*
X5791610Y-12297984D02*
X5772562Y-12297984D01*
X5772562Y-12297984D02*
X5753515Y-12288460D01*
X5753515Y-12288460D02*
X5743991Y-12278936D01*
X5743991Y-12278936D02*
X5734467Y-12259888D01*
X5734467Y-12259888D02*
X5724943Y-12221793D01*
X5724943Y-12221793D02*
X5724943Y-12174174D01*
X5724943Y-12174174D02*
X5734467Y-12136079D01*
X5734467Y-12136079D02*
X5743991Y-12117031D01*
X5743991Y-12117031D02*
X5753515Y-12107508D01*
X5753515Y-12107508D02*
X5772562Y-12097984D01*
X5963039Y-12097984D02*
X5982086Y-12097984D01*
X5982086Y-12097984D02*
X6001134Y-12107508D01*
X6001134Y-12107508D02*
X6010658Y-12117031D01*
X6010658Y-12117031D02*
X6020182Y-12136079D01*
X6020182Y-12136079D02*
X6029705Y-12174174D01*
X6029705Y-12174174D02*
X6029705Y-12221793D01*
X6029705Y-12221793D02*
X6020182Y-12259888D01*
X6020182Y-12259888D02*
X6010658Y-12278936D01*
X6010658Y-12278936D02*
X6001134Y-12288460D01*
X6001134Y-12288460D02*
X5982086Y-12297984D01*
X5982086Y-12297984D02*
X5963039Y-12297984D01*
X5963039Y-12297984D02*
X5943991Y-12288460D01*
X5943991Y-12288460D02*
X5934467Y-12278936D01*
X5934467Y-12278936D02*
X5924943Y-12259888D01*
X5924943Y-12259888D02*
X5915420Y-12221793D01*
X5915420Y-12221793D02*
X5915420Y-12174174D01*
X5915420Y-12174174D02*
X5924943Y-12136079D01*
X5924943Y-12136079D02*
X5934467Y-12117031D01*
X5934467Y-12117031D02*
X5943991Y-12107508D01*
X5943991Y-12107508D02*
X5963039Y-12097984D01*
X6115420Y-12297984D02*
X6115420Y-12164650D01*
X6115420Y-12183698D02*
X6124943Y-12174174D01*
X6124943Y-12174174D02*
X6143991Y-12164650D01*
X6143991Y-12164650D02*
X6172563Y-12164650D01*
X6172563Y-12164650D02*
X6191610Y-12174174D01*
X6191610Y-12174174D02*
X6201134Y-12193222D01*
X6201134Y-12193222D02*
X6201134Y-12297984D01*
X6201134Y-12193222D02*
X6210658Y-12174174D01*
X6210658Y-12174174D02*
X6229705Y-12164650D01*
X6229705Y-12164650D02*
X6258277Y-12164650D01*
X6258277Y-12164650D02*
X6277324Y-12174174D01*
X6277324Y-12174174D02*
X6286848Y-12193222D01*
X6286848Y-12193222D02*
X6286848Y-12297984D01*
X6382086Y-12297984D02*
X6382086Y-12164650D01*
X6382086Y-12183698D02*
X6391610Y-12174174D01*
X6391610Y-12174174D02*
X6410658Y-12164650D01*
X6410658Y-12164650D02*
X6439229Y-12164650D01*
X6439229Y-12164650D02*
X6458277Y-12174174D01*
X6458277Y-12174174D02*
X6467801Y-12193222D01*
X6467801Y-12193222D02*
X6467801Y-12297984D01*
X6467801Y-12193222D02*
X6477324Y-12174174D01*
X6477324Y-12174174D02*
X6496372Y-12164650D01*
X6496372Y-12164650D02*
X6524943Y-12164650D01*
X6524943Y-12164650D02*
X6543991Y-12174174D01*
X6543991Y-12174174D02*
X6553515Y-12193222D01*
X6553515Y-12193222D02*
X6553515Y-12297984D01*
X6943991Y-12088460D02*
X6772563Y-12345603D01*
X7201134Y-12097984D02*
X7220182Y-12097984D01*
X7220182Y-12097984D02*
X7239229Y-12107508D01*
X7239229Y-12107508D02*
X7248753Y-12117031D01*
X7248753Y-12117031D02*
X7258277Y-12136079D01*
X7258277Y-12136079D02*
X7267801Y-12174174D01*
X7267801Y-12174174D02*
X7267801Y-12221793D01*
X7267801Y-12221793D02*
X7258277Y-12259888D01*
X7258277Y-12259888D02*
X7248753Y-12278936D01*
X7248753Y-12278936D02*
X7239229Y-12288460D01*
X7239229Y-12288460D02*
X7220182Y-12297984D01*
X7220182Y-12297984D02*
X7201134Y-12297984D01*
X7201134Y-12297984D02*
X7182086Y-12288460D01*
X7182086Y-12288460D02*
X7172563Y-12278936D01*
X7172563Y-12278936D02*
X7163039Y-12259888D01*
X7163039Y-12259888D02*
X7153515Y-12221793D01*
X7153515Y-12221793D02*
X7153515Y-12174174D01*
X7153515Y-12174174D02*
X7163039Y-12136079D01*
X7163039Y-12136079D02*
X7172563Y-12117031D01*
X7172563Y-12117031D02*
X7182086Y-12107508D01*
X7182086Y-12107508D02*
X7201134Y-12097984D01*
X7363039Y-12288460D02*
X7363039Y-12297984D01*
X7363039Y-12297984D02*
X7353515Y-12317031D01*
X7353515Y-12317031D02*
X7343991Y-12326555D01*
X7486848Y-12097984D02*
X7505896Y-12097984D01*
X7505896Y-12097984D02*
X7524944Y-12107508D01*
X7524944Y-12107508D02*
X7534467Y-12117031D01*
X7534467Y-12117031D02*
X7543991Y-12136079D01*
X7543991Y-12136079D02*
X7553515Y-12174174D01*
X7553515Y-12174174D02*
X7553515Y-12221793D01*
X7553515Y-12221793D02*
X7543991Y-12259888D01*
X7543991Y-12259888D02*
X7534467Y-12278936D01*
X7534467Y-12278936D02*
X7524944Y-12288460D01*
X7524944Y-12288460D02*
X7505896Y-12297984D01*
X7505896Y-12297984D02*
X7486848Y-12297984D01*
X7486848Y-12297984D02*
X7467801Y-12288460D01*
X7467801Y-12288460D02*
X7458277Y-12278936D01*
X7458277Y-12278936D02*
X7448753Y-12259888D01*
X7448753Y-12259888D02*
X7439229Y-12221793D01*
X7439229Y-12221793D02*
X7439229Y-12174174D01*
X7439229Y-12174174D02*
X7448753Y-12136079D01*
X7448753Y-12136079D02*
X7458277Y-12117031D01*
X7458277Y-12117031D02*
X7467801Y-12107508D01*
X7467801Y-12107508D02*
X7486848Y-12097984D01*
X7734467Y-12097984D02*
X7639229Y-12097984D01*
X7639229Y-12097984D02*
X7629706Y-12193222D01*
X7629706Y-12193222D02*
X7639229Y-12183698D01*
X7639229Y-12183698D02*
X7658277Y-12174174D01*
X7658277Y-12174174D02*
X7705896Y-12174174D01*
X7705896Y-12174174D02*
X7724944Y-12183698D01*
X7724944Y-12183698D02*
X7734467Y-12193222D01*
X7734467Y-12193222D02*
X7743991Y-12212269D01*
X7743991Y-12212269D02*
X7743991Y-12259888D01*
X7743991Y-12259888D02*
X7734467Y-12278936D01*
X7734467Y-12278936D02*
X7724944Y-12288460D01*
X7724944Y-12288460D02*
X7705896Y-12297984D01*
X7705896Y-12297984D02*
X7658277Y-12297984D01*
X7658277Y-12297984D02*
X7639229Y-12288460D01*
X7639229Y-12288460D02*
X7629706Y-12278936D01*
X7934467Y-12297984D02*
X7820182Y-12297984D01*
X7877325Y-12297984D02*
X7877325Y-12097984D01*
X7877325Y-12097984D02*
X7858277Y-12126555D01*
X7858277Y-12126555D02*
X7839229Y-12145603D01*
X7839229Y-12145603D02*
X7820182Y-12155127D01*
X8010658Y-12117031D02*
X8020182Y-12107508D01*
X8020182Y-12107508D02*
X8039229Y-12097984D01*
X8039229Y-12097984D02*
X8086848Y-12097984D01*
X8086848Y-12097984D02*
X8105896Y-12107508D01*
X8105896Y-12107508D02*
X8115420Y-12117031D01*
X8115420Y-12117031D02*
X8124944Y-12136079D01*
X8124944Y-12136079D02*
X8124944Y-12155127D01*
X8124944Y-12155127D02*
X8115420Y-12183698D01*
X8115420Y-12183698D02*
X8001134Y-12297984D01*
X8001134Y-12297984D02*
X8124944Y-12297984D01*
X8201134Y-12097984D02*
X8201134Y-12136079D01*
X8277325Y-12097984D02*
X8277325Y-12136079D01*
X8572563Y-12374174D02*
X8563039Y-12364650D01*
X8563039Y-12364650D02*
X8543991Y-12336079D01*
X8543991Y-12336079D02*
X8534468Y-12317031D01*
X8534468Y-12317031D02*
X8524944Y-12288460D01*
X8524944Y-12288460D02*
X8515420Y-12240841D01*
X8515420Y-12240841D02*
X8515420Y-12202746D01*
X8515420Y-12202746D02*
X8524944Y-12155127D01*
X8524944Y-12155127D02*
X8534468Y-12126555D01*
X8534468Y-12126555D02*
X8543991Y-12107508D01*
X8543991Y-12107508D02*
X8563039Y-12078936D01*
X8563039Y-12078936D02*
X8572563Y-12069412D01*
X8639230Y-12117031D02*
X8648753Y-12107508D01*
X8648753Y-12107508D02*
X8667801Y-12097984D01*
X8667801Y-12097984D02*
X8715420Y-12097984D01*
X8715420Y-12097984D02*
X8734468Y-12107508D01*
X8734468Y-12107508D02*
X8743991Y-12117031D01*
X8743991Y-12117031D02*
X8753515Y-12136079D01*
X8753515Y-12136079D02*
X8753515Y-12155127D01*
X8753515Y-12155127D02*
X8743991Y-12183698D01*
X8743991Y-12183698D02*
X8629706Y-12297984D01*
X8629706Y-12297984D02*
X8753515Y-12297984D01*
X8877325Y-12097984D02*
X8896372Y-12097984D01*
X8896372Y-12097984D02*
X8915420Y-12107508D01*
X8915420Y-12107508D02*
X8924944Y-12117031D01*
X8924944Y-12117031D02*
X8934468Y-12136079D01*
X8934468Y-12136079D02*
X8943991Y-12174174D01*
X8943991Y-12174174D02*
X8943991Y-12221793D01*
X8943991Y-12221793D02*
X8934468Y-12259888D01*
X8934468Y-12259888D02*
X8924944Y-12278936D01*
X8924944Y-12278936D02*
X8915420Y-12288460D01*
X8915420Y-12288460D02*
X8896372Y-12297984D01*
X8896372Y-12297984D02*
X8877325Y-12297984D01*
X8877325Y-12297984D02*
X8858277Y-12288460D01*
X8858277Y-12288460D02*
X8848753Y-12278936D01*
X8848753Y-12278936D02*
X8839230Y-12259888D01*
X8839230Y-12259888D02*
X8829706Y-12221793D01*
X8829706Y-12221793D02*
X8829706Y-12174174D01*
X8829706Y-12174174D02*
X8839230Y-12136079D01*
X8839230Y-12136079D02*
X8848753Y-12117031D01*
X8848753Y-12117031D02*
X8858277Y-12107508D01*
X8858277Y-12107508D02*
X8877325Y-12097984D01*
X9182087Y-12297984D02*
X9182087Y-12097984D01*
X9267801Y-12297984D02*
X9267801Y-12193222D01*
X9267801Y-12193222D02*
X9258277Y-12174174D01*
X9258277Y-12174174D02*
X9239230Y-12164650D01*
X9239230Y-12164650D02*
X9210658Y-12164650D01*
X9210658Y-12164650D02*
X9191611Y-12174174D01*
X9191611Y-12174174D02*
X9182087Y-12183698D01*
X9391611Y-12297984D02*
X9372563Y-12288460D01*
X9372563Y-12288460D02*
X9363039Y-12278936D01*
X9363039Y-12278936D02*
X9353515Y-12259888D01*
X9353515Y-12259888D02*
X9353515Y-12202746D01*
X9353515Y-12202746D02*
X9363039Y-12183698D01*
X9363039Y-12183698D02*
X9372563Y-12174174D01*
X9372563Y-12174174D02*
X9391611Y-12164650D01*
X9391611Y-12164650D02*
X9420182Y-12164650D01*
X9420182Y-12164650D02*
X9439230Y-12174174D01*
X9439230Y-12174174D02*
X9448753Y-12183698D01*
X9448753Y-12183698D02*
X9458277Y-12202746D01*
X9458277Y-12202746D02*
X9458277Y-12259888D01*
X9458277Y-12259888D02*
X9448753Y-12278936D01*
X9448753Y-12278936D02*
X9439230Y-12288460D01*
X9439230Y-12288460D02*
X9420182Y-12297984D01*
X9420182Y-12297984D02*
X9391611Y-12297984D01*
X9572563Y-12297984D02*
X9553515Y-12288460D01*
X9553515Y-12288460D02*
X9543992Y-12269412D01*
X9543992Y-12269412D02*
X9543992Y-12097984D01*
X9724944Y-12288460D02*
X9705896Y-12297984D01*
X9705896Y-12297984D02*
X9667801Y-12297984D01*
X9667801Y-12297984D02*
X9648753Y-12288460D01*
X9648753Y-12288460D02*
X9639230Y-12269412D01*
X9639230Y-12269412D02*
X9639230Y-12193222D01*
X9639230Y-12193222D02*
X9648753Y-12174174D01*
X9648753Y-12174174D02*
X9667801Y-12164650D01*
X9667801Y-12164650D02*
X9705896Y-12164650D01*
X9705896Y-12164650D02*
X9724944Y-12174174D01*
X9724944Y-12174174D02*
X9734468Y-12193222D01*
X9734468Y-12193222D02*
X9734468Y-12212269D01*
X9734468Y-12212269D02*
X9639230Y-12231317D01*
X9810658Y-12288460D02*
X9829706Y-12297984D01*
X9829706Y-12297984D02*
X9867801Y-12297984D01*
X9867801Y-12297984D02*
X9886849Y-12288460D01*
X9886849Y-12288460D02*
X9896373Y-12269412D01*
X9896373Y-12269412D02*
X9896373Y-12259888D01*
X9896373Y-12259888D02*
X9886849Y-12240841D01*
X9886849Y-12240841D02*
X9867801Y-12231317D01*
X9867801Y-12231317D02*
X9839230Y-12231317D01*
X9839230Y-12231317D02*
X9820182Y-12221793D01*
X9820182Y-12221793D02*
X9810658Y-12202746D01*
X9810658Y-12202746D02*
X9810658Y-12193222D01*
X9810658Y-12193222D02*
X9820182Y-12174174D01*
X9820182Y-12174174D02*
X9839230Y-12164650D01*
X9839230Y-12164650D02*
X9867801Y-12164650D01*
X9867801Y-12164650D02*
X9886849Y-12174174D01*
X9963039Y-12374174D02*
X9972563Y-12364650D01*
X9972563Y-12364650D02*
X9991611Y-12336079D01*
X9991611Y-12336079D02*
X10001134Y-12317031D01*
X10001134Y-12317031D02*
X10010658Y-12288460D01*
X10010658Y-12288460D02*
X10020182Y-12240841D01*
X10020182Y-12240841D02*
X10020182Y-12202746D01*
X10020182Y-12202746D02*
X10010658Y-12155127D01*
X10010658Y-12155127D02*
X10001134Y-12126555D01*
X10001134Y-12126555D02*
X9991611Y-12107508D01*
X9991611Y-12107508D02*
X9972563Y-12078936D01*
X9972563Y-12078936D02*
X9963039Y-12069412D01*
M02*
