%TF.GenerationSoftware,KiCad,Pcbnew,10.0.6*%
%TF.CreationDate,2026-10-04T11:26:31+02:00*%
%TF.ProjectId,Interface_IAI,496e7465-7266-4616-9365-5f4941492e6b,rev?*%
%TF.SameCoordinates,Original*%
%TF.FileFunction,Soldermask,Bot*%
%TF.FilePolarity,Negative*%
%FSLAX46Y46*%
G04 Gerber Fmt 4.6, Leading zero omitted, Abs format (unit mm)*
G04 Created by KiCad (PCBNEW 10.0.6) date 2026-10-04 11:26:31*
%MOMM*%
%LPD*%
G01*
G04 APERTURE LIST*
G04 Aperture macros list*
%AMRoundRect*
0 Rectangle with rounded corners*
0 $1 Rounding radius*
0 $2 $3 $4 $5 $6 $7 $8 $9 X,Y pos of 4 corners*
0 Add a 4 corners polygon primitive as box body*
4,1,4,$2,$3,$4,$5,$6,$7,$8,$9,$2,$3,0*
0 Add four circle primitives for the rounded corners*
1,1,$1+$1,$2,$3*
1,1,$1+$1,$4,$5*
1,1,$1+$1,$6,$7*
1,1,$1+$1,$8,$9*
0 Add four rect primitives between the rounded corners*
20,1,$1+$1,$2,$3,$4,$5,0*
20,1,$1+$1,$4,$5,$6,$7,0*
20,1,$1+$1,$6,$7,$8,$9,0*
20,1,$1+$1,$8,$9,$2,$3,0*%
G04 Aperture macros list end*
%ADD10RoundRect,0.250000X1.050000X-1.050000X1.050000X1.050000X-1.050000X1.050000X-1.050000X-1.050000X0*%
%ADD11C,2.600000*%
%ADD12C,1.600000*%
%ADD13C,2.200000*%
%ADD14RoundRect,0.250000X0.550000X0.550000X-0.550000X0.550000X-0.550000X-0.550000X0.550000X-0.550000X0*%
%ADD15RoundRect,0.250000X-1.050000X1.050000X-1.050000X-1.050000X1.050000X-1.050000X1.050000X1.050000X0*%
%ADD16RoundRect,0.250000X-0.550000X-0.550000X0.550000X-0.550000X0.550000X0.550000X-0.550000X0.550000X0*%
%ADD17R,1.500000X2.500000*%
%ADD18O,1.500000X2.500000*%
%ADD19RoundRect,0.249999X-0.850001X-0.850001X0.850001X-0.850001X0.850001X0.850001X-0.850001X0.850001X0*%
G04 APERTURE END LIST*
D10*
%TO.C,J6*%
X100608626Y-70883553D03*
D11*
X100608626Y-65803553D03*
X100608626Y-60723553D03*
X100608626Y-55643553D03*
%TD*%
D12*
%TO.C,R15*%
X71270000Y-145603553D03*
X78890000Y-145603553D03*
%TD*%
%TO.C,C6*%
X82570000Y-117383553D03*
X87570000Y-117383553D03*
%TD*%
D10*
%TO.C,J1*%
X100678626Y-86113553D03*
D11*
X100678626Y-81033553D03*
%TD*%
D12*
%TO.C,R12*%
X83020000Y-133693553D03*
X90640000Y-133693553D03*
%TD*%
%TO.C,C1*%
X80526126Y-92963553D03*
X85526126Y-92963553D03*
%TD*%
%TO.C,R18*%
X71480000Y-160303553D03*
X79100000Y-160303553D03*
%TD*%
%TO.C,R7*%
X80968626Y-75733553D03*
X73348626Y-75733553D03*
%TD*%
%TO.C,R22*%
X82070000Y-160403553D03*
X89690000Y-160403553D03*
%TD*%
D10*
%TO.C,J2*%
X100788626Y-162943553D03*
D11*
X100788626Y-157863553D03*
X100788626Y-152783553D03*
X100788626Y-147703553D03*
X100788626Y-142623553D03*
X100788626Y-137543553D03*
X100788626Y-132463553D03*
X100788626Y-127383553D03*
X100788626Y-122303553D03*
X100788626Y-117223553D03*
X100788626Y-112143553D03*
%TD*%
D13*
%TO.C,H2*%
X109010000Y-166993553D03*
%TD*%
D14*
%TO.C,U3*%
X79490000Y-137823553D03*
D12*
X79490000Y-135283553D03*
X79490000Y-132743553D03*
X79490000Y-130203553D03*
X79490000Y-127663553D03*
X79490000Y-125123553D03*
X79490000Y-122583553D03*
X79490000Y-120043553D03*
X79490000Y-117503553D03*
X71870000Y-117503553D03*
X71870000Y-120043553D03*
X71870000Y-122583553D03*
X71870000Y-125123553D03*
X71870000Y-127663553D03*
X71870000Y-130203553D03*
X71870000Y-132743553D03*
X71870000Y-135283553D03*
X71870000Y-137823553D03*
%TD*%
%TO.C,R5*%
X69698626Y-61313553D03*
X69698626Y-53693553D03*
%TD*%
%TO.C,R6*%
X69698626Y-64093553D03*
X69698626Y-71713553D03*
%TD*%
%TO.C,R14*%
X82930000Y-124423553D03*
X90550000Y-124423553D03*
%TD*%
%TO.C,R10*%
X84888626Y-68603553D03*
X92508626Y-68603553D03*
%TD*%
%TO.C,R1*%
X89136126Y-96963553D03*
X81516126Y-96963553D03*
%TD*%
D15*
%TO.C,J3*%
X61298626Y-55763553D03*
D11*
X61298626Y-60843553D03*
X61298626Y-65923553D03*
X61298626Y-71003553D03*
X61298626Y-76083553D03*
X61298626Y-81163553D03*
X61298626Y-86243553D03*
%TD*%
D12*
%TO.C,R8*%
X84948626Y-60323553D03*
X92568626Y-60323553D03*
%TD*%
D13*
%TO.C,H3*%
X53010000Y-52993553D03*
%TD*%
D12*
%TO.C,R21*%
X82070000Y-155403553D03*
X89690000Y-155403553D03*
%TD*%
%TO.C,R9*%
X84948626Y-63743553D03*
X92568626Y-63743553D03*
%TD*%
%TO.C,R19*%
X81870000Y-145603553D03*
X89490000Y-145603553D03*
%TD*%
%TO.C,R20*%
X82160000Y-150303553D03*
X89780000Y-150303553D03*
%TD*%
%TO.C,C5*%
X87398626Y-87303553D03*
X87398626Y-82303553D03*
%TD*%
D13*
%TO.C,H1*%
X109010000Y-52993553D03*
%TD*%
D16*
%TO.C,U2*%
X73578626Y-54263553D03*
D12*
X73578626Y-56803553D03*
X73578626Y-59343553D03*
X73578626Y-61883553D03*
X73578626Y-64423553D03*
X73578626Y-66963553D03*
X73578626Y-69503553D03*
X73578626Y-72043553D03*
X81198626Y-72043553D03*
X81198626Y-69503553D03*
X81198626Y-66963553D03*
X81198626Y-64423553D03*
X81198626Y-61883553D03*
X81198626Y-59343553D03*
X81198626Y-56803553D03*
X81198626Y-54263553D03*
%TD*%
%TO.C,R16*%
X71470000Y-150403553D03*
X79090000Y-150403553D03*
%TD*%
%TO.C,C4*%
X71131126Y-82621053D03*
X71131126Y-87621053D03*
%TD*%
D13*
%TO.C,H4*%
X53135000Y-166968553D03*
%TD*%
D12*
%TO.C,R4*%
X82016126Y-111463553D03*
X82016126Y-103843553D03*
%TD*%
%TO.C,R17*%
X71570000Y-155403553D03*
X79190000Y-155403553D03*
%TD*%
%TO.C,R11*%
X82660000Y-137883553D03*
X90280000Y-137883553D03*
%TD*%
%TO.C,C3*%
X84198626Y-54103553D03*
X89198626Y-54103553D03*
%TD*%
D17*
%TO.C,U4*%
X81731126Y-83121053D03*
D18*
X79191126Y-83121053D03*
X76651126Y-83121053D03*
%TD*%
D12*
%TO.C,R13*%
X82920000Y-128913553D03*
X90540000Y-128913553D03*
%TD*%
%TO.C,R3*%
X81516126Y-100563553D03*
X89136126Y-100563553D03*
%TD*%
D15*
%TO.C,J4*%
X61326126Y-94283553D03*
D11*
X61326126Y-99363553D03*
X61326126Y-104443553D03*
X61326126Y-109523553D03*
%TD*%
D19*
%TO.C,D1*%
X94260000Y-92704444D03*
D13*
X104420000Y-92704444D03*
%TD*%
D16*
%TO.C,U1*%
X70046126Y-93053553D03*
D12*
X70046126Y-95593553D03*
X70046126Y-98133553D03*
X70046126Y-100673553D03*
X70046126Y-103213553D03*
X70046126Y-105753553D03*
X70046126Y-108293553D03*
X70046126Y-110833553D03*
X77666126Y-110833553D03*
X77666126Y-108293553D03*
X77666126Y-105753553D03*
X77666126Y-103213553D03*
X77666126Y-100673553D03*
X77666126Y-98133553D03*
X77666126Y-95593553D03*
X77666126Y-93053553D03*
%TD*%
D15*
%TO.C,J5*%
X61398626Y-117223553D03*
D11*
X61398626Y-122303553D03*
X61398626Y-127383553D03*
X61398626Y-132463553D03*
X61398626Y-137543553D03*
X61398626Y-142623553D03*
X61398626Y-147703553D03*
X61398626Y-152783553D03*
X61398626Y-157863553D03*
X61398626Y-162943553D03*
%TD*%
D12*
%TO.C,R2*%
X85326126Y-103853553D03*
X85326126Y-111473553D03*
%TD*%
M02*
